<svg width="20" height="20" viewBox="0 0 20 20" fill="none" xmlns="http://www.w3.org/2000/svg">
<g clip-path="url(#clip0_2_5745)">
<path d="M11.4642 9.18829C11.1859 8.60993 10.2911 7.93633 9.71619 8.41219C8.88581 8.4162 8.39879 9.3766 8.44527 10.1791C8.51678 11.4131 9.86809 11.904 10.9129 11.4774C11.8514 11.094 11.8419 9.97262 11.4642 9.18829ZM10.1942 11.2029C10.3276 11.1829 10.4609 11.1432 10.5899 11.0839C10.6044 11.0961 10.6198 11.1063 10.6353 11.1169C10.4936 11.1715 10.3442 11.1994 10.1942 11.2029Z" fill="#FFD4E4"/>
<path d="M14.1874 6.56119C14.194 6.35825 14.1823 6.15488 14.1682 5.96441C14.1593 5.84252 14.0733 5.741 13.9446 5.74067C13.6962 5.73991 12.8959 5.64305 12.6229 5.87242C12.5466 5.78867 12.3828 5.81825 12.3731 5.96452C12.3353 6.53508 12.3096 7.1052 12.3055 7.67706C12.3049 7.76645 12.3701 7.86288 12.4611 7.88151C12.5765 7.90503 12.6966 7.92355 12.817 7.9333C12.8252 7.94674 12.835 7.95942 12.8472 7.97079C13.1269 8.23668 13.6763 8.03374 14.0027 7.98293C14.0739 7.97177 14.1388 7.89722 14.1551 7.83027C14.2558 7.42299 14.2792 6.97313 14.1874 6.56119Z" fill="#FFD4E4"/>
<path d="M14.454 9.58014C14.4388 9.45381 14.3414 9.38339 14.2408 9.36941C14.3692 9.23484 14.251 8.9501 14.021 9.00482C13.6985 9.08142 13.3682 9.08294 13.0432 9.01847C12.9236 8.99474 12.8393 9.07275 12.8159 9.16333C12.7765 9.21111 12.7569 9.27601 12.7774 9.35435C13.2928 11.3261 12.2383 12.9295 10.1533 12.9682C8.19544 13.0046 6.9424 11.5102 7.34058 9.60951C7.35444 9.54342 7.34599 9.45511 7.2877 9.4095C7.2877 9.4095 7.28023 9.40256 7.27069 9.39389C7.3123 9.32141 7.31501 9.22617 7.24317 9.14621C7.23667 9.13906 7.22898 9.13364 7.22194 9.12725C7.2371 9.09139 7.24891 9.05303 7.25292 9.00937C7.26083 8.92345 7.17491 8.85097 7.09463 8.85107C7.00914 8.85118 6.93926 8.87686 6.87067 8.91012C6.85182 8.90211 6.83178 8.8955 6.80913 8.89257C6.38484 8.83721 5.9949 8.95931 5.57234 8.99117C5.45955 8.99962 5.36312 9.07958 5.36377 9.19974C5.36767 9.834 5.37049 10.4683 5.37591 11.1025C5.37482 11.1444 5.38739 11.1769 5.40473 11.2047C5.42358 12.1139 5.69911 13.0693 6.07843 13.6703C6.86591 14.918 8.73869 14.8182 10.0279 14.8911C11.1294 14.9533 13.4879 15.2537 14.1555 14.0721C14.8344 12.8709 14.6109 10.8914 14.454 9.58014ZM13.2426 13.1322C13.2392 13.1291 13.2362 13.1251 13.2325 13.1219C13.2904 12.9123 13.3402 12.7013 13.3805 12.4878C13.3913 12.4594 13.4022 12.431 13.4132 12.4026C13.4085 12.4414 13.4025 12.4799 13.3972 12.5184C13.3429 12.7223 13.2914 12.927 13.2426 13.1322ZM12.8068 14.3526C12.9088 14.2995 13.0064 14.2348 13.0976 14.1556L13.126 14.165C13.1489 14.1726 13.1702 14.1752 13.1911 14.1754C13.2048 14.1947 13.2221 14.2109 13.2415 14.2247C13.0999 14.2977 12.9436 14.3535 12.777 14.3954C12.7889 14.3822 12.7993 14.3687 12.8068 14.3526ZM6.94391 9.50029C6.91369 9.60701 6.89028 9.71211 6.87046 9.81613C6.86406 9.74884 6.85605 9.68145 6.84608 9.61395C6.88606 9.56844 6.90437 9.50419 6.89538 9.44471C6.91759 9.45045 6.93958 9.45695 6.96017 9.46562C6.95453 9.47689 6.9476 9.48718 6.94391 9.50029ZM10.0498 14.4468C10.1991 14.437 10.3486 14.4277 10.498 14.4169C10.4983 14.4335 10.499 14.4494 10.5022 14.4659C10.4108 14.4606 10.3234 14.4561 10.2416 14.453C10.1795 14.4504 10.1148 14.4486 10.0498 14.4468Z" fill="#FFD4E4"/>
<path d="M17.0797 3.19387C16.0031 1.83909 14.5416 0.801224 12.8859 0.293073C11.1885 -0.227971 9.24836 0.0122362 7.57179 0.495142C4.23685 1.45597 1.68179 4.11493 0.784132 7.44933C0.444354 8.71114 0.375878 9.96722 0.537316 11.1833C0.537316 11.1883 0.535366 11.1922 0.535691 11.1975C0.558227 11.469 0.607959 11.7253 0.674701 11.9722C1.01231 13.5138 1.72361 14.9761 2.74457 16.2828C4.50826 18.5401 7.54448 20.4468 10.4848 19.7561C10.4831 19.9 10.5965 20.045 10.7719 19.9868C14.2852 18.8228 17.5186 16.8161 18.9299 13.243C20.2775 9.83222 19.3044 5.99303 17.0797 3.19387ZM0.935602 11.0259C0.905698 10.7694 0.886954 10.5123 0.880561 10.2551C0.884137 10.2808 0.887929 10.3065 0.89183 10.3321C0.906457 10.5724 0.932135 10.8101 0.962797 11.0458C0.954021 11.0388 0.944487 11.0326 0.935602 11.0259ZM1.93392 9.82073C1.92297 9.85919 1.91181 9.89744 1.90044 9.93569C1.8973 9.86028 1.89394 9.78487 1.89329 9.70924C1.90759 9.65929 1.92157 9.60935 1.93554 9.55929C1.93392 9.6464 1.93305 9.73351 1.93392 9.82073ZM9.65271 18.2495C9.50752 18.2206 9.36234 18.1919 9.21715 18.1636C9.36331 18.1762 9.50937 18.1921 9.65553 18.2066C9.6526 18.221 9.65293 18.2353 9.65271 18.2495ZM15.4202 17.0476C15.5025 17.0148 15.5844 16.9793 15.6657 16.9412C15.5982 16.9958 15.5319 17.0519 15.463 17.1051C15.4517 17.0838 15.437 17.0645 15.4202 17.0476ZM10.4526 3.71545C10.5378 3.71913 10.6225 3.72488 10.7073 3.73138C10.707 3.73203 10.7067 3.73257 10.7065 3.73311C10.5206 3.74232 10.335 3.75543 10.1499 3.77342C10.251 3.75511 10.3518 3.73528 10.4526 3.71545ZM3.24427 14.3178C3.20104 14.1709 3.15835 14.0236 3.11393 13.8772C3.18804 14.052 3.26594 14.2255 3.34601 14.3981C3.31253 14.3712 3.27829 14.3446 3.24427 14.3178ZM3.70681 5.65444C3.67431 5.67784 3.64083 5.69995 3.60745 5.72227C3.59337 5.71111 3.57907 5.70038 3.5626 5.6929C3.63736 5.62573 3.70963 5.55649 3.78233 5.48737C3.75546 5.54198 3.73075 5.59799 3.70681 5.65444ZM4.14919 12.9511C4.15082 12.8768 4.15093 12.8026 4.15288 12.7281C4.15905 12.7389 4.16349 12.7502 4.16978 12.7607C4.1726 12.7654 4.17628 12.7678 4.17953 12.7717C4.1973 12.894 4.21962 13.0153 4.24541 13.1354C4.2129 13.0743 4.18137 13.0125 4.14919 12.9511ZM5.32671 14.4577C4.34021 13.4289 4.52082 11.6096 4.60328 10.3141C4.68616 9.01354 4.893 7.66028 4.68768 6.36054C4.71141 6.29694 4.74229 6.23952 4.77208 6.18112C4.919 6.0148 5.05574 5.84101 5.17774 5.65715C6.0689 4.87228 7.72716 4.84617 8.7868 4.81052C10.2966 4.75981 11.9176 4.61224 13.4031 4.91898C15.2053 5.29115 15.546 6.9142 15.5253 8.53335C15.5039 10.2089 15.5855 11.9615 15.1272 13.5882C14.5428 15.6619 12.3598 15.5977 10.5667 15.5732C9.62942 15.5604 8.69318 15.4834 7.76074 15.3925C6.8503 15.3039 5.98406 15.1434 5.32671 14.4577ZM8.12588 19.285C8.5325 19.3429 8.94043 19.3916 9.34945 19.4344C8.93404 19.4204 8.52535 19.3705 8.12588 19.285Z" fill="#FFD4E4"/>
</g>
<defs>
<clipPath id="clip0_2_5745">
<rect width="20" height="20" fill="white"/>
</clipPath>
</defs>
</svg>
