<svg width="96" height="25" viewBox="0 0 96 25" fill="none" xmlns="http://www.w3.org/2000/svg">
<path d="M1.11051 15.099C1.13146 14.6799 1.15242 14.3237 1.15242 14.0304C1.17337 13.5065 1.19432 12.9618 1.21527 12.417C1.23623 11.8722 1.23623 11.1807 1.23623 10.3426C1.23623 9.52546 1.21528 8.60353 1.17337 7.63969C1.13146 6.63394 1.08956 5.92154 1.06861 5.52343C1.04765 5.12532 1.00575 4.70626 0.96384 4.22435C0.921934 3.74243 0.880028 3.38622 0.859075 3.15574C0.838122 2.9043 0.796216 2.61096 0.75431 2.29666L0.712402 1.8357C0.691449 1.62617 0.754306 1.43759 0.900977 1.26997C1.04765 1.10234 1.25718 1.01853 1.48767 0.997581C1.71815 0.976628 1.94863 1.03949 2.1372 1.18616C2.32578 1.33283 2.43055 1.50045 2.4515 1.73094L2.49341 2.1919C2.53531 2.50619 2.57722 2.77858 2.59817 3.00907C2.61913 3.23955 2.66103 3.61671 2.70294 4.09863C2.74484 4.58055 2.78675 5.04151 2.8077 5.48153C2.82866 5.90059 2.87056 6.59204 2.91247 7.57683C2.95438 8.60353 2.97533 9.52546 2.97533 10.3845C2.97533 11.1598 2.95438 11.8512 2.93342 12.417C3.05914 12.2913 3.14295 12.1865 3.22676 12.0817C3.45725 11.8722 3.70869 11.6627 3.98107 11.4531C4.25346 11.2436 4.58871 11.0131 5.02873 10.7617C5.46874 10.5312 5.82494 10.3426 6.09733 10.2379C6.45353 10.1331 6.93545 10.0493 7.54309 9.98643C8.17168 9.94452 8.63264 9.96547 8.98885 10.0493C9.30314 10.1121 9.59648 10.196 9.88982 10.3007C10.2041 10.4474 10.5394 10.6779 10.9375 10.9922C11.3146 11.3274 11.6289 11.6417 11.8385 11.9351C12.048 12.2494 12.2366 12.5846 12.3832 12.9408C12.5509 13.3389 12.6766 14.0094 12.7813 14.9942C12.9071 15.9999 12.928 16.7123 12.8861 17.1105C12.8652 17.5295 12.8023 17.9067 12.6975 18.2838C12.5718 18.661 12.4251 19.0172 12.2575 19.3524C12.0899 19.7086 11.8385 20.0858 11.5242 20.4839C11.2099 20.882 10.9165 21.1963 10.6441 21.4058C10.3717 21.6154 9.97364 21.8668 9.42886 22.1811C8.88408 22.4744 8.44407 22.663 8.12977 22.7678C7.83643 22.8516 7.50118 22.9354 7.08212 22.9983C6.70497 23.0611 6.39067 23.103 6.13923 23.124C5.9297 23.1449 5.72017 23.1659 5.5316 23.1868C5.30111 23.2078 4.98682 23.2078 4.58871 23.1868C4.1487 23.1659 3.79249 23.103 3.52011 22.9983L3.26867 22.8935C3.03819 22.8306 2.87056 22.684 2.7658 22.4954C2.66103 22.2858 2.66104 22.0763 2.74485 21.8668C2.82866 21.6573 2.97533 21.5106 3.20581 21.4268C3.43629 21.343 3.64583 21.343 3.87631 21.4268L4.16965 21.5315C4.27442 21.5525 4.44204 21.5734 4.67252 21.5944C4.96586 21.5944 5.19635 21.5944 5.36398 21.5944C5.5316 21.5734 5.74113 21.5525 5.97161 21.5315C6.18114 21.5106 6.45353 21.4687 6.76782 21.4268C7.10307 21.3639 7.37546 21.3011 7.58499 21.2382C7.77357 21.1963 8.08786 21.0496 8.52788 20.8191C8.98884 20.5677 9.30314 20.3582 9.49172 20.2325C9.65934 20.0858 9.86887 19.8553 10.1203 19.562C10.3717 19.2686 10.5603 18.9962 10.686 18.7238C10.8118 18.4724 10.8956 18.2 10.9794 17.9067C11.0422 17.6343 11.1051 17.32 11.168 16.9847C11.1889 16.6495 11.147 16.0628 11.0632 15.1828C10.9375 14.3027 10.8327 13.737 10.7489 13.4856C10.6441 13.2341 10.5394 12.9827 10.3927 12.7732C10.246 12.5846 10.0365 12.3751 9.78506 12.1446C9.51267 11.956 9.32409 11.8093 9.17742 11.7465C9.0098 11.6627 8.82122 11.5998 8.63264 11.5579C8.46502 11.537 8.17168 11.537 7.73166 11.5579C7.29165 11.5998 6.99831 11.6627 6.83069 11.7255C6.6002 11.7884 6.30686 11.9141 5.97161 12.1236C5.63636 12.3122 5.36397 12.5008 5.17539 12.6475C4.96586 12.8151 4.73538 13.0037 4.52585 13.1713C4.35823 13.3389 4.08584 13.7161 3.70868 14.2818C3.58296 14.4285 3.4782 14.5751 3.39439 14.7009C3.1639 15.0571 2.99628 15.3294 2.89151 15.518C2.87056 15.7695 2.84961 16.0418 2.84961 16.3352C2.78675 17.2781 2.72389 18.0324 2.66103 18.5981C2.61912 19.1639 2.57722 19.6039 2.53532 19.8972C2.49341 20.2115 2.4515 20.5677 2.4096 21.0077C2.36769 21.4687 2.32579 21.783 2.30483 21.9506C2.28388 22.1392 2.22102 22.3906 2.11626 22.7049C2.0953 22.7259 2.05339 22.7468 2.03244 22.7887C1.99053 22.8306 1.92768 22.8725 1.80196 22.9773C1.67624 23.0611 1.57148 23.1449 1.46671 23.2078C1.36195 23.2706 1.23622 23.3335 1.08955 23.3754C0.942882 23.4173 0.817167 23.4383 0.712402 23.4173C0.607636 23.3964 0.502873 23.3545 0.41906 23.2497C0.335248 23.1449 0.272391 23.0192 0.230485 22.8306C0.188578 22.6421 0.167625 22.4325 0.125719 22.202C0.0838134 21.9716 0.0628552 21.7411 0.0419022 21.5525C0.0209492 21.322 0 21.0706 0 20.8191C0 20.5677 0.0209505 20.0858 0.0628565 19.3734C0.104763 18.64 0.16762 18.0952 0.251432 17.76C0.314292 17.4248 0.398106 17.0895 0.502871 16.7752C0.607636 16.4609 0.712404 16.1466 0.859075 15.8114C0.880028 15.539 0.98479 15.3294 1.11051 15.099Z" fill="#F40000"/>
<path d="M24.4324 23.7528C24.2648 23.9624 24.0552 24.0881 23.7828 24.109L23.2381 24.1719C22.7561 24.2138 22.1695 24.1928 21.4361 24.0671C20.7237 23.9414 20.0742 23.7319 19.4875 23.4804C18.9427 23.229 18.4817 22.9566 18.1255 22.7052C17.7484 22.4118 17.2665 21.9509 16.7217 21.2594C16.1769 20.5889 15.7997 20.0442 15.6112 19.6251C15.4016 19.1851 15.234 18.4308 15.1083 17.3622C14.9616 16.2936 14.9197 15.5392 15.0035 15.0783C15.1083 14.6383 15.2969 14.0516 15.5902 13.3182C15.8836 12.5849 16.2188 11.9563 16.5541 11.4325C16.9103 10.9296 17.2245 10.5105 17.5388 10.2172C17.8531 9.90289 18.3351 9.56764 19.0056 9.16953C19.718 8.72952 20.577 8.43617 21.5618 8.2895C22.5257 8.14283 23.2171 8.10093 23.6781 8.16378C24.1181 8.20569 24.7257 8.37331 25.501 8.68761C26.2972 9.00191 26.8839 9.27429 27.2611 9.50478C27.6382 9.73526 28.0363 10.0915 28.4554 10.5315C28.8535 10.9715 29.1678 11.3906 29.3564 11.7468C29.5659 12.1239 29.7754 12.7106 29.964 13.5068C30.1316 14.303 30.2154 15.0573 30.2154 15.7278C30.2154 16.3564 30.1735 16.8802 30.1107 17.2993C30.0688 17.7393 29.9011 18.326 29.6497 19.1013C29.3773 19.8765 29.084 20.5261 28.7487 21.0289C28.4135 21.5528 27.9525 22.0347 27.3449 22.4747C26.7372 22.9357 26.2763 23.229 25.941 23.3547C25.6477 23.5224 25.1238 23.6481 24.4324 23.7528ZM20.1999 22.0347C20.4932 21.8461 20.7656 21.7832 21.059 21.8671L21.6247 22.0556C21.918 22.1604 22.2323 22.2233 22.5885 22.2442C22.9238 22.2861 23.3847 22.2652 23.9924 22.1814C24.6 22.0975 24.9981 22.0137 25.2077 21.9299C25.4172 21.8461 25.7524 21.6156 26.2134 21.2804C26.6744 20.9242 27.0096 20.568 27.2611 20.2118C27.5334 19.8346 27.7639 19.3317 27.9735 18.6822C28.2039 18.0117 28.3506 17.4879 28.4135 17.1526C28.4554 16.7964 28.4763 16.3355 28.4763 15.7488C28.4763 15.204 28.4135 14.5754 28.2668 13.884C28.1201 13.2135 27.9734 12.7525 27.8268 12.522C27.6801 12.2706 27.4496 11.9563 27.1353 11.6001C26.821 11.2439 26.5277 10.9924 26.2763 10.8248C26.0248 10.6572 25.5639 10.4477 24.8934 10.1962C24.2229 9.96575 23.7409 9.81908 23.4476 9.79812C23.1752 9.75622 22.6514 9.77717 21.8761 9.90289C21.1428 10.0286 20.5142 10.2591 20.0113 10.5524C19.4665 10.8877 19.0684 11.1391 18.8589 11.3277C18.6284 11.5582 18.356 11.8934 18.0627 12.3334C17.7693 12.7525 17.4969 13.2763 17.2455 13.9259C16.9731 14.5545 16.8264 15.0573 16.7845 15.3926C16.7426 15.7069 16.7636 16.3145 16.8474 17.2155C16.9731 18.1374 17.0988 18.7241 17.2455 19.0175C17.3922 19.3317 17.7065 19.7718 18.1884 20.3584C18.6494 20.9242 19.0056 21.3013 19.257 21.5109C19.5084 21.6366 19.8227 21.8252 20.1999 22.0347Z" fill="#F40000"/>
<path d="M41.8437 23.7528C41.6761 23.9624 41.4666 24.0881 41.1942 24.109L40.6494 24.1719C40.1675 24.2138 39.5808 24.1928 38.8474 24.0671C38.135 23.9414 37.4855 23.7319 36.8988 23.4804C36.354 23.229 35.8931 22.9566 35.5369 22.7052C35.1597 22.4118 34.6778 21.9509 34.133 21.2594C33.5882 20.5889 33.2111 20.0442 33.0225 19.6251C32.813 19.1851 32.6453 18.4308 32.5196 17.3622C32.3729 16.2936 32.331 15.5392 32.4148 15.0783C32.5196 14.6383 32.7082 14.0516 33.0015 13.3182C33.2949 12.5849 33.6301 11.9563 33.9654 11.4325C34.3216 10.9296 34.6359 10.5105 34.9502 10.2172C35.2645 9.90289 35.7464 9.56764 36.4169 9.16953C37.1293 8.72952 37.9883 8.43617 38.9731 8.2895C39.937 8.14283 40.6284 8.10093 41.0894 8.16378C41.5294 8.20569 42.1371 8.37331 42.9123 8.68761C43.7085 9.00191 44.2952 9.27429 44.6724 9.50478C45.0495 9.73526 45.4476 10.0915 45.8667 10.5315C46.2648 10.9715 46.5791 11.3906 46.7677 11.7468C46.9772 12.1239 47.1867 12.7106 47.3753 13.5068C47.5429 14.303 47.6267 15.0573 47.6267 15.7278C47.6267 16.3564 47.5848 16.8802 47.522 17.2993C47.4801 17.7393 47.3125 18.326 47.061 19.1013C46.7886 19.8765 46.4953 20.5261 46.16 21.0289C45.8248 21.5528 45.3638 22.0347 44.7562 22.4747C44.1485 22.9357 43.6876 23.229 43.3523 23.3547C43.059 23.5224 42.5352 23.6481 41.8437 23.7528ZM37.6112 22.0347C37.9045 21.8461 38.1769 21.7832 38.4703 21.8671L39.036 22.0556C39.3294 22.1604 39.6436 22.2233 39.9998 22.2442C40.3351 22.2861 40.7961 22.2652 41.4037 22.1814C42.0113 22.0975 42.4094 22.0137 42.619 21.9299C42.8285 21.8461 43.1637 21.6156 43.6247 21.2804C44.0857 20.9242 44.4209 20.568 44.6724 20.2118C44.9448 19.8346 45.1752 19.3317 45.3848 18.6822C45.6153 18.0117 45.7619 17.4879 45.8248 17.1526C45.8667 16.7964 45.8876 16.3355 45.8876 15.7488C45.8876 15.204 45.8248 14.5754 45.6781 13.884C45.5314 13.2135 45.3848 12.7525 45.2381 12.522C45.0914 12.2706 44.8609 11.9563 44.5467 11.6001C44.2324 11.2439 43.939 10.9924 43.6876 10.8248C43.4361 10.6572 42.9752 10.4477 42.3047 10.1962C41.6342 9.96575 41.1523 9.81908 40.8589 9.79812C40.5865 9.75622 40.0627 9.77717 39.2874 9.90289C38.5541 10.0286 37.9255 10.2591 37.4226 10.5524C36.8778 10.8877 36.4797 11.1391 36.2702 11.3277C36.0397 11.5582 35.7673 11.8934 35.474 12.3334C35.1807 12.7525 34.9083 13.2763 34.6568 13.9259C34.3844 14.5545 34.2378 15.0573 34.1959 15.3926C34.1539 15.7069 34.1749 16.3145 34.2587 17.2155C34.3844 18.1374 34.5102 18.7241 34.6568 19.0175C34.8035 19.3317 35.1178 19.7718 35.5997 20.3584C36.0607 20.9242 36.4169 21.3013 36.6683 21.5109C36.9197 21.6366 37.234 21.8252 37.6112 22.0347Z" fill="#F40000"/>
<path d="M51.8636 18.5367C51.8636 18.6834 51.8636 18.851 51.8636 18.9977C51.8846 19.3749 51.9055 19.7311 51.9265 20.1082C51.9474 20.4854 51.9684 20.8206 51.9684 21.114C51.9684 21.4283 51.9474 21.7635 51.9265 22.1197V22.7064C51.9055 22.9159 51.8008 23.1045 51.6331 23.2512C51.4655 23.3978 51.256 23.4817 51.0255 23.4607C50.795 23.4398 50.5855 23.3559 50.3969 23.2093C50.2083 23.0416 50.1455 22.8531 50.1664 22.6435V22.0988C50.1874 21.7216 50.2083 21.4073 50.2083 21.114C50.2083 20.8416 50.1874 20.5063 50.1664 20.1711C50.1455 19.8149 50.1245 19.4587 50.1036 19.0606C50.1036 18.6415 50.0826 17.9291 50.0407 16.9024C49.9988 16.1481 49.9779 15.5405 49.9779 15.0795C49.9569 14.8281 49.936 14.5347 49.915 14.1995C49.8731 13.2775 49.8521 12.607 49.8521 12.1461C49.8521 11.6851 49.8731 11.2241 49.915 10.7841C49.915 10.7632 49.915 10.7213 49.915 10.6794C49.915 10.6375 49.9359 10.5536 49.9779 10.4489C50.0198 10.3441 50.0407 10.2393 50.0826 10.1346C50.1245 10.0298 50.1874 9.94601 50.2712 9.86219C50.355 9.77838 50.4388 9.71552 50.5436 9.67362C50.6484 9.63171 50.7531 9.61076 50.8998 9.63171C51.0465 9.65266 51.1931 9.71552 51.3608 9.82028C51.6332 9.98791 51.7798 10.1555 51.8427 10.3022C51.9055 10.4489 51.9055 10.5536 51.8217 10.6375L51.717 10.7422C51.717 11.0984 51.717 11.5175 51.717 12.0204C51.717 12.5232 51.717 12.9632 51.717 13.3823C51.717 13.7804 51.717 14.1995 51.717 14.6395C51.7379 14.7442 51.7589 14.87 51.7589 15.0376C51.7798 15.3519 51.8008 15.5824 51.8217 15.7919C52.136 15.0585 52.3665 14.5138 52.5341 14.1576C52.7227 13.7804 52.9322 13.4242 53.1418 13.0471C53.3513 12.6489 53.7494 12.0623 54.2942 11.287C54.9018 10.4698 55.3209 9.946 55.5514 9.71552C55.8447 9.48504 56.18 9.27551 56.5571 9.08693L56.9971 8.91931C57.2066 8.81454 57.4371 8.79359 57.6886 8.8774C57.9191 8.96121 58.0867 9.08693 58.1914 9.27551C58.2962 9.46409 58.2962 9.67362 58.2124 9.9041C58.1286 10.1136 57.9819 10.2813 57.7724 10.3651L57.3324 10.5536C57.1228 10.6375 56.9343 10.7422 56.7876 10.847C56.6409 10.9937 56.3057 11.4337 55.7818 12.1251C55.258 12.8794 54.9018 13.4242 54.7132 13.7595C54.5247 14.1157 54.3361 14.4509 54.1685 14.8071C54.0008 15.1633 53.7494 15.729 53.4142 16.5043C53.016 17.3634 52.6808 17.9291 52.4084 18.2434C52.2198 18.3482 52.0522 18.4529 51.8636 18.5367Z" fill="#F40000"/>
<path d="M62.7587 23.5444C62.5701 23.6911 62.3606 23.754 62.1301 23.754C61.8996 23.754 61.6901 23.6492 61.5225 23.5025C61.3549 23.3349 61.2711 23.1673 61.2711 22.9577L61.313 22.6435C61.313 22.4339 61.313 22.0777 61.313 21.5748C61.313 21.072 61.313 20.6529 61.313 20.3386C61.313 20.0453 61.292 19.6262 61.2711 19.1024C61.2501 18.5576 61.2082 17.9081 61.1663 17.1747C61.1034 16.4204 61.0406 15.708 60.9987 15.0375C60.9568 14.367 60.9358 13.8432 60.8939 13.4241C60.852 13.0051 60.8101 12.607 60.7682 12.1669C60.7263 11.7269 60.6844 11.4126 60.6634 11.245C60.6634 11.1193 60.6425 10.9726 60.6006 10.805L60.5586 10.5117C60.5167 10.3231 60.5586 10.1345 60.7053 9.96687C60.852 9.7783 61.0406 9.67353 61.2711 9.65258C61.5015 9.61067 61.732 9.67353 61.9416 9.79925C62.1511 9.92497 62.2558 10.0926 62.2768 10.3021L62.3397 10.5536C62.3606 10.7631 62.3816 10.9517 62.4025 11.1193C62.4025 11.266 62.4444 11.5593 62.5073 11.9993C62.5492 12.4393 62.5911 12.8793 62.633 13.2984C62.6749 13.7175 62.7168 14.2622 62.7587 14.9327C62.7797 15.6032 62.8216 16.3156 62.8635 17.049C62.9263 17.8033 62.9892 18.4528 63.0102 18.9976C63.0311 19.5424 63.0521 19.9615 63.0521 20.2758C63.0521 20.5901 63.0521 21.0091 63.0521 21.5329C63.0521 22.0568 63.0521 22.4339 63.0521 22.6435L63.0102 22.9997C63.0311 23.2092 62.9473 23.3978 62.7587 23.5444Z" fill="#F40000"/>
<path d="M65.2744 9.40103C65.3582 9.1915 65.5049 9.04484 65.7144 8.96102C65.924 8.87721 66.1544 8.87721 66.4059 8.94007C66.6364 9.02388 66.804 9.1496 66.9088 9.33818L67.265 10.0925C67.5373 10.6373 67.8097 11.3078 68.0821 12.083C68.3545 12.7954 68.564 13.3612 68.7317 13.7383C68.9412 14.1364 69.2345 14.6812 69.5907 15.3726C69.9679 16.0641 70.4079 16.8813 70.8898 17.7822C71.3718 18.7042 71.707 19.2909 71.8956 19.5842C72.0842 19.8985 72.2727 20.1918 72.4404 20.4642C72.587 20.6947 72.8175 20.9881 73.1528 21.3233C73.2156 21.3862 73.2994 21.449 73.3623 21.5119C73.4671 21.3862 73.5509 21.2395 73.6556 21.0928C74.0537 20.4642 74.3261 20.0033 74.4518 19.689C74.5985 19.3118 74.7452 18.9347 74.8919 18.5156C75.0595 18.0756 75.3319 17.3003 75.709 16.1689C76.1071 15.0584 76.4005 14.304 76.5681 13.885C76.7357 13.4659 76.9243 12.963 77.1338 12.3764C77.3643 11.8106 77.5319 11.4125 77.6367 11.1611L77.7834 10.8258C77.8462 10.6373 78.0139 10.4906 78.2234 10.4068C78.4539 10.323 78.6844 10.323 78.9148 10.3858C79.1453 10.4696 79.3129 10.5954 79.3968 10.8049C79.5015 11.0144 79.5015 11.203 79.3968 11.4125L79.292 11.7478C79.1872 11.9573 79.0196 12.3554 78.7891 12.9211C78.5796 13.5078 78.391 13.9897 78.2234 14.3879C78.0767 14.786 77.7834 15.5403 77.3853 16.6717C76.9872 17.8032 76.6938 18.5785 76.5681 18.9975C76.4005 19.4375 76.2538 19.8356 76.1071 20.2128C75.9605 20.6319 75.6671 21.1976 75.2062 21.91C75.1852 21.9519 75.1433 22.0357 75.0595 22.1405C74.9966 22.2452 74.9338 22.3291 74.8919 22.371C74.85 22.4129 74.7871 22.4967 74.7033 22.6224C74.6195 22.7481 74.5566 22.8319 74.5147 22.8738C74.4728 22.9157 74.389 22.9786 74.2842 23.0624C74.1794 23.1462 74.0747 23.1881 73.9909 23.2091C73.9071 23.23 73.8023 23.251 73.6766 23.2929C73.5509 23.3348 73.4252 23.3348 73.2994 23.251C72.8594 23.2091 72.3984 22.9157 71.8956 22.3919C71.4346 21.9728 71.1203 21.6166 70.9317 21.2814C70.7432 21.009 70.5546 20.7157 70.366 20.4014C70.1565 20.0661 69.8003 19.4375 69.3184 18.4737C68.8364 17.5518 68.4174 16.7555 68.0193 16.0641C67.6421 15.3726 67.3488 14.8069 67.1602 14.4088C66.9507 13.9688 66.6992 13.3612 66.4059 12.5859C66.1754 11.8525 65.924 11.2449 65.6935 10.763L65.2954 10.0087C65.1906 9.8201 65.1906 9.61056 65.2744 9.40103Z" fill="#F40000"/>
<path d="M95.4256 20.0666H95.3837C95.237 20.2971 95.1113 20.5066 95.0275 20.6952C94.9018 20.8628 94.7761 21.0514 94.6294 21.2399C94.4408 21.4914 94.0218 21.9314 93.3722 22.539C92.7227 23.1676 92.2198 23.5867 91.8636 23.7753C91.5283 23.9638 91.1931 24.1315 90.8578 24.2572C90.5226 24.3829 90.1874 24.4877 89.8521 24.5924C89.4959 24.6762 89.0768 24.7391 88.5949 24.7601C88.113 24.7601 87.5682 24.6762 86.9815 24.5086C86.4577 24.341 86.0596 24.1734 85.7872 24.0477C85.5148 23.9219 85.2424 23.7753 84.97 23.5867C84.6977 23.4191 84.4253 23.1676 84.1529 22.8743C83.8386 22.5181 83.5871 22.0781 83.3986 21.5123C83.21 20.9885 83.1052 20.5694 83.0843 20.2342C83.0633 19.9199 83.0843 19.5637 83.1471 19.1237C83.21 18.7046 83.3357 18.3694 83.4614 18.076C83.5872 17.7617 83.8386 17.3636 84.2157 16.8608C84.5929 16.3369 84.9281 15.9598 85.2215 15.7503C85.4939 15.5617 85.7663 15.3731 86.0806 15.2055C86.3949 15.0379 86.793 14.8283 87.2958 14.6188C87.8406 14.4093 88.4902 14.2626 89.2026 14.2207C89.915 14.1578 90.5016 14.1788 90.9207 14.3254C91.3607 14.4721 91.9684 14.8702 92.7436 15.4988C92.8484 15.5826 92.9322 15.6664 93.037 15.7503C92.8693 15.2055 92.7436 14.7655 92.6389 14.4512C92.4922 14.074 92.2826 13.613 91.9893 13.0473C91.7169 12.5025 91.4655 12.0835 91.235 11.7692C91.0255 11.4549 90.774 11.1825 90.5226 10.952C90.3131 10.7634 89.894 10.512 89.3073 10.2187C88.6997 9.92532 88.1759 9.73674 87.7358 9.67388C87.2539 9.59007 86.8768 9.54816 86.5834 9.54816C86.2691 9.52721 85.9758 9.52721 85.6824 9.59007C85.452 9.59007 84.991 9.71578 84.3624 9.94627C83.9014 10.1348 83.5871 10.3025 83.4195 10.4072L83.2309 10.6587C83.0843 10.8263 82.8957 10.952 82.6652 10.9939C82.4347 11.0358 82.2043 10.9939 81.9947 10.8682C81.7852 10.7425 81.6804 10.5539 81.6385 10.3444C81.5966 10.1348 81.6385 9.92531 81.7642 9.75769L82.0157 9.46435C82.2462 9.1291 82.8119 8.8148 83.7129 8.47955C84.53 8.16526 85.1377 8.01859 85.5358 7.99764C85.892 7.95573 86.2482 7.93478 86.6044 7.95573C87.0025 7.95573 87.5054 8.01859 88.0711 8.12336C88.6787 8.22812 89.3492 8.4586 90.1035 8.83576C90.8578 9.19196 91.4236 9.52721 91.7798 9.8415C92.115 10.1558 92.4293 10.491 92.7227 10.8892C93.016 11.2873 93.3094 11.7901 93.6236 12.4187C93.9379 13.0473 94.1684 13.5711 94.3151 13.9902C94.4618 14.4093 94.6503 14.9959 94.8808 15.7922C95.1113 16.5255 95.2999 17.0493 95.4256 17.3636C95.5304 17.6989 95.6142 18.0341 95.719 18.3694C95.8237 18.7046 95.8866 18.9351 95.9285 19.0818C96.0542 19.2494 96.0123 19.4799 95.8237 19.7732L95.4256 20.0666ZM93.917 19.2494C93.7703 19.0399 93.6446 18.8303 93.5189 18.6627C93.3513 18.4322 93.1627 18.1808 92.9532 17.9084C92.7436 17.657 92.3036 17.2379 91.6331 16.6931C90.9836 16.1693 90.5645 15.876 90.334 15.8131C90.1664 15.7712 89.8521 15.7503 89.3702 15.7712C88.8464 15.8131 88.4063 15.9179 88.0501 16.0646C87.6101 16.2322 87.2749 16.3998 87.0444 16.5465C86.8139 16.6931 86.5834 16.8398 86.3529 16.9865C86.1853 17.1122 85.9548 17.3846 85.6615 17.7617C85.3682 18.1599 85.1796 18.4322 85.0958 18.6208C85.0329 18.8094 84.9491 19.0818 84.8862 19.3961C84.8443 19.6894 84.8234 19.9199 84.8443 20.1085C84.8443 20.2971 84.9072 20.5904 85.0539 20.9885C85.2005 21.3657 85.3472 21.6381 85.5148 21.8057C85.7034 22.0152 85.892 22.1828 86.0596 22.2876C86.2272 22.3924 86.4158 22.4971 86.6044 22.6019C86.793 22.7067 87.1282 22.8114 87.5682 22.9371C87.9454 23.0629 88.2806 23.1257 88.574 23.1257C88.9092 23.1048 89.1816 23.0629 89.3911 23.021C89.6216 22.9581 89.8731 22.8743 90.1454 22.7695C90.4178 22.6648 90.6693 22.539 90.9417 22.4133C91.1721 22.2666 91.5702 21.9314 92.136 21.4076C92.7017 20.8628 93.0579 20.5066 93.1836 20.3599C93.3093 20.1713 93.4141 19.9828 93.4979 19.8361C93.5817 19.7313 93.7075 19.5218 93.917 19.2494Z" fill="#F40000"/>
<path d="M62.0502 4.66578C61.2749 4.33053 60.6882 3.8067 60.1434 3.15716C59.9549 2.92667 58.9072 1.81617 59.1168 1.41806C59.2215 1.22948 59.7872 1.33425 59.9339 1.41806C60.1015 1.50187 60.2692 1.66949 60.3949 1.81616C60.6044 2.0676 60.7511 2.36094 60.8978 2.65428C61.1911 3.26192 61.4216 3.91147 61.8197 4.45625C62.0502 4.79149 62.595 4.4772 62.3645 4.14195C61.7778 3.30383 61.5473 2.25617 60.8978 1.43901C60.4158 0.831368 59.4311 0.286594 58.7396 0.894232C58.0901 1.43901 58.6977 2.27713 59.0748 2.80095C59.7872 3.78574 60.5835 4.68673 61.7149 5.1896C62.113 5.37818 62.4273 4.8334 62.0502 4.66578Z" fill="#F40000"/>
<path d="M59.1353 1.91996C59.6591 2.86285 60.3296 3.74287 60.9792 4.60194C61.2306 4.91624 61.7754 4.60194 61.5239 4.28765C60.8534 3.42858 60.2039 2.54855 59.6801 1.60567C59.4705 1.24946 58.9258 1.56376 59.1353 1.91996Z" fill="#F40000"/>
<path d="M61.899 5.252C63.6171 5.16819 65.2933 4.60246 66.8858 3.95291C67.4096 3.74338 68.5201 3.38719 68.3944 2.63288C68.0591 0.726151 62.9676 3.78529 62.2552 4.05768C61.878 4.20435 62.0456 4.81199 62.4228 4.66532C63.198 4.37198 63.9104 3.99482 64.6438 3.63862C65.1048 3.40814 67.0115 2.29763 67.5563 2.7586C67.7658 2.92622 67.6191 2.92622 67.3677 3.05194C67.221 3.13575 67.0534 3.19861 66.8858 3.28242C66.4877 3.45005 66.0686 3.59671 65.6705 3.76434C64.4552 4.20435 63.219 4.58151 61.899 4.64437C61.5008 4.64437 61.4799 5.27296 61.899 5.252Z" fill="#F40000"/>
<path d="M66.9517 2.84244C65.6107 3.45008 64.2278 3.95295 62.8449 4.43487C62.4678 4.56059 62.6354 5.16823 63.0126 5.04251C64.4583 4.51868 65.8831 3.99486 67.287 3.38722C67.6432 3.2196 67.3079 2.67482 66.9517 2.84244Z" fill="#F40000"/>
</svg>
