<svg width="32" height="32" viewBox="0 0 32 32" fill="none" xmlns="http://www.w3.org/2000/svg">
<path d="M3.14286 3H13.8571C14.4255 3 14.9705 3.15804 15.3724 3.43934C15.7742 3.72064 16 4.10218 16 4.5C16 4.89782 15.7742 5.27936 15.3724 5.56066C14.9705 5.84196 14.4255 6 13.8571 6H3.14286C2.57454 6 2.02949 5.84196 1.62763 5.56066C1.22577 5.27936 1 4.89782 1 4.5C1 4.10218 1.22577 3.72064 1.62763 3.43934C2.02949 3.15804 2.57454 3 3.14286 3ZM18.1429 27H28.8571C29.4255 27 29.9705 27.158 30.3724 27.4393C30.7742 27.7206 31 28.1022 31 28.5C31 28.8978 30.7742 29.2794 30.3724 29.5607C29.9705 29.842 29.4255 30 28.8571 30H18.1429C17.5745 30 17.0295 29.842 16.6276 29.5607C16.2258 29.2794 16 28.8978 16 28.5C16 28.1022 16.2258 27.7206 16.6276 27.4393C17.0295 27.158 17.5745 27 18.1429 27ZM3.14286 9H28.8571C29.4255 9 29.9705 9.15804 30.3724 9.43934C30.7742 9.72064 31 10.1022 31 10.5C31 10.8978 30.7742 11.2794 30.3724 11.5607C29.9705 11.842 29.4255 12 28.8571 12H3.14286C2.57454 12 2.02949 11.842 1.62763 11.5607C1.22577 11.2794 1 10.8978 1 10.5C1 10.1022 1.22577 9.72064 1.62763 9.43934C2.02949 9.15804 2.57454 9 3.14286 9Z" fill="#1F1F1F"/>
<path d="M1.34806 19.3056C1.35463 19.18 1.36119 19.0733 1.36119 18.9854C1.36776 18.8284 1.37433 18.6652 1.38089 18.5019C1.38746 18.3386 1.38746 18.1314 1.38746 17.8803C1.38746 17.6354 1.3809 17.3591 1.36776 17.0703C1.35463 16.7689 1.34149 16.5554 1.33493 16.4361C1.32836 16.3168 1.31522 16.1912 1.30209 16.0468C1.28896 15.9024 1.27582 15.7956 1.26925 15.7265C1.26269 15.6512 1.24955 15.5633 1.23642 15.4691L1.22328 15.331C1.21672 15.2682 1.23642 15.2117 1.28239 15.1614C1.32836 15.1112 1.39403 15.0861 1.46627 15.0798C1.53851 15.0735 1.61074 15.0923 1.66985 15.1363C1.72895 15.1803 1.76179 15.2305 1.76836 15.2996L1.78149 15.4377C1.79463 15.5319 1.80776 15.6135 1.81433 15.6826C1.82089 15.7517 1.83403 15.8647 1.84716 16.0091C1.8603 16.1535 1.87343 16.2917 1.88 16.4235C1.88657 16.5491 1.8997 16.7563 1.91283 17.0514C1.92597 17.3591 1.93253 17.6354 1.93253 17.8928C1.93253 18.1251 1.92597 18.3324 1.9194 18.5019C1.9588 18.4642 1.98507 18.4328 2.01134 18.4014C2.08358 18.3386 2.16239 18.2758 2.24776 18.2131C2.33313 18.1503 2.43821 18.0812 2.57612 18.0058C2.71403 17.9368 2.82567 17.8803 2.91104 17.8489C3.02268 17.8175 3.17373 17.7924 3.36418 17.7735C3.56119 17.761 3.70567 17.7672 3.81731 17.7924C3.91582 17.8112 4.00776 17.8363 4.0997 17.8677C4.1982 17.9117 4.30328 17.9807 4.42805 18.0749C4.54626 18.1754 4.64477 18.2696 4.71044 18.3575C4.77612 18.4517 4.83522 18.5521 4.88119 18.6589C4.93373 18.7782 4.97313 18.9791 5.00597 19.2742C5.04537 19.5756 5.05194 19.7891 5.0388 19.9084C5.03223 20.034 5.01253 20.147 4.9797 20.26C4.94029 20.3731 4.89432 20.4798 4.84179 20.5803C4.78925 20.687 4.71044 20.8 4.61194 20.9193C4.51343 21.0386 4.42149 21.1328 4.33611 21.1956C4.25074 21.2584 4.12597 21.3338 3.95522 21.4279C3.78447 21.5159 3.64656 21.5724 3.54806 21.6038C3.45612 21.6289 3.35104 21.654 3.2197 21.6728C3.10149 21.6917 3.00298 21.7042 2.92418 21.7105C2.8585 21.7168 2.79283 21.7231 2.73373 21.7293C2.66149 21.7356 2.56298 21.7356 2.43821 21.7293C2.3003 21.7231 2.18865 21.7042 2.10328 21.6728L2.02448 21.6414C1.95224 21.6226 1.8997 21.5786 1.86686 21.5221C1.83403 21.4593 1.83403 21.3966 1.8603 21.3338C1.88657 21.271 1.93254 21.227 2.00477 21.2019C2.07701 21.1768 2.14269 21.1768 2.21492 21.2019L2.30686 21.2333C2.3397 21.2396 2.39224 21.2459 2.46448 21.2521C2.55642 21.2521 2.62866 21.2521 2.68119 21.2521C2.73373 21.2459 2.7994 21.2396 2.87164 21.2333C2.93731 21.227 3.02268 21.2145 3.12119 21.2019C3.22627 21.1831 3.31164 21.1642 3.37731 21.1454C3.43641 21.1328 3.53492 21.0889 3.67283 21.0198C3.81731 20.9445 3.91582 20.8817 3.97492 20.844C4.02746 20.8 4.09313 20.731 4.17194 20.6431C4.25074 20.5552 4.30985 20.4735 4.34925 20.3919C4.38865 20.3166 4.41492 20.2349 4.44119 20.147C4.46089 20.0654 4.48059 19.9712 4.50029 19.8707C4.50686 19.7703 4.49373 19.5945 4.46746 19.3307C4.42806 19.067 4.39522 18.8975 4.36895 18.8221C4.33611 18.7468 4.30328 18.6714 4.25731 18.6086C4.21134 18.5521 4.14567 18.4893 4.06686 18.4203C3.98149 18.3638 3.92238 18.3198 3.87641 18.301C3.82388 18.2758 3.76477 18.257 3.70567 18.2445C3.65313 18.2382 3.56119 18.2382 3.42328 18.2445C3.28537 18.257 3.19343 18.2758 3.14089 18.2947C3.06865 18.3135 2.97671 18.3512 2.87164 18.414C2.76657 18.4705 2.68119 18.527 2.62209 18.571C2.55641 18.6212 2.48418 18.6777 2.41851 18.7279C2.36597 18.7782 2.28059 18.8912 2.16239 19.0607C2.12298 19.1047 2.09015 19.1486 2.06388 19.1863C1.99164 19.2931 1.9391 19.3747 1.90627 19.4312C1.8997 19.5065 1.89313 19.5882 1.89313 19.6761C1.87343 19.9586 1.85373 20.1847 1.83403 20.3542C1.82089 20.5238 1.80776 20.6556 1.79463 20.7435C1.78149 20.8377 1.76836 20.9445 1.75522 21.0763C1.74209 21.2145 1.72895 21.3086 1.72239 21.3589C1.71582 21.4154 1.69612 21.4907 1.66328 21.5849C1.65672 21.5912 1.64358 21.5975 1.63701 21.61C1.62388 21.6226 1.60418 21.6352 1.56478 21.6666C1.52537 21.6917 1.49254 21.7168 1.4597 21.7356C1.42687 21.7545 1.38746 21.7733 1.34149 21.7859C1.29552 21.7984 1.25612 21.8047 1.22328 21.7984C1.19045 21.7921 1.15761 21.7796 1.13134 21.7482C1.10507 21.7168 1.08537 21.6791 1.07224 21.6226C1.0591 21.5661 1.05254 21.5033 1.0394 21.4342C1.02627 21.3652 1.0197 21.2961 1.01313 21.2396C1.00657 21.1705 1 21.0952 1 21.0198C1 20.9445 1.00657 20.8 1.0197 20.5866C1.03283 20.3668 1.05254 20.2035 1.0788 20.1031C1.09851 20.0026 1.12478 19.9021 1.15761 19.8079C1.19045 19.7138 1.22328 19.6196 1.26925 19.5191C1.27582 19.4375 1.30866 19.3747 1.34806 19.3056Z" fill="#1F1F1F"/>
<path d="M8.65648 21.9038C8.60394 21.9665 8.53827 22.0042 8.4529 22.0105L8.28215 22.0293C8.13111 22.0419 7.94722 22.0356 7.71737 21.9979C7.49409 21.9603 7.29051 21.8975 7.10663 21.8221C6.93588 21.7468 6.7914 21.6651 6.67976 21.5898C6.56155 21.5019 6.41051 21.3638 6.23976 21.1565C6.06901 20.9556 5.95081 20.7924 5.8917 20.6668C5.82603 20.5349 5.77349 20.3089 5.73409 19.9886C5.68812 19.6684 5.67499 19.4423 5.70125 19.3042C5.73409 19.1723 5.79319 18.9965 5.88513 18.7768C5.97707 18.557 6.08215 18.3686 6.18722 18.2116C6.29887 18.061 6.39737 17.9354 6.49588 17.8475C6.59439 17.7533 6.74543 17.6528 6.95558 17.5335C7.17887 17.4016 7.44812 17.3137 7.75678 17.2698C8.05887 17.2258 8.27558 17.2133 8.42006 17.2321C8.55797 17.2447 8.74842 17.2949 8.9914 17.3891C9.24096 17.4833 9.42484 17.5649 9.54305 17.634C9.66126 17.703 9.78603 17.8098 9.91737 17.9416C10.0422 18.0735 10.1407 18.1991 10.1998 18.3058C10.2654 18.4189 10.3311 18.5947 10.3902 18.8333C10.4427 19.0719 10.469 19.2979 10.469 19.4989C10.469 19.6872 10.4559 19.8442 10.4362 19.9698C10.423 20.1017 10.3705 20.2775 10.2917 20.5098C10.2063 20.7421 10.1144 20.9368 10.0093 21.0875C9.90424 21.2444 9.75976 21.3889 9.56932 21.5207C9.37887 21.6589 9.23439 21.7468 9.12931 21.7845C9.03737 21.8347 8.8732 21.8724 8.65648 21.9038ZM7.32991 21.3889C7.42185 21.3324 7.50723 21.3135 7.59917 21.3386L7.77648 21.3951C7.86842 21.4265 7.96693 21.4454 8.07857 21.4517C8.18364 21.4642 8.32812 21.4579 8.51857 21.4328C8.70902 21.4077 8.83379 21.3826 8.89946 21.3575C8.96514 21.3324 9.07021 21.2633 9.21469 21.1628C9.35917 21.0561 9.46424 20.9493 9.54305 20.8426C9.62842 20.7296 9.70066 20.5789 9.76633 20.3842C9.83857 20.1833 9.88454 20.0263 9.90424 19.9258C9.91738 19.8191 9.92394 19.681 9.92394 19.5051C9.92394 19.3419 9.90424 19.1535 9.85827 18.9463C9.8123 18.7454 9.76633 18.6072 9.72036 18.5382C9.67439 18.4628 9.60215 18.3686 9.50364 18.2619C9.40514 18.1551 9.3132 18.0798 9.23439 18.0296C9.15558 17.9793 9.01111 17.9165 8.80096 17.8412C8.59081 17.7721 8.43976 17.7282 8.34782 17.7219C8.26245 17.7093 8.09827 17.7156 7.85528 17.7533C7.62543 17.7909 7.42842 17.86 7.27081 17.9479C7.10006 18.0484 6.97528 18.1237 6.90961 18.1803C6.83737 18.2493 6.752 18.3498 6.66006 18.4816C6.56812 18.6072 6.48275 18.7642 6.40394 18.9589C6.31857 19.1472 6.2726 19.2979 6.25946 19.3984C6.24633 19.4926 6.2529 19.6747 6.27916 19.9447C6.31857 20.221 6.35797 20.3968 6.40394 20.4847C6.44991 20.5789 6.54842 20.7107 6.69946 20.8865C6.84394 21.0561 6.95558 21.1691 7.03439 21.2319C7.11319 21.2696 7.2117 21.3261 7.32991 21.3889Z" fill="#1F1F1F"/>
<path d="M14.1158 21.9038C14.0633 21.9665 13.9976 22.0042 13.9122 22.0105L13.7415 22.0293C13.5905 22.0419 13.4066 22.0356 13.1767 21.9979C12.9534 21.9603 12.7499 21.8975 12.566 21.8221C12.3952 21.7468 12.2508 21.6651 12.1391 21.5898C12.0209 21.5019 11.8699 21.3638 11.6991 21.1565C11.5284 20.9556 11.4102 20.7924 11.3511 20.6668C11.2854 20.5349 11.2328 20.3089 11.1934 19.9886C11.1475 19.6684 11.1343 19.4423 11.1606 19.3042C11.1934 19.1723 11.2525 18.9965 11.3445 18.7768C11.4364 18.557 11.5415 18.3686 11.6466 18.2116C11.7582 18.061 11.8567 17.9354 11.9552 17.8475C12.0537 17.7533 12.2048 17.6528 12.4149 17.5335C12.6382 17.4016 12.9075 17.3137 13.2161 17.2698C13.5182 17.2258 13.7349 17.2133 13.8794 17.2321C14.0173 17.2447 14.2078 17.2949 14.4508 17.3891C14.7003 17.4833 14.8842 17.5649 15.0024 17.634C15.1206 17.703 15.2454 17.8098 15.3767 17.9416C15.5015 18.0735 15.6 18.1991 15.6591 18.3058C15.7248 18.4189 15.7905 18.5947 15.8496 18.8333C15.9021 19.0719 15.9284 19.2979 15.9284 19.4989C15.9284 19.6872 15.9152 19.8442 15.8955 19.9698C15.8824 20.1017 15.8299 20.2775 15.7511 20.5098C15.6657 20.7421 15.5737 20.9368 15.4687 21.0875C15.3636 21.2444 15.2191 21.3889 15.0287 21.5207C14.8382 21.6589 14.6937 21.7468 14.5887 21.7845C14.4967 21.8347 14.3325 21.8724 14.1158 21.9038ZM12.7893 21.3889C12.8812 21.3324 12.9666 21.3135 13.0585 21.3386L13.2358 21.3951C13.3278 21.4265 13.4263 21.4454 13.5379 21.4517C13.643 21.4642 13.7875 21.4579 13.9779 21.4328C14.1684 21.4077 14.2931 21.3826 14.3588 21.3575C14.4245 21.3324 14.5296 21.2633 14.674 21.1628C14.8185 21.0561 14.9236 20.9493 15.0024 20.8426C15.0878 20.7296 15.16 20.5789 15.2257 20.3842C15.2979 20.1833 15.3439 20.0263 15.3636 19.9258C15.3767 19.8191 15.3833 19.681 15.3833 19.5051C15.3833 19.3419 15.3636 19.1535 15.3176 18.9463C15.2716 18.7454 15.2257 18.6072 15.1797 18.5382C15.1337 18.4628 15.0615 18.3686 14.963 18.2619C14.8645 18.1551 14.7725 18.0798 14.6937 18.0296C14.6149 17.9793 14.4705 17.9165 14.2603 17.8412C14.0502 17.7721 13.8991 17.7282 13.8072 17.7219C13.7218 17.7093 13.5576 17.7156 13.3146 17.7533C13.0848 17.7909 12.8878 17.86 12.7302 17.9479C12.5594 18.0484 12.4346 18.1237 12.369 18.1803C12.2967 18.2493 12.2114 18.3498 12.1194 18.4816C12.0275 18.6072 11.9421 18.7642 11.8633 18.9589C11.7779 19.1472 11.7319 19.2979 11.7188 19.3984C11.7057 19.4926 11.7122 19.6747 11.7385 19.9447C11.7779 20.221 11.8173 20.3968 11.8633 20.4847C11.9093 20.5789 12.0078 20.7107 12.1588 20.8865C12.3033 21.0561 12.4149 21.1691 12.4937 21.2319C12.5725 21.2696 12.6711 21.3261 12.7893 21.3889Z" fill="#1F1F1F"/>
<path d="M17.2553 20.3374C17.2553 20.3814 17.2553 20.4316 17.2553 20.4755C17.2618 20.5886 17.2684 20.6953 17.275 20.8083C17.2815 20.9214 17.2881 21.0218 17.2881 21.1097C17.2881 21.2039 17.2815 21.3044 17.275 21.4111V21.5869C17.2684 21.6497 17.2356 21.7062 17.183 21.7502C17.1305 21.7942 17.0648 21.8193 16.9926 21.813C16.9203 21.8067 16.8547 21.7816 16.7956 21.7376C16.7365 21.6874 16.7168 21.6309 16.7233 21.5681V21.4049C16.7299 21.2918 16.7365 21.1976 16.7365 21.1097C16.7365 21.0281 16.7299 20.9276 16.7233 20.8272C16.7168 20.7204 16.7102 20.6137 16.7036 20.4944C16.7036 20.3688 16.6971 20.1553 16.6839 19.8476C16.6708 19.6216 16.6642 19.4395 16.6642 19.3014C16.6577 19.226 16.6511 19.1381 16.6445 19.0376C16.6314 18.7614 16.6248 18.5604 16.6248 18.4223C16.6248 18.2841 16.6314 18.146 16.6445 18.0141C16.6445 18.0079 16.6445 17.9953 16.6445 17.9827C16.6445 17.9702 16.6511 17.9451 16.6642 17.9137C16.6774 17.8823 16.6839 17.8509 16.6971 17.8195C16.7102 17.7881 16.7299 17.763 16.7562 17.7379C16.7824 17.7127 16.8087 17.6939 16.8415 17.6814C16.8744 17.6688 16.9072 17.6625 16.9532 17.6688C16.9991 17.6751 17.0451 17.6939 17.0977 17.7253C17.183 17.7755 17.229 17.8258 17.2487 17.8697C17.2684 17.9137 17.2684 17.9451 17.2421 17.9702L17.2093 18.0016C17.2093 18.1083 17.2093 18.2339 17.2093 18.3846C17.2093 18.5353 17.2093 18.6672 17.2093 18.7927C17.2093 18.9121 17.2093 19.0376 17.2093 19.1695C17.2159 19.2009 17.2224 19.2386 17.2224 19.2888C17.229 19.383 17.2356 19.4521 17.2421 19.5148C17.3406 19.2951 17.4129 19.1318 17.4654 19.0251C17.5245 18.9121 17.5902 18.8053 17.6559 18.6923C17.7215 18.573 17.8463 18.3972 18.0171 18.1648C18.2075 17.92 18.3388 17.763 18.4111 17.6939C18.503 17.6248 18.6081 17.562 18.7263 17.5055L18.8642 17.4553C18.9299 17.4239 19.0021 17.4176 19.0809 17.4427C19.1532 17.4679 19.2057 17.5055 19.2386 17.562C19.2714 17.6186 19.2714 17.6814 19.2451 17.7504C19.2189 17.8132 19.1729 17.8634 19.1072 17.8886L18.9693 17.9451C18.9036 17.9702 18.8445 18.0016 18.7985 18.033C18.7526 18.0769 18.6475 18.2088 18.4833 18.416C18.3191 18.6421 18.2075 18.8053 18.1484 18.9058C18.0893 19.0125 18.0302 19.113 17.9777 19.2197C17.9251 19.3265 17.8463 19.496 17.7412 19.7283C17.6165 19.9858 17.5114 20.1553 17.426 20.2495C17.3669 20.2809 17.3144 20.3123 17.2553 20.3374Z" fill="#1F1F1F"/>
<path d="M20.6691 21.8398C20.61 21.8837 20.5443 21.9026 20.4721 21.9026C20.3999 21.9026 20.3342 21.8712 20.2817 21.8272C20.2291 21.777 20.2028 21.7267 20.2028 21.6639L20.216 21.5698C20.216 21.507 20.216 21.4002 20.216 21.2495C20.216 21.0988 20.216 20.9732 20.216 20.8791C20.216 20.7912 20.2094 20.6656 20.2028 20.5086C20.1963 20.3453 20.1831 20.1507 20.17 19.9309C20.1503 19.7049 20.1306 19.4914 20.1175 19.2905C20.1043 19.0895 20.0978 18.9325 20.0846 18.807C20.0715 18.6814 20.0584 18.5621 20.0452 18.4302C20.0321 18.2984 20.019 18.2042 20.0124 18.1539C20.0124 18.1163 20.0058 18.0723 19.9927 18.0221L19.9796 17.9342C19.9664 17.8777 19.9796 17.8211 20.0255 17.7709C20.0715 17.7144 20.1306 17.683 20.2028 17.6767C20.2751 17.6642 20.3473 17.683 20.413 17.7207C20.4787 17.7584 20.5115 17.8086 20.5181 17.8714L20.5378 17.9467C20.5443 18.0095 20.5509 18.066 20.5575 18.1163C20.5575 18.1602 20.5706 18.2481 20.5903 18.38C20.6034 18.5118 20.6166 18.6437 20.6297 18.7693C20.6428 18.8949 20.656 19.0581 20.6691 19.2591C20.6757 19.46 20.6888 19.6735 20.7019 19.8932C20.7217 20.1193 20.7414 20.3139 20.7479 20.4772C20.7545 20.6405 20.7611 20.766 20.7611 20.8602C20.7611 20.9544 20.7611 21.08 20.7611 21.237C20.7611 21.3939 20.7611 21.507 20.7611 21.5698L20.7479 21.6765C20.7545 21.7393 20.7282 21.7958 20.6691 21.8398Z" fill="#1F1F1F"/>
<path d="M21.4595 17.5969C21.4858 17.5341 21.5317 17.4901 21.5974 17.465C21.6631 17.4399 21.7353 17.4399 21.8141 17.4587C21.8864 17.4839 21.9389 17.5215 21.9717 17.578L22.0834 17.8041C22.1688 17.9673 22.2541 18.1683 22.3395 18.4006C22.4249 18.6141 22.4905 18.7836 22.5431 18.8967C22.6088 19.016 22.7007 19.1792 22.8123 19.3864C22.9305 19.5936 23.0685 19.8385 23.2195 20.1085C23.3705 20.3848 23.4756 20.5606 23.5347 20.6485C23.5938 20.7427 23.6529 20.8306 23.7055 20.9122C23.7514 20.9813 23.8237 21.0692 23.9288 21.1697C23.9485 21.1885 23.9747 21.2074 23.9944 21.2262C24.0273 21.1885 24.0535 21.1446 24.0864 21.1006C24.2111 20.9122 24.2965 20.7741 24.3359 20.6799C24.3819 20.5669 24.4279 20.4539 24.4738 20.3283C24.5264 20.1964 24.6117 19.9641 24.7299 19.625C24.8547 19.2922 24.9467 19.0662 24.9992 18.9406C25.0517 18.815 25.1108 18.6643 25.1765 18.4885C25.2488 18.319 25.3013 18.1997 25.3341 18.1243L25.3801 18.0239C25.3998 17.9673 25.4523 17.9234 25.518 17.8983C25.5902 17.8732 25.6625 17.8732 25.7347 17.892C25.807 17.9171 25.8595 17.9548 25.8858 18.0176C25.9186 18.0804 25.9186 18.1369 25.8858 18.1997L25.8529 18.3001C25.8201 18.3629 25.7676 18.4822 25.6953 18.6518C25.6296 18.8276 25.5705 18.972 25.518 19.0913C25.472 19.2106 25.3801 19.4367 25.2553 19.7757C25.1305 20.1148 25.0386 20.3471 24.9992 20.4727C24.9467 20.6046 24.9007 20.7239 24.8547 20.8369C24.8088 20.9625 24.7168 21.132 24.5723 21.3455C24.5658 21.3581 24.5526 21.3832 24.5264 21.4146C24.5067 21.446 24.487 21.4711 24.4738 21.4836C24.4607 21.4962 24.441 21.5213 24.4147 21.559C24.3885 21.5967 24.3688 21.6218 24.3556 21.6343C24.3425 21.6469 24.3162 21.6657 24.2834 21.6908C24.2505 21.716 24.2177 21.7285 24.1914 21.7348C24.1652 21.7411 24.1323 21.7474 24.0929 21.7599C24.0535 21.7725 24.0141 21.7725 23.9747 21.7474C23.8368 21.7348 23.6923 21.6469 23.5347 21.4899C23.3902 21.3643 23.2917 21.2576 23.2326 21.1571C23.1735 21.0755 23.1144 20.9876 23.0553 20.8934C22.9897 20.7929 22.878 20.6046 22.727 20.3157C22.5759 20.0394 22.4446 19.8008 22.3198 19.5936C22.2016 19.3864 22.1096 19.2169 22.0505 19.0976C21.9849 18.9657 21.9061 18.7836 21.8141 18.5513C21.7419 18.3315 21.6631 18.1494 21.5908 18.005L21.4661 17.779C21.4332 17.7225 21.4332 17.6597 21.4595 17.5969Z" fill="#1F1F1F"/>
<path d="M30.82 20.5981H30.8069C30.7609 20.6672 30.7215 20.7299 30.6952 20.7865C30.6558 20.8367 30.6164 20.8932 30.5705 20.9497C30.5114 21.0251 30.38 21.1569 30.1764 21.339C29.9728 21.5274 29.8152 21.653 29.7036 21.7095C29.5985 21.766 29.4934 21.8162 29.3884 21.8539C29.2833 21.8916 29.1782 21.923 29.0731 21.9544C28.9615 21.9795 28.8302 21.9983 28.6791 22.0046C28.5281 22.0046 28.3573 21.9795 28.1734 21.9293C28.0093 21.879 27.8845 21.8288 27.7991 21.7911C27.7137 21.7534 27.6284 21.7095 27.543 21.653C27.4576 21.6027 27.3723 21.5274 27.2869 21.4395C27.1884 21.3327 27.1096 21.2009 27.0505 21.0313C26.9914 20.8744 26.9585 20.7488 26.952 20.6483C26.9454 20.5541 26.952 20.4474 26.9717 20.3155C26.9914 20.1899 27.0308 20.0895 27.0702 20.0016C27.1096 19.9074 27.1884 19.7881 27.3066 19.6374C27.4248 19.4804 27.5299 19.3674 27.6218 19.3046C27.7072 19.2481 27.7926 19.1916 27.8911 19.1413C27.9896 19.0911 28.1143 19.0283 28.272 18.9655C28.4427 18.9027 28.6463 18.8588 28.8696 18.8462C29.0928 18.8274 29.2767 18.8337 29.4081 18.8776C29.546 18.9216 29.7364 19.0409 29.9794 19.2292C30.0123 19.2544 30.0385 19.2795 30.0714 19.3046C30.0188 19.1413 29.9794 19.0095 29.9466 18.9153C29.9006 18.8023 29.8349 18.6641 29.743 18.4946C29.6576 18.3313 29.5788 18.2058 29.5066 18.1116C29.4409 18.0174 29.3621 17.9358 29.2833 17.8667C29.2176 17.8102 29.0863 17.7348 28.9024 17.6469C28.712 17.559 28.5478 17.5025 28.4099 17.4837C28.2588 17.4585 28.1406 17.446 28.0487 17.446C27.9502 17.4397 27.8582 17.4397 27.7663 17.4585C27.694 17.4585 27.5496 17.4962 27.3526 17.5653C27.2081 17.6218 27.1096 17.672 27.057 17.7034L26.9979 17.7788C26.952 17.829 26.8928 17.8667 26.8206 17.8792C26.7484 17.8918 26.6761 17.8792 26.6105 17.8416C26.5448 17.8039 26.512 17.7474 26.4988 17.6846C26.4857 17.6218 26.4988 17.559 26.5382 17.5088L26.617 17.4209C26.6893 17.3204 26.8666 17.2262 27.149 17.1257C27.4051 17.0316 27.5955 16.9876 27.7203 16.9813C27.832 16.9688 27.9436 16.9625 28.0552 16.9688C28.18 16.9688 28.3376 16.9876 28.5149 17.019C28.7054 17.0504 28.9155 17.1195 29.152 17.2325C29.3884 17.3392 29.5657 17.4397 29.6773 17.5339C29.7824 17.6281 29.8809 17.7285 29.9728 17.8478C30.0648 17.9671 30.1567 18.1178 30.2552 18.3062C30.3537 18.4946 30.426 18.6516 30.472 18.7772C30.5179 18.9027 30.577 19.0785 30.6493 19.3172C30.7215 19.5369 30.7806 19.6939 30.82 19.7881C30.8528 19.8885 30.8791 19.989 30.912 20.0895C30.9448 20.1899 30.9645 20.259 30.9776 20.303C31.017 20.3532 31.0039 20.4223 30.9448 20.5102L30.82 20.5981ZM30.3472 20.3532C30.3012 20.2904 30.2618 20.2276 30.2224 20.1774C30.1699 20.1083 30.1108 20.033 30.0451 19.9513C29.9794 19.876 29.8415 19.7504 29.6314 19.5872C29.4278 19.4302 29.2964 19.3423 29.2242 19.3234C29.1717 19.3109 29.0731 19.3046 28.9221 19.3109C28.7579 19.3234 28.62 19.3548 28.5084 19.3988C28.3705 19.449 28.2654 19.4992 28.1931 19.5432C28.1209 19.5872 28.0487 19.6311 27.9764 19.6751C27.9239 19.7127 27.8517 19.7944 27.7597 19.9074C27.6678 20.0267 27.6087 20.1083 27.5824 20.1648C27.5627 20.2213 27.5364 20.303 27.5167 20.3972C27.5036 20.4851 27.497 20.5541 27.5036 20.6106C27.5036 20.6672 27.5233 20.7551 27.5693 20.8744C27.6152 20.9874 27.6612 21.069 27.7137 21.1193C27.7729 21.182 27.832 21.2323 27.8845 21.2637C27.937 21.2951 27.9961 21.3265 28.0552 21.3579C28.1143 21.3893 28.2194 21.4206 28.3573 21.4583C28.4755 21.496 28.5806 21.5148 28.6725 21.5148C28.7776 21.5086 28.863 21.496 28.9287 21.4834C29.0009 21.4646 29.0797 21.4395 29.1651 21.4081C29.2505 21.3767 29.3293 21.339 29.4146 21.3013C29.4869 21.2574 29.6117 21.1569 29.789 21C29.9663 20.8367 30.0779 20.7299 30.1173 20.686C30.1567 20.6295 30.1896 20.573 30.2158 20.529C30.2421 20.4976 30.2815 20.4348 30.3472 20.3532Z" fill="#1F1F1F"/>
<path d="M20.4472 16.1765C20.2042 16.0761 20.0203 15.9191 19.8496 15.7244C19.7905 15.6554 19.4621 15.3226 19.5278 15.2033C19.5606 15.1468 19.7379 15.1782 19.7839 15.2033C19.8364 15.2284 19.889 15.2786 19.9284 15.3226C19.994 15.3979 20.04 15.4858 20.086 15.5738C20.1779 15.7558 20.2502 15.9505 20.3749 16.1138C20.4472 16.2142 20.6179 16.12 20.5457 16.0196C20.3618 15.7684 20.2896 15.4544 20.086 15.2096C19.9349 15.0275 19.6263 14.8642 19.4096 15.0463C19.206 15.2096 19.3964 15.4607 19.5146 15.6177C19.7379 15.9128 19.9875 16.1828 20.3421 16.3335C20.4669 16.39 20.5654 16.2268 20.4472 16.1765Z" fill="#1F1F1F"/>
<path d="M19.5363 15.354C19.7005 15.6366 19.9106 15.9003 20.1142 16.1578C20.193 16.2519 20.3638 16.1578 20.285 16.0636C20.0748 15.8061 19.8712 15.5424 19.7071 15.2598C19.6414 15.1531 19.4706 15.2473 19.5363 15.354Z" fill="#1F1F1F"/>
<path d="M20.3986 16.3502C20.9371 16.3251 21.4625 16.1556 21.9616 15.9609C22.1258 15.8981 22.4738 15.7914 22.4344 15.5653C22.3294 14.9939 20.7335 15.9107 20.5103 15.9923C20.392 16.0363 20.4446 16.2184 20.5628 16.1744C20.8058 16.0865 21.0291 15.9735 21.2589 15.8667C21.4034 15.7977 22.001 15.4649 22.1717 15.603C22.2374 15.6533 22.1914 15.6533 22.1126 15.6909C22.0667 15.716 22.0141 15.7349 21.9616 15.76C21.8368 15.8102 21.7055 15.8542 21.5807 15.9044C21.1998 16.0363 20.8123 16.1493 20.3986 16.1681C20.2738 16.1681 20.2673 16.3565 20.3986 16.3502Z" fill="#1F1F1F"/>
<path d="M21.9821 15.6325C21.5618 15.8146 21.1284 15.9653 20.6949 16.1097C20.5767 16.1474 20.6293 16.3295 20.7475 16.2918C21.2006 16.1349 21.6472 15.9779 22.0872 15.7958C22.1988 15.7456 22.0937 15.5823 21.9821 15.6325Z" fill="#1F1F1F"/>
</svg>
