<svg width="26" height="26" viewBox="0 0 26 26" fill="none" xmlns="http://www.w3.org/2000/svg">
<path d="M24.9844 0.00488281H1.01562C0.454695 0.00488281 0 0.459578 0 1.02051C0 4.95555 1.16431 8.40065 3.66412 11.8624C5.22371 14.0222 8.02156 15.6123 9.44531 16.3244V22.4905C9.44531 22.8781 9.66601 23.232 10.0141 23.4025L15.0922 25.8908C15.2336 25.9601 15.3865 25.9944 15.539 25.9944C15.7261 25.9944 15.9126 25.9428 16.0765 25.8406C16.3739 25.6551 16.5547 25.3293 16.5547 24.9788V20.7931C16.5547 20.2322 16.1 19.7775 15.5391 19.7775C14.9781 19.7775 14.5234 20.2322 14.5234 20.7931V23.3501L11.4766 21.8572V15.6858C11.4766 15.2891 11.2455 14.9286 10.885 14.763C8.98889 13.8918 6.52884 12.3599 5.31091 10.6733C3.29311 7.87902 2.24748 5.11028 2.06157 2.03613H23.9384C23.7525 5.11023 22.7069 7.87902 20.6891 10.6733C19.4019 12.4558 16.9797 14.0187 15.1503 14.7767C14.6321 14.9915 14.3861 15.5856 14.6008 16.1038C14.8155 16.622 15.4096 16.868 15.9279 16.6533C17.8688 15.849 20.7117 14.1117 22.3359 11.8624C24.8357 8.40065 26 4.95555 26 1.02051C26 0.459578 25.5453 0.00488281 24.9844 0.00488281Z" fill="white"/>
</svg>
