<svg width="181" height="50" fill="none" xmlns="http://www.w3.org/2000/svg"><path d="M5.352 35.103l-3.43-4.892L.029 10.64C1.686 7.853 7.47 2.118 17.35 1.466 29.701.65 35.414-.173 49.607.03c14.194.204 75.169.41 80.162.41 4.994 0 29.73-.612 36.309 2.446 5.263 2.446 10.094 7.135 11.852 9.174-.524.407-1.257 1.671.01 3.465 1.266 1.794 1.939 4.553 2.118 5.708-.699.68-2.097 2.202-2.095 2.854.002.816-4.728 1.02-2.36 2.039 1.895.815 2.374 3.194 2.377 4.28-1.837 1.02-6.352 3.1-9.716 3.263-3.363.163-6.305.883-7.355 1.223l.004 1.63c1.578.273 4.418.898 3.157 1.224-1.576.407-3.155-.612-4.468 0-1.312.611-3.149 1.835-1.571 2.242.486.376.96.563 1.385.636a24.395 24.395 0 011.508-.228c-.27.167-.825.345-1.508.228-.885.166-1.647.382-1.381.587.421.327 2.104.816 2.893 1.02l1.318 1.223h-4.205c-2.313 0-1.837 1.223-1.309 1.835-.613.136-2.207.326-3.68 0-1.841-.408-1.051.203-4.204.407-2.523.163-16.24.068-20.533 0 .35-.271.576-.815-1.316-.815-2.365 0-2.628 0-5.518.408-2.89.407-69.124-.41-78.06-.41-7.148 0 1.936-1.01.622-1.01-4.116.68-18.372 1.998-24.47 1.835-7.622-.204-14.198-2.242-14.199-2.446 0-.164-1.405-1.291-2.108-1.835.702.34 2.105.815 2.103 0-.002-.816-1.41-3.194-2.114-4.281l2.097-2.039zm5.025 11.62c-.84 0-.874.816-.785 1.223l-1.708.204c-.83.68-2.334 1.998-1.703 1.835.63-.163 1.838-.612 2.363-.816.35-.271 2.731-.815 9.46-.815 8.41 0 7.62-.408 8.409-.408.788 0-14.985-1.223-16.036-1.223z" fill="#FFE6EF"/><path d="M35.962 31.253l-.616-.03-.616-.003-.7.012a1.927 1.927 0 01-.784-.157 1.93 1.93 0 01-.615-.395 2.333 2.333 0 01-.418-.575 2.873 2.873 0 01-.25-.687c-.102-.42-.19-.84-.263-1.261a88.36 88.36 0 00-.207-1.275 16.902 16.902 0 01-.151-1.176 48.83 48.83 0 01-.067-1.232l-.025-1.303c.001-.448-.002-.919-.01-1.414l.018-1.554.002-.756c0-.252.01-.499.03-.741a7.11 7.11 0 01.495-2.239c.282-.699.638-1.374 1.07-2.026.402-.596.954-.892 1.654-.89l1.302.005.7.017c.886.03 1.655.36 2.307.988.214.206.39.435.53.688.14.243.232.514.278.813l.014.196c0 .159-.02.294-.057.406a.756.756 0 01-.24.391.614.614 0 01-.378.125h-.084a.671.671 0 01-.377-.17.568.568 0 01-.153-.42v-.085c.001-.41-.12-.728-.361-.953a2.782 2.782 0 00-.84-.549 2.53 2.53 0 00-.237-.085.71.71 0 00-.196-.029.39.39 0 00-.266.097 1.57 1.57 0 00-.253.307 8.332 8.332 0 00-.929 1.873 6.75 6.75 0 00-.369 2.057l-.02 2.296c-.002.812.006 1.54.023 2.184.017.644.048 1.265.093 1.862a17.6 17.6 0 00.22 1.737 41.57 41.57 0 00.373 1.877c.01.047.023.094.042.14.157.402.39.604.698.605.112 0 .248-.027.406-.082a4.87 4.87 0 00.8-.39 2.77 2.77 0 00.645-.543c.187-.205.337-.447.45-.726.112-.28.178-.597.198-.952l.015-.476c0-.27-.013-.537-.04-.798a12.17 12.17 0 00-.082-.798l-.027-.28a2.946 2.946 0 01-.013-.294v-.126c0-.038.005-.08.014-.126a.695.695 0 01.211-.42.553.553 0 01.407-.166h.028c.15 0 .28.052.391.155a.64.64 0 01.21.407l.136 1.26c.046.412.068.827.067 1.247a8.135 8.135 0 01-.058.952 3.35 3.35 0 01-.368 1.23 3.67 3.67 0 01-.786 1.006 5.698 5.698 0 01-1.332.905 3.573 3.573 0 01-1.597.344h-.042zm6.83.067c-.383-.002-.602-.217-.657-.647a9.102 9.102 0 01-.04-.504l-.027-.504a163.71 163.71 0 00-.105-3.052 85.116 85.116 0 01-.076-3.08c0-.3-.008-.598-.026-.897a14.34 14.34 0 01-.025-.896l.045-7.014c.02-.625.32-.965.899-1.018.308-.037.611-.063.91-.081.308-.027.616-.04.924-.039l.252.001c.084 0 .173.005.266.015.299.02.509.086.63.199.12.112.204.313.25.602.212 1.103.494 2.28.845 3.532.352 1.242.727 2.508 1.125 3.798l.097.224c.066-.046.103-.084.112-.111a.496.496 0 00.043-.126c.302-1.325.632-2.616.99-3.875l1.045-3.58c.113-.438.342-.657.687-.655h.084c.187.029.34.123.462.282.12.15.185.34.194.574l-.008 3.248-.016.882c-.002.69.005 1.377.022 2.058.027.672.058 1.354.093 2.045.045.756.08 1.55.106 2.38.026.83.052 1.624.078 2.38.018.29.031.575.04.855l.054.868.054.63c.018.215.055.43.11.644l.028.182a.6.6 0 01-.169.42.685.685 0 01-.393.25.662.662 0 01-.154.014.559.559 0 01-.363-.142.754.754 0 01-.251-.364 1.889 1.889 0 01-.084-.309l-.027-.294a456.317 456.317 0 01-.266-5.475c-.07-1.857-.126-3.687-.168-5.488a2.648 2.648 0 00-.028-.127.982.982 0 00-.041-.126 4.14 4.14 0 00-.282.797 169.044 169.044 0 00-.637 2.63c-.132.597-.264 1.203-.397 1.818l-.085.322c-.028.112-.066.22-.112.322a.632.632 0 01-.561.348c-.215-.001-.392-.1-.531-.296a.837.837 0 01-.126-.239l-.083-.28a94.827 94.827 0 00-.806-2.467 37.044 37.044 0 01-.75-2.509.997.997 0 01-.041-.126c0-.047-.023-.084-.07-.112h-.028c-.028 0-.042.018-.042.056l-.03 1.035c-.002.336-.002.677-.003 1.022-.002.532.016 1.055.052 1.569.036.513.053 1.036.052 1.568a93.042 93.042 0 00.113 4.858c.01.159.014.322.013.49.01.168.023.336.04.505l.014.154c0 .242-.066.424-.197.545-.122.12-.313.2-.575.236a8.665 8.665 0 01-1.204.051c-.4-.001-.802.007-1.204.024h-.042zm16.21-1.34c.206 0 .388-.14.548-.419.065-.12.117-.242.155-.363a7.63 7.63 0 00.14-.364c.34-1.044.59-2.098.75-3.161.171-1.063.277-2.15.317-3.26v-.099a17.097 17.097 0 00-.313-3.361 25.372 25.372 0 00-.832-3.237 1.629 1.629 0 00-.056-.126 1.688 1.688 0 01-.056-.127c-.158-.252-.367-.379-.629-.38a.719.719 0 00-.322.083.672.672 0 00-.267.223 2.62 2.62 0 00-.365.67 8.98 8.98 0 00-.226.714c-.198.793-.335 1.59-.412 2.392-.077.793-.14 1.6-.188 2.422-.02.186-.03.373-.03.56l-.001.56c-.003 1.073.07 2.104.216 3.094.147.99.36 1.976.637 2.957.046.159.097.308.153.448.055.15.134.29.237.421.176.234.358.352.545.352zm-2.48 1.348a1.08 1.08 0 01-.574-.156 2.62 2.62 0 01-.462-.352 2.814 2.814 0 01-.572-.772 6.635 6.635 0 01-.333-.883 24.433 24.433 0 01-.692-3.195 24.171 24.171 0 01-.17-4.704c.048-.83.12-1.647.216-2.45.095-.811.242-1.618.44-2.42a5.287 5.287 0 011.126-2.166c.112-.14.233-.25.364-.334.131-.084.29-.135.477-.153l.756-.053c.252-.018.509-.026.77-.025.299.001.593.02.882.06.289.028.578.085.867.17.364.104.658.278.881.522.223.243.39.542.502.897.259.823.486 1.65.68 2.48a17.4 17.4 0 01.427 2.537c.027.28.05.56.068.84.027.27.04.541.04.812v.308a31.478 31.478 0 01-.346 3.569c-.17 1.147-.44 2.28-.807 3.399a4.983 4.983 0 01-.155.447 3.63 3.63 0 01-.197.433c-.31.653-.833 1.029-1.57 1.129a5.924 5.924 0 01-.7.067c-.225.009-.453.012-.687.012l-1.232-.019zm11.107.11a6.22 6.22 0 01-.587-.03 4.193 4.193 0 01-.574-.072c-.215-.047-.369-.127-.462-.24-.083-.102-.134-.27-.152-.504a130.17 130.17 0 01-.202-3.262 75.001 75.001 0 01-.062-3.263l.017-1.078c.021-.96.033-1.918.035-2.87.012-.96.042-1.931.092-2.911.019-.317.038-.625.058-.924a15.3 15.3 0 01.1-.84v-.056c0-.121-.027-.21-.083-.266-.047-.056-.135-.094-.266-.113a6.237 6.237 0 00-.714-.045h-.266c-.084 0-.168.003-.252.012a2.29 2.29 0 00-.252-.014.975.975 0 01-.238-.03.631.631 0 01-.335-.21.558.558 0 01-.125-.365v-.042c0-.252.132-.443.393-.572.122-.047.248-.07.378-.07l.168.015 2.842.039 2.856.01.952.004c.168 0 .355.024.56.072.159.047.28.127.364.24a.523.523 0 01.139.364l-.015.098a.598.598 0 01-.197.377.716.716 0 01-.434.152l-1.232-.004c-.112 0-.2.004-.266.013-.056 0-.098.014-.126.041a.324.324 0 00-.07.14c-.01.056-.02.14-.03.252a29.304 29.304 0 00-.202 2.561c-.02.85-.032 1.699-.034 2.548l-.006 2.296-.03.994-.003.98a72.1 72.1 0 00.01 1.316c.01.43.031.864.067 1.302.037.458.054.91.053 1.359-.001.457.035.914.109 1.372a.246.246 0 01.013.084v.098l-.014.266a.841.841 0 01-.198.461c-.093.112-.238.181-.434.209a8.286 8.286 0 01-1.345.107zm10.495-7.619c.056 0 .117-.004.182-.013a3.45 3.45 0 00.252-.041.263.263 0 00.084-.014.529.529 0 00.07-.028c.505-.12.879-.342 1.122-.668.253-.325.413-.726.48-1.202.047-.27.08-.527.1-.77.028-.251.052-.442.07-.573a.715.715 0 00.015-.14v-.14c0-.093-.004-.177-.013-.252v-.224a11.338 11.338 0 00-.552-3.068c-.13-.393-.325-.706-.585-.94a2.887 2.887 0 00-.937-.578 1.894 1.894 0 00-.224-.043l-.224-.056-.112-.015c-.158 0-.238.088-.238.265l.012.602c.017.644.03 1.274.037 1.89.017.607.035 1.153.052 1.639 0 .448-.002.994-.004 1.638-.001.634.002 1.292.01 1.974-.002.29.021.49.068.602.046.103.158.155.335.155zm-3.197 7.605a.95.95 0 01-.154-.015.716.716 0 01-.14-.014c-.513-.086-.774-.39-.782-.913a57.605 57.605 0 01-.051-1.863l-.023-1.918.005-1.918.004-1.848.005-2.002c.002-.476-.002-.942-.01-1.4a36.35 36.35 0 00-.024-1.4 84.2 84.2 0 01-.038-1.54 42.303 42.303 0 00-.025-1.54l.001-.224c.01-.392.086-.662.226-.811.15-.158.42-.25.813-.277l.532-.012 1.036.018 1.12.004.56.03c.793.096 1.46.35 2 .763.55.413.95 1.011 1.2 1.796.36 1.131.567 2.28.62 3.447v.462c-.001.14-.01.331-.03.574a25.77 25.77 0 01-.214 1.469 3.898 3.898 0 01-.353 1.02 2.97 2.97 0 01-.66.88c-.271.26-.603.474-.995.64-.393.158-.846.24-1.359.247-.187 0-.303.013-.35.041-.047.028-.07.112-.07.252l-.004 1.106c0 .327-.006.658-.016.994l-.003 1.008v.448c-.001.15.003.299.012.448l.053 1.26c-.001.364-.188.592-.562.684a.923.923 0 01-.224.027c-.065.01-.135.018-.21.027-.299.018-.597.026-.896.025l-.896.025h-.098zm9.508.16c-.336 0-.573-.062-.713-.184-.13-.113-.2-.346-.209-.701l-.026-.49.001-.476.015-.546.032-1.61a27.53 27.53 0 00-.038-1.526 42.303 42.303 0 01-.024-1.54c.001-.41.016-.826.045-1.246l.003-.896c.03-.653.054-1.302.075-1.946a43.587 43.587 0 00.009-3.766l-.012-.77.002-.616.03-.63c.019-.27.08-.461.183-.573.103-.12.29-.2.56-.236a7.916 7.916 0 011.176-.08l.322.002 1.4.005a68.65 68.65 0 013.738.041l.196.03c.066.009.13.023.196.042.13.047.233.122.308.225a.56.56 0 01.11.336v.084c-.037.29-.201.471-.49.545l-.155.027h-.238a4.06 4.06 0 00-.336-.016l-.322-.001c-.261-.001-.523.003-.784.01-.261.01-.523.018-.784.026l-.336-.03c-.112 0-.224.005-.336.014a4.061 4.061 0 01-.336.012c-.187 0-.28.088-.28.265l-.016.672c.017.504.03 1.008.038 1.512.017.504.025 1.013.024 1.526a62.36 62.36 0 01-.033 1.862 39.49 39.49 0 01-.088 1.68c-.01.103-.014.205-.015.308v.308l-.001.196c0 .084.004.15.013.196a.18.18 0 00.07.112.333.333 0 00.154.057c.075.01.173.015.294.015l.322.015.63-.012c.112 0 .224.006.336.016.112 0 .224.02.336.057.149.047.26.131.335.253a.594.594 0 01.125.365.66.66 0 01-.225.531.523.523 0 01-.365.138l-.125-.014a1.352 1.352 0 00-.266-.029 2.385 2.385 0 00-.266-.015l-.644.012-.42-.002c-.122 0-.206.027-.253.083-.037.047-.056.13-.056.252v.112c.018.196.026.392.026.588l-.001.574c-.001.401-.007.751-.017 1.05 0 .299-.006.56-.016.784 0 .233-.006.439-.016.616l-.001.546c0 .196.013.322.041.378.028.066.112.098.252.099l3.22-.142c.13 0 .247.02.35.057.28.104.42.296.418.576v.028c0 .252-.127.438-.379.558a.95.95 0 01-.308.083 2.948 2.948 0 01-.294.013c-.588.017-1.172.042-1.75.078-.57.035-1.144.051-1.722.05l-.224-.002a2.948 2.948 0 01-.294.013h-.35c-.3-.002-.603.006-.91.024a9.72 9.72 0 01-.91.038zm12.493-.038c-.196 0-.392-.01-.588-.03a4.191 4.191 0 01-.574-.072c-.214-.047-.368-.127-.461-.24-.084-.103-.135-.27-.153-.504-.081-1.093-.148-2.18-.201-3.263a75.165 75.165 0 01-.062-3.262l.017-1.078c.02-.962.032-1.918.035-2.87a75.68 75.68 0 01.091-2.912l.059-.924c.028-.307.062-.587.1-.84v-.055c0-.122-.028-.21-.084-.267-.046-.056-.135-.093-.265-.112a6.212 6.212 0 00-.714-.045l-.266-.001c-.084 0-.168.004-.252.013a2.29 2.29 0 00-.252-.015.98.98 0 01-.238-.029.632.632 0 01-.336-.211.557.557 0 01-.125-.365v-.042c.001-.252.132-.442.394-.572.121-.046.247-.07.378-.069l.168.015 2.842.038 2.856.01.952.004c.168 0 .355.025.56.072a.68.68 0 01.363.24.52.52 0 01.139.364l-.014.098a.599.599 0 01-.197.377.714.714 0 01-.434.153l-1.232-.005c-.112 0-.201.004-.266.013-.056 0-.098.014-.127.042a.324.324 0 00-.07.14 3.26 3.26 0 00-.029.252 29.304 29.304 0 00-.202 2.56c-.02.85-.032 1.7-.034 2.549l-.006 2.296-.03.994c-.002.326-.002.653-.003.98-.001.438.002.877.01 1.316.009.429.03.863.067 1.302.036.457.054.91.053 1.358a8.5 8.5 0 00.108 1.372c.01.028.014.056.014.084v.098l-.015.267a.84.84 0 01-.197.46c-.094.112-.238.182-.435.21a8.241 8.241 0 01-1.344.106zm10.501-10.083c-.177-.001-.289.055-.336.166-.047.103-.071.299-.072.588a152.39 152.39 0 00-.019 1.988l-.004 1.624c-.02.485-.04 1.031-.06 1.638a143.51 143.51 0 01-.047 1.89l-.015.602c-.001.177.078.266.237.267l.112-.014.224-.055c.075-.01.149-.023.224-.041.365-.139.678-.33.94-.57.262-.233.458-.545.59-.937.329-.988.518-2.01.568-3.064v-.21c.01-.084.015-.172.015-.266v-.14a.738.738 0 00-.013-.14 18.03 18.03 0 01-.069-.56 8.16 8.16 0 00-.096-.784c-.064-.477-.222-.878-.473-1.206-.242-.328-.614-.553-1.118-.676a.561.561 0 00-.07-.028.263.263 0 00-.084-.015 3.538 3.538 0 00-.252-.043 1.3 1.3 0 00-.182-.014zm-3.159-7.628h.098l.896.032c.299 0 .598.011.896.031l.21.029c.075 0 .149.01.224.029.373.094.559.324.558.688l-.059 1.26c-.01.149-.015.298-.015.447l-.001.448-.003 1.008c.009.336.013.668.012.994l-.003 1.106c0 .14.023.224.069.253.047.028.164.042.35.043a3.62 3.62 0 011.358.27c.391.161.722.372.992.635.279.262.498.561.656.898.167.327.283.664.347 1.01.046.27.087.536.124.798.037.261.064.485.082.672.018.243.027.439.027.588l-.001.322v.126a13.24 13.24 0 01-.639 3.442c-.254.783-.657 1.379-1.208 1.787-.543.41-1.211.659-2.004.749l-.56.026-1.12-.004-1.036.01-.532-.016c-.392-.03-.663-.124-.812-.283-.139-.15-.213-.42-.222-.813l.001-.224c.02-.513.031-1.026.032-1.54.01-.513.026-1.026.046-1.54.02-.466.03-.928.031-1.385.011-.467.017-.938.018-1.414l.005-2.002.005-1.834.004-1.932.033-1.918a59.23 59.23 0 01.061-1.862c.011-.523.273-.825.786-.907a.714.714 0 01.14-.014.947.947 0 01.154-.013zm20.22 16.384c.186.001.368-.031.546-.096.177-.064.355-.138.532-.222.234-.11.444-.24.631-.39.188-.139.351-.325.492-.558a2.67 2.67 0 00.324-.838c.085-.336.137-.751.157-1.246l-.013-.238a1.347 1.347 0 01-.014-.182l.001-.21v-.182c0-.065-.004-.13-.013-.196-.027-.616-.264-.925-.712-.927a1.65 1.65 0 00-.42.069c-.327.101-.659.189-.995.262a19.58 19.58 0 01-1.008.165c-.14.018-.234.06-.281.124a.493.493 0 00-.056.266l-.076 2.31h.014l-.002.728c0 .243.004.485.012.728.009.205.046.34.111.407.065.074.201.136.406.183.121.028.242.043.364.043zm-.741-6.233a4.26 4.26 0 01.379-.166 8.07 8.07 0 00.392-.18 2.84 2.84 0 00.968-.725c.262-.307.445-.67.549-1.09.123-.513.217-1.021.284-1.525.076-.513.114-1.031.116-1.554 0-.289-.013-.578-.04-.868a14.9 14.9 0 00-.11-.882 3.3 3.3 0 00-.152-.533 2.572 2.572 0 00-.251-.505 1.507 1.507 0 00-.559-.478 1.382 1.382 0 00-.672-.17 1.51 1.51 0 00-.658.137.357.357 0 00-.154.126.285.285 0 00-.043.168l-.101 1.343c-.02.318-.034.63-.044.938l-.003.938c-.002.719.006 1.433.023 2.142.017.71.024 1.428.022 2.156l-.001.532c0 .019.005.047.014.084.009.028.023.066.041.113zm-.663 7.6a13.558 13.558 0 01-.868-.031c-.28-.02-.56-.063-.839-.13a3.044 3.044 0 01-.602-.197c-.177-.085-.359-.17-.545-.254a.674.674 0 01-.363-.394 1.821 1.821 0 01-.069-.518l-.025-1.26c-.008-.41-.012-.826-.011-1.246l.124-4.536a94.367 94.367 0 00-.048-3.206l-.012-.826c.002-.653.022-1.306.061-1.96.039-.653.073-1.306.103-1.96.01-.242.066-.424.169-.545.113-.13.304-.232.575-.306.318-.082.635-.156.953-.22a6.65 6.65 0 01.966-.123l.574-.011a10.95 10.95 0 011.652.132c.709.105 1.287.378 1.734.818.447.44.748 1.015.905 1.725.074.346.125.691.152 1.037.036.336.054.677.053 1.022-.001.355-.02.714-.059 1.078-.029.364-.067.728-.114 1.091-.048.318-.1.635-.157.952-.057.308-.137.61-.24.909-.075.168-.16.33-.253.49-.094.157-.192.32-.296.488a2.6 2.6 0 00.308.085c.094.02.182.047.266.085.336.16.606.371.81.633.214.253.344.566.39.94.055.392.082.789.081 1.19a13.911 13.911 0 01-.058.952 8.9 8.9 0 01-.044.546l-.043.391a2.904 2.904 0 01-.296.965 2.812 2.812 0 01-.59.796c-.449.4-.926.725-1.431.975-.504.25-1.06.383-1.667.4-.214.008-.424.012-.63.011a13.09 13.09 0 01-.616.012zm11.791.03l-.616-.03c-.196-.002-.401-.002-.616-.003l-.7.011a1.925 1.925 0 01-.783-.157 1.911 1.911 0 01-.615-.394 2.314 2.314 0 01-.419-.575 2.877 2.877 0 01-.25-.687c-.102-.42-.189-.841-.263-1.261-.064-.42-.133-.845-.207-1.275a17.528 17.528 0 01-.151-1.177 50.773 50.773 0 01-.067-1.232l-.024-1.302a77.08 77.08 0 00-.011-1.414l.018-1.554.002-.756c.001-.252.011-.5.03-.742a7.113 7.113 0 01.496-2.238c.281-.699.638-1.374 1.069-2.026.403-.596.954-.893 1.654-.89l1.302.005.7.016c.886.031 1.656.361 2.307.989.215.206.391.435.531.688.139.243.232.514.278.813l.013.196c0 .158-.019.294-.057.406a.757.757 0 01-.239.39.612.612 0 01-.378.125h-.084a.672.672 0 01-.378-.17.571.571 0 01-.153-.42v-.084c.002-.41-.119-.728-.361-.953a2.781 2.781 0 00-.839-.55 2.467 2.467 0 00-.238-.084.703.703 0 00-.195-.029.392.392 0 00-.267.097 1.551 1.551 0 00-.252.307 8.283 8.283 0 00-.929 1.873 6.722 6.722 0 00-.369 2.056l-.02 2.296c-.002.812.005 1.54.022 2.184.017.644.048 1.265.094 1.863.045.588.118 1.167.219 1.737a41.421 41.421 0 00.373 1.877c.01.047.023.093.042.14.158.402.39.604.698.605.112 0 .248-.027.407-.083.289-.11.556-.24.799-.389.243-.148.458-.33.645-.544a2.38 2.38 0 00.45-.726c.113-.28.179-.597.198-.951l.016-.476c0-.27-.013-.537-.04-.798a12.67 12.67 0 00-.082-.799l-.028-.28a3.073 3.073 0 01-.013-.294v-.126c0-.037.005-.079.015-.126a.69.69 0 01.211-.419.55.55 0 01.406-.166h.028c.149 0 .28.052.392.155.112.094.181.23.209.407l.137 1.26c.045.411.067.827.066 1.247a7.56 7.56 0 01-.058.952 3.38 3.38 0 01-.367 1.23 3.662 3.662 0 01-.787 1.005 5.676 5.676 0 01-1.332.905 3.576 3.576 0 01-1.597.345h-.042zm6.829.178c-.336 0-.573-.062-.713-.184-.131-.113-.2-.346-.208-.701l-.027-.49.001-.476.015-.546.033-1.61a27.527 27.527 0 00-.039-1.526 43.947 43.947 0 01-.024-1.54c.001-.41.016-.826.045-1.246l.003-.896c.029-.653.054-1.302.075-1.946.029-.653.045-1.297.047-1.932a40.36 40.36 0 00-.038-1.834l-.012-.77.002-.616.029-.63c.02-.27.081-.461.184-.573.103-.12.29-.2.56-.236a7.928 7.928 0 011.177-.08l.322.002 1.4.005a68.62 68.62 0 013.737.041l.196.03c.066.009.131.023.196.042a.636.636 0 01.308.225.564.564 0 01.111.336v.084c-.038.29-.202.471-.492.545l-.154.027h-.238a4.06 4.06 0 00-.336-.016l-.322-.001c-.261-.001-.522.002-.784.01-.261.01-.523.018-.784.026l-.336-.03c-.112 0-.224.005-.336.014a4.057 4.057 0 01-.336.012c-.187 0-.28.088-.281.265l-.015.672c.017.504.03 1.008.038 1.512.017.504.025 1.013.024 1.526a58.277 58.277 0 01-.033 1.862 37.87 37.87 0 01-.088 1.68 3.968 3.968 0 00-.015.308v.308l-.001.196c0 .084.004.15.014.196a.179.179 0 00.069.112.339.339 0 00.154.057c.075.01.173.015.294.015l.322.015.63-.012c.112 0 .224.006.336.016.112 0 .224.02.336.057a.581.581 0 01.335.253.589.589 0 01.125.365.66.66 0 01-.225.531.522.522 0 01-.364.138l-.126-.014a1.357 1.357 0 00-.266-.029 2.392 2.392 0 00-.266-.015l-.644.012-.42-.002c-.122 0-.206.027-.252.083-.038.047-.057.13-.057.252v.112c.018.196.027.392.026.588l-.001.574a34.29 34.29 0 01-.017 1.05c-.001.299-.006.56-.016.784-.001.233-.006.439-.016.616l-.001.546c0 .196.013.322.041.378.028.066.112.098.252.099l3.22-.142c.131 0 .248.02.35.057.28.104.419.296.419.576v.028c-.001.252-.128.438-.38.558a.948.948 0 01-.308.083 2.937 2.937 0 01-.294.013c-.588.017-1.172.042-1.75.078-.57.035-1.144.051-1.722.05l-.224-.002a2.964 2.964 0 01-.294.013h-.35a15.03 15.03 0 00-.911.024c-.298.027-.602.04-.91.038z" fill="#fff"/></svg>