<svg width="65" height="15" fill="none" xmlns="http://www.w3.org/2000/svg"><path d="M.012 12.524c.453-3.468 1.076-7.216 3.681-9.845C5.902.442 9.243-.733 12.302.497c3.454 1.399 4.87 4.867 6.683 7.776 1.076 1.734 3.114 4.195 5.55 3.691 1.642-.391 2.322-2.07 2.832-3.468.906-2.293 1.472-4.866 3.398-6.6 2.152-1.902 5.21-1.678 7.475-.056 3.059 2.126 3.908 5.761 6.457 8.334 1.812 1.79 4.021 1.623 5.777-.223 1.416-1.567 1.812-3.636 2.888-5.426 1.756-2.909 5.267-3.58 8.212-1.79 3.455 2.181 3.851 6.544 3.115 10.124-.283 1.455-2.718 1.119-2.662-.335 0-1.678.17-3.468-.396-5.09-.736-2.07-3.342-3.748-5.154-1.846-1.02 1.062-1.303 2.74-1.982 4.027a10.894 10.894 0 01-2.889 3.524c-5.153 3.86-9.514-.895-12.006-5.09-1.36-2.294-4.87-6.712-7.306-3.02-1.303 1.901-1.586 4.362-2.662 6.376-2.662 5.09-8.382 4.363-11.837.392C15.586 9.279 14.51 4.468 11 3.293c-5.437-1.734-7.25 5.65-7.702 9.23-.397 1.902-3.512 1.957-3.285 0z" fill="#1F1F1F"/></svg>