<svg width="24" height="6" fill="none" xmlns="http://www.w3.org/2000/svg"><path d="M.004 5.01c.168-1.388.398-2.887 1.36-3.938C2.179.177 3.413-.293 4.542.199c1.276.56 1.799 1.947 2.468 3.11.397.694 1.15 1.678 2.049 1.477.606-.157.857-.828 1.046-1.387.334-.918.543-1.947 1.254-2.64.795-.761 1.924-.672 2.76-.023 1.13.85 1.444 2.305 2.384 3.334.67.716 1.485.649 2.133-.09.523-.626.67-1.454 1.067-2.17.648-1.164 1.945-1.432 3.032-.716 1.276.873 1.422 2.618 1.15 4.05-.104.581-1.004.447-.983-.135 0-.67.063-1.387-.146-2.036-.272-.827-1.234-1.499-1.903-.738-.376.425-.48 1.096-.732 1.611a4.305 4.305 0 01-1.066 1.41c-1.903 1.543-3.514-.358-4.434-2.036-.501-.918-1.798-2.685-2.697-1.209-.481.761-.586 1.746-.983 2.551-.983 2.036-3.095 1.745-4.37.157-.816-1.007-1.213-2.931-2.51-3.401-2.007-.694-2.676 2.26-2.844 3.691-.146.761-1.296.784-1.213 0z" fill="#1F1F1F"/></svg>