<svg width="37" height="9" fill="none" xmlns="http://www.w3.org/2000/svg"><path d="M.007 7.514c.258-2.08.612-4.33 2.095-5.907C3.36.265 5.262-.44 7.002.298c1.967.84 2.773 2.92 3.805 4.666.612 1.04 1.773 2.517 3.159 2.215.935-.235 1.322-1.242 1.612-2.081.516-1.376.838-2.92 1.934-3.96 1.225-1.142 2.966-1.007 4.256-.034 1.74 1.275 2.224 3.457 3.675 5 1.031 1.075 2.289.974 3.288-.134.806-.94 1.032-2.181 1.644-3.255 1-1.745 2.998-2.148 4.675-1.074 1.967 1.309 2.192 3.927 1.773 6.075-.161.872-1.547.67-1.515-.202 0-1.007.096-2.08-.226-3.054-.419-1.242-1.902-2.249-2.934-1.107-.58.637-.741 1.644-1.128 2.416a6.474 6.474 0 01-1.644 2.114C26.442 10.2 23.96 7.346 22.54 4.83c-.773-1.376-2.772-4.027-4.158-1.812-.742 1.141-.903 2.618-1.516 3.826-1.515 3.054-4.77 2.618-6.737.235-1.258-1.51-1.87-4.397-3.87-5.101-3.094-1.04-4.126 3.39-4.383 5.537-.226 1.141-2 1.175-1.87 0z" fill="#1F1F1F"/></svg>