<svg width="81" height="88" fill="none" xmlns="http://www.w3.org/2000/svg"><path d="M21.508 75.288l-4.213-.207L6.4 67.596c-.581-2.15-.584-7.91 4.06-13.757 5.803-7.307 9.743-13.296 16.992-21.195 7.249-7.9 2.015-.951 4.53-3.762 2.513-2.81 12.39-14.467 17.256-16.834 3.892-1.894 8.706-2.564 10.627-2.663-.057.473.217 1.438 1.766 1.509 1.549.07 3.29.897 3.966 1.301-.007.69.063 2.142.396 2.426.415.355-1.863 3.106-.153 2.219 1.368-.71 2.818.059 3.372.532-.407 1.48-1.623 4.93-3.234 6.894-1.61 1.964-2.725 3.934-3.082 4.674l.831.71c.933-.77 2.68-2.095 2.211-1.243-.586 1.066-1.9 1.51-2.25 2.515-.35 1.006-.652 2.574.35 1.864.435-.11.769-.294 1.02-.502.213-.336.456-.688.643-.948-.051.225-.24.615-.643.948-.362.57-.635 1.094-.398 1.035.378-.095 1.474-.829 1.975-1.184l1.285-.207-2.117 2.367c-1.164 1.301-.303 1.568.273 1.538-.24.404-.945 1.385-1.852 2.071-1.134.858-.426.68-1.91 2.544-1.187 1.492-5.875 6.637-8.07 9.024.037-.316-.125-.68-1.078.385-1.19 1.331-1.323 1.479-2.57 3.284-1.248 1.804 1.027-2.452-3.472 2.578-3.599 4.023-3.287 3.415-3.949 4.154-1.727 2.614-5.968 8.68-9.12 12.041-3.942 4.202-8.288 7.012-8.392 6.924-.083-.072-1.363.226-1.993.384.526-.246 1.474-.828 1.058-1.183-.415-.355-2.332-.602-3.24-.68l.02-2.071zm8.433 2.248c-.423.473-.025.848.227.976l-.757 1.05c-.072.764-.16 2.187.075 1.76.235-.426.615-1.301.776-1.686.037-.316.96-1.893 4.347-5.68 4.234-4.734 3.63-4.468 4.027-4.912.397-.443-8.165 7.9-8.695 8.492z" fill="#FDA3C4"/><path d="M37.484 57.314c-.207.254-.466.287-.776.097a6.892 6.892 0 01-.349-.236 7.744 7.744 0 00-.343-.263l-4.635-3.449a13.127 13.127 0 01-.86-.635 27.781 27.781 0 01-.589-.493l-.563-.488c-.46-.384-.924-.764-1.39-1.142-.461-.384-.92-.772-1.376-1.162a9.418 9.418 0 01-.36-.338l-.36-.354c-.217-.228-.332-.423-.343-.587-.006-.17.086-.378.277-.625l1.09-1.34c.3-.344.584-.408.851-.191a.94.94 0 01.203.226c.103.165.223.31.36.431.132.117.27.234.413.35l1.535 1.306a73.498 73.498 0 003.251 2.62c.205.156.351.249.44.28.093.024.19-.026.291-.15l.099-.121a8.843 8.843 0 01.408-.596 10.556 10.556 0 01.414-.53 1.18 1.18 0 00.097-.137c.072-.127.128-.226.166-.299a.538.538 0 00.054-.218.281.281 0 00-.078-.171 1.377 1.377 0 00-.208-.2l-.68-.535a33.634 33.634 0 01-.944-.797c-.307-.27-.59-.524-.848-.764-.246-.23-.499-.452-.76-.663a44.582 44.582 0 00-.794-.66l-1.25-1.012a.793.793 0 00-.163-.102l-.165-.103-.11-.073a.846.846 0 01-.215-.268c-.116-.238-.098-.45.053-.636l.023-.028c.184-.201.402-.24.653-.119.079.043.152.092.22.148.074.049.145.101.213.157.79.64 1.562 1.281 2.317 1.924.755.632 1.48 1.262 2.177 1.889l.458.387c.224.181.45.348.676.5a1.7 1.7 0 01.147.105.276.276 0 00.151.06.885.885 0 01.429.178.757.757 0 01.219.301c.023.06.066.116.128.166.044.035.09.067.138.096.042.024.088.05.136.08l3.704 2.37a.878.878 0 01.12.08.863.863 0 01.119.082.703.703 0 01.209.37c.03.128.009.25-.065.365l-.045.056a.575.575 0 01-.32.203.556.556 0 01-.394-.087 20.564 20.564 0 01-1.258-.773c-.507-.328-.968-.63-1.383-.905-.416-.275-.85-.56-1.301-.853a.752.752 0 00-.234-.113c-.041-.012-.082.006-.122.056l-.133.2c-.187.282-.38.558-.58.828l-.591.803c-.085.117-.13.198-.137.244-.013.041.024.097.11.168l3.144 2.316.447.363c.273.273.302.543.084.81-.09.123-.18.24-.27.352l-.273.335-.76.914zm8.163-10.015c-.123.138-.251.213-.386.227a.48.48 0 01-.38-.122l-.125-.132a1.78 1.78 0 00-.287-.294 7.05 7.05 0 01-.294-.285c-.12-.118-.3-.279-.536-.481a34.617 34.617 0 00-.78-.678c-.275-.245-.565-.49-.87-.737a55.241 55.241 0 00-.85-.704 38.39 38.39 0 00-.682-.569l-.365-.312c-.286-.231-.59-.473-.912-.723-.328-.256-.66-.52-.996-.792l-.242-.197c-.037-.03-.07-.035-.096-.015 0 .051.013.098.04.14a.987.987 0 01.08.112l1.059 1.475c.352.492.7.99 1.042 1.495.457.668.92 1.322 1.39 1.96.47.64.88 1.29 1.227 1.953.093.178.185.35.276.517.091.167.174.337.25.511.124.266.108.495-.049.687l-.132.125c-.273.221-.57.218-.89-.01l-.111-.091a94.846 94.846 0 01-.097-.11c-.665-.6-1.338-1.219-2.019-1.853l-2.064-1.95a54.192 54.192 0 00-1.874-1.69 89.013 89.013 0 00-1.944-1.623l-.755-.612c-.248-.201-.49-.392-.725-.572l-.828-.656a.542.542 0 01-.198-.346.582.582 0 01.096-.385l.016-.019a.527.527 0 01.312-.194.596.596 0 01.392.07c.072.038.14.082.201.133.063.05.127.097.195.142a8.8 8.8 0 01.537.404c.185.14.37.285.557.437l1.67 1.37a44.332 44.332 0 012.073 1.787c.667.613 1.334 1.232 2.002 1.855a4.619 4.619 0 00.51.476 2.307 2.307 0 00.385.25 4.326 4.326 0 01-.094-.17 1.18 1.18 0 00-.102-.16c-.275-.397-.549-.789-.822-1.175a69.566 69.566 0 00-.822-1.177 4024.56 4024.56 0 00-2.218-3.11 29.68 29.68 0 00-2.381-2.95c-.128-.135-.198-.264-.21-.388-.009-.13.044-.277.158-.442a20.87 20.87 0 01.826-1.092c.212-.26.428-.507.65-.74.133-.14.276-.214.428-.224a.601.601 0 01.451.15l.215.173c.155.126.313.25.473.369.155.114.31.235.465.36l.186.152c.27.24.554.48.852.721l.904.733.997.809a73.6 73.6 0 001.011.773l.446.346.15.12c.105.087.248.208.43.365.18.146.38.313.598.5a287.992 287.992 0 001.424 1.217c.236.191.457.376.663.553.213.183.394.335.543.456.192.156.374.319.546.489.177.174.357.346.54.515.112.09.208.2.29.328.18.26.172.51-.025.752l-.693.89c-.226.29-.46.585-.702.883zm4.75-5.82l-.288.354a4.59 4.59 0 01-.306.338 1.06 1.06 0 01-.482.289 2.738 2.738 0 01-.56.117 4.599 4.599 0 01-1.494-.16 6.004 6.004 0 01-1.367-.583l-.366-.235a9.396 9.396 0 01-.964-.812 30.267 30.267 0 01-.584-.613c-.226-.266-.249-.51-.067-.734l.03-.037a.524.524 0 01.365-.183.579.579 0 01.408.145l.075.06c.087.071.169.148.246.23a58.275 58.275 0 01.516.526c.094.088.194.174.3.26a4.76 4.76 0 002.124.981c.285.056.556.034.813-.067a1.492 1.492 0 00.868-.857 1.3 1.3 0 00.086-.486.866.866 0 00-.069-.334 2.068 2.068 0 00-.142-.3 3.622 3.622 0 00-.822-.93 3.971 3.971 0 00-.633-.42 6.807 6.807 0 00-.693-.346.408.408 0 00-.157-.035l-.173-.016c-.167-.022-.286.01-.357.097a.43.43 0 00-.08.213.467.467 0 01-.022.121.848.848 0 00-.04.107c-.038.072-.07.123-.095.154-.131.162-.29.23-.474.203a.591.591 0 01-.303-.122.621.621 0 01-.21-.37 1.252 1.252 0 010-.248 2.311 2.311 0 00-.09-.877 3.299 3.299 0 00-.373-.796 4.509 4.509 0 00-.52-.654 7.077 7.077 0 00-.714-.701l-.803-.667c-.205-.166-.413-.33-.623-.49a13.885 13.885 0 00-.664-.476 4.196 4.196 0 00-.618-.362 7.41 7.41 0 00-.654-.3c-.356-.133-.612-.103-.768.089a1.22 1.22 0 00-.196.413c-.103.38-.107.758-.01 1.134.112.432.279.83.498 1.193.22.363.486.702.797 1.017l.151.138c.087.07.182.137.286.2.108.057.216.108.323.154a.682.682 0 01.19.108c.187.151.238.342.154.572a.543.543 0 01-.093.172c-.152.186-.356.247-.613.183a2.602 2.602 0 01-.895-.478l-.121-.099a6.465 6.465 0 01-1.043-1.247 5.876 5.876 0 01-.624-1.324 3.59 3.59 0 01-.187-1.558c.05-.505.244-.991.583-1.458l.56-.689.57-.681c.255-.288.533-.465.833-.53.294-.07.615-.058.96.037.563.157 1.083.4 1.561.725.244.156.483.319.717.488.232.158.442.312.628.463l.196.159c.456.39.869.75 1.24 1.082.374.324.673.654.896.99.115.175.224.351.328.528a2.5 2.5 0 01.262.552c.02.038.039.073.053.105a.148.148 0 00.05.072c.038.03.09.042.158.035.293-.03.564-.022.814.026.255.042.498.116.731.223.234.106.455.234.664.383.208.148.415.306.62.472l.224.182c.485.393.845.9 1.08 1.524a1.88 1.88 0 01-.065 1.507c-.13.286-.282.55-.456.789-.17.233-.35.468-.542.704l-.538.66z" fill="#fff"/></svg>