<svg width="92" height="103" fill="none" xmlns="http://www.w3.org/2000/svg"><path d="M28.325 90.19l-4.767-.654-14.49-8.785c-1.316-2.256-3.108-8.138.258-13.62 4.208-6.853 8.614-15.447 14.252-22.752s11.294-15.225 13.227-17.831c1.933-2.606 9.337-13.472 14.034-15.378 3.757-1.525 8.923-1.705 11.036-1.605.084.478.688 1.491 2.44 1.726 1.751.235 3.951 1.261 4.832 1.745.207.704.736 2.194 1.195 2.518.574.406-1.114 2.977.52 2.25 1.306-.582 3.164.356 3.929.897.005 1.468-.281 4.862-1.468 6.7-1.188 1.836-1.82 3.73-1.988 4.449l1.148.812c.802-.688 2.34-1.858 2.082-1.037-.324 1.026-1.652 1.341-1.73 2.332-.078.99.07 2.56.968 1.94.452-.066.768-.22.983-.406.133-.32.295-.655.423-.9.014.224-.076.602-.423.9-.226.545-.369 1.05-.122 1.014.393-.057 1.388-.691 1.837-1.001l1.37-.077-1.628 2.195c-.896 1.207.149 1.569.783 1.6-.142.387-.625 1.314-1.425 1.92-1 .756-.263.65-1.34 2.397-.863 1.398-4.498 6.16-6.207 8.367-.056-.319-.35-.708-1.083.28-.916 1.234-1.017 1.371-1.85 3.083-.832 1.712-8.953 12.07-12.413 16.733l-4.985 6.721c-1.116 2.487-3.966 8.237-6.442 11.338-3.094 3.876-7.072 6.29-7.216 6.188-.115-.08-1.452.089-2.106.184.51-.197 1.388-.691.814-1.097s-2.79-.859-3.827-1.035l-.621-2.112zm10.113 3.179c-.326.439.235.863.556 1.02l-.518.993c.156.773.5 2.216.63 1.806.13-.41.282-1.265.342-1.64-.056-.32.484-1.833 3.088-5.345 3.256-4.389 2.664-4.18 2.97-4.592.305-.411-6.661 7.21-7.068 7.758z" fill="#FDA3C4"/><path d="M41.989 70.906c-.244.363-.583.438-1.018.224a9.047 9.047 0 01-.492-.272 10.4 10.4 0 00-.488-.307l-6.574-4.014a17.527 17.527 0 01-1.22-.74c-.292-.195-.573-.39-.841-.582l-.807-.578c-.659-.454-1.32-.903-1.986-1.348a177.54 177.54 0 01-1.967-1.375c-.18-.133-.354-.268-.519-.405l-.523-.426c-.316-.276-.491-.522-.526-.738-.029-.224.068-.512.291-.864l1.285-1.912c.356-.493.725-.612 1.107-.357.115.077.214.169.296.275.157.208.334.384.532.53.189.139.385.277.59.413l2.197 1.548a97.94 97.94 0 004.636 3.083c.29.181.496.287.617.317.127.02.25-.057.37-.234.035-.054.074-.111.116-.173a11.797 11.797 0 01.468-.841c.116-.192.237-.381.362-.567l.125-.186c.041-.062.078-.127.111-.195.08-.177.142-.316.184-.416a.716.716 0 00.045-.297.375.375 0 00-.124-.218 1.835 1.835 0 00-.301-.24l-.967-.628c-.47-.314-.92-.628-1.351-.943-.44-.32-.847-.624-1.219-.911a18.9 18.9 0 00-1.09-.788 59.582 59.582 0 00-1.135-.778l-1.782-1.193a1.05 1.05 0 00-.23-.115l-.23-.116-.156-.085a1.129 1.129 0 01-.319-.329c-.183-.302-.185-.585-.006-.851l.026-.04c.22-.29.505-.368.854-.237.11.047.213.103.31.169.104.056.204.117.302.182a166.43 166.43 0 013.31 2.274c1.079.747 2.119 1.494 3.12 2.242l.657.458c.319.213.638.408.957.583.077.038.146.078.208.12a.368.368 0 00.209.062c.234.016.43.077.59.184.133.089.242.213.328.373a.54.54 0 00.19.204c.062.042.127.079.195.111.06.027.123.057.19.09l5.207 2.694c.059.027.115.058.168.093.06.027.116.058.169.094a.94.94 0 01.323.466.611.611 0 01-.042.492l-.053.08a.766.766 0 01-.4.31c-.16.046-.339.024-.534-.068a26.771 26.771 0 01-.891-.423 27.1 27.1 0 01-.874-.45c-.712-.374-1.36-.719-1.946-1.033-.586-.315-1.196-.64-1.832-.976-.153-.077-.261-.117-.323-.12-.057-.012-.109.017-.156.088l-.152.284a28.51 28.51 0 01-.67 1.169l-.687 1.138c-.098.165-.149.279-.152.341-.012.056.044.126.168.209l4.456 2.692.638.428c.396.329.466.683.21 1.064-.104.174-.21.341-.317.5l-.32.479-.897 1.306zm9.618-14.292c-.146.198-.307.314-.485.35-.169.04-.342.002-.52-.117l-.181-.16a2.366 2.366 0 00-.416-.356 9.362 9.362 0 01-.426-.342 14.865 14.865 0 00-.77-.574 46.64 46.64 0 00-1.118-.805c-.396-.29-.81-.581-1.245-.872a74.844 74.844 0 00-1.215-.832c-.375-.264-.7-.488-.975-.672a26.72 26.72 0 00-.523-.369c-.407-.273-.84-.556-1.298-.85-.467-.3-.94-.61-1.419-.93l-.346-.231c-.053-.036-.096-.039-.128-.01.005.069.029.13.07.183.039.038.078.084.12.137l1.584 1.83c.529.611 1.05 1.23 1.567 1.858a89.372 89.372 0 002.085 2.435c.702.79 1.324 1.605 1.867 2.443.144.225.287.442.429.652.141.21.272.427.393.649.197.337.204.643.02.918l-.16.181c-.336.327-.73.359-1.183.095l-.159-.107-.142-.133a238.725 238.725 0 01-2.907-2.215c-.983-.774-1.976-1.553-2.977-2.34a72.793 72.793 0 00-2.695-2.014 118.1 118.1 0 00-2.779-1.917l-1.077-.721a45.713 45.713 0 00-1.032-.672l-1.18-.77c-.17-.127-.273-.272-.305-.435a.777.777 0 01.082-.523l.018-.027a.703.703 0 01.391-.296.795.795 0 01.529.046c.1.041.195.092.283.151.09.06.18.114.275.165.243.136.497.294.763.472.263.163.527.333.793.511l2.385 1.615a59.02 59.02 0 012.97 2.122c.96.732 1.92 1.472 2.884 2.22a6.495 6.495 0 00.736.57 3.052 3.052 0 00.54.283 5.657 5.657 0 01-.145-.213 1.575 1.575 0 00-.155-.2 180.81 180.81 0 00-1.235-1.461 92.079 92.079 0 00-1.235-1.462c-1.118-1.3-2.226-2.587-3.324-3.86a39.559 39.559 0 00-3.52-3.627c-.186-.163-.295-.326-.327-.488-.026-.172.026-.374.157-.607a27.803 27.803 0 01.964-1.55c.25-.372.507-.726.771-1.063.16-.2.342-.317.543-.349a.804.804 0 01.617.144l.306.204c.221.149.446.293.674.432.218.133.438.274.66.423l.266.178c.387.284.793.569 1.219.854a17149.26 17149.26 0 002.712 1.815c.467.3.946.6 1.437.903l.634.405.212.143c.151.1.356.244.616.431.258.172.543.37.856.592.313.222.648.46 1.006.712l1.032.73c.337.225.654.443.949.653.304.217.563.396.776.538.274.184.536.378.784.583.257.21.517.416.78.618.16.107.301.24.425.4.271.323.291.657.06 1.002l-.813 1.267c-.264.413-.54.832-.825 1.257zm5.598-8.306l-.339.505a6.286 6.286 0 01-.365.486c-.16.201-.363.348-.606.443-.234.1-.477.174-.729.224a6.133 6.133 0 01-2.002-.031 8.007 8.007 0 01-1.886-.608l-.514-.267a12.066 12.066 0 01-1.378-.961c-.287-.243-.57-.49-.852-.742-.333-.326-.393-.648-.179-.967l.036-.053a.699.699 0 01.463-.287.771.771 0 01.559.143l.106.071c.124.083.242.175.355.276.118.092.233.188.345.289.14.118.273.234.403.346.136.104.28.207.43.307a6.346 6.346 0 002.942 1.045 1.91 1.91 0 001.07-.189 1.99 1.99 0 001.048-1.243c.06-.204.078-.423.055-.656a1.156 1.156 0 00-.132-.435 2.76 2.76 0 00-.225-.382 4.82 4.82 0 00-1.205-1.133 5.3 5.3 0 00-.891-.481 9.053 9.053 0 00-.963-.375.544.544 0 00-.213-.027h-.23c-.226-.01-.38.047-.463.171a.574.574 0 00-.081.293.626.626 0 01-.014.164 1.11 1.11 0 00-.04.146 1.34 1.34 0 01-.108.217c-.154.23-.356.34-.604.327a.79.79 0 01-.417-.125.83.83 0 01-.323-.467 1.672 1.672 0 01-.03-.328A3.078 3.078 0 0050 42.851a4.396 4.396 0 00-.592-1.012 6.022 6.022 0 00-.77-.805 9.47 9.47 0 00-1.033-.845l-1.148-.787a34.646 34.646 0 00-.886-.574 18.784 18.784 0 00-.94-.552 5.613 5.613 0 00-.865-.406 9.885 9.885 0 00-.905-.316c-.488-.135-.825-.064-1.009.21-.09.133-.16.323-.21.572a2.93 2.93 0 00.124 1.508c.203.559.472 1.066.808 1.522.337.456.73.874 1.182 1.253l.218.165c.124.083.258.16.403.231.15.063.3.118.448.166a.909.909 0 01.266.12c.266.178.357.425.273.741a.725.725 0 01-.102.24c-.179.265-.443.37-.792.317a3.466 3.466 0 01-1.246-.526l-.173-.116a8.62 8.62 0 01-1.537-1.529 7.834 7.834 0 01-.99-1.683c-.306-.692-.452-1.374-.438-2.045.005-.677.204-1.346.597-2.007l.66-.983.673-.974c.303-.413.65-.681 1.042-.805.382-.129.809-.151 1.28-.068a7.061 7.061 0 012.16.772c.343.178.68.366 1.01.561.329.181.626.36.892.539l.279.187c.653.462 1.245.89 1.777 1.285a6.62 6.62 0 011.311 1.205c.174.219.34.44.5.662.165.213.304.447.415.701.033.047.06.092.084.133.015.036.04.066.076.09.053.035.124.044.213.026a3.711 3.711 0 011.084-.064c.343.025.676.093.998.206.323.114.632.256.927.428.296.172.59.356.882.552l.32.214c.691.462 1.23 1.093 1.62 1.892.311.645.343 1.315.096 2.01a5.97 5.97 0 01-.51 1.102c-.196.33-.407.664-.633 1l-.634.944z" fill="#fff"/></svg>