<svg width="144" height="50" fill="none" xmlns="http://www.w3.org/2000/svg"><path d="M5.89 31.35l-3.142-4.333L1.61 10.12c1.7-2.335 7.493-7.056 17.066-7.257 11.966-.251 46.281-.65 59.992.042 13.711.693-1.798.94 3.029 1.123 4.826.182 41.529.49 47.78 3.358 5 2.296 9.504 6.504 11.131 8.32-.521.332-1.274 1.393-.113 2.981 1.16 1.59 1.714 3.986 1.845 4.986-.699.559-2.104 1.817-2.125 2.378-.027.701-4.606.704-2.353 1.667 1.802.77 2.181 2.833 2.146 3.768-1.812.81-6.249 2.433-9.506 2.45-3.257.018-6.126.53-7.153.784l-.053 1.403c1.515.291 4.238.932 3.008 1.167-1.537.293-3.028-.641-4.318-.163-1.291.478-3.109 1.463-1.598 1.871.456.34.908.52 1.316.597a26.275 26.275 0 011.465-.141c-.266.134-.809.267-1.465.141-.861.11-1.605.269-1.356.455.396.296 2.006.778 2.761.982l1.23 1.1-4.064-.154c-2.236-.084-1.819.985-1.33 1.53-.598.095-2.145.2-3.557-.134-1.765-.417-1.023.137-4.078.198-2.444.048-18.471-.465-22.618-.68.348-.221.586-.68-1.243-.75-2.287-.086-2.54-.095-5.348.15s-12.353-1.043-20.99-1.369c-6.91-.26-21.214-.74-22.484-.788-4.002.434-13.478 1.212-19.366.85-7.36-.454-13.644-2.447-13.638-2.622.006-.14-1.312-1.161-1.972-1.654.666.317 2.006.778 2.032.076.027-.701-1.25-2.797-1.892-3.758L5.89 31.35zm4.446 10.175c-.813-.03-.873.67-.802 1.023l-1.658.113c-.826.554-2.326 1.633-1.71 1.516.614-.118 1.797-.46 2.312-.615.348-.221 2.669-.602 9.172-.357 8.129.307 7.38-.073 8.142-.044.762.029-14.44-1.598-15.456-1.636z" fill="#FDA3C4"/><path d="M28.484 32.248c-.405-.001-.655-.215-.75-.642a1.11 1.11 0 01-.047-.32l-.315-6.898c.002-.629.009-1.237.021-1.824l.002-.752c.012-.256.018-.5.019-.736.011-.245.017-.469.018-.671l.001-.528.002-.416a169.762 169.762 0 01-.023-3.28l.01-3.185c0-.287.055-.5.162-.639.118-.149.315-.239.593-.27a16.072 16.072 0 011.376-.06 18.247 18.247 0 011.504.069c.277.022.48.108.607.258.127.139.207.347.238.624.01.086.015.182.015.288v.272l-.012 3.808c-.004 1.28-.002 2.571.004 3.872v.4a.548.548 0 00.176-.239c.032-.075.059-.15.08-.224.442-1.29.915-2.626 1.42-4.011a120.376 120.376 0 011.613-4.203c.043-.086.08-.17.113-.256.032-.096.075-.187.129-.272a.719.719 0 01.625-.318h.096a.28.28 0 01.128.033c.309.118.463.353.462.705a.977.977 0 01-.05.32c-.032.096-.07.197-.112.304a144.669 144.669 0 00-1.71 4.443 207.205 207.205 0 00-1.484 4.251 28.13 28.13 0 01-.372 1.007c-.118.32-.247.64-.386.959a.994.994 0 00-.081.335c0 .107.042.235.127.385a91.192 91.192 0 001.687 2.917c.541.887 1.115 1.72 1.72 2.501.138.182.309.343.51.482.054.032.102.064.145.097l.16.128c.18.16.27.353.27.577a.667.667 0 01-.13.4.666.666 0 01-.593.318.872.872 0 01-.32-.081 2.733 2.733 0 01-.686-.45 5.219 5.219 0 01-.574-.61 43.242 43.242 0 01-1.195-1.7 19.686 19.686 0 01-1.194-2.084 1.817 1.817 0 00-.191-.304 50.13 50.13 0 00-.27-.385 5.23 5.23 0 00-.018.416l-.001.384c-.001.277.003.538.013.784.02.256.041.507.062.752.031.363.057.726.077 1.088.02.363.03.726.029 1.088l-.001.256c-.022.288-.098.496-.226.624-.118.138-.315.212-.593.222-.203.01-.405.015-.608.014l-.608-.002-1.664-.021zm16.73-1.5c.236 0 .444-.159.626-.478.075-.139.134-.277.177-.416.054-.128.108-.266.162-.415.387-1.194.674-2.398.859-3.614a30.65 30.65 0 00.363-3.727v-.112a19.538 19.538 0 00-.356-3.84 28.969 28.969 0 00-.95-3.7 1.876 1.876 0 00-.063-.144 1.914 1.914 0 01-.063-.144c-.18-.289-.42-.433-.72-.434a.821.821 0 00-.367.095.768.768 0 00-.305.255 3 3 0 00-.419.766 10.91 10.91 0 00-.258.816 18.564 18.564 0 00-.472 2.734c-.088.907-.16 1.829-.216 2.767a6.409 6.409 0 00-.034.64l-.002.64a23.697 23.697 0 00.245 3.537c.167 1.131.41 2.257.726 3.378.053.182.11.353.175.513.063.17.153.331.27.48.202.268.41.402.623.403zm-2.836 1.543c-.245 0-.464-.06-.655-.178a2.997 2.997 0 01-.527-.402 3.21 3.21 0 01-.653-.882 7.569 7.569 0 01-.381-1.009 27.917 27.917 0 01-.79-3.65 27.603 27.603 0 01-.191-5.377c.056-.95.139-1.882.248-2.8.11-.927.278-1.85.504-2.766a6.05 6.05 0 011.288-2.476c.128-.16.267-.287.417-.383.15-.095.331-.153.544-.174l.865-.061c.288-.02.581-.03.88-.03.341.002.677.024 1.008.068.33.033.66.098.991.195.416.118.751.317 1.006.595.255.278.446.62.573 1.026.296.94.554 1.884.776 2.834.232.94.394 1.905.487 2.898.031.32.057.64.077.96.031.31.046.619.045.928v.352a35.984 35.984 0 01-.397 4.079 23.637 23.637 0 01-.924 3.885 5.738 5.738 0 01-.177.511c-.065.17-.14.336-.226.496-.354.745-.953 1.175-1.796 1.29a6.793 6.793 0 01-.8.078c-.256.01-.517.014-.784.013l-1.408-.02zm13.832.043l-.704-.035c-.224 0-.459 0-.704-.002l-.8.014a2.188 2.188 0 01-.896-.179 2.202 2.202 0 01-.702-.45 2.663 2.663 0 01-.479-.658 3.282 3.282 0 01-.285-.785c-.116-.48-.216-.96-.3-1.44a89.4 89.4 0 00-.235-1.457 19.25 19.25 0 01-.172-1.345 56.01 56.01 0 01-.076-1.408l-.028-1.488c.002-.512-.002-1.05-.01-1.616l.02-1.776.003-.864c0-.288.012-.57.035-.848a8.13 8.13 0 01.567-2.558c.323-.8.73-1.571 1.223-2.316.46-.682 1.091-1.021 1.891-1.018l1.488.004.8.019c1.014.035 1.892.41 2.637 1.128.245.235.446.497.606.786.159.277.264.587.317.929l.015.224c0 .181-.022.336-.065.463a.866.866 0 01-.274.448.702.702 0 01-.432.142h-.096a.766.766 0 01-.431-.193.647.647 0 01-.175-.48v-.097c.002-.47-.136-.832-.413-1.09a3.178 3.178 0 00-.958-.626 2.908 2.908 0 00-.271-.097.81.81 0 00-.224-.033.446.446 0 00-.305.111 1.812 1.812 0 00-.289.351 9.529 9.529 0 00-1.062 2.141 7.72 7.72 0 00-.423 2.35l-.024 2.625c-.003.928.005 1.76.025 2.496.019.736.054 1.445.105 2.128.051.672.135 1.334.25 1.985a47.315 47.315 0 00.426 2.145.92.92 0 00.047.16c.18.46.446.69.798.691.128 0 .283-.031.464-.095a5.57 5.57 0 00.914-.445c.278-.17.524-.377.738-.621.214-.235.385-.511.514-.83.13-.32.205-.683.227-1.088l.018-.544a8.543 8.543 0 00-.045-.912c-.02-.299-.052-.603-.093-.913l-.031-.32a3.349 3.349 0 01-.015-.336v-.144a.81.81 0 01.016-.144.795.795 0 01.242-.479.632.632 0 01.464-.19h.032c.171 0 .32.06.448.177a.725.725 0 01.238.465l.156 1.44c.052.47.077.945.076 1.425a9.32 9.32 0 01-.067 1.087 3.867 3.867 0 01-.42 1.407 4.202 4.202 0 01-.9 1.15c-.47.424-.978.77-1.523 1.034a4.088 4.088 0 01-1.825.395h-.048zm10.973.114a7.2 7.2 0 01-.672-.034 4.788 4.788 0 01-.656-.083c-.245-.053-.42-.145-.527-.273-.096-.118-.154-.31-.174-.577a148.707 148.707 0 01-.23-3.728 85.71 85.71 0 01-.068-3.729l.02-1.232c.024-1.098.038-2.191.041-3.28.014-1.098.05-2.207.106-3.327.023-.363.045-.715.068-1.056.033-.352.071-.672.115-.96v-.064c0-.138-.032-.24-.095-.304-.053-.064-.155-.107-.304-.129a7.123 7.123 0 00-.816-.05l-.304-.001c-.096 0-.192.005-.288.015a2.597 2.597 0 00-.288-.017 1.09 1.09 0 01-.272-.033.72.72 0 01-.383-.241.636.636 0 01-.143-.417v-.048c.001-.288.151-.506.45-.654.14-.053.283-.08.433-.079l.192.017 3.247.042 3.264.01 1.088.003c.192 0 .406.028.64.082.181.054.32.145.415.274.107.117.16.256.16.416l-.017.112a.684.684 0 01-.225.431.82.82 0 01-.497.175l-1.408-.005c-.128 0-.23.005-.304.015-.064 0-.112.016-.144.048a.371.371 0 00-.08.16 3.86 3.86 0 00-.034.288 33.52 33.52 0 00-.232 2.927c-.025.97-.038 1.941-.041 2.912l-.008 2.624-.035 1.136-.004 1.12a71.14 71.14 0 00.012 1.504c.009.49.034.987.075 1.488.041.523.061 1.04.06 1.552-.002.523.04 1.046.123 1.569.01.032.016.064.016.096v.112l-.018.304a.962.962 0 01-.225.527c-.107.128-.273.207-.497.238a9.415 9.415 0 01-1.536.124zm14.2-1.588c.107 0 .204-.16.29-.48a5.7 5.7 0 00.081-.415 45.071 45.071 0 00.444-4.03c.09-1.217.146-2.46.171-3.728v-.112a44.351 44.351 0 00-.148-3.84 61.153 61.153 0 00-.42-3.698 3.028 3.028 0 00-.032-.144.735.735 0 00-.016-.144c-.084-.289-.19-.433-.319-.433-.053 0-.106.031-.16.095a.702.702 0 00-.145.256c-.075.245-.134.5-.178.767-.043.267-.081.539-.114.816-.1.906-.171 1.818-.216 2.735-.046.907-.08 1.83-.105 2.768-.011.213-.017.427-.018.64l-.002.64c-.003 1.226.03 2.405.102 3.536a70.854 70.854 0 00.388 3.89c.031.17.074.33.127.48.095.267.185.4.27.4zm-4.448-10.446a51.88 51.88 0 01.15-2.272c.078-.917.198-1.834.36-2.75.174-.95.48-1.775.92-2.478.097-.16.198-.287.305-.383a.71.71 0 01.385-.175c.213-.02.421-.041.624-.062.203-.02.41-.03.624-.03.246 0 .485.023.72.066.245.033.485.098.72.195a1.5 1.5 0 01.718.594c.18.278.318.62.413 1.025.21.94.394 1.884.551 2.834.168.939.282 1.905.343 2.897l.061.96c.02.31.03.619.03.928l-.001.352a55.311 55.311 0 01-.285 4.08 31.805 31.805 0 01-.667 3.885c-.044.182-.087.352-.13.512-.043.17-.097.336-.161.495-.258.746-.686 1.177-1.284 1.292a3.562 3.562 0 01-.576.079 9.54 9.54 0 01-.56.014l-1.008-.02a.722.722 0 01-.48-.177 2.249 2.249 0 01-.367-.4 3.356 3.356 0 01-.477-.882 9.266 9.266 0 01-.269-1.01 38.956 38.956 0 01-.549-3.665 34.788 34.788 0 01-.154-2.16c-.064.01-.128.015-.192.015h-.192a2.863 2.863 0 01-.511-.05l-.004 1.136c-.002.907.005 1.819.024 2.736-.002.512.008 1.008.027 1.488.02.49.03.987.028 1.488 0 .245-.007.443-.018.592-.01.16-.033.288-.065.384a.435.435 0 01-.16.223.901.901 0 01-.305.16 1.648 1.648 0 01-.384.078 4.65 4.65 0 01-.384.015l-.608-.018a.468.468 0 01-.368-.225c-.074-.128-.116-.347-.126-.656a96.456 96.456 0 01-.042-1.84l-.055-3.12c-.007-1.035-.01-2.075-.006-3.12l.02-6.849c.013-.544.02-1.088.021-1.632.002-.544.025-1.087.069-1.631.011-.182.028-.331.05-.448a1.36 1.36 0 01.08-.288.384.384 0 01.16-.16c.075-.042.16-.079.257-.11.16-.032.315-.058.464-.08.15-.02.299-.03.448-.03.17.011.315.022.432.034.117 0 .213.027.288.08.075.054.127.145.16.273.041.117.062.288.062.512a14.59 14.59 0 01-.019.72c-.01.213-.022.432-.034.656 0 .213-.006.437-.017.672l-.003.752c.009.64.013 1.21.011 1.712-.001.501.002.992.012 1.472l-.004 1.392c.256-.053.528-.078.816-.078h.112zm9.94 12.063c-.438-.002-.688-.248-.75-.739a9.31 9.31 0 01-.047-.576l-.03-.576a190.826 190.826 0 00-.118-3.488 96.834 96.834 0 01-.085-3.52c0-.342-.009-.683-.03-1.025a15.91 15.91 0 01-.028-1.024l.056-8.016c.023-.714.366-1.103 1.028-1.165.352-.041.698-.072 1.04-.092.352-.031.704-.046 1.056-.045h.288c.096.001.197.007.304.018.341.022.58.098.72.226.137.129.233.358.285.689.242 1.26.563 2.604.964 4.035.401 1.42.829 2.867 1.283 4.34l.111.256c.075-.053.118-.095.129-.127a.573.573 0 00.048-.144 86.77 86.77 0 011.133-4.429l1.197-4.092c.13-.501.391-.75.786-.75h.096c.213.033.389.14.527.322.138.171.212.39.222.657l-.011 3.712-.02 1.008c-.002.79.007 1.573.026 2.352.03.768.064 1.547.105 2.336.05.864.09 1.771.12 2.72.029.95.058 1.857.087 2.721.02.33.036.656.045.976l.061.992.062.72c.02.246.063.491.126.737l.031.208a.687.687 0 01-.193.48.784.784 0 01-.449.286.758.758 0 01-.176.015.637.637 0 01-.415-.16.86.86 0 01-.287-.418 2.154 2.154 0 01-.095-.352l-.031-.336a519.807 519.807 0 01-.301-6.257 439.704 439.704 0 01-.19-6.273 3.028 3.028 0 00-.031-.144 1.14 1.14 0 00-.048-.144c-.14.298-.247.602-.322.911a194.918 194.918 0 00-.729 3.006 331.84 331.84 0 00-.455 2.079c-.032.117-.064.24-.097.367a2.11 2.11 0 01-.129.368.724.724 0 01-.641.398c-.245 0-.448-.114-.607-.338a.955.955 0 01-.143-.272l-.095-.32c-.296-.951-.603-1.89-.92-2.82a42.335 42.335 0 01-.855-2.866 1.141 1.141 0 01-.048-.145c0-.053-.026-.096-.08-.128h-.031c-.032 0-.048.021-.049.064l-.035 1.184-.004 1.168a24.72 24.72 0 00.059 1.792c.04.587.06 1.184.059 1.792-.006 1.867.037 3.718.127 5.553.01.181.015.368.014.56.01.192.026.384.047.576l.015.176c0 .277-.076.485-.226.623-.139.139-.358.228-.657.27a9.904 9.904 0 01-1.376.06c-.459-.001-.917.008-1.376.028h-.048zM104.2 20.994c-.139 0-.224.064-.257.191-.032.118-.049.341-.05.672a179.8 179.8 0 00-.023 2.272l-.005 1.856c-.012.555-.025 1.179-.038 1.872l-.038 2.16-.018.688c-.001.203.057.304.175.304l.08-.015.16-.064a.841.841 0 00.176-.047c.267-.16.497-.377.69-.654.193-.266.338-.623.435-1.07.249-1.13.391-2.298.427-3.503l.001-.24a2.92 2.92 0 00.017-.305v-.16a.79.79 0 00-.016-.16c-.01-.149-.025-.362-.046-.64a8.692 8.692 0 00-.077-.896c-.041-.544-.152-1.003-.332-1.377a1.47 1.47 0 00-.829-.77l-.064-.033a.07.07 0 00-.048-.016 2.66 2.66 0 00-.192-.049.688.688 0 00-.128-.016zm-4.566-8.718h.096l.928.035c.309.001.619.013.928.035l.224.033c.074 0 .149.01.224.032.383.108.574.37.573.786l-.068 1.44c-.011.17-.017.341-.018.512l-.001.512-.004 1.152c.01.384.014.763.013 1.136l-.004 1.264c0 .16.021.256.063.288.054.032.176.049.368.05.533.012 1.002.114 1.407.308.405.182.746.423 1.022.723.287.3.515.641.685 1.026.17.374.286.758.349 1.153.041.31.083.614.125.912.042.3.067.555.078.769.02.277.03.501.029.672l-.001.368v.144a16.48 16.48 0 01-.652 3.934c-.269.895-.687 1.576-1.254 2.044-.556.468-1.245.753-2.067.858l-.576.03-1.152-.004-1.072.013-.544-.018c-.405-.033-.682-.14-.83-.322-.15-.172-.229-.481-.238-.93v-.255c.024-.587.042-1.173.054-1.76.002-.587.014-1.173.037-1.76.013-.533.02-1.061.021-1.584.013-.533.02-1.072.021-1.616l.007-2.288.006-2.096.007-2.208.038-2.192c.013-.736.037-1.445.07-2.127.013-.598.28-.944.804-1.038a.82.82 0 01.16-.016.737.737 0 01.144-.015zm8.355 20.234a.338.338 0 01-.176-.049 2.275 2.275 0 01-.143-.08c-.192-.118-.292-.401-.302-.849-.038-1.579-.07-3.142-.098-4.688a236.793 236.793 0 01-.034-4.704l.006-1.776.037-1.872c.024-.832.037-1.654.04-2.464.002-.81.01-1.632.023-2.464.002-.48.04-.81.115-.992.086-.18.236-.271.449-.27l.96.082c.16.033.266.119.319.258.064.138.095.379.094.72l-.002.432-.004 1.328c.01.437.014.874.013 1.312-.001.117-.007.31-.018.576a30.94 30.94 0 01-.019.928c-.001.352-.007.725-.019 1.12a41.62 41.62 0 00-.02 1.152 28.68 28.68 0 01-.019 1.024l-.002.736-.004 1.296.028 1.28-.007 2.256c-.001.565.008 1.125.027 1.68.031.555.056 1.12.075 1.696.01.288.015.576.014.864l-.002.48c-.023.576-.168.885-.434.927a6.384 6.384 0 01-.897.06z" fill="#fff"/></svg>