<svg width="112" height="38" fill="none" xmlns="http://www.w3.org/2000/svg"><path d="M5.46 23.805l-3.177-3.407L1.004 7.203c1.68-1.809 7.432-5.445 17-5.522 11.96-.097 26.264-.178 39.976.476 13.713.654-11.788.695-6.962.877 4.827.182 40.519.78 46.791 3.071 5.018 1.833 9.556 5.154 11.197 6.585-.518.255-1.262 1.076-.088 2.325 1.174 1.25 1.747 3.125 1.887 3.906-.695.43-2.089 1.4-2.105 1.838-.021.547-4.599.511-2.339 1.281a3.1 3.1 0 012.177 2.958c-1.804.617-6.226 1.847-9.482 1.834-3.256-.014-6.12.362-7.144.552l-.042 1.094c1.517.24 4.245.763 3.017.935-1.534.216-3.032-.525-4.318-.162-1.286.362-3.095 1.115-1.582 1.447.46.27.913.412 1.321.476a33.22 33.22 0 011.463-.098c-.265.103-.806.202-1.463.098-.86.08-1.602.197-1.352.344.398.234 2.012.624 2.769.79l1.239.867-4.065-.153c-2.235-.084 2.19.754 2.683 1.183-.596.069-2.142.139-3.556-.134-1.768-.34-1.022.099-4.075.12-2.443.018-31.464-.653-35.612-.855.346-.17.58-.526-1.25-.595-1.643-.062 8.102-.029 12.665.057-1.374-.267-2.974-.839-9.01-1.066-6.909-.26-11.213-.754-12.483-.802-3.997.306-13.464.835-19.353.503-7.362-.415-13.66-2.021-13.655-2.158.004-.11-1.322-.917-1.986-1.308.669.254 2.012.624 2.032.077.021-.547-1.273-2.194-1.923-2.948l2.085-1.291zm4.53 7.977c-.812-.031-.867.515-.793.791l-1.656.075c-.822.425-2.312 1.255-1.698 1.168.614-.086 1.794-.343 2.307-.46.346-.17 2.663-.448 9.166-.203 8.129.307 7.377.005 8.14.034.761.028-14.45-1.367-15.465-1.405z" fill="#FDA3C4"/><path d="M22.17 25.327c-.305 0-.492-.162-.563-.482a.835.835 0 01-.035-.24l-.237-5.173c.002-.472.007-.928.016-1.367l.002-.565c.008-.192.013-.375.013-.552.01-.183.014-.351.014-.503l.001-.396.001-.312c-.013-.825-.019-1.645-.017-2.46l.008-2.388c0-.216.04-.376.121-.48.088-.112.237-.18.445-.203a11.983 11.983 0 011.032-.045 13.59 13.59 0 011.128.052c.208.017.36.081.455.193.096.105.155.26.179.469.008.064.011.136.011.216v.204l-.01 2.856c-.002.96 0 1.928.004 2.904v.3a.41.41 0 00.132-.18 158.543 158.543 0 011.126-3.177 90.516 90.516 0 011.209-3.151c.032-.064.06-.128.084-.192a.95.95 0 01.097-.204.54.54 0 01.469-.238h.072c.032 0 .064.008.096.024.231.089.347.265.346.53a.757.757 0 01-.037.239 4.23 4.23 0 01-.084.228c-.452 1.118-.879 2.23-1.282 3.332a155.568 155.568 0 00-1.114 3.188c-.089.256-.181.508-.278.755-.089.24-.186.48-.29.72a.747.747 0 00-.061.252c0 .08.031.176.095.288.446.801.867 1.53 1.265 2.188.407.665.837 1.29 1.29 1.876.104.136.232.256.384.36.04.025.076.05.108.073l.12.097c.135.12.203.264.202.432a.497.497 0 01-.097.3.5.5 0 01-.445.239.652.652 0 01-.24-.061 2.047 2.047 0 01-.514-.338 3.921 3.921 0 01-.431-.457 32.413 32.413 0 01-.896-1.275c-.295-.44-.593-.962-.896-1.563a1.358 1.358 0 00-.143-.228 35.56 35.56 0 00-.203-.289 4.368 4.368 0 00-.013.312v.288c-.001.208.002.404.01.588l.046.564c.023.272.042.544.057.817.015.272.023.544.022.816v.192c-.017.216-.074.371-.17.467-.088.104-.237.16-.445.167a8.572 8.572 0 01-.456.01l-.456-.001-1.248-.016zm12.547-1.125c.176 0 .333-.12.47-.359.056-.104.1-.207.132-.311.04-.096.08-.2.121-.312a17.1 17.1 0 00.644-2.71c.147-.912.238-1.843.273-2.795v-.084c.003-1-.086-1.96-.267-2.88a21.763 21.763 0 00-.712-2.775 1.457 1.457 0 00-.048-.108 1.438 1.438 0 01-.047-.108c-.136-.217-.315-.325-.54-.326a.617.617 0 00-.276.071.578.578 0 00-.228.191 2.251 2.251 0 00-.314.575c-.072.2-.137.404-.194.612-.17.68-.288 1.363-.354 2.05-.066.68-.12 1.372-.162 2.076a4.82 4.82 0 00-.026.48l-.001.48c-.003.92.059 1.804.184 2.653.126.848.307 1.693.544 2.533.04.136.084.265.131.385.048.128.116.248.203.36.152.2.307.301.467.302zm-2.127 1.157a.925.925 0 01-.492-.133 2.255 2.255 0 01-.395-.302 2.41 2.41 0 01-.49-.661 5.672 5.672 0 01-.286-.757 20.924 20.924 0 01-.591-2.738 20.694 20.694 0 01-.144-4.032c.042-.712.104-1.412.186-2.1a16.85 16.85 0 01.378-2.074c.186-.712.508-1.33.966-1.857.096-.12.2-.216.313-.287a.911.911 0 01.408-.131l.648-.046c.216-.016.436-.023.66-.022.256 0 .508.017.756.05.248.025.496.074.744.146.311.09.563.238.754.447.192.208.335.465.43.77.222.704.416 1.412.582 2.125.173.704.295 1.429.365 2.173.023.24.043.48.058.72.023.232.035.464.034.696v.264a26.998 26.998 0 01-.298 3.06 17.722 17.722 0 01-.693 2.913 4.281 4.281 0 01-.302.755c-.266.56-.715.882-1.347.968-.2.032-.4.051-.6.058a12.62 12.62 0 01-.588.01l-1.056-.015zm10.373.032l-.528-.025-.528-.002-.6.01a1.63 1.63 0 01-.671-.134c-.2-.08-.376-.193-.527-.337a2 2 0 01-.359-.494 2.466 2.466 0 01-.214-.588 17.27 17.27 0 01-.225-1.08 70.46 70.46 0 00-.176-1.093 14.483 14.483 0 01-.13-1.009 42.146 42.146 0 01-.056-1.056l-.02-1.116c0-.384-.003-.788-.01-1.212l.017-1.332.002-.648c0-.216.009-.428.026-.636a6.1 6.1 0 01.425-1.919 9.782 9.782 0 01.918-1.737c.345-.51.818-.765 1.418-.764l1.116.004.6.014a2.91 2.91 0 011.977.846c.184.176.335.373.455.59.119.208.198.44.238.696l.011.168c0 .136-.017.252-.05.348a.648.648 0 01-.204.335.526.526 0 01-.324.107h-.072a.574.574 0 01-.324-.145.487.487 0 01-.13-.36v-.072c0-.352-.103-.625-.31-.817a2.384 2.384 0 00-.923-.543.609.609 0 00-.167-.025.335.335 0 00-.229.084 1.363 1.363 0 00-.217.263 7.149 7.149 0 00-.796 1.606c-.194.55-.3 1.139-.318 1.763l-.018 1.968c-.002.695.005 1.32.019 1.872.014.552.04 1.084.079 1.596.038.504.101 1 .188 1.488a35.61 35.61 0 00.319 1.61c.008.04.02.08.035.12.135.344.335.517.599.517.096 0 .212-.023.348-.07a4.18 4.18 0 00.685-.334 2.38 2.38 0 00.553-.467c.161-.175.29-.383.386-.622a2.52 2.52 0 00.17-.816l.014-.408c0-.232-.01-.46-.034-.684a10.448 10.448 0 00-.07-.684l-.023-.24a2.511 2.511 0 01-.011-.252v-.108c0-.032.004-.068.012-.108a.597.597 0 01.181-.36.474.474 0 01.349-.143h.024c.128 0 .24.045.335.133.096.08.156.197.18.349l.116 1.08c.039.352.058.709.057 1.069a6.942 6.942 0 01-.05.815 2.893 2.893 0 01-.316 1.055 3.15 3.15 0 01-.674.862 4.888 4.888 0 01-1.143.777 3.065 3.065 0 01-1.369.296h-.036zm8.23.086c-.168 0-.336-.01-.504-.026a3.59 3.59 0 01-.492-.061c-.183-.04-.315-.11-.395-.206-.072-.088-.115-.232-.13-.432-.07-.936-.127-1.868-.172-2.796a64.166 64.166 0 01-.052-2.797l.015-.924c.018-.823.029-1.643.031-2.46.01-.823.037-1.655.08-2.495l.05-.792c.025-.264.054-.504.086-.72v-.048c0-.104-.023-.18-.07-.228-.04-.048-.117-.08-.229-.097a5.319 5.319 0 00-.611-.038h-.228c-.072 0-.145.003-.217.011a1.978 1.978 0 00-.215-.013.838.838 0 01-.204-.024.54.54 0 01-.288-.181.477.477 0 01-.107-.313v-.035c0-.216.113-.38.338-.492a.895.895 0 01.324-.059l.144.013 2.436.032 2.448.007.816.003c.144 0 .304.02.48.061a.58.58 0 01.31.205c.08.088.12.192.12.312l-.012.084a.513.513 0 01-.17.324.614.614 0 01-.372.13l-1.056-.003a1.7 1.7 0 00-.228.012c-.048 0-.084.012-.108.035a.28.28 0 00-.06.12 2.78 2.78 0 00-.025.216c-.09.728-.148 1.46-.174 2.196a99.395 99.395 0 00-.03 2.184l-.007 1.968-.026.852-.003.84c-.001.375.002.752.009 1.128.007.367.026.74.056 1.116.031.392.046.78.045 1.164-.001.392.03.784.092 1.176a.229.229 0 01.012.072v.084l-.013.228a.722.722 0 01-.169.396c-.08.095-.204.155-.373.178a7.08 7.08 0 01-1.152.093zm10.65-1.191c.08 0 .153-.12.218-.36a13.127 13.127 0 00.11-.623c.13-.896.225-1.8.284-2.711.067-.912.11-1.844.128-2.796v-.084c.004-1-.034-1.96-.11-2.88a45.865 45.865 0 00-.317-2.773 2.407 2.407 0 00-.023-.108.561.561 0 00-.012-.108c-.063-.217-.143-.325-.239-.325-.04 0-.08.024-.12.071a.529.529 0 00-.109.192 4.326 4.326 0 00-.133.576 12.7 12.7 0 00-.086.612 34.84 34.84 0 00-.162 2.051 85.12 85.12 0 00-.079 2.076c-.008.16-.013.32-.013.48l-.002.48c-.002.92.023 1.804.077 2.652a53.067 53.067 0 00.29 2.917c.024.128.056.248.096.36.071.2.139.3.203.3zm-3.336-7.835c.026-.575.064-1.143.113-1.703.058-.688.149-1.376.27-2.063.13-.712.36-1.331.69-1.858a1.25 1.25 0 01.229-.288.533.533 0 01.288-.13l.468-.047c.153-.016.309-.023.469-.023.184 0 .364.017.54.05.183.025.363.073.539.146.224.088.403.237.539.445.135.209.238.465.31.77.157.704.295 1.412.413 2.124.126.705.212 1.43.258 2.173l.045.72c.016.233.023.465.022.697v.264a41.46 41.46 0 01-.214 3.059 23.84 23.84 0 01-.5 2.914c-.033.136-.065.264-.098.384a2.867 2.867 0 01-.12.372c-.194.56-.515.882-.964.969a2.682 2.682 0 01-.432.058 7.263 7.263 0 01-.42.011l-.756-.014a.541.541 0 01-.36-.133 1.687 1.687 0 01-.275-.301c-.151-.2-.27-.421-.358-.661a6.939 6.939 0 01-.201-.757 29.234 29.234 0 01-.412-2.75 26.093 26.093 0 01-.115-1.62.874.874 0 01-.144.012h-.144a2.08 2.08 0 01-.384-.038l-.003.852c-.002.68.004 1.364.018 2.052-.001.384.006.756.02 1.116.016.369.023.74.021 1.116 0 .184-.005.332-.013.444-.008.12-.024.216-.049.288a.326.326 0 01-.12.168.678.678 0 01-.229.12 1.231 1.231 0 01-.288.058 3.465 3.465 0 01-.288.011l-.456-.013a.349.349 0 01-.275-.169c-.056-.096-.087-.26-.095-.492a73.44 73.44 0 01-.032-1.38l-.04-2.34a224.86 224.86 0 01-.006-2.34l.016-5.136c.009-.408.014-.816.015-1.224.002-.408.019-.816.052-1.224.009-.136.02-.248.037-.336.016-.088.037-.16.06-.216a.288.288 0 01.121-.12c.056-.031.12-.06.192-.083.12-.024.236-.043.349-.059.112-.016.224-.023.336-.023.128.009.236.017.324.025.088 0 .16.02.215.06a.35.35 0 01.12.205c.032.088.047.216.047.384 0 .192-.005.372-.014.54l-.026.492c0 .16-.004.328-.013.504l-.002.564c.007.48.01.908.009 1.284-.002.376.001.744.008 1.104l-.003 1.044a3 3 0 01.612-.058h.084zm7.455 9.048c-.328-.002-.516-.186-.563-.554a7.856 7.856 0 01-.034-.432l-.023-.432c-.021-.872-.05-1.744-.088-2.617-.038-.88-.059-1.76-.064-2.64 0-.256-.007-.512-.022-.768a12.235 12.235 0 01-.022-.768l.042-6.012c.018-.536.275-.827.771-.873.264-.032.524-.055.78-.07a9.12 9.12 0 01.792-.034l.216.001c.072 0 .148.005.228.013.256.016.436.073.54.17.103.096.175.268.214.516.181.945.422 1.953.723 3.026.301 1.065.622 2.15.962 3.255l.084.193c.056-.04.088-.072.096-.096a.433.433 0 00.037-.108 63.85 63.85 0 01.85-3.321l.897-3.07c.097-.375.293-.563.59-.562h.071c.16.025.292.105.396.242a.808.808 0 01.166.492l-.008 2.784-.014.756c-.002.592.004 1.18.018 1.764.023.576.049 1.16.079 1.752.038.648.068 1.329.09 2.04.022.713.044 1.393.066 2.04.015.249.026.493.034.733l.045.744.047.54c.015.184.047.368.094.553l.023.156a.515.515 0 01-.145.36.588.588 0 01-.336.214.573.573 0 01-.132.012.478.478 0 01-.312-.121.646.646 0 01-.215-.313 1.608 1.608 0 01-.071-.264c-.008-.08-.016-.164-.023-.252-.084-1.536-.16-3.1-.226-4.693a330.52 330.52 0 01-.142-4.704 2.347 2.347 0 00-.024-.108.86.86 0 00-.035-.108 3.659 3.659 0 00-.243.683l-.17.683c-.13.528-.255 1.051-.376 1.571-.114.512-.227 1.031-.341 1.559a13.1 13.1 0 00-.073.276 1.598 1.598 0 01-.097.276.543.543 0 01-.48.298.541.541 0 01-.456-.253.718.718 0 01-.107-.205l-.072-.24a81.33 81.33 0 00-.69-2.114 31.79 31.79 0 01-.64-2.15.851.851 0 01-.036-.108c0-.04-.02-.072-.06-.096h-.024c-.024 0-.036.015-.036.047l-.027.888-.002.876a18.6 18.6 0 00.043 1.345c.031.44.046.888.044 1.344-.004 1.4.028 2.788.096 4.164.007.136.011.276.01.42.008.144.02.288.035.432l.012.132c0 .208-.057.364-.17.468-.104.103-.268.17-.492.202a7.443 7.443 0 01-1.032.045c-.344-.001-.688.006-1.032.02h-.036zm12.994-8.612c-.104 0-.168.047-.192.143-.025.088-.037.256-.038.504-.01.584-.015 1.152-.017 1.704l-.004 1.392a2050.652 2050.652 0 00-.057 3.024l-.014.516c0 .152.043.228.132.228l.06-.012.12-.047a.631.631 0 00.132-.036c.2-.12.373-.283.517-.49.145-.2.254-.467.327-.803a14.13 14.13 0 00.32-2.627v-.18a2.06 2.06 0 00.013-.228v-.12c0-.04-.004-.08-.011-.12a84.63 84.63 0 00-.035-.48 6.767 6.767 0 00-.058-.673c-.03-.408-.114-.752-.249-1.032a1.102 1.102 0 00-.622-.578l-.048-.024c-.008-.008-.02-.012-.036-.012a1.85 1.85 0 00-.144-.037.52.52 0 00-.096-.012zm-3.424-6.539h.072l.696.026c.232.001.464.01.696.027l.167.024a.61.61 0 01.168.025c.288.08.431.277.43.589l-.05 1.08a6.15 6.15 0 00-.014.384v.384l-.004.864c.008.288.01.572.01.852l-.003.948c0 .12.016.192.047.216.04.024.132.036.276.037.4.01.752.086 1.056.231.303.137.559.318.766.543.215.224.387.48.514.77.127.28.214.568.261.864l.094.684c.031.224.05.416.058.576.016.208.023.376.023.504l-.001.276v.108c-.043 1-.206 1.984-.49 2.95-.201.672-.515 1.183-.94 1.534-.417.35-.934.565-1.55.643l-.432.023-.864-.003-.804.01-.408-.014c-.304-.024-.511-.105-.623-.241-.112-.129-.171-.361-.178-.697v-.192c.018-.44.031-.88.04-1.32.002-.44.011-.88.028-1.32.01-.4.015-.796.016-1.188.01-.4.014-.804.016-1.212l.005-1.716.005-1.572.005-1.656.028-1.644c.01-.552.028-1.083.053-1.595.01-.448.21-.708.603-.779a.602.602 0 01.12-.011.556.556 0 01.108-.012zm6.266 15.176a.252.252 0 01-.132-.037 1.626 1.626 0 01-.108-.06c-.143-.089-.219-.3-.226-.637a550.12 550.12 0 01-.073-3.516c-.02-1.168-.029-2.344-.025-3.528 0-.44.002-.884.004-1.332l.028-1.404c.018-.624.027-1.24.03-1.848a128.6 128.6 0 01.017-1.848c0-.36.03-.608.086-.744.064-.136.177-.203.337-.203l.72.063a.3.3 0 01.239.192c.048.104.071.284.07.54v.324l-.004.996c.007.329.01.657.01.985 0 .088-.005.231-.014.431 0 .2-.005.433-.014.696 0 .264-.006.544-.015.84-.008.296-.013.584-.014.864-.001.28-.006.536-.014.768l-.002.552-.003.972.021.96-.005 1.692c-.001.424.005.844.02 1.26.023.417.042.84.056 1.273.008.216.011.432.01.648v.36c-.018.432-.127.663-.327.695a4.726 4.726 0 01-.672.046z" fill="#fff"/></svg>