<svg width="96" height="38" fill="none" xmlns="http://www.w3.org/2000/svg"><path d="M5.695 24.132L2.56 20.735 1.358 7.53c1.676-1.818 7.403-5.484 16.898-5.604 11.868-.151 16.037-.955 29.64-.362 13.604.593 6.982.52 11.77.68 4.79.16 16.101.419 22.314 2.684 4.97 1.812 9.456 5.117 11.078 6.543-.516.257-1.258 1.082-.1 2.328 1.158 1.245 1.717 3.12 1.852 3.902-.691.434-2.08 1.411-2.098 1.85-.023.547-4.566.532-2.327 1.293a3.068 3.068 0 012.145 2.951c-1.793.626-6.188 1.878-9.418 1.879-3.231.001-6.075.39-7.093.585l-.046 1.096c1.504.233 4.208.744 2.989.923-1.524.223-3.007-.513-4.285-.144-1.277.369-3.077 1.131-1.576 1.456.453.268.903.409 1.308.471a32.852 32.852 0 011.452-.104c-.263.103-.801.205-1.452.104-.854.083-1.591.204-1.344.35.394.233 1.993.616 2.743.778l1.225.864-4.032-.135c-2.218-.075-1.8.762-1.313 1.19-.592.072-2.126.148-3.528-.118-1.753-.333-1.014.103-4.044.138-2.425.029-3.148-.35-7.262-.533.344-.171 8.578-.53 6.763-.59-2.268-.076-2.52-.085-5.304.096-2.784.181-9.186-.325-17.755-.612-6.855-.23-1.09-.327-2.35-.37-3.969.325-13.365.897-19.208.591-7.303-.382-13.545-1.963-13.539-2.1.005-.11-1.307-.912-1.963-1.3.662.251 1.992.616 2.016.068.023-.548-1.253-2.19-1.893-2.944l2.074-1.301zm4.455 7.966c-.807-.027-.864.52-.791.796l-1.644.082c-.818.43-2.3 1.267-1.691 1.178.61-.09 1.781-.352 2.291-.472.344-.171 2.645-.46 9.097-.243 8.065.27 7.32-.03 8.076-.004.757.025-14.33-1.303-15.338-1.337z" fill="#FDA3C4"/><path d="M25.113 24.575c-.12 0-.24-.005-.36-.013-.112 0-.228-.005-.348-.013-.216-.017-.372-.081-.467-.194-.096-.104-.147-.272-.155-.504-.037-.84-.07-1.644-.1-2.412a76.29 76.29 0 01-.027-2.412l.03-1.692.014-.624a35.04 35.04 0 00-.03-1.596 35.943 35.943 0 01-.031-1.608l.002-.492c.017-.368.022-.736.016-1.104a8.48 8.48 0 01.051-1.104v-.072c.001-.152-.095-.233-.287-.241h-.228c-.352-.002-.704.013-1.056.045-.344.023-.692.034-1.044.033l-1.032.009c-.192 0-.292.091-.3.275a1.264 1.264 0 01-.014.18.96.96 0 00-.012.156l-.02 2.28-.003.948c-.001.312.006.628.02.948l.022.648c.008.216.01.432.01.648l-.014.528a8.773 8.773 0 00-.026.648l-.002.636-.003.84.021.78c.007.256.01.52.01.792.007.264.01.54.009.828l-.001.276c-.001.256.01.516.033.78.031.264.046.532.045.804v.096c-.009.264-.062.452-.158.564-.088.112-.265.191-.529.238-.2.032-.4.051-.6.059-.2.015-.404.023-.612.022l-.6-.013c-.256-.017-.436-.078-.54-.182-.095-.104-.15-.284-.166-.54a227.053 227.053 0 01-.11-2.953 87.167 87.167 0 01-.037-2.952l.02-5.664c0-.32.005-.636.014-.948.01-.32.035-.64.076-.96.016-.143.04-.263.073-.36a.572.572 0 01.133-.227.604.604 0 01.24-.143c.104-.032.229-.056.373-.071.264-.04.528-.063.792-.07.264-.007.532-.01.804-.01l1.2.015.468.002c.16 0 .32-.008.48-.023l.912-.046c.312-.015.62-.022.924-.021h.216c.52.01 1.032.027 1.536.052a49.34 49.34 0 011.536.077c.248.016.424.077.527.181.112.096.167.257.166.48l-.012.156c-.042.424-.071.844-.088 1.26a65.317 65.317 0 00.023 3.78l.009.756a36.6 36.6 0 01-.029 1.332c-.01.44-.015.88-.016 1.32l.02 1.14.02.876c.008.28.011.556.01.828l.021.828c.015.28.034.573.057.877l-.002.48c-.008.2-.057.347-.145.443-.088.104-.229.176-.42.215-.433.07-.87.106-1.31.105zM32.606 9.39c.216 0 .432.013.648.037.216.017.428.042.636.074.4.05.715.202.946.459.24.256.414.569.525.937.095.304.158.613.189.925.039.304.066.612.08.924l.193 3.468c.015.152.022.388.021.708l-.003.936-.002.684a3.532 3.532 0 01-.014.372 69.67 69.67 0 01-.14 2.604 67.13 67.13 0 01-.189 2.304c-.032.255-.105.435-.218.539-.112.104-.3.163-.564.178-.208.016-.42.027-.636.035a8.135 8.135 0 01-.624.022h-.228c-.072 0-.148-.005-.228-.013-.28-.025-.476-.085-.588-.182-.103-.088-.155-.252-.154-.492l.013-.192c.033-.376.066-.748.1-1.116a89.898 89.898 0 00.177-2.555l.076-1.44.001-.216c0-.128-.003-.288-.01-.48 0-.2-.003-.4-.01-.6 0-.208-.003-.404-.01-.588 0-.192-.003-.344-.01-.456-.039-.608-.072-1.213-.102-1.813-.03-.608-.064-1.224-.102-1.848a10.944 10.944 0 00-.058-.504 10.67 10.67 0 00-.059-.504 1.182 1.182 0 00-.035-.18l-.047-.192a1.136 1.136 0 00-.203-.361.495.495 0 00-.335-.205l-.084-.012a.44.44 0 00-.325.131 2.36 2.36 0 00-.229.3 4.018 4.018 0 00-.447.958 21.39 21.39 0 00-.292 1.02 15.446 15.446 0 00-.343 2.05 29.77 29.77 0 00-.127 2.064v.312c-.001.096-.01.196-.026.3-.057.464-.1.932-.125 1.404a44.53 44.53 0 00-.053 1.428c-.01.472-.015.952-.017 1.44a94.44 94.44 0 01-.017 1.488c0 .088-.004.172-.013.252 0 .087-.008.175-.024.263a.661.661 0 01-.206.36.456.456 0 01-.336.13h-.072c-.32-.04-.48-.244-.478-.612l.029-1.38c.01-.424.015-.844.016-1.26.01-.608.028-1.212.054-1.812.026-.608.072-1.216.139-1.824.041-.416.062-.828.064-1.236.01-.416.035-.836.076-1.26.066-.6.152-1.195.258-1.787.114-.592.268-1.175.462-1.75a4.09 4.09 0 01.267-.636 9.1 9.1 0 01.338-.611 1.53 1.53 0 01.542-.563c.224-.135.468-.234.733-.298.2-.047.396-.078.588-.094.2-.023.404-.035.612-.034zm7.988 5.937c-.002.384.009.764.032 1.14.022.376.041.756.056 1.14 0 .104.02.18.059.229.04.048.12.08.24.096l.288.025h.288a9.6 9.6 0 00.852-.033c.288-.031.576-.058.864-.082.112-.007.2-.019.264-.035a.327.327 0 00.144-.095.323.323 0 00.061-.168c.008-.072.017-.168.025-.288v-.264a3.34 3.34 0 00.014-.276 20.5 20.5 0 00-.055-1.572 110.9 110.9 0 00-.102-1.573 9.391 9.391 0 00-.094-.684 7.329 7.329 0 00-.13-.684 2.562 2.562 0 00-.297-.733 3.857 3.857 0 00-.454-.637.767.767 0 00-.371-.265 1.287 1.287 0 00-.432-.073c-.064 0-.128.003-.192.011a1.53 1.53 0 00-.192.012c-.184.015-.308.087-.373.215a5.35 5.35 0 00-.18.371 5.288 5.288 0 00-.392 2.003v.144a.864.864 0 01.011.144l.021.888.045.888v.156zm-3.141 2.524l-.088-2.305a211.62 211.62 0 01-.052-2.292.395.395 0 00-.012-.096v-.096c.01-.456.06-.9.149-1.331.097-.432.243-.856.436-1.271.274-.623.74-.962 1.396-1.016.296-.032.588-.05.876-.058a17.542 17.542 0 012.04.018c.272.016.516.089.731.218.216.12.411.285.587.493.262.32.485.661.668 1.022.183.352.306.737.368 1.153.11.704.191 1.4.245 2.089a22.17 22.17 0 01.036 3.504l-.05.648a16.3 16.3 0 00-.015.636c0 .256.007.508.022.756.023.24.054.488.093.744.023.328.038.644.045.948l.045.888c.015.288.038.56.07.816.03.256.077.488.14.697a.658.658 0 01.024.132c0 .16-.085.291-.253.395a.574.574 0 01-.3.095.671.671 0 01-.336-.097.688.688 0 01-.203-.228.884.884 0 01-.095-.3c-.024-.16-.051-.325-.083-.493a2.688 2.688 0 01-.046-.504 16.15 16.15 0 00-.056-1.188 22.82 22.82 0 00-.08-.96 52.367 52.367 0 00-.07-.816 8.122 8.122 0 01-.033-.756v-.108c0-.16-.075-.24-.227-.241h-.084c-.28.023-.564.05-.852.081-.28.032-.56.047-.84.046-.2 0-.4-.013-.6-.037h-.06c-.152-.001-.228.09-.23.275.008.328.01.656.01.984l-.004.984-.044 2.484c-.001.28-.058.48-.17.6-.105.119-.297.186-.577.202a15.4 15.4 0 01-1.044.033 3.93 3.93 0 01-.3-.013h-.288c-.304-.01-.52-.078-.648-.207-.127-.12-.195-.336-.201-.648a24.14 24.14 0 01-.01-.756l.003-.756.044-2.28c0-.352-.006-.7-.02-1.044a48.872 48.872 0 00-.057-1.044zm12.411 6.813c-.168 0-.336-.009-.504-.025a3.588 3.588 0 01-.492-.061c-.183-.04-.315-.11-.395-.206-.072-.088-.115-.232-.13-.432a111.52 111.52 0 01-.17-2.796 64.498 64.498 0 01-.051-2.796l.015-.924c.019-.824.03-1.644.033-2.46.01-.824.037-1.656.08-2.496l.05-.792c.026-.264.055-.504.087-.72v-.048c0-.104-.023-.18-.07-.228-.04-.048-.116-.08-.228-.097a5.343 5.343 0 00-.612-.037h-.228a1.952 1.952 0 00-.216.01 1.955 1.955 0 00-.216-.012.837.837 0 01-.204-.025.54.54 0 01-.288-.18.477.477 0 01-.106-.313V9.99c0-.216.113-.38.337-.49a.895.895 0 01.325-.06l.144.013 2.436.03 2.447.007.816.002c.144 0 .304.02.48.061.136.04.24.109.312.205.08.088.119.192.119.312l-.013.084a.514.514 0 01-.169.324.615.615 0 01-.372.13l-1.056-.002c-.096 0-.172.004-.228.011-.048 0-.084.012-.109.036a.28.28 0 00-.06.12c-.008.048-.016.12-.025.216-.09.728-.149 1.46-.175 2.195a99.406 99.406 0 00-.032 2.184l-.007 1.968-.027.852-.002.84c-.002.376.001.752.008 1.128.006.368.025.74.056 1.116.03.393.045.78.044 1.165-.002.392.03.784.092 1.176a.227.227 0 01.012.072v.084l-.014.228a.722.722 0 01-.169.395c-.08.096-.204.156-.373.18a7.125 7.125 0 01-1.152.092zm9.009-8.651c-.152 0-.248.047-.289.143-.04.088-.06.256-.061.504-.01.584-.016 1.151-.018 1.703l-.005 1.392c-.017.416-.035.884-.053 1.404-.01.528-.024 1.068-.041 1.62l-.014.516c0 .152.067.228.203.229l.096-.012.192-.047a1.62 1.62 0 00.192-.036c.313-.12.581-.282.806-.49.225-.2.394-.467.507-.802a9.714 9.714 0 00.489-2.627v-.18c.009-.072.013-.148.013-.228v-.12c0-.04-.003-.08-.01-.12a19.404 19.404 0 01-.06-.48 7.014 7.014 0 00-.08-.672 2.128 2.128 0 00-.405-1.034c-.207-.28-.527-.473-.958-.578a.456.456 0 00-.06-.024.226.226 0 00-.072-.012 3.057 3.057 0 00-.216-.037 1.112 1.112 0 00-.156-.012zM56.17 9.478h.084l.768.027c.256 0 .512.009.768.026l.18.024a.79.79 0 01.192.025c.32.08.48.277.478.589l-.052 1.08a6.234 6.234 0 00-.013.384l-.001.384-.003.864c.007.288.01.572.009.852l-.004.948c0 .12.02.192.06.216.04.024.14.036.3.037.44.009.827.086 1.163.23a2.661 2.661 0 011.411 1.313c.143.28.242.568.297.864.04.232.075.46.106.685a6.89 6.89 0 01.092 1.08v.276l-.001.108c-.052 1-.235 1.983-.55 2.95-.218.672-.564 1.183-1.038 1.534-.465.35-1.037.565-1.718.643l-.48.023-.96-.003-.888.01-.456-.013c-.336-.025-.567-.106-.695-.242-.12-.129-.183-.36-.19-.697l.001-.192c.018-.44.027-.88.029-1.32.01-.44.023-.88.04-1.32.018-.4.027-.796.028-1.188.01-.4.015-.803.017-1.212l.005-1.716.006-1.572.005-1.655.03-1.644a49.3 49.3 0 01.054-1.596c.01-.448.234-.708.674-.778a.612.612 0 01.12-.012.807.807 0 01.132-.012zm10.689 8.693l.204-.011c.096-.008.16-.032.192-.072a.366.366 0 00.049-.204l.004-1.212-.008-1.152.001-.42a7.79 7.79 0 01.014-.432l.053-1.572.054-1.583.014-.624c0-.168-.075-.253-.227-.253h-.036a1.54 1.54 0 00-.517.119 2.32 2.32 0 00-.902.658c-.12.143-.213.294-.277.454-.113.312-.21.624-.292.935a5.481 5.481 0 00-.159.972l-.05.708-.027.708v.204c.007.096.015.208.022.336l.047.384c.016.12.031.216.047.288.023.152.055.3.094.444.048.145.108.285.179.421.143.28.354.5.634.662.28.16.575.241.887.242zm2.785 6.536c-.312-.001-.624-.01-.935-.027l-.936-.05c-.232-.025-.396-.085-.492-.182-.095-.088-.143-.24-.142-.456l.096-3.624.013-.168a.213.213 0 00-.024-.096c-.008-.032-.035-.06-.084-.084a.904.904 0 00-.084.096.796.796 0 01-.084.071 4.455 4.455 0 00-.543.73c-.16.28-.322.568-.483.864l-.447.886a8.29 8.29 0 01-.422.803c-.113.184-.226.36-.338.527a2.234 2.234 0 01-.398.467.542.542 0 01-.744.034.528.528 0 01-.167-.384c0-.104.03-.208.086-.312a1.57 1.57 0 01.096-.168c.04-.048.08-.1.12-.155a2.94 2.94 0 00.157-.216 1.02 1.02 0 00.145-.216c.073-.127.165-.3.278-.515.113-.207.237-.44.374-.695l.435-.779c.153-.271.298-.523.434-.754.145-.24.282-.452.41-.635.13-.184.238-.32.326-.407a1.59 1.59 0 01-.144-.06.474.474 0 00-.096-.037c-.607-.186-1.078-.483-1.413-.892-.326-.417-.536-.925-.63-1.526-.04-.232-.075-.456-.106-.672a82.172 82.172 0 01-.058-.576l-.022-.54c.01-.56.06-1.116.15-1.668.09-.552.228-1.103.413-1.655.219-.631.556-1.118 1.013-1.46.458-.344 1.01-.554 1.659-.632a6.35 6.35 0 01.672-.059c.224-.007.452-.01.684-.01a25.764 25.764 0 011.56.052c.544.026.815.31.813.855l-.002.48c0 .216-.005.432-.014.648 0 .216-.006.432-.014.648l-.054 1.751a62.9 62.9 0 00-.03 1.752l.007 1.308c-.003.912-.018 1.836-.046 2.772-.027.936-.046 1.944-.058 3.024-.016.152-.033.3-.05.444a8.563 8.563 0 00-.013.456v.216c-.003.552-.292.827-.868.826z" fill="#fff"/></svg>