<svg width="133" height="54" fill="none" xmlns="http://www.w3.org/2000/svg"><path d="M7.02 35.977L3.789 31.79 2.214 15.063C3.838 12.686 9.46 7.797 18.947 7.26c11.86-.672 25.999-2.21 39.614-2.006l1.662.025c11.789-.21 51.867-1.125 57.483 1.226 5.02 2.1 9.597 6.117 11.259 7.863-.509.347-1.227 1.425-.034 2.96 1.193 1.536 1.805 3.895 1.962 4.883-.679.579-2.039 1.877-2.045 2.434-.008.697-4.549.861-2.29 1.737 1.808.7 2.239 2.734 2.228 3.663-1.775.867-6.132 2.635-9.362 2.767-3.229.133-6.06.742-7.072 1.03l-.016 1.394c1.51.236 4.228.776 3.014 1.052-1.517.345-3.02-.53-4.287-.01s-3.044 1.562-1.535 1.913a3.14 3.14 0 001.321.547c.502-.083 1.044-.15 1.449-.192-.26.142-.795.293-1.449.192-.851.14-1.585.323-1.333.499.401.28 2.01.7 2.764.877l1.249 1.047-4.034-.008c-2.22-.005-1.778 1.041-1.279 1.565-.59.115-2.121.274-3.53-.008-1.762-.352-1.011.172-4.039.34-2.423.134-41.139 1.003-45.257.936.339-.231.563-.696-1.253-.7-2.114-.004-2.477-.005-4.762.272l2.698.006c8.574.018-6.013.402-3.235.06l.537-.066-9.658-.02c-3.958.572-13.334 1.678-19.183 1.526-7.311-.19-13.596-1.945-13.594-2.119.002-.14-1.332-1.106-2-1.572.67.292 2.01.701 2.018.004.008-.696-1.314-2.732-1.976-3.662l2.038-1.738zm4.678 9.94c-.807-.002-.849.695-.768 1.043l-1.642.17c-.805.58-2.263 1.703-1.657 1.565.607-.138 1.772-.519 2.278-.692.339-.231 2.63-.691 9.086-.677 8.07.017 7.317-.333 8.073-.331.757.001-14.361-1.076-15.37-1.078z" fill="#FDA3C4"/><path d="M39.755 35.786c-.16.005-.32.004-.48-.002a7.228 7.228 0 01-.464-.003c-.288-.013-.499-.092-.63-.238-.133-.135-.208-.357-.228-.666a546.144 546.144 0 01-.233-3.21c-.06-1.012-.107-2.083-.138-3.214l-.031-2.256-.008-.832a46.986 46.986 0 00-.107-2.126 47.905 47.905 0 01-.108-2.141l-.018-.656c.008-.491 0-.982-.025-1.472s-.017-.981.023-1.473l-.003-.096c-.006-.203-.137-.306-.393-.31l-.304.01a15.41 15.41 0 00-1.405.104c-.458.045-.921.074-1.39.088l-1.376.055c-.255.008-.385.134-.389.38.002.085 0 .165-.01.24a1.264 1.264 0 00-.01.208l.07 3.04.035 1.263c.011.416.034.837.067 1.263l.056.863c.019.287.032.575.04.863l.004.704a11.86 11.86 0 00-.008.864l.024.848.031 1.12.061 1.038c.02.341.035.693.046 1.055.02.352.036.72.047 1.104l.01.367c.01.342.035.688.077 1.039.052.35.084.707.094 1.07l.003.127c0 .353-.063.605-.187.758-.113.153-.344.266-.694.34-.266.05-.531.085-.798.103a10.23 10.23 0 01-.814.055l-.8.007c-.342-.011-.585-.084-.727-.219-.132-.135-.213-.373-.244-.713a304.61 304.61 0 01-.27-3.93 116.233 116.233 0 01-.174-3.933l-.21-7.549a49.138 49.138 0 01-.02-1.264c-.002-.427.019-.854.06-1.282a2.31 2.31 0 01.083-.482.765.765 0 01.167-.31.804.804 0 01.314-.2c.138-.047.302-.084.494-.11.35-.064.7-.106 1.052-.127.352-.02.709-.036 1.071-.047l1.6-.03.624-.018c.213-.006.426-.022.639-.05l1.214-.099c.415-.033.825-.055 1.23-.067l.288-.008a63.75 63.75 0 012.05.005 66.14 66.14 0 012.049.037c.331.012.568.085.71.22.153.124.234.335.242.633l-.01.209a29.02 29.02 0 00-.065 1.682 87.863 87.863 0 00.189 5.037l.044 1.007c.017.597.022 1.19.017 1.776.006.587.017 1.174.034 1.76l.074 1.518.065 1.167c.02.373.036.74.047 1.103l.062 1.103c.032.372.07.76.113 1.165l.018.64c-.003.267-.062.466-.175.597-.114.142-.298.243-.552.304-.573.113-1.153.177-1.74.194zm9.351-20.549c.288-.008.576 0 .865.024.289.013.572.036.85.071.535.049.962.24 1.281.572.33.332.576.74.739 1.227.139.401.236.81.29 1.224.065.404.113.813.146 1.228l.401 4.615c.027.202.047.516.059.942l.035 1.248.025.912a4.59 4.59 0 01-.002.496 92.951 92.951 0 01-.079 3.476 90.079 90.079 0 01-.154 3.077c-.033.343-.122.585-.268.728-.145.143-.394.23-.745.262-.276.03-.559.053-.846.072-.277.03-.554.048-.83.056l-.305.009c-.096.002-.197 0-.304-.008-.374-.02-.638-.093-.79-.217-.142-.113-.218-.33-.227-.65l.01-.256c.028-.502.056-1 .086-1.491a120.549 120.549 0 00.129-3.413c.013-.641.027-1.282.042-1.922l-.009-.288a15.84 15.84 0 00-.033-.64 20.12 20.12 0 00-.039-.799c-.008-.277-.02-.538-.038-.783a8.92 8.92 0 00-.033-.607c-.076-.81-.146-1.613-.211-2.411a214.92 214.92 0 00-.213-2.46c-.028-.222-.06-.446-.099-.668a13.86 13.86 0 00-.098-.67 1.586 1.586 0 00-.055-.239l-.071-.254a1.515 1.515 0 00-.285-.472.66.66 0 00-.456-.259l-.112-.012a.588.588 0 00-.427.188c-.104.12-.201.256-.293.409-.245.412-.43.844-.556 1.296a29.5 29.5 0 00-.346 1.37 20.57 20.57 0 00-.371 2.748c-.06.909-.088 1.828-.083 2.756l.011.416c.004.127-.003.261-.02.4-.058.62-.094 1.246-.108 1.876a54.86 54.86 0 00-.01 1.905c.006.63.019 1.27.037 1.92.018.65.031 1.312.04 1.984.003.117 0 .23-.007.336a2 2 0 01-.022.353c-.048.215-.134.377-.259.487a.607.607 0 01-.443.19l-.096.002c-.428-.041-.649-.307-.662-.797l-.02-1.84a89.614 89.614 0 00-.03-1.68 90.21 90.21 0 01-.004-2.417c.01-.812.045-1.624.108-2.436.038-.556.049-1.106.034-1.65-.005-.555.011-1.116.049-1.682.063-.802.152-1.6.269-2.393.127-.793.308-1.577.543-2.352.087-.302.197-.588.328-.858.13-.281.272-.558.425-.829a2.04 2.04 0 01.698-.772 3.44 3.44 0 01.965-.428c.264-.072.525-.122.78-.15a6.86 6.86 0 01.814-.072zM60 22.816c.015.512.045 1.018.09 1.518.047.5.088 1.006.123 1.517.004.139.034.24.089.302.055.062.163.102.323.118l.385.021.384-.01c.384-.012.762-.038 1.134-.081.383-.054.765-.102 1.148-.145.15-.015.266-.035.35-.058a.434.434 0 00.19-.134.428.428 0 00.073-.226c.008-.096.015-.224.021-.385a424.86 424.86 0 01-.01-.352c.007-.128.01-.25.006-.368a27.378 27.378 0 00-.138-2.093c-.063-.692-.13-1.389-.203-2.09a12.39 12.39 0 00-.153-.909 9.78 9.78 0 00-.202-.906 3.417 3.417 0 00-.427-.965 5.139 5.139 0 00-.631-.83 1.022 1.022 0 00-.506-.337 1.716 1.716 0 00-.578-.08c-.086.003-.17.01-.256.023-.085.003-.17.01-.255.024-.245.028-.408.129-.488.302-.08.162-.156.33-.226.503a7.051 7.051 0 00-.437 2.685l.005.192c.013.064.02.128.021.192l.066 1.182.097 1.182.005.208zm-4.08 3.494l-.213-3.067c-.06-1.012-.116-2.03-.166-3.052a.528.528 0 00-.02-.128l-.003-.128a9.74 9.74 0 01.142-1.78c.112-.58.288-1.15.529-1.712.34-.842.945-1.313 1.817-1.413.393-.054.782-.092 1.165-.114.394-.032.788-.054 1.183-.066a24.606 24.606 0 011.537.004c.363.011.69.098.983.26.293.152.56.363.802.634.364.416.675.86.934 1.333.258.463.438.97.539 1.521.175.934.313 1.859.413 2.774a29.526 29.526 0 01.195 4.668l-.04.866c-.003.277 0 .56.008.848.01.341.03.677.06 1.007.04.318.093.648.155.987.045.437.078.857.1 1.262.033.415.065.81.097 1.182.032.383.074.745.126 1.085.052.34.125.647.218.922a.883.883 0 01.037.175c.006.213-.101.392-.321.537a.766.766 0 01-.396.14.896.896 0 01-.452-.115.919.919 0 01-.28-.297 1.175 1.175 0 01-.14-.396 13.65 13.65 0 00-.13-.652 3.587 3.587 0 01-.082-.67 22.14 22.14 0 00-.124-1.581 30.543 30.543 0 00-.148-1.277 71.891 71.891 0 00-.127-1.084 10.79 10.79 0 01-.076-1.007l-.004-.144c-.006-.213-.11-.317-.313-.31l-.111.003c-.373.042-.75.09-1.133.144a9.846 9.846 0 01-1.118.096c-.266.008-.533 0-.8-.025l-.08.002c-.203.006-.301.132-.294.377.023.437.04.874.052 1.311l.037 1.311.045 3.313c.01.373-.057.642-.202.806-.134.164-.388.262-.76.294-.468.045-.932.074-1.39.087a5.198 5.198 0 01-.4-.004l-.384.011c-.406.001-.696-.081-.872-.247-.175-.155-.273-.44-.296-.856-.02-.34-.034-.677-.044-1.007l-.028-1.008-.037-3.04a29.86 29.86 0 00-.07-1.39 64.27 64.27 0 00-.12-1.39zm16.826 8.561a7.091 7.091 0 01-.673-.012 4.793 4.793 0 01-.658-.062c-.246-.046-.425-.131-.535-.256-.1-.115-.163-.305-.192-.571a145.665 145.665 0 01-.344-3.72 85.693 85.693 0 01-.184-3.724l-.019-1.232c-.01-1.099-.029-2.192-.06-3.28a85.97 85.97 0 01.004-3.329c.01-.363.022-.716.034-1.057.022-.353.05-.674.085-.963l-.002-.064c-.003-.139-.038-.24-.104-.301-.055-.063-.158-.103-.307-.12a7.112 7.112 0 00-.818-.024l-.303.009a2.33 2.33 0 00-.288.024 2.622 2.622 0 00-.288-.008 1.119 1.119 0 01-.273-.024.72.72 0 01-.39-.229.637.637 0 01-.156-.412l-.001-.048c-.008-.288.135-.51.43-.668.136-.058.28-.088.429-.093l.192.01 3.248-.06 3.262-.094 1.088-.031a2.91 2.91 0 01.642.061.772.772 0 01.423.26c.11.115.167.252.172.412l-.013.112a.686.686 0 01-.212.438.82.82 0 01-.49.19l-1.408.04c-.128.004-.23.013-.304.025-.064.002-.111.02-.142.053a.371.371 0 00-.076.162c-.009.064-.017.16-.024.289-.09.973-.137 1.951-.142 2.933.006.97.022 1.941.05 2.912l.073 2.623v1.136l.03 1.12c.015.5.034 1.002.059 1.503.024.49.065.985.121 1.485.058.521.094 1.038.108 1.55.014.522.072 1.043.172 1.563a.304.304 0 01.018.096l.003.112-.007.304c-.026.225-.096.403-.21.534-.102.131-.265.216-.488.254a9.45 9.45 0 01-1.532.172zM84.39 22.964c-.203.006-.33.074-.379.203-.05.12-.07.344-.061.674.011.779.027 1.536.047 2.272l.052 1.855c-.006.555-.01 1.18-.011 1.873.009.704.013 1.424.012 2.16l.003.689c.006.203.1.301.28.296l.128-.02.254-.07c.085-.014.17-.032.255-.056.411-.172.762-.4 1.053-.687.291-.275.505-.638.642-1.09.341-1.141.522-2.315.542-3.521l-.007-.24c.008-.097.01-.198.007-.305l-.004-.16a.811.811 0 00-.02-.16 25.517 25.517 0 01-.098-.637 9.367 9.367 0 00-.137-.892c-.09-.542-.284-.995-.583-1.36-.287-.365-.72-.609-1.3-.73a.604.604 0 00-.081-.03.3.3 0 00-.097-.014 4.065 4.065 0 00-.29-.04 1.469 1.469 0 00-.207-.01zm-3.874-8.596l.112-.003 1.024.002c.342-.01.683-.009 1.025.003l.24.025c.086-.002.172.006.257.025.43.094.65.35.662.765l-.024 1.441a7.977 7.977 0 00-.001.513l.014.511.032 1.152c.022.384.037.762.048 1.135l.035 1.264c.005.16.034.255.088.285.054.03.188.043.401.037.587-.006 1.107.08 1.56.259.453.168.838.398 1.156.687.328.29.588.623.78 1.002.202.368.346.748.432 1.14.062.308.119.61.17.908.05.297.09.552.117.765.03.276.046.5.05.67l.011.368.004.144a15.148 15.148 0 01-.61 3.955c-.263.904-.702 1.6-1.318 2.087-.605.487-1.36.797-2.263.93l-.639.05-1.28.037-1.182.05h-.608c-.45-.018-.761-.116-.937-.292-.165-.166-.259-.473-.282-.92l-.007-.257c.005-.587 0-1.173-.017-1.76a97.486 97.486 0 01-.001-1.76c.006-.534.002-1.062-.013-1.585a80.525 80.525 0 00-.029-1.616l-.064-2.287-.058-2.095-.062-2.207-.03-2.192c-.01-.736-.008-1.446.005-2.13-.006-.597.283-.952.867-1.064a.811.811 0 01.16-.021c.063-.012.122-.02.175-.021zm14.608 11.138l.271-.024c.128-.015.212-.05.253-.104a.488.488 0 00.057-.273l-.045-1.616-.06-1.535-.015-.56a10.446 10.446 0 010-.576l.005-2.097.005-2.113-.007-.832c-.006-.224-.11-.333-.313-.327l-.048.001a2.075 2.075 0 00-.683.18c-.222.092-.437.22-.646.387a3.11 3.11 0 00-.53.527 2.263 2.263 0 00-.35.619c-.138.42-.254.84-.349 1.258a7.307 7.307 0 00-.172 1.302l-.037.945-.006.945.008.271c.014.128.029.277.044.447l.079.51c.025.16.05.287.074.382.038.202.086.398.145.588.069.19.154.375.255.553.203.368.493.653.872.856.38.202.777.297 1.193.286zm3.986 8.593c-.416.012-.832.013-1.249.004l-1.25-.029c-.31-.023-.53-.096-.662-.22-.13-.114-.2-.315-.208-.603l-.023-4.833.01-.225a.284.284 0 00-.036-.127c-.012-.042-.05-.078-.115-.108a1.199 1.199 0 00-.109.13 1.053 1.053 0 01-.11.1 5.941 5.941 0 00-.692.996c-.202.38-.405.77-.607 1.17l-.559 1.2c-.17.4-.347.763-.53 1.088-.142.25-.285.489-.428.717a2.98 2.98 0 01-.51.639.723.723 0 01-.99.076.704.704 0 01-.239-.505.871.871 0 01.1-.42c.041-.086.082-.162.123-.227a3.52 3.52 0 00.154-.212 5.47 5.47 0 00.2-.294c.072-.088.133-.185.183-.294.092-.173.208-.406.349-.698.141-.281.298-.595.47-.942.172-.335.354-.688.547-1.056.192-.368.375-.71.547-1.024.183-.325.357-.613.52-.863.164-.25.303-.436.417-.556a2.136 2.136 0 01-.194-.075.627.627 0 00-.13-.044c-.817-.222-1.457-.599-1.92-1.13-.453-.542-.754-1.21-.904-2.007a38.783 38.783 0 01-.17-.891c-.04-.298-.073-.553-.1-.765l-.053-.72c-.01-.746.033-1.489.13-2.228.097-.739.257-1.48.482-2.223.264-.85.694-1.513 1.289-1.99.595-.475 1.323-.779 2.183-.91a8.25 8.25 0 01.894-.106c.298-.02.602-.033.911-.042a34.196 34.196 0 012.08.004c.727.011 1.1.38 1.12 1.104l.018.64c.008.288.011.576.008.864.008.288.011.576.008.864l.002 2.337c0 .769.011 1.547.033 2.336l.065 1.743c.034 1.216.052 2.448.055 3.696.003 1.248.019 2.593.049 4.032l-.048.594c-.005.203-.004.406.001.608l.008.288c.021.736-.353 1.115-1.12 1.137z" fill="#fff"/></svg>