<svg width="100" height="39" fill="none" xmlns="http://www.w3.org/2000/svg"><path d="M17.328 25.005l-3.176-3.494-1.33-13.476c1.663-1.837 7.37-5.52 16.89-5.55 11.9-.04-2.898-.815 10.748-.078 13.646.736 18.062 1.171 22.865 1.381 4.803.21 11.283.598 17.535 2.968 5 1.896 9.53 5.308 11.17 6.778-.516.257-1.252 1.091-.079 2.372s1.752 3.198 1.894 3.997c-.689.435-2.071 1.419-2.086 1.865-.018.558-4.573.5-2.321 1.296a3.2 3.2 0 012.179 3.03c-1.793.621-6.187 1.855-9.427 1.825-3.24-.03-6.087.34-7.105.528l-.037 1.117c1.51.252 4.227.8 3.006.97-1.526.212-3.02-.552-4.297-.188-1.278.363-3.075 1.123-1.568 1.469.458.277.91.425 1.317.493a32.305 32.305 0 011.455-.093c-.263.104-.802.202-1.455.093-.856.077-1.594.192-1.344.344.397.241 2.004.647 2.758.82l1.236.892-4.044-.177c-1.952-.085 1.987.565 3.314 1.023 1.246.076 2.072.167.786.17-.124 0-.264 0-.419-.003a.31.31 0 01.013.011c-.561.064-1.97.124-3.315-.112a885.143 885.143 0 01-11.7-.57c.344-.172.575-.534-1.245-.614-2.275-.1-2.528-.11-5.318.047-2.79.158-2.25-.862-10.844-1.238-1.059-.046-1.7-.088-2.031-.125-3.165.197-6.795.323-10.613.083-7.326-.46-13.6-2.132-13.595-2.272.003-.111-1.32-.942-1.981-1.344.666.262 2.004.647 2.022.088.018-.558-1.277-2.245-1.926-3.02l2.068-1.306zm4.542 8.165c-.81-.035-.861.521-.786.804l-1.648.068c-.816.43-2.294 1.27-1.684 1.184.61-.085 1.783-.341 2.293-.459.343-.17 2.648-.443 9.12-.16 8.089.354 3.34.041 4.098.074.758.034-10.382-1.467-11.393-1.511z" fill="#FDA3C4"/><path d="M33.323 25.504a.482.482 0 01-.252-.073.51.51 0 01-.263-.468.64.64 0 01.013-.144l.048-.144a.835.835 0 00.06-.12c.33-.767.689-1.558 1.075-2.372.394-.807.796-1.621 1.206-2.444a1.26 1.26 0 00.134-.515 3.391 3.391 0 00-.048-.3 1.864 1.864 0 00-.06-.229 63.355 63.355 0 01-.832-2.75c-.253-.914-.503-1.807-.749-2.68a8.587 8.587 0 01-.201-.984 4.87 4.87 0 00-.226-.985.686.686 0 01-.047-.24c0-.168.065-.312.193-.431.129-.12.305-.191.529-.215.192-.015.384-.022.576-.022.192.001.384-.002.576-.01.088 0 .176.005.264.013.088.009.176.013.264.013.168.009.3.021.396.038a.544.544 0 01.24.097c.063.048.115.12.155.216a3.394 3.394 0 01.25.733c.032.112.055.228.071.348.079.457.186.945.32 1.465.143.513.301 1.057.476 1.634a.452.452 0 00.156-.168c.049-.08.093-.155.133-.227.314-.655.631-1.294.953-1.917.33-.622.615-1.21.857-1.76a.73.73 0 01.168-.276.516.516 0 01.565-.13c.2.073.311.217.335.433v.072a.962.962 0 01-.062.348c-.04.104-.084.208-.132.311a151.33 151.33 0 00-.941 1.905 97.77 97.77 0 01-1.038 2.072c-.145.296-.253.524-.326.683a1.082 1.082 0 00-.109.468c0 .12.02.256.059.408.04.144.091.308.155.493.206.665.4 1.325.582 1.982.19.656.389 1.313.595 1.97.159.504.334 1.001.524 1.49.191.488.414.965.669 1.43.023.056.043.108.06.156a.558.558 0 01-.121.528.73.73 0 01-.41.226c-.16.04-.324.063-.492.07a5.314 5.314 0 01-.504.023l-1.104-.004a.943.943 0 01-.444-.146.786.786 0 01-.263-.36 34.492 34.492 0 00-.632-1.587 12.448 12.448 0 01-.56-1.61c-.039-.152-.078-.3-.118-.444a1.083 1.083 0 00-.155-.349.295.295 0 00-.157.156 3.422 3.422 0 01-.084.18 110.2 110.2 0 00-.857 1.737 63.164 63.164 0 00-.736 1.653c-.04.096-.08.188-.12.275a.922.922 0 01-.17.264.556.556 0 01-.444.214zm15.535-14.85a.181.181 0 01.072.061c.111.129.167.333.166.613l-.013.504c-.001.28.002.556.01.828l.045.828c0 .056.004.152.012.288l-.002.48c.008.2.011.46.01.78 0 .32-.006.712-.015 1.176-.001.456-.007.996-.016 1.62-.01.624-.024 1.344-.042 2.16-.01.808-.024 1.724-.043 2.748-.009.264-.03.524-.062.78a6.385 6.385 0 01-.146.779c-.04.152-.101.284-.181.395a1.433 1.433 0 01-.277.311 2.85 2.85 0 01-.71.43 1.929 1.929 0 01-.804.165h-.12l-.72-.027c-.232 0-.468-.01-.707-.026a7.354 7.354 0 01-.72-.087 3.766 3.766 0 01-.696-.194 3.413 3.413 0 01-1.246-.797c-.319-.329-.522-.77-.608-1.322-.04-.232-.071-.46-.094-.684a9.43 9.43 0 01-.023-.672c0-.136.005-.268.013-.396.009-.128.025-.26.05-.396.032-.184.052-.364.06-.54l.05-.552a.862.862 0 00.013-.144c0-.056.008-.104.024-.144a.723.723 0 01.205-.359.496.496 0 01.348-.13h.06a.503.503 0 01.336.18.52.52 0 01.143.385v.048l-.05.6a7.803 7.803 0 01-.073.588l-.05.456a7.99 7.99 0 00.01 1.044c.023.2.055.4.094.6.095.464.338.801.73 1.01.12.065.24.117.359.158.128.048.26.089.396.121.096.024.188.037.276.037a.714.714 0 00.528-.202.899.899 0 00.278-.539 8.092 8.092 0 00.098-.864c.002-.944.009-1.9.02-2.868l.003-1.296c.001-.456.006-.916.016-1.38v-.204a11.964 11.964 0 01-1.128.044 17.51 17.51 0 01-1.284-.052c-.4-.025-.72-.095-.96-.207-.231-.113-.403-.246-.514-.398a1.44 1.44 0 01-.203-.397 3.635 3.635 0 01-.071-.408l-.2-1.513a1.36 1.36 0 01-.024-.3l.002-.408v-.288c0-.088.005-.144.013-.168.033-.416.074-.792.123-1.128.057-.343.122-.68.194-1.007a.325.325 0 01.217-.227c.112-.048.3-.075.564-.082.208-.007.416-.01.624-.01.216-.007.428-.01.636-.01l.456.002c.28.017.472.046.576.086.112.04.168.113.167.217l-.012.084-.097.48a16.67 16.67 0 00-.17 1.115l-.075.623v.3c.007.088.011.176.01.264.009.088.012.172.012.252.008.08.016.144.024.192.04.265.074.529.106.793.031.264.066.528.106.792.015.08.031.156.047.228l.071.217c.008.024.02.052.036.084l.048.072a.66.66 0 00.192.169c.087.04.203.068.347.085h.168l.005-1.967.005-1.644c.001-.48-.002-.832-.01-1.057l.002-.336v-.168c0-.056.004-.112.012-.167.05-.472.298-.711.746-.718l.6-.01c.36.002.72.015 1.08.04h.096c.256.017.408.078.456.182zM54.14 24.15l.708.002a3.81 3.81 0 00.781-.633c.385-.399.639-.91.76-1.534.057-.28.094-.563.11-.851.025-.288.038-.572.039-.852l-.01-.756a57.017 57.017 0 01-.079-1.992 56.219 56.219 0 00-.055-1.992 7.218 7.218 0 00-.82-3.075 1.14 1.14 0 00-.514-.53 3.09 3.09 0 00-.672-.267.503.503 0 00-.12-.012c-.136 0-.212.091-.228.275l-.05.768-.075 1.164c-.025.384-.038.772-.04 1.164a12.712 12.712 0 00.046 1.104c-.001.376.01.748.033 1.116l.017 2.736c.005.92.03 1.824.076 2.712l.046.864c.008.192.023.389.047.589zm-3.253.084a12.23 12.23 0 01-.069-1.08l-.068-1.452a53.658 53.658 0 01-.066-2.293c-.006-.784-.008-1.548-.006-2.292a12.787 12.787 0 01-.045-1.116 10.8 10.8 0 01-.045-1.02 18.4 18.4 0 01.051-1.332c.041-.44.075-.883.1-1.331.025-.384.062-.764.11-1.14.033-.264.106-.452.218-.563.12-.112.32-.171.6-.178.409.001.813.01 1.213.028l1.224.052c.264.017.515.066.755.147.24.073.476.166.707.279.368.177.66.442.874.795.303.513.533 1.05.692 1.61.159.553.273 1.121.343 1.705.063.496.094.993.093 1.489.006.488.037.98.092 1.476l-.016 1.284.01.768.011.336c0 .336-.021.668-.062.996-.033.296-.078.591-.135.887h.012c.032.008.052.06.06.156.008.105.011.289.01.553l-.003 1.212c.328 0 .664.006 1.008.015.232.009.388.045.468.11.088.064.132.18.131.348l-.038.768c-.016.128-.056.216-.12.264-.065.047-.18.071-.349.07h-.204l-.636-.003c-.208.008-.416.011-.624.01-.056 0-.148-.004-.276-.013-.128 0-.276-.005-.444-.013-.168 0-.348-.005-.54-.014l-.54-.026c-.176 0-.34-.005-.492-.014a5768.203 5768.203 0 00-.972-.003c-.2.007-.4.018-.6.034l-1.08-.004c-.264-.001-.532.006-.804.021a25.37 25.37 0 01-.804.057 3.489 3.489 0 01-.408.023l-.228-.013c-.28-.017-.428-.134-.443-.35l-.023-.36a5.48 5.48 0 01-.011-.36.42.42 0 01.024-.132c.008-.04.02-.08.037-.12.056-.151.192-.23.408-.238.296-.015.596-.026.9-.033zm12.86 1.401c-.184-.008-.324-.06-.42-.157a.48.48 0 01-.143-.373l.025-.18a1.77 1.77 0 00.049-.407c.008-.136.02-.272.037-.408.016-.168.029-.408.038-.72.017-.312.03-.656.038-1.032.017-.368.026-.748.028-1.14.009-.4.014-.768.014-1.104.01-.344.014-.64.015-.888.008-.248.013-.408.013-.48.001-.368-.002-.756-.009-1.164-.007-.416-.01-.84-.008-1.272v-.312c0-.048-.015-.076-.047-.084a.254.254 0 00-.085.12 1.11 1.11 0 01-.036.132l-.485 1.75a71.495 71.495 0 01-.508 1.75 67.279 67.279 0 00-.655 2.314 15.212 15.212 0 01-.75 2.181c-.08.184-.156.364-.229.54a6.022 6.022 0 01-.241.515c-.129.263-.317.394-.565.394l-.18-.025c-.344-.073-.527-.306-.55-.698v-.144l.025-.144c.05-.896.108-1.808.175-2.735l.223-2.832a54.33 54.33 0 00.139-2.52 88.2 88.2 0 00.043-2.53l.002-.973a30.73 30.73 0 00-.01-.924l-.009-1.056a.543.543 0 01.145-.371.584.584 0 01.36-.167h.025c.136 0 .252.04.347.121.096.08.16.197.192.349.015.08.023.16.023.24 0 .08.004.16.011.24.016.208.023.432.023.672.007.232.01.468.01.708l-.018 2.16c-.002.92-.033 1.832-.091 2.736-.059.904-.121 1.811-.187 2.723a4.637 4.637 0 00-.039.924c.008.072.02.148.036.228.024-.064.048-.124.072-.18.024-.056.044-.116.06-.18.138-.463.27-.923.4-1.378.137-.456.27-.915.4-1.379l1.03-3.68c.347-1.223.614-2.458.801-3.705.025-.184.081-.32.17-.408.096-.087.244-.139.444-.154a20.575 20.575 0 011.368-.043c.336 0 .664.014.984.04.192.016.34.08.443.193a.6.6 0 01.167.444v.276c-.001.2.002.4.01.6.007.192.01.388.01.588v.24c-.017.36-.026.732-.027 1.116l-.003 1.164-.004 1.284c.007.416.018.84.033 1.272l.01.564v.192c0 .136-.005.324-.014.564 0 .232-.005.492-.014.78l-.026.924-.027.948c0 .304-.005.592-.014.864-.009.28-.013.516-.014.708 0 .248-.013.492-.038.732-.024.248-.045.496-.062.744 0 .144-.025.288-.073.431-.089.304-.289.455-.601.454l-1.128.02c-.368.007-.744.01-1.128.008z" fill="#fff"/></svg>