<svg width="121" height="104" fill="none" xmlns="http://www.w3.org/2000/svg"><path d="M14.324 28.59l.34-5.03 8.857-14.457c2.481-1.136 9.094-2.339 15.691 1.939 8.246 5.346 18.514 11.118 27.404 18.052 8.89 6.934 18.489 13.962 21.654 16.352 3.164 2.39 16.303 11.652 18.901 16.918 2.079 4.213 2.731 9.772 2.798 12.024-.542.032-1.656.556-1.775 2.404-.119 1.849-1.11 4.081-1.591 4.966-.792.136-2.46.521-2.794.974-.418.566-3.52-1.557-2.543.282.782 1.471-.137 3.348-.693 4.102-1.688-.174-5.618-.895-7.834-2.392-2.215-1.497-4.45-2.406-5.29-2.673l-.835 1.131c.86.944 2.339 2.736 1.372 2.358-1.208-.472-1.686-1.934-2.832-2.138-1.146-.205-2.938-.237-2.147.8.114.493.319.85.55 1.104.381.182.78.396 1.073.563-.257-.013-.7-.156-1.072-.563-.646-.309-1.24-.524-1.178-.255.1.428.915 1.572 1.31 2.09l.207 1.478-2.665-2.012c-1.466-1.107-1.793-.032-1.773.643-.458-.199-1.566-.83-2.332-1.76-.957-1.164-.77-.362-2.873-1.73-1.683-1.095-7.475-5.572-10.161-7.674.361-.02.784-.289-.415-1.194-1.5-1.132-1.666-1.258-3.707-2.359-2.041-1.1-14.658-11.07-20.321-15.346l-8.162-6.164c-2.957-1.5-9.818-5.256-13.598-8.288-4.727-3.789-7.847-8.348-7.742-8.49.083-.112-.227-1.566-.393-2.278.27.57.915 1.572 1.332 1.006.418-.566.748-2.886.86-3.976l2.377-.408zm-2.786 10.45c-.533-.403-.973.146-1.127.471l-1.187-.676c-.875.073-2.505.266-2.022.455.483.189 1.48.456 1.917.566.361-.02 2.15.743 6.414 3.963 5.33 4.025 5.04 3.365 5.539 3.743.5.377-8.868-8.019-9.534-8.522z" fill="#FDA3C4"/><path d="M38.14 45.265a.644.644 0 01-.222-.27.68.68 0 01.066-.715c.049-.07.09-.12.123-.148l.162-.122a1.17 1.17 0 00.157-.085 95.834 95.834 0 012.973-1.793 450.97 450.97 0 013.173-1.771c.243-.144.421-.299.537-.465a4.47 4.47 0 00.175-.366c.043-.1.079-.198.107-.295.366-1.24.755-2.456 1.166-3.65.412-1.195.813-2.364 1.204-3.508.152-.427.327-.838.523-1.234a6.41 6.41 0 00.498-1.252.91.91 0 01.13-.3.761.761 0 01.538-.327c.231-.034.478.02.742.165.222.128.439.265.65.411.21.146.423.288.64.425.096.067.19.138.28.214a3.9 3.9 0 00.28.213 4.9 4.9 0 01.406.341.72.72 0 01.19.288c.034.1.036.22.007.355a4.539 4.539 0 01-.28.994 3.35 3.35 0 01-.185.436c-.259.56-.51 1.178-.757 1.851-.23.67-.468 1.389-.713 2.154.1.005.2-.017.298-.066.114-.051.22-.1.318-.15.84-.481 1.672-.943 2.496-1.383.833-.435 1.59-.864 2.273-1.286a.974.974 0 01.393-.175.687.687 0 01.535.099c.07.048.131.11.183.185a.643.643 0 01.04.729l-.054.079c-.097.14-.207.252-.33.336-.123.083-.25.164-.382.241a200.4 200.4 0 00-2.473 1.38c-.876.496-1.778.993-2.707 1.491-.382.215-.674.383-.874.504a1.443 1.443 0 00-.474.43 2.165 2.165 0 00-.244.493c-.065.189-.133.408-.202.658a91.599 91.599 0 01-.86 2.617c-.287.865-.566 1.736-.836 2.614a31.235 31.235 0 00-.552 2.032 16.32 16.32 0 00-.348 2.076c-.016.08-.033.152-.052.217a.658.658 0 01-.093.189.744.744 0 01-.44.298.975.975 0 01-.62-.06 3.353 3.353 0 01-.593-.295 7.056 7.056 0 01-.57-.357l-1.21-.84a1.255 1.255 0 01-.377-.495 1.05 1.05 0 01-.016-.595c.188-.74.356-1.48.506-2.22.15-.74.35-1.47.603-2.19.072-.198.14-.39.206-.579.065-.188.096-.355.093-.5a.394.394 0 00-.29.053 4.545 4.545 0 01-.228.133c-.774.424-1.525.844-2.254 1.26-.727.43-1.413.85-2.06 1.258-.116.075-.23.146-.34.212a1.229 1.229 0 01-.385.161.741.741 0 01-.65-.1zm28.289-4.557a.242.242 0 01.033.12c.026.226-.068.492-.28.799l-.396.543c-.213.307-.418.612-.616.917-.189.31-.38.625-.576.944a7.52 7.52 0 00-.205.325l-.365.526a27.52 27.52 0 01-.579.864c-.243.35-.545.777-.906 1.28-.346.5-.76 1.088-1.243 1.766-.482.678-1.042 1.458-1.679 2.34-.622.88-1.33 1.875-2.126 2.985a11.11 11.11 0 01-.658.81 8.467 8.467 0 01-.75.745 1.603 1.603 0 01-.497.297 1.906 1.906 0 01-.54.132 3.8 3.8 0 01-1.103-.065 2.572 2.572 0 01-1.008-.427l-.132-.09-.77-.574a14.25 14.25 0 01-.758-.565c-.25-.2-.492-.413-.724-.64a5.02 5.02 0 01-.617-.739c-.406-.593-.662-1.199-.766-1.817-.101-.602.01-1.24.332-1.912.132-.284.27-.559.414-.822.152-.258.314-.51.484-.755.103-.15.208-.29.314-.425.106-.134.223-.267.353-.398a5.72 5.72 0 00.476-.546l.471-.569a1.17 1.17 0 00.123-.148.516.516 0 01.135-.14.965.965 0 01.497-.24.662.662 0 01.481.12l.066.046a.67.67 0 01.232.453.692.692 0 01-.134.53l-.037.053-.508.621c-.163.198-.338.395-.525.59l-.399.463a10.715 10.715 0 00-.78 1.154c-.125.237-.242.48-.35.73-.247.582-.235 1.136.037 1.661a3.1 3.1 0 00.276.445c.104.15.218.294.343.433.087.099.178.182.275.249.236.164.48.223.733.178.255-.031.492-.158.712-.382a10.771 10.771 0 00.761-.874 458.01 458.01 0 012.19-3.135l.985-1.42c.346-.5.7-1.001 1.06-1.504l.155-.224a16.164 16.164 0 01-.592-.352 23.38 23.38 0 01-2.05-1.48c-.42-.331-.719-.65-.896-.954-.17-.3-.258-.575-.265-.827a1.922 1.922 0 01.077-.589 4.85 4.85 0 01.231-.502l.925-1.812c.03-.082.098-.198.2-.347l.31-.447.22-.316a.925.925 0 01.14-.175c.35-.432.68-.813.988-1.145.322-.335.648-.654.975-.96a.434.434 0 01.41-.085c.16.033.387.145.682.337.234.15.465.303.692.461.243.156.478.312.706.47l.5.347c.294.23.483.407.567.53.092.129.099.25.02.364l-.077.083-.47.453a21.996 21.996 0 00-1.031 1.096c-.178.201-.362.41-.552.63l-.064.091-.164.237c-.058.103-.12.202-.188.298a3.737 3.737 0 01-.178.286 4.38 4.38 0 00-.12.229c-.156.32-.317.636-.482.95-.166.313-.326.63-.483.95-.043.1-.084.195-.12.286l-.086.292a.893.893 0 00-.024.12l-.002.115a.882.882 0 00.083.33c.066.11.171.23.317.356l.184.128 1.494-2.157 1.248-1.802c.365-.526.628-.915.789-1.167l.255-.368.127-.184c.043-.061.09-.12.141-.175.411-.48.865-.555 1.362-.224l.666.443c.394.274.78.56 1.156.86l.105.074c.268.212.39.393.363.544zM62.024 59.52l.775.538a5.08 5.08 0 001.338-.104c.724-.146 1.389-.516 1.994-1.109.274-.264.529-.548.765-.851.245-.298.474-.6.686-.907l.561-.838c.466-.767.94-1.516 1.42-2.247a73.15 73.15 0 001.447-2.229 9.624 9.624 0 001.425-3.996c.048-.37-.007-.693-.164-.971a4.126 4.126 0 00-.536-.8.673.673 0 00-.122-.105c-.15-.103-.302-.06-.46.13l-.635.804-.963 1.222c-.318.402-.625.818-.923 1.248a16.879 16.879 0 00-.785 1.247c-.286.412-.555.829-.808 1.25l-2.051 3.017a79.912 79.912 0 00-1.967 3.037l-.603.983c-.137.217-.269.444-.394.681zm-3.635-2.367c.229-.425.476-.837.74-1.238l1.024-1.646a71.38 71.38 0 011.661-2.567c.587-.866 1.162-1.706 1.727-2.522a17.031 17.031 0 01.795-1.26 14.402 14.402 0 01.722-1.154c.34-.49.694-.965 1.064-1.423.377-.452.75-.915 1.116-1.387.318-.403.646-.792.984-1.168.235-.265.457-.416.665-.454.216-.031.48.055.793.259.447.31.884.626 1.31.948l1.304.983c.277.218.517.462.72.732.207.262.396.542.565.84.27.474.389.985.358 1.535a9.068 9.068 0 01-.458 2.291 14.545 14.545 0 01-.912 2.133 15.48 15.48 0 01-1.025 1.704c-.362.54-.7 1.104-1.015 1.69l-.988 1.399-.57.85-.242.378a11.1 11.1 0 01-.822 1.046c-.26.3-.533.591-.819.873l.013.01c.03.032.012.105-.053.216-.07.12-.205.325-.405.614l-.92 1.328c.359.25.724.51 1.094.78.249.185.392.343.431.474.048.137.008.298-.12.482l-.622.814c-.115.128-.225.194-.332.198-.106.004-.252-.058-.436-.185l-.223-.155-.697-.484a21.87 21.87 0 01-.692-.461 6.785 6.785 0 01-.294-.223c-.14-.097-.299-.214-.477-.35a17.12 17.12 0 01-.582-.424l-.574-.437c-.192-.134-.37-.263-.53-.387l-.38-.265-.684-.474a20.291 20.291 0 00-.685-.417l-1.183-.82c-.29-.201-.589-.396-.899-.585a33.587 33.587 0 01-.926-.546 4.644 4.644 0 01-.465-.284l-.24-.186c-.295-.23-.37-.47-.223-.72l.247-.412a7.19 7.19 0 01.26-.404.56.56 0 01.127-.126.908.908 0 01.13-.104c.177-.124.387-.109.63.047.336.207.674.422 1.013.644zm13.06 11.265c-.195-.149-.309-.312-.34-.49-.04-.17.002-.342.124-.518l.163-.179c.138-.124.259-.261.362-.41.112-.143.228-.283.35-.42.144-.172.34-.426.585-.762.255-.33.529-.698.823-1.104.297-.391.594-.802.892-1.231.312-.432.596-.833.851-1.201.27-.371.5-.693.688-.964.197-.266.322-.438.377-.517.28-.404.57-.832.87-1.285.308-.462.625-.93.953-1.404l.237-.342c.037-.052.04-.095.011-.128a.337.337 0 00-.183.068 1.69 1.69 0 01-.14.117l-1.855 1.555a95.648 95.648 0 01-1.883 1.538 89.593 89.593 0 00-2.468 2.046 20.205 20.205 0 01-2.473 1.828c-.227.14-.447.28-.66.418-.212.138-.43.266-.654.383-.34.192-.647.194-.919.006l-.179-.163c-.322-.34-.347-.735-.076-1.183l.11-.158.135-.14c.733-.945 1.487-1.902 2.261-2.87l2.387-2.94c.714-.881 1.4-1.768 2.058-2.662.664-.903 1.318-1.819 1.962-2.748l.737-1.065c.243-.351.473-.692.689-1.022l.788-1.167c.13-.17.277-.269.44-.298a.779.779 0 01.522.09l.027.018a.702.702 0 01.29.396.794.794 0 01-.054.527c-.043.1-.095.194-.156.281-.06.088-.117.179-.17.273a11.7 11.7 0 01-.483.754c-.167.26-.342.522-.524.786L76.27 54.49a58.984 58.984 0 01-2.17 2.935 414.33 414.33 0 01-2.265 2.849 6.528 6.528 0 00-.581.726 3.092 3.092 0 00-.293.536c.075-.051.146-.099.215-.142.069-.043.136-.094.202-.152.502-.405.996-.809 1.482-1.211.495-.397.989-.8 1.481-1.212 1.319-1.098 2.624-2.185 3.915-3.263a39.597 39.597 0 003.682-3.462c.166-.183.331-.29.494-.32.172-.023.374.033.605.167a27.715 27.715 0 011.535.988c.368.255.718.517 1.05.787.199.163.312.346.341.548.038.208-.013.413-.153.614l-.21.303c-.151.22-.299.441-.442.667-.137.216-.281.434-.433.653l-.182.263c-.291.383-.582.784-.874 1.205l-.884 1.276-.974 1.408c-.308.462-.616.935-.927 1.421l-.415.627-.145.21c-.104.15-.25.353-.442.61-.176.254-.378.536-.605.846a1993.591 1993.591 0 01-1.474 2.015c-.23.333-.454.646-.669.938-.221.3-.405.556-.55.767-.189.272-.387.53-.596.775-.214.254-.425.51-.63.77a1.81 1.81 0 01-.407.418c-.328.267-.662.281-1.004.044l-1.254-.83a72.736 72.736 0 01-1.244-.845z" fill="#fff"/></svg>