<svg width="171" height="45" fill="none" xmlns="http://www.w3.org/2000/svg"><path d="M7.026 32.162l-4.07-4.189L.773 11.22c1.985-2.385 8.9-7.295 20.679-7.854 14.723-.698 32.266-2.268 49.182-2.094 16.915.175 39.686-.314 45.638-.314 5.952 0 30.073-.524 37.903 2.094 6.264 2.094 12.004 6.108 14.092 7.854-.627.349-1.505 1.43-.002 2.966 1.503 1.536 2.295 3.898 2.503 4.887-.835.582-2.507 1.885-2.507 2.444 0 .698-5.639.872-2.82 1.745 2.255.698 2.818 2.734 2.817 3.665-2.193.872-7.582 2.653-11.592 2.792-4.01.14-7.518.756-8.772 1.047v1.397c1.879.232 5.262.767 3.758 1.047-1.88.349-3.759-.524-5.325 0-1.567.523-3.76 1.57-1.881 1.92a4.508 4.508 0 001.649.544 39.642 39.642 0 011.797-.196c-.322.144-.984.296-1.797.196-1.056.142-1.965.327-1.649.503.501.279 2.505.698 3.445.872l1.566 1.047h-5.012c-2.757 0-2.194 1.048-1.568 1.571-.731.117-2.631.28-4.385 0-2.193-.349-1.253.175-5.012.35-3.008.139-13.992.057-19.109 0 .418-.233.69-.699-1.566-.699-2.819 0-3.132 0-6.578.35-3.446.348-32.482.313-43.133.313h-15.35c-4.907.582-16.54 1.71-23.807 1.571-9.085-.174-16.915-1.92-16.915-2.094 0-.14-1.67-1.105-2.505-1.57.835.29 2.506.697 2.506 0 0-.699-1.67-2.735-2.504-3.666l2.507-1.745zm5.946 9.948c-1.002 0-1.044.698-.94 1.047l-2.036.175c-.993.581-2.79 1.71-2.037 1.57.752-.14 2.193-.523 2.82-.698.417-.233 3.258-.698 11.277-.698 10.024 0 9.084-.349 10.024-.349.94 0-17.855-1.047-19.108-1.047z" fill="#FDA3C4"/><path d="M42.685 17.792a5.99 5.99 0 01-.112-.416 6.383 6.383 0 01-.223-1.696c0-.234.01-.469.032-.704.042-.426.107-.848.192-1.264l.128-.48a4.85 4.85 0 00-.208-.288l-.048-.048a.254.254 0 01-.064-.048c-.139-.096-.33-.144-.576-.144a1.326 1.326 0 00-.528.112c-.15.086-.261.176-.336.272a4.587 4.587 0 00-.208.256 2.877 2.877 0 00-.368.912 8.609 8.609 0 00-.176.912c-.011.075-.016.15-.016.224v.208c0 .406.069.795.208 1.168.128.374.32.747.575 1.12.043.064.091.123.144.176a.998.998 0 00.224.16c.16.086.326.128.496.128a.79.79 0 00.496-.16 1.05 1.05 0 00.16-.128l.112-.144.096-.128zm3.697-4.736l.064.128c.181.427.31.86.384 1.296.032.14.058.283.08.432.021.14.032.278.032.416v.16a9.284 9.284 0 01-.304 1.808 4.982 4.982 0 01-.209.64l.096.128a.998.998 0 00.224.16c.16.086.326.128.496.128a.79.79 0 00.496-.16.581.581 0 00.144-.128 1.42 1.42 0 00.128-.144c.31-.394.54-.794.689-1.2.149-.405.24-.816.272-1.232v-.048a2.92 2.92 0 00-.288-1.264 6.163 6.163 0 00-.768-1.232.252.252 0 00-.064-.048l-.048-.048c-.139-.096-.33-.144-.576-.144a1.447 1.447 0 00-.544.112c-.128.075-.23.155-.304.24zm-.897 7.04v4.048c0 .907.005 1.82.015 2.736l.032 1.488c.01.491.016.987.016 1.488 0 .246-.005.443-.016.592 0 .16-.016.288-.048.384a.391.391 0 01-.128.224.637.637 0 01-.208.16c-.107.043-.213.07-.32.08a2.394 2.394 0 01-.272.016l-.464-.016a.35.35 0 01-.288-.224c-.053-.128-.085-.346-.096-.656a34.305 34.305 0 01-.048-1.84 301.61 301.61 0 00-.047-3.12 301.76 301.76 0 01-.016-3.12v-2.24h-.08c-.213.011-.427.016-.64.016l-1.136-.016a1.82 1.82 0 01-.512-.064 3.116 3.116 0 01-.432-.192 1.686 1.686 0 01-.512-.384 2.91 2.91 0 01-.32-.448 7.391 7.391 0 01-.64-1.632 6.843 6.843 0 01-.207-1.696c0-.234.01-.469.032-.704.042-.426.107-.842.192-1.248.085-.416.219-.832.4-1.248.203-.416.544-.784 1.024-1.104a1.99 1.99 0 01.336-.16 1.56 1.56 0 01.432-.08c.235-.01.47-.02.704-.032.224-.01.459-.016.704-.016.267 0 .533.006.8.016l.56.064c.043-.01.085-.02.128-.032.117-.02.24-.032.368-.032.096.011.176.016.24.016.15 0 .293-.005.432-.016.224-.01.459-.016.704-.016.267 0 .533.011.8.032.267.011.533.038.8.08.33.054.597.144.8.272.203.118.357.267.464.448.245.427.459.854.64 1.28.181.416.31.843.384 1.28.032.14.058.283.08.432.021.14.032.278.032.416v.16a9.284 9.284 0 01-.304 1.808 7.43 7.43 0 01-.737 1.744 3.216 3.216 0 01-.32.448c-.288.331-.768.523-1.44.576a13 13 0 01-.64.048h-.624l-.624-.016zm14.279-8.752a.242.242 0 01.096.08c.149.171.224.443.224.816l-.017.672c0 .374.006.742.016 1.104l.064 1.104c0 .075.006.203.016.384v.64c.01.267.016.614.016 1.04 0 .427-.006.95-.016 1.568 0 .608-.006 1.328-.016 2.16-.011.832-.027 1.792-.049 2.88a646.87 646.87 0 01-.048 3.664c-.01.352-.037.7-.08 1.04a8.514 8.514 0 01-.192 1.04 1.6 1.6 0 01-.24.528 1.93 1.93 0 01-.368.416 3.805 3.805 0 01-.945.576c-.33.15-.688.224-1.072.224h-.16c-.32-.01-.64-.02-.96-.032-.309 0-.623-.01-.944-.032a9.803 9.803 0 01-.96-.112 5.018 5.018 0 01-.927-.256c-.672-.256-1.227-.608-1.664-1.056-.427-.437-.699-1.024-.816-1.76a14.41 14.41 0 01-.128-.912 12.592 12.592 0 01-.032-.896c0-.18.005-.357.016-.528.01-.17.032-.346.064-.528.043-.245.07-.485.08-.72l.064-.736c.01-.064.016-.128.016-.192 0-.074.011-.138.032-.192a.966.966 0 01.272-.48.662.662 0 01.464-.176h.08a.67.67 0 01.448.24.692.692 0 01.192.512v.064l-.064.8c-.021.256-.053.518-.096.784l-.064.608a10.64 10.64 0 00.016 1.392c.032.267.075.534.128.8.128.62.453 1.067.976 1.344.16.086.32.155.48.208.17.064.346.118.528.16.128.032.25.048.368.048.288 0 .522-.09.704-.272.192-.17.314-.41.368-.72a10.54 10.54 0 00.128-1.152c0-1.258.005-2.533.016-3.824v-1.728c0-.608.006-1.22.017-1.84v-.272a16.13 16.13 0 01-.688.048 23.27 23.27 0 01-2.528-.048c-.534-.032-.96-.122-1.28-.272-.31-.149-.539-.325-.688-.528a1.916 1.916 0 01-.272-.528 4.853 4.853 0 01-.096-.544l-.272-2.016a1.806 1.806 0 01-.032-.4v-.928a.97.97 0 01.016-.224c.043-.554.096-1.056.16-1.504.075-.458.16-.906.257-1.344a.434.434 0 01.288-.304c.149-.064.4-.1.752-.112.277-.01.554-.016.832-.016.288-.01.57-.016.848-.016h.608c.373.022.629.06.768.112.149.054.224.15.224.288l-.016.112-.129.64a22.365 22.365 0 00-.224 1.488c-.032.267-.064.544-.096.832v.4c.01.118.016.235.016.352.01.118.016.23.016.336.01.107.021.192.032.256.053.352.101.704.144 1.056.043.352.09.704.144 1.056.021.107.042.208.064.304l.096.288a.89.89 0 00.048.112l.064.096a.88.88 0 00.256.224c.117.054.272.091.464.112h.224v-4.816c0-.64-.005-1.109-.016-1.408v-.672a1.7 1.7 0 01.016-.224c.065-.629.395-.949.993-.96l.8-.016c.48 0 .96.016 1.44.048h.128c.34.022.544.102.608.24zm6.609 19.968a6.87 6.87 0 01-.672-.032 4.782 4.782 0 01-.656-.08c-.246-.053-.422-.144-.528-.272-.096-.117-.155-.309-.176-.576-.096-1.248-.176-2.49-.24-3.728a85.723 85.723 0 01-.08-3.728l.017-1.232c.021-1.098.032-2.192.032-3.28.01-1.098.043-2.208.096-3.328L64.23 14c.032-.352.07-.672.112-.96v-.064c0-.138-.031-.24-.095-.304-.054-.064-.155-.106-.304-.128a7.118 7.118 0 00-.816-.048h-.304a2.78 2.78 0 00-.288.016 2.598 2.598 0 00-.288-.016 1.12 1.12 0 01-.272-.032.721.721 0 01-.384-.24.636.636 0 01-.144-.416v-.048c0-.288.149-.506.448-.656.138-.053.282-.08.432-.08l.192.016 3.248.032h4.352c.192 0 .405.027.64.08.181.054.32.144.416.272.106.118.16.256.16.416l-.016.112a.684.684 0 01-.224.432.82.82 0 01-.496.176H69.19c-.128 0-.23.006-.304.016-.064 0-.112.016-.144.048a.37.37 0 00-.08.16 3.38 3.38 0 00-.032.288A33.243 33.243 0 0068.405 16c-.021.971-.032 1.942-.032 2.912v2.624l-.032 1.136v1.12c0 .502.005 1.003.015 1.504.01.491.037.987.08 1.488.043.523.064 1.04.064 1.552 0 .523.042 1.046.128 1.568.01.032.016.064.016.096v.112l-.016.304a.964.964 0 01-.224.528c-.107.128-.272.208-.496.24a9.407 9.407 0 01-1.536.128zm11.716-1.52c.768-.16 1.408-.362 1.92-.608.512-.234.848-.538 1.008-.912a1.63 1.63 0 00.144-.496c.032-.17.048-.34.048-.512l-.016-.448c-.053-.405-.09-.8-.112-1.184-.01-.394-.037-.794-.08-1.2-.064-.65-.432-1.264-1.104-1.84-.17-.149-.4-.256-.688-.32a7.155 7.155 0 00-.896-.144.671.671 0 00-.16-.016c-.18 0-.282.06-.304.176l-.064.448-.096.704a4.874 4.874 0 00-.048.688 3.27 3.27 0 00.064.656c0 .224.016.448.048.672l.032 1.632a15.8 15.8 0 00.112 1.616l.064.512c.021.182.064.374.128.576zm-1.903-9.408h.128l1.616.032c.352.011.688.043 1.008.096.32.054.634.123.944.208.49.128.88.32 1.167.576.406.363.715.747.928 1.152.214.406.368.816.464 1.232.086.363.128.726.128 1.088.01.352.053.704.128 1.056l-.016.928.016.56.016.24c0 .246-.027.486-.08.72a6.482 6.482 0 01-.208.736c-.107.288-.299.55-.576.784a6.13 6.13 0 01-.944.672 5.907 5.907 0 01-1.697.656 9.292 9.292 0 01-2.031.208l-.353-.016-1.92-.064h-.48a.685.685 0 01-.24-.048 3.134 3.134 0 01-.24-.08c-.288-.117-.437-.4-.447-.848a357.379 357.379 0 01-.16-4.704 55.763 55.763 0 01-.048-1.36l-.016-.192a4.465 4.465 0 01-.016-.368c0-.16.006-.314.016-.464-.01-.768-.016-1.536-.015-2.304v-1.776c.01-.597.032-1.22.064-1.872.021-.832.032-1.653.032-2.464 0-.81.006-1.632.017-2.464.01-.394.053-.688.128-.88a.143.143 0 00.016-.064c.064-.213.202-.33.416-.352.768-.042 1.525-.08 2.272-.112a40.64 40.64 0 012.288-.064c.288 0 .576.006.864.016.288 0 .592.011.912.032.394.022.789.032 1.184.032.394-.01.794-.01 1.2 0 .234.011.394.064.48.16.085.086.128.251.128.496l-.033 1.12c-.02.182-.064.31-.128.384-.064.075-.18.112-.352.112h-.208c-.213 0-.426.006-.64.016h-.912a5.695 5.695 0 00-.464-.016l-.544-.032c-.18-.01-.362-.02-.544-.032a8.714 8.714 0 00-.512-.016 5.22 5.22 0 00-.352-.016c-.213 0-.42.006-.624.016-.202 0-.41.011-.624.032a1.14 1.14 0 01-.24.016h-.784c0 .235.006.47.016.704.01.438.016.875.016 1.312 0 .118-.005.31-.016.576-.01.267-.021.576-.032.928 0 .352-.01.726-.032 1.12l-.032 1.152c0 .374-.006.715-.016 1.024 0 .15-.006.288-.016.416zm14.558 9.296c.234 0 .442-.16.624-.48.074-.138.133-.277.176-.416.053-.128.106-.266.16-.416.384-1.194.667-2.4.848-3.616.192-1.216.31-2.458.353-3.728v-.112c0-1.333-.123-2.613-.368-3.84a28.998 28.998 0 00-.96-3.696 1.961 1.961 0 00-.064-.144 1.92 1.92 0 01-.064-.144c-.18-.288-.42-.432-.72-.432a.823.823 0 00-.368.096.77.77 0 00-.304.256c-.181.246-.32.502-.416.768a10.38 10.38 0 00-.256.816 18.571 18.571 0 00-.464 2.736 74.86 74.86 0 00-.208 2.768 6.408 6.408 0 00-.032.64v.64c0 1.227.085 2.406.255 3.536.17 1.131.416 2.256.736 3.376.053.182.112.352.176.512.064.171.154.331.272.48.202.267.41.4.624.4zm-2.832 1.552c-.246 0-.465-.058-.657-.176a2.999 2.999 0 01-.527-.4 3.212 3.212 0 01-.656-.88 7.583 7.583 0 01-.384-1.008 27.928 27.928 0 01-.8-3.648 27.626 27.626 0 01-.207-5.376c.053-.949.133-1.882.24-2.8.107-.928.272-1.85.496-2.768a6.053 6.053 0 011.28-2.48c.129-.16.267-.288.417-.384a1.22 1.22 0 01.544-.176c.288-.02.576-.042.864-.064.288-.02.58-.032.88-.032.34 0 .677.022 1.008.064.33.032.66.096.992.192.416.118.752.315 1.007.592.256.278.448.62.576 1.024.299.94.56 1.883.784 2.832.235.94.4 1.904.496 2.896.032.32.058.64.08.96.032.31.048.62.048.928v.352a35.993 35.993 0 01-.385 4.08 23.62 23.62 0 01-.912 3.888 5.733 5.733 0 01-.176.512 4.176 4.176 0 01-.224.496c-.352.747-.95 1.18-1.793 1.296-.266.043-.533.07-.8.08-.255.011-.517.016-.783.016l-1.408-.016zm13.913-20.224c.288 0 .576.016.864.048.288.022.571.054.848.096.533.064.955.267 1.264.608.32.342.555.758.704 1.248.128.406.213.816.256 1.232.053.406.09.816.112 1.232l.271 4.624c.021.203.032.518.032.944v2.16c0 .256-.006.422-.016.496a92.701 92.701 0 01-.177 3.472 89.858 89.858 0 01-.24 3.072c-.043.342-.139.582-.288.72-.149.14-.4.22-.752.24-.277.022-.56.038-.848.048-.277.022-.555.032-.832.032h-.304c-.096 0-.197-.005-.304-.016-.373-.032-.635-.112-.784-.24-.139-.117-.208-.336-.208-.656l.016-.256.128-1.488a117.202 117.202 0 00.225-3.408l.096-1.92v-.288c0-.17-.005-.384-.016-.64 0-.266-.005-.533-.016-.8 0-.277-.005-.538-.016-.784 0-.256-.005-.458-.016-.608a208.93 208.93 0 01-.144-2.416c-.042-.81-.09-1.632-.143-2.464a15.376 15.376 0 00-.08-.672 15.376 15.376 0 00-.08-.672 1.681 1.681 0 00-.048-.24l-.064-.256a1.524 1.524 0 00-.272-.48.661.661 0 00-.448-.272l-.112-.016a.586.586 0 00-.432.176 3.06 3.06 0 00-.304.4 5.354 5.354 0 00-.592 1.28 27.87 27.87 0 00-.384 1.36c-.214.918-.363 1.83-.449 2.736a38.904 38.904 0 00-.16 2.752v.416c0 .128-.01.262-.032.4a27.153 27.153 0 00-.16 1.872c-.032.63-.054 1.264-.064 1.904-.011.63-.017 1.27-.017 1.92 0 .651-.005 1.312-.016 1.984 0 .118-.005.23-.016.336 0 .118-.01.235-.032.352-.053.214-.144.374-.272.48a.607.607 0 01-.448.176h-.096c-.427-.053-.64-.325-.64-.816.01-.65.022-1.264.032-1.84.011-.565.016-1.125.016-1.68.011-.81.033-1.616.065-2.416.032-.81.09-1.62.176-2.432.053-.554.08-1.104.08-1.648.01-.554.043-1.114.096-1.68.086-.8.198-1.594.337-2.384.149-.789.352-1.568.608-2.336.096-.298.213-.58.352-.848.139-.277.288-.549.448-.816.192-.33.432-.58.72-.752a3.42 3.42 0 01.976-.4c.267-.064.528-.106.784-.128.267-.032.539-.048.816-.048zm7.411 20.224c-.405 0-.656-.213-.752-.64a1.109 1.109 0 01-.048-.32l-.335-6.896c0-.629.006-1.237.016-1.824V20.8c.011-.256.016-.5.016-.736.011-.245.016-.469.016-.672l.001-.528v-.416a163.81 163.81 0 01-.032-3.28v-3.184c0-.288.054-.5.16-.64.118-.149.315-.24.592-.272a14.444 14.444 0 011.376-.064 17.987 17.987 0 011.504.064c.278.022.48.107.608.256.128.14.208.347.24.624.011.086.016.182.016.288v4.08c0 1.28.005 2.571.015 3.872v.4a.545.545 0 00.176-.24c.032-.074.059-.149.08-.224.438-1.29.907-2.629 1.409-4.016.501-1.397 1.035-2.8 1.6-4.208.043-.085.08-.17.112-.256a1.3 1.3 0 01.128-.272.72.72 0 01.624-.32h.096c.043 0 .086.011.128.032.31.118.464.352.464.704 0 .118-.016.224-.048.32a5.279 5.279 0 01-.112.304 144.678 144.678 0 00-1.696 4.448 207.46 207.46 0 00-1.473 4.256c-.117.342-.24.678-.368 1.008-.117.32-.245.64-.384.96-.053.14-.08.251-.08.336 0 .107.043.235.128.384a89.557 89.557 0 001.696 2.912 27.13 27.13 0 001.727 2.496c.139.182.31.342.512.48.054.032.102.064.144.096l.16.128a.74.74 0 01.272.576c0 .15-.042.283-.128.4a.665.665 0 01-.592.32.873.873 0 01-.32-.08 2.737 2.737 0 01-.688-.448 5.335 5.335 0 01-.576-.608 42.76 42.76 0 01-1.199-1.696 19.577 19.577 0 01-1.2-2.08 1.909 1.909 0 00-.192-.304l-.272-.384c-.011.15-.016.288-.016.416v.384c0 .278.005.54.016.784.021.256.042.507.064.752.032.363.058.726.079 1.088.022.363.032.726.032 1.088v.256c-.021.288-.096.496-.224.624-.117.14-.314.214-.592.224-.202.011-.405.016-.608.016h-.608l-1.664-.016zm16.822.016c-.245-.01-.432-.08-.56-.208-.128-.117-.192-.282-.192-.496l.032-.24a2.35 2.35 0 00.064-.544c.011-.18.027-.362.048-.544.022-.224.038-.544.049-.96.021-.416.037-.874.048-1.376.021-.49.032-.997.032-1.52a71.56 71.56 0 00.016-1.472c.011-.458.016-.853.016-1.184.011-.33.016-.544.016-.64 0-.49-.005-1.008-.016-1.552-.01-.554-.016-1.12-.015-1.696V18.4c0-.064-.022-.1-.064-.112a.331.331 0 00-.112.16 1.62 1.62 0 01-.048.176l-.641 2.336a93.157 93.157 0 01-.672 2.336 91.248 91.248 0 00-.864 3.088 20.305 20.305 0 01-.993 2.912 40 40 0 00-.304.72 7.85 7.85 0 01-.32.688c-.17.352-.421.528-.752.528l-.24-.032c-.458-.096-.704-.405-.736-.928v-.192l.032-.192c.064-1.194.139-2.41.225-3.648l.288-3.776c.086-1.13.144-2.25.177-3.36.032-1.12.048-2.245.048-3.376v-1.296c0-.426-.005-.837-.016-1.232l-.016-1.408c.011-.213.075-.378.192-.496a.779.779 0 01.48-.224h.032a.7.7 0 01.464.16.79.79 0 01.256.464c.022.107.032.214.032.32 0 .107.006.214.016.32.022.278.032.576.032.896.011.31.016.624.016.944l-.016 2.88c0 1.227-.038 2.443-.113 3.648a430 430 0 01-.24 3.632 6.566 6.566 0 00-.064.928 2.964 2.964 0 00.064.608c.032-.085.064-.165.096-.24.032-.074.058-.154.08-.24.181-.618.357-1.232.528-1.84.181-.608.357-1.22.528-1.84.459-1.653.913-3.29 1.361-4.912.459-1.632.811-3.28 1.056-4.944.032-.245.107-.426.224-.544.128-.117.326-.186.592-.208a27.927 27.927 0 011.824-.064c.448 0 .886.016 1.312.048.256.022.454.107.592.256.15.15.224.347.224.592v.368c0 .267.006.534.016.8.011.256.016.518.016.784v.32c-.021.48-.032.976-.032 1.488v3.264c.01.555.026 1.12.047 1.696l.016.752v.256c0 .182-.005.432-.016.752 0 .31-.005.656-.016 1.04s-.021.795-.032 1.232l-.032 1.264c0 .406-.006.79-.016 1.152a32.69 32.69 0 00-.016.944c0 .331-.017.656-.049.976-.032.331-.058.662-.08.992 0 .192-.032.384-.096.576-.117.406-.384.608-.8.608l-1.504.032c-.49.011-.992.016-1.504.016z" fill="#fff"/></svg>