<svg width="122" height="34" fill="none" xmlns="http://www.w3.org/2000/svg"><path d="M7.424 24.074l-4.818-3.26L.02 7.773C2.368 5.916 10.55 2.095 24.489 1.66 41.915 1.116 42.676-.106 62.695.03c20.02.136 10.537.003 17.58.003 7.044 0 17.59-.407 26.857 1.63 7.414 1.63 9.209 4.755 11.679 6.113-.741.272-1.78 1.114-.001 2.31 1.779 1.195 2.717 3.034 2.964 3.803-.989.453-2.967 1.467-2.967 1.902 0 .543-6.674.68-3.337 1.359 2.669.543 3.335 2.128 3.335 2.852-2.596.68-3.973 2.065-8.718 2.174-4.746.109-8.898.589-10.381.815v1.087c2.223.18 6.227.597 4.447.815-2.224.271-4.448-.408-6.302 0-1.854.407-4.45 1.222-2.225 1.494.683.25 1.352.375 1.951.424a70.548 70.548 0 012.127-.152c-.38.111-1.165.23-2.127.152-1.249.11-2.325.254-1.951.391.593.217 2.965.543 4.077.68l1.853.814h-5.931c-3.263 0-2.596.815-1.855 1.223-.865.09-3.114.217-5.19 0-2.595-.272-1.483.136-5.931.272-.912.027-1.262.044-1.38.053.067.008-.148.01 0 0-.089-.012-.67-.034-3.235-.053.495-.181.816-.544-1.853-.544-3.336 0-3.707 0-7.785.272l-.219.015c4.57.056-2.833.205 0 0a384.76 384.76 0 00-4.396-.019H45.615c-5.808.453-9.575 1.332-18.176 1.223-10.75-.136-20.018-1.494-20.018-1.63 0-.109-1.977-.86-2.965-1.223.988.227 2.965.544 2.966 0 0-.543-1.976-2.128-2.965-2.852l2.967-1.359zm7.039 7.743c-1.186 0-1.236.544-1.112.815l-2.41.136c-1.174.453-3.3 1.331-2.41 1.223.89-.109 2.595-.408 3.336-.544.495-.18 3.856-.543 13.347-.543 11.863 0 10.751-.272 11.863-.272s-21.13-.815-22.613-.815z" fill="#FDA3C4"/><path d="M24.008 13.124a4.502 4.502 0 01-.084-.312 4.784 4.784 0 01-.164-1.272c0-.176.01-.352.026-.528.033-.32.082-.636.146-.948l.098-.36a3.653 3.653 0 00-.156-.216l-.036-.036a.19.19 0 01-.048-.036c-.103-.072-.247-.109-.431-.11a.994.994 0 00-.397.083.846.846 0 00-.252.203 3.288 3.288 0 00-.157.192 2.173 2.173 0 00-.278.683 6.472 6.472 0 00-.134.684 1.185 1.185 0 00-.012.168v.156c-.002.304.05.596.153.876.095.28.238.56.43.841a.858.858 0 00.107.133c.04.04.096.08.168.12a.78.78 0 00.371.098c.144 0 .268-.04.373-.12a.79.79 0 00.12-.095l.084-.108.073-.096zm2.782-3.543l.048.096c.135.32.23.645.285.973.023.104.043.213.059.325.016.104.023.208.023.312v.12a7.045 7.045 0 01-.232 1.355c-.04.16-.093.32-.158.48l.072.096c.04.04.096.08.168.12a.78.78 0 00.371.097.602.602 0 00.373-.118.437.437 0 00.108-.096 1.31 1.31 0 00.096-.108c.233-.295.406-.595.519-.898.113-.304.182-.612.207-.924v-.036a2.2 2.2 0 00-.213-.948 4.624 4.624 0 00-.574-.926.187.187 0 00-.048-.036l-.036-.036c-.103-.073-.247-.11-.431-.11a1.087 1.087 0 00-.408.083.905.905 0 00-.229.18zm-.688 5.278l-.003.984-.006 2.052c-.002.68 0 1.364.006 2.052l.021 1.116c.007.368.01.74.009 1.116a6.5 6.5 0 01-.014.444c0 .12-.012.216-.036.288a.293.293 0 01-.097.168.477.477 0 01-.156.12.88.88 0 01-.24.059 1.87 1.87 0 01-.204.01l-.348-.012a.263.263 0 01-.216-.169c-.04-.096-.063-.26-.07-.492a25.88 25.88 0 01-.032-1.38c-.006-.784-.016-1.564-.03-2.34-.005-.776-.007-1.556-.005-2.34l.005-1.68h-.06c-.16.007-.32.01-.48.01l-.852-.015c-.144 0-.272-.016-.384-.049a2.36 2.36 0 01-.323-.145 1.265 1.265 0 01-.383-.29 2.186 2.186 0 01-.24-.336 5.545 5.545 0 01-.476-1.225 5.13 5.13 0 01-.152-1.273c0-.176.01-.352.026-.528.033-.32.082-.631.147-.935a4.7 4.7 0 01.302-.935c.153-.312.41-.587.77-.826a1.169 1.169 0 01.576-.178l.53-.022a11.1 11.1 0 01.527-.01c.2 0 .4.004.6.013l.42.05.096-.024c.088-.016.18-.024.276-.023.072.008.132.012.18.012.112 0 .22-.003.324-.01a9.96 9.96 0 01.528-.011c.2 0 .4.01.6.026.2.008.4.029.6.062.248.04.448.109.6.205a.947.947 0 01.347.338c.183.32.342.64.477.961.135.313.23.633.285.96.023.105.043.213.059.325.015.104.023.208.023.312v.12a7.042 7.042 0 01-.232 1.356c-.122.44-.307.875-.556 1.306a1.98 1.98 0 01-.241.335c-.217.247-.577.39-1.082.429-.16.015-.32.027-.48.034l-.468-.001-.468-.014zM36.83 8.33a.18.18 0 01.072.06c.111.128.167.333.166.613l-.014.504c0 .28.003.556.01.828l.045.828c0 .056.004.152.012.288l-.002.48c.008.2.01.46.01.78-.001.32-.006.712-.016 1.176 0 .456-.007.996-.016 1.62-.01.624-.024 1.344-.043 2.16-.01.808-.025 1.724-.044 2.747-.009.264-.03.524-.062.78a6.352 6.352 0 01-.147.78c-.04.152-.1.284-.18.395a1.437 1.437 0 01-.278.311 2.852 2.852 0 01-.709.43 1.929 1.929 0 01-.804.166h-.12l-.72-.027c-.232 0-.468-.01-.708-.026a7.385 7.385 0 01-.72-.087 3.762 3.762 0 01-.695-.194 3.41 3.41 0 01-1.246-.796c-.319-.329-.522-.77-.608-1.322-.04-.232-.07-.46-.094-.684a9.43 9.43 0 01-.022-.672c0-.136.005-.268.013-.396.009-.128.025-.26.05-.396.032-.184.052-.364.06-.54l.05-.551a.873.873 0 00.013-.144.39.39 0 01.024-.144.724.724 0 01.205-.36.496.496 0 01.349-.13h.06a.502.502 0 01.335.18.519.519 0 01.143.385v.048l-.05.6a7.909 7.909 0 01-.073.588l-.05.456a7.986 7.986 0 00.009 1.044c.023.2.055.4.094.6.095.464.338.801.73 1.01.12.065.239.117.359.157.128.049.26.09.395.122.096.024.188.036.276.037a.714.714 0 00.529-.203.9.9 0 00.278-.539 7.894 7.894 0 00.098-.864c.003-.944.01-1.9.02-2.868l.004-1.296a79.3 79.3 0 01.017-1.38v-.204a11.822 11.822 0 01-1.128.045 17.721 17.721 0 01-1.284-.052c-.4-.025-.72-.094-.96-.207-.231-.113-.403-.245-.514-.398a1.439 1.439 0 01-.203-.396 3.636 3.636 0 01-.07-.409l-.2-1.512a1.353 1.353 0 01-.023-.3v-.408l.002-.288c0-.088.004-.144.012-.168.033-.416.075-.792.123-1.128.058-.344.122-.68.195-1.007a.326.326 0 01.217-.228c.112-.047.3-.075.564-.082.208-.007.416-.01.624-.01.216-.007.428-.01.636-.01l.456.002c.28.016.472.045.576.085.112.04.168.113.168.217l-.013.084-.097.48a16.666 16.666 0 00-.171 1.115c-.025.2-.05.408-.074.624v.084l-.001.216c.008.088.011.176.011.264.008.088.012.172.011.252.008.08.016.144.024.192.039.264.074.528.105.792.032.264.067.528.106.793l.047.228.072.216a.81.81 0 00.035.084l.048.072c.048.064.112.12.192.169.088.04.204.069.348.085h.168l.005-1.968.005-1.644c.002-.48-.001-.832-.009-1.056l.001-.336v-.168c.001-.056.005-.112.013-.168.05-.471.298-.71.746-.717l.6-.01c.36 0 .72.014 1.08.04h.096c.256.016.408.077.456.18zm4.914 14.991c-.168 0-.336-.009-.504-.025a3.574 3.574 0 01-.492-.062c-.184-.04-.316-.109-.395-.205-.072-.088-.116-.232-.13-.432-.07-.937-.127-1.869-.173-2.797a64.323 64.323 0 01-.05-2.797l.014-.924c.019-.824.03-1.644.032-2.46.01-.824.036-1.656.079-2.496l.05-.792c.025-.264.054-.503.086-.72v-.047c0-.104-.023-.18-.07-.229-.04-.048-.117-.08-.228-.096a5.338 5.338 0 00-.612-.038l-.228-.001c-.072 0-.144.004-.216.011a1.958 1.958 0 00-.216-.012.838.838 0 01-.204-.025.541.541 0 01-.288-.18.478.478 0 01-.107-.313v-.036c0-.216.113-.38.338-.491a.895.895 0 01.324-.06l.144.013 2.436.032 2.448.008.816.002c.144 0 .304.021.48.062a.58.58 0 01.311.205c.08.088.12.192.119.312l-.012.084a.513.513 0 01-.17.324.614.614 0 01-.372.13l-1.056-.003c-.096 0-.172.004-.228.011-.048 0-.084.012-.108.036a.278.278 0 00-.06.12c-.008.048-.016.12-.025.216a25.14 25.14 0 00-.174 2.195 99.386 99.386 0 00-.03 2.184l-.006 1.968c-.01.28-.018.564-.027.852l-.002.84c-.002.376.001.752.008 1.128.007.368.026.74.057 1.116.03.392.046.78.044 1.164 0 .392.03.785.093 1.177a.223.223 0 01.012.072v.084l-.013.228a.721.721 0 01-.17.395c-.08.096-.204.155-.372.179a7.08 7.08 0 01-1.152.092zm8.79-1.112c.577-.118 1.057-.269 1.441-.451.385-.175.638-.402.758-.682.057-.12.093-.244.11-.372a2.07 2.07 0 00.037-.384l-.011-.336c-.04-.304-.066-.6-.082-.888a11.623 11.623 0 00-.057-.9c-.046-.488-.321-.95-.824-1.383a1.147 1.147 0 00-.515-.241 5.366 5.366 0 00-.672-.11.502.502 0 00-.12-.013c-.136 0-.212.043-.228.131l-.05.336-.073.528c-.024.168-.037.34-.037.516a2.486 2.486 0 00.046.492c0 .168.011.336.035.504l.02 1.224c.007.416.034.82.08 1.213l.047.384c.016.136.048.28.095.432zm-1.407-7.06h.096l1.212.028c.264.008.516.033.756.074.24.04.475.094.707.158.368.097.66.242.875.435.303.273.534.562.693.866.16.305.275.613.346.925.063.273.094.545.093.817.008.264.039.528.094.792l-.014.696.01.42.012.18c0 .184-.021.364-.061.54a4.75 4.75 0 01-.158.551 1.42 1.42 0 01-.434.587 4.447 4.447 0 01-1.983.99 6.961 6.961 0 01-1.524.15l-.264-.012-1.44-.052-.36-.002a.512.512 0 01-.18-.036 2.386 2.386 0 01-.18-.06c-.215-.09-.327-.302-.334-.638a307.75 307.75 0 01-.11-3.528 42.082 42.082 0 01-.032-1.02l-.012-.144a3.278 3.278 0 01-.011-.276c0-.12.005-.236.013-.348a124.42 124.42 0 01-.007-1.728l.004-1.332c.01-.448.027-.916.052-1.404.018-.624.028-1.24.03-1.848a128.6 128.6 0 01.017-1.848c.009-.296.041-.516.098-.66a.107.107 0 00.012-.048c.048-.16.153-.247.313-.263.576-.03 1.144-.056 1.704-.078.568-.03 1.14-.045 1.716-.043.216 0 .432.005.648.014.216 0 .444.01.684.026.296.017.592.026.888.027.296-.007.596-.006.9.003.176.008.296.049.36.12.063.065.095.19.094.373l-.026.84c-.016.136-.049.232-.097.288-.048.056-.136.083-.264.083h-.156c-.16-.001-.32.003-.48.01l-.48-.001-.204-.001a4.286 4.286 0 00-.348-.013 3443.76 3443.76 0 01-.816-.05 6.551 6.551 0 00-.384-.014 3.927 3.927 0 00-.264-.013 8.9 8.9 0 00-.468.01 4.71 4.71 0 00-.468.023.88.88 0 01-.18.012l-.276-.001-.312-.001c0 .176.003.352.01.528.008.328.01.656.01.984 0 .088-.005.232-.014.432l-.026.696c0 .264-.01.544-.026.84l-.027.864c0 .28-.005.536-.014.768 0 .112-.005.216-.013.312zm10.899 7.006c.176 0 .332-.12.469-.359.056-.104.1-.207.133-.311.04-.096.08-.2.12-.312.291-.895.506-1.798.645-2.71.146-.911.237-1.843.272-2.795v-.084c.003-1-.086-1.96-.267-2.88a21.727 21.727 0 00-.712-2.775 1.44 1.44 0 00-.048-.108 1.44 1.44 0 01-.048-.108c-.135-.217-.315-.325-.539-.326a.617.617 0 00-.276.071.577.577 0 00-.228.191 2.25 2.25 0 00-.314.575 7.75 7.75 0 00-.194.612c-.17.68-.288 1.363-.354 2.05-.066.68-.12 1.372-.162 2.076a4.85 4.85 0 00-.026.48l-.001.48c-.003.92.059 1.804.184 2.653.126.848.307 1.693.545 2.533.04.136.083.265.13.385.048.128.116.248.204.36.15.2.307.301.467.302zm-2.128 1.157a.923.923 0 01-.491-.133 2.242 2.242 0 01-.395-.302 2.41 2.41 0 01-.49-.661 5.687 5.687 0 01-.286-.757 20.938 20.938 0 01-.592-2.738 20.71 20.71 0 01-.144-4.032c.042-.712.104-1.412.186-2.1.082-.696.208-1.387.378-2.075.186-.711.508-1.33.965-1.857.097-.12.201-.215.313-.287a.91.91 0 01.409-.13l.648-.046c.216-.016.436-.023.66-.022.256 0 .508.017.756.05.248.025.495.074.743.146.312.09.564.238.755.447a2 2 0 01.43.77c.222.704.416 1.412.581 2.125.174.705.296 1.429.366 2.173.023.24.043.48.058.72.023.232.035.464.034.697v.264a26.971 26.971 0 01-.298 3.059 17.71 17.71 0 01-.693 2.913 4.293 4.293 0 01-.302.755c-.265.56-.714.882-1.347.968-.2.032-.4.05-.6.058a12.62 12.62 0 01-.588.01l-1.056-.015zM68.376 8.176c.216 0 .432.013.648.038.216.017.428.041.636.074.4.05.716.202.947.459.24.257.414.57.525.938.095.304.158.612.19.924.038.304.066.613.08.925l.194 3.468c.016.152.023.388.022.708l-.002.936-.002.684a3.264 3.264 0 01-.014.372c-.034.952-.08 1.82-.14 2.604-.05.784-.112 1.551-.186 2.303-.033.256-.105.436-.218.54-.112.103-.3.163-.564.178-.208.015-.42.026-.636.034a8.133 8.133 0 01-.624.022h-.228a2.32 2.32 0 01-.228-.014c-.28-.024-.476-.085-.588-.181-.103-.089-.155-.253-.154-.493l.012-.192c.033-.376.066-.748.1-1.116a91.04 91.04 0 00.176-2.555l.075-1.44.001-.216c0-.128-.003-.288-.01-.48 0-.2-.003-.4-.01-.6 0-.208-.004-.404-.011-.588a6.7 6.7 0 00-.01-.456c-.039-.608-.073-1.212-.103-1.812a160.87 160.87 0 00-.103-1.849 10.824 10.824 0 00-.058-.504 10.804 10.804 0 00-.059-.504 1.198 1.198 0 00-.035-.18l-.048-.192a1.138 1.138 0 00-.203-.36.495.495 0 00-.335-.206l-.084-.012a.44.44 0 00-.325.13 2.27 2.27 0 00-.228.3 4.013 4.013 0 00-.447.959c-.105.335-.202.675-.291 1.019a15.441 15.441 0 00-.342 2.05 29.09 29.09 0 00-.126 2.064l-.001.312c0 .096-.009.196-.025.3-.058.464-.099.932-.124 1.404-.026.472-.043.948-.053 1.428a96.31 96.31 0 00-.016 1.44c-.001.488-.007.984-.016 1.488 0 .087-.005.171-.013.251 0 .088-.008.177-.025.264a.66.66 0 01-.205.36.455.455 0 01-.336.13h-.072c-.32-.04-.48-.245-.478-.613.009-.488.018-.948.028-1.38.009-.424.014-.844.015-1.26.01-.608.028-1.212.054-1.812.026-.608.071-1.215.137-1.823.041-.416.063-.828.064-1.236.009-.416.034-.836.075-1.26.066-.6.152-1.195.258-1.787.114-.592.267-1.175.46-1.75a4.09 4.09 0 01.267-.636 9.08 9.08 0 01.338-.61 1.52 1.52 0 01.541-.563 2.58 2.58 0 01.733-.298 3.9 3.9 0 01.588-.094c.2-.023.404-.035.612-.034zm5.516 15.185c-.304 0-.492-.161-.563-.481a.832.832 0 01-.035-.24l-.237-5.173c.001-.472.007-.928.016-1.368l.002-.564c.008-.192.013-.376.013-.552.009-.184.013-.352.014-.504l.001-.396.001-.312c-.014-.824-.02-1.644-.017-2.46l.007-2.388c0-.216.041-.376.122-.48.088-.111.236-.179.444-.202a12.028 12.028 0 011.032-.045 13.546 13.546 0 011.128.051c.208.017.36.082.456.194.095.104.155.26.178.468.008.064.012.136.012.216v.204l-.01 2.856c-.002.96-.001 1.928.004 2.904v.3a.411.411 0 00.132-.18c.024-.055.044-.111.06-.167.331-.967.686-1.97 1.065-3.009.38-1.046.782-2.097 1.21-3.152.032-.064.06-.128.084-.192a.95.95 0 01.097-.203.54.54 0 01.468-.239h.072c.032 0 .064.009.096.025.232.088.347.265.347.529a.757.757 0 01-.037.24 4.17 4.17 0 01-.085.227c-.451 1.12-.878 2.23-1.281 3.332a155.338 155.338 0 00-1.114 3.189c-.089.256-.181.507-.278.755-.089.24-.186.48-.29.72a.746.746 0 00-.061.251c0 .08.031.176.095.288.446.802.868 1.531 1.266 2.188.406.666.836 1.29 1.29 1.876.104.137.231.257.383.362.04.024.076.048.108.072l.12.096c.135.12.203.265.202.433a.498.498 0 01-.097.3.5.5 0 01-.444.238.653.653 0 01-.24-.06 2.05 2.05 0 01-.515-.338 3.913 3.913 0 01-.43-.457 32.415 32.415 0 01-.897-1.275 14.77 14.77 0 01-.895-1.563 1.369 1.369 0 00-.144-.229c-.055-.08-.123-.176-.203-.288a4.363 4.363 0 00-.013.312v.288c-.001.208.002.404.01.588l.046.564c.023.272.042.544.057.816.016.272.023.544.022.816v.192c-.017.216-.074.372-.17.468-.088.103-.236.159-.444.166a8.679 8.679 0 01-.456.01h-.456l-1.248-.017zm12.616.052c-.184-.009-.324-.06-.42-.157a.48.48 0 01-.142-.373l.024-.18a1.77 1.77 0 00.05-.407c.008-.136.02-.272.037-.408.016-.168.029-.408.038-.72.017-.312.03-.656.039-1.032.017-.368.026-.748.027-1.14.01-.4.014-.768.015-1.104.01-.344.014-.64.015-.888.009-.248.013-.408.013-.48.002-.368-.001-.756-.008-1.164-.007-.416-.01-.84-.008-1.272v-.312c0-.048-.015-.076-.047-.084a.254.254 0 00-.085.12 1.11 1.11 0 01-.036.132l-.485 1.75a72.427 72.427 0 01-.51 1.75 67.318 67.318 0 00-.654 2.314 15.224 15.224 0 01-.75 2.182c-.081.184-.158.363-.23.54a6.024 6.024 0 01-.242.514c-.129.264-.317.396-.565.395l-.18-.025c-.344-.073-.527-.306-.55-.698v-.143l.025-.145c.05-.895.11-1.807.176-2.735.075-.936.15-1.88.224-2.831.067-.848.114-1.688.14-2.52.026-.84.04-1.684.044-2.532l.002-.972c.001-.32-.002-.628-.009-.924l-.009-1.056a.543.543 0 01.145-.371.584.584 0 01.36-.167h.025c.136 0 .252.04.347.121.096.08.16.197.191.349.016.08.024.16.024.24 0 .08.003.16.011.24.015.208.023.432.022.672.007.232.01.468.01.708l-.018 2.16c-.003.92-.034 1.832-.093 2.736-.058.903-.12 1.811-.188 2.723a4.636 4.636 0 00-.05.696 2.288 2.288 0 00.047.456c.024-.064.048-.124.073-.18.024-.056.044-.116.06-.18.137-.463.27-.923.4-1.378.138-.456.27-.916.4-1.38.348-1.238.692-2.465 1.031-3.68.348-1.223.615-2.458.803-3.705.025-.184.081-.32.17-.408.096-.088.244-.14.444-.154a20.644 20.644 0 011.368-.044c.336 0 .664.014.984.039.192.017.34.081.443.193a.6.6 0 01.167.445l-.001.276c0 .2.003.4.01.6.008.192.011.388.01.588v.24c-.017.36-.026.732-.027 1.116l-.004 1.164-.004 1.284c.007.416.018.84.032 1.272l.01.564v.192c0 .136-.005.324-.013.564-.001.232-.006.492-.015.78l-.026.924-.027.948c-.001.304-.006.592-.015.864-.009.28-.013.516-.014.708 0 .248-.013.492-.038.732-.025.247-.046.495-.062.743 0 .144-.025.288-.073.432-.09.304-.29.455-.602.454l-1.128.02c-.368.008-.744.01-1.128.01z" fill="#fff"/></svg>