<svg width="84" height="38" fill="none" xmlns="http://www.w3.org/2000/svg"><path d="M5.548 23.956l-3.137-3.489L1.137 6.964C2.793 5.116 8.462 1.401 17.9 1.332c11.796-.087-4.122-.932 9.403-.25 13.526.683 19.814 1.077 24.575 1.268 4.76.19 12.07.486 18.26 2.836 4.95 1.88 9.429 5.283 11.05 6.749-.512.26-1.244 1.099-.086 2.378 1.159 1.28 1.726 3.199 1.865 3.999-.685.44-2.059 1.43-2.075 1.878-.02.56-4.535.519-2.305 1.309 1.784.632 2.177 2.282 2.15 3.029-1.779.629-6.14 1.883-9.35 1.866-3.212-.017-6.036.365-7.046.558l-.04 1.12c1.496.246 4.187.784 2.977.96-1.514.22-2.992-.54-4.26-.171-1.268.37-1.052 1.148.441 1.488.3.183.468.309.559.391l.188-.01c-.07.028-.105.056-.12.08-.046.072.089.108 0 0a.677.677 0 00-.068-.07c-.91.06-.958.224-.589.449.393.24-.015.63.732.8l3.222.9-4.009-.16c-2.205-.09-1.784.768-1.297 1.208-.589.07-2.113.14-3.508-.14-1.744-.35-1.008.099-4.02.118-2.409.016-1.194-.353-5.285-.563.34-.174.571-.538-1.233-.61-2.255-.09-.506-.091-3.272.078-2.766.17 7.945-.736-.574-1.078-6.815-.273-5.025-.412-6.278-.463-3.942.31-13.279.84-19.088.496-7.26-.432-13.475-2.082-13.47-2.222.004-.112-1.304-.94-1.96-1.34.66.26 1.985.64 2.005.08.02-.56-1.258-2.245-1.9-3.018l2.055-1.32zm4.476 8.166c-.802-.032-.855.526-.782.81l-1.634.074c-.81.435-2.278 1.282-1.673 1.194.605-.088 1.769-.35 2.275-.47.34-.172 2.626-.454 9.04-.197 8.018.322 7.276.012 8.028.042.752.03-14.252-1.413-15.254-1.453z" fill="#FDA3C4"/><path d="M26.13 23.807c.16 0 .315-.027.467-.082a5.54 5.54 0 00.457-.19 2.8 2.8 0 00.54-.335c.161-.12.302-.279.422-.479.12-.191.214-.43.278-.719a5.27 5.27 0 00.135-1.067l-.011-.204a1.12 1.12 0 01-.012-.156l.001-.18v-.156c0-.056-.003-.112-.011-.168-.023-.528-.226-.793-.61-.794-.096 0-.216.019-.36.059-.28.087-.564.162-.853.225a16.1 16.1 0 01-.864.141c-.12.016-.2.051-.24.107a.42.42 0 00-.049.228l-.066 1.98h.012c0 .208 0 .416-.002.624 0 .208.003.416.01.624.008.176.04.292.096.348.056.064.171.117.347.157.104.025.208.037.312.037zm-.633-5.342a3.68 3.68 0 01.324-.143c.112-.047.224-.099.336-.154.337-.16.613-.367.83-.622.225-.263.382-.575.47-.934.106-.44.187-.876.245-1.308.065-.44.098-.883.1-1.331 0-.248-.011-.496-.034-.744a14.08 14.08 0 00-.094-.757 2.741 2.741 0 00-.13-.456 2.184 2.184 0 00-.216-.433 1.289 1.289 0 00-.479-.41 1.184 1.184 0 00-.575-.145c-.208 0-.396.038-.565.118a.31.31 0 00-.132.108.237.237 0 00-.036.143l-.088 1.152c-.016.272-.029.54-.038.804l-.002.804c-.002.616.004 1.228.019 1.836.014.608.02 1.224.018 1.848l-.001.456c0 .016.004.04.012.072l.036.096zm-.571 6.515c-.248-.001-.496-.01-.744-.027a4.463 4.463 0 01-.72-.11 2.596 2.596 0 01-.515-.17 26.231 26.231 0 00-.468-.217.58.58 0 01-.31-.337 1.567 1.567 0 01-.06-.445l-.02-1.08c-.007-.352-.01-.708-.01-1.068l.108-3.887a77.982 77.982 0 00-.04-2.748l-.01-.709c.001-.56.019-1.12.053-1.68.033-.56.063-1.12.088-1.68.01-.207.058-.363.146-.467.096-.111.26-.199.493-.262.272-.071.544-.134.816-.19a5.72 5.72 0 01.828-.105l.492-.01c.472.001.944.039 1.416.112.608.09 1.103.324 1.486.701.383.377.642.87.776 1.479.063.296.106.592.13.888.03.288.046.58.045.876a9.356 9.356 0 01-.05.924c-.026.312-.059.624-.1.936-.04.272-.085.544-.134.815a5.326 5.326 0 01-.206.78 4.17 4.17 0 01-.217.42c-.08.135-.165.274-.254.418.096.032.184.057.264.073.08.016.156.04.228.073.288.137.52.317.694.542.184.217.295.485.334.805.047.336.07.676.07 1.02a11.452 11.452 0 01-.05.816c-.01.168-.022.324-.038.468l-.037.336c-.041.304-.126.58-.255.827-.12.248-.29.475-.506.682a5.556 5.556 0 01-1.226.837c-.433.214-.91.329-1.43.343-.183.007-.363.01-.54.01a9.932 9.932 0 01-.527.01zm6.878.142c-.288-.001-.492-.054-.612-.158-.111-.097-.17-.297-.178-.6l-.023-.42.002-.409.013-.468.028-1.38a23.6 23.6 0 00-.032-1.308 34.18 34.18 0 01-.02-1.32c0-.352.013-.708.038-1.068l.003-.768c.025-.56.047-1.116.064-1.668a37.145 37.145 0 00.01-3.228l-.01-.66.001-.528.026-.54c.016-.232.069-.395.157-.491.088-.104.249-.171.48-.203.32-.046.657-.07 1.009-.068h.276l1.2.005a58.836 58.836 0 013.204.034l.168.024c.056.009.112.02.168.037.111.04.2.105.263.193a.48.48 0 01.095.288v.072c-.033.248-.173.403-.421.467a3.98 3.98 0 01-.132.023h-.204a3.468 3.468 0 00-.288-.013l-.276-.001c-.224 0-.448.002-.672.01l-.672.021-.288-.024c-.096 0-.192.003-.288.01a3.465 3.465 0 01-.288.012c-.16 0-.24.075-.241.227l-.014.576c.015.432.026.864.032 1.296.015.432.022.868.02 1.308 0 .528-.01 1.06-.028 1.596a33.31 33.31 0 01-.076 1.44 2.916 2.916 0 00-.013.264v.264l-.001.168c0 .072.004.128.011.168.008.04.028.072.06.096.032.024.076.04.132.048.064.009.148.013.252.013l.276.013.54-.01c.096 0 .192.004.288.013a.88.88 0 01.288.049.49.49 0 01.287.217.51.51 0 01.107.312.567.567 0 01-.193.455.449.449 0 01-.312.12l-.108-.013a1.167 1.167 0 00-.228-.025 2.083 2.083 0 00-.228-.012l-.552.01-.36-.002c-.104 0-.176.024-.216.072-.033.04-.049.112-.049.216v.096c.015.168.023.336.022.504l-.001.492c-.001.344-.006.644-.015.9 0 .256-.005.48-.014.672 0 .2-.005.376-.013.528l-.002.468c0 .168.012.276.036.324.023.056.095.084.215.084l2.76-.123c.113 0 .213.017.3.05.24.088.36.253.36.492v.024c-.002.216-.11.376-.326.48a.811.811 0 01-.264.07c-.08.008-.165.012-.253.012a45.99 45.99 0 00-1.5.067 22.496 22.496 0 01-1.668.043c-.08.007-.164.011-.252.01h-.3c-.256-.001-.516.006-.78.021a8.362 8.362 0 01-.78.034zm11.327-6.6c.048 0 .1-.003.156-.011.064-.008.136-.02.216-.035a.229.229 0 00.072-.012.464.464 0 00.06-.024c.433-.103.753-.294.962-.573.217-.28.354-.623.41-1.03.041-.233.07-.453.087-.66.024-.216.045-.38.061-.492a.604.604 0 00.012-.12v-.12a1.781 1.781 0 00-.01-.216v-.192a9.715 9.715 0 00-.472-2.63 1.826 1.826 0 00-.502-.805 2.471 2.471 0 00-.803-.495 1.62 1.62 0 00-.192-.037l-.192-.048-.095-.013c-.136 0-.205.076-.205.228l.01.516c.015.552.025 1.092.032 1.62.014.52.029.988.044 1.404l-.004 1.404c-.002.544 0 1.108.007 1.692 0 .248.019.42.058.516.04.088.136.133.288.133zm-2.743 6.52a.8.8 0 01-.132-.013.603.603 0 01-.12-.012c-.44-.074-.663-.334-.67-.782a49.462 49.462 0 01-.043-1.597l-.02-1.644a38563.237 38563.237 0 01.01-3.228l.005-1.716c.001-.408-.002-.808-.008-1.2 0-.4-.006-.8-.021-1.2-.015-.44-.026-.88-.032-1.32.001-.44-.006-.88-.02-1.32v-.192c.01-.336.074-.568.194-.695.129-.136.36-.215.697-.238l.456-.01.888.014.96.003.48.026c.68.082 1.25.3 1.714.653.47.354.813.867 1.027 1.54.31.969.487 1.953.532 2.953v.108l-.001.288a6.82 6.82 0 01-.1 1.068c-.032.224-.069.452-.11.684a3.342 3.342 0 01-.302.875 2.56 2.56 0 01-.566.754 2.798 2.798 0 01-.854.55 3.245 3.245 0 01-1.164.212c-.16-.001-.26.01-.3.034-.04.024-.06.096-.06.216l-.004.948c0 .28-.005.564-.014.852l-.003.864v.384c-.001.128.003.256.01.384l.045 1.08c0 .312-.161.508-.482.587a.79.79 0 01-.192.023l-.18.024c-.256.015-.512.022-.768.021l-.768.022h-.084zm7.827-.011a.482.482 0 01-.252-.073.51.51 0 01-.263-.469.64.64 0 01.013-.144l.048-.144a.835.835 0 00.06-.12c.33-.767.689-1.557 1.075-2.372.395-.807.797-1.622 1.207-2.444.089-.192.133-.364.134-.516a3.44 3.44 0 00-.047-.3 1.896 1.896 0 00-.06-.228 63.33 63.33 0 01-.832-2.75c-.253-.914-.503-1.806-.748-2.68a8.627 8.627 0 01-.201-.984 4.862 4.862 0 00-.225-.985.681.681 0 01-.048-.24c0-.168.065-.312.193-.431.129-.12.305-.191.529-.214.192-.016.384-.023.576-.023.192.001.384-.002.576-.01.088 0 .176.005.264.013.088.008.176.013.264.013.168.008.3.02.396.037a.542.542 0 01.24.097c.064.048.115.12.155.216a3.367 3.367 0 01.25.733c.032.112.055.229.07.348.08.457.186.945.32 1.466a81.3 81.3 0 00.476 1.633.452.452 0 00.157-.167 7.93 7.93 0 00.132-.228c.314-.655.632-1.294.954-1.917.33-.623.615-1.21.857-1.761a.73.73 0 01.169-.276.516.516 0 01.564-.13c.2.073.311.217.335.433v.072a.963.963 0 01-.061.348c-.04.104-.085.208-.133.312-.298.59-.612 1.226-.942 1.905a97.77 97.77 0 01-1.038 2.072 27.18 27.18 0 00-.326.683 1.081 1.081 0 00-.11.468c0 .12.02.256.06.408.04.144.09.308.154.493.206.664.4 1.325.583 1.982.19.656.388 1.313.594 1.97.158.504.333 1 .524 1.49.19.488.413.964.668 1.43.023.055.043.107.059.155.016.049.024.1.024.157a.56.56 0 01-.145.371.731.731 0 01-.41.227 2.52 2.52 0 01-.491.07 5.314 5.314 0 01-.504.023l-1.104-.004a.942.942 0 01-.444-.145.787.787 0 01-.263-.361 34.363 34.363 0 00-.631-1.586 12.34 12.34 0 01-.56-1.61c-.04-.152-.079-.3-.119-.445a1.083 1.083 0 00-.155-.348.295.295 0 00-.156.155 3.428 3.428 0 01-.085.18c-.297.591-.583 1.17-.857 1.737a63.712 63.712 0 00-.736 1.654c-.04.096-.08.188-.121.276a.92.92 0 01-.169.263.556.556 0 01-.444.215z" fill="#fff"/></svg>