<svg width="112" height="49" fill="none" xmlns="http://www.w3.org/2000/svg"><path d="M5.013 31.304l-2.56-4.325-.858-16.923c1.407-2.348 6.186-7.105 14.048-7.353 9.827-.309 21.563-1.421 32.82-.794 11.255.628 23.15.93 27.112 1.088 3.963.16 20.04.277 25.161 3.121 4.095 2.275 7.775 6.47 9.102 8.282-.43.335-1.052 1.4-.107 2.986.946 1.586 1.39 3.985 1.493 4.986-.577.563-1.736 1.83-1.756 2.392-.025.703-3.786.728-1.94 1.682 1.476.762 1.779 2.827 1.745 3.764-1.491.82-5.143 2.468-7.817 2.501-2.675.033-5.033.56-5.878.82l-.05 1.405c1.243.285 3.476.913 2.465 1.154-1.264.301-2.484-.627-3.545-.142-1.062.485-2.56 1.48-1.32 1.882.372.34.743.516 1.078.592.416-.067.866-.118 1.203-.148-.22.135-.666.27-1.204.148-.707.115-1.32.277-1.115.462.323.295 1.643.77 2.262.97l1.005 1.096-3.337-.133c-1.835-.074-1.497.995-1.099 1.539-.49.097-1.762.21-2.92-.117-1.447-.41-.84.142-3.35.217-2.006.06-9.317-.315-12.721-.51.286-.224.484-.685-1.018-.745-1.877-.075-2.086-.084-4.392.176-2.307.259-18.354-.737-25.445-1.022l-10.22-.41c-3.288.455-11.073 1.28-15.906.945-6.042-.418-11.194-2.384-11.187-2.56.005-.14-1.073-1.157-1.612-1.648.545.316 1.643.77 1.668.067.025-.702-1.014-2.797-1.536-3.756l1.73-1.69zm3.605 10.172c-.668-.027-.72.675-.664 1.029l-1.362.12c-.681.56-1.917 1.648-1.412 1.528.506-.121 1.479-.469 1.902-.628.287-.223 2.194-.615 7.534-.401 6.674.268 6.06-.109 6.686-.084.626.025-11.85-1.53-12.684-1.564z" fill="#FDA3C4"/><path d="M38.416 29.807c.214 0 .422-.036.625-.11a7.38 7.38 0 00.608-.254c.267-.127.508-.276.722-.446.213-.16.4-.372.561-.638.161-.256.285-.575.371-.959.097-.383.157-.858.18-1.423l-.015-.272a1.467 1.467 0 01-.015-.208v-.24l.001-.208c0-.075-.005-.15-.015-.224-.03-.704-.301-1.057-.813-1.059-.128 0-.288.026-.48.078-.374.117-.753.217-1.137.3-.385.074-.769.137-1.153.19-.16.02-.267.067-.32.142-.043.064-.065.165-.065.304l-.088 2.64h.016l-.002.832c-.001.277.004.554.013.832.01.234.053.39.127.464.075.086.229.155.464.21.138.032.277.048.415.049zm-.843-7.123a4.92 4.92 0 01.432-.19c.15-.064.3-.133.449-.207a3.243 3.243 0 001.106-.828c.3-.351.51-.767.628-1.246.14-.587.249-1.168.325-1.743a12.38 12.38 0 00.133-1.776c.001-.33-.014-.661-.045-.992a17.28 17.28 0 00-.125-1.008 3.644 3.644 0 00-.174-.61 2.904 2.904 0 00-.287-.576 1.717 1.717 0 00-.638-.546 1.578 1.578 0 00-.768-.195c-.277 0-.528.052-.752.158a.413.413 0 00-.176.143.319.319 0 00-.05.192l-.115 1.536c-.023.363-.04.72-.052 1.072l-.003 1.072a94.68 94.68 0 00.025 2.448c.02.81.028 1.632.025 2.464l-.002.608a.49.49 0 00.016.096c.01.032.027.075.048.128zm-.761 8.686c-.33-.001-.661-.013-.992-.036a5.958 5.958 0 01-.96-.147 3.465 3.465 0 01-.687-.226 35.2 35.2 0 00-.623-.29c-.213-.107-.351-.257-.415-.45a2.088 2.088 0 01-.078-.591l-.028-1.44c-.01-.47-.013-.945-.012-1.425l.143-5.183a103.669 103.669 0 00-.053-3.664l-.014-.944c.002-.747.026-1.494.07-2.24.046-.747.085-1.493.12-2.24.01-.277.075-.485.193-.623.128-.15.347-.266.657-.35a20 20 0 011.089-.253c.362-.073.73-.12 1.104-.14l.656-.014c.63.002 1.259.052 1.888.15.81.12 1.47.432 1.981.935.51.503.855 1.16 1.034 1.971.084.395.142.79.173 1.185.041.384.062.773.06 1.168a12.07 12.07 0 01-.067 1.232c-.033.416-.077.831-.132 1.247a37.34 37.34 0 01-.179 1.088 7.104 7.104 0 01-.275 1.039 5.55 5.55 0 01-.29.559c-.106.18-.219.367-.337.559.128.043.245.075.352.097.106.021.208.054.304.097.383.182.692.423.925.723.245.289.393.646.445 1.073.063.448.094.902.093 1.36a15.39 15.39 0 01-.067 1.088c-.012.224-.029.432-.05.624l-.05.448a3.335 3.335 0 01-.339 1.103 3.19 3.19 0 01-.675.91 7.408 7.408 0 01-1.635 1.114 4.515 4.515 0 01-1.905.458c-.245.01-.485.015-.72.014-.224.01-.459.014-.704.014zm9.17.19c-.383-.002-.655-.072-.815-.211-.149-.129-.228-.396-.237-.801l-.03-.56v-.544l.019-.624.037-1.84a31.37 31.37 0 00-.043-1.744 48.502 48.502 0 01-.027-1.76c.001-.47.019-.944.052-1.424l.003-1.024c.034-.747.063-1.488.086-2.224a50.05 50.05 0 00.055-2.208 46.257 46.257 0 00-.042-2.096l-.014-.88.002-.704.034-.72c.023-.309.093-.527.21-.655.118-.138.332-.228.641-.27a9.06 9.06 0 011.344-.092l.368.002 1.6.005a77.984 77.984 0 014.272.046l.224.032c.075.011.15.027.224.049.15.054.266.14.351.257a.64.64 0 01.127.384v.096c-.044.331-.231.538-.562.623l-.176.031h-.272a4.61 4.61 0 00-.384-.018l-.368-.001c-.299-.001-.597.003-.896.013l-.896.029-.384-.033a4.65 4.65 0 00-.384.014 4.61 4.61 0 01-.384.015c-.213 0-.32.1-.321.303l-.018.768c.02.576.034 1.152.043 1.728.02.576.029 1.158.027 1.744a71.197 71.197 0 01-.038 2.128 44.304 44.304 0 01-.102 1.92 3.874 3.874 0 00-.017.352v.352l-.002.224c0 .096.005.17.016.224.01.053.037.096.08.128a.38.38 0 00.175.065 2.8 2.8 0 00.336.017l.368.017.72-.014c.128 0 .256.007.384.018a1.2 1.2 0 01.384.065c.17.054.298.15.383.29a.679.679 0 01.143.416.826.826 0 01-.017.192.755.755 0 01-.24.415.598.598 0 01-.417.158l-.144-.016a1.55 1.55 0 00-.304-.033 2.764 2.764 0 00-.304-.017l-.736.014-.48-.002c-.139 0-.235.031-.288.095-.043.053-.065.15-.065.288v.128c.02.224.03.448.03.672l-.002.656c-.002.459-.008.859-.02 1.2a21.9 21.9 0 01-.018.896c-.001.267-.007.501-.018.704l-.002.624c0 .224.015.368.047.432.031.075.127.112.287.113l3.68-.164c.15 0 .283.022.4.065.32.118.48.338.479.658v.032c-.001.288-.146.5-.434.638a1.083 1.083 0 01-.353.095 3.38 3.38 0 01-.336.015 65.4 65.4 0 00-2 .09c-.65.04-1.307.06-1.968.057h-.256a3.38 3.38 0 01-.336.014l-.4-.001c-.341-.001-.688.008-1.04.029-.342.03-.688.046-1.04.044zm15.104-8.8c.064 0 .133-.005.208-.015.085-.01.18-.026.288-.047a.303.303 0 00.096-.016.63.63 0 00.08-.032c.576-.137 1.004-.391 1.282-.764.29-.372.472-.83.548-1.374.054-.31.092-.602.114-.88.033-.287.06-.506.082-.655a.811.811 0 00.017-.16v-.16c0-.107-.005-.203-.015-.288v-.256a12.946 12.946 0 00-.63-3.506c-.147-.449-.37-.807-.668-1.074a3.293 3.293 0 00-1.07-.66 2.175 2.175 0 00-.256-.049 945.2 945.2 0 00-.256-.065l-.128-.016c-.181 0-.272.1-.273.303l.014.688c.02.736.034 1.456.042 2.16.02.694.04 1.318.059 1.873l-.006 1.872a165.1 165.1 0 00.01 2.256c-.001.33.025.56.078.688.053.117.18.176.384.177zm-3.657 8.692c-.054 0-.113-.005-.177-.016a.819.819 0 01-.16-.017c-.586-.098-.883-.445-.892-1.043-.03-.683-.05-1.392-.058-2.128l-.026-2.192a52571.897 52571.897 0 01.012-4.304l.007-2.288a77.918 77.918 0 00-.011-1.6 39.905 39.905 0 00-.028-1.6 97.531 97.531 0 01-.043-1.76 48.502 48.502 0 00-.027-1.76l.001-.256c.012-.448.098-.757.259-.928.17-.18.48-.286.929-.317l.608-.014 1.184.02 1.28.004.64.034c.906.11 1.668.4 2.285.872.628.471 1.085 1.155 1.37 2.052.412 1.292.649 2.605.709 3.939v.144l-.002.384c0 .16-.011.378-.034.655a28.172 28.172 0 01-.245 1.68c-.075.394-.21.783-.403 1.166a3.414 3.414 0 01-.755 1.006 3.73 3.73 0 01-1.138.732c-.448.18-.966.274-1.553.283-.213 0-.346.015-.4.047-.053.032-.08.128-.08.288l-.004 1.264c-.001.373-.008.752-.02 1.136l-.003 1.152-.001.512c0 .17.004.341.014.512l.06 1.44c-.001.416-.215.677-.642.782a1.12 1.12 0 01-.256.031l-.24.031c-.342.02-.683.03-1.024.029l-1.024.029h-.112zm10.435-.014a.644.644 0 01-.336-.097.68.68 0 01-.35-.625c0-.086.005-.15.016-.192l.065-.192c.032-.053.059-.107.08-.16a96.04 96.04 0 011.433-3.163 449.298 449.298 0 011.61-3.259 1.69 1.69 0 00.178-.687 4.56 4.56 0 00-.063-.4 2.53 2.53 0 00-.08-.305 84.38 84.38 0 01-1.109-3.667c-.338-1.217-.67-2.408-.997-3.572a11.457 11.457 0 01-.269-1.313 6.481 6.481 0 00-.3-1.313.918.918 0 01-.063-.32.76.76 0 01.258-.575c.17-.16.406-.255.704-.286.257-.02.513-.03.769-.03.256.002.512-.003.768-.013.117 0 .234.006.352.018.117.01.234.016.352.017.224.011.4.028.527.05a.724.724 0 01.32.128c.085.065.154.16.207.289a4.519 4.519 0 01.333.977c.043.15.074.304.095.464.105.609.247 1.26.426 1.954.19.683.402 1.41.634 2.178a.602.602 0 00.209-.224c.064-.106.123-.207.177-.303.418-.873.842-1.725 1.271-2.556.44-.83.82-1.613 1.143-2.348a.973.973 0 01.225-.367.688.688 0 01.497-.223.72.72 0 01.255.049c.267.097.416.29.447.578v.096c-.001.17-.028.325-.082.463a6.882 6.882 0 01-.177.416 201.16 201.16 0 00-1.255 2.54c-.44.905-.902 1.826-1.384 2.763-.193.394-.338.698-.435.91-.096.203-.145.41-.146.624 0 .16.026.342.079.544.052.193.121.412.206.657.275.886.533 1.767.776 2.643.254.875.518 1.75.793 2.626.211.673.444 1.335.698 1.986.254.652.55 1.288.89 1.907.032.075.059.145.08.209a.656.656 0 01.031.208.744.744 0 01-.193.495.976.976 0 01-.545.302 3.357 3.357 0 01-.656.094c-.224.02-.448.03-.672.03l-1.472-.005a1.256 1.256 0 01-.592-.193 1.049 1.049 0 01-.35-.482 45.97 45.97 0 00-.842-2.114 16.464 16.464 0 01-.746-2.147 43.46 43.46 0 00-.158-.592 1.445 1.445 0 00-.207-.465.394.394 0 00-.209.207c-.032.075-.07.155-.112.24-.397.788-.778 1.56-1.143 2.316a84.738 84.738 0 00-.982 2.205c-.054.128-.108.25-.162.368a1.232 1.232 0 01-.224.35.742.742 0 01-.593.287z" fill="#fff"/></svg>