<svg width="181" height="50" viewBox="0 0 181 50" fill="none" xmlns="http://www.w3.org/2000/svg">
<path d="M5.35189 35.1034L1.92186 30.2108L0.028912 10.6404C1.68591 7.85438 7.47002 2.11917 17.3505 1.46682C29.7011 0.651387 35.4142 -0.173441 49.6073 0.0304171C63.8005 0.234275 124.776 0.439894 129.769 0.439894C134.763 0.439894 159.499 -0.171514 166.078 2.88619C171.341 5.33236 176.172 10.0212 177.93 12.0598C177.406 12.4675 176.673 13.7313 177.94 15.5253C179.206 17.3192 179.879 20.0781 180.058 21.2333C179.359 21.9128 177.961 23.435 177.963 24.0873C177.965 24.9028 173.235 25.1066 175.603 26.1259C177.498 26.9413 177.977 29.3197 177.98 30.4069C176.143 31.4262 171.628 33.5056 168.264 33.6687C164.901 33.8318 161.959 34.552 160.909 34.8918L160.913 36.5228C162.491 36.7946 165.331 37.4197 164.07 37.7458C162.494 38.1535 160.915 37.1343 159.602 37.7458C158.29 38.3574 156.453 39.5806 158.031 39.9883C158.517 40.364 158.991 40.5513 159.416 40.6242C159.938 40.5266 160.502 40.4464 160.924 40.396C160.654 40.5634 160.099 40.7412 159.416 40.6242C158.531 40.7901 157.769 41.0061 158.035 41.2114C158.456 41.5376 160.139 42.0269 160.928 42.2307L162.246 43.4539H158.041C155.728 43.4539 156.204 44.677 156.732 45.2886C156.119 45.4245 154.525 45.6148 153.052 45.2886C151.211 44.8809 152.001 45.4924 148.848 45.6963C146.325 45.8594 132.608 45.7643 128.315 45.6963C128.665 45.4245 128.891 44.8809 126.999 44.8809C124.634 44.8809 124.371 44.8809 121.481 45.2886C118.591 45.6963 52.3574 44.8791 43.4214 44.8791C36.2725 44.8791 45.3573 43.8692 44.0432 43.8692C39.9274 44.5487 25.6713 45.867 19.5733 45.7039C11.9508 45.5001 5.3746 43.4615 5.37405 43.2576C5.37361 43.0945 3.9688 41.9665 3.26646 41.4229C3.96825 41.7627 5.37128 42.2383 5.36906 41.4229C5.36685 40.6075 3.95865 38.2291 3.25483 37.1419L5.35189 35.1034Z" fill="#FFE6EF"/>
<path d="M10.3772 46.7232C9.53611 46.7232 9.50329 47.5387 9.592 47.9464L7.88419 48.1502C7.05375 48.8298 5.55047 50.148 6.1808 49.9849C6.81114 49.8219 8.01893 49.3734 8.54402 49.1695C8.89372 48.8977 11.2752 48.3541 18.0035 48.3541C26.414 48.3541 25.6244 47.9464 26.4129 47.9464C27.2013 47.9464 11.4285 46.7232 10.3772 46.7232Z" fill="#FFE6EF"/>
<path d="M35.9618 31.2527C35.7565 31.2426 35.5512 31.2325 35.3458 31.2224C35.1498 31.2217 34.9445 31.221 34.7299 31.2202L34.0298 31.2316C33.7405 31.2305 33.4793 31.1783 33.2462 31.0747C33.0131 30.9805 32.8081 30.8491 32.6312 30.6805C32.4636 30.5119 32.3241 30.32 32.2127 30.1049C32.1012 29.8899 32.0178 29.6609 31.9624 29.418C31.8608 28.9976 31.7732 28.5773 31.6996 28.157C31.6353 27.7368 31.5664 27.3119 31.4928 26.8823C31.4285 26.49 31.3781 26.0979 31.3418 25.7057C31.3148 25.3043 31.2925 24.8935 31.2749 24.4735C31.2667 24.0534 31.2584 23.6194 31.2502 23.1714C31.2514 22.7234 31.2479 22.252 31.2398 21.7573L31.2577 20.2034C31.2584 19.9514 31.259 19.6994 31.2596 19.4474C31.2603 19.1954 31.2702 18.9481 31.2895 18.7055C31.3382 17.9123 31.5034 17.1663 31.7852 16.4673C32.067 15.7683 32.4233 15.093 32.8543 14.4412C33.2572 13.8453 33.8086 13.5487 34.5086 13.5513L35.8106 13.556L36.5105 13.5726C37.3971 13.6038 38.1663 13.9333 38.818 14.5611C39.0322 14.7672 39.2089 14.9965 39.3483 15.249C39.4877 15.4922 39.5803 15.7632 39.6262 16.062L39.6397 16.2581C39.6393 16.4168 39.6203 16.552 39.5827 16.6639C39.5356 16.8317 39.456 16.9621 39.3437 17.055C39.2315 17.1386 39.1054 17.1801 38.9654 17.1796L38.8814 17.1793C38.7321 17.1601 38.6063 17.1036 38.5038 17.0099C38.4014 16.9069 38.3505 16.7667 38.3509 16.5894L38.3511 16.5054C38.3522 16.0947 38.2316 15.7769 37.9895 15.552C37.7568 15.3272 37.4772 15.1441 37.1509 15.003C37.0577 14.9653 36.9784 14.937 36.9131 14.9181C36.8478 14.8992 36.7825 14.8896 36.7172 14.8894C36.6145 14.889 36.5258 14.9213 36.451 14.9864C36.3761 15.0514 36.2919 15.1538 36.1982 15.2935C35.8047 15.8894 35.4951 16.5136 35.2694 17.1661C35.0438 17.8092 34.9207 18.4948 34.9002 19.2227L34.8804 21.5187C34.8784 22.3307 34.8858 23.0587 34.9029 23.7028C34.9199 24.3468 34.951 24.9676 34.9962 25.5651C35.0413 26.1533 35.1145 26.7322 35.2158 27.3019C35.317 27.881 35.4322 28.4647 35.5613 29.0532C35.5706 29.0999 35.5798 29.1419 35.589 29.1793C35.5982 29.226 35.6121 29.2727 35.6307 29.3195C35.7883 29.7214 36.0211 29.9229 36.3291 29.924C36.4411 29.9244 36.5765 29.8969 36.7353 29.8415C37.025 29.7306 37.2913 29.6009 37.5343 29.4524C37.7774 29.304 37.9925 29.1228 38.1797 28.9088C38.3669 28.7042 38.5168 28.462 38.6296 28.1825C38.7423 27.9029 38.8084 27.5858 38.828 27.2312L38.8432 26.7552C38.8439 26.4846 38.8305 26.2185 38.8032 25.9571C38.7852 25.6957 38.7579 25.4296 38.7212 25.1588C38.7121 25.0654 38.703 24.972 38.6939 24.8787C38.6848 24.7853 38.6804 24.6873 38.6807 24.5846C38.6808 24.538 38.6809 24.496 38.681 24.4586C38.6811 24.4213 38.6858 24.3793 38.6953 24.3327C38.7237 24.1554 38.7941 24.0157 38.9064 23.9134C39.0186 23.8019 39.1541 23.7464 39.3128 23.7469L39.3408 23.747C39.4901 23.7476 39.6207 23.7994 39.7324 23.9025C39.8442 23.9962 39.9138 24.1318 39.9414 24.3092C39.987 24.7294 40.0326 25.1496 40.0782 25.5698C40.1238 25.9806 40.1461 26.396 40.145 26.816C40.1446 26.9747 40.1395 27.1333 40.1298 27.292C40.1201 27.4506 40.1057 27.6092 40.0866 27.7678C40.0388 28.2156 39.9164 28.6258 39.7195 28.9985C39.5225 29.3711 39.2604 29.7061 38.9329 30.0036C38.5213 30.3754 38.0772 30.6771 37.6006 30.9087C37.1241 31.1403 36.5918 31.255 36.0038 31.2528L35.9618 31.2527ZM42.7913 31.3197C42.4087 31.3183 42.1899 31.1029 42.135 30.6733C42.1167 30.5053 42.1031 30.3372 42.0942 30.1692C42.0853 30.0011 42.0764 29.8331 42.0675 29.6651C42.0421 28.6476 42.0073 27.6302 41.9632 26.6127C41.9192 25.5858 41.8938 24.5591 41.887 23.5324C41.8878 23.2337 41.8792 22.935 41.8613 22.6363C41.8434 22.3375 41.8348 22.0388 41.8356 21.7402L41.8813 14.7263C41.9016 14.101 42.2011 13.7615 42.7799 13.7076C43.088 13.6714 43.3914 13.6445 43.6901 13.6269C43.9982 13.6001 44.3062 13.5872 44.6142 13.5883C44.6982 13.5886 44.7822 13.5889 44.8662 13.5892C44.9502 13.5895 45.0389 13.5945 45.1322 13.6042C45.4308 13.624 45.6406 13.6901 45.7617 13.8025C45.8827 13.915 45.9662 14.1159 46.0122 14.4054C46.224 15.5076 46.5057 16.6846 46.8572 17.9366C47.2087 19.1792 47.5835 20.4452 47.9816 21.7347L48.079 21.9591C48.1445 21.9126 48.1819 21.8754 48.1913 21.8475C48.2101 21.8102 48.2242 21.7683 48.2336 21.7216C48.5357 20.3974 48.8656 19.1059 49.2234 17.8472C49.5906 16.5886 49.939 15.3952 50.2685 14.267C50.3816 13.8288 50.6108 13.6103 50.9562 13.6116L51.0402 13.6119C51.2268 13.6406 51.3805 13.7345 51.5015 13.8936C51.6224 14.0433 51.6873 14.2349 51.696 14.4683L51.6878 17.7163L51.6716 18.5982C51.6698 19.2889 51.6774 19.9749 51.6943 20.6563C51.7206 21.3284 51.7516 22.0099 51.7872 22.7007C51.8319 23.4568 51.8672 24.2503 51.8931 25.0811C51.919 25.9118 51.945 26.7053 51.9711 27.4614C51.9891 27.7508 52.0023 28.0355 52.011 28.3155C52.0289 28.6049 52.0468 28.8943 52.0648 29.1837C52.0829 29.3985 52.101 29.6085 52.1192 29.8139C52.1373 30.0287 52.1741 30.2435 52.2295 30.4583L52.2571 30.6404C52.2567 30.7991 52.2003 30.9389 52.088 31.0598C51.985 31.1901 51.8541 31.2736 51.6954 31.3104C51.658 31.3196 51.6067 31.3241 51.5413 31.3238C51.4107 31.3233 51.2895 31.2762 51.1777 31.1825C51.0659 31.0981 50.9822 30.9764 50.9266 30.8176C50.8895 30.7148 50.8618 30.612 50.8434 30.5093C50.8343 30.4159 50.8252 30.3179 50.8161 30.2152C50.718 28.4228 50.6293 26.5978 50.55 24.7401C50.48 22.8825 50.424 21.053 50.3819 19.2515C50.3727 19.2048 50.3635 19.1628 50.3542 19.1254C50.345 19.088 50.3311 19.046 50.3125 18.9992C50.1905 19.2601 50.0965 19.5258 50.0305 19.7962C49.9645 20.0573 49.8985 20.3231 49.8325 20.5935C49.6816 21.2089 49.5354 21.8197 49.3939 22.4259C49.2617 23.0227 49.1295 23.6289 48.9973 24.2444C48.969 24.347 48.9407 24.4542 48.9124 24.5661C48.8842 24.678 48.8465 24.7852 48.7996 24.8877C48.734 25.0088 48.6498 25.0972 48.547 25.1528C48.4535 25.2085 48.3507 25.2361 48.2387 25.2357C48.0241 25.2349 47.847 25.1362 47.7075 24.9397C47.6517 24.8648 47.6099 24.7854 47.5821 24.7013C47.5543 24.6078 47.5266 24.5144 47.4988 24.421C47.2396 23.5893 46.971 22.767 46.693 21.954C46.4151 21.1316 46.1652 20.2954 45.9434 19.4452C45.9248 19.3985 45.911 19.3564 45.9017 19.3191C45.9018 19.2724 45.8786 19.235 45.832 19.2068L45.804 19.2067C45.776 19.2066 45.762 19.2252 45.7619 19.2626C45.7516 19.6079 45.7414 19.9531 45.7312 20.2984C45.7304 20.6344 45.7295 20.9751 45.7286 21.3204C45.7273 21.8524 45.7446 22.3752 45.7807 22.8886C45.8167 23.4021 45.8341 23.9248 45.8327 24.4568C45.8286 26.0902 45.8665 27.7097 45.9464 29.3153C45.9553 29.474 45.9596 29.6373 45.9592 29.8053C45.9681 29.9734 45.9816 30.1414 45.9999 30.3095L46.0135 30.4635C46.0129 30.7062 45.9471 30.888 45.8161 31.0088C45.6945 31.1297 45.5029 31.2083 45.2415 31.2447C44.8401 31.2899 44.4387 31.3071 44.0374 31.2963C43.6361 31.2948 43.2347 31.3027 42.8333 31.3199L42.7913 31.3197ZM59.0026 29.9792C59.2079 29.9799 59.3903 29.8406 59.5497 29.5612C59.6153 29.4401 59.6669 29.3189 59.7046 29.1977C59.7515 29.0859 59.7985 28.9647 59.8455 28.8343C60.1841 27.7902 60.4342 26.7364 60.5955 25.673C60.7662 24.6096 60.8716 23.5226 60.9118 22.4121L60.912 22.3141C60.915 21.1475 60.8105 20.0271 60.5985 18.953C60.3959 17.8695 60.1187 16.7905 59.7667 15.7159C59.7482 15.6691 59.7296 15.6271 59.711 15.5897C59.6925 15.5523 59.6739 15.5102 59.6554 15.4635C59.4973 15.2109 59.2876 15.0841 59.0263 15.0832C58.9237 15.0828 58.8162 15.1104 58.7041 15.166C58.6013 15.2123 58.5125 15.2866 58.4375 15.389C58.2783 15.6031 58.1564 15.8266 58.0718 16.0597C57.9873 16.2927 57.912 16.5304 57.846 16.7728C57.648 17.5655 57.5107 18.363 57.434 19.1654C57.3573 19.9584 57.2946 20.7655 57.2458 21.5867C57.2267 21.7733 57.2169 21.9599 57.2164 22.1466C57.216 22.3332 57.2155 22.5199 57.215 22.7066C57.2123 23.7799 57.2843 24.8115 57.4312 25.8014C57.578 26.7913 57.7902 27.7767 58.0677 28.7577C58.114 28.9166 58.1649 29.0661 58.2206 29.2063C58.2762 29.3558 58.3552 29.4961 58.4575 29.6272C58.6342 29.8611 58.8159 29.9785 59.0026 29.9792ZM56.5212 31.3281C56.3065 31.3273 56.1153 31.2753 55.9476 31.172C55.7891 31.0781 55.6354 30.9608 55.4865 30.8203C55.2444 30.5861 55.0537 30.3287 54.9144 30.0482C54.7845 29.7677 54.6732 29.4733 54.5807 29.1649C54.2753 28.0998 54.0447 27.035 53.8887 25.9704C53.7421 24.8965 53.6703 23.7856 53.6732 22.6376C53.6743 22.1896 53.6895 21.7323 53.7186 21.2657C53.7674 20.4352 53.8395 19.6188 53.9349 18.8165C54.0302 18.0049 54.1769 17.1981 54.375 16.3961C54.5917 15.5662 54.9669 14.8443 55.5005 14.2302C55.6128 14.0906 55.7344 13.9791 55.8653 13.8956C55.9962 13.812 56.155 13.7613 56.3417 13.7433C56.5937 13.7256 56.8458 13.7078 57.0978 13.6901C57.3499 13.6723 57.6066 13.6639 57.8679 13.6649C58.1666 13.666 58.4605 13.6857 58.7498 13.7241C59.039 13.7532 59.3282 13.8103 59.6173 13.8953C59.9811 13.9993 60.2746 14.1731 60.498 14.4166C60.7214 14.66 60.8886 14.9593 60.9997 15.3144C61.259 16.1367 61.4856 16.9635 61.6795 17.7949C61.8827 18.617 62.0252 19.4622 62.107 20.3305C62.1343 20.6106 62.157 20.8907 62.1749 21.1707C62.2022 21.4415 62.2155 21.7122 62.2149 21.9829L62.2141 22.2909C62.1643 23.5134 62.0493 24.703 61.869 25.8597C61.6981 27.007 61.4293 28.1401 61.0624 29.2587C61.0154 29.4172 60.9637 29.5664 60.9073 29.7062C60.8509 29.8553 60.7852 29.9997 60.7102 30.1394C60.4005 30.7916 59.8769 31.1677 59.1393 31.2677C58.9059 31.3042 58.6725 31.3266 58.4392 31.3351C58.2151 31.3436 57.9865 31.3475 57.7531 31.3466L56.5212 31.3281ZM67.6295 31.4388C67.4335 31.4381 67.2375 31.428 67.0416 31.4087C66.8549 31.3986 66.6637 31.3746 66.4677 31.3365C66.2532 31.2891 66.0994 31.2092 66.0064 31.0969C65.9226 30.9939 65.8717 30.8257 65.8536 30.5923C65.7724 29.5 65.7051 28.4124 65.6519 27.3295C65.6079 26.256 65.5874 25.1686 65.5902 24.0673L65.6069 22.9893C65.628 22.0281 65.6397 21.0714 65.6421 20.1195C65.6539 19.1582 65.6844 18.1876 65.7335 17.2078C65.753 16.8905 65.7724 16.5826 65.7919 16.284C65.8206 15.9761 65.854 15.6962 65.892 15.4443L65.8921 15.3883C65.8924 15.267 65.8647 15.1782 65.8088 15.122C65.7623 15.0659 65.6737 15.0282 65.5431 15.0091C65.3005 14.9802 65.0625 14.9653 64.8292 14.9644C64.7452 14.9641 64.6565 14.9638 64.5632 14.9635C64.4792 14.9632 64.3952 14.9675 64.3112 14.9765C64.2272 14.9669 64.1432 14.9619 64.0592 14.9616C63.9752 14.9613 63.8959 14.9517 63.8213 14.9327C63.6814 14.8949 63.5695 14.8245 63.4858 14.7215C63.4021 14.6185 63.3604 14.4971 63.3607 14.3571L63.3608 14.3151C63.3615 14.0631 63.4926 13.8722 63.7543 13.7425C63.8757 13.6963 64.0018 13.6734 64.1325 13.6739L64.3004 13.6885C65.2617 13.7014 66.209 13.7142 67.1423 13.7269C68.085 13.7304 69.037 13.7339 69.9983 13.7374L70.9503 13.7409C71.1183 13.7415 71.3049 13.7655 71.5101 13.8129C71.6687 13.8602 71.7898 13.94 71.8735 14.0523C71.9666 14.1553 72.013 14.2768 72.0126 14.4168L71.9984 14.5147C71.9793 14.664 71.9137 14.7897 71.8014 14.892C71.6892 14.9849 71.5444 15.0357 71.367 15.0444L70.135 15.0399C70.023 15.0395 69.9343 15.0438 69.869 15.0529C69.813 15.0527 69.7709 15.0666 69.7429 15.0945C69.7148 15.1224 69.6914 15.1689 69.6725 15.2342C69.6631 15.2902 69.6535 15.3741 69.6439 15.4861C69.5391 16.3351 69.4716 17.1888 69.4414 18.0474C69.4206 18.8966 69.4091 19.7459 69.407 20.5953L69.4011 22.8913C69.391 23.2179 69.3808 23.5492 69.3706 23.8851C69.3698 24.2118 69.369 24.5385 69.3681 24.8651C69.367 25.3038 69.3706 25.7425 69.3788 26.1812C69.3871 26.6106 69.4093 27.0446 69.4455 27.4834C69.4817 27.9409 69.4992 28.3936 69.4981 28.8416C69.4969 29.299 69.5331 29.7564 69.6066 30.2141C69.6159 30.2421 69.6205 30.2701 69.6204 30.2981C69.6203 30.3354 69.6202 30.3681 69.6201 30.3961L69.6055 30.662C69.577 30.8579 69.5112 31.0117 69.4083 31.1233C69.3147 31.235 69.1698 31.3045 68.9738 31.3317C68.7497 31.3682 68.5256 31.3954 68.3016 31.4133C68.0775 31.4311 67.8535 31.4396 67.6295 31.4388ZM78.1242 23.8192C78.1802 23.8194 78.2409 23.815 78.3062 23.8059C78.3809 23.7969 78.465 23.7832 78.5583 23.7648C78.5863 23.7649 78.6144 23.7604 78.6424 23.7511C78.6704 23.7419 78.6938 23.7327 78.7124 23.7234C79.2168 23.6039 79.5906 23.3813 79.8341 23.0555C80.087 22.7298 80.2466 22.329 80.3132 21.8533C80.3605 21.5828 80.3939 21.3262 80.4131 21.0836C80.4418 20.8317 80.4656 20.6405 80.4846 20.5099C80.494 20.4632 80.4988 20.4166 80.4989 20.3699C80.4991 20.3233 80.4992 20.2766 80.4993 20.2299C80.4995 20.1366 80.4951 20.0526 80.4859 19.9779C80.4861 19.8939 80.4863 19.8192 80.4865 19.7539C80.4425 18.699 80.2584 17.6764 79.9343 16.6858C79.8046 16.2934 79.6094 15.98 79.3486 15.7457C79.0879 15.5021 78.7757 15.3096 78.4121 15.1682C78.3375 15.1493 78.2629 15.135 78.1882 15.1254C78.1136 15.1065 78.039 15.0875 77.9644 15.0686L77.8524 15.0542C77.6937 15.0536 77.6142 15.142 77.6137 15.3193L77.6262 15.9214C77.6432 16.5654 77.6556 17.1955 77.6634 17.8115C77.6805 18.4183 77.6978 18.9643 77.7153 19.4497C77.7141 19.8977 77.7127 20.4437 77.7111 21.0877C77.7095 21.7224 77.7125 22.3804 77.7201 23.0618C77.7194 23.3511 77.7422 23.5518 77.7886 23.664C77.835 23.7668 77.9469 23.8186 78.1242 23.8192ZM74.9269 31.4236C74.8803 31.4234 74.829 31.4185 74.773 31.409C74.7263 31.4088 74.6797 31.404 74.633 31.3945C74.1199 31.3086 73.8593 31.0043 73.8513 30.4816C73.8248 29.8842 73.8077 29.2634 73.8 28.6194C73.7923 27.9847 73.7846 27.3454 73.7769 26.7013C73.7785 26.0573 73.7801 25.418 73.7817 24.7833C73.7834 24.1393 73.7849 23.5233 73.7864 22.9353L73.7915 20.9333C73.7927 20.4573 73.7892 19.9907 73.781 19.5333C73.7822 19.0666 73.7741 18.5999 73.7566 18.1332C73.7392 17.6198 73.7265 17.1064 73.7185 16.593C73.7198 16.0797 73.7118 15.5663 73.6944 15.0529L73.695 14.8289C73.7053 14.437 73.7806 14.1666 73.921 14.0178C74.0707 13.8597 74.3416 13.7673 74.7337 13.7408L75.2657 13.7287L76.3017 13.7465L77.4217 13.7506L77.9816 13.7807C78.7747 13.8769 79.4414 14.1313 79.9817 14.544C80.5313 14.9567 80.9311 15.5555 81.1811 16.3404C81.5423 17.4711 81.7494 18.6198 81.8024 19.7867L81.8021 19.9127C81.8019 19.9874 81.8016 20.0994 81.8013 20.2487C81.8009 20.3887 81.7911 20.58 81.7718 20.8226C81.7527 21.0092 81.7241 21.2331 81.6861 21.4943C81.6481 21.7555 81.6054 22.0213 81.5581 22.2918C81.4919 22.6369 81.3743 22.9772 81.2055 23.3125C81.046 23.6386 80.8259 23.9318 80.5453 24.1921C80.2739 24.4525 79.9421 24.6659 79.5496 24.8325C79.1572 24.9897 78.7044 25.072 78.191 25.0795C78.0043 25.0788 77.8876 25.0924 77.8409 25.1202C77.7942 25.148 77.7706 25.232 77.7703 25.372L77.7675 26.478C77.7666 26.8046 77.7611 27.1359 77.751 27.4719C77.7501 27.8079 77.7493 28.1439 77.7484 28.4799C77.748 28.6292 77.7476 28.7786 77.7473 28.9279C77.7469 29.0772 77.7512 29.2266 77.7601 29.3759L77.8129 30.6361C77.812 31.0001 77.6248 31.2281 77.2512 31.3201C77.1765 31.3385 77.1018 31.3475 77.0271 31.3473C76.9618 31.3564 76.8918 31.3654 76.8171 31.3745C76.5184 31.3921 76.2197 31.4003 75.921 31.3992C75.6223 31.4074 75.3236 31.4157 75.0249 31.4239L74.9269 31.4236ZM84.4353 31.5844C84.0993 31.5832 83.8615 31.5217 83.7218 31.3998C83.5914 31.2873 83.522 31.0537 83.5135 30.699C83.5046 30.5403 83.4957 30.377 83.4868 30.2089C83.4872 30.0503 83.4876 29.8916 83.488 29.7329L83.5034 29.187L83.5354 27.5771C83.5367 27.0638 83.524 26.5551 83.4973 26.051C83.4799 25.5376 83.4719 25.0242 83.4732 24.5109C83.4742 24.1002 83.4893 23.6849 83.5184 23.265L83.5206 22.369C83.5503 21.7158 83.5753 21.0672 83.5955 20.4233C83.6252 19.7701 83.6408 19.1261 83.6424 18.4914C83.644 17.8848 83.6315 17.2734 83.6051 16.6573L83.593 15.8872C83.5936 15.6726 83.5941 15.4672 83.5946 15.2712C83.6044 15.066 83.6143 14.856 83.6242 14.6414C83.6435 14.3708 83.7047 14.1796 83.8076 14.068C83.9106 13.9471 84.0975 13.8684 84.3682 13.8321C84.7417 13.7774 85.1338 13.7509 85.5444 13.7524L85.8664 13.7536C86.3424 13.7553 86.8091 13.757 87.2664 13.7587C87.7238 13.751 88.1905 13.7481 88.6665 13.7498C89.4505 13.7527 90.2297 13.7696 91.0043 13.8004C91.0696 13.81 91.135 13.8196 91.2003 13.8291C91.2656 13.8387 91.3309 13.8529 91.3962 13.8718C91.5267 13.919 91.6292 13.994 91.7036 14.097C91.778 14.1999 91.815 14.3121 91.8147 14.4334L91.8145 14.5174C91.7765 14.8066 91.6127 14.988 91.3231 15.0616C91.2765 15.0707 91.2251 15.0799 91.1691 15.089C91.1224 15.0889 91.0757 15.0887 91.0291 15.0885L90.9311 15.0881C90.8191 15.0784 90.7071 15.0733 90.5951 15.0729C90.4924 15.0725 90.3851 15.0721 90.2731 15.0717C90.0118 15.0708 89.7504 15.0745 89.4891 15.0829C89.2277 15.0912 88.9664 15.0996 88.705 15.108L88.3691 15.0788C88.2571 15.0783 88.1451 15.0826 88.0331 15.0915C87.921 15.1004 87.809 15.1047 87.697 15.1043C87.5104 15.1036 87.4168 15.1919 87.4164 15.3693L87.4007 16.0412C87.418 16.5453 87.4308 17.0493 87.4388 17.5534C87.4562 18.0574 87.4643 18.5661 87.463 19.0795C87.4614 19.6955 87.4505 20.3161 87.4302 20.9413C87.41 21.5573 87.3806 22.1172 87.342 22.621C87.3324 22.7237 87.3275 22.8263 87.3272 22.929C87.327 23.0316 87.3267 23.1343 87.3264 23.237L87.3259 23.433C87.3257 23.517 87.3302 23.5823 87.3394 23.629C87.3487 23.6757 87.3719 23.7132 87.4092 23.7413C87.4464 23.7694 87.4977 23.7883 87.563 23.7979C87.6377 23.8075 87.7356 23.8125 87.857 23.8129L88.1789 23.8281L88.809 23.8164C88.921 23.8168 89.033 23.8219 89.1449 23.8317C89.2569 23.8321 89.3689 23.8511 89.4808 23.8889C89.63 23.9361 89.7418 24.0205 89.8161 24.1421C89.8999 24.2544 89.9416 24.3759 89.9412 24.5066C89.941 24.5812 89.9362 24.6372 89.9268 24.6745C89.8984 24.8144 89.8281 24.9355 89.7159 25.0378C89.613 25.1307 89.4915 25.1769 89.3515 25.1764L89.2256 25.162C89.1323 25.1429 89.0436 25.1333 88.9596 25.133C88.8757 25.1233 88.787 25.1183 88.6937 25.118L88.0496 25.1296L87.6296 25.1281C87.5083 25.1277 87.4242 25.1554 87.3774 25.2112C87.34 25.2577 87.3211 25.3416 87.3208 25.463L87.3205 25.575C87.3387 25.771 87.3475 25.9671 87.347 26.1631C87.3466 26.3497 87.3461 26.5411 87.3456 26.7371C87.3446 27.1384 87.339 27.4884 87.3289 27.787C87.3282 28.0857 87.3228 28.347 87.3129 28.571C87.3123 28.8043 87.3072 29.0096 87.2974 29.1869C87.2969 29.3736 87.2964 29.5556 87.296 29.7329C87.2955 29.9289 87.3092 30.055 87.337 30.1111C87.3649 30.1765 87.4488 30.2095 87.5888 30.21L90.8091 30.0678C90.9398 30.0683 91.0564 30.0874 91.159 30.1251C91.4387 30.2288 91.5783 30.4206 91.5775 30.7006L91.5775 30.7286C91.5768 30.9806 91.4504 31.1668 91.1981 31.2872C91.0953 31.3335 90.9925 31.3611 90.8899 31.3701C90.7965 31.3791 90.6985 31.3834 90.5958 31.383C90.0078 31.3995 89.4244 31.4254 88.8456 31.4606C88.2762 31.4958 87.7022 31.5124 87.1235 31.5103C87.0675 31.5101 86.9928 31.5098 86.8995 31.5095C86.8061 31.5185 86.7081 31.5228 86.6055 31.5224L86.2555 31.5211C85.9568 31.52 85.6534 31.5282 85.3454 31.5458C85.0467 31.5727 84.7433 31.5856 84.4353 31.5844ZM96.9281 31.5462C96.7321 31.5455 96.5362 31.5355 96.3402 31.5161C96.1536 31.5061 95.9623 31.482 95.7664 31.444C95.5518 31.3965 95.398 31.3166 95.305 31.2043C95.2212 31.1013 95.1703 30.9331 95.1523 30.6997C95.071 29.6074 95.0038 28.5198 94.9505 27.437C94.9066 26.3635 94.886 25.276 94.8888 24.1747L94.9055 23.0968C94.9266 22.1355 94.9384 21.1789 94.9408 20.2269C94.9525 19.2656 94.983 18.295 95.0322 17.3152C95.0516 16.9979 95.0711 16.69 95.0905 16.3914C95.1193 16.0835 95.1526 15.8036 95.1906 15.5518L95.1908 15.4958C95.1911 15.3744 95.1633 15.2857 95.1074 15.2295C95.0609 15.1733 94.9723 15.1356 94.8417 15.1165C94.5991 15.0876 94.3612 15.0727 94.1278 15.0719C94.0438 15.0716 93.9552 15.0712 93.8618 15.0709C93.7778 15.0706 93.6938 15.0749 93.6098 15.084C93.5258 15.0743 93.4418 15.0694 93.3578 15.069C93.2738 15.0687 93.1945 15.0591 93.1199 15.0402C92.98 15.0023 92.8682 14.9319 92.7844 14.8289C92.7007 14.726 92.659 14.6045 92.6594 14.4645L92.6595 14.4225C92.6601 14.1705 92.7913 13.9796 93.0529 13.8499C93.1744 13.8037 93.3004 13.7808 93.4311 13.7813L93.5991 13.7959C94.5604 13.8088 95.5077 13.8216 96.441 13.8343C97.3836 13.8378 98.3356 13.8413 99.2969 13.8448L100.249 13.8483C100.417 13.8489 100.604 13.8729 100.809 13.9204C100.967 13.9676 101.088 14.0474 101.172 14.1597C101.265 14.2627 101.312 14.3842 101.311 14.5242L101.297 14.6222C101.278 14.7714 101.212 14.8972 101.1 14.9994C100.988 15.0924 100.843 15.1432 100.666 15.1518L99.4337 15.1473C99.3217 15.1469 99.233 15.1513 99.1676 15.1604C99.1116 15.1601 99.0696 15.174 99.0415 15.2019C99.0134 15.2298 98.99 15.2764 98.9712 15.3416C98.9617 15.3976 98.9521 15.4816 98.9425 15.5935C98.8377 16.4425 98.7702 17.2962 98.74 18.1548C98.7192 19.0041 98.7077 19.8534 98.7056 20.7027L98.6998 22.9987C98.6896 23.3253 98.6794 23.6566 98.6693 23.9926C98.6684 24.3192 98.6676 24.6459 98.6668 24.9726C98.6657 25.4112 98.6692 25.8499 98.6774 26.2886C98.6857 26.718 98.7079 27.1521 98.7441 27.5909C98.7803 28.0483 98.7978 28.5011 98.7967 28.9491C98.7955 29.4064 98.8317 29.8639 98.9052 30.3215C98.9145 30.3495 98.9191 30.3775 98.919 30.4055C98.9189 30.4429 98.9188 30.4755 98.9188 30.5035L98.9041 30.7695C98.8756 30.9654 98.8099 31.1191 98.7069 31.2308C98.6133 31.3424 98.4685 31.4119 98.2724 31.4392C98.0483 31.4757 97.8242 31.5029 97.6002 31.5207C97.3761 31.5385 97.1521 31.5471 96.9281 31.5462ZM107.429 21.4627C107.252 21.462 107.14 21.5176 107.093 21.6294C107.046 21.7319 107.022 21.9279 107.021 22.2172C107.01 22.8985 107.004 23.5611 107.002 24.2051C107.001 24.8398 106.999 25.3811 106.998 25.8291C106.978 26.3144 106.958 26.8603 106.938 27.4669C106.927 28.0829 106.911 28.7128 106.891 29.3568L106.876 29.9587C106.875 30.136 106.954 30.225 107.113 30.2256L107.225 30.212C107.3 30.1936 107.374 30.1752 107.449 30.1568C107.524 30.1477 107.598 30.134 107.673 30.1156C108.038 29.977 108.351 29.7868 108.613 29.5451C108.875 29.3127 109.071 29.0007 109.203 28.6092C109.532 27.6211 109.721 26.5998 109.771 25.5453C109.771 25.48 109.771 25.41 109.771 25.3353C109.781 25.2513 109.786 25.1627 109.786 25.0693C109.786 25.0227 109.786 24.976 109.786 24.9293C109.786 24.8827 109.782 24.836 109.773 24.7893C109.754 24.6586 109.731 24.4718 109.704 24.229C109.686 23.977 109.654 23.7155 109.608 23.4447C109.544 22.9684 109.386 22.5665 109.135 22.2389C108.893 21.9114 108.521 21.686 108.017 21.5628C107.998 21.5534 107.975 21.544 107.947 21.5346C107.919 21.5251 107.891 21.5204 107.863 21.5203C107.77 21.5013 107.686 21.487 107.611 21.4773C107.546 21.4678 107.485 21.4629 107.429 21.4627ZM104.27 13.8351L104.368 13.8354C104.667 13.8458 104.966 13.8563 105.264 13.8667C105.563 13.8678 105.862 13.8782 106.16 13.898C106.235 13.9076 106.305 13.9172 106.37 13.9268C106.445 13.927 106.519 13.9366 106.594 13.9556C106.967 14.0503 107.153 14.2796 107.152 14.6436L107.093 15.9034C107.083 16.0527 107.078 16.202 107.078 16.3514C107.078 16.5007 107.077 16.65 107.077 16.7994C107.076 17.1354 107.075 17.4714 107.074 17.8074C107.083 18.1434 107.087 18.4747 107.086 18.8014L107.083 19.9074C107.083 20.0474 107.106 20.1315 107.152 20.1597C107.199 20.1878 107.316 20.2023 107.502 20.2029C108.016 20.2142 108.468 20.3045 108.86 20.4739C109.251 20.634 109.582 20.8452 109.852 21.1076C110.131 21.3699 110.35 21.6694 110.508 22.006C110.675 22.3333 110.791 22.6697 110.855 23.0153C110.901 23.2861 110.942 23.5522 110.979 23.8137C111.016 24.0752 111.043 24.2993 111.061 24.486C111.079 24.7288 111.088 24.9248 111.088 25.0741C111.088 25.2141 111.087 25.3215 111.087 25.3961L111.087 25.5221C111.028 26.6886 110.815 27.8358 110.448 28.9638C110.194 29.7469 109.791 30.3427 109.24 30.7514C108.697 31.1601 108.029 31.4096 107.236 31.5L106.676 31.526L105.556 31.5219L104.52 31.5321L103.988 31.5161C103.596 31.4867 103.325 31.3924 103.176 31.2331C103.037 31.0833 102.963 30.8124 102.954 30.4203L102.955 30.1963C102.975 29.6831 102.986 29.1698 102.987 28.6564C102.997 28.1431 103.013 27.6299 103.033 27.1166C103.053 26.65 103.063 26.188 103.064 25.7307C103.075 25.2641 103.081 24.7928 103.082 24.3168L103.087 22.3148C103.088 21.7268 103.09 21.1154 103.092 20.4808C103.093 19.8368 103.095 19.1928 103.096 18.5488C103.107 17.9048 103.118 17.2655 103.129 16.6309C103.14 15.9869 103.161 15.3663 103.19 14.7691C103.201 14.2465 103.463 13.9441 103.976 13.862C104.023 13.8528 104.07 13.8483 104.116 13.8485C104.172 13.8394 104.224 13.8349 104.27 13.8351ZM124.49 30.2193C124.676 30.22 124.858 30.188 125.036 30.1233C125.213 30.0586 125.391 29.9846 125.568 29.9012C125.802 29.7901 126.012 29.6602 126.199 29.5116C126.387 29.3722 126.55 29.1862 126.691 28.9534C126.831 28.7299 126.94 28.4503 127.015 28.1145C127.1 27.7788 127.152 27.3637 127.172 26.8691L127.159 26.6311C127.15 26.5657 127.145 26.505 127.145 26.449C127.145 26.3837 127.146 26.3137 127.146 26.239C127.146 26.1737 127.146 26.113 127.146 26.057C127.146 25.9917 127.142 25.9263 127.133 25.861C127.106 25.2449 126.869 24.936 126.421 24.9343C126.309 24.9339 126.169 24.9568 126.001 25.0028C125.674 25.1043 125.342 25.1917 125.006 25.2652C124.67 25.3293 124.334 25.384 123.998 25.4295C123.858 25.4476 123.764 25.4893 123.717 25.5544C123.68 25.6103 123.661 25.6989 123.661 25.8202L123.585 28.13L123.599 28.13C123.598 28.3727 123.598 28.6153 123.597 28.858C123.597 29.1007 123.601 29.3434 123.609 29.5861C123.618 29.7914 123.655 29.9269 123.72 29.9925C123.785 30.0674 123.921 30.1285 124.126 30.176C124.247 30.2044 124.368 30.2188 124.49 30.2193ZM123.749 23.9865C123.88 23.9217 124.006 23.8661 124.128 23.8199C124.259 23.7644 124.39 23.7042 124.52 23.6394C124.913 23.4541 125.235 23.2127 125.488 22.9149C125.75 22.6079 125.933 22.2445 126.037 21.8249C126.16 21.312 126.254 20.8037 126.321 20.2999C126.397 19.7869 126.435 19.269 126.437 18.7464C126.437 18.457 126.424 18.1676 126.397 17.8782C126.37 17.5888 126.333 17.2946 126.287 16.9958C126.25 16.809 126.199 16.6315 126.135 16.4632C126.07 16.2857 125.986 16.1174 125.884 15.9583C125.726 15.7431 125.539 15.5837 125.325 15.4803C125.12 15.3675 124.896 15.3107 124.653 15.3098C124.411 15.3089 124.191 15.3548 123.995 15.4474C123.92 15.4844 123.869 15.5263 123.841 15.5728C123.813 15.6101 123.799 15.666 123.798 15.7407L123.697 17.0843C123.677 17.4016 123.663 17.7142 123.653 18.0221C123.652 18.3301 123.651 18.6428 123.65 18.9601C123.648 19.6788 123.656 20.3928 123.673 21.1022C123.69 21.8116 123.697 22.5303 123.695 23.2583L123.694 23.7903C123.694 23.809 123.699 23.837 123.708 23.8744C123.717 23.9024 123.731 23.9398 123.749 23.9865ZM123.086 31.5862C122.797 31.5851 122.508 31.5747 122.218 31.555C121.938 31.5353 121.658 31.4923 121.379 31.4259C121.164 31.3784 120.964 31.3124 120.777 31.2277C120.6 31.143 120.418 31.0584 120.232 30.9737C120.045 30.8797 119.924 30.7486 119.869 30.5804C119.822 30.4215 119.8 30.2488 119.8 30.0621C119.792 29.6421 119.784 29.222 119.775 28.802C119.767 28.3913 119.763 27.9759 119.764 27.5559L119.888 23.0204C119.889 22.4884 119.886 21.9564 119.878 21.4243C119.87 20.883 119.857 20.3462 119.84 19.8142L119.828 18.9881C119.83 18.3348 119.85 17.6815 119.889 17.0283C119.928 16.3751 119.962 15.7219 119.992 15.0687C120.002 14.8261 120.058 14.6443 120.161 14.5233C120.274 14.3931 120.465 14.2911 120.736 14.2174C121.054 14.1346 121.371 14.0611 121.689 13.9969C122.006 13.9328 122.328 13.8919 122.655 13.8745L123.229 13.8626C123.78 13.8646 124.33 13.9086 124.881 13.9946C125.59 14.0999 126.168 14.3727 126.615 14.813C127.062 15.2533 127.363 15.8284 127.52 16.5383C127.594 16.8839 127.645 17.2294 127.672 17.5749C127.708 17.911 127.726 18.2518 127.725 18.5971C127.724 18.9518 127.705 19.311 127.666 19.6749C127.637 20.0388 127.599 20.4026 127.552 20.7665C127.504 21.0836 127.452 21.4008 127.395 21.7179C127.338 22.0257 127.258 22.3287 127.155 22.627C127.08 22.7947 126.995 22.9578 126.902 23.1161C126.808 23.2744 126.71 23.4374 126.606 23.605C126.718 23.6428 126.821 23.6711 126.914 23.6901C127.008 23.7092 127.096 23.7375 127.18 23.7751C127.516 23.935 127.786 24.146 127.99 24.4081C128.204 24.6609 128.334 24.974 128.38 25.3475C128.435 25.7397 128.462 26.1365 128.461 26.5378C128.461 26.6218 128.456 26.7525 128.446 26.9298C128.436 27.1071 128.422 27.2937 128.403 27.4896C128.393 27.6856 128.378 27.8675 128.359 28.0355C128.34 28.2127 128.326 28.3433 128.316 28.4273C128.269 28.7818 128.17 29.1034 128.02 29.3922C127.879 29.6811 127.682 29.9463 127.43 30.1881C126.981 30.5878 126.504 30.9127 125.999 31.1628C125.495 31.413 124.939 31.5463 124.332 31.5627C124.118 31.5713 123.908 31.5752 123.702 31.5744C123.506 31.583 123.301 31.5869 123.086 31.5862ZM134.877 31.6154C134.672 31.6053 134.467 31.5952 134.261 31.5851C134.065 31.5844 133.86 31.5837 133.645 31.5829L132.945 31.5943C132.656 31.5932 132.395 31.541 132.162 31.4374C131.928 31.3432 131.723 31.2118 131.547 31.0432C131.379 30.8746 131.239 30.6827 131.128 30.4676C131.017 30.2526 130.933 30.0236 130.878 29.7807C130.776 29.3603 130.689 28.94 130.615 28.5197C130.551 28.0995 130.482 27.6746 130.408 27.245C130.344 26.8527 130.294 26.4606 130.257 26.0684C130.23 25.667 130.208 25.2562 130.19 24.8362C130.182 24.4161 130.174 23.9821 130.166 23.5341C130.167 23.0861 130.163 22.6147 130.155 22.12L130.173 20.5661C130.174 20.3141 130.174 20.0621 130.175 19.8101C130.176 19.5581 130.186 19.3108 130.205 19.0682C130.254 18.275 130.419 17.529 130.701 16.83C130.982 16.131 131.339 15.4556 131.77 14.8039C132.173 14.208 132.724 13.9114 133.424 13.914L134.726 13.9187L135.426 13.9353C136.312 13.9665 137.082 14.296 137.733 14.9238C137.948 15.1299 138.124 15.3592 138.264 15.6117C138.403 15.8549 138.496 16.1259 138.542 16.4247L138.555 16.6208C138.555 16.7794 138.536 16.9147 138.498 17.0266C138.451 17.1944 138.371 17.3248 138.259 17.4177C138.147 17.5013 138.021 17.5428 137.881 17.5423L137.797 17.542C137.647 17.5228 137.522 17.4663 137.419 17.3726C137.317 17.2696 137.266 17.1294 137.266 16.9521L137.266 16.8681C137.268 16.4574 137.147 16.1396 136.905 15.9147C136.672 15.6899 136.393 15.5068 136.066 15.3656C135.973 15.328 135.894 15.2997 135.828 15.2808C135.763 15.2619 135.698 15.2523 135.633 15.2521C135.53 15.2517 135.441 15.284 135.366 15.3491C135.291 15.4141 135.207 15.5165 135.114 15.6562C134.72 16.2521 134.41 16.8763 134.185 17.5288C133.959 18.1719 133.836 18.8575 133.816 19.5854L133.796 21.8814C133.794 22.6934 133.801 23.4214 133.818 24.0655C133.835 24.7095 133.866 25.3303 133.912 25.9278C133.957 26.516 134.03 27.0949 134.131 27.6646C134.232 28.2437 134.348 28.8274 134.477 29.4159C134.486 29.4626 134.495 29.5046 134.504 29.542C134.514 29.5887 134.527 29.6354 134.546 29.6822C134.704 30.0841 134.936 30.2856 135.244 30.2867C135.356 30.2871 135.492 30.2596 135.651 30.2042C135.94 30.0933 136.207 29.9636 136.45 29.8151C136.693 29.6667 136.908 29.4855 137.095 29.2715C137.282 29.0669 137.432 28.8247 137.545 28.5452C137.658 28.2656 137.724 27.9485 137.743 27.5939L137.759 27.1179C137.759 26.8473 137.746 26.5812 137.719 26.3198C137.701 26.0584 137.673 25.7923 137.637 25.5215C137.627 25.4281 137.618 25.3347 137.609 25.2414C137.6 25.148 137.596 25.05 137.596 24.9473C137.596 24.9007 137.596 24.8587 137.596 24.8213C137.596 24.784 137.601 24.742 137.611 24.6954C137.639 24.5181 137.709 24.3784 137.822 24.2761C137.934 24.1646 138.069 24.109 138.228 24.1096L138.256 24.1097C138.405 24.1103 138.536 24.1621 138.648 24.2652C138.76 24.3589 138.829 24.4945 138.857 24.6719C138.902 25.0921 138.948 25.5123 138.994 25.9324C139.039 26.3433 139.061 26.7587 139.06 27.1787C139.06 27.3374 139.055 27.496 139.045 27.6546C139.035 27.8133 139.021 27.9719 139.002 28.1305C138.954 28.5783 138.832 28.9885 138.635 29.3612C138.438 29.7338 138.176 30.0688 137.848 30.3663C137.437 30.7381 136.993 31.0398 136.516 31.2714C136.039 31.503 135.507 31.6177 134.919 31.6155L134.877 31.6154ZM141.706 31.7944C141.37 31.7932 141.133 31.7317 140.993 31.6098C140.862 31.4973 140.793 31.2637 140.785 30.909C140.776 30.7503 140.767 30.587 140.758 30.4189C140.758 30.2603 140.759 30.1016 140.759 29.9429L140.774 29.397L140.807 27.7871C140.808 27.2738 140.795 26.7651 140.768 26.261C140.751 25.7476 140.743 25.2342 140.744 24.7209C140.745 24.3102 140.76 23.8949 140.789 23.475L140.792 22.579C140.821 21.9258 140.846 21.2772 140.867 20.6333C140.896 19.9801 140.912 19.3361 140.914 18.7014C140.915 18.0948 140.903 17.4834 140.876 16.8673L140.864 16.0972C140.865 15.8826 140.865 15.6772 140.866 15.4812C140.876 15.2759 140.885 15.066 140.895 14.8514C140.915 14.5808 140.976 14.3896 141.079 14.278C141.182 14.1571 141.369 14.0784 141.639 14.0421C142.013 13.9874 142.405 13.9609 142.816 13.9624L143.138 13.9636C143.614 13.9653 144.08 13.967 144.538 13.9687C144.995 13.961 145.462 13.9581 145.938 13.9598C146.722 13.9627 147.501 13.9796 148.275 14.0104C148.341 14.02 148.406 14.0296 148.471 14.0391C148.537 14.0487 148.602 14.0629 148.667 14.0818C148.798 14.129 148.9 14.204 148.975 14.307C149.049 14.4099 149.086 14.5221 149.086 14.6434L149.086 14.7274C149.048 15.0166 148.884 15.198 148.594 15.2716C148.548 15.2807 148.496 15.2899 148.44 15.299C148.394 15.2988 148.347 15.2987 148.3 15.2985L148.202 15.2981C148.09 15.2884 147.978 15.2833 147.866 15.2829C147.764 15.2825 147.656 15.2821 147.544 15.2817C147.283 15.2808 147.022 15.2845 146.76 15.2929C146.499 15.3012 146.237 15.3096 145.976 15.318L145.64 15.2888C145.528 15.2883 145.416 15.2926 145.304 15.3015C145.192 15.3104 145.08 15.3147 144.968 15.3143C144.781 15.3136 144.688 15.4019 144.687 15.5793L144.672 16.2512C144.689 16.7553 144.702 17.2593 144.71 17.7634C144.727 18.2674 144.735 18.7761 144.734 19.2895C144.733 19.9055 144.722 20.5261 144.701 21.1513C144.681 21.7673 144.652 22.3272 144.613 22.831C144.604 22.9337 144.599 23.0363 144.598 23.139C144.598 23.2416 144.598 23.3443 144.598 23.447L144.597 23.643C144.597 23.727 144.601 23.7923 144.611 23.839C144.62 23.8857 144.643 23.9232 144.68 23.9513C144.718 23.9794 144.769 23.9983 144.834 24.0079C144.909 24.0175 145.007 24.0225 145.128 24.0229L145.45 24.0381L146.08 24.0264C146.192 24.0268 146.304 24.0319 146.416 24.0417C146.528 24.0421 146.64 24.0611 146.752 24.0989C146.901 24.1461 147.013 24.2305 147.087 24.3521C147.171 24.4644 147.213 24.5859 147.212 24.7166C147.212 24.7912 147.207 24.8472 147.198 24.8845C147.17 25.0244 147.099 25.1455 146.987 25.2478C146.884 25.3407 146.763 25.3869 146.623 25.3864L146.497 25.372C146.403 25.3529 146.315 25.3433 146.231 25.343C146.147 25.3333 146.058 25.3283 145.965 25.328L145.321 25.3396L144.901 25.3381C144.779 25.3377 144.695 25.3654 144.649 25.4212C144.611 25.4677 144.592 25.5516 144.592 25.673L144.592 25.785C144.61 25.981 144.619 26.1771 144.618 26.3731C144.618 26.5597 144.617 26.7511 144.617 26.9471C144.616 27.3484 144.61 27.6984 144.6 27.997C144.599 28.2957 144.594 28.557 144.584 28.781C144.583 29.0143 144.578 29.2196 144.568 29.3969C144.568 29.5836 144.568 29.7656 144.567 29.9429C144.567 30.1389 144.58 30.265 144.608 30.3211C144.636 30.3865 144.72 30.4195 144.86 30.42L148.08 30.2778C148.211 30.2783 148.328 30.2974 148.43 30.3351C148.71 30.4388 148.849 30.6306 148.849 30.9106L148.849 30.9386C148.848 31.1906 148.721 31.3768 148.469 31.4972C148.366 31.5435 148.264 31.5711 148.161 31.5801C148.068 31.5891 147.97 31.5934 147.867 31.593C147.279 31.6095 146.695 31.6354 146.117 31.6706C145.547 31.7058 144.973 31.7224 144.395 31.7203C144.339 31.7201 144.264 31.7198 144.171 31.7195C144.077 31.7285 143.979 31.7328 143.877 31.7324L143.527 31.7311C143.228 31.73 142.925 31.7382 142.616 31.7558C142.318 31.7827 142.014 31.7956 141.706 31.7944Z" fill="white"/>
</svg>
