<svg width="181" height="50" viewBox="0 0 181 50" fill="none" xmlns="http://www.w3.org/2000/svg">
<path d="M5.35189 35.1044L1.92186 30.2118L0.028912 10.6414C1.68591 7.85536 7.47002 2.12014 17.3505 1.4678C29.7011 0.652364 35.4142 -0.172465 49.6073 0.0313937C63.8005 0.235252 124.776 0.44087 129.769 0.44087C134.763 0.44087 159.499 -0.170538 166.078 2.88717C171.341 5.33334 176.172 10.0222 177.93 12.0608C177.406 12.4685 176.673 13.7323 177.94 15.5263C179.206 17.3202 179.879 20.0791 180.058 21.2343C179.359 21.9138 177.961 23.436 177.963 24.0883C177.965 24.9037 173.235 25.1076 175.603 26.1269C177.498 26.9423 177.977 29.3207 177.98 30.4079C176.143 31.4272 171.628 33.5066 168.264 33.6696C164.901 33.8327 161.959 34.553 160.909 34.8928L160.913 36.5238C162.491 36.7956 165.331 37.4206 164.07 37.7468C162.494 38.1545 160.915 37.1352 159.602 37.7468C158.29 38.3584 156.453 39.5815 158.031 39.9893C158.517 40.3649 158.991 40.5523 159.416 40.6252C159.938 40.5276 160.502 40.4473 160.924 40.397C160.654 40.5644 160.099 40.7422 159.416 40.6252C158.531 40.7911 157.769 41.0071 158.035 41.2124C158.456 41.5386 160.139 42.0278 160.928 42.2317L162.246 43.4548H158.041C155.728 43.4548 156.204 44.678 156.732 45.2896C156.119 45.4255 154.525 45.6157 153.052 45.2896C151.211 44.8818 152.001 45.4934 148.848 45.6973C146.325 45.8604 132.608 45.7652 128.315 45.6973C128.665 45.4255 128.891 44.8818 126.999 44.8818C124.634 44.8818 124.371 44.8818 121.481 45.2896C118.591 45.6973 52.3574 44.8801 43.4214 44.8801C36.2725 44.8801 45.3573 43.8702 44.0432 43.8702C39.9274 44.5497 25.6713 45.868 19.5733 45.7049C11.9508 45.501 5.3746 43.4625 5.37405 43.2586C5.37361 43.0955 3.9688 41.9675 3.26646 41.4239C3.96825 41.7636 5.37128 42.2393 5.36906 41.4239C5.36685 40.6084 3.95865 38.2301 3.25483 37.1429L5.35189 35.1044Z" fill="#F40000"/>
<path d="M10.3772 46.7242C9.53611 46.7242 9.50329 47.5396 9.592 47.9473L7.88419 48.1512C7.05375 48.8307 5.55047 50.149 6.1808 49.9859C6.81114 49.8228 8.01893 49.3744 8.54402 49.1705C8.89372 48.8987 11.2752 48.3551 18.0035 48.3551C26.414 48.3551 25.6244 47.9473 26.4129 47.9473C27.2013 47.9473 11.4285 46.7242 10.3772 46.7242Z" fill="#F40000"/>
<path d="M35.9618 31.2537C35.7565 31.2436 35.5512 31.2335 35.3458 31.2234C35.1498 31.2227 34.9445 31.2219 34.7299 31.2212L34.0298 31.2326C33.7405 31.2315 33.4793 31.1792 33.2462 31.0757C33.0131 30.9815 32.8081 30.8501 32.6312 30.6815C32.4636 30.5128 32.3241 30.321 32.2127 30.1059C32.1012 29.8908 32.0178 29.6619 31.9624 29.419C31.8608 28.9986 31.7732 28.5783 31.6996 28.158C31.6353 27.7378 31.5664 27.3129 31.4928 26.8833C31.4285 26.491 31.3781 26.0988 31.3418 25.7067C31.3148 25.3053 31.2925 24.8945 31.2749 24.4744C31.2667 24.0544 31.2584 23.6204 31.2502 23.1723C31.2514 22.7243 31.2479 22.253 31.2398 21.7583L31.2577 20.2044C31.2584 19.9524 31.259 19.7004 31.2596 19.4484C31.2603 19.1964 31.2702 18.9491 31.2895 18.7065C31.3382 17.9133 31.5034 17.1672 31.7852 16.4683C32.067 15.7693 32.4233 15.0939 32.8543 14.4422C33.2572 13.8463 33.8086 13.5497 34.5086 13.5522L35.8106 13.557L36.5105 13.5736C37.3971 13.6048 38.1663 13.9343 38.818 14.562C39.0322 14.7682 39.2089 14.9975 39.3483 15.25C39.4877 15.4932 39.5803 15.7642 39.6262 16.063L39.6397 16.2591C39.6393 16.4177 39.6203 16.553 39.5827 16.6649C39.5356 16.8327 39.456 16.9631 39.3437 17.056C39.2315 17.1396 39.1054 17.1811 38.9654 17.1806L38.8814 17.1803C38.7321 17.1611 38.6063 17.1046 38.5038 17.0109C38.4014 16.9079 38.3505 16.7677 38.3509 16.5903L38.3511 16.5063C38.3522 16.0957 38.2316 15.7779 37.9895 15.553C37.7568 15.3282 37.4772 15.1451 37.1509 15.0039C37.0577 14.9663 36.9784 14.938 36.9131 14.9191C36.8478 14.9002 36.7825 14.8906 36.7172 14.8903C36.6145 14.89 36.5258 14.9223 36.451 14.9874C36.3761 15.0524 36.2919 15.1548 36.1982 15.2944C35.8047 15.8903 35.4951 16.5145 35.2694 17.167C35.0438 17.8102 34.9207 18.4958 34.9002 19.2237L34.8804 21.5196C34.8784 22.3316 34.8858 23.0597 34.9029 23.7037C34.9199 24.3478 34.951 24.9686 34.9962 25.5661C35.0413 26.1543 35.1145 26.7332 35.2158 27.3029C35.317 27.8819 35.4322 28.4657 35.5613 29.0542C35.5706 29.1009 35.5798 29.1429 35.589 29.1803C35.5982 29.227 35.6121 29.2737 35.6307 29.3204C35.7883 29.7224 36.0211 29.9239 36.3291 29.925C36.4411 29.9254 36.5765 29.8979 36.7353 29.8425C37.025 29.7316 37.2913 29.6019 37.5343 29.4534C37.7774 29.305 37.9925 29.1238 38.1797 28.9098C38.3669 28.7051 38.5168 28.463 38.6296 28.1834C38.7423 27.9038 38.8084 27.5868 38.828 27.2322L38.8432 26.7562C38.8439 26.4855 38.8305 26.2195 38.8032 25.9581C38.7852 25.6967 38.7579 25.4306 38.7212 25.1597C38.7121 25.0664 38.703 24.973 38.6939 24.8796C38.6848 24.7863 38.6804 24.6883 38.6807 24.5856C38.6808 24.5389 38.6809 24.4969 38.681 24.4596C38.6811 24.4223 38.6858 24.3803 38.6953 24.3336C38.7237 24.1564 38.7941 24.0167 38.9064 23.9144C39.0186 23.8028 39.1541 23.7473 39.3128 23.7479L39.3408 23.748C39.4901 23.7486 39.6207 23.8004 39.7324 23.9034C39.8442 23.9972 39.9138 24.1328 39.9414 24.3102C39.987 24.7304 40.0326 25.1506 40.0782 25.5707C40.1238 25.9816 40.1461 26.397 40.145 26.817C40.1446 26.9756 40.1395 27.1343 40.1298 27.2929C40.1201 27.4516 40.1057 27.6102 40.0866 27.7688C40.0388 28.2166 39.9164 28.6268 39.7195 28.9994C39.5225 29.372 39.2604 29.7071 38.9329 30.0046C38.5213 30.3764 38.0772 30.6781 37.6006 30.9097C37.1241 31.1413 36.5918 31.256 36.0038 31.2538L35.9618 31.2537ZM42.7913 31.3207C42.4087 31.3193 42.1899 31.1038 42.135 30.6743C42.1167 30.5062 42.1031 30.3382 42.0942 30.1701C42.0853 30.0021 42.0764 29.8341 42.0675 29.666C42.0421 28.6486 42.0073 27.6311 41.9632 26.6136C41.9192 25.5868 41.8938 24.56 41.887 23.5333C41.8878 23.2347 41.8792 22.936 41.8613 22.6372C41.8434 22.3385 41.8348 22.0398 41.8356 21.7411L41.8813 14.7273C41.9016 14.102 42.2011 13.7624 42.7799 13.7086C43.088 13.6724 43.3914 13.6455 43.6901 13.6279C43.9982 13.601 44.3062 13.5882 44.6142 13.5893C44.6982 13.5896 44.7822 13.5899 44.8662 13.5902C44.9502 13.5905 45.0389 13.5955 45.1322 13.6052C45.4308 13.6249 45.6406 13.6911 45.7617 13.8035C45.8827 13.9159 45.9662 14.1169 46.0122 14.4064C46.224 15.5085 46.5057 16.6856 46.8572 17.9375C47.2087 19.1802 47.5835 20.4462 47.9816 21.7357L48.079 21.96C48.1445 21.9136 48.1819 21.8764 48.1913 21.8485C48.2101 21.8112 48.2242 21.7692 48.2336 21.7226C48.5357 20.3984 48.8656 19.1069 49.2234 17.8482C49.5906 16.5896 49.939 15.3962 50.2685 14.268C50.3816 13.8298 50.6108 13.6113 50.9562 13.6125L51.0402 13.6128C51.2268 13.6415 51.3805 13.7354 51.5015 13.8945C51.6224 14.0443 51.6873 14.2359 51.696 14.4693L51.6878 17.7172L51.6716 18.5992C51.6698 19.2899 51.6774 19.9759 51.6943 20.6573C51.7206 21.3294 51.7516 22.0108 51.7872 22.7016C51.8319 23.4578 51.8672 24.2513 51.8931 25.082C51.919 25.9128 51.945 26.7062 51.9711 27.4623C51.9891 27.7517 52.0023 28.0365 52.011 28.3165C52.0289 28.6059 52.0468 28.8953 52.0648 29.1847C52.0829 29.3994 52.101 29.6095 52.1192 29.8149C52.1373 30.0296 52.1741 30.2444 52.2295 30.4593L52.2571 30.6414C52.2567 30.8001 52.2003 30.9399 52.088 31.0608C51.985 31.1911 51.8541 31.2746 51.6954 31.3114C51.658 31.3206 51.6067 31.325 51.5413 31.3248C51.4107 31.3243 51.2895 31.2772 51.1777 31.1835C51.0659 31.099 50.9822 30.9774 50.9266 30.8185C50.8895 30.7157 50.8618 30.613 50.8434 30.5102C50.8343 30.4169 50.8252 30.3188 50.8161 30.2161C50.718 28.4238 50.6293 26.5988 50.55 24.7411C50.48 22.8835 50.424 21.054 50.3819 19.2525C50.3727 19.2058 50.3635 19.1637 50.3542 19.1264C50.345 19.089 50.3311 19.0469 50.3125 19.0002C50.1905 19.2611 50.0965 19.5268 50.0305 19.7972C49.9645 20.0583 49.8985 20.324 49.8325 20.5945C49.6816 21.2099 49.5354 21.8207 49.3939 22.4269C49.2617 23.0237 49.1295 23.6299 48.9973 24.2454C48.969 24.348 48.9407 24.4552 48.9124 24.5671C48.8842 24.679 48.8465 24.7862 48.7996 24.8887C48.734 25.0098 48.6498 25.0982 48.547 25.1538C48.4535 25.2094 48.3507 25.2371 48.2387 25.2366C48.0241 25.2359 47.847 25.1372 47.7075 24.9407C47.6517 24.8658 47.6099 24.7863 47.5821 24.7022C47.5543 24.6088 47.5266 24.5154 47.4988 24.4219C47.2396 23.5903 46.971 22.768 46.693 21.955C46.4151 21.1326 46.1652 20.2963 45.9434 19.4462C45.9248 19.3995 45.911 19.3574 45.9017 19.32C45.9018 19.2734 45.8786 19.236 45.832 19.2078L45.804 19.2077C45.776 19.2076 45.762 19.2262 45.7619 19.2635C45.7516 19.6088 45.7414 19.9541 45.7312 20.2994C45.7304 20.6354 45.7295 20.9761 45.7286 21.3214C45.7273 21.8534 45.7446 22.3762 45.7807 22.8896C45.8167 23.4031 45.8341 23.9258 45.8327 24.4578C45.8286 26.0911 45.8665 27.7106 45.9464 29.3163C45.9553 29.475 45.9596 29.6383 45.9592 29.8063C45.9681 29.9744 45.9816 30.1424 45.9999 30.3105L46.0135 30.4645C46.0129 30.7072 45.9471 30.8889 45.8161 31.0098C45.6945 31.1307 45.5029 31.2093 45.2415 31.2457C44.8401 31.2909 44.4387 31.3081 44.0374 31.2973C43.6361 31.2958 43.2347 31.3037 42.8333 31.3209L42.7913 31.3207ZM59.0026 29.9801C59.2079 29.9809 59.3903 29.8416 59.5497 29.5621C59.6153 29.4411 59.6669 29.3199 59.7046 29.1987C59.7515 29.0869 59.7985 28.9657 59.8455 28.8352C60.1841 27.7911 60.4342 26.7374 60.5955 25.674C60.7662 24.6106 60.8716 23.5236 60.9118 22.4131L60.912 22.3151C60.915 21.1484 60.8105 20.028 60.5985 18.9539C60.3959 17.8705 60.1187 16.7915 59.7667 15.7169C59.7482 15.6701 59.7296 15.6281 59.711 15.5907C59.6925 15.5533 59.6739 15.5112 59.6554 15.4644C59.4973 15.2119 59.2876 15.0851 59.0263 15.0841C58.9237 15.0838 58.8162 15.1114 58.7041 15.167C58.6013 15.2132 58.5125 15.2876 58.4375 15.39C58.2783 15.6041 58.1564 15.8276 58.0718 16.0606C57.9873 16.2937 57.912 16.5314 57.846 16.7738C57.648 17.5664 57.5107 18.3639 57.434 19.1663C57.3573 19.9594 57.2946 20.7665 57.2458 21.5877C57.2267 21.7742 57.2169 21.9609 57.2164 22.1475C57.216 22.3342 57.2155 22.5209 57.215 22.7075C57.2123 23.7809 57.2843 24.8125 57.4312 25.8024C57.578 26.7922 57.7902 27.7777 58.0677 28.7587C58.114 28.9175 58.1649 29.0671 58.2206 29.2073C58.2762 29.3568 58.3552 29.4971 58.4575 29.6281C58.6342 29.8621 58.8159 29.9795 59.0026 29.9801ZM56.5212 31.3291C56.3065 31.3283 56.1153 31.2762 55.9476 31.1729C55.7891 31.079 55.6354 30.9618 55.4865 30.8213C55.2444 30.587 55.0537 30.3297 54.9144 30.0492C54.7845 29.7687 54.6732 29.4743 54.5807 29.1659C54.2753 28.1008 54.0447 27.0359 53.8887 25.9714C53.7421 24.8975 53.6703 23.7866 53.6732 22.6386C53.6743 22.1906 53.6895 21.7333 53.7186 21.2667C53.7674 20.4362 53.8395 19.6198 53.9349 18.8175C54.0302 18.0058 54.1769 17.199 54.375 16.3971C54.5917 15.5672 54.9669 14.8453 55.5005 14.2312C55.6128 14.0916 55.7344 13.9801 55.8653 13.8965C55.9962 13.813 56.155 13.7623 56.3417 13.7443C56.5937 13.7265 56.8458 13.7088 57.0978 13.6911C57.3499 13.6733 57.6066 13.6649 57.8679 13.6659C58.1666 13.667 58.4605 13.6867 58.7498 13.7251C59.039 13.7542 59.3282 13.8112 59.6173 13.8963C59.9811 14.0003 60.2746 14.174 60.498 14.4175C60.7214 14.661 60.8886 14.9603 60.9997 15.3154C61.259 16.1377 61.4856 16.9645 61.6795 17.7959C61.8827 18.618 62.0252 19.4632 62.107 20.3315C62.1343 20.6116 62.157 20.8917 62.1749 21.1717C62.2022 21.4425 62.2155 21.7132 62.2149 21.9839L62.2141 22.2919C62.1643 23.5144 62.0493 24.704 61.869 25.8606C61.6981 27.008 61.4293 28.141 61.0624 29.2597C61.0154 29.4182 60.9637 29.5673 60.9073 29.7071C60.8509 29.8563 60.7852 30.0007 60.7102 30.1404C60.4005 30.7926 59.8769 31.1687 59.1393 31.2687C58.9059 31.3051 58.6725 31.3276 58.4392 31.3361C58.2151 31.3446 57.9865 31.3484 57.7531 31.3476L56.5212 31.3291ZM67.6295 31.4398C67.4335 31.4391 67.2375 31.429 67.0416 31.4096C66.8549 31.3996 66.6637 31.3756 66.4677 31.3375C66.2532 31.2901 66.0994 31.2102 66.0064 31.0978C65.9226 30.9949 65.8717 30.8267 65.8536 30.5933C65.7724 29.501 65.7051 28.4134 65.6519 27.3305C65.6079 26.257 65.5874 25.1696 65.5902 24.0683L65.6069 22.9903C65.628 22.0291 65.6397 21.0724 65.6421 20.1204C65.6539 19.1591 65.6844 18.1886 65.7335 17.2087C65.753 16.8915 65.7724 16.5836 65.7919 16.285C65.8206 15.9771 65.854 15.6972 65.892 15.4453L65.8921 15.3893C65.8924 15.268 65.8647 15.1792 65.8088 15.123C65.7623 15.0668 65.6737 15.0292 65.5431 15.01C65.3005 14.9811 65.0625 14.9663 64.8292 14.9654C64.7452 14.9651 64.6565 14.9648 64.5632 14.9644C64.4792 14.9641 64.3952 14.9685 64.3112 14.9775C64.2272 14.9679 64.1432 14.9629 64.0592 14.9626C63.9752 14.9623 63.8959 14.9527 63.8213 14.9337C63.6814 14.8959 63.5695 14.8255 63.4858 14.7225C63.4021 14.6195 63.3604 14.498 63.3607 14.358L63.3608 14.316C63.3615 14.064 63.4926 13.8732 63.7543 13.7435C63.8757 13.6972 64.0018 13.6744 64.1325 13.6749L64.3004 13.6895C65.2617 13.7023 66.209 13.7151 67.1423 13.7279C68.085 13.7313 69.037 13.7348 69.9983 13.7384L70.9503 13.7419C71.1183 13.7425 71.3049 13.7665 71.5101 13.8139C71.6687 13.8612 71.7898 13.9409 71.8735 14.0532C71.9666 14.1562 72.013 14.2778 72.0126 14.4178L71.9984 14.5157C71.9793 14.665 71.9137 14.7907 71.8014 14.893C71.6892 14.9859 71.5444 15.0367 71.367 15.0454L70.135 15.0409C70.023 15.0405 69.9343 15.0448 69.869 15.0539C69.813 15.0537 69.7709 15.0675 69.7429 15.0954C69.7148 15.1233 69.6914 15.1699 69.6725 15.2352C69.6631 15.2911 69.6535 15.3751 69.6439 15.4871C69.5391 16.336 69.4716 17.1898 69.4414 18.0483C69.4206 18.8976 69.4091 19.7469 69.407 20.5962L69.4011 22.8922C69.391 23.2189 69.3808 23.5502 69.3706 23.8861C69.3698 24.2128 69.369 24.5395 69.3681 24.8661C69.367 25.3048 69.3706 25.7435 69.3788 26.1822C69.3871 26.6115 69.4093 27.0456 69.4455 27.4844C69.4817 27.9419 69.4992 28.3946 69.4981 28.8426C69.4969 29.3 69.5331 29.7574 69.6066 30.215C69.6159 30.2431 69.6205 30.2711 69.6204 30.2991C69.6203 30.3364 69.6202 30.3691 69.6201 30.3971L69.6055 30.663C69.577 30.8589 69.5112 31.0127 69.4083 31.1243C69.3147 31.236 69.1698 31.3054 68.9738 31.3327C68.7497 31.3692 68.5256 31.3964 68.3016 31.4142C68.0775 31.4321 67.8535 31.4406 67.6295 31.4398ZM78.1242 23.8202C78.1802 23.8204 78.2409 23.816 78.3062 23.8069C78.3809 23.7978 78.465 23.7841 78.5583 23.7658C78.5863 23.7659 78.6144 23.7614 78.6424 23.7521C78.6704 23.7429 78.6938 23.7336 78.7124 23.7244C79.2168 23.6049 79.5906 23.3823 79.8341 23.0565C80.087 22.7307 80.2466 22.33 80.3132 21.8542C80.3605 21.5837 80.3939 21.3272 80.4131 21.0846C80.4418 20.8327 80.4656 20.6415 80.4846 20.5109C80.494 20.4642 80.4988 20.4176 80.4989 20.3709C80.4991 20.3242 80.4992 20.2776 80.4993 20.2309C80.4995 20.1376 80.4951 20.0536 80.4859 19.9789C80.4861 19.8949 80.4863 19.8202 80.4865 19.7549C80.4425 18.7 80.2584 17.6773 79.9343 16.6868C79.8046 16.2943 79.6094 15.981 79.3486 15.7467C79.0879 15.503 78.7757 15.3106 78.4121 15.1692C78.3375 15.1503 78.2629 15.136 78.1882 15.1264C78.1136 15.1075 78.039 15.0885 77.9644 15.0696L77.8524 15.0552C77.6937 15.0546 77.6142 15.143 77.6137 15.3203L77.6262 15.9223C77.6432 16.5664 77.6556 17.1965 77.6634 17.8125C77.6805 18.4192 77.6978 18.9653 77.7153 19.4507C77.7141 19.8987 77.7127 20.4447 77.7111 21.0887C77.7095 21.7234 77.7125 22.3814 77.7201 23.0627C77.7194 23.3521 77.7422 23.5528 77.7886 23.665C77.835 23.7678 77.9469 23.8196 78.1242 23.8202ZM74.9269 31.4245C74.8803 31.4244 74.829 31.4195 74.773 31.41C74.7263 31.4098 74.6797 31.405 74.633 31.3955C74.1199 31.3096 73.8593 31.0053 73.8513 30.4826C73.8248 29.8852 73.8077 29.2644 73.8 28.6204C73.7923 27.9857 73.7846 27.3463 73.7769 26.7023C73.7785 26.0583 73.7801 25.419 73.7817 24.7843C73.7834 24.1403 73.7849 23.5243 73.7864 22.9363L73.7915 20.9343C73.7927 20.4583 73.7892 19.9916 73.781 19.5343C73.7822 19.0676 73.7741 18.6009 73.7566 18.1342C73.7392 17.6208 73.7265 17.1074 73.7185 16.594C73.7198 16.0807 73.7118 15.5673 73.6944 15.0539L73.695 14.8299C73.7053 14.438 73.7806 14.1676 73.921 14.0187C74.0707 13.8606 74.3416 13.7683 74.7337 13.7417L75.2657 13.7297L76.3017 13.7475L77.4217 13.7516L77.9816 13.7816C78.7747 13.8779 79.4414 14.1323 79.9817 14.545C80.5313 14.9577 80.9311 15.5565 81.1811 16.3414C81.5423 17.472 81.7494 18.6208 81.8024 19.7877L81.8021 19.9137C81.8019 19.9883 81.8016 20.1003 81.8013 20.2497C81.8009 20.3897 81.7911 20.581 81.7718 20.8236C81.7527 21.0102 81.7241 21.2341 81.6861 21.4953C81.6481 21.7565 81.6054 22.0223 81.5581 22.2928C81.4919 22.6379 81.3743 22.9781 81.2055 23.3135C81.046 23.6396 80.8259 23.9328 80.5453 24.1931C80.2739 24.4534 79.9421 24.6669 79.5496 24.8335C79.1572 24.9907 78.7044 25.073 78.191 25.0805C78.0043 25.0798 77.8876 25.0934 77.8409 25.1212C77.7942 25.149 77.7706 25.2329 77.7703 25.3729L77.7675 26.4789C77.7666 26.8056 77.7611 27.1369 77.751 27.4729C77.7501 27.8089 77.7493 28.1449 77.7484 28.4809C77.748 28.6302 77.7476 28.7795 77.7473 28.9289C77.7469 29.0782 77.7512 29.2276 77.7601 29.3769L77.8129 30.6371C77.812 31.0011 77.6248 31.2291 77.2512 31.3211C77.1765 31.3395 77.1018 31.3485 77.0271 31.3482C76.9618 31.3573 76.8918 31.3664 76.8171 31.3755C76.5184 31.393 76.2197 31.4013 75.921 31.4002C75.6223 31.4084 75.3236 31.4167 75.0249 31.4249L74.9269 31.4245ZM84.4353 31.5854C84.0993 31.5842 83.8615 31.5226 83.7218 31.4008C83.5914 31.2883 83.522 31.0547 83.5135 30.7C83.5046 30.5413 83.4957 30.378 83.4868 30.2099C83.4872 30.0513 83.4876 29.8926 83.488 29.7339L83.5034 29.188L83.5354 27.5781C83.5367 27.0648 83.524 26.556 83.4973 26.0519C83.4799 25.5385 83.4719 25.0252 83.4732 24.5118C83.4742 24.1012 83.4893 23.6859 83.5184 23.266L83.5206 22.37C83.5503 21.7168 83.5753 21.0682 83.5955 20.4243C83.6252 19.771 83.6408 19.1271 83.6424 18.4924C83.644 17.8858 83.6315 17.2744 83.6051 16.6583L83.593 15.8882C83.5936 15.6736 83.5941 15.4682 83.5946 15.2722C83.6044 15.0669 83.6143 14.857 83.6242 14.6423C83.6435 14.3717 83.7047 14.1806 83.8076 14.069C83.9106 13.948 84.0975 13.8694 84.3682 13.8331C84.7417 13.7784 85.1338 13.7519 85.5444 13.7534L85.8664 13.7545C86.3424 13.7563 86.8091 13.758 87.2664 13.7597C87.7238 13.752 88.1905 13.7491 88.6665 13.7508C89.4505 13.7537 90.2297 13.7705 91.0043 13.8014C91.0696 13.811 91.135 13.8205 91.2003 13.8301C91.2656 13.8397 91.3309 13.8539 91.3962 13.8728C91.5267 13.92 91.6292 13.995 91.7036 14.098C91.778 14.2009 91.815 14.313 91.8147 14.4344L91.8145 14.5184C91.7765 14.8076 91.6127 14.989 91.3231 15.0626C91.2765 15.0717 91.2251 15.0809 91.1691 15.09C91.1224 15.0898 91.0757 15.0897 91.0291 15.0895L90.9311 15.0891C90.8191 15.0794 90.7071 15.0743 90.5951 15.0739C90.4924 15.0735 90.3851 15.0731 90.2731 15.0727C90.0118 15.0718 89.7504 15.0755 89.4891 15.0838C89.2277 15.0922 88.9664 15.1006 88.705 15.109L88.3691 15.0797C88.2571 15.0793 88.1451 15.0836 88.0331 15.0925C87.921 15.1014 87.809 15.1057 87.697 15.1053C87.5104 15.1046 87.4168 15.1929 87.4164 15.3702L87.4007 16.0422C87.418 16.5463 87.4308 17.0503 87.4388 17.5543C87.4562 18.0584 87.4643 18.5671 87.463 19.0804C87.4614 19.6964 87.4505 20.3171 87.4302 20.9423C87.41 21.5583 87.3806 22.1182 87.342 22.622C87.3324 22.7246 87.3275 22.8273 87.3272 22.93C87.327 23.0326 87.3267 23.1353 87.3264 23.238L87.3259 23.434C87.3257 23.518 87.3302 23.5833 87.3394 23.63C87.3487 23.6767 87.3719 23.7141 87.4092 23.7423C87.4464 23.7704 87.4977 23.7893 87.563 23.7988C87.6377 23.8084 87.7356 23.8135 87.857 23.8139L88.1789 23.8291L88.809 23.8174C88.921 23.8178 89.033 23.8229 89.1449 23.8326C89.2569 23.833 89.3689 23.8521 89.4808 23.8899C89.63 23.9371 89.7418 24.0215 89.8161 24.1431C89.8999 24.2554 89.9416 24.3769 89.9412 24.5076C89.941 24.5822 89.9362 24.6382 89.9268 24.6755C89.8984 24.8154 89.8281 24.9365 89.7159 25.0387C89.613 25.1317 89.4915 25.1779 89.3515 25.1774L89.2256 25.1629C89.1323 25.1439 89.0436 25.1343 88.9596 25.134C88.8757 25.1243 88.787 25.1193 88.6937 25.119L88.0496 25.1306L87.6296 25.1291C87.5083 25.1286 87.4242 25.1563 87.3774 25.2122C87.34 25.2587 87.3211 25.3426 87.3208 25.464L87.3205 25.576C87.3387 25.772 87.3475 25.9681 87.347 26.1641C87.3466 26.3507 87.3461 26.5421 87.3456 26.7381C87.3446 27.1394 87.339 27.4894 87.3289 27.788C87.3282 28.0867 87.3228 28.348 87.3129 28.5719C87.3123 28.8053 87.3072 29.0106 87.2974 29.1879C87.2969 29.3746 87.2964 29.5566 87.296 29.7339C87.2955 29.9299 87.3092 30.0559 87.337 30.112C87.3649 30.1775 87.4488 30.2105 87.5888 30.211L90.8091 30.0688C90.9398 30.0692 91.0564 30.0883 91.159 30.1261C91.4387 30.2297 91.5783 30.4216 91.5775 30.7016L91.5775 30.7296C91.5768 30.9816 91.4504 31.1678 91.1981 31.2882C91.0953 31.3345 90.9925 31.3621 90.8899 31.3711C90.7965 31.3801 90.6985 31.3844 90.5958 31.384C90.0078 31.4005 89.4244 31.4264 88.8456 31.4616C88.2762 31.4968 87.7022 31.5134 87.1235 31.5113C87.0675 31.5111 86.9928 31.5108 86.8995 31.5104C86.8061 31.5194 86.7081 31.5237 86.6055 31.5234L86.2555 31.5221C85.9568 31.521 85.6534 31.5292 85.3454 31.5467C85.0467 31.5737 84.7433 31.5865 84.4353 31.5854ZM96.9281 31.5472C96.7321 31.5465 96.5362 31.5364 96.3402 31.5171C96.1536 31.507 95.9623 31.483 95.7664 31.445C95.5518 31.3975 95.398 31.3176 95.305 31.2053C95.2212 31.1023 95.1703 30.9341 95.1523 30.7007C95.071 29.6084 95.0038 28.5208 94.9505 27.4379C94.9066 26.3644 94.886 25.277 94.8888 24.1757L94.9055 23.0977C94.9266 22.1365 94.9384 21.1799 94.9408 20.2279C94.9525 19.2666 94.983 18.296 95.0322 17.3162C95.0516 16.9989 95.0711 16.691 95.0905 16.3924C95.1193 16.0845 95.1526 15.8046 95.1906 15.5527L95.1908 15.4967C95.1911 15.3754 95.1633 15.2866 95.1074 15.2304C95.0609 15.1743 94.9723 15.1366 94.8417 15.1175C94.5991 15.0886 94.3612 15.0737 94.1278 15.0728C94.0438 15.0725 93.9552 15.0722 93.8618 15.0719C93.7778 15.0716 93.6938 15.0759 93.6098 15.0849C93.5258 15.0753 93.4418 15.0703 93.3578 15.07C93.2738 15.0697 93.1945 15.0601 93.1199 15.0412C92.98 15.0033 92.8682 14.9329 92.7844 14.8299C92.7007 14.7269 92.659 14.6055 92.6594 14.4655L92.6595 14.4235C92.6601 14.1715 92.7913 13.9806 93.0529 13.8509C93.1744 13.8047 93.3004 13.7818 93.4311 13.7823L93.5991 13.7969C94.5604 13.8098 95.5077 13.8226 96.441 13.8353C97.3836 13.8388 98.3356 13.8423 99.2969 13.8458L100.249 13.8493C100.417 13.8499 100.604 13.8739 100.809 13.9213C100.967 13.9686 101.088 14.0484 101.172 14.1607C101.265 14.2637 101.312 14.3852 101.311 14.5252L101.297 14.6231C101.278 14.7724 101.212 14.8982 101.1 15.0004C100.988 15.0933 100.843 15.1441 100.666 15.1528L99.4337 15.1483C99.3217 15.1479 99.233 15.1522 99.1676 15.1613C99.1116 15.1611 99.0696 15.175 99.0415 15.2029C99.0134 15.2308 98.99 15.2773 98.9712 15.3426C98.9617 15.3986 98.9521 15.4825 98.9425 15.5945C98.8377 16.4435 98.7702 17.2972 98.74 18.1558C98.7192 19.005 98.7077 19.8543 98.7056 20.7037L98.6998 22.9997C98.6896 23.3263 98.6794 23.6576 98.6693 23.9936C98.6684 24.3202 98.6676 24.6469 98.6668 24.9736C98.6657 25.4122 98.6692 25.8509 98.6774 26.2896C98.6857 26.719 98.7079 27.153 98.7441 27.5919C98.7803 28.0493 98.7978 28.5021 98.7967 28.9501C98.7955 29.4074 98.8317 29.8649 98.9052 30.3225C98.9145 30.3505 98.9191 30.3785 98.919 30.4065C98.9189 30.4438 98.9188 30.4765 98.9188 30.5045L98.9041 30.7705C98.8756 30.9664 98.8099 31.1201 98.7069 31.2317C98.6133 31.3434 98.4685 31.4129 98.2724 31.4401C98.0483 31.4767 97.8242 31.5038 97.6002 31.5217C97.3761 31.5395 97.1521 31.548 96.9281 31.5472ZM107.429 21.4637C107.252 21.463 107.14 21.5186 107.093 21.6304C107.046 21.7329 107.022 21.9288 107.021 22.2182C107.01 22.8995 107.004 23.5621 107.002 24.2061C107.001 24.8408 106.999 25.3821 106.998 25.8301C106.978 26.3154 106.958 26.8613 106.938 27.4679C106.927 28.0839 106.911 28.7138 106.891 29.3577L106.876 29.9597C106.875 30.137 106.954 30.226 107.113 30.2266L107.225 30.213C107.3 30.1946 107.374 30.1762 107.449 30.1578C107.524 30.1487 107.598 30.135 107.673 30.1166C108.038 29.9779 108.351 29.7878 108.613 29.546C108.875 29.3137 109.071 29.0017 109.203 28.6102C109.532 27.6221 109.721 26.6008 109.771 25.5463C109.771 25.4809 109.771 25.4109 109.771 25.3363C109.781 25.2523 109.786 25.1637 109.786 25.0703C109.786 25.0237 109.786 24.977 109.786 24.9303C109.786 24.8837 109.782 24.837 109.773 24.7903C109.754 24.6595 109.731 24.4728 109.704 24.23C109.686 23.9779 109.654 23.7165 109.608 23.4457C109.544 22.9694 109.386 22.5675 109.135 22.2399C108.893 21.9124 108.521 21.687 108.017 21.5638C107.998 21.5544 107.975 21.545 107.947 21.5356C107.919 21.5261 107.891 21.5214 107.863 21.5212C107.77 21.5022 107.686 21.4879 107.611 21.4783C107.546 21.4688 107.485 21.4639 107.429 21.4637ZM104.27 13.836L104.368 13.8364C104.667 13.8468 104.966 13.8572 105.264 13.8677C105.563 13.8688 105.862 13.8792 106.16 13.899C106.235 13.9086 106.305 13.9182 106.37 13.9277C106.445 13.928 106.519 13.9376 106.594 13.9566C106.967 14.0513 107.153 14.2806 107.152 14.6446L107.093 15.9044C107.083 16.0537 107.078 16.203 107.078 16.3523C107.078 16.5017 107.077 16.651 107.077 16.8003C107.076 17.1363 107.075 17.4723 107.074 17.8083C107.083 18.1444 107.087 18.4757 107.086 18.8024L107.083 19.9084C107.083 20.0484 107.106 20.1325 107.152 20.1606C107.199 20.1888 107.316 20.2032 107.502 20.2039C108.016 20.2151 108.468 20.3055 108.86 20.4749C109.251 20.635 109.582 20.8462 109.852 21.1085C110.131 21.3709 110.35 21.6704 110.508 22.007C110.675 22.3342 110.791 22.6707 110.855 23.0162C110.901 23.2871 110.942 23.5532 110.979 23.8147C111.016 24.0762 111.043 24.3003 111.061 24.487C111.079 24.7297 111.088 24.9258 111.088 25.0751C111.088 25.2151 111.087 25.3224 111.087 25.3971L111.087 25.5231C111.028 26.6896 110.815 27.8368 110.448 28.9648C110.194 29.7478 109.791 30.3437 109.24 30.7524C108.697 31.161 108.029 31.4106 107.236 31.501L106.676 31.527L105.556 31.5229L104.52 31.5331L103.988 31.5171C103.596 31.4877 103.325 31.3933 103.176 31.2341C103.037 31.0843 102.963 30.8133 102.954 30.4213L102.955 30.1973C102.975 29.684 102.986 29.1707 102.987 28.6574C102.997 28.1441 103.013 27.6308 103.033 27.1176C103.053 26.651 103.063 26.189 103.064 25.7317C103.075 25.265 103.081 24.7937 103.082 24.3177L103.087 22.3157C103.088 21.7277 103.09 21.1164 103.092 20.4817C103.093 19.8378 103.095 19.1938 103.096 18.5498C103.107 17.9058 103.118 17.2665 103.129 16.6319C103.14 15.9879 103.161 15.3673 103.19 14.7701C103.201 14.2474 103.463 13.9451 103.976 13.863C104.023 13.8538 104.07 13.8493 104.116 13.8495C104.172 13.8403 104.224 13.8359 104.27 13.836ZM124.49 30.2203C124.676 30.221 124.858 30.189 125.036 30.1243C125.213 30.0596 125.391 29.9856 125.568 29.9022C125.802 29.7911 126.012 29.6612 126.199 29.5125C126.387 29.3732 126.55 29.1872 126.691 28.9543C126.831 28.7308 126.94 28.4512 127.015 28.1155C127.1 27.7798 127.152 27.3647 127.172 26.8701L127.159 26.632C127.15 26.5667 127.145 26.506 127.145 26.45C127.145 26.3846 127.146 26.3146 127.146 26.24C127.146 26.1747 127.146 26.114 127.146 26.058C127.146 25.9927 127.142 25.9273 127.133 25.8619C127.106 25.2458 126.869 24.937 126.421 24.9353C126.309 24.9349 126.169 24.9577 126.001 25.0038C125.674 25.1052 125.342 25.1927 125.006 25.2661C124.67 25.3302 124.334 25.385 123.998 25.4304C123.858 25.4486 123.764 25.4902 123.717 25.5554C123.68 25.6113 123.661 25.6999 123.661 25.8212L123.585 28.1309L123.599 28.131C123.598 28.3737 123.598 28.6163 123.597 28.859C123.597 29.1017 123.601 29.3443 123.609 29.587C123.618 29.7924 123.655 29.9279 123.72 29.9934C123.785 30.0684 123.921 30.1295 124.126 30.1769C124.247 30.2054 124.368 30.2198 124.49 30.2203ZM123.749 23.9875C123.88 23.9227 124.006 23.8671 124.128 23.8209C124.259 23.7654 124.39 23.7052 124.52 23.6403C124.913 23.4551 125.235 23.2136 125.488 22.9159C125.75 22.6088 125.933 22.2455 126.037 21.8259C126.16 21.313 126.254 20.8047 126.321 20.3009C126.397 19.7879 126.435 19.27 126.437 18.7473C126.437 18.458 126.424 18.1686 126.397 17.8792C126.37 17.5898 126.333 17.2956 126.287 16.9968C126.25 16.81 126.199 16.6325 126.135 16.4642C126.07 16.2866 125.986 16.1183 125.884 15.9593C125.726 15.744 125.539 15.5847 125.325 15.4812C125.12 15.3685 124.896 15.3117 124.653 15.3108C124.411 15.3099 124.191 15.3558 123.995 15.4484C123.92 15.4854 123.869 15.5272 123.841 15.5738C123.813 15.611 123.799 15.667 123.798 15.7416L123.697 17.0853C123.677 17.4025 123.663 17.7152 123.653 18.0231C123.652 18.3311 123.651 18.6438 123.65 18.9611C123.648 19.6798 123.656 20.3938 123.673 21.1032C123.69 21.8126 123.697 22.5313 123.695 23.2593L123.694 23.7913C123.694 23.81 123.699 23.838 123.708 23.8754C123.717 23.9034 123.731 23.9408 123.749 23.9875ZM123.086 31.5871C122.797 31.5861 122.508 31.5757 122.218 31.5559C121.938 31.5363 121.658 31.4932 121.379 31.4269C121.164 31.3794 120.964 31.3133 120.777 31.2287C120.6 31.144 120.418 31.0593 120.232 30.9747C120.045 30.8806 119.924 30.7495 119.869 30.5813C119.822 30.4225 119.8 30.2497 119.8 30.0631C119.792 29.643 119.784 29.223 119.775 28.803C119.767 28.3923 119.763 27.9769 119.764 27.5569L119.888 23.0214C119.889 22.4894 119.886 21.9573 119.878 21.4253C119.87 20.8839 119.857 20.3472 119.84 19.8152L119.828 18.9891C119.83 18.3358 119.85 17.6825 119.889 17.0293C119.928 16.3761 119.962 15.7229 119.992 15.0697C120.002 14.8271 120.058 14.6453 120.161 14.5243C120.274 14.394 120.465 14.2921 120.736 14.2184C121.054 14.1356 121.371 14.0621 121.689 13.9979C122.006 13.9337 122.328 13.8929 122.655 13.8754L123.229 13.8635C123.78 13.8656 124.33 13.9096 124.881 13.9956C125.59 14.1009 126.168 14.3737 126.615 14.814C127.062 15.2543 127.363 15.8294 127.52 16.5393C127.594 16.8849 127.645 17.2304 127.672 17.5759C127.708 17.912 127.726 18.2527 127.725 18.5981C127.724 18.9527 127.705 19.312 127.666 19.6759C127.637 20.0397 127.599 20.4036 127.552 20.7674C127.504 21.0846 127.452 21.4017 127.395 21.7189C127.338 22.0267 127.258 22.3297 127.155 22.628C127.08 22.7957 126.995 22.9587 126.902 23.1171C126.808 23.2754 126.71 23.4384 126.606 23.606C126.718 23.6437 126.821 23.6721 126.914 23.6911C127.008 23.7101 127.096 23.7385 127.18 23.7761C127.516 23.936 127.786 24.147 127.99 24.4091C128.204 24.6619 128.334 24.975 128.38 25.3485C128.435 25.7407 128.462 26.1375 128.461 26.5388C128.461 26.6228 128.456 26.7535 128.446 26.9308C128.436 27.1081 128.422 27.2947 128.403 27.4906C128.393 27.6866 128.378 27.8685 128.359 28.0364C128.34 28.2137 128.326 28.3443 128.316 28.4283C128.269 28.7828 128.17 29.1044 128.02 29.3932C127.879 29.682 127.682 29.9473 127.43 30.189C126.981 30.5887 126.504 30.9137 125.999 31.1638C125.495 31.414 124.939 31.5473 124.332 31.5637C124.118 31.5722 123.908 31.5761 123.702 31.5754C123.506 31.584 123.301 31.5879 123.086 31.5871ZM134.877 31.6164C134.672 31.6063 134.467 31.5962 134.261 31.5861C134.065 31.5854 133.86 31.5846 133.645 31.5838L132.945 31.5953C132.656 31.5942 132.395 31.5419 132.162 31.4384C131.928 31.3442 131.723 31.2128 131.547 31.0441C131.379 30.8755 131.239 30.6837 131.128 30.4686C131.017 30.2535 130.933 30.0246 130.878 29.7817C130.776 29.3613 130.689 28.941 130.615 28.5207C130.551 28.1005 130.482 27.6756 130.408 27.246C130.344 26.8537 130.294 26.4615 130.257 26.0694C130.23 25.668 130.208 25.2572 130.19 24.8371C130.182 24.4171 130.174 23.9831 130.166 23.535C130.167 23.087 130.163 22.6157 130.155 22.121L130.173 20.567C130.174 20.315 130.174 20.0631 130.175 19.8111C130.176 19.5591 130.186 19.3118 130.205 19.0692C130.254 18.276 130.419 17.5299 130.701 16.831C130.982 16.132 131.339 15.4566 131.77 14.8049C132.173 14.209 132.724 13.9124 133.424 13.9149L134.726 13.9197L135.426 13.9363C136.312 13.9675 137.082 14.297 137.733 14.9247C137.948 15.1309 138.124 15.3602 138.264 15.6127C138.403 15.8559 138.496 16.1269 138.542 16.4257L138.555 16.6218C138.555 16.7804 138.536 16.9157 138.498 17.0276C138.451 17.1954 138.371 17.3258 138.259 17.4187C138.147 17.5023 138.021 17.5438 137.881 17.5433L137.797 17.543C137.647 17.5238 137.522 17.4673 137.419 17.3736C137.317 17.2706 137.266 17.1304 137.266 16.953L137.266 16.869C137.268 16.4584 137.147 16.1406 136.905 15.9157C136.672 15.6908 136.393 15.5078 136.066 15.3666C135.973 15.329 135.894 15.3007 135.828 15.2818C135.763 15.2628 135.698 15.2533 135.633 15.253C135.53 15.2527 135.441 15.285 135.366 15.3501C135.291 15.4151 135.207 15.5175 135.114 15.6571C134.72 16.253 134.41 16.8772 134.185 17.5297C133.959 18.1729 133.836 18.8585 133.816 19.5864L133.796 21.8823C133.794 22.6943 133.801 23.4224 133.818 24.0664C133.835 24.7105 133.866 25.3313 133.912 25.9288C133.957 26.517 134.03 27.0959 134.131 27.6656C134.232 28.2446 134.348 28.8284 134.477 29.4169C134.486 29.4636 134.495 29.5056 134.504 29.543C134.514 29.5897 134.527 29.6364 134.546 29.6831C134.704 30.0851 134.936 30.2866 135.244 30.2877C135.356 30.2881 135.492 30.2606 135.651 30.2052C135.94 30.0943 136.207 29.9646 136.45 29.8161C136.693 29.6677 136.908 29.4865 137.095 29.2725C137.282 29.0678 137.432 28.8257 137.545 28.5461C137.658 28.2665 137.724 27.9494 137.743 27.5948L137.759 27.1189C137.759 26.8482 137.746 26.5822 137.719 26.3208C137.701 26.0594 137.673 25.7932 137.637 25.5224C137.627 25.4291 137.618 25.3357 137.609 25.2423C137.6 25.149 137.596 25.051 137.596 24.9483C137.596 24.9016 137.596 24.8596 137.596 24.8223C137.596 24.785 137.601 24.743 137.611 24.6963C137.639 24.5191 137.709 24.3794 137.822 24.2771C137.934 24.1655 138.069 24.11 138.228 24.1106L138.256 24.1107C138.405 24.1113 138.536 24.1631 138.648 24.2661C138.76 24.3599 138.829 24.4955 138.857 24.6729C138.902 25.0931 138.948 25.5133 138.994 25.9334C139.039 26.3443 139.061 26.7597 139.06 27.1797C139.06 27.3383 139.055 27.497 139.045 27.6556C139.035 27.8143 139.021 27.9729 139.002 28.1315C138.954 28.5793 138.832 28.9895 138.635 29.3621C138.438 29.7347 138.176 30.0698 137.848 30.3673C137.437 30.7391 136.993 31.0408 136.516 31.2724C136.039 31.504 135.507 31.6187 134.919 31.6165L134.877 31.6164ZM141.706 31.7954C141.37 31.7942 141.133 31.7326 140.993 31.6108C140.862 31.4983 140.793 31.2647 140.785 30.91C140.776 30.7513 140.767 30.588 140.758 30.4199C140.758 30.2613 140.759 30.1026 140.759 29.9439L140.774 29.398L140.807 27.7881C140.808 27.2748 140.795 26.766 140.768 26.2619C140.751 25.7485 140.743 25.2352 140.744 24.7218C140.745 24.3112 140.76 23.8959 140.789 23.476L140.792 22.58C140.821 21.9268 140.846 21.2782 140.867 20.6343C140.896 19.981 140.912 19.3371 140.914 18.7024C140.915 18.0958 140.903 17.4844 140.876 16.8683L140.864 16.0982C140.865 15.8836 140.865 15.6782 140.866 15.4822C140.876 15.2769 140.885 15.067 140.895 14.8523C140.915 14.5817 140.976 14.3906 141.079 14.279C141.182 14.158 141.369 14.0794 141.639 14.0431C142.013 13.9884 142.405 13.9619 142.816 13.9634L143.138 13.9645C143.614 13.9663 144.08 13.968 144.538 13.9697C144.995 13.962 145.462 13.9591 145.938 13.9608C146.722 13.9637 147.501 13.9805 148.275 14.0114C148.341 14.021 148.406 14.0305 148.471 14.0401C148.537 14.0497 148.602 14.0639 148.667 14.0828C148.798 14.13 148.9 14.205 148.975 14.308C149.049 14.4109 149.086 14.523 149.086 14.6444L149.086 14.7284C149.048 15.0176 148.884 15.199 148.594 15.2726C148.548 15.2817 148.496 15.2909 148.44 15.3C148.394 15.2998 148.347 15.2997 148.3 15.2995L148.202 15.2991C148.09 15.2894 147.978 15.2843 147.866 15.2839C147.764 15.2835 147.656 15.2831 147.544 15.2827C147.283 15.2818 147.022 15.2855 146.76 15.2938C146.499 15.3022 146.237 15.3106 145.976 15.319L145.64 15.2897C145.528 15.2893 145.416 15.2936 145.304 15.3025C145.192 15.3114 145.08 15.3157 144.968 15.3153C144.781 15.3146 144.688 15.4029 144.687 15.5802L144.672 16.2522C144.689 16.7563 144.702 17.2603 144.71 17.7643C144.727 18.2684 144.735 18.7771 144.734 19.2904C144.733 19.9064 144.722 20.5271 144.701 21.1523C144.681 21.7683 144.652 22.3281 144.613 22.832C144.604 22.9346 144.599 23.0373 144.598 23.14C144.598 23.2426 144.598 23.3453 144.598 23.448L144.597 23.644C144.597 23.728 144.601 23.7933 144.611 23.84C144.62 23.8867 144.643 23.9241 144.68 23.9523C144.718 23.9804 144.769 23.9993 144.834 24.0088C144.909 24.0184 145.007 24.0235 145.128 24.0239L145.45 24.0391L146.08 24.0274C146.192 24.0278 146.304 24.0329 146.416 24.0426C146.528 24.043 146.64 24.0621 146.752 24.0999C146.901 24.1471 147.013 24.2315 147.087 24.3531C147.171 24.4654 147.213 24.5869 147.212 24.7176C147.212 24.7922 147.207 24.8482 147.198 24.8855C147.17 25.0254 147.099 25.1465 146.987 25.2487C146.884 25.3417 146.763 25.3879 146.623 25.3874L146.497 25.3729C146.403 25.3539 146.315 25.3443 146.231 25.344C146.147 25.3343 146.058 25.3293 145.965 25.329L145.321 25.3406L144.901 25.3391C144.779 25.3386 144.695 25.3663 144.649 25.4222C144.611 25.4687 144.592 25.5526 144.592 25.674L144.592 25.7859C144.61 25.982 144.619 26.1781 144.618 26.3741C144.618 26.5607 144.617 26.752 144.617 26.948C144.616 27.3494 144.61 27.6994 144.6 27.998C144.599 28.2967 144.594 28.558 144.584 28.7819C144.583 29.0153 144.578 29.2206 144.568 29.3979C144.568 29.5846 144.568 29.7666 144.567 29.9439C144.567 30.1399 144.58 30.2659 144.608 30.322C144.636 30.3875 144.72 30.4204 144.86 30.421L148.08 30.2788C148.211 30.2792 148.328 30.2983 148.43 30.3361C148.71 30.4397 148.849 30.6316 148.849 30.9116L148.849 30.9396C148.848 31.1916 148.721 31.3778 148.469 31.4982C148.366 31.5445 148.264 31.5721 148.161 31.5811C148.068 31.5901 147.97 31.5944 147.867 31.594C147.279 31.6105 146.695 31.6364 146.117 31.6716C145.547 31.7068 144.973 31.7234 144.395 31.7213C144.339 31.7211 144.264 31.7208 144.171 31.7204C144.077 31.7294 143.979 31.7337 143.877 31.7334L143.527 31.7321C143.228 31.731 142.925 31.7392 142.616 31.7567C142.318 31.7836 142.014 31.7965 141.706 31.7954Z" fill="white"/>
</svg>
