<svg width="20" height="20" fill="none" xmlns="http://www.w3.org/2000/svg"><g clip-path="url(#clip0_2_5742)"><path d="M19.361 2.654c-.8-2.637-3.233-2.236-5.5-2.227-3.132.012-7.5-1.074-10.295.79C1.647 2.494.888 5.276.436 7.381c-.583 2.723-.617 5.668.116 8.362.5 1.84 2.159 4.253 4.271 3.874 1.358.27 2.722.297 4.12.227 1.774-.088 3.854-.121 5.536-.713a.35.35 0 00.126-.085 20.775 20.775 0 001.545-.253c2.492-.517 2.968-2.878 3.263-5.065.498-3.692 1.048-7.45-.052-11.075zM2.038 5.904a.37.37 0 00-.004.113c-.058.297-.116.595-.167.893-.009.018-.02.033-.025.055-.15.566-.285 1.132-.409 1.7l-.011.007c.117-.763.257-1.445.39-1.976a17.3 17.3 0 01.238-.845c-.003.018-.01.035-.012.053zm2.071 10.034c-.042-.08-.08-.16-.125-.238.074.027.146.058.216.09.157.194.306.393.45.597a5.574 5.574 0 01-.54-.45zM6.435 4.024a7.618 7.618 0 01-.078-.236c.168-.068.335-.137.503-.204a6.807 6.807 0 01-.425.44zm.535 1.605a9.98 9.98 0 00.5-.642c.04-.03.082-.058.123-.089a14.21 14.21 0 00-.449.728l-.174.003zm1.951 6.608c.01-.253.027-.505.026-.76a.291.291 0 00-.074-.199c.071-.003.145-.002.214-.008-.075.32-.126.642-.166.967zm5.2-2.2c-.407.02-.484.493-.241.697-.243.768-.212 1.583-.25 2.409a37.739 37.739 0 00.046 3.82c-1.223.093-2.45.214-3.679.34.086-.64-.06-1.42-.07-1.965-.024-1.27-.085-2.576.106-3.836.026-.171-.002-.331-.108-.453.287-.208.248-.631-.122-.778-.646-.255-1.535-.163-2.293-.127a5.902 5.902 0 01.012-2.324c.548-.032 1.095-.08 1.642-.12.302-.023.42-.282.365-.498.01-.017.022-.033.03-.051.178-.465.203-.948.347-1.426.26-.865.998-1.577 1.694-2.104 1.317-.998 3-1.308 4.6-1.047.07.761.188 1.514.287 2.271-.2-.014-.404-.006-.585-.003-.595.011-1.186.11-1.78.13-.273.008-.511.222-.507.505.007.431.11.872.158 1.304-.175.258-.063.695.348.708.468.015.935.025 1.402.012.24-.007.542-.013.823-.063-.084.391-.077.815-.092 1.208-.016.425-.016.858.003 1.29-.169.008-.338.02-.505.027l-1.63.075zm2.215 1.662c-.016-.16-.024-.32-.044-.482a.389.389 0 00-.209-.289c.086.006.172.012.257.015l.013.116c.012.092.061.16.128.208-.05.144-.1.288-.145.432zm1.8 2.33c-.124.915-.33 1.617-.65 2.158.238-.746.46-1.493.662-2.243l-.012.085z" fill="#FFD4E4"/></g><defs><clipPath id="clip0_2_5742"><path fill="#fff" d="M0 0h20v20H0z"/></clipPath></defs></svg>