<svg width="20" height="20" fill="none" xmlns="http://www.w3.org/2000/svg"><g clip-path="url(#clip0_2_5745)" fill="#FFD4E4"><path d="M11.464 9.188c-.278-.578-1.173-1.252-1.748-.776-.83.004-1.317.965-1.27 1.767.07 1.234 1.422 1.725 2.467 1.298.938-.383.929-1.504.551-2.289zm-1.27 2.015c.134-.02.267-.06.396-.12.014.013.03.023.045.034a1.31 1.31 0 01-.44.086zm3.993-4.642a5.637 5.637 0 00-.019-.597c-.009-.121-.095-.223-.223-.223-.249-.001-1.05-.098-1.322.131-.076-.083-.24-.054-.25.093-.038.57-.063 1.14-.067 1.712-.001.09.064.186.155.205.115.023.236.042.356.051a.176.176 0 00.03.038c.28.266.83.063 1.156.012.07-.011.136-.086.152-.153.1-.407.124-.857.032-1.269z"/><path d="M14.454 9.58a.24.24 0 00-.213-.21c.128-.135.01-.42-.22-.365a2.286 2.286 0 01-.978.013.191.191 0 00-.227.145.207.207 0 00-.039.191c.516 1.972-.539 3.576-2.624 3.614-1.958.037-3.21-1.458-2.812-3.358.013-.067.005-.155-.053-.2l-.017-.016a.205.205 0 00-.028-.248c-.006-.007-.014-.012-.021-.019a.39.39 0 00.03-.118c.009-.086-.077-.158-.157-.158a.498.498 0 00-.224.06.231.231 0 00-.062-.018c-.424-.056-.814.066-1.237.098-.112.009-.209.089-.208.209.004.634.006 1.268.012 1.902a.178.178 0 00.029.103c.019.909.294 1.864.673 2.465.788 1.248 2.66 1.148 3.95 1.221 1.101.062 3.46.363 4.127-.819.68-1.201.456-3.18.299-4.492zm-1.211 3.552l-.01-.01c.057-.21.107-.42.147-.634l.033-.085-.016.115c-.054.204-.106.409-.154.614zm-.436 1.22c.102-.053.2-.117.29-.196l.029.009a.19.19 0 00.065.01.21.21 0 00.05.05 2.165 2.165 0 01-.464.17.173.173 0 00.03-.042zM6.944 9.5a3.88 3.88 0 00-.074.316 3.929 3.929 0 00-.024-.202.213.213 0 00.05-.17.47.47 0 01.064.022c-.005.01-.012.021-.016.034zm3.106 4.947l.448-.03a.27.27 0 00.004.049 13.163 13.163 0 00-.452-.02z"/><path d="M17.08 3.194C16.003 1.839 14.542.8 12.886.294c-1.697-.523-3.638-.283-5.314.2-3.335.961-5.89 3.62-6.788 6.954a9.48 9.48 0 00-.247 3.734c0 .005-.002.01-.001.014.022.272.072.528.139.775.337 1.542 1.049 3.004 2.07 4.31 1.763 2.258 4.8 4.165 7.74 3.474-.002.144.112.289.287.23 3.513-1.163 6.747-3.17 8.158-6.743 1.348-3.41.374-7.25-1.85-10.05zM.936 11.026a8.474 8.474 0 01-.055-.77l.01.076c.015.24.041.478.072.714l-.027-.02zm.998-1.205l-.034.115c-.003-.076-.006-.151-.007-.227l.043-.15a7.628 7.628 0 00-.002.262zm7.719 8.429c-.145-.03-.29-.058-.436-.086.146.012.292.028.439.043-.003.014-.003.028-.003.043zm5.767-1.202c.082-.033.164-.069.246-.107-.068.055-.134.11-.203.164a.245.245 0 00-.043-.057zM10.453 3.715c.085.004.17.01.254.016v.002c-.186.01-.372.022-.557.04.101-.018.202-.038.303-.058zM3.244 14.318l-.13-.44c.074.174.152.348.232.52l-.102-.08zm.463-8.664a2.2 2.2 0 01-.1.068.22.22 0 00-.044-.03c.074-.066.147-.136.22-.205a3.27 3.27 0 00-.076.167zm.442 7.297l.004-.223c.006.01.01.022.017.033l.01.01c.017.123.04.244.065.364l-.096-.184zm1.178 1.507c-.987-1.03-.806-2.848-.724-4.144.083-1.3.29-2.654.085-3.953.023-.064.054-.121.084-.18.147-.166.284-.34.406-.524.89-.785 2.55-.81 3.609-.846 1.51-.051 3.13-.199 4.616.108 1.802.372 2.143 1.995 2.122 3.614-.021 1.676.06 3.428-.398 5.055-.584 2.074-2.767 2.01-4.56 1.985a33.693 33.693 0 01-2.806-.18c-.91-.09-1.777-.25-2.434-.935zm2.799 4.827c.407.058.814.107 1.223.15a6.96 6.96 0 01-1.223-.15z"/></g><defs><clipPath id="clip0_2_5745"><path fill="#fff" d="M0 0h20v20H0z"/></clipPath></defs></svg>