<svg width="96" height="25" fill="none" xmlns="http://www.w3.org/2000/svg"><path d="M1.11 15.099c.021-.42.042-.775.042-1.069l.063-1.613c.021-.545.021-1.236.021-2.074 0-.818-.02-1.74-.063-2.703-.042-1.006-.083-1.718-.104-2.117-.021-.398-.063-.817-.105-1.299C.922 3.742.88 3.386.859 3.156c-.02-.252-.063-.545-.105-.86l-.042-.46a.72.72 0 01.189-.566c.147-.168.356-.251.587-.272a.915.915 0 01.65.188c.188.147.293.314.313.545l.042.46c.042.315.084.588.105.818.021.23.063.608.105 1.09.042.482.084.943.105 1.383.02.419.063 1.11.104 2.095a68.62 68.62 0 01.063 2.807c0 .776-.02 1.467-.042 2.033.126-.126.21-.23.294-.335.23-.21.482-.42.754-.629a9.08 9.08 0 011.048-.691c.44-.23.796-.42 1.068-.524.357-.105.838-.189 1.446-.252.629-.041 1.09-.02 1.446.063.314.063.607.147.9.252.315.146.65.377 1.049.691.377.335.69.65.9.943.21.314.399.65.545 1.006.168.398.294 1.068.398 2.053.126 1.006.147 1.718.105 2.116-.02.42-.084.797-.188 1.174a8.142 8.142 0 01-.44 1.068c-.168.357-.42.734-.734 1.132-.314.398-.607.712-.88.922-.272.21-.67.46-1.215.775a8.618 8.618 0 01-1.3.587 8.041 8.041 0 01-1.047.23c-.377.063-.691.105-.943.126-.21.02-.419.042-.607.063-.23.02-.545.02-.943 0-.44-.021-.797-.084-1.069-.189l-.251-.105a.81.81 0 01-.503-.398.735.735 0 01-.021-.628.74.74 0 01.46-.44.926.926 0 01.671 0l.294.105c.104.02.272.041.503.062h.691c.168-.02.377-.042.608-.063.21-.02.482-.062.796-.104.335-.063.607-.126.817-.189.189-.042.503-.188.943-.419.46-.251.775-.46.964-.586.167-.147.377-.378.628-.671a3.69 3.69 0 00.566-.838c.126-.252.21-.524.293-.817.063-.273.126-.587.189-.922.02-.335-.021-.922-.105-1.802-.126-.88-.23-1.446-.314-1.697-.105-.252-.21-.503-.356-.713a5.482 5.482 0 00-.608-.628c-.272-.189-.46-.336-.608-.399a2.394 2.394 0 00-.544-.188c-.168-.021-.461-.021-.901 0-.44.042-.734.105-.901.168-.23.062-.524.188-.86.398a6.56 6.56 0 00-.796.524c-.21.167-.44.356-.65.523-.167.168-.44.545-.816 1.11-.126.147-.23.294-.315.42-.23.356-.398.628-.502.817a9.666 9.666 0 00-.042.817 54.028 54.028 0 01-.189 2.263 21.122 21.122 0 01-.126 1.3c-.042.314-.084.67-.125 1.11-.042.46-.084.775-.105.943a3.9 3.9 0 01-.189.754c-.02.02-.063.042-.084.084-.041.042-.104.083-.23.188-.126.084-.23.168-.335.23-.105.064-.23.127-.377.168-.147.042-.273.063-.378.042a.472.472 0 01-.293-.167.975.975 0 01-.189-.42c-.041-.188-.062-.397-.104-.628-.042-.23-.063-.46-.084-.65A8.134 8.134 0 010 20.82c0-.251.021-.733.063-1.446.042-.733.105-1.278.188-1.613.063-.335.147-.67.252-.985.105-.314.21-.628.356-.964.021-.272.126-.482.252-.712zm23.322 8.654a.888.888 0 01-.65.356l-.544.063c-.482.042-1.069.02-1.802-.105a8.83 8.83 0 01-1.948-.587 8.739 8.739 0 01-1.363-.775c-.377-.293-.858-.754-1.403-1.446-.545-.67-.922-1.215-1.11-1.634-.21-.44-.378-1.194-.504-2.263-.146-1.068-.188-1.823-.104-2.284.104-.44.293-1.026.586-1.76.294-.733.629-1.362.964-1.886.356-.502.67-.921.985-1.215.314-.314.796-.65 1.467-1.047.712-.44 1.571-.734 2.556-.88.964-.147 1.655-.19 2.116-.126.44.042 1.048.21 1.823.524.796.314 1.383.586 1.76.817.377.23.775.586 1.194 1.026.399.44.713.86.901 1.216.21.377.42.964.608 1.76.168.796.251 1.55.251 2.22 0 .63-.041 1.153-.104 1.572-.042.44-.21 1.027-.461 1.802-.273.776-.566 1.425-.901 1.928-.335.524-.796 1.006-1.404 1.446-.608.46-1.069.754-1.404.88-.293.167-.817.293-1.509.398zM20.2 22.035c.293-.189.566-.252.859-.168l.566.189c.293.104.607.167.963.188.336.042.797.021 1.404-.063.608-.084 1.006-.167 1.216-.251.21-.084.544-.314 1.005-.65a4.992 4.992 0 001.048-1.068c.272-.377.503-.88.713-1.53.23-.67.377-1.194.44-1.53.041-.356.062-.817.062-1.403 0-.545-.063-1.174-.21-1.865-.146-.67-.293-1.132-.44-1.362a6.143 6.143 0 00-.69-.922 4.522 4.522 0 00-.86-.775c-.251-.168-.712-.377-1.383-.629-.67-.23-1.152-.377-1.445-.398-.273-.042-.797-.02-1.572.105-.733.126-1.362.356-1.865.65-.544.335-.943.586-1.152.775-.23.23-.503.565-.796 1.005-.294.42-.566.943-.817 1.593-.273.629-.42 1.131-.461 1.467-.042.314-.021.921.062 1.822.126.922.252 1.51.398 1.802.147.315.461.755.943 1.341.461.566.818.943 1.069 1.153.251.126.566.314.943.524zm21.644 1.718a.888.888 0 01-.65.356l-.545.063c-.482.042-1.068.02-1.802-.105a8.83 8.83 0 01-1.948-.587 8.738 8.738 0 01-1.362-.775c-.377-.293-.86-.754-1.404-1.446-.545-.67-.922-1.215-1.11-1.634-.21-.44-.378-1.194-.503-2.263-.147-1.068-.189-1.823-.105-2.284.105-.44.293-1.026.587-1.76.293-.733.628-1.362.963-1.886.357-.502.67-.921.985-1.215.314-.314.796-.65 1.467-1.047.712-.44 1.571-.734 2.556-.88.964-.147 1.655-.19 2.116-.126.44.042 1.048.21 1.823.524.797.314 1.383.586 1.76.817.378.23.776.586 1.195 1.026.398.44.712.86.9 1.216.21.377.42.964.608 1.76a10.9 10.9 0 01.252 2.22c0 .63-.042 1.153-.105 1.572-.042.44-.21 1.027-.461 1.802-.272.776-.566 1.425-.901 1.928-.335.524-.796 1.006-1.404 1.446-.608.46-1.068.754-1.404.88-.293.167-.817.293-1.508.398zm-4.233-1.718c.294-.189.566-.252.86-.168l.565.189c.293.104.608.167.964.188.335.042.796.021 1.404-.063.607-.084 1.005-.167 1.215-.251.21-.084.545-.314 1.006-.65a4.992 4.992 0 001.047-1.068c.273-.377.503-.88.713-1.53.23-.67.377-1.194.44-1.53a12.4 12.4 0 00.063-1.403c0-.545-.063-1.174-.21-1.865-.147-.67-.293-1.132-.44-1.362a6.148 6.148 0 00-.691-.922 4.522 4.522 0 00-.86-.775c-.25-.168-.712-.377-1.382-.629-.67-.23-1.153-.377-1.446-.398-.273-.042-.796-.02-1.572.105-.733.126-1.361.356-1.864.65-.545.335-.943.586-1.153.775-.23.23-.503.565-.796 1.005-.293.42-.566.943-.817 1.593-.273.629-.42 1.131-.461 1.467-.042.314-.021.921.063 1.822.125.922.251 1.51.398 1.802.147.315.46.755.943 1.341.46.566.817.943 1.068 1.153.252.126.566.314.943.524zm14.253-3.498v.46c.02.378.042.734.063 1.111.02.377.041.713.041 1.006 0 .314-.02.65-.042 1.006v.586a.833.833 0 01-.293.545.803.803 0 01-.608.21 1.18 1.18 0 01-.628-.252.631.631 0 01-.23-.566V22.1c.02-.377.041-.692.041-.985 0-.272-.02-.608-.042-.943-.02-.356-.041-.712-.062-1.11 0-.42-.021-1.132-.063-2.159a34.393 34.393 0 01-.063-1.823 43.208 43.208 0 01-.063-.88 49.236 49.236 0 01-.063-2.053c0-.46.021-.922.063-1.362v-.105a.73.73 0 01.063-.23c.042-.105.063-.21.105-.314a.797.797 0 01.188-.273.797.797 0 01.273-.188c.104-.042.21-.063.356-.042.147.02.293.084.46.188.273.168.42.335.483.482.063.147.063.252-.021.335l-.105.105v3.898c.02.104.042.23.042.398.02.314.042.544.063.754.314-.733.544-1.278.712-1.634.189-.378.398-.734.608-1.11.21-.4.607-.986 1.152-1.761.608-.817 1.027-1.341 1.257-1.571a5.97 5.97 0 011.006-.63l.44-.167a.873.873 0 01.692-.042c.23.084.398.21.502.399.105.188.105.398.021.628a.795.795 0 01-.44.461l-.44.189c-.21.083-.398.188-.544.293-.147.147-.482.587-1.006 1.278-.524.754-.88 1.3-1.069 1.634-.188.357-.377.692-.544 1.048-.168.356-.42.922-.755 1.697-.398.86-.733 1.425-1.006 1.74-.188.104-.356.209-.544.293zm10.895 5.007a.989.989 0 01-.629.21.933.933 0 01-.608-.252c-.167-.167-.25-.335-.25-.544l.041-.314v-2.305c0-.294-.021-.713-.042-1.237-.02-.544-.063-1.194-.105-1.927-.063-.755-.125-1.467-.167-2.138-.042-.67-.063-1.194-.105-1.613-.042-.419-.084-.817-.126-1.257-.042-.44-.084-.754-.105-.922 0-.126-.02-.272-.062-.44l-.042-.293a.6.6 0 01.146-.545.78.78 0 01.566-.314.96.96 0 01.67.146c.21.126.315.294.336.503l.063.252c.02.21.042.398.063.565 0 .147.041.44.104.88.042.44.084.88.126 1.3.042.418.084.963.126 1.634.02.67.063 1.383.105 2.116.062.754.125 1.404.146 1.949.021.544.042.963.042 1.278v2.367L63.01 23c.021.21-.063.398-.251.544zm2.515-14.143a.76.76 0 01.44-.44c.21-.084.44-.084.692-.02.23.083.398.209.503.397l.356.755c.272.544.545 1.215.817 1.99.273.712.482 1.278.65 1.655.21.398.502.943.859 1.635.377.691.817 1.508 1.299 2.41.482.921.817 1.508 1.006 1.801.188.314.377.608.544.88.147.23.377.524.713.86.063.062.146.125.21.188.104-.126.188-.273.293-.42.398-.628.67-1.089.796-1.403.147-.377.293-.754.44-1.173.168-.44.44-1.216.817-2.347.398-1.11.691-1.865.86-2.284.167-.42.355-.922.565-1.509.23-.565.398-.963.503-1.215l.146-.335c.063-.189.23-.335.44-.42.23-.083.461-.083.692-.02.23.084.398.21.482.419a.627.627 0 010 .607l-.105.336c-.105.21-.272.607-.503 1.173-.21.587-.398 1.069-.566 1.467-.146.398-.44 1.152-.838 2.284-.398 1.131-.691 1.906-.817 2.325-.168.44-.314.839-.46 1.216-.148.419-.44.985-.902 1.697-.02.042-.063.126-.147.23a1.324 1.324 0 01-.167.231 1.872 1.872 0 00-.189.251c-.084.126-.146.21-.188.252-.042.042-.126.105-.23.188a.767.767 0 01-.294.147c-.084.021-.189.042-.314.084a.408.408 0 01-.378-.042c-.44-.042-.9-.335-1.403-.86-.461-.418-.776-.774-.964-1.11a16.155 16.155 0 01-.566-.88c-.21-.335-.566-.963-1.048-1.927a69.99 69.99 0 00-1.299-2.41 35.263 35.263 0 01-.859-1.655c-.21-.44-.46-1.048-.754-1.823a13.853 13.853 0 00-.713-1.823l-.398-.754a.687.687 0 01-.02-.608zm30.152 10.666h-.042a4.95 4.95 0 00-.356.628c-.126.168-.252.356-.399.545-.188.251-.607.691-1.257 1.299-.65.629-1.152 1.048-1.508 1.236a7.33 7.33 0 01-1.006.482c-.335.126-.67.23-1.006.335a6.782 6.782 0 01-1.257.168 5.954 5.954 0 01-1.614-.251 10.406 10.406 0 01-1.194-.461 5.372 5.372 0 01-.817-.461c-.272-.168-.545-.42-.817-.713-.314-.356-.566-.796-.754-1.362-.189-.524-.294-.943-.315-1.278-.02-.314 0-.67.063-1.11a4.14 4.14 0 01.314-1.048c.126-.314.378-.712.755-1.215.377-.524.712-.901 1.006-1.11a8.13 8.13 0 01.859-.545 13.26 13.26 0 011.215-.587 6.4 6.4 0 011.907-.398c.712-.063 1.299-.042 1.718.104.44.147 1.047.545 1.823 1.174.104.084.188.167.293.251-.168-.544-.293-.985-.398-1.299a14.623 14.623 0 00-.65-1.404 8.96 8.96 0 00-.754-1.278 4.535 4.535 0 00-.712-.817c-.21-.189-.629-.44-1.216-.733-.607-.294-1.131-.482-1.571-.545a7.018 7.018 0 00-1.153-.126 3.217 3.217 0 00-.9.042c-.231 0-.692.126-1.32.356a6.553 6.553 0 00-.944.461l-.188.252a.983.983 0 01-.566.335.95.95 0 01-.67-.126.754.754 0 01-.357-.524.727.727 0 01.126-.586l.252-.294c.23-.335.796-.65 1.697-.984.817-.315 1.425-.461 1.823-.482a6.081 6.081 0 011.068-.042c.398 0 .901.063 1.467.167.608.105 1.278.336 2.032.713.755.356 1.32.691 1.677 1.005.335.315.65.65.943 1.048.293.398.586.901.9 1.53.315.628.545 1.152.692 1.571.147.42.335 1.006.566 1.802.23.734.419 1.257.545 1.572.104.335.188.67.293 1.005.105.336.168.566.21.713.125.167.083.398-.105.691l-.398.294zm-1.509-.818c-.147-.21-.272-.419-.398-.586a35.28 35.28 0 00-.566-.755c-.21-.251-.65-.67-1.32-1.215-.65-.524-1.069-.817-1.299-.88-.168-.042-.482-.063-.964-.042a4.396 4.396 0 00-1.32.294c-.44.167-.775.335-1.006.482l-.691.44c-.168.125-.398.398-.691.775-.294.398-.482.67-.566.859a6.476 6.476 0 00-.21.775c-.042.293-.063.524-.042.712 0 .19.063.482.21.88.147.378.293.65.46.818.19.21.378.377.546.482.167.104.356.21.544.314.189.105.524.21.964.335.377.126.713.189 1.006.189.335-.021.608-.063.817-.105a7.93 7.93 0 00.754-.252c.273-.104.524-.23.797-.356.23-.146.628-.482 1.194-1.005.566-.545.922-.901 1.048-1.048.125-.189.23-.377.314-.524.084-.105.21-.314.419-.587zM62.05 4.666c-.775-.335-1.362-.86-1.907-1.509-.188-.23-1.236-1.34-1.026-1.739.105-.189.67-.084.817 0 .168.084.335.251.46.398.21.252.357.545.504.838.293.608.524 1.257.922 1.802.23.335.775.021.544-.314-.586-.838-.817-1.886-1.466-2.703C60.416.831 59.43.287 58.74.894c-.65.545-.042 1.383.335 1.907.712.985 1.508 1.886 2.64 2.389.398.188.712-.357.335-.524z" fill="#F40000"/><path d="M59.135 1.92c.524.943 1.195 1.823 1.844 2.682.252.314.796 0 .545-.314-.67-.86-1.32-1.74-1.844-2.682-.21-.357-.754-.042-.545.314zm2.764 3.332c1.718-.084 3.394-.65 4.987-1.3.524-.209 1.634-.565 1.508-1.32-.335-1.906-5.426 1.153-6.139 1.426-.377.146-.21.754.168.607.775-.293 1.487-.67 2.22-1.026.462-.23 2.368-1.341 2.913-.88.21.167.063.167-.188.293-.147.084-.315.147-.482.23-.398.168-.817.315-1.215.482-1.216.44-2.452.818-3.772.88-.398 0-.42.629 0 .608z" fill="#F40000"/><path d="M66.952 2.842c-1.341.608-2.724 1.11-4.107 1.593-.377.126-.21.733.168.608 1.445-.524 2.87-1.048 4.274-1.656.356-.167.02-.712-.335-.545z" fill="#F40000"/></svg>