<svg width="81" height="88" viewBox="0 0 81 88" fill="none" xmlns="http://www.w3.org/2000/svg">
<path d="M21.5078 75.2876L17.2952 75.0807L6.3989 67.5963C5.81753 65.4465 5.81547 59.6854 10.4581 53.8394C16.2615 46.5318 20.2021 40.5429 27.4509 32.6436C34.6997 24.7443 29.4664 31.6928 31.9804 28.8822C34.4943 26.0716 44.371 14.415 49.2366 12.048C53.1291 10.1544 57.9435 9.48362 59.8642 9.38496C59.8072 9.85829 60.0806 10.8227 61.6297 10.8936C63.1787 10.9646 64.9194 11.7909 65.5961 12.1952C65.5894 12.8855 65.6592 14.3371 65.9916 14.6211C66.407 14.9761 64.1292 17.7275 65.8393 16.8399C67.2074 16.1298 68.6572 16.899 69.2111 17.3723C68.8041 18.8515 67.5877 22.3011 65.9771 24.2656C64.3666 26.2301 63.2516 28.2004 62.8955 28.9401L63.7264 29.6501C64.6587 28.8809 66.4062 27.5554 65.9372 28.4074C65.351 29.4725 64.0379 29.9163 63.6879 30.9222C63.3379 31.9281 63.0348 33.4961 64.0364 32.786C64.4717 32.6769 64.8058 32.4917 65.0569 32.2842C65.2696 31.9482 65.5127 31.5958 65.6996 31.3363C65.649 31.5611 65.4598 31.9513 65.0569 32.2842C64.6955 32.8548 64.4217 33.3781 64.6595 33.3185C65.0374 33.2238 66.1335 32.4901 66.6343 32.135L67.919 31.9279L65.8019 34.2947C64.6376 35.5965 65.4989 35.8627 66.0751 35.8331C65.8356 36.2374 65.1298 37.2177 64.2227 37.9041C63.0888 38.7621 63.7973 38.5846 62.3134 40.4484C61.1262 41.9395 56.438 47.0854 54.2422 49.472C54.2802 49.1564 54.1179 48.7916 53.1652 49.8566L53.1652 49.8567C51.9744 51.188 51.8421 51.3359 50.5943 53.1406C49.3466 54.9453 51.622 50.6891 47.1234 55.7186C43.5244 59.7422 43.8358 59.1336 43.1743 59.8732C41.4475 62.4866 37.2059 68.5535 34.0531 71.9144C30.1122 76.1156 25.7658 78.9263 25.6619 78.8375C25.5788 78.7665 24.2985 79.0644 23.6687 79.2222C24.1946 78.9756 25.1426 78.3938 24.7272 78.0388C24.3118 77.6838 22.3945 77.4373 21.4877 77.3584L21.5078 75.2876Z" fill="#FDA3C4"/>
<path d="M29.9414 77.5356C29.518 78.009 29.9158 78.3837 30.1676 78.5119L29.4114 79.5622C29.3386 80.3264 29.2516 81.7485 29.4861 81.3224C29.7205 80.8964 30.1007 80.0207 30.2615 79.6361C30.2994 79.3205 31.2221 77.7427 34.6093 73.9557C38.8434 69.222 38.2387 69.4883 38.6357 69.0445C39.0326 68.6008 30.4707 76.9439 29.9414 77.5356Z" fill="#FDA3C4"/>
<path d="M37.4838 57.3136C37.2768 57.5681 37.0184 57.6006 36.7084 57.4111C36.5927 57.3378 36.4764 57.259 36.3595 57.1745C36.2476 57.0838 36.1332 56.9962 36.0163 56.9118L31.3812 53.463C31.2282 53.3595 31.0808 53.2555 30.939 53.1508C30.7911 53.0412 30.6518 52.9334 30.5213 52.8276C30.3162 52.6614 30.1199 52.497 29.9323 52.3347C29.7447 52.1723 29.5571 52.0099 29.3695 51.8475C28.9085 51.4634 28.445 51.0825 27.9789 50.7046C27.5179 50.3206 27.0594 49.9334 26.6034 49.5431C26.4779 49.4311 26.3581 49.3186 26.2439 49.2054C26.1235 49.0872 26.0031 48.969 25.8827 48.8507C25.6656 48.6232 25.5514 48.4277 25.5401 48.264C25.5339 48.0942 25.6261 47.8858 25.8168 47.6387L26.9073 46.2983C27.2075 45.9546 27.4912 45.8911 27.7584 46.1078C27.8392 46.1732 27.9068 46.2486 27.9612 46.3339C28.0637 46.4994 28.1839 46.6432 28.3218 46.7653C28.4535 46.8824 28.5908 46.9988 28.7337 47.1147C29.2518 47.5553 29.7637 47.991 30.2694 48.4215C30.7689 48.8471 31.2517 49.2487 31.7178 49.6266C32.3081 50.1052 32.9092 50.577 33.5209 51.0421C33.7248 51.1971 33.871 51.2899 33.9596 51.3205C34.0532 51.3449 34.1505 51.295 34.2514 51.1709C34.2817 51.1337 34.3145 51.0933 34.3499 51.0499C34.3841 50.9952 34.4233 50.9343 34.4676 50.8672C34.5611 50.7268 34.6578 50.589 34.7577 50.4536C34.8575 50.3182 34.9604 50.1854 35.0664 50.0551C35.1068 50.0054 35.1421 49.962 35.1724 49.9248C35.2078 49.8813 35.24 49.8354 35.2691 49.7869C35.3414 49.6601 35.3965 49.5606 35.4346 49.4884C35.4714 49.4051 35.4895 49.3322 35.4887 49.2697C35.4817 49.2023 35.4559 49.1453 35.4112 49.0988C35.3654 49.041 35.2959 48.9744 35.2027 48.8988L34.5239 48.364C34.1946 48.097 33.8796 47.8313 33.579 47.567C33.2721 47.2976 32.9896 47.0428 32.7313 46.8025C32.4854 46.5723 32.232 46.3514 31.971 46.1398C31.7088 45.917 31.4441 45.6972 31.1769 45.4806L29.9279 44.4679C29.8781 44.4276 29.8234 44.3935 29.7636 44.3656C29.7088 44.3315 29.654 44.2974 29.5993 44.2633L29.4892 44.1895C29.4022 44.119 29.3303 44.0298 29.2736 43.9221C29.1578 43.6841 29.1757 43.472 29.3272 43.2858L29.3499 43.2579C29.534 43.0569 29.7518 43.0173 30.0035 43.139C30.082 43.182 30.1554 43.2312 30.2237 43.2866C30.2971 43.3358 30.368 43.3881 30.4364 43.4435C31.2256 44.0834 31.9979 44.725 32.7534 45.3683C33.5076 46.0004 34.2332 46.6298 34.9299 47.2565L35.3884 47.6436C35.6122 47.825 35.8372 47.992 36.0637 48.1447C36.1184 48.1788 36.1676 48.2135 36.2111 48.2487C36.2546 48.284 36.3051 48.3044 36.3625 48.3098C36.5361 48.3372 36.6789 48.3963 36.7907 48.487C36.8839 48.5625 36.957 48.6629 37.0098 48.7882C37.0331 48.8482 37.0758 48.9035 37.138 48.9539C37.1815 48.9891 37.2275 49.0213 37.276 49.0504C37.3184 49.0744 37.3638 49.1009 37.4124 49.13L41.1159 51.4991C41.1582 51.5231 41.198 51.5503 41.2353 51.5805C41.2776 51.6045 41.3175 51.6316 41.3547 51.6619C41.4689 51.775 41.5387 51.8985 41.5639 52.0323C41.5942 52.1598 41.5727 52.2814 41.4993 52.3969L41.4538 52.4528C41.368 52.5583 41.2612 52.6262 41.1334 52.6565C41.0107 52.6806 40.8796 52.6515 40.7402 52.5694C40.5285 52.4493 40.3162 52.3236 40.1034 52.1922C39.8968 52.0659 39.6896 51.9339 39.4818 51.7964C38.9753 51.4682 38.5143 51.1665 38.0987 50.8914C37.6831 50.6162 37.2495 50.3316 36.7978 50.0375C36.6883 49.9693 36.6104 49.9319 36.5642 49.9254C36.523 49.9126 36.4822 49.931 36.4418 49.9807L36.309 50.1819C36.1218 50.4627 35.9284 50.7385 35.7288 51.0092C35.5343 51.2737 35.3372 51.5413 35.1376 51.8121C35.0529 51.9288 35.0073 52.0102 35.0007 52.0564C34.9879 52.0975 35.0249 52.1533 35.1119 52.2238L38.255 54.5403L38.7025 54.903C38.9755 55.1759 39.0035 55.4457 38.7864 55.7126C38.6967 55.8355 38.6064 55.9528 38.5155 56.0645C38.4246 56.1762 38.3338 56.2879 38.2429 56.3996L37.4838 57.3136ZM45.6467 47.2989C45.5244 47.4366 45.3957 47.5124 45.2605 47.5264C45.1316 47.5455 45.005 47.5046 44.8807 47.4039L44.756 47.2719C44.6705 47.1614 44.575 47.0634 44.4694 46.9777C44.3688 46.8859 44.2707 46.7909 44.1751 46.6929C44.0547 46.5746 43.8759 46.4142 43.6386 46.2115C43.4063 46.0026 43.1467 45.7767 42.8596 45.5337C42.5839 45.2895 42.2938 45.044 41.9892 44.7971C41.6836 44.539 41.4002 44.3042 41.1392 44.0926C40.8771 43.8697 40.6497 43.6802 40.457 43.524C40.2694 43.3616 40.1477 43.2578 40.0917 43.2124C39.8059 42.9807 39.502 42.7394 39.18 42.4887C38.8518 42.2329 38.5199 41.969 38.1843 41.697L37.942 41.5005C37.9047 41.4703 37.8728 41.465 37.8464 41.4848C37.846 41.536 37.8594 41.5829 37.8866 41.6255C37.9127 41.6569 37.9393 41.694 37.9664 41.7366C38.3191 42.2285 38.6718 42.7204 39.0245 43.2123C39.3771 43.7042 39.7248 44.2023 40.0673 44.7066C40.5237 45.3752 40.9871 46.029 41.4575 46.6678C41.9278 47.3066 42.3368 47.9574 42.6844 48.6203C42.7769 48.7982 42.8687 48.9705 42.96 49.1372C43.0513 49.3039 43.1344 49.4743 43.2094 49.6483C43.3337 49.9139 43.3176 50.1429 43.1611 50.3352L43.0288 50.4598C42.7558 50.6813 42.4595 50.6779 42.1398 50.4496C42.1025 50.4194 42.0653 50.3892 42.028 50.359C41.9957 50.3225 41.9635 50.2861 41.9313 50.2496C41.2655 49.6482 40.5925 49.0304 39.912 48.3963C39.2303 47.751 38.5425 47.1007 37.8484 46.4453C37.2301 45.8616 36.6054 45.2985 35.9742 44.7559C35.3368 44.2083 34.6888 43.6675 34.0301 43.1334C33.7753 42.9269 33.5236 42.7228 33.275 42.5213C33.0265 42.3198 32.7847 42.1289 32.5497 41.9487L31.7219 41.293C31.6026 41.186 31.5366 41.0707 31.5238 40.947C31.5098 40.8121 31.542 40.6837 31.6205 40.562L31.6356 40.5433C31.7214 40.4379 31.8257 40.3731 31.9484 40.349C32.0712 40.3249 32.2017 40.3483 32.3399 40.4192C32.4122 40.4572 32.4794 40.5013 32.5415 40.5517C32.6036 40.6021 32.6683 40.6494 32.7355 40.6935C32.9072 40.8121 33.0862 40.947 33.2726 41.0981C33.4579 41.238 33.6438 41.3835 33.8302 41.5347L35.5005 42.9043C36.2151 43.4836 36.9059 44.0797 37.5728 44.6924C38.2397 45.3052 38.9071 45.9236 39.5752 46.5475C39.6521 46.6305 39.7346 46.7128 39.8228 46.7946C39.9047 46.8714 39.9923 46.9475 40.0855 47.0231C40.1414 47.0684 40.203 47.1132 40.2702 47.1574C40.3312 47.1965 40.3978 47.235 40.47 47.273C40.4355 47.2141 40.404 47.1577 40.3756 47.1038C40.3473 47.0499 40.3133 46.9966 40.2737 46.9439C39.9991 46.5462 39.7251 46.1541 39.4516 45.7677C39.1832 45.375 38.9092 44.9829 38.6296 44.5914C37.8834 43.5437 37.1441 42.5066 36.4116 41.4802C35.6779 40.4425 34.8843 39.4593 34.031 38.5306C33.9032 38.3961 33.8329 38.2671 33.8201 38.1434C33.8123 38.0135 33.8654 37.8659 33.9791 37.7007C34.1131 37.5107 34.2477 37.3263 34.3828 37.1475C34.518 36.9687 34.6588 36.7893 34.8052 36.6093C35.0172 36.3487 35.2335 36.1018 35.4541 35.8687C35.5877 35.7298 35.7308 35.6553 35.8835 35.6452C36.0411 35.6288 36.1914 35.6786 36.3344 35.7945L36.5488 35.9683C36.7041 36.0942 36.862 36.2171 37.0224 36.3368C37.1766 36.4515 37.3314 36.5719 37.4867 36.6978L37.6732 36.8489C37.9427 37.0881 38.2266 37.3285 38.5249 37.5704C38.8232 37.8122 39.1246 38.0565 39.4291 38.3034C39.7647 38.5755 40.0972 38.845 40.4265 39.112C40.7547 39.3678 41.0916 39.6255 41.4373 39.8851L41.883 40.231L42.0321 40.3519C42.1378 40.4376 42.2813 40.5591 42.4627 40.7164C42.6429 40.8625 42.8423 41.0294 43.061 41.2169C43.2797 41.4045 43.5139 41.6047 43.7636 41.8175C44.0071 42.0252 44.2476 42.2304 44.4849 42.4331C44.721 42.6245 44.9422 42.809 45.1484 42.9865C45.3609 43.169 45.5417 43.3208 45.6908 43.4417C45.8835 43.5979 46.0654 43.7608 46.2367 43.9306C46.4142 44.1054 46.5942 44.2771 46.7768 44.4457C46.8887 44.5364 46.9854 44.6457 47.0669 44.7736C47.2475 45.0333 47.2394 45.2842 47.0425 45.5262C46.8114 45.8229 46.5804 46.1196 46.3493 46.4163C46.1233 46.7068 45.8891 47.001 45.6467 47.2989ZM50.3971 41.4788C50.3012 41.5967 50.2052 41.7146 50.1093 41.8325C50.0184 41.9442 49.9163 42.0571 49.8029 42.1711C49.6693 42.31 49.5085 42.4062 49.3206 42.4598C49.1388 42.5184 48.9522 42.5577 48.7607 42.5775C48.2341 42.6037 47.7362 42.5502 47.267 42.417C46.7978 42.2838 46.3422 42.0895 45.9003 41.8342C45.7783 41.7559 45.6563 41.6777 45.5344 41.5994C45.4175 41.5149 45.3031 41.4273 45.1912 41.3366C44.9737 41.1603 44.7669 40.9772 44.5708 40.7873C44.3735 40.5861 44.1787 40.3819 43.9864 40.1745C43.7596 39.9082 43.7371 39.6634 43.9188 39.44L43.9491 39.4027C44.0512 39.2899 44.173 39.2289 44.3144 39.22C44.4557 39.211 44.5917 39.2594 44.7222 39.3652L44.7967 39.4257C44.8837 39.4962 44.9657 39.5729 45.0426 39.6559C45.1246 39.7326 45.204 39.8125 45.2809 39.8954C45.3764 39.9935 45.4689 40.089 45.5582 40.182C45.6526 40.2688 45.7526 40.3551 45.8582 40.4407C46.4735 40.9395 47.1819 41.2666 47.9835 41.4222C48.2682 41.4779 48.5391 41.4555 48.7962 41.355C49.0533 41.2545 49.2626 41.1049 49.4242 40.9063C49.5251 40.7822 49.605 40.6461 49.6636 40.4979C49.7222 40.3498 49.751 40.1877 49.7498 40.0117C49.7494 39.8981 49.7265 39.7868 49.681 39.6779C49.6418 39.574 49.5944 39.4738 49.5389 39.3772C49.4227 39.1904 49.2971 39.0216 49.1619 38.8708C49.0268 38.72 48.8784 38.5792 48.7168 38.4482C48.518 38.287 48.3071 38.1469 48.0841 38.0279C47.8662 37.9028 47.6351 37.7875 47.3908 37.6821C47.3372 37.6593 47.2848 37.6477 47.2335 37.6473C47.1761 37.6419 47.1186 37.6365 47.0611 37.6311C46.8937 37.6087 46.7747 37.6409 46.704 37.7278C46.6636 37.7774 46.6368 37.8484 46.6236 37.9407C46.6221 37.9806 46.6149 38.0211 46.6021 38.0622C46.5881 38.0921 46.5747 38.1276 46.5619 38.1687C46.5238 38.2408 46.4922 38.2924 46.4669 38.3234C46.3357 38.4848 46.1776 38.5523 45.9927 38.526C45.8715 38.5102 45.7706 38.4695 45.6898 38.404C45.5841 38.3184 45.5144 38.1949 45.4806 38.0336C45.4725 37.9549 45.4724 37.8725 45.4806 37.7864C45.5054 37.477 45.4751 37.1847 45.3897 36.9094C45.3042 36.6342 45.1799 36.3686 45.0168 36.1128C44.9007 35.9259 44.7272 35.7081 44.4965 35.4593C44.2709 35.2042 44.0332 34.9703 43.7834 34.7576L42.98 34.0908C42.775 33.9245 42.5674 33.7614 42.3572 33.6013C42.1409 33.4362 41.9195 33.2773 41.6931 33.1247C41.4966 32.9859 41.2905 32.8652 41.075 32.7626C40.8644 32.6537 40.6464 32.5541 40.4207 32.4639C40.0653 32.3303 39.8094 32.3596 39.6529 32.552C39.5772 32.6451 39.5117 32.7826 39.4566 32.9645C39.3537 33.3445 39.3502 33.7227 39.4462 34.0992C39.5592 34.5307 39.7256 34.9282 39.9455 35.2918C40.1653 35.6554 40.431 35.9944 40.7425 36.3087L40.8934 36.4465C40.9804 36.517 41.0755 36.5839 41.1788 36.647C41.2872 36.704 41.395 36.7553 41.5022 36.801C41.5733 36.8278 41.6368 36.8638 41.6927 36.9091C41.8791 37.0603 41.9302 37.251 41.8459 37.4814C41.8242 37.5461 41.7931 37.6033 41.7527 37.653C41.6013 37.8392 41.397 37.9001 41.1399 37.8359C40.8167 37.7387 40.5185 37.5792 40.245 37.3576C40.2015 37.3223 40.1611 37.2895 40.1238 37.2593C40.0803 37.224 40.0394 37.1857 40.0009 37.1442C39.6459 36.7946 39.3393 36.4173 39.081 36.0122C38.8227 35.6071 38.6147 35.1656 38.457 34.6876C38.276 34.1495 38.2136 33.6303 38.2699 33.1301C38.32 32.6249 38.5143 32.1388 38.853 31.6718L39.4134 30.983L39.9831 30.3017C40.2379 30.0139 40.5155 29.8374 40.8161 29.7721C41.1105 29.7018 41.4306 29.7141 41.7762 29.8089C42.339 29.9665 42.8592 30.2081 43.337 30.5336C43.5809 30.6901 43.8197 30.8529 44.0536 31.0218C44.2862 31.1795 44.4957 31.334 44.6822 31.4851L44.8779 31.6438C45.3339 32.0341 45.747 32.3947 46.1171 32.7257C46.4923 33.0504 46.7912 33.3803 47.0137 33.7152C47.1287 33.8908 47.238 34.067 47.3417 34.2437C47.4505 34.4143 47.5379 34.5984 47.6039 34.7962C47.6249 34.8338 47.6428 34.8688 47.6575 34.9014C47.6661 34.9289 47.6828 34.9528 47.7076 34.9729C47.7449 35.0032 47.7973 35.0148 47.8649 35.0078C48.1578 34.9774 48.429 34.9862 48.6788 35.0342C48.9336 35.076 49.1775 35.1501 49.4105 35.2567C49.6435 35.3632 49.8645 35.4909 50.0735 35.6397C50.2824 35.7885 50.4894 35.946 50.6945 36.1123L50.9182 36.2936C51.403 36.6866 51.763 37.1948 51.9984 37.8182C52.1872 38.3214 52.1653 38.8237 51.9326 39.3251C51.8029 39.6113 51.6509 39.8742 51.4765 40.1139C51.3072 40.3474 51.1266 40.5821 50.9348 40.8179L50.3971 41.4788Z" fill="white"/>
</svg>
