<svg width="92" height="103" viewBox="0 0 92 103" fill="none" xmlns="http://www.w3.org/2000/svg">
<path d="M28.3247 90.1891L23.5578 89.5359L9.06866 80.7512C7.75177 78.4953 5.95959 72.6129 9.32604 67.1308C13.5341 60.2783 17.9403 51.6838 23.5782 44.3787C29.216 37.0736 34.8721 29.154 36.8052 26.548C38.7384 23.942 46.1425 13.0762 50.8387 11.1698C54.5957 9.64463 59.7618 9.46477 61.8752 9.56549C61.9587 10.0428 62.5635 11.0562 64.3148 11.2911C66.0661 11.526 68.266 12.5522 69.147 13.036C69.3541 13.7401 69.8829 15.2296 70.3422 15.5544C70.9162 15.9604 69.2283 18.5308 70.8616 17.8039C72.1682 17.2224 74.0256 18.1598 74.791 18.7012C74.7963 20.1688 74.51 23.5634 73.3225 25.4002C72.1349 27.237 71.5024 29.1319 71.3346 29.8497L72.4828 30.6618C73.2846 29.9742 74.8235 28.8041 74.5647 29.6249C74.2413 30.6509 72.9132 30.9663 72.835 31.9566C72.7568 32.947 72.9056 34.5161 73.8031 33.8962C74.2551 33.8305 74.5706 33.6764 74.7864 33.4909C74.9195 33.1701 75.0814 32.8358 75.2094 32.5904C75.2228 32.8146 75.1328 33.1932 74.7864 33.4909C74.5603 34.0356 74.4172 34.5411 74.6642 34.5052C75.0566 34.4482 76.0522 33.814 76.501 33.504L77.8707 33.4273L76.2428 35.6218C75.3474 36.8288 76.3916 37.191 77.0256 37.2212C76.8839 37.6089 76.4006 38.5357 75.6012 39.1414C74.6019 39.8985 75.3377 39.7916 74.2603 41.539C73.3983 42.9369 69.7634 47.6993 68.0537 49.9057C67.998 49.5875 67.7035 49.1979 66.9709 50.1855C66.0552 51.4199 65.9535 51.5571 65.1213 53.2689C64.2891 54.9806 56.1676 65.3389 52.7082 70.0023L47.7226 76.7231C46.6069 79.2103 43.7567 84.9599 41.2814 88.0608C38.1872 91.9369 34.2085 94.3508 34.065 94.2493C33.9502 94.1681 32.6134 94.338 31.9594 94.433C32.4699 94.2364 33.3474 93.7418 32.7734 93.3357C32.1994 92.9297 29.9824 92.477 28.9457 92.3014L28.3247 90.1891Z" fill="#FDA3C4"/>
<path d="M38.4378 93.3689C38.1122 93.8078 38.6727 94.2322 38.9936 94.3895L38.4758 95.3825C38.632 96.1552 38.9766 97.598 39.106 97.1876C39.2354 96.7772 39.3877 95.923 39.4477 95.5472C39.392 95.2289 39.9318 93.7147 42.5365 90.2034C45.7924 85.8143 45.2002 86.0227 45.5054 85.6113C45.8107 85.1998 38.8448 92.8203 38.4378 93.3689Z" fill="#FDA3C4"/>
<path d="M41.9888 70.9058C41.7449 71.2689 41.4057 71.3435 40.9711 71.1296C40.8085 71.0465 40.6444 70.956 40.4789 70.858C40.3194 70.7513 40.1568 70.6489 39.9913 70.551L33.4169 66.5365C33.2011 66.4178 32.9927 66.2976 32.7917 66.176C32.5819 66.0484 32.3839 65.9223 32.1977 65.7977C31.9052 65.6019 31.6245 65.4077 31.3556 65.2149C31.0867 65.0222 30.8179 64.8294 30.549 64.6367C29.8901 64.1829 29.2282 63.7336 28.5633 63.2886C27.9044 62.8349 27.2485 62.3767 26.5955 61.914C26.4153 61.7806 26.2425 61.6457 26.0771 61.5094C25.9028 61.3671 25.7285 61.2248 25.5542 61.0825C25.2383 60.8069 25.0628 60.5611 25.0279 60.3452C24.999 60.1205 25.096 59.8325 25.3191 59.4813L26.6037 57.5686C26.9604 57.0758 27.3294 56.9569 27.7106 57.212C27.8258 57.2891 27.9248 57.3809 28.0073 57.4875C28.1637 57.6948 28.3408 57.8711 28.5387 58.0164C28.7278 58.1558 28.9243 58.2937 29.1282 58.4301C29.8698 58.9521 30.6026 59.4681 31.3265 59.9782C32.0415 60.4823 32.7314 60.9569 33.3963 61.4018C34.2385 61.9653 35.094 62.5186 35.9629 63.0615C36.2525 63.2425 36.458 63.3479 36.5793 63.3777C36.7065 63.3987 36.8296 63.3206 36.9486 63.1436C36.9842 63.0904 37.0229 63.0329 37.0645 62.9709C37.1032 62.8941 37.1479 62.8085 37.1985 62.714C37.3057 62.5162 37.4173 62.3213 37.5333 62.1295C37.6493 61.9376 37.7698 61.7487 37.8947 61.5627C37.9423 61.4919 37.9839 61.4299 38.0196 61.3768C38.0612 61.3148 38.0984 61.2498 38.1312 61.1819C38.2116 61.0047 38.2727 60.8659 38.3145 60.7655C38.3533 60.6503 38.3684 60.5513 38.3597 60.4685C38.3422 60.3798 38.301 60.3073 38.236 60.251C38.1681 60.1799 38.0677 60.0998 37.9347 60.0109L36.9684 59.3835C36.4986 59.0691 36.048 58.7547 35.6166 58.4404C35.1764 58.1201 34.7702 57.8162 34.398 57.5286C34.0435 57.2529 33.6801 56.9905 33.3078 56.7413C32.9325 56.4774 32.5543 56.2179 32.1731 55.9628L30.3913 54.7704C30.3203 54.7229 30.2435 54.6843 30.1607 54.6546C30.0838 54.616 30.0069 54.5774 29.9301 54.5388L29.7749 54.4542C29.6508 54.3711 29.5445 54.2615 29.4561 54.1253C29.2734 53.8234 29.2713 53.5396 29.4497 53.274L29.4764 53.2341C29.6964 52.9449 29.9808 52.8657 30.3298 52.9966C30.4392 53.0441 30.5427 53.1005 30.6402 53.1658C30.7437 53.2222 30.8442 53.283 30.9417 53.3483C32.0675 54.1017 33.1711 54.8595 34.2525 55.6216C35.331 56.369 36.371 57.1163 37.3725 57.8635L38.0285 58.3217C38.3476 58.5352 38.6668 58.7296 38.9861 58.9047C39.0629 58.9433 39.1324 58.9834 39.1944 59.0249C39.2565 59.0664 39.326 59.0873 39.403 59.0874C39.6368 59.1028 39.8336 59.1638 39.9931 59.2706C40.1261 59.3596 40.2353 59.484 40.3207 59.6438C40.3589 59.7207 40.4224 59.7889 40.511 59.8482C40.5731 59.8897 40.6381 59.9268 40.7061 59.9595C40.7653 59.9862 40.8288 60.0159 40.8968 60.0486L46.1028 62.743C46.162 62.7698 46.2181 62.8009 46.2713 62.8365C46.3305 62.8633 46.3866 62.8944 46.4398 62.93C46.6052 63.0664 46.7128 63.2218 46.7627 63.3963C46.8184 63.562 46.8046 63.726 46.7212 63.8884L46.6677 63.9681C46.5666 64.1187 46.4331 64.2218 46.2671 64.2776C46.1071 64.3245 45.9295 64.302 45.7344 64.2099C45.4387 64.0762 45.1416 63.9351 44.843 63.7866C44.5532 63.6441 44.262 63.4941 43.9694 63.3368C43.2569 62.9627 42.6081 62.6184 42.0227 62.3037C41.4374 61.989 40.827 61.6639 40.1914 61.3285C40.0377 61.2513 39.9297 61.2111 39.8676 61.208C39.8113 61.1961 39.7594 61.2255 39.7119 61.2963L39.56 61.5798C39.3457 61.9754 39.1225 62.3651 38.8905 62.7489C38.6644 63.1238 38.4353 63.5031 38.2032 63.8869C38.105 64.0522 38.0544 64.1659 38.0512 64.228C38.0392 64.2841 38.0953 64.3537 38.2194 64.4368L42.6748 67.1295L43.3131 67.5566C43.7089 67.8856 43.7789 68.2405 43.5232 68.6213C43.419 68.7954 43.3134 68.9622 43.2064 69.1216C43.0993 69.281 42.9923 69.4404 42.8852 69.5998L41.9888 70.9058ZM51.607 56.6142C51.4614 56.8119 51.2997 56.9283 51.1219 56.9633C50.953 57.0044 50.7799 56.9655 50.6026 56.8469L50.421 56.6868C50.2941 56.5506 50.1553 56.432 50.0046 56.3312C49.8598 56.2215 49.7181 56.1073 49.5793 55.9888C49.405 55.8465 49.148 55.6552 48.8082 55.415C48.4743 55.166 48.1021 54.8976 47.6914 54.6099C47.2955 54.3193 46.8803 54.0287 46.446 53.738C46.0087 53.4326 45.6038 53.1553 45.2315 52.9061C44.8563 52.6422 44.5312 52.4182 44.2564 52.2343C43.9876 52.0416 43.8132 51.9185 43.7335 51.8651C43.3257 51.5922 42.8928 51.309 42.4347 51.0153C41.9678 50.7156 41.495 50.4057 41.0163 50.0853L40.6705 49.854C40.6173 49.8184 40.5744 49.8153 40.5418 49.8448C40.5475 49.9128 40.571 49.9735 40.6123 50.0268C40.6507 50.0653 40.6905 50.1112 40.7318 50.1645C41.26 50.7746 41.7882 51.3848 42.3164 51.9949C42.8446 52.6051 43.3668 53.2241 43.8831 53.8519C44.5705 54.6842 45.2654 55.4957 45.9678 56.2866C46.6701 57.0774 47.2925 57.8918 47.8348 58.7296C47.9792 58.9545 48.1222 59.1721 48.2637 59.3823C48.4052 59.5925 48.5363 59.8086 48.657 60.0306C48.8544 60.3681 48.8609 60.674 48.6766 60.9485L48.5161 61.13C48.1806 61.4573 47.7868 61.489 47.3345 61.2248C47.2813 61.1892 47.2282 61.1537 47.175 61.1181C47.1277 61.0736 47.0805 61.0292 47.0332 60.9847C46.0761 60.2672 45.1071 59.5289 44.1263 58.7699C43.1427 57.9962 42.1501 57.2165 41.1487 56.4309C40.2566 55.7312 39.3585 55.0596 38.4544 54.4161C37.5415 53.7667 36.6151 53.1275 35.6754 52.4987C35.312 52.2555 34.953 52.0152 34.5984 51.7779C34.2438 51.5407 33.8995 51.3167 33.5655 51.1061L32.3865 50.3363C32.2151 50.2088 32.1134 50.0637 32.0813 49.901C32.0463 49.7236 32.0734 49.5493 32.1628 49.378L32.1806 49.3514C32.2817 49.2009 32.4123 49.1022 32.5723 49.0552C32.7323 49.0083 32.9084 49.0235 33.1006 49.1008C33.2012 49.1424 33.2958 49.1929 33.3844 49.2522C33.4731 49.3115 33.5647 49.3664 33.6593 49.4169C33.9017 49.5534 34.1558 49.7106 34.4218 49.8886C34.6848 50.0518 34.9493 50.2224 35.2153 50.4003L37.5999 52.0153C38.6193 52.6975 39.6091 53.4048 40.5692 54.1371C41.5293 54.8694 42.4909 55.6091 43.4539 56.3563C43.5661 56.457 43.6857 56.5563 43.8128 56.6542C43.9309 56.7461 44.0565 56.8365 44.1895 56.9255C44.2692 56.9789 44.3564 57.0308 44.451 57.0813C44.5368 57.1258 44.6299 57.1689 44.7304 57.2105C44.6774 57.1365 44.6287 57.0654 44.5845 56.9973C44.5403 56.9292 44.4887 56.8626 44.4296 56.7974C44.0166 56.3028 43.605 55.8156 43.1948 55.3358C42.7907 54.8472 42.379 54.3599 41.96 53.8742C40.8417 52.574 39.7337 51.287 38.636 50.0134C37.5354 48.725 36.3621 47.5163 35.1159 46.3872C34.9299 46.2242 34.8208 46.0614 34.7887 45.8987C34.7626 45.7272 34.815 45.5248 34.9459 45.2916C35.1007 45.0229 35.2569 44.7617 35.4145 44.5078C35.5722 44.254 35.7373 43.9986 35.9097 43.7418C36.1595 43.3699 36.4167 43.0158 36.6811 42.6794C36.8416 42.4787 37.0226 42.3624 37.224 42.3303C37.4313 42.2894 37.637 42.3372 37.8409 42.4736L38.1467 42.6783C38.3683 42.8266 38.5929 42.9705 38.8205 43.1099C39.0392 43.2434 39.2594 43.3843 39.481 43.5327L39.7469 43.7106C40.134 43.9953 40.5402 44.28 40.9658 44.5647C41.3913 44.8495 41.8212 45.1372 42.2556 45.4279C42.7343 45.7482 43.2086 46.0656 43.6784 46.38C44.1453 46.6796 44.6241 46.9807 45.1147 47.2834L45.7486 47.6883L45.9613 47.8307C46.1121 47.9315 46.3174 48.0754 46.5774 48.2622C46.8345 48.4342 47.1196 48.6314 47.4328 48.8539C47.746 49.0763 48.0813 49.3135 48.4389 49.5656C48.7875 49.8117 49.1317 50.0549 49.4715 50.2951C49.8084 50.5206 50.1245 50.7385 50.42 50.9491C50.7243 51.1656 50.9829 51.345 51.1956 51.4874C51.4704 51.6713 51.7319 51.8655 51.98 52.07C52.237 52.2805 52.4969 52.4865 52.7598 52.6881C52.9194 52.7949 53.0611 52.9282 53.185 53.0882C53.4565 53.411 53.4762 53.7451 53.2443 54.0904C52.9736 54.5125 52.7029 54.9346 52.4323 55.3567C52.1676 55.77 51.8925 56.1891 51.607 56.6142ZM57.2052 48.3078C57.0923 48.476 56.9793 48.6443 56.8663 48.8125C56.7592 48.9719 56.6373 49.1342 56.5007 49.2994C56.3402 49.5001 56.1384 49.6474 55.8954 49.7415C55.6612 49.8414 55.4182 49.9163 55.1664 49.966C54.4703 50.0649 53.8027 50.0545 53.1635 49.9348C52.5244 49.8151 51.8958 49.6127 51.2778 49.3275C51.1064 49.2384 50.9349 49.1494 50.7635 49.0603C50.5979 48.9624 50.4354 48.86 50.2758 48.7532C49.9656 48.5456 49.6686 48.3277 49.3851 48.0994C49.0986 47.8564 48.8151 47.6089 48.5345 47.357C48.2009 47.0311 48.1412 46.7087 48.3553 46.3899L48.391 46.3368C48.5128 46.1745 48.6671 46.0788 48.8537 46.0496C49.0403 46.0205 49.2267 46.0682 49.4128 46.1928L49.5192 46.264C49.6433 46.347 49.7615 46.4389 49.8737 46.5397C49.9919 46.6316 50.1071 46.7279 50.2193 46.8287C50.3581 46.9473 50.4925 47.0629 50.6224 47.1755C50.7583 47.2793 50.9016 47.3816 51.0523 47.4824C51.9299 48.0697 52.9104 48.4178 53.9937 48.5267C54.3785 48.566 54.7354 48.5032 55.0645 48.3384C55.3937 48.1736 55.6534 47.9495 55.8437 47.6662C55.9626 47.4891 56.052 47.2986 56.1118 47.0948C56.1716 46.891 56.19 46.6722 56.167 46.4387C56.1527 46.2879 56.1087 46.1429 56.0351 46.0038C55.9703 45.8707 55.8952 45.7434 55.8097 45.622C55.6327 45.388 55.4453 45.1792 55.2475 44.9955C55.0497 44.8118 54.8355 44.6428 54.605 44.4885C54.3213 44.2987 54.0243 44.1384 53.7138 44.0076C53.4092 43.868 53.0883 43.7431 52.7511 43.633C52.6772 43.6092 52.6062 43.6002 52.538 43.6059C52.4611 43.6057 52.3841 43.6056 52.3071 43.6054C52.0821 43.596 51.928 43.6533 51.8447 43.7773C51.7972 43.8481 51.7702 43.9456 51.7639 44.0697C51.7667 44.123 51.7621 44.1776 51.7501 44.2338C51.7352 44.2751 51.7217 44.3239 51.7097 44.38C51.668 44.4804 51.6323 44.5528 51.6025 44.597C51.4479 44.8273 51.2462 44.9362 50.9976 44.9238C50.8348 44.9175 50.6957 44.8758 50.5805 44.7987C50.4298 44.6979 50.3222 44.5424 50.2576 44.3324C50.2372 44.2289 50.2272 44.1195 50.2275 44.0042C50.2228 43.5903 50.1469 43.2059 49.9999 42.8508C49.8529 42.4957 49.6555 42.1583 49.4078 41.8385C49.2308 41.6046 48.974 41.3364 48.6374 41.0342C48.3067 40.723 47.9626 40.4414 47.6051 40.1893L46.4571 39.4019C46.1646 39.2061 45.8691 39.0148 45.5706 38.8279C45.2632 38.6351 44.9499 38.4511 44.6307 38.2759C44.3528 38.1157 44.0645 37.9805 43.7658 37.8705C43.4731 37.7516 43.1714 37.6459 42.8608 37.5536C42.3726 37.4195 42.0364 37.4897 41.852 37.7642C41.7628 37.897 41.6927 38.0875 41.6416 38.3357C41.5513 38.8528 41.5928 39.3554 41.766 39.8436C41.9687 40.4027 42.2381 40.9103 42.5743 41.3663C42.9105 41.8223 43.3045 42.24 43.7564 42.6194L43.9735 42.784C44.0977 42.867 44.2321 42.9442 44.377 43.0154C44.5278 43.0779 44.6772 43.1329 44.8251 43.1805C44.9227 43.2073 45.0114 43.2475 45.0912 43.3008C45.3571 43.4788 45.4482 43.7259 45.3644 44.042C45.3434 44.1306 45.3091 44.2103 45.2615 44.2812C45.0831 44.5468 44.8193 44.6526 44.4701 44.5986C44.0292 44.509 43.6137 44.3336 43.2237 44.0726C43.1616 44.0311 43.104 43.9925 43.0508 43.9569C42.9888 43.9154 42.9297 43.8694 42.8736 43.8191C42.3596 43.3981 41.9065 42.9345 41.5142 42.4281C41.1219 41.9217 40.7919 41.3608 40.5243 40.7453C40.2184 40.0529 40.0724 39.3712 40.0862 38.7002C40.0911 38.0233 40.29 37.3542 40.6827 36.6929L41.3428 35.71L42.0163 34.736C42.3195 34.3229 42.6667 34.0546 43.0579 33.9314C43.4402 33.8022 43.8666 33.7795 44.3371 33.8633C45.1035 34.004 45.8237 34.2613 46.4977 34.6353C46.8406 34.8135 47.1776 35.0005 47.5086 35.1963C47.8367 35.3774 48.1337 35.5569 48.3997 35.7348L48.6789 35.9217C49.3319 36.3843 49.9243 36.8128 50.4561 37.2072C50.9938 37.5927 51.4308 37.9942 51.7671 38.4118C51.9412 38.631 52.1078 38.8516 52.267 39.0736C52.4322 39.2868 52.5707 39.5207 52.6825 39.7752C52.7149 39.8225 52.7429 39.8669 52.7664 39.9084C52.7811 39.9439 52.8062 39.9735 52.8417 39.9972C52.8949 40.0328 52.9659 40.0418 53.0548 40.0243C53.4399 39.9483 53.8012 39.927 54.1386 39.9603C54.482 39.9847 54.8149 40.0534 55.1372 40.1665C55.4596 40.2795 55.7686 40.4221 56.0642 40.5943C56.3598 40.7664 56.6538 40.9503 56.9464 41.1461L57.2655 41.3596C57.957 41.8224 58.4969 42.4532 58.8854 43.2522C59.1974 43.8974 59.2295 44.567 58.9817 45.2611C58.8444 45.6569 58.6745 46.0246 58.4722 46.3641C58.2758 46.6947 58.0646 47.0283 57.8386 47.3647L57.2052 48.3078Z" fill="white"/>
</svg>
