<svg width="112" height="38" viewBox="0 0 112 38" fill="none" xmlns="http://www.w3.org/2000/svg">
<path d="M5.46066 23.8047L2.28313 20.3981L1.00433 7.20267C2.68428 5.39437 8.43623 1.75842 18.0044 1.68098C29.9646 1.58419 44.2679 1.50339 57.9803 2.15742C71.6928 2.81146 46.1917 2.85244 51.0182 3.03444C55.8448 3.21645 91.5365 3.81465 97.8092 6.10533C102.827 7.93786 107.365 11.2589 109.006 12.6903C108.488 12.9446 107.744 13.7656 108.918 15.015C110.092 16.2644 110.665 18.1395 110.805 18.9208C110.11 19.3511 108.716 20.3211 108.7 20.7587C108.679 21.3057 104.101 21.27 106.361 22.04C108.169 22.656 108.566 24.2687 108.538 24.9981C106.734 25.6148 102.312 26.8449 99.0559 26.8317C95.8002 26.8185 92.9367 27.1944 91.9119 27.384L91.8703 28.4781C93.3875 28.7179 96.1151 29.2407 94.8874 29.4135C93.3528 29.6295 91.8547 28.8883 90.5689 29.2506C89.2832 29.613 87.4737 30.3665 88.9875 30.6975C89.4461 30.9671 89.8995 31.1101 90.3084 31.1745C90.8149 31.128 91.3622 31.0947 91.7714 31.0763C91.5063 31.1788 90.9646 31.2778 90.3084 31.1745C89.4483 31.2535 88.7057 31.3706 88.9563 31.518C89.3544 31.7521 90.9677 32.1416 91.7246 32.3071L92.9636 33.1755L88.8991 33.0223C86.6636 32.938 91.0896 33.7757 91.5821 34.2052C90.9859 34.274 89.4399 34.3435 88.0257 34.0711C86.2579 33.7305 87.0044 34.1695 83.9508 34.1913C81.5079 34.2087 52.4866 33.5383 48.3392 33.3362C48.6848 33.1666 48.9188 32.8103 47.0898 32.7413C45.4459 32.6793 55.1907 32.7122 59.7538 32.7981C58.3803 32.5315 56.7799 31.9595 50.7447 31.7319C43.8351 31.4714 39.531 30.9782 38.2609 30.9303C34.2637 31.2361 24.7971 31.7647 18.9078 31.4331C11.5461 31.0185 5.24737 29.4115 5.25258 29.2748C5.25674 29.1654 3.9307 28.3576 3.26716 27.9674C3.9359 28.2208 5.27859 28.591 5.2994 28.044C5.3202 27.497 4.02607 25.8504 3.3764 25.0955L5.46066 23.8047Z" fill="#FDA3C4"/>
<path d="M9.99071 31.7816C9.17781 31.7509 9.12313 32.2967 9.1974 32.5734L7.54101 32.6479C6.71924 33.0734 5.22916 33.9028 5.84299 33.8164C6.45683 33.73 7.63681 33.4732 8.15007 33.3556C8.49571 33.186 10.8128 32.9082 17.316 33.1534C25.4449 33.46 24.6932 33.1577 25.4553 33.1865C26.2174 33.2152 11.0068 31.8199 9.99071 31.7816Z" fill="#FDA3C4"/>
<path d="M22.1694 25.327C21.8654 25.3261 21.6779 25.1655 21.6068 24.8453C21.5831 24.7652 21.5713 24.6852 21.5715 24.6052L21.3351 19.4324C21.3365 18.9604 21.3418 18.5044 21.3512 18.0645C21.3517 17.8805 21.3523 17.6925 21.3528 17.5005C21.3614 17.3085 21.366 17.1245 21.3665 16.9485C21.3751 16.7645 21.3796 16.5966 21.38 16.4446C21.3805 16.2926 21.3809 16.1606 21.3812 16.0486L21.3821 15.7366C21.3686 14.9125 21.3631 14.0925 21.3655 13.2765C21.368 12.4605 21.3704 11.6645 21.3727 10.8885C21.3733 10.6725 21.4138 10.5126 21.4941 10.4089C21.5825 10.2972 21.7307 10.2296 21.9387 10.2063C22.1148 10.1908 22.2868 10.1793 22.4548 10.1718C22.6229 10.1644 22.7949 10.1609 22.9709 10.1614C23.1549 10.162 23.3429 10.1666 23.5348 10.1752C23.7268 10.1838 23.9148 10.1964 24.0987 10.2129C24.3067 10.2296 24.4585 10.2941 24.5541 10.4063C24.6498 10.5106 24.7094 10.6668 24.7327 10.8749C24.7405 10.9389 24.7443 11.0109 24.7441 11.0909C24.7439 11.1629 24.7437 11.2309 24.7435 11.2949C24.7407 12.2309 24.7378 13.1829 24.7349 14.1509C24.732 15.1109 24.7331 16.0789 24.7382 17.0549L24.7373 17.3549C24.8095 17.2912 24.8537 17.2313 24.8698 17.1754C24.894 17.1194 24.9142 17.0635 24.9303 17.0075C25.2612 16.0406 25.6163 15.0377 25.9954 13.9988C26.3745 12.952 26.7777 11.9012 27.2048 10.8466C27.237 10.7827 27.2652 10.7187 27.2894 10.6548C27.3136 10.5829 27.3458 10.515 27.386 10.4511C27.4985 10.2915 27.6547 10.2119 27.8547 10.2126C27.8787 10.2126 27.9027 10.2127 27.9267 10.2128C27.9587 10.2129 27.9907 10.221 28.0227 10.2371C28.2544 10.3258 28.3699 10.5022 28.3691 10.7662C28.3688 10.8542 28.3566 10.9341 28.3324 11.006C28.3081 11.078 28.2799 11.1539 28.2477 11.2338C27.7963 12.3524 27.369 13.4631 26.9657 14.5658C26.5704 15.6606 26.1992 16.7235 25.8521 17.7544C25.7633 18.0101 25.6706 18.2618 25.5738 18.5095C25.4851 18.7493 25.3884 18.989 25.2837 19.2286C25.2434 19.3325 25.2231 19.4165 25.2229 19.4805C25.2227 19.5605 25.2544 19.6566 25.3181 19.7688C25.7637 20.5701 26.1855 21.2994 26.5835 21.9567C26.9895 22.6219 27.4196 23.2473 27.8739 23.8327C27.9775 23.969 28.1051 24.0894 28.2568 24.1939C28.2967 24.218 28.3327 24.2421 28.3646 24.2662C28.4045 24.2983 28.4444 24.3305 28.4843 24.3626C28.6199 24.483 28.6875 24.6272 28.687 24.7952C28.6867 24.9072 28.6544 25.0071 28.5901 25.0949C28.4856 25.2546 28.3374 25.3341 28.1454 25.3335C28.0814 25.3333 28.0014 25.3131 27.9056 25.2728C27.7138 25.1842 27.5422 25.0717 27.3906 24.9352C27.239 24.7987 27.0954 24.6463 26.9599 24.4779C26.6572 24.0689 26.3584 23.644 26.0638 23.2031C25.7691 22.7622 25.4706 22.2412 25.1684 21.6403C25.1287 21.5602 25.0809 21.484 25.0251 21.4119C24.9694 21.3317 24.9017 21.2355 24.822 21.1232C24.8137 21.2352 24.8093 21.3392 24.8091 21.4352C24.8088 21.5312 24.8085 21.6272 24.8082 21.7232C24.8076 21.9312 24.811 22.1272 24.8184 22.3112C24.8339 22.5033 24.8493 22.6913 24.8647 22.8754C24.8879 23.1474 24.9071 23.4195 24.9223 23.6916C24.9375 23.9636 24.9447 24.2356 24.9438 24.5076L24.9433 24.6996C24.9266 24.9156 24.8701 25.0714 24.7739 25.1671C24.6856 25.2708 24.5374 25.3264 24.3294 25.3337C24.1773 25.3413 24.0253 25.3448 23.8733 25.3443C23.7213 25.3438 23.5693 25.3434 23.4173 25.3429L22.1694 25.327ZM34.7173 24.2019C34.8933 24.2024 35.0497 24.0829 35.1864 23.8433C35.2427 23.7395 35.287 23.6356 35.3193 23.5317C35.3596 23.4358 35.3999 23.332 35.4403 23.2201C35.7309 22.325 35.9456 21.4217 36.0844 20.5101C36.2311 19.5985 36.3219 18.6668 36.3568 17.7149L36.357 17.6309C36.36 16.6309 36.2709 15.6706 36.0897 14.7501C35.9164 13.8215 35.6792 12.8968 35.378 11.9758C35.3621 11.9358 35.3462 11.8998 35.3303 11.8677C35.3144 11.8357 35.2985 11.7996 35.2826 11.7596C35.1473 11.5431 34.9676 11.4346 34.7436 11.4339C34.6556 11.4336 34.5635 11.4573 34.4674 11.505C34.3793 11.5448 34.3031 11.6085 34.2388 11.6963C34.1023 11.8799 33.9977 12.0716 33.9251 12.2714C33.8525 12.4711 33.7879 12.6749 33.7313 12.8828C33.5612 13.5622 33.4432 14.2459 33.3771 14.9337C33.3111 15.6135 33.257 16.3053 33.2149 17.0092C33.1984 17.1691 33.1899 17.3291 33.1894 17.4891C33.189 17.6491 33.1885 17.8091 33.188 17.9691C33.1852 18.8891 33.2466 19.7733 33.372 20.6217C33.4975 21.4701 33.679 22.3146 33.9164 23.1554C33.956 23.2915 33.9996 23.4196 34.0473 23.5398C34.0949 23.6679 34.1625 23.7881 34.2502 23.9004C34.4016 24.1009 34.5573 24.2014 34.7173 24.2019ZM32.5898 25.3593C32.4058 25.3587 32.242 25.3142 32.0982 25.2258C31.9625 25.1453 31.8308 25.0449 31.7031 24.9245C31.4957 24.7239 31.3324 24.5034 31.2131 24.263C31.1018 24.0227 31.0066 23.7704 30.9274 23.5061C30.6661 22.5933 30.4688 21.6807 30.3356 20.7683C30.2103 19.8479 30.1492 18.8957 30.1522 17.9117C30.1533 17.5277 30.1665 17.1357 30.1917 16.7358C30.2338 16.024 30.2959 15.3241 30.378 14.6364C30.4601 13.9406 30.5861 13.249 30.7562 12.5615C30.9423 11.8501 31.2642 11.2311 31.7218 10.7045C31.8181 10.5848 31.9224 10.4891 32.0346 10.4175C32.1469 10.3458 32.283 10.3023 32.443 10.2868C32.6591 10.2714 32.8751 10.2561 33.0912 10.2408C33.3072 10.2254 33.5272 10.2181 33.7512 10.2188C34.0072 10.2196 34.2592 10.2364 34.5071 10.2691C34.755 10.2939 35.0029 10.3427 35.2507 10.4154C35.5624 10.5044 35.814 10.6532 36.0053 10.8618C36.1967 11.0704 36.3399 11.3268 36.435 11.6311C36.6569 12.3358 36.8508 13.0444 37.0166 13.7569C37.1905 14.4615 37.3124 15.1859 37.3821 15.9301C37.4054 16.1701 37.4247 16.4102 37.44 16.6503C37.4633 16.8823 37.4746 17.1144 37.4739 17.3464L37.4731 17.6104C37.4299 18.6582 37.3309 19.6779 37.1759 20.6695C37.029 21.653 36.798 22.6243 36.4832 23.5833C36.4428 23.7192 36.3984 23.8471 36.35 23.9669C36.3016 24.0948 36.2453 24.2186 36.1809 24.3384C35.9152 24.8976 35.4663 25.2202 34.834 25.3062C34.6339 25.3376 34.4338 25.357 34.2338 25.3644C34.0418 25.3718 33.8458 25.3752 33.6458 25.3746L32.5898 25.3593ZM42.9634 25.3914C42.7874 25.3828 42.6114 25.3743 42.4355 25.3658C42.2675 25.3652 42.0915 25.3647 41.9075 25.3641L41.3074 25.3743C41.0594 25.3735 40.8356 25.3288 40.6358 25.2402C40.4361 25.1596 40.2604 25.047 40.1089 24.9026C39.9653 24.7581 39.8458 24.5937 39.7503 24.4094C39.6549 24.2251 39.5835 24.0289 39.5361 23.8208C39.4492 23.4605 39.3743 23.1003 39.3113 22.7401C39.2564 22.3799 39.1975 22.0157 39.1346 21.6475C39.0796 21.3113 39.0366 20.9752 39.0056 20.6391C38.9827 20.295 38.9637 19.943 38.9488 19.5829C38.9419 19.2229 38.935 18.8509 38.9282 18.4669C38.9293 18.0829 38.9265 17.6789 38.9198 17.2548L38.9358 15.9229C38.9364 15.7069 38.9371 15.4909 38.9377 15.2749C38.9384 15.0589 38.947 14.8469 38.9636 14.639C39.0057 13.9591 39.1476 13.3195 39.3894 12.7203C39.6312 12.121 39.9369 11.542 40.3066 10.9831C40.6521 10.4722 41.1249 10.2176 41.7249 10.2195L42.8409 10.2229L43.4409 10.2368C44.2008 10.2631 44.8599 10.5452 45.4183 11.0829C45.6018 11.2595 45.7532 11.456 45.8726 11.6723C45.9919 11.8807 46.0712 12.1129 46.1105 12.3691L46.122 12.5371C46.1216 12.6731 46.1052 12.789 46.0729 12.8849C46.0325 13.0288 45.9642 13.1406 45.8679 13.2203C45.7717 13.292 45.6636 13.3277 45.5436 13.3273L45.4716 13.3271C45.3436 13.3107 45.2358 13.2624 45.148 13.1821C45.0603 13.0938 45.0167 12.9737 45.0171 12.8217L45.0173 12.7497C45.0184 12.3977 44.9152 12.1254 44.7078 11.9327C44.5084 11.7401 44.2688 11.5834 43.9892 11.4625C43.9093 11.4302 43.8414 11.406 43.7854 11.3899C43.7295 11.3737 43.6735 11.3655 43.6175 11.3653C43.5295 11.3651 43.4534 11.3928 43.3892 11.4486C43.3251 11.5044 43.2528 11.5922 43.1724 11.712C42.8349 12.2229 42.5693 12.7581 42.3756 13.3175C42.182 13.8689 42.0762 14.4566 42.0583 15.0805L42.0404 17.0485C42.0383 17.7445 42.0445 18.3685 42.0588 18.9206C42.0731 19.4726 42.0996 20.0047 42.138 20.5168C42.1765 21.0209 42.239 21.5171 42.3256 22.0054C42.4121 22.5017 42.5106 23.002 42.621 23.5063C42.6289 23.5463 42.6368 23.5824 42.6447 23.6144C42.6526 23.6544 42.6645 23.6945 42.6804 23.7345C42.8153 24.0789 43.0148 24.2515 43.2788 24.2524C43.3748 24.2527 43.4909 24.229 43.627 24.1814C43.8753 24.0862 44.1037 23.9749 44.312 23.8476C44.5204 23.7202 44.7049 23.5648 44.8654 23.3813C45.026 23.2058 45.1546 22.9982 45.2513 22.7585C45.348 22.5188 45.4048 22.2469 45.4218 21.943L45.435 21.535C45.4357 21.303 45.4244 21.075 45.401 20.8509C45.3857 20.6269 45.3624 20.3988 45.3311 20.1667C45.3233 20.0867 45.3156 20.0066 45.3078 19.9266C45.3 19.8466 45.2963 19.7626 45.2966 19.6746C45.2967 19.6346 45.2968 19.5986 45.2969 19.5666C45.297 19.5346 45.3011 19.4986 45.3092 19.4586C45.3337 19.3067 45.394 19.1869 45.4903 19.0992C45.5866 19.0035 45.7027 18.9558 45.8387 18.9563L45.8627 18.9563C45.9907 18.9567 46.1026 19.0011 46.1983 19.0894C46.2941 19.1697 46.3537 19.2858 46.3773 19.4379C46.4162 19.798 46.4551 20.1582 46.494 20.5183C46.533 20.8704 46.5519 21.2265 46.5508 21.5865C46.5504 21.7225 46.546 21.8585 46.5376 21.9944C46.5292 22.1304 46.5168 22.2664 46.5004 22.4023C46.4592 22.7862 46.3542 23.1379 46.1852 23.4573C46.0163 23.7768 45.7914 24.0641 45.5106 24.3193C45.1577 24.6382 44.7769 24.897 44.3683 25.0957C43.9597 25.2945 43.5034 25.3931 42.9994 25.3915L42.9634 25.3914ZM51.1932 25.4769C51.0252 25.4763 50.8572 25.4678 50.6893 25.4513C50.5293 25.4428 50.3654 25.4223 50.1975 25.3898C50.0136 25.3492 49.8818 25.2808 49.8021 25.1845C49.7303 25.0963 49.6868 24.9522 49.6714 24.7521C49.6022 23.8159 49.545 22.8837 49.4998 21.9556C49.4625 21.0355 49.4453 20.1034 49.4482 19.1594L49.4629 18.2355C49.4814 17.4115 49.4919 16.5915 49.4943 15.7756C49.5048 14.9516 49.5313 14.1197 49.5738 13.2798C49.5906 13.0078 49.6074 12.7439 49.6242 12.4879C49.649 12.224 49.6777 11.9841 49.7103 11.7682L49.7105 11.7202C49.7108 11.6162 49.687 11.5401 49.6392 11.492C49.5993 11.4439 49.5234 11.4116 49.4114 11.3953C49.2035 11.3706 48.9996 11.358 48.7996 11.3574C48.7276 11.3572 48.6516 11.3569 48.5716 11.3567C48.4996 11.3565 48.4275 11.3602 48.3555 11.368C48.2835 11.3598 48.2116 11.3556 48.1396 11.3553C48.0676 11.3551 47.9996 11.3469 47.9356 11.3307C47.8157 11.2983 47.7199 11.238 47.6482 11.1498C47.5764 11.0616 47.5407 10.9575 47.5411 10.8375L47.5412 10.8015C47.5419 10.5855 47.6544 10.4218 47.8787 10.3105C47.9828 10.2708 48.0909 10.2512 48.2029 10.2515L48.3468 10.264C49.1708 10.2745 49.9828 10.285 50.7827 10.2955C51.5907 10.298 52.4067 10.3005 53.2307 10.3031L54.0467 10.3056C54.1907 10.3061 54.3507 10.3266 54.5266 10.3671C54.6624 10.4075 54.7662 10.4758 54.8379 10.5721C54.9177 10.6603 54.9574 10.7644 54.957 10.8844L54.9447 10.9684C54.9284 11.0963 54.872 11.2042 54.7758 11.2919C54.6795 11.3716 54.5554 11.4152 54.4034 11.4227L53.3474 11.4195C53.2514 11.4192 53.1754 11.4229 53.1194 11.4307C53.0714 11.4306 53.0353 11.4425 53.0112 11.4664C52.9872 11.4903 52.9671 11.5303 52.9509 11.5862C52.9427 11.6342 52.9345 11.7062 52.9262 11.8022C52.8361 12.5299 52.7779 13.2617 52.7517 13.9976C52.7335 14.7256 52.7233 15.4535 52.7211 16.1815L52.7152 18.1495C52.7064 18.4295 52.6975 18.7135 52.6886 19.0015C52.6878 19.2815 52.687 19.5614 52.6861 19.8414C52.685 20.2174 52.6879 20.5935 52.6947 20.9695C52.7016 21.3375 52.7205 21.7096 52.7514 22.0857C52.7822 22.4778 52.797 22.8658 52.7959 23.2498C52.7947 23.6418 52.8255 24.0339 52.8884 24.4261C52.8963 24.4501 52.9002 24.4741 52.9002 24.4981C52.9001 24.5301 52.9 24.5581 52.8999 24.5821L52.8872 24.8101C52.8627 24.978 52.8063 25.1098 52.718 25.2056C52.6377 25.3013 52.5136 25.3609 52.3455 25.3844C52.1534 25.4158 51.9613 25.4392 51.7693 25.4546C51.5772 25.47 51.3852 25.4774 51.1932 25.4769ZM61.8437 24.2858C61.9237 24.2861 61.9961 24.1663 62.0608 23.9265C62.0851 23.8226 62.1054 23.7186 62.1218 23.6147C62.138 23.5187 62.1544 23.4148 62.1707 23.3028C62.3014 22.4072 62.3961 21.5035 62.4548 20.5917C62.5216 19.6799 62.5644 18.748 62.5832 17.7961L62.5835 17.7121C62.5865 16.7121 62.5493 15.752 62.4721 14.8317C62.3949 13.9035 62.2897 12.9791 62.1564 12.0587C62.1485 12.0187 62.1406 11.9827 62.1327 11.9506C62.1328 11.9186 62.1289 11.8826 62.1211 11.8426C62.0577 11.6264 61.978 11.5182 61.882 11.5179C61.842 11.5177 61.802 11.5416 61.7618 11.5895C61.7217 11.6294 61.6855 11.6933 61.6532 11.7812C61.5967 11.965 61.5521 12.1568 61.5195 12.3567C61.4869 12.5566 61.4583 12.7606 61.4337 12.9685C61.3596 13.6483 61.3056 14.3321 61.2715 15.02C61.2375 15.6999 61.2114 16.3918 61.1933 17.0958C61.1848 17.2557 61.1803 17.4157 61.1799 17.5757C61.1794 17.7357 61.1789 17.8957 61.1784 18.0557C61.1757 18.9757 61.201 19.8598 61.2545 20.708C61.3159 21.5562 61.3974 22.4004 61.4989 23.2407C61.5145 23.3768 61.5301 23.5048 61.5457 23.6249C61.5693 23.753 61.601 23.8731 61.6406 23.9852C61.712 24.1854 61.7797 24.2856 61.8437 24.2858ZM58.5072 16.4514C58.533 15.8755 58.5707 15.3076 58.6203 14.7478C58.6784 14.06 58.7685 13.3722 58.8905 12.6846C59.0207 11.973 59.2505 11.3537 59.5801 10.8267C59.6525 10.707 59.7287 10.6112 59.809 10.5394C59.8892 10.4677 59.9853 10.424 60.0974 10.4083C60.2574 10.3928 60.4135 10.3773 60.5655 10.3618C60.7175 10.3463 60.8736 10.3387 61.0336 10.3392C61.2176 10.3398 61.3975 10.3564 61.5734 10.3889C61.7574 10.4135 61.9372 10.462 62.113 10.5346C62.3367 10.6233 62.5163 10.7718 62.6517 10.9802C62.787 11.1887 62.8903 11.445 62.9614 11.7492C63.1192 12.4537 63.2571 13.1621 63.375 13.8745C63.5009 14.5789 63.5867 15.3032 63.6325 16.0473C63.6477 16.2874 63.663 16.5274 63.6783 16.7674C63.6936 16.9995 63.7009 17.2315 63.7002 17.4635L63.6994 17.7275C63.6643 18.7754 63.5932 19.7952 63.4862 20.7869C63.3793 21.7705 63.2124 22.742 62.9855 23.7013C62.9531 23.8372 62.9207 23.9651 62.8883 24.085C62.856 24.2129 62.8156 24.3368 62.7672 24.4567C62.5735 25.0161 62.2526 25.3391 61.8043 25.4257C61.6602 25.4572 61.5162 25.4768 61.3721 25.4844C61.2361 25.4919 61.0961 25.4955 60.9521 25.4951L60.1961 25.4807C60.0601 25.4803 59.9403 25.4359 59.8365 25.3476C59.7408 25.2673 59.6491 25.167 59.5614 25.0467C59.41 24.8463 59.2907 24.6259 59.2034 24.3856C59.1241 24.1454 59.0569 23.8932 59.0017 23.629C58.8204 22.7164 58.6832 21.8 58.5899 20.8797C58.5355 20.3516 58.4971 19.8114 58.4748 19.2594C58.4268 19.2672 58.3788 19.2711 58.3308 19.2709L58.1868 19.2705C58.0588 19.2701 57.9308 19.2577 57.8029 19.2333L57.8003 20.0853C57.7983 20.7653 57.8042 21.4493 57.8182 22.1373C57.817 22.5213 57.8239 22.8934 57.8388 23.2534C57.8537 23.6215 57.8606 23.9935 57.8595 24.3695C57.8589 24.5535 57.8545 24.7015 57.8461 24.8134C57.8378 24.9334 57.8215 25.0294 57.7973 25.1013C57.7731 25.1732 57.7329 25.2291 57.6768 25.2689C57.6206 25.3167 57.5445 25.3565 57.4484 25.3882C57.3523 25.4199 57.2563 25.4396 57.1602 25.4473C57.0642 25.455 56.9682 25.4587 56.8722 25.4584L56.4162 25.445C56.2883 25.4286 56.1965 25.3723 56.1407 25.2762C56.085 25.18 56.0535 25.0159 56.0462 24.7839C56.0316 24.3358 56.0209 23.8758 56.0144 23.4038C56.0007 22.6197 55.987 21.8397 55.9734 21.0636C55.9677 20.2876 55.966 19.5076 55.9684 18.7236L55.9838 13.5876C55.993 13.1796 55.9983 12.7717 55.9995 12.3637C56.0007 11.9557 56.0179 11.5477 56.0511 11.1398C56.0596 11.0038 56.0719 10.8919 56.0882 10.8039C56.1044 10.716 56.1246 10.644 56.1488 10.5881C56.181 10.5322 56.2211 10.4923 56.2692 10.4685C56.3253 10.4367 56.3893 10.4089 56.4614 10.3851C56.5815 10.3615 56.6975 10.3418 56.8096 10.3262C56.9216 10.3105 57.0337 10.3029 57.1457 10.3032C57.2736 10.3116 57.3816 10.3199 57.4696 10.3282C57.5576 10.3285 57.6295 10.3487 57.6854 10.3889C57.7413 10.429 57.7811 10.4972 57.8048 10.5932C57.8365 10.6813 57.8521 10.8094 57.8516 10.9774C57.8511 11.1694 57.8465 11.3494 57.838 11.5174C57.8295 11.6773 57.8211 11.8413 57.8125 12.0093C57.8121 12.1693 57.8076 12.3373 57.799 12.5132C57.7985 12.6812 57.798 12.8692 57.7973 13.0772C57.8039 13.5573 57.8066 13.9853 57.8055 14.3613C57.8044 14.7373 57.8073 15.1053 57.8142 15.4653L57.811 16.5093C58.0032 16.4699 58.2072 16.4505 58.4232 16.4512L58.5072 16.4514ZM65.9617 25.4986C65.6337 25.4975 65.4463 25.313 65.3994 24.9448C65.3838 24.8008 65.3723 24.6567 65.3647 24.5127C65.3571 24.3687 65.3496 24.2247 65.342 24.0806C65.3206 23.2086 65.2912 22.3365 65.2538 21.4643C65.2165 20.5842 65.1951 19.7042 65.1898 18.8241C65.1905 18.5681 65.1833 18.3121 65.1681 18.0561C65.1528 17.8 65.1456 17.544 65.1464 17.288L65.1884 11.2761C65.206 10.7401 65.4629 10.4489 65.959 10.4025C66.2231 10.3713 66.4832 10.3481 66.7392 10.3329C67.0033 10.3097 67.2673 10.2985 67.5313 10.2993C67.6033 10.2996 67.6753 10.2998 67.7473 10.3C67.8193 10.3002 67.8953 10.3045 67.9753 10.3127C68.2313 10.3295 68.4111 10.3861 68.5148 10.4824C68.6185 10.5787 68.69 10.7509 68.7293 10.9991C68.9104 11.9436 69.1514 12.9524 69.4522 14.0253C69.753 15.0902 70.0737 16.1752 70.4144 17.2803L70.4978 17.4726C70.554 17.4327 70.5861 17.4008 70.5941 17.3769C70.6102 17.3449 70.6223 17.3089 70.6305 17.269C70.8899 16.1338 71.1732 15.0266 71.4804 13.9476C71.7957 12.8686 72.0947 11.8455 72.3776 10.8783C72.4748 10.5026 72.6713 10.3152 72.9673 10.3162L73.0393 10.3164C73.1992 10.3409 73.331 10.4213 73.4346 10.5576C73.5382 10.6859 73.5937 10.8501 73.6011 11.0501L73.5928 13.8341L73.5785 14.5901C73.5767 15.1821 73.583 15.7701 73.5972 16.3541C73.6195 16.9302 73.6457 17.5143 73.676 18.1064C73.714 18.7545 73.744 19.4346 73.7658 20.1467C73.7877 20.8588 73.8097 21.5388 73.8317 22.1869C73.847 22.4349 73.8582 22.679 73.8655 22.919C73.8808 23.1671 73.896 23.4151 73.9113 23.6631C73.9267 23.8472 73.9422 24.0272 73.9577 24.2033C73.9731 24.3873 74.0046 24.5714 74.052 24.7556L74.0755 24.9117C74.0751 25.0477 74.0268 25.1675 73.9305 25.2712C73.8421 25.3829 73.7299 25.4546 73.5938 25.4862C73.5618 25.4941 73.5178 25.4979 73.4618 25.4978C73.3498 25.4974 73.2459 25.4571 73.1501 25.3768C73.0544 25.3045 72.9827 25.2003 72.9351 25.0641C72.9033 24.976 72.8796 24.888 72.8639 24.7999C72.8561 24.7199 72.8484 24.6359 72.8406 24.5478C72.7572 23.0116 72.6819 21.4473 72.6147 19.8551C72.5555 18.2629 72.5082 16.6948 72.4728 15.1507C72.4649 15.1106 72.457 15.0746 72.4491 15.0426C72.4412 15.0106 72.4293 14.9745 72.4135 14.9345C72.3088 15.1581 72.2281 15.3859 72.1714 15.6177C72.1147 15.8416 72.0581 16.0694 72.0014 16.3012C71.8718 16.8288 71.7462 17.3524 71.6246 17.872C71.5111 18.3837 71.3976 18.9033 71.284 19.431C71.2597 19.5189 71.2354 19.6108 71.2111 19.7068C71.1869 19.8027 71.1546 19.8946 71.1143 19.9825C71.058 20.0863 70.9858 20.1621 70.8976 20.2098C70.8175 20.2576 70.7294 20.2813 70.6334 20.281C70.4494 20.2804 70.2977 20.196 70.1782 20.0276C70.1304 19.9634 70.0946 19.8953 70.0708 19.8232C70.047 19.7432 70.0233 19.6631 69.9995 19.583C69.7776 18.8703 69.5478 18.1656 69.3098 17.4689C69.072 16.7641 68.8581 16.0475 68.6683 15.3189C68.6524 15.2788 68.6405 15.2428 68.6326 15.2108C68.6327 15.1708 68.6128 15.1387 68.5729 15.1146L68.5489 15.1145C68.5249 15.1144 68.5129 15.1304 68.5128 15.1624C68.5039 15.4584 68.495 15.7544 68.4861 16.0503C68.4852 16.3383 68.4844 16.6303 68.4835 16.9263C68.4821 17.3823 68.4968 17.8304 68.5274 18.2705C68.5581 18.7106 68.5728 19.1586 68.5714 19.6146C68.5672 21.0146 68.599 22.4027 68.6669 23.7789C68.6745 23.9149 68.6781 24.055 68.6777 24.199C68.6852 24.343 68.6968 24.487 68.7124 24.6311L68.724 24.7631C68.7233 24.9711 68.6669 25.1269 68.5546 25.2306C68.4502 25.3343 68.286 25.4018 68.0619 25.4331C67.7178 25.472 67.3738 25.4869 67.0298 25.4779C66.6858 25.4768 66.3418 25.4837 65.9977 25.4987L65.9617 25.4986ZM78.9561 16.8867C78.8521 16.8864 78.7879 16.9342 78.7636 17.0301C78.7394 17.1181 78.7269 17.286 78.7261 17.534C78.7164 18.118 78.7107 18.686 78.709 19.238C78.7074 19.782 78.706 20.246 78.7048 20.63C78.6956 21.0459 78.6862 21.5139 78.6766 22.0339C78.667 22.5619 78.6574 23.1018 78.6478 23.6538L78.6342 24.1698C78.6338 24.3218 78.6775 24.3979 78.7655 24.3982L78.8256 24.3864C78.8656 24.3705 78.9057 24.3546 78.9457 24.3387C78.9937 24.3309 79.0378 24.319 79.0778 24.3031C79.2782 24.1838 79.4507 24.0203 79.5953 23.8127C79.7399 23.6132 79.8487 23.3455 79.9217 23.0097C80.1083 22.1623 80.2149 21.2866 80.2416 20.3827C80.2418 20.3267 80.2419 20.2667 80.2421 20.2027C80.2503 20.1307 80.2546 20.0548 80.2548 19.9748C80.2549 19.9348 80.2551 19.8948 80.2552 19.8548C80.2553 19.8148 80.2514 19.7748 80.2435 19.7347C80.2359 19.6227 80.2244 19.4627 80.209 19.2546C80.2016 19.0386 80.1823 18.8145 80.151 18.5824C80.1202 18.1743 80.0372 17.8301 79.9021 17.5497C79.7669 17.2692 79.5595 17.0766 79.2798 16.9717C79.2638 16.9637 79.2479 16.9556 79.2319 16.9476C79.2239 16.9396 79.2119 16.9355 79.1959 16.9355C79.14 16.9193 79.092 16.9071 79.052 16.899C79.0121 16.8909 78.9801 16.8868 78.9561 16.8867ZM75.5317 10.3481L75.6037 10.3483C75.8356 10.357 76.0676 10.3658 76.2996 10.3745C76.5316 10.3752 76.7636 10.3839 76.9955 10.4006C77.0515 10.4088 77.1075 10.417 77.1634 10.4251C77.2194 10.4253 77.2754 10.4335 77.3314 10.4497C77.6191 10.5306 77.7625 10.727 77.7616 11.039L77.7104 12.1189C77.702 12.2468 77.6976 12.3748 77.6972 12.5028C77.6968 12.6308 77.6964 12.7588 77.6961 12.8868C77.6952 13.1748 77.6943 13.4628 77.6935 13.7508C77.7006 14.0388 77.7038 14.3228 77.7029 14.6028L77.7001 15.5508C77.6997 15.6708 77.7155 15.7429 77.7474 15.767C77.7874 15.7911 77.8793 15.8034 78.0233 15.8038C78.4233 15.8131 78.7751 15.8902 79.0786 16.0351C79.3822 16.172 79.6377 16.3528 79.845 16.5775C80.0603 16.8021 80.2316 17.0587 80.3587 17.3471C80.4859 17.6275 80.573 17.9157 80.6201 18.2119C80.6514 18.444 80.6827 18.6721 80.7141 18.8962C80.7454 19.1203 80.7648 19.3123 80.7723 19.4724C80.7877 19.6804 80.7952 19.8484 80.7948 19.9764C80.7945 20.0964 80.7942 20.1884 80.794 20.2524L80.7937 20.3604C80.7507 21.3603 80.5877 22.3438 80.3048 23.3109C80.1028 23.9823 79.7893 24.4933 79.3642 24.844C78.9471 25.1947 78.4305 25.4091 77.8143 25.4872L77.3822 25.5099L76.5182 25.5072L75.7142 25.5167L75.3062 25.5035C75.0023 25.4785 74.7945 25.3979 74.6829 25.2615C74.5713 25.1332 74.512 24.901 74.505 24.565L74.5056 24.373C74.5229 23.933 74.5362 23.4931 74.5456 23.0531C74.5469 22.6131 74.5562 22.1731 74.5735 21.7332C74.5827 21.3332 74.5879 20.9372 74.5891 20.5452C74.5983 20.1453 74.6035 19.7413 74.6047 19.3333L74.6099 17.6173C74.6114 17.1133 74.6129 16.5893 74.6146 16.0453C74.6162 15.4933 74.6179 14.9413 74.6195 14.3893C74.6292 13.8373 74.6388 13.2894 74.6485 12.7454C74.6581 12.1934 74.6757 11.6615 74.7013 11.1495C74.7106 10.7016 74.9114 10.4422 75.3036 10.3714C75.3436 10.3635 75.3836 10.3596 75.4236 10.3598C75.4637 10.3519 75.4997 10.348 75.5317 10.3481ZM81.7982 25.5236C81.7502 25.5234 81.7062 25.5113 81.6663 25.4872C81.6343 25.4711 81.5984 25.4509 81.5585 25.4268C81.4147 25.3384 81.3394 25.1261 81.3324 24.7901C81.3039 23.606 81.2794 22.4339 81.2589 21.2739C81.2384 20.1058 81.23 18.9298 81.2335 17.7458C81.2348 17.3058 81.2362 16.8618 81.2375 16.4138C81.2468 15.9658 81.2562 15.4978 81.2657 15.0099C81.2836 14.3859 81.2934 13.7699 81.2953 13.1619C81.2971 12.554 81.3029 11.938 81.3128 11.314C81.3139 10.954 81.3426 10.7061 81.399 10.5703C81.4634 10.4345 81.5756 10.3668 81.7356 10.3673L82.4555 10.4295C82.5754 10.4539 82.6552 10.5181 82.6949 10.6223C82.7426 10.7264 82.766 10.9065 82.7653 11.1625L82.7643 11.4865C82.7633 11.8225 82.7623 12.1545 82.7613 12.4825C82.7683 12.8105 82.7713 13.1385 82.7704 13.4665C82.7701 13.5545 82.7657 13.6985 82.7571 13.8985C82.7565 14.0985 82.7518 14.3305 82.743 14.5944C82.7422 14.8584 82.7373 15.1384 82.7284 15.4344C82.7196 15.7304 82.7147 16.0184 82.7139 16.2984C82.713 16.5784 82.7082 16.8343 82.6996 17.0663C82.6989 17.2983 82.6983 17.4823 82.6979 17.6183C82.6969 17.9463 82.6959 18.2703 82.695 18.5903C82.702 18.9103 82.7091 19.2304 82.7161 19.5504L82.711 21.2424C82.7098 21.6664 82.7165 22.0864 82.7312 22.5024C82.754 22.9185 82.7727 23.3426 82.7874 23.7746C82.7948 23.9906 82.7981 24.2067 82.7975 24.4227L82.7964 24.7827C82.7791 25.2146 82.6704 25.4463 82.4703 25.4776C82.3583 25.4933 82.2462 25.505 82.1342 25.5126C82.0222 25.5203 81.9102 25.5239 81.7982 25.5236Z" fill="white"/>
</svg>
