<svg width="144" height="50" viewBox="0 0 144 50" fill="none" xmlns="http://www.w3.org/2000/svg">
<path d="M5.88996 31.3494L2.74764 27.0171L1.60969 10.1191C3.3097 7.78365 9.10292 3.06261 18.6758 2.86176C30.6419 2.61069 64.9573 2.21137 78.6683 2.90397C92.3792 3.59658 76.8702 3.84461 81.6968 4.02662C86.5234 4.20862 123.226 4.51612 129.477 7.3853C134.477 9.68064 138.981 13.8888 140.608 15.7059C140.087 16.0373 139.334 17.0975 140.495 18.6863C141.655 20.2751 142.209 22.6721 142.34 23.672C141.641 24.2308 140.236 25.4888 140.215 26.0498C140.188 26.7511 135.609 26.754 137.862 27.7169C139.664 28.4871 140.043 30.5498 140.008 31.4849C138.196 32.2944 133.759 33.918 130.502 33.9356C127.245 33.9532 124.376 34.4654 123.349 34.7193L123.296 36.122C124.811 36.4132 127.534 37.0542 126.304 37.2888C124.767 37.582 123.276 36.6479 121.986 37.1259C120.695 37.604 118.877 38.5889 120.388 38.997C120.844 39.3378 121.296 39.5162 121.704 39.5944C122.212 39.5294 122.759 39.481 123.169 39.453C122.903 39.5872 122.36 39.7198 121.704 39.5944C120.843 39.7047 120.099 39.8628 120.348 40.049C120.744 40.3448 122.354 40.8269 123.109 41.0309L124.339 42.1308L120.275 41.9775C118.039 41.8932 118.456 42.9624 118.945 43.5075C118.347 43.6021 116.8 43.7076 115.388 43.3734C113.623 42.9557 114.365 43.5104 111.31 43.5708C108.866 43.6191 92.839 43.1056 88.692 42.8907C89.0396 42.6698 89.2776 42.2105 87.4486 42.1416L87.4485 42.1416C85.1623 42.0553 84.9082 42.0458 82.1006 42.291C79.2929 42.5363 69.7484 41.2478 61.1114 40.9221C54.2018 40.6615 39.8972 40.1814 38.6271 40.1335C34.625 40.5678 25.1489 41.3459 19.2608 40.9834C11.9006 40.5303 5.61652 38.5375 5.62319 38.3622C5.62853 38.222 4.31061 37.2008 3.65098 36.7077C4.31727 37.0254 5.65654 37.4856 5.68322 36.7843C5.70989 36.083 4.43288 33.9865 3.79103 33.0259L5.88996 31.3494Z" fill="#FDA3C4"/>
<path d="M10.3364 41.5247C9.52348 41.4941 9.46293 42.1941 9.53427 42.5479L7.87641 42.661C7.04975 43.2151 5.55018 44.2939 6.16519 44.1766C6.7802 44.0593 7.96341 43.7177 8.47814 43.5615C8.82574 43.3405 11.1467 42.9599 17.6499 43.2051C25.7788 43.5116 25.0301 43.1323 25.7922 43.161C26.5543 43.1897 11.3525 41.563 10.3364 41.5247Z" fill="#FDA3C4"/>
<path d="M28.4842 32.2479C28.0789 32.2466 27.8289 32.0325 27.7342 31.6056C27.7025 31.4988 27.6868 31.3921 27.6871 31.2854L27.3718 24.3884C27.3737 23.7591 27.3809 23.1511 27.3933 22.5645C27.394 22.3191 27.3948 22.0685 27.3955 21.8125C27.407 21.5565 27.413 21.3112 27.4138 21.0765C27.4252 20.8312 27.4312 20.6072 27.4318 20.4046C27.4324 20.2019 27.4329 20.0259 27.4334 19.8766L27.4346 19.4606C27.4166 18.3619 27.4092 17.2685 27.4124 16.1805C27.4157 15.0925 27.4189 14.0312 27.422 12.9965C27.4229 12.7085 27.4768 12.4954 27.5839 12.357C27.7017 12.208 27.8993 12.118 28.1767 12.0868C28.4115 12.0662 28.6408 12.051 28.8649 12.041C29.0889 12.031 29.3182 12.0264 29.5529 12.0271C29.7982 12.0279 30.0489 12.034 30.3049 12.0454C30.5608 12.0569 30.8114 12.0737 31.0567 12.0958C31.334 12.118 31.5364 12.2039 31.6639 12.3536C31.7915 12.4927 31.8709 12.701 31.9021 12.9784C31.9125 13.0637 31.9175 13.1598 31.9172 13.2664C31.9169 13.3624 31.9166 13.4531 31.9164 13.5384C31.9126 14.7864 31.9088 16.0558 31.905 17.3464C31.9011 18.6264 31.9026 19.9171 31.9093 21.2184L31.9081 21.6184C32.0044 21.5334 32.0633 21.4536 32.0849 21.379C32.1171 21.3044 32.144 21.2298 32.1655 21.1552C32.6067 19.8659 33.0801 18.5287 33.5856 17.1436C34.0911 15.7478 34.6286 14.3468 35.1982 12.9406C35.2411 12.8554 35.2787 12.7702 35.311 12.6849C35.3433 12.589 35.3862 12.4985 35.4398 12.4133C35.5898 12.2005 35.7981 12.0944 36.0647 12.0953C36.0967 12.0954 36.1287 12.0955 36.1607 12.0956C36.2034 12.0957 36.246 12.1065 36.2886 12.128C36.5976 12.2462 36.7516 12.4814 36.7505 12.8334C36.7502 12.9507 36.7339 13.0573 36.7016 13.1532C36.6693 13.2491 36.6316 13.3504 36.5887 13.4569C35.9868 14.9484 35.4171 16.4293 34.8793 17.8996C34.3523 19.3593 33.8573 20.7765 33.3946 22.151C33.2762 22.492 33.1525 22.8276 33.0235 23.1579C32.9052 23.4775 32.7763 23.7971 32.6367 24.1167C32.5829 24.2552 32.5559 24.3671 32.5556 24.4525C32.5553 24.5591 32.5976 24.6873 32.6825 24.8369C33.2766 25.9054 33.839 26.8778 34.3698 27.7541C34.9111 28.6411 35.4846 29.4749 36.0903 30.2554C36.2284 30.4372 36.3986 30.5977 36.6008 30.737C36.6541 30.7692 36.702 30.8013 36.7445 30.8335C36.7977 30.8763 36.8509 30.9191 36.9041 30.9619C37.085 31.1225 37.1751 31.3148 37.1744 31.5388C37.174 31.6881 37.1309 31.8213 37.0452 31.9384C36.9059 32.1513 36.7083 32.2573 36.4523 32.2566C36.3669 32.2563 36.2603 32.2293 36.1325 32.1756C35.8768 32.0574 35.648 31.9074 35.4458 31.7254C35.2437 31.5435 35.0523 31.3402 34.8717 31.1157C34.468 30.5704 34.0697 30.0038 33.6768 29.416C33.2839 28.8281 32.8859 28.1335 32.483 27.3322C32.43 27.2254 32.3663 27.1239 32.2919 27.0277C32.2176 26.9208 32.1273 26.7925 32.0211 26.6428C32.01 26.7921 32.0042 26.9308 32.0038 27.0588C32.0034 27.1868 32.0031 27.3148 32.0027 27.4428C32.0018 27.7201 32.0064 27.9814 32.0163 28.2268C32.0369 28.4829 32.0575 28.7336 32.0781 28.979C32.109 29.3418 32.1346 29.7045 32.1548 30.0672C32.175 30.43 32.1846 30.7927 32.1835 31.1553L32.1828 31.4113C32.1606 31.6993 32.0853 31.907 31.9569 32.0346C31.8392 32.1729 31.6416 32.247 31.3642 32.2568C31.1615 32.2668 30.9589 32.2716 30.7562 32.2709C30.5535 32.2703 30.3509 32.2697 30.1482 32.269L28.4842 32.2479ZM45.2148 30.7477C45.4495 30.7484 45.658 30.589 45.8403 30.2696C45.9153 30.1312 45.9744 29.9927 46.0175 29.8541C46.0712 29.7263 46.125 29.5878 46.1788 29.4386C46.5663 28.2452 46.8526 27.0407 47.0376 25.8253C47.2332 24.6099 47.3543 23.3676 47.4008 22.0984L47.4011 21.9864C47.4051 20.6531 47.2863 19.3727 47.0446 18.1453C46.8137 16.9072 46.4974 15.6742 46.0957 14.4463C46.0746 14.3929 46.0534 14.3448 46.0322 14.3021C46.011 14.2594 45.9898 14.2113 45.9686 14.1579C45.7881 13.8694 45.5486 13.7246 45.2499 13.7237C45.1326 13.7233 45.0098 13.7549 44.8816 13.8186C44.7641 13.8715 44.6625 13.9565 44.5768 14.0736C44.3948 14.3184 44.2553 14.574 44.1585 14.8403C44.0617 15.1067 43.9756 15.3784 43.9001 15.6555C43.6734 16.5615 43.516 17.473 43.4279 18.3901C43.3398 19.2965 43.2677 20.2189 43.2116 21.1574C43.1896 21.3707 43.1783 21.584 43.1777 21.7973C43.177 22.0106 43.1764 22.224 43.1757 22.4373C43.1721 23.664 43.2539 24.8429 43.4211 25.9741C43.5884 27.1053 43.8304 28.2314 44.147 29.3524C44.1998 29.5339 44.2579 29.7047 44.3215 29.8649C44.385 30.0358 44.4751 30.196 44.592 30.3457C44.7939 30.613 45.0015 30.747 45.2148 30.7477ZM42.3782 32.2909C42.1328 32.2901 41.9144 32.2308 41.7227 32.1129C41.5417 32.0056 41.3661 31.8718 41.1959 31.7112C40.9194 31.4437 40.7016 31.1497 40.5426 30.8292C40.3942 30.5087 40.2672 30.1724 40.1616 29.82C39.8132 28.6029 39.5502 27.3861 39.3725 26.1696C39.2055 24.9424 39.124 23.6728 39.128 22.3608C39.1295 21.8488 39.1471 21.3262 39.1807 20.7929C39.2368 19.8438 39.3196 18.9107 39.4291 17.9937C39.5385 17.066 39.7066 16.1439 39.9334 15.2272C40.1815 14.2787 40.6107 13.4533 41.2208 12.7512C41.3493 12.5916 41.4883 12.464 41.6379 12.3685C41.7876 12.273 41.9691 12.2149 42.1825 12.1942C42.4705 12.1737 42.7586 12.1533 43.0467 12.1329C43.3347 12.1124 43.6281 12.1027 43.9267 12.1036C44.2681 12.1046 44.604 12.127 44.9345 12.1707C45.2651 12.2037 45.5956 12.2688 45.926 12.3658C46.3416 12.4844 46.677 12.6828 46.9322 12.9609C47.1874 13.239 47.3783 13.5809 47.5051 13.9867C47.801 14.9263 48.0595 15.8711 48.2806 16.8211C48.5125 17.7605 48.6749 18.7263 48.7679 19.7186C48.799 20.0387 48.8247 20.3588 48.845 20.6789C48.8761 20.9883 48.8912 21.2977 48.8903 21.607L48.8892 21.959C48.8317 23.3562 48.6996 24.7158 48.493 26.0378C48.297 27.3492 47.9891 28.6442 47.5693 29.9229C47.5154 30.1041 47.4563 30.2746 47.3918 30.4344C47.3273 30.6049 47.2521 30.77 47.1663 30.9297C46.812 31.6753 46.2134 32.1054 45.3704 32.2202C45.1036 32.262 44.8369 32.2878 44.5702 32.2977C44.3141 32.3076 44.0528 32.3121 43.7861 32.3113L42.3782 32.2909ZM56.2096 32.3337C55.975 32.3223 55.7403 32.3109 55.5057 32.2995C55.2817 32.2988 55.047 32.2981 54.8017 32.2973L54.0017 32.3109C53.671 32.3098 53.3725 32.2502 53.1062 32.1321C52.8399 32.0246 52.6056 31.8745 52.4036 31.6819C52.2121 31.4893 52.0528 31.2702 51.9255 31.0244C51.7983 30.7787 51.703 30.5171 51.6399 30.2395C51.524 29.7592 51.4241 29.2789 51.3402 28.7986C51.267 28.3184 51.1884 27.8328 51.1046 27.3419C51.0312 26.8936 50.9739 26.4455 50.9326 25.9973C50.902 25.5386 50.8767 25.0692 50.8568 24.5891C50.8476 24.1091 50.8384 23.613 50.8293 23.101C50.8308 22.589 50.8271 22.0503 50.8181 21.485L50.8395 19.709C50.8403 19.421 50.8412 19.133 50.8421 18.845C50.8429 18.557 50.8544 18.2744 50.8766 17.9971C50.9326 17.0906 51.1219 16.2379 51.4443 15.4389C51.7667 14.6399 52.1743 13.8678 52.6672 13.1226C53.1279 12.4414 53.7583 12.102 54.5583 12.1045L56.0463 12.1091L56.8462 12.1276C57.8595 12.1627 58.7383 12.5388 59.4829 13.2557C59.7275 13.4912 59.9294 13.7531 60.0885 14.0416C60.2477 14.3194 60.3534 14.6291 60.4057 14.9706L60.421 15.1946C60.4205 15.376 60.3987 15.5306 60.3557 15.6584C60.3017 15.8503 60.2106 15.9993 60.0823 16.1056C59.954 16.2012 59.8099 16.2488 59.6499 16.2483L59.5539 16.248C59.3833 16.2261 59.2395 16.1617 59.1225 16.0546C59.0055 15.9369 58.9473 15.7768 58.9479 15.5741L58.9482 15.4781C58.9496 15.0088 58.812 14.6457 58.5355 14.3888C58.2696 14.132 57.9502 13.923 57.5773 13.7618C57.4708 13.7188 57.3802 13.6866 57.3056 13.665C57.231 13.6434 57.1564 13.6325 57.0817 13.6323C56.9644 13.6319 56.8629 13.669 56.7774 13.7434C56.6918 13.8178 56.5955 13.9348 56.4883 14.0945C56.0383 14.7757 55.6841 15.4893 55.4259 16.2352C55.1677 16.9704 55.0267 17.754 55.0028 18.5859L54.979 21.2098C54.9762 22.1378 54.9844 22.9699 55.0035 23.7059C55.0226 24.442 55.0578 25.1514 55.1091 25.8343C55.1604 26.5064 55.2438 27.168 55.3592 27.819C55.4745 28.4807 55.6058 29.1478 55.7531 29.8203C55.7637 29.8736 55.7742 29.9217 55.7847 29.9644C55.7952 30.0177 55.8111 30.0711 55.8322 30.1245C56.0122 30.5837 56.2782 30.8139 56.6302 30.815C56.7582 30.8154 56.9129 30.7839 57.0945 30.7204C57.4255 30.5935 57.73 30.4451 58.0078 30.2753C58.2856 30.1054 58.5316 29.8982 58.7457 29.6535C58.9597 29.4195 59.1312 29.1427 59.2602 28.8231C59.3891 28.5035 59.4649 28.1411 59.4874 27.7358L59.5051 27.1919C59.506 26.8825 59.4909 26.5785 59.4598 26.2797C59.4394 25.981 59.4083 25.6769 59.3665 25.3674C59.3562 25.2607 59.3458 25.154 59.3355 25.0473C59.3251 24.9406 59.3201 24.8286 59.3205 24.7113C59.3207 24.658 59.3208 24.61 59.3209 24.5673C59.3211 24.5246 59.3265 24.4766 59.3374 24.4233C59.37 24.2208 59.4504 24.061 59.5788 23.9441C59.7072 23.8165 59.862 23.753 60.0434 23.7535L60.0754 23.7536C60.246 23.7541 60.3952 23.8133 60.5228 23.931C60.6505 24.0381 60.7301 24.193 60.7614 24.3957C60.8133 24.8759 60.8652 25.3561 60.9171 25.8362C60.9691 26.3057 60.9943 26.7805 60.9929 27.2605C60.9923 27.4418 60.9864 27.6231 60.9752 27.8044C60.964 27.9857 60.9475 28.167 60.9256 28.3483C60.8707 28.8601 60.7306 29.329 60.5054 29.755C60.2801 30.1809 59.9803 30.564 59.6059 30.9042C59.1353 31.3294 58.6276 31.6745 58.0828 31.9395C57.538 32.2045 56.9296 32.3359 56.2576 32.3338L56.2096 32.3337ZM67.1827 32.4477C66.9587 32.447 66.7347 32.4356 66.5108 32.4136C66.2975 32.4022 66.0789 32.3749 65.855 32.3315C65.6099 32.2775 65.4341 32.1862 65.3279 32.0579C65.2322 31.9403 65.1741 31.7481 65.1536 31.4814C65.0613 30.2331 64.9851 28.9902 64.9248 27.7526C64.8751 26.5258 64.8522 25.2831 64.856 24.0244L64.8756 22.7925C64.9003 21.6939 64.9142 20.6006 64.9175 19.5126C64.9315 18.414 64.9668 17.3047 65.0235 16.1849C65.0459 15.8223 65.0683 15.4704 65.0906 15.1291C65.1237 14.7772 65.162 14.4573 65.2055 14.1694L65.2057 14.1054C65.2061 13.9668 65.1744 13.8653 65.1106 13.8012C65.0575 13.737 64.9563 13.694 64.807 13.6722C64.5298 13.6394 64.2578 13.6225 63.9912 13.6217C63.8952 13.6214 63.7938 13.6211 63.6872 13.6207C63.5912 13.6204 63.4951 13.6255 63.3991 13.6359C63.3031 13.6249 63.2072 13.6193 63.1112 13.619C63.0152 13.6187 62.9245 13.6077 62.8393 13.5861C62.6794 13.543 62.5516 13.4626 62.456 13.3449C62.3603 13.2273 62.3127 13.0885 62.3132 12.9285L62.3134 12.8805C62.3142 12.5925 62.4642 12.3743 62.7633 12.2259C62.9022 12.173 63.0462 12.1468 63.1956 12.1472L63.3875 12.1638C64.4862 12.1779 65.5688 12.1919 66.6354 12.2059C67.7127 12.2092 68.8007 12.2126 69.8994 12.216L70.9874 12.2193C71.1794 12.2199 71.3926 12.2473 71.6272 12.3013C71.8083 12.3552 71.9467 12.4463 72.0423 12.5746C72.1486 12.6923 72.2016 12.8311 72.2011 12.9911L72.1847 13.103C72.1629 13.2736 72.0878 13.4174 71.9595 13.5343C71.8311 13.6406 71.6656 13.6988 71.4629 13.7088L70.0549 13.7045C69.9269 13.7041 69.8256 13.7091 69.7509 13.7195C69.6869 13.7193 69.6388 13.7352 69.6067 13.7671C69.5747 13.799 69.5478 13.8522 69.5263 13.9268C69.5154 13.9908 69.5045 14.0868 69.4934 14.2147C69.3732 15.185 69.2956 16.1608 69.2606 17.142C69.2364 18.1126 69.2228 19.0832 69.2199 20.0539L69.212 22.6779C69.2002 23.0512 69.1884 23.4298 69.1766 23.8138C69.1755 24.1871 69.1744 24.5604 69.1732 24.9338C69.1717 25.4351 69.1756 25.9365 69.1847 26.4378C69.1939 26.9285 69.2191 27.4246 69.2603 27.9261C69.3014 28.4489 69.3211 28.9663 69.3196 29.4783C69.318 30.0009 69.3591 30.5237 69.4429 31.0466C69.4535 31.0787 69.4587 31.1107 69.4586 31.1427C69.4585 31.1854 69.4584 31.2227 69.4583 31.2547L69.4414 31.5586C69.4087 31.7825 69.3335 31.9583 69.2158 32.0859C69.1087 32.2136 68.9432 32.2931 68.7191 32.3244C68.4629 32.3663 68.2068 32.3975 67.9508 32.418C67.6947 32.4386 67.4387 32.4484 67.1827 32.4477ZM81.3834 30.8596C81.4901 30.8599 81.5865 30.7002 81.6728 30.3805C81.7053 30.2419 81.7323 30.1033 81.7541 29.9647C81.7758 29.8368 81.7976 29.6982 81.8193 29.5489C81.9936 28.3548 82.1199 27.1499 82.1982 25.9341C82.2872 24.7184 82.3442 23.4759 82.3694 22.2066L82.3697 22.0946C82.3737 20.7613 82.3242 19.4811 82.2212 18.2541C82.1183 17.0165 81.978 15.784 81.8003 14.5568C81.7898 14.5034 81.7793 14.4554 81.7687 14.4127C81.7689 14.37 81.7637 14.322 81.7532 14.2687C81.6687 13.9804 81.5625 13.8361 81.4345 13.8357C81.3811 13.8355 81.3277 13.8673 81.2742 13.9312C81.2207 13.9843 81.1724 14.0695 81.1294 14.1867C81.054 14.4318 80.9946 14.6876 80.9511 14.9542C80.9076 15.2207 80.8695 15.4926 80.8367 15.7698C80.7379 16.6762 80.6659 17.588 80.6205 18.5052C80.5751 19.4117 80.5403 20.3343 80.5162 21.2729C80.5048 21.4862 80.4989 21.6995 80.4982 21.9128C80.4976 22.1261 80.497 22.3395 80.4963 22.5528C80.4926 23.7795 80.5264 24.9582 80.5977 26.0891C80.6796 27.2201 80.7883 28.3457 80.9236 29.4662C80.9444 29.6476 80.9652 29.8183 80.986 29.9784C81.0175 30.1491 81.0597 30.3093 81.1126 30.4588C81.2078 30.7257 81.2981 30.8593 81.3834 30.8596ZM76.9347 20.4138C76.969 19.6459 77.0193 18.8887 77.0855 18.1422C77.1629 17.2251 77.283 16.3082 77.4458 15.3913C77.6193 14.4425 77.9258 13.6168 78.3652 12.9142C78.4617 12.7545 78.5634 12.6268 78.6704 12.5311C78.7773 12.4354 78.9055 12.3772 79.0549 12.3563C79.2683 12.3356 79.4764 12.3149 79.6791 12.2942C79.8818 12.2735 80.0898 12.2635 80.3032 12.2642C80.5485 12.2649 80.7884 12.287 81.023 12.3304C81.2682 12.3631 81.508 12.4279 81.7424 12.5246C82.0407 12.6429 82.2801 12.8409 82.4606 13.1188C82.6411 13.3967 82.7788 13.7385 82.8736 14.1441C83.0841 15.0834 83.2679 16.028 83.4251 16.9778C83.5929 17.917 83.7073 18.8827 83.7684 19.8749C83.7887 20.195 83.8091 20.515 83.8295 20.8351C83.8499 21.1445 83.8596 21.4539 83.8587 21.7632L83.8576 22.1152C83.8108 23.5124 83.716 24.8721 83.5734 26.1943C83.4308 27.5059 83.2082 28.8012 82.9057 30.0803C82.8625 30.2615 82.8194 30.432 82.7762 30.5919C82.733 30.7624 82.6792 30.9276 82.6147 31.0874C82.3565 31.8333 81.9285 32.264 81.3308 32.3794C81.1387 32.4215 80.9466 32.4476 80.7546 32.4577C80.5732 32.4678 80.3866 32.4725 80.1946 32.4719L79.1866 32.4528C79.0053 32.4522 78.8455 32.3931 78.7071 32.2753C78.5795 32.1683 78.4572 32.0345 78.3403 31.8742C78.1385 31.6069 77.9794 31.3131 77.863 30.9927C77.7573 30.6724 77.6676 30.3361 77.594 29.9839C77.3523 28.7671 77.1693 27.5452 77.045 26.3181C76.9724 25.6139 76.9213 24.8938 76.8915 24.1577C76.8275 24.1681 76.7634 24.1733 76.6994 24.1731L76.5074 24.1725C76.3368 24.1719 76.1662 24.1554 75.9956 24.1229L75.9922 25.2589C75.9895 26.1655 75.9974 27.0776 76.016 27.995C76.0144 28.507 76.0236 29.003 76.0435 29.4831C76.0634 29.9738 76.0725 30.4698 76.071 30.9712C76.0703 31.2165 76.0644 31.4138 76.0533 31.5631C76.0421 31.7231 76.0204 31.851 75.9881 31.9469C75.9558 32.0428 75.9023 32.1173 75.8274 32.1704C75.7526 32.2342 75.6511 32.2872 75.523 32.3295C75.3948 32.3717 75.2668 32.398 75.1387 32.4083C75.0107 32.4185 74.8827 32.4235 74.7547 32.4231L74.1467 32.4052C73.9761 32.3833 73.8537 32.3083 73.7794 32.1801C73.7051 32.0518 73.6631 31.833 73.6534 31.5237C73.6338 30.9263 73.6197 30.3129 73.6109 29.6835C73.5927 28.6381 73.5745 27.5981 73.5563 26.5633C73.5487 25.5287 73.5465 24.4886 73.5496 23.4433L73.5702 16.5953C73.5825 16.0514 73.5894 15.5074 73.591 14.9634C73.5927 14.4194 73.6156 13.8755 73.6599 13.3316C73.6712 13.1503 73.6876 13.001 73.7093 12.8838C73.731 12.7665 73.7579 12.6706 73.7902 12.596C73.833 12.5215 73.8865 12.4683 73.9506 12.4365C74.0254 12.3941 74.1109 12.357 74.207 12.3253C74.3671 12.2938 74.5218 12.2676 74.6712 12.2467C74.8206 12.2259 74.97 12.2157 75.1193 12.2161C75.2899 12.2273 75.4339 12.2384 75.5512 12.2495C75.6685 12.2498 75.7645 12.2768 75.839 12.3303C75.9135 12.3839 75.9665 12.4747 75.9981 12.6028C76.0405 12.7203 76.0613 12.891 76.0606 13.115C76.0598 13.371 76.0538 13.611 76.0424 13.835C76.0311 14.0483 76.0198 14.2669 76.0085 14.4909C76.0078 14.7042 76.0018 14.9282 75.9905 15.1628C75.9898 15.3868 75.989 15.6375 75.9882 15.9148C75.997 16.5549 76.0006 17.1255 75.9991 17.6269C75.9976 18.1282 76.0014 18.6189 76.0107 19.0989L76.0065 20.4909C76.2626 20.4384 76.5347 20.4125 76.8227 20.4134L76.9347 20.4138ZM86.8741 32.4766C86.4367 32.4752 86.1868 32.2291 86.1243 31.7383C86.1035 31.5462 86.0881 31.3542 86.078 31.1621C86.0679 30.9701 86.0578 30.7781 86.0477 30.586C86.0192 29.4233 85.98 28.2605 85.9302 27.0976C85.8804 25.9242 85.8519 24.7507 85.8448 23.5774C85.8458 23.236 85.8361 22.8947 85.8158 22.5533C85.7955 22.2119 85.7859 21.8705 85.7869 21.5292L85.843 13.5133C85.8664 12.7987 86.2089 12.4104 86.8705 12.3485C87.2226 12.3069 87.5693 12.276 87.9107 12.2557C88.2628 12.2248 88.6149 12.2099 88.9669 12.211C89.0629 12.2113 89.1589 12.2116 89.2549 12.2119C89.3509 12.2122 89.4522 12.2178 89.5588 12.2288C89.9001 12.2512 90.1399 12.3266 90.2782 12.455C90.4164 12.5835 90.5117 12.8131 90.5641 13.1439C90.8056 14.4033 91.1269 15.7483 91.528 17.1789C91.9291 18.5988 92.3567 20.0455 92.811 21.5189L92.9222 21.7753C92.997 21.7222 93.0398 21.6796 93.0506 21.6477C93.072 21.6051 93.0882 21.5571 93.099 21.5038C93.4449 19.9902 93.8227 18.514 94.2323 17.0753C94.6526 15.6366 95.0514 14.2725 95.4286 12.983C95.5581 12.482 95.8202 12.2322 96.2148 12.2334L96.3108 12.2337C96.5241 12.2664 96.6998 12.3736 96.8379 12.5553C96.976 12.7264 97.05 12.9453 97.0599 13.212L97.0488 16.924L97.0298 17.9319C97.0274 18.7213 97.0357 19.5053 97.0547 20.284C97.0844 21.0521 97.1194 21.8309 97.1597 22.6204C97.2104 23.4845 97.2504 24.3913 97.2795 25.3408C97.3087 26.2902 97.338 27.1969 97.3674 28.061C97.3877 28.3918 97.4027 28.7172 97.4124 29.0372C97.4328 29.3679 97.4531 29.6986 97.4735 30.0294C97.4941 30.2748 97.5147 30.5148 97.5353 30.7496C97.5559 30.995 97.5978 31.2404 97.6611 31.486L97.6925 31.6941C97.6919 31.8754 97.6274 32.0352 97.499 32.1735C97.3812 32.3224 97.2316 32.418 97.0502 32.4601C97.0075 32.4706 96.9488 32.4758 96.8741 32.4755C96.7248 32.4751 96.5863 32.4213 96.4586 32.3142C96.3309 32.2179 96.2353 32.0789 96.1719 31.8974C96.1295 31.7799 96.0979 31.6625 96.0769 31.5451C96.0666 31.4384 96.0562 31.3263 96.0459 31.209C95.9347 29.1606 95.8343 27.075 95.7447 24.952C95.6657 22.8291 95.6027 20.7382 95.5555 18.6794C95.545 18.626 95.5345 18.578 95.5239 18.5353C95.5134 18.4926 95.4975 18.4445 95.4764 18.3911C95.3368 18.6894 95.2292 18.993 95.1536 19.3021C95.0781 19.6006 95.0025 19.9044 94.9269 20.2135C94.7541 20.9169 94.5867 21.6151 94.4246 22.3079C94.2732 22.9901 94.1218 23.683 93.9704 24.3865C93.938 24.5037 93.9057 24.6263 93.8733 24.7542C93.8409 24.8821 93.7979 25.0046 93.7442 25.1218C93.6691 25.2602 93.5728 25.3613 93.4553 25.4249C93.3484 25.4886 93.231 25.5202 93.103 25.5198C92.8576 25.5191 92.6553 25.4064 92.496 25.182C92.4322 25.0964 92.3845 25.0056 92.3528 24.9095C92.3211 24.8027 92.2894 24.696 92.2578 24.5892C91.9619 23.639 91.6554 22.6993 91.3382 21.7704C91.021 20.8307 90.7359 19.8751 90.4828 18.9037C90.4616 18.8503 90.4458 18.8022 90.4352 18.7595C90.4354 18.7062 90.4089 18.6635 90.3556 18.6313L90.3236 18.6312C90.2916 18.6311 90.2756 18.6524 90.2754 18.695C90.2636 19.0897 90.2517 19.4843 90.2399 19.8789C90.2387 20.2629 90.2376 20.6523 90.2364 21.0469C90.2346 21.6549 90.2541 22.2523 90.295 22.8391C90.3359 23.4259 90.3554 24.0233 90.3536 24.6313C90.348 26.498 90.3905 28.3488 90.481 30.1837C90.4911 30.3651 90.4959 30.5518 90.4953 30.7438C90.5054 30.9358 90.5208 31.1279 90.5416 31.3199L90.557 31.496C90.5562 31.7733 90.4809 31.9811 90.3312 32.1193C90.1921 32.2575 89.9731 32.3475 89.6743 32.3893C89.2155 32.4412 88.7568 32.4611 88.2982 32.449C87.8395 32.4476 87.3808 32.4568 86.9221 32.4767L86.8741 32.4766ZM104.2 20.9942C104.061 20.9937 103.976 21.0575 103.943 21.1854C103.911 21.3026 103.894 21.5265 103.893 21.8572C103.88 22.6358 103.873 23.3931 103.87 24.1291C103.868 24.8545 103.866 25.4731 103.865 25.9851C103.853 26.5398 103.84 27.1637 103.827 27.857C103.814 28.561 103.802 29.281 103.789 30.0169L103.771 30.7049C103.77 30.9075 103.828 31.009 103.946 31.0094L104.026 30.9937C104.079 30.9725 104.133 30.9513 104.186 30.9302C104.25 30.9197 104.309 30.9039 104.362 30.8827C104.629 30.7235 104.859 30.5056 105.052 30.2288C105.245 29.9628 105.39 29.6059 105.487 29.1582C105.736 28.0283 105.878 26.8607 105.914 25.6555C105.914 25.5808 105.914 25.5008 105.915 25.4155C105.926 25.3195 105.931 25.2182 105.932 25.1115C105.932 25.0582 105.932 25.0049 105.932 24.9515C105.932 24.8982 105.927 24.8448 105.916 24.7915C105.906 24.6421 105.891 24.4287 105.87 24.1513C105.861 23.8633 105.835 23.5646 105.793 23.2551C105.752 22.711 105.641 22.252 105.461 21.8781C105.281 21.5042 105.004 21.2473 104.632 21.1075C104.61 21.0968 104.589 21.086 104.568 21.0753C104.557 21.0646 104.541 21.0592 104.52 21.0591C104.445 21.0376 104.381 21.0214 104.328 21.0105C104.274 20.9997 104.232 20.9942 104.2 20.9942ZM99.634 12.276L99.73 12.2763C100.039 12.2879 100.349 12.2995 100.658 12.3111C100.967 12.3121 101.277 12.3237 101.586 12.346C101.66 12.3569 101.735 12.3678 101.81 12.3787C101.884 12.3789 101.959 12.3898 102.034 12.4114C102.417 12.5193 102.608 12.7812 102.607 13.1972L102.539 14.637C102.528 14.8076 102.522 14.9783 102.521 15.1489C102.521 15.3196 102.52 15.4903 102.52 15.6609C102.519 16.0449 102.518 16.4289 102.516 16.8129C102.526 17.197 102.53 17.5756 102.529 17.949L102.525 19.213C102.525 19.373 102.546 19.469 102.588 19.5012C102.642 19.5333 102.764 19.5497 102.956 19.5503C103.489 19.5626 103.958 19.6654 104.363 19.8587C104.768 20.0412 105.109 20.2823 105.385 20.5818C105.672 20.8814 105.9 21.2234 106.07 21.6079C106.24 21.9818 106.356 22.3662 106.419 22.761C106.46 23.0705 106.502 23.3746 106.544 23.6734C106.586 23.9722 106.611 24.2283 106.622 24.4417C106.642 24.7191 106.652 24.9431 106.651 25.1138C106.651 25.2738 106.651 25.3964 106.65 25.4818L106.65 25.6258C106.593 26.9589 106.375 28.2703 105.998 29.5598C105.729 30.4549 105.311 31.1363 104.744 31.6039C104.188 32.0715 103.499 32.3574 102.677 32.4615L102.101 32.4917L100.949 32.4881L99.8773 32.5008L99.3334 32.4831C98.9281 32.4499 98.6511 32.3424 98.5023 32.1606C98.3535 31.9894 98.2744 31.6799 98.2651 31.2318L98.2659 30.9758C98.289 30.3892 98.3067 29.8026 98.3192 29.216C98.3209 28.6293 98.3333 28.0427 98.3564 27.4561C98.3687 26.9228 98.3756 26.3948 98.3772 25.8722C98.3895 25.3389 98.3964 24.8002 98.398 24.2562L98.4049 21.9682C98.4069 21.2962 98.409 20.5976 98.4112 19.8722C98.4134 19.1362 98.4156 18.4002 98.4178 17.6642C98.4307 16.9283 98.4435 16.1976 98.4564 15.4724C98.4693 14.7364 98.4927 14.0271 98.5268 13.3446C98.5392 12.7473 98.8069 12.4014 99.3299 12.307C99.3833 12.2965 99.4366 12.2914 99.4899 12.2915C99.5433 12.281 99.5913 12.2758 99.634 12.276ZM107.989 32.5099C107.925 32.5097 107.867 32.4936 107.813 32.4614C107.771 32.4399 107.723 32.4131 107.67 32.3809C107.478 32.263 107.378 31.98 107.368 31.532C107.33 29.9532 107.298 28.3904 107.27 26.8437C107.243 25.2863 107.232 23.7182 107.236 22.1396C107.238 21.5529 107.24 20.9609 107.242 20.3636C107.254 19.7663 107.267 19.1423 107.279 18.4917C107.303 17.6597 107.316 16.8384 107.319 16.0278C107.321 15.2171 107.329 14.3958 107.342 13.5638C107.344 13.0838 107.382 12.7533 107.457 12.5722C107.543 12.3911 107.693 12.3009 107.906 12.3016L108.866 12.3845C109.026 12.417 109.132 12.5027 109.185 12.6415C109.249 12.7804 109.28 13.0205 109.279 13.3618L109.277 13.7938C109.276 14.2418 109.275 14.6845 109.273 15.1218C109.283 15.5592 109.287 15.9965 109.286 16.4339C109.285 16.5512 109.279 16.7432 109.268 17.0098C109.267 17.2765 109.261 17.5858 109.249 17.9378C109.248 18.2898 109.242 18.6631 109.23 19.0577C109.218 19.4523 109.211 19.8363 109.21 20.2097C109.209 20.583 109.203 20.9243 109.191 21.2336C109.19 21.5429 109.189 21.7883 109.189 21.9696C109.188 22.4069 109.186 22.8389 109.185 23.2656C109.194 23.6923 109.204 24.119 109.213 24.5457L109.206 26.8017C109.205 27.367 109.214 27.927 109.233 28.4818C109.264 29.0365 109.289 29.6019 109.308 30.178C109.318 30.466 109.323 30.7541 109.322 31.042L109.32 31.522C109.297 32.098 109.152 32.4069 108.886 32.4487C108.736 32.4696 108.587 32.4851 108.437 32.4953C108.288 32.5055 108.139 32.5104 107.989 32.5099Z" fill="white"/>
</svg>
