<svg width="133" height="54" viewBox="0 0 133 54" fill="none" xmlns="http://www.w3.org/2000/svg">
<path d="M7.01966 35.9775L3.78902 31.7898L2.21411 15.0633C3.83827 12.686 9.45858 7.79719 18.9465 7.25991C30.8064 6.58832 44.9458 5.05058 58.561 5.25372C59.1823 5.26299 59.7344 5.27152 60.2227 5.27937C72.0116 5.06874 112.09 4.15424 117.706 6.5047C122.726 8.60564 127.303 12.622 128.965 14.3676C128.456 14.7149 127.738 15.7933 128.931 17.3288C130.124 18.8643 130.736 21.2231 130.893 22.2106C130.214 22.7898 128.854 24.0876 128.848 24.645C128.84 25.3418 124.299 25.5063 126.558 26.3821C128.366 27.0828 128.797 29.116 128.786 30.0451C127.011 30.9123 122.654 32.6799 119.424 32.8123C116.195 32.9448 113.364 33.5543 112.352 33.8425L112.336 35.2362C113.846 35.4716 116.564 36.0115 115.35 36.2877C113.833 36.6328 112.33 35.7586 111.063 36.2786C109.796 36.7985 108.019 37.8399 109.528 38.1915C109.989 38.5135 110.442 38.6746 110.849 38.7377C111.351 38.6554 111.893 38.5879 112.298 38.5458C112.038 38.6883 111.503 38.8391 110.849 38.7377C109.998 38.8776 109.264 39.0607 109.516 39.2367C109.917 39.5162 111.526 39.9377 112.28 40.1135L113.529 41.1614L109.495 41.1528C107.275 41.1481 107.717 42.1942 108.216 42.7179C107.626 42.8328 106.095 42.9921 104.686 42.7104C102.924 42.3582 103.675 42.8824 100.647 43.0502C98.2244 43.1844 59.5082 44.0529 55.3901 43.986C55.729 43.7545 55.9528 43.2904 54.1372 43.2866C52.0234 43.2821 51.6596 43.2813 49.3753 43.5579L52.0728 43.5637C60.6466 43.5819 46.0598 43.9662 48.8376 43.6237C49.0283 43.6002 49.207 43.5783 49.3753 43.5579L39.7165 43.5374C35.7593 44.1097 26.3825 45.2162 20.5338 45.0644C13.2228 44.8747 6.93839 43.1194 6.94038 42.9452C6.94196 42.8058 5.60802 41.8391 4.94085 41.3731C5.61 41.6649 6.95029 42.0742 6.95821 41.3774C6.96614 40.6806 5.64436 38.6455 4.98248 37.715L7.01966 35.9775Z" fill="#FDA3C4"/>
<path d="M11.6979 45.9167C10.891 45.9149 10.8494 46.6117 10.9295 46.9602L9.28842 47.1309C8.48328 47.7099 7.02468 48.8333 7.63148 48.6952C8.23827 48.5571 9.40261 48.1764 9.90893 48.0032C10.2478 47.7717 12.5394 47.312 18.995 47.3258C27.0644 47.3429 26.3119 46.9929 27.0684 46.9945C27.8249 46.9961 12.7066 45.9188 11.6979 45.9167Z" fill="#FDA3C4"/>
<path d="M39.7555 35.786C39.5956 35.7906 39.4355 35.7898 39.2753 35.7838C39.126 35.7881 38.9712 35.7872 38.811 35.7811C38.5225 35.768 38.3122 35.6887 38.1801 35.5431C38.0483 35.4081 37.9727 35.1862 37.9534 34.8773C37.8688 33.7593 37.7909 32.6891 37.7196 31.6667C37.6593 30.6547 37.6134 29.5836 37.5818 28.4533L37.5508 26.1973L37.5435 25.3652C37.5235 24.6508 37.4877 23.9422 37.4361 23.2394C37.3841 22.5259 37.3482 21.812 37.3282 21.0976L37.3099 20.4418C37.3175 19.9507 37.3091 19.4601 37.2847 18.97C37.2604 18.4798 37.268 17.9887 37.3076 17.4967L37.3049 17.4007C37.2992 17.1981 37.1683 17.0952 36.9121 17.0919L36.6082 17.1006C36.1391 17.1141 35.6706 17.1488 35.2026 17.205C34.745 17.2501 34.2817 17.2794 33.8125 17.2929L32.4375 17.3483C32.1816 17.3557 32.0518 17.4821 32.048 17.7277C32.0504 17.813 32.0473 17.8931 32.0387 17.968C32.0298 18.0323 32.0264 18.1018 32.0285 18.1764L32.0975 21.2157C32.1094 21.6422 32.1211 22.0633 32.1328 22.4792C32.1444 22.895 32.1668 23.3159 32.2001 23.7418C32.2188 24.0294 32.2375 24.3169 32.2562 24.6045C32.2749 24.8921 32.2883 25.1798 32.2963 25.4677L32.3 26.1719C32.2867 26.4604 32.2841 26.7486 32.2922 27.0365C32.2999 27.3137 32.3078 27.5963 32.3158 27.8842C32.3266 28.268 32.337 28.6412 32.3471 29.0037C32.3676 29.3553 32.388 29.7015 32.4082 30.0424C32.4284 30.3833 32.4435 30.735 32.4537 31.0975C32.4742 31.4491 32.4898 31.8168 32.5005 32.2006L32.5108 32.5685C32.5203 32.9097 32.546 33.2558 32.5878 33.6067C32.6403 33.9573 32.6716 34.3139 32.6818 34.6765L32.6853 34.8044C32.6845 35.1566 32.6222 35.4091 32.4984 35.5621C32.3853 35.7147 32.1537 35.8281 31.8037 35.9021C31.5383 35.9524 31.2725 35.9868 31.0062 36.0051C30.7403 36.034 30.4687 36.0525 30.1915 36.0605L29.3913 36.0674C29.0496 36.0559 28.8074 35.9828 28.6649 35.8482C28.5331 35.7132 28.4518 35.4755 28.4209 35.1349C28.3188 33.7719 28.2288 32.4619 28.151 31.205C28.0732 29.948 28.0152 28.6372 27.9771 27.2724L27.7661 19.7233C27.7541 19.2968 27.7477 18.8755 27.7467 18.4593C27.7455 18.0325 27.7656 17.6051 27.8069 17.1771C27.8229 16.9846 27.8504 16.8237 27.8895 16.6945C27.9286 16.5654 27.9844 16.4624 28.0569 16.3856C28.1398 16.2978 28.2447 16.2308 28.3714 16.1845C28.5089 16.1379 28.6732 16.1011 28.8645 16.0743C29.2149 16.0109 29.5659 15.9688 29.9174 15.948C30.269 15.9273 30.626 15.9117 30.9885 15.9013L32.5883 15.8714C32.8016 15.8653 33.0095 15.8593 33.2121 15.8535C33.4253 15.8474 33.6383 15.8306 33.8509 15.8032C34.2555 15.7702 34.6601 15.7372 35.0646 15.7043C35.4799 15.671 35.8901 15.6486 36.2952 15.637L36.5831 15.6287C37.2765 15.6195 37.9594 15.6212 38.6321 15.6339C39.315 15.6357 39.9983 15.6481 40.6819 15.6711C41.013 15.683 41.2498 15.7562 41.3923 15.8909C41.5452 16.0145 41.6258 16.2256 41.6341 16.5242L41.6239 16.7326C41.5864 17.2992 41.5647 17.8601 41.5589 18.4151C41.5637 18.9699 41.5741 19.5298 41.5898 20.0949C41.6056 20.66 41.6266 21.2197 41.6528 21.7738C41.6789 22.3279 41.7106 22.8873 41.7477 23.4518L41.7918 24.4589C41.8085 25.056 41.8144 25.6481 41.8095 26.2351C41.8152 26.8219 41.8263 27.4085 41.8427 27.9949L41.9171 29.5134C41.9391 29.9183 41.9606 30.3071 41.9817 30.68C42.0028 31.0529 42.0184 31.4206 42.0286 31.7831C42.0497 32.156 42.0706 32.5236 42.0914 32.8858C42.1232 33.2584 42.1607 33.6468 42.204 34.051L42.2219 34.6908C42.2187 34.9577 42.1602 35.1568 42.0465 35.2881C41.9331 35.43 41.7492 35.5314 41.4948 35.592C40.9217 35.7045 40.3419 35.7692 39.7555 35.786ZM49.1062 15.2373C49.3941 15.229 49.6824 15.2368 49.9712 15.2605C50.2596 15.2736 50.5431 15.2974 50.8215 15.3321C51.3564 15.3808 51.7832 15.5713 52.102 15.9036C52.4314 16.2357 52.6776 16.6448 52.8405 17.131C52.9798 17.5325 53.0766 17.9405 53.1309 18.3551C53.1955 18.7588 53.2443 19.1682 53.2772 19.5834L53.6783 24.1978C53.7053 24.3998 53.7248 24.714 53.7367 25.1405C53.7483 25.5564 53.7599 25.9722 53.7715 26.3881C53.7811 26.7293 53.7896 27.0331 53.797 27.2997C53.8042 27.5556 53.8035 27.721 53.7949 27.796C53.7877 29.066 53.7614 30.2246 53.716 31.2717C53.6812 32.3184 53.6298 33.3443 53.5619 34.3494C53.5288 34.6918 53.4395 34.9344 53.2941 35.0773C53.1487 35.2202 52.9004 35.3074 52.5491 35.3388C52.2725 35.3681 51.9904 35.3922 51.7028 35.4111C51.4262 35.4404 51.1493 35.459 50.8721 35.467C50.7654 35.47 50.6642 35.4729 50.5682 35.4757C50.4722 35.4784 50.3708 35.476 50.2639 35.4684C49.8898 35.4471 49.6263 35.3747 49.4735 35.251C49.3316 35.1377 49.2562 34.9211 49.2472 34.6012L49.2561 34.3449C49.2847 33.8425 49.3135 33.3455 49.3425 32.8538C49.3714 32.3621 49.3947 31.8599 49.4124 31.3471C49.4372 30.7062 49.4568 30.0707 49.4712 29.4407C49.4853 28.8 49.4994 28.1593 49.5135 27.5187L49.5054 27.2308C49.5007 27.0602 49.4894 26.8471 49.4716 26.5915C49.4641 26.3249 49.4513 26.0585 49.4332 25.7923C49.4255 25.515 49.4128 25.254 49.3953 25.009C49.3882 24.7531 49.3772 24.5507 49.3623 24.4017C49.2864 23.5929 49.2159 22.7893 49.1509 21.9908C49.0856 21.1817 49.0147 20.362 48.9381 19.5319C48.9105 19.3086 48.8776 19.0854 48.8394 18.8625C48.8118 18.6392 48.7789 18.416 48.7406 18.193C48.7276 18.108 48.7093 18.0285 48.6859 17.9545C48.6622 17.8698 48.6385 17.7851 48.6148 17.7004C48.5458 17.521 48.4507 17.3637 48.3295 17.2284C48.2187 17.0822 48.0669 16.9958 47.8741 16.9694L47.7617 16.9566C47.5911 16.9615 47.4488 17.0243 47.3348 17.1449C47.2314 17.2653 47.1339 17.4014 47.0421 17.5535C46.7975 17.966 46.6122 18.3981 46.4861 18.85C46.36 19.3018 46.2447 19.7586 46.1403 20.2204C45.9526 21.1435 45.8288 22.0595 45.7689 22.9682C45.7089 23.877 45.6812 24.7955 45.6858 25.7237C45.6897 25.8623 45.6936 26.001 45.6975 26.1396C45.701 26.2675 45.6941 26.4011 45.6766 26.5403C45.6193 27.1609 45.5834 27.7862 45.569 28.4162C45.5546 29.0462 45.551 29.6812 45.5582 30.3213C45.5652 30.9507 45.5777 31.5906 45.5959 32.241C45.6141 32.8914 45.6272 33.5526 45.6353 34.2247C45.6386 34.342 45.6364 34.4541 45.6287 34.561C45.632 34.6783 45.6246 34.7959 45.6066 34.9138C45.5592 35.1286 45.473 35.2911 45.3481 35.4014C45.2341 35.5221 45.0864 35.585 44.9052 35.5902L44.8092 35.5929C44.3812 35.5519 44.1604 35.2861 44.1467 34.7956C44.1392 34.1449 44.1327 33.5315 44.1273 32.9554C44.1221 32.39 44.1118 31.8301 44.0963 31.2756C44.0843 30.465 44.0832 29.6593 44.0928 28.8587C44.1021 28.0475 44.1381 27.2354 44.2008 26.4226C44.2386 25.8666 44.2499 25.3168 44.2347 24.773C44.2299 24.2182 44.2462 23.6575 44.2837 23.0909C44.3467 22.2887 44.4364 21.4912 44.553 20.6982C44.6802 19.9049 44.861 19.1207 45.0955 18.3456C45.1831 18.0443 45.2925 17.7584 45.4236 17.4879C45.5545 17.2067 45.6962 16.9305 45.8486 16.6593C46.0313 16.3233 46.2642 16.0658 46.5473 15.887C46.8408 15.6971 47.1623 15.5545 47.5118 15.4591C47.7765 15.3875 48.0366 15.3374 48.2919 15.3087C48.5575 15.2691 48.829 15.2453 49.1062 15.2373ZM59.9994 22.8159C60.0137 23.3277 60.0439 23.8338 60.0899 24.334C60.1359 24.8342 60.1767 25.3399 60.2123 25.8511C60.2162 25.9897 60.2457 26.0902 60.3008 26.1527C60.3559 26.2151 60.4637 26.2547 60.6242 26.2714C60.7525 26.2784 60.8807 26.2854 61.0089 26.2924C61.1369 26.2887 61.2648 26.2851 61.3928 26.2814C61.7766 26.2704 62.1547 26.2435 62.527 26.2008C62.9096 26.1472 63.2924 26.0988 63.6754 26.0558C63.8244 26.0409 63.9412 26.0215 64.0259 25.9977C64.1103 25.9633 64.1731 25.9188 64.2142 25.8643C64.2554 25.8098 64.28 25.7344 64.2879 25.6381C64.2959 25.5418 64.303 25.4136 64.3092 25.2533C64.3059 25.136 64.3026 25.0187 64.2994 24.9015C64.3065 24.7732 64.3084 24.6504 64.3051 24.5331C64.2854 23.8294 64.2392 23.1318 64.1666 22.4402C64.1045 21.7484 64.037 21.0514 63.9641 20.3492C63.9234 20.0409 63.8723 19.7382 63.8106 19.4412C63.7596 19.1439 63.6925 18.8417 63.6092 18.5346C63.5141 18.1852 63.3717 17.8638 63.1821 17.5705C63.0032 17.2768 62.7927 17.0001 62.5507 16.7403C62.3963 16.5633 62.2278 16.4507 62.045 16.4026C61.862 16.3438 61.6692 16.3174 61.4666 16.3232C61.3813 16.3256 61.2961 16.3334 61.2111 16.3465C61.1259 16.349 61.0407 16.3567 60.9557 16.3699C60.7111 16.3982 60.5485 16.4989 60.468 16.672C60.3871 16.8344 60.3118 17.0019 60.2419 17.1747C59.9243 18.0268 59.7785 18.922 59.8048 19.8603C59.8066 19.9243 59.8083 19.9883 59.8101 20.0522C59.8226 20.1159 59.8297 20.1797 59.8315 20.2437C59.8532 20.6379 59.8749 21.0321 59.8966 21.4263C59.9286 21.8096 59.961 22.2035 59.9936 22.608L59.9994 22.8159ZM55.9195 26.3104C55.8479 25.2774 55.7766 24.255 55.7057 23.2433C55.6454 22.2313 55.5903 21.2138 55.5403 20.1908C55.5391 20.1481 55.5326 20.1056 55.5208 20.0633C55.5196 20.0206 55.5184 19.978 55.5172 19.9353C55.5109 19.3273 55.5583 18.7337 55.6595 18.1545C55.7714 17.5751 55.9475 17.0045 56.1879 16.4427C56.5271 15.6006 57.1329 15.1297 58.0051 15.0299C58.3984 14.976 58.7869 14.9382 59.1704 14.9165C59.5643 14.8838 59.9585 14.8618 60.353 14.8505C60.8648 14.8358 61.377 14.8371 61.8897 14.8544C62.2528 14.8654 62.5807 14.952 62.8734 15.1143C63.1657 15.266 63.4331 15.4771 63.6754 15.7476C64.0392 16.164 64.3504 16.6086 64.609 17.0814C64.8673 17.5435 65.0469 18.0505 65.1477 18.6025C65.3232 19.5365 65.4611 20.461 65.5614 21.3758C65.672 22.2797 65.7404 23.2007 65.7666 24.139C65.7756 24.4589 65.7792 24.779 65.7775 25.0991C65.7754 25.4087 65.7682 25.7237 65.7559 26.0441C65.7426 26.3326 65.7293 26.6211 65.716 26.9096C65.7131 27.1872 65.7157 27.4699 65.7237 27.7578C65.7333 28.099 65.7533 28.4345 65.7839 28.7645C65.8248 29.0834 65.8767 29.4127 65.9395 29.7524C65.9837 30.1886 66.0168 30.6092 66.0388 31.0141C66.0718 31.4293 66.1041 31.8232 66.1359 32.1958C66.1679 32.579 66.2101 32.9406 66.2622 33.2806C66.3144 33.6206 66.387 33.9279 66.4801 34.2027C66.5038 34.2874 66.5161 34.3457 66.517 34.3777C66.523 34.591 66.4159 34.7701 66.1959 34.9152C66.0597 35.0044 65.9276 35.0509 65.7996 35.0546C65.6503 35.0589 65.4999 35.0205 65.3482 34.9395C65.2286 34.8576 65.1351 34.7589 65.0678 34.6434C65.0006 34.528 64.9542 34.3959 64.9287 34.2472C64.8908 34.0349 64.8473 33.8174 64.7984 33.5947C64.7495 33.372 64.722 33.1487 64.7157 32.9248C64.6886 32.3387 64.6472 31.8116 64.5915 31.3437C64.5464 30.8755 64.4971 30.4501 64.4438 30.0674C64.4007 29.6738 64.3586 29.3122 64.3174 28.9826C64.2759 28.6423 64.2505 28.3069 64.2413 27.9764L64.2372 27.8324C64.2313 27.6192 64.127 27.5155 63.9244 27.5213L63.8125 27.5245C63.4402 27.5672 63.0627 27.6154 62.6801 27.669C62.3081 27.7224 61.9355 27.7544 61.5623 27.7651C61.2958 27.7728 61.0287 27.7644 60.7613 27.7401L60.6813 27.7424C60.4787 27.7482 60.3809 27.8737 60.3877 28.119C60.4106 28.5558 60.4282 28.9928 60.4404 29.43C60.4523 29.8565 60.4645 30.2937 60.477 30.7415L60.5216 34.0536C60.532 34.4268 60.4648 34.6955 60.32 34.8597C60.1859 35.0236 59.9325 35.1216 59.56 35.1536C59.0917 35.1991 58.6283 35.2284 58.1699 35.2415C58.0419 35.2452 57.9085 35.2437 57.7696 35.237C57.6416 35.2407 57.5137 35.2444 57.3857 35.248C56.9803 35.249 56.6899 35.1666 56.5145 35.0009C56.3394 34.8459 56.2408 34.5606 56.2185 34.1451C56.1983 33.8042 56.1836 33.4685 56.1743 33.1379C56.1651 32.8074 56.1557 32.4715 56.1462 32.1303L56.1092 29.0901C56.0961 28.621 56.0725 28.1575 56.0383 27.6996C56.0042 27.2417 55.9646 26.7786 55.9195 26.3104ZM72.7448 34.8713C72.5209 34.8777 72.2967 34.8735 72.0722 34.8586C71.8587 34.854 71.6394 34.8336 71.4143 34.7974C71.1675 34.7511 70.9891 34.6656 70.8789 34.5407C70.7796 34.4261 70.7156 34.2359 70.6868 33.97C70.556 32.7252 70.4413 31.4853 70.3428 30.2503C70.2552 29.0256 70.1938 27.7842 70.1587 26.526L70.1402 25.2941C70.1309 24.1952 70.111 23.102 70.0806 22.0144C70.0606 20.9159 70.0615 19.8061 70.0836 18.685C70.0948 18.3218 70.1062 17.9694 70.118 17.6275C70.1402 17.2748 70.1686 16.9538 70.2032 16.6647L70.2014 16.6007C70.1975 16.4621 70.1627 16.3617 70.0969 16.2996C70.0418 16.2372 69.9393 16.1974 69.7895 16.1804C69.5114 16.1563 69.239 16.1482 68.9725 16.1558C68.8765 16.1586 68.7752 16.1615 68.6686 16.1645C68.5726 16.1673 68.4768 16.1754 68.3812 16.1888C68.2849 16.1809 68.1888 16.1783 68.0928 16.181C67.9969 16.1838 67.9059 16.1757 67.8201 16.1569C67.6589 16.1188 67.5287 16.0425 67.4295 15.928C67.3303 15.8134 67.2784 15.6762 67.2739 15.5163L67.2726 15.4683C67.2646 15.1804 67.4077 14.9575 67.7021 14.7997C67.8392 14.7424 67.9824 14.7116 68.1317 14.7073L68.324 14.7178C69.4226 14.697 70.5051 14.6766 71.5716 14.6566C72.6485 14.6257 73.736 14.5945 74.8343 14.563L75.9218 14.5318C76.1137 14.5263 76.3277 14.5468 76.5638 14.5934C76.7465 14.6415 76.8877 14.7282 76.9872 14.8534C77.0971 14.9676 77.1543 15.1047 77.1588 15.2646L77.1459 15.377C77.1293 15.5482 77.0587 15.6943 76.9341 15.8153C76.8091 15.9256 76.6455 15.989 76.4432 16.0054L75.0358 16.0458C74.9078 16.0495 74.8067 16.0577 74.7323 16.0705C74.6684 16.0724 74.6208 16.0897 74.5897 16.1227C74.5586 16.1556 74.5335 16.2096 74.5142 16.2849C74.5054 16.3492 74.4974 16.4454 74.4903 16.5737C74.4001 17.5473 74.3528 18.5251 74.3482 19.507C74.354 20.4779 74.3704 21.4485 74.3976 22.4188L74.4709 25.0417C74.4706 25.4152 74.4706 25.794 74.4706 26.1782C74.4811 26.5514 74.4915 26.9246 74.5019 27.2978C74.5159 27.7989 74.5353 28.2999 74.5599 28.8007C74.5843 29.2909 74.6248 29.7859 74.6815 30.2858C74.7387 30.8071 74.7745 31.3236 74.7888 31.8354C74.8034 32.3579 74.8607 32.8791 74.9606 33.3991C74.9721 33.4308 74.9783 33.4626 74.9792 33.4946C74.9804 33.5373 74.9815 33.5746 74.9824 33.6066L74.9749 33.9109C74.9491 34.1358 74.8794 34.3138 74.7657 34.4451C74.6627 34.5761 74.4996 34.6609 74.2766 34.6993C74.0219 34.7493 73.7669 34.7886 73.5116 34.8173C73.2563 34.8459 73.0007 34.8639 72.7448 34.8713ZM84.3886 22.9644C84.186 22.9702 84.0598 23.0378 84.0101 23.1673C83.9601 23.2861 83.9397 23.5108 83.9489 23.8413C83.96 24.62 83.9758 25.3772 83.9964 26.1129C84.0167 26.838 84.0339 27.4564 84.0483 27.9682C84.0424 28.5233 84.0385 29.1476 84.0366 29.8413C84.0456 30.5453 84.0497 31.2655 84.0489 32.0018L84.0522 32.69C84.0578 32.8926 84.1513 32.9913 84.3326 32.9861L84.4601 32.9664C84.5448 32.9427 84.6295 32.9189 84.7142 32.8951C84.7992 32.882 84.884 32.8636 84.9687 32.8398C85.3801 32.6679 85.7312 32.4391 86.022 32.1533C86.313 31.8782 86.527 31.5146 86.6637 31.0624C87.0053 29.9215 87.1859 28.7478 87.2056 27.5415C87.2035 27.4668 87.2012 27.3868 87.1989 27.3015C87.2068 27.2053 87.2093 27.1038 87.2064 26.9972C87.2049 26.9439 87.2034 26.8906 87.2019 26.8373C87.2004 26.784 87.1936 26.7308 87.1814 26.6778C87.1559 26.5291 87.1233 26.3166 87.0836 26.0403C87.0542 25.7531 87.0085 25.4556 86.9466 25.1479C86.8568 24.6063 86.6627 24.153 86.3644 23.788C86.0767 23.4228 85.6431 23.1791 85.0634 23.0571C85.0418 23.047 85.0149 23.0371 84.9826 23.0274C84.9503 23.0176 84.9182 23.0132 84.8862 23.0141C84.779 22.9959 84.6825 22.9826 84.5969 22.9744C84.522 22.9659 84.4526 22.9625 84.3886 22.9644ZM80.5149 14.368L80.6269 14.3647C80.9683 14.3656 81.3098 14.3665 81.6513 14.3674C81.9925 14.3576 82.334 14.3584 82.6758 14.37C82.7614 14.3782 82.8417 14.3866 82.9166 14.3951C83.0019 14.3926 83.0875 14.4008 83.1734 14.4197C83.6029 14.5141 83.8234 14.7692 83.835 15.1851L83.8113 16.6263C83.8054 16.7972 83.8048 16.968 83.8096 17.1386C83.8144 17.3092 83.8191 17.4798 83.8239 17.6504C83.8346 18.0342 83.8454 18.4181 83.8561 18.8019C83.8775 19.1855 83.8934 19.5638 83.9038 19.937L83.9391 21.2005C83.9436 21.3605 83.9729 21.4557 84.0271 21.4861C84.0813 21.5166 84.2151 21.5288 84.4283 21.5226C85.015 21.5165 85.535 21.6029 85.9882 21.782C86.4411 21.9504 86.8263 22.1795 87.1438 22.4691C87.472 22.7585 87.7321 23.0925 87.9241 23.4712C88.1265 23.8388 88.2705 24.2189 88.3561 24.6112C88.4181 24.9189 88.4746 25.2214 88.5256 25.5188C88.5766 25.8161 88.6157 26.0711 88.643 26.2837C88.6721 26.5603 88.689 26.7839 88.6937 26.9545C88.6982 27.1145 88.7016 27.2371 88.704 27.3224L88.708 27.4663C88.6813 28.801 88.4781 30.1193 88.0983 31.4214C87.8355 32.3253 87.3961 33.0209 86.7801 33.5081C86.1748 33.995 85.4205 34.3048 84.5172 34.4374L83.8783 34.4878L82.5989 34.5245L81.4158 34.5744L80.8076 34.5759C80.3589 34.5567 80.0467 34.459 79.871 34.2826C79.7063 34.1166 79.6124 33.8098 79.5892 33.3623L79.5821 33.1064C79.587 32.5194 79.5813 31.9326 79.5649 31.3462C79.5592 30.7595 79.5588 30.1726 79.5637 29.5855C79.5701 29.0518 79.566 28.5237 79.5514 28.0012C79.5472 27.4678 79.5375 26.9292 79.5223 26.3854L79.4583 24.0983C79.4396 23.4265 79.42 22.7281 79.3998 22.0031C79.3792 21.2674 79.3587 20.5317 79.3381 19.796C79.3282 19.0599 79.3184 18.3292 79.3088 17.6039C79.2989 16.8679 79.3004 16.1582 79.3134 15.4749C79.3073 14.8775 79.5962 14.5224 80.1799 14.4096C80.2329 14.3974 80.2861 14.3905 80.3394 14.389C80.4031 14.3765 80.4616 14.3695 80.5149 14.368ZM95.1229 25.5055L95.3943 25.4817C95.522 25.4674 95.6064 25.4329 95.6475 25.3784C95.6884 25.3132 95.7072 25.222 95.7039 25.1047L95.6588 23.4893L95.5999 21.9544C95.5945 21.7624 95.5893 21.5758 95.5842 21.3946C95.5789 21.2026 95.5788 21.0106 95.5841 20.8183C95.5858 20.114 95.5876 19.415 95.5895 18.7213C95.5912 18.017 95.5928 17.3126 95.5945 16.6083L95.5872 15.7762C95.581 15.5523 95.4766 15.4432 95.274 15.449L95.226 15.4504C95.0024 15.4675 94.7746 15.5274 94.5428 15.6301C94.3212 15.7218 94.1061 15.8507 93.8973 16.0168C93.6989 16.1718 93.5224 16.3476 93.3678 16.5442C93.2133 16.7407 93.0963 16.9468 93.017 17.1625C92.8793 17.5826 92.763 18.0021 92.668 18.421C92.573 18.8399 92.5158 19.2737 92.4963 19.7225C92.4836 20.0323 92.4711 20.3474 92.4587 20.6679C92.457 20.9881 92.4551 21.303 92.4531 21.6125C92.4543 21.6551 92.4568 21.7458 92.4607 21.8844C92.4749 22.012 92.4898 22.161 92.5052 22.3313C92.5313 22.5013 92.5574 22.6713 92.5835 22.8412C92.6093 23.0006 92.6342 23.1279 92.6582 23.2233C92.6958 23.4249 92.744 23.621 92.8027 23.8114C92.872 24.0014 92.9572 24.1857 93.0582 24.3643C93.2606 24.7319 93.5513 25.017 93.9304 25.2196C94.3096 25.4221 94.7071 25.5174 95.1229 25.5055ZM99.1085 34.0987C98.6927 34.1106 98.2766 34.1119 97.8602 34.1025C97.4437 34.0931 97.0273 34.0837 96.6109 34.0743C96.3008 34.0512 96.08 33.9775 95.9484 33.8533C95.8172 33.7396 95.7476 33.5389 95.7395 33.251L95.7165 28.4177L95.7262 28.1933C95.725 28.1506 95.7132 28.1083 95.6907 28.0663C95.6788 28.0239 95.6404 27.9877 95.5756 27.9575C95.5341 28.0014 95.498 28.0451 95.4672 28.0887C95.4361 28.1216 95.3997 28.1546 95.3579 28.1879C95.1098 28.4724 94.879 28.8045 94.6655 29.1841C94.4627 29.5634 94.2602 29.9534 94.0579 30.354C93.8667 30.765 93.6805 31.1652 93.4993 31.5546C93.329 31.9543 93.1524 32.3168 92.9694 32.6422C92.827 32.8917 92.6843 33.1306 92.5413 33.3588C92.3986 33.5976 92.2285 33.8106 92.0309 33.9977C91.8858 34.1512 91.712 34.2309 91.5094 34.2367C91.3388 34.2416 91.1826 34.1874 91.0407 34.0741C90.8873 33.9291 90.8079 33.7607 90.8025 33.5687C90.7986 33.4301 90.8321 33.2905 90.9028 33.1497C90.9431 33.0632 90.9836 32.9873 91.0245 32.9221C91.076 32.8566 91.1274 32.7858 91.1786 32.7096C91.2506 32.6115 91.3172 32.5136 91.3785 32.4158C91.4507 32.3283 91.512 32.2305 91.5624 32.1224C91.6536 31.949 91.7698 31.7162 91.911 31.4241C92.0525 31.1426 92.2091 30.8286 92.3809 30.4822C92.5529 30.1465 92.7351 29.7944 92.9276 29.4261C93.12 29.0577 93.3026 28.7164 93.4752 28.402C93.6582 28.0766 93.8315 27.7888 93.9953 27.5387C94.159 27.2885 94.2979 27.1032 94.4119 26.9825C94.3257 26.953 94.261 26.9281 94.2177 26.908C94.1745 26.8879 94.1314 26.8732 94.0884 26.8637C93.2713 26.6417 92.6311 26.2653 92.1681 25.7344C91.7155 25.1924 91.414 24.5235 91.2637 23.7275C91.2018 23.4198 91.1454 23.1226 91.0947 22.836C91.0544 22.5383 91.0206 22.2832 90.9933 22.0705L90.9412 21.3517C90.931 20.6051 90.9743 19.8622 91.071 19.1231C91.1677 18.384 91.3284 17.6431 91.5531 16.9004C91.8174 16.0498 92.2471 15.3865 92.842 14.9106C93.4369 14.4346 94.1647 14.131 95.0254 13.9996C95.3227 13.9483 95.6205 13.9131 95.9188 13.8939C96.217 13.8747 96.5208 13.8606 96.83 13.8517C97.1712 13.8419 97.5178 13.8373 97.87 13.8379C98.2221 13.8385 98.5691 13.8445 98.9109 13.856C99.6368 13.8672 100.01 14.2353 100.03 14.9604L100.048 15.6001C100.056 15.888 100.059 16.1761 100.056 16.4643C100.064 16.7522 100.067 17.0402 100.064 17.3284C100.065 18.1074 100.065 18.8863 100.066 19.6653C100.066 20.4336 100.077 21.2123 100.099 22.0013L100.164 23.7442C100.198 24.9597 100.216 26.1917 100.219 27.4401C100.222 28.6885 100.238 30.0326 100.268 31.4724C100.252 31.6756 100.236 31.8734 100.22 32.066C100.215 32.2689 100.216 32.4716 100.221 32.6742L100.229 32.9621C100.25 33.6978 99.8762 34.0767 99.1085 34.0987Z" fill="white"/>
</svg>
