<svg width="96" height="38" viewBox="0 0 96 38" fill="none" xmlns="http://www.w3.org/2000/svg">
<path d="M5.69539 24.1318L2.55965 20.7353L1.35799 7.5295C3.03426 5.71145 8.76055 2.0452 18.2556 1.92466C30.1244 1.77398 34.2927 0.969602 47.8964 1.56279C61.5001 2.15598 54.8784 2.08258 59.6669 2.24311C64.4555 2.40364 75.7672 2.66164 81.9801 4.92691C86.9503 6.73913 91.4361 10.0438 93.0577 11.4696C92.5419 11.7266 91.7999 12.5519 92.9581 13.7976C94.1162 15.0432 94.6754 16.9179 94.8102 17.6996C94.1186 18.1335 92.7307 19.111 92.7119 19.5492C92.6885 20.097 88.1461 20.0818 90.3851 20.8426C92.1763 21.4512 92.5615 23.0641 92.5303 23.7945C90.7368 24.4201 86.3421 25.6716 83.1115 25.673C79.8808 25.6744 77.0374 26.0636 76.0195 26.2581L75.9726 27.3537C77.477 27.587 80.1809 28.0981 78.9618 28.2767C77.4379 28.4999 75.955 27.7644 74.6773 28.133C73.3996 28.5016 71.6002 29.2641 73.1007 29.5887C73.5544 29.8567 74.0035 29.9978 74.409 30.0604C74.9119 30.0116 75.4551 29.9758 75.8613 29.9555C75.5977 30.0594 75.0596 30.1609 74.409 30.0604C73.5551 30.1433 72.8176 30.264 73.0655 30.4104C73.4594 30.643 75.0583 31.0258 75.8085 31.188L77.0335 32.052L73.0011 31.9168C70.7832 31.8424 71.2017 32.6793 71.6882 33.107C71.0962 33.1786 69.5618 33.2552 68.1598 32.9887C66.4073 32.6557 67.1459 33.0919 64.1157 33.1274C61.6915 33.1559 60.9684 32.7776 56.8539 32.5939C57.1977 32.4226 65.4318 32.0647 63.6172 32.0039L63.6172 32.0039C61.3489 31.9278 61.0969 31.9194 58.3129 32.1003C55.5288 32.2813 49.1275 31.7749 40.5585 31.4876C33.7033 31.2578 39.4673 31.1609 38.2072 31.1186C34.2392 31.4428 24.8426 32.0146 19.0002 31.709C11.6973 31.3271 5.45514 29.7464 5.461 29.6094C5.46569 29.4999 4.15396 28.6971 3.49751 28.3094C4.15982 28.5601 5.4903 28.9247 5.51374 28.3769C5.53718 27.8292 4.26139 26.1864 3.62056 25.4335L5.69539 24.1318Z" fill="#FDA3C4"/>
<path d="M10.1499 32.098C9.34344 32.071 9.2864 32.6176 9.35869 32.8943L7.71464 32.9764C6.89701 33.4061 5.41416 34.2432 6.02371 34.1539C6.63327 34.0647 7.80549 33.8023 8.31541 33.6822C8.65926 33.5109 10.96 33.2223 17.4119 33.4386C25.4768 33.709 24.7324 33.4097 25.4885 33.4351C26.2446 33.4604 11.158 32.1318 10.1499 32.098Z" fill="#FDA3C4"/>
<path d="M25.1129 24.5745C24.9929 24.5742 24.8729 24.5699 24.7529 24.5616C24.6409 24.5613 24.5249 24.5569 24.4049 24.5486C24.189 24.532 24.0332 24.4676 23.9376 24.3554C23.842 24.2511 23.7905 24.083 23.7833 23.8509C23.7462 23.0108 23.713 22.2067 23.6837 21.4387C23.6623 20.6786 23.653 19.8746 23.656 19.0266L23.6858 17.3347L23.6999 16.7107C23.7018 16.1747 23.6916 15.6427 23.6694 15.1146C23.6473 14.5785 23.6371 14.0425 23.639 13.5065L23.6407 13.0145C23.6579 12.6466 23.6632 12.2786 23.6565 11.9106C23.6497 11.5425 23.667 11.1746 23.7083 10.8067L23.7085 10.7347C23.709 10.5827 23.6133 10.5024 23.4213 10.4939L23.1933 10.4933C22.8413 10.4924 22.4893 10.5074 22.1372 10.5385C21.7931 10.5615 21.4451 10.5726 21.0931 10.5716L20.061 10.5809C19.869 10.5803 19.7687 10.6721 19.7601 10.8561C19.7598 10.92 19.7556 10.98 19.7474 11.036C19.7393 11.084 19.7351 11.136 19.7349 11.192L19.7151 13.4719C19.714 13.7919 19.7129 14.1079 19.7118 14.4199C19.7107 14.7319 19.7176 15.0479 19.7325 15.368C19.7398 15.584 19.747 15.8 19.7543 16.0161C19.7616 16.2321 19.7648 16.4481 19.7641 16.6641L19.7503 17.192C19.7335 17.408 19.7248 17.624 19.724 17.84C19.7233 18.048 19.7226 18.26 19.7218 18.476C19.7208 18.764 19.7199 19.044 19.7189 19.316C19.726 19.58 19.7331 19.84 19.7403 20.096C19.7474 20.352 19.7505 20.6161 19.7495 20.8881C19.7566 21.1521 19.7597 21.4281 19.7587 21.7161L19.7577 21.9921C19.7568 22.2481 19.7679 22.5081 19.791 22.7722C19.8221 23.0363 19.8372 23.3043 19.8363 23.5763L19.8359 23.6723C19.827 23.9363 19.7744 24.1241 19.678 24.2359C19.5896 24.3476 19.4133 24.4272 19.1492 24.4744C18.9491 24.5059 18.749 24.5254 18.549 24.5328C18.3489 24.5483 18.1449 24.5557 17.9369 24.5552L17.3369 24.5416C17.081 24.5249 16.9012 24.4644 16.7976 24.3601C16.7019 24.2559 16.6465 24.0757 16.6314 23.8197C16.5869 22.7955 16.5503 21.8114 16.5216 20.8674C16.4928 19.9233 16.4802 18.9392 16.4837 17.9152L16.5032 12.2513C16.5043 11.9313 16.5094 11.6153 16.5185 11.3033C16.5276 10.9833 16.5527 10.6634 16.5938 10.3435C16.6103 10.1996 16.6347 10.0796 16.6671 9.98371C16.6994 9.8878 16.7436 9.81191 16.7998 9.75607C16.8641 9.69224 16.9442 9.64445 17.0403 9.61271C17.1444 9.58099 17.2685 9.55733 17.4126 9.54172C17.6767 9.50243 17.9408 9.47914 18.2048 9.47185C18.4689 9.46456 18.7369 9.46129 19.0089 9.46202L20.2088 9.47726C20.3688 9.47769 20.5248 9.47811 20.6768 9.47852C20.8368 9.47895 20.9968 9.47138 21.1569 9.45581C21.461 9.44063 21.765 9.42545 22.0691 9.41027C22.3811 9.39511 22.6891 9.38794 22.9931 9.38876L23.2091 9.38934C23.7291 9.39875 24.2411 9.41613 24.745 9.44148C25.2569 9.45887 25.7688 9.48425 26.2807 9.51763C26.5287 9.53429 26.7045 9.59477 26.8081 9.69905C26.9198 9.79535 26.9752 9.9555 26.9744 10.1795L26.9619 10.3355C26.9204 10.7594 26.891 11.1793 26.8736 11.5952C26.8641 12.0112 26.8587 12.4312 26.8572 12.8552C26.8558 13.2792 26.8583 13.6992 26.8649 14.1152C26.8715 14.5312 26.882 14.9513 26.8965 15.3753L26.9059 16.1313C26.9044 16.5793 26.8949 17.0233 26.8774 17.4633C26.8678 17.9032 26.8623 18.3432 26.8608 18.7832L26.8809 19.9233C26.8878 20.2273 26.8948 20.5193 26.9019 20.7993C26.9089 21.0794 26.912 21.3554 26.911 21.6274C26.9181 21.9074 26.9251 22.1834 26.9322 22.4554C26.9472 22.7355 26.9662 23.0275 26.9892 23.3316L26.9875 23.8116C26.9788 24.0116 26.9303 24.1594 26.842 24.2552C26.7536 24.359 26.6134 24.4306 26.4212 24.4701C25.989 24.5409 25.5529 24.5757 25.1129 24.5745ZM32.606 9.39068C32.822 9.39126 33.038 9.40384 33.2539 9.42843C33.4698 9.44501 33.6818 9.46958 33.8897 9.50214C34.2895 9.55122 34.605 9.70407 34.8361 9.96069C35.0752 10.2173 35.2501 10.5298 35.3609 10.8981C35.4558 11.2024 35.5187 11.5105 35.5497 11.8226C35.5886 12.1267 35.6156 12.4348 35.6305 12.7468L35.8226 16.2154C35.838 16.3674 35.8452 16.6034 35.8441 16.9234C35.843 17.2354 35.842 17.5474 35.8409 17.8594C35.84 18.1154 35.8392 18.3434 35.8385 18.5434C35.8379 18.7354 35.8334 18.8594 35.8253 18.9154C35.79 19.8673 35.743 20.7352 35.6843 21.519C35.6336 22.3029 35.5709 23.0707 35.4964 23.8225C35.4635 24.0784 35.3909 24.2582 35.2785 24.3619C35.1661 24.4656 34.9779 24.5251 34.7139 24.5404C34.5058 24.5559 34.2938 24.5673 34.0778 24.5747C33.8697 24.5901 33.6617 24.5976 33.4537 24.597C33.3737 24.5968 33.2977 24.5966 33.2257 24.5964C33.1537 24.5962 33.0777 24.592 32.9977 24.5838C32.7178 24.559 32.522 24.4985 32.4103 24.4022C32.3066 24.3139 32.2552 24.1498 32.256 23.9098L32.2687 23.7178C32.302 23.3419 32.3353 22.97 32.3685 22.6021C32.4018 22.2342 32.4311 21.8582 32.4564 21.4743C32.4901 20.9944 32.5197 20.5185 32.5453 20.0466C32.571 19.5666 32.5966 19.0867 32.6223 18.6068L32.623 18.3908C32.6235 18.2628 32.62 18.1027 32.6127 17.9107C32.6134 17.7107 32.6101 17.5107 32.6028 17.3107C32.6035 17.1027 32.6002 16.9067 32.5928 16.7227C32.5934 16.5307 32.59 16.3787 32.5824 16.2666C32.5444 15.6585 32.5105 15.0544 32.4806 14.4544C32.4507 13.8463 32.4168 13.2302 32.379 12.6061C32.3635 12.438 32.3441 12.27 32.3207 12.1019C32.3053 11.9339 32.2859 11.7658 32.2624 11.5978C32.2547 11.5337 32.2429 11.4737 32.2271 11.4177C32.2113 11.3536 32.1955 11.2896 32.1797 11.2255C32.1322 11.0894 32.0646 10.9692 31.977 10.865C31.8973 10.7528 31.7856 10.6845 31.6417 10.6601L31.5577 10.6479C31.4297 10.6475 31.3215 10.6912 31.2332 10.779C31.1529 10.8668 31.0766 10.9666 31.0042 11.0784C30.8112 11.3818 30.6621 11.7014 30.5569 12.0372C30.4518 12.3729 30.3546 12.7126 30.2654 13.0564C30.103 13.7439 29.9887 14.4276 29.9223 15.1075C29.856 15.7873 29.8136 16.4752 29.7952 17.1711C29.7949 17.2751 29.7945 17.3791 29.7942 17.4831C29.7938 17.5791 29.7855 17.6791 29.7691 17.7831C29.7115 18.2469 29.6699 18.7148 29.6443 19.1867C29.6187 19.6587 29.601 20.1346 29.5914 20.6146C29.5817 21.0866 29.5761 21.5666 29.5744 22.0545C29.5727 22.5425 29.567 23.0385 29.5573 23.5425C29.557 23.6305 29.5527 23.7145 29.5444 23.7945C29.5441 23.8825 29.5358 23.9704 29.5195 24.0584C29.479 24.2183 29.4105 24.3381 29.3143 24.4179C29.226 24.5056 29.1138 24.5493 28.9778 24.5489L28.9058 24.5488C28.586 24.5079 28.4267 24.3035 28.4279 23.9355C28.4376 23.4475 28.4472 22.9875 28.4567 22.5555C28.4661 22.1316 28.4716 21.7116 28.473 21.2956C28.4831 20.6876 28.5012 20.0836 28.5273 19.4837C28.5533 18.8758 28.5994 18.2679 28.6655 17.6601C28.707 17.2442 28.7284 16.8322 28.7298 16.4243C28.7392 16.0083 28.7647 15.5883 28.8061 15.1645C28.8722 14.5646 28.9582 13.9689 29.0643 13.3771C29.1783 12.7854 29.3323 12.2019 29.5263 11.6264C29.5991 11.4026 29.6878 11.1908 29.7925 10.9911C29.8972 10.7834 30.0099 10.5797 30.1306 10.38C30.2755 10.1324 30.4561 9.94488 30.6726 9.81747C30.897 9.68207 31.1414 9.58273 31.4056 9.51944C31.6057 9.47198 31.8019 9.44051 31.9939 9.42503C32.194 9.40157 32.398 9.39012 32.606 9.39068ZM40.5936 15.3282C40.5922 15.7122 40.6029 16.0923 40.6256 16.4683C40.6483 16.8444 40.667 17.2244 40.6817 17.6085C40.6814 17.7125 40.7011 17.7885 40.7409 17.8366C40.7808 17.8847 40.8607 17.917 40.9806 17.9333C41.0766 17.9415 41.1725 17.9498 41.2685 17.9581C41.3645 17.9583 41.4605 17.9586 41.5565 17.9588C41.8445 17.9596 42.1286 17.9484 42.4086 17.9251C42.6967 17.8939 42.9848 17.8667 43.2729 17.8435C43.385 17.8358 43.473 17.824 43.537 17.8082C43.6011 17.7843 43.6492 17.7525 43.6814 17.7126C43.7135 17.6727 43.7337 17.6167 43.742 17.5447C43.7502 17.4728 43.7585 17.3768 43.7669 17.2568C43.7672 17.1688 43.7676 17.0808 43.7679 16.9928C43.7762 16.8968 43.7805 16.8048 43.7808 16.7168C43.7826 16.1888 43.7644 15.6648 43.7262 15.1447C43.696 14.6246 43.6618 14.1005 43.6236 13.5724C43.6004 13.3403 43.5692 13.1122 43.53 12.8881C43.4988 12.6641 43.4555 12.4359 43.4003 12.2038C43.3373 11.9396 43.2381 11.6954 43.1029 11.471C42.9756 11.2466 42.8244 11.0342 42.6491 10.8338C42.5375 10.6975 42.4138 10.6091 42.278 10.5688C42.1421 10.5204 41.9982 10.496 41.8462 10.4956C41.7822 10.4954 41.7182 10.4992 41.6542 10.5071C41.5902 10.5069 41.5262 10.5107 41.4621 10.5186C41.2781 10.5341 41.1538 10.6057 41.0894 10.7336C41.025 10.8534 40.9646 10.9772 40.9081 11.1051C40.6499 11.7364 40.5196 12.404 40.5172 13.108C40.517 13.156 40.5169 13.204 40.5167 13.252C40.5246 13.3 40.5284 13.3481 40.5282 13.396C40.5352 13.6921 40.5422 13.9881 40.5492 14.2841C40.5642 14.5722 40.5792 14.8682 40.5941 15.1722L40.5936 15.3282ZM37.4529 17.8518C37.4235 17.0757 37.3942 16.3076 37.3648 15.5475C37.3434 14.7875 37.326 14.0234 37.3127 13.2554C37.3128 13.2234 37.3089 13.1914 37.301 13.1593C37.3011 13.1273 37.3012 13.0953 37.3013 13.0633C37.3109 12.6074 37.3604 12.1635 37.4499 11.7317C37.5474 11.3 37.6929 10.8764 37.8863 10.4609C38.1605 9.83766 38.6256 9.49891 39.2818 9.44468C39.5779 9.41347 39.87 9.39426 40.158 9.38704C40.4541 9.37184 40.7501 9.36464 41.0461 9.36543C41.4301 9.36647 41.8141 9.3795 42.198 9.40454C42.4699 9.42127 42.7137 9.49393 42.9292 9.62251C43.1448 9.74309 43.3402 9.90762 43.5155 10.1161C43.7784 10.4368 44.0013 10.7774 44.184 11.1379C44.3668 11.4904 44.4895 11.8747 44.5521 12.2909C44.6616 12.9952 44.7432 13.6914 44.7969 14.3796C44.8585 15.0597 44.8881 15.7518 44.8857 16.4558C44.8849 16.6958 44.8801 16.9358 44.8712 17.1758C44.8624 17.4077 44.8496 17.6437 44.8328 17.8837C44.8161 18.0996 44.7993 18.3156 44.7826 18.5315C44.7738 18.7395 44.7691 18.9515 44.7684 19.1675C44.7675 19.4235 44.7746 19.6755 44.7898 19.9236C44.8129 20.1636 44.8441 20.4117 44.8832 20.6678C44.9061 20.9959 44.921 21.3119 44.9279 21.6159C44.9429 21.928 44.9578 22.224 44.9729 22.5041C44.9879 22.7921 45.011 23.0642 45.0421 23.3203C45.0732 23.5763 45.1204 23.8085 45.1837 24.0166C45.1995 24.0807 45.2073 24.1247 45.2072 24.1487C45.2067 24.3087 45.1222 24.4405 44.9539 24.544C44.8496 24.6077 44.7495 24.6395 44.6535 24.6392C44.5415 24.6389 44.4296 24.6066 44.3179 24.5423C44.2301 24.4781 44.1623 24.4019 44.1146 24.3138C44.067 24.2256 44.0353 24.1255 44.0197 24.0135C43.9962 23.8534 43.9688 23.6894 43.9374 23.5213C43.906 23.3532 43.8905 23.1851 43.8911 23.0171C43.8846 22.5771 43.866 22.1811 43.8352 21.829C43.8124 21.4769 43.7855 21.1569 43.7545 20.8688C43.7315 20.5727 43.7085 20.3006 43.6853 20.0526C43.6622 19.7965 43.6511 19.5445 43.6519 19.2965L43.6523 19.1885C43.6528 19.0285 43.5771 18.9483 43.4251 18.9479L43.3411 18.9477C43.061 18.9709 42.7769 18.9981 42.4888 19.0294C42.2087 19.0606 41.9287 19.0758 41.6487 19.0751C41.4487 19.0746 41.2487 19.062 41.0488 19.0375L40.9888 19.0373C40.8368 19.0369 40.7605 19.1287 40.7599 19.3127C40.7667 19.6407 40.7696 19.9687 40.7685 20.2967C40.7674 20.6167 40.7662 20.9447 40.7651 21.2807L40.7205 23.7646C40.7196 24.0446 40.6629 24.2444 40.5505 24.3641C40.446 24.4839 40.2538 24.5513 39.9738 24.5666C39.6217 24.5896 39.2736 24.6007 38.9296 24.5998C38.8336 24.5995 38.7336 24.5952 38.6297 24.587C38.5337 24.5867 38.4377 24.5865 38.3417 24.5862C38.0377 24.5774 37.8219 24.5088 37.6944 24.3804C37.5668 24.2601 37.4995 24.0439 37.4926 23.7319C37.4855 23.4759 37.4824 23.2239 37.4832 22.9759C37.4841 22.7279 37.4849 22.4759 37.4858 22.2199L37.5297 19.94C37.5309 19.588 37.5241 19.24 37.5093 18.8959C37.4945 18.5519 37.4756 18.2038 37.4529 17.8518ZM49.8642 24.6653C49.6962 24.6648 49.5282 24.6564 49.3603 24.6399C49.2003 24.6315 49.0364 24.611 48.8685 24.5786C48.6846 24.5381 48.5529 24.4697 48.4732 24.3735C48.4015 24.2853 48.358 24.1412 48.3427 23.9412C48.2739 23.005 48.2171 22.0728 48.1723 21.1447C48.1355 20.2246 48.1187 19.2925 48.1219 18.3485L48.1371 17.4246C48.1559 16.6006 48.1668 15.7807 48.1696 14.9647C48.1804 14.1407 48.2073 13.3088 48.2502 12.4689C48.2671 12.1969 48.284 11.933 48.3009 11.677C48.3258 11.4131 48.3546 11.1731 48.3874 10.9572L48.3875 10.9092C48.3879 10.8052 48.3642 10.7292 48.3163 10.681C48.2765 10.6329 48.2006 10.6007 48.0887 10.5844C47.8807 10.5599 47.6768 10.5473 47.4768 10.5468C47.4048 10.5466 47.3288 10.5464 47.2488 10.5462C47.1768 10.546 47.1048 10.5498 47.0328 10.5576C46.9608 10.5494 46.8888 10.5452 46.8168 10.545C46.7448 10.5448 46.6768 10.5366 46.6129 10.5204C46.493 10.4881 46.3972 10.4279 46.3255 10.3397C46.2538 10.2515 46.2182 10.1474 46.2186 10.0274L46.2187 9.99138C46.2194 9.77538 46.332 9.61168 46.5564 9.50029C46.6605 9.46057 46.7686 9.44086 46.8806 9.44116L47.0246 9.45355C47.8485 9.46377 48.6605 9.47396 49.4605 9.48412C50.2685 9.4863 51.0845 9.4885 51.9085 9.49072L52.7244 9.49292C52.8684 9.49331 53.0284 9.51374 53.2042 9.55421C53.3401 9.59458 53.4439 9.66286 53.5155 9.75905C53.5952 9.84727 53.6349 9.95137 53.6345 10.0714L53.6222 10.1553C53.6057 10.2833 53.5494 10.3911 53.4531 10.4789C53.3568 10.5586 53.2326 10.6023 53.0806 10.6099L52.0246 10.607C51.9286 10.6068 51.8526 10.6106 51.7966 10.6184C51.7486 10.6183 51.7125 10.6302 51.6884 10.6541C51.6644 10.6781 51.6442 10.718 51.628 10.774C51.6199 10.8219 51.6116 10.8939 51.6033 10.9899C51.5128 11.7177 51.4543 12.4495 51.4277 13.1854C51.4092 13.9134 51.3987 14.6414 51.3962 15.3694L51.3894 17.3373C51.3805 17.6173 51.3715 17.9013 51.3625 18.1893C51.3615 18.4693 51.3606 18.7493 51.3596 19.0293C51.3583 19.4053 51.361 19.7813 51.3677 20.1573C51.3745 20.5253 51.3932 20.8974 51.4239 21.2735C51.4545 21.6655 51.4692 22.0536 51.4679 22.4376C51.4665 22.8296 51.4972 23.2217 51.5598 23.6138C51.5677 23.6378 51.5717 23.6619 51.5716 23.6859C51.5715 23.7179 51.5714 23.7459 51.5713 23.7699L51.5585 23.9978C51.5339 24.1658 51.4775 24.2976 51.3891 24.3934C51.3088 24.4892 51.1846 24.5488 51.0165 24.5724C50.8244 24.6038 50.6323 24.6273 50.4403 24.6428C50.2482 24.6583 50.0562 24.6658 49.8642 24.6653ZM58.8729 16.0135C58.7209 16.0131 58.6248 16.0608 58.5844 16.1567C58.5441 16.2446 58.5236 16.4126 58.5227 16.6606C58.5127 17.2446 58.5067 17.8125 58.5048 18.3645C58.503 18.9085 58.5014 19.3725 58.5 19.7565C58.4826 20.1725 58.465 20.6404 58.4472 21.1604C58.4374 21.6884 58.4235 22.2283 58.4056 22.7803L58.3919 23.2962C58.3913 23.4482 58.4591 23.5244 58.5951 23.5248L58.6911 23.5131C58.7552 23.4972 58.8192 23.4814 58.8833 23.4656C58.9473 23.4577 59.0113 23.4459 59.0754 23.4301C59.3878 23.3109 59.6564 23.1477 59.8811 22.9403C60.1058 22.7409 60.2747 22.4733 60.3879 22.1376C60.6708 21.2904 60.8338 20.4148 60.8769 19.5109C60.8771 19.4549 60.8773 19.3949 60.8775 19.3309C60.8858 19.259 60.89 19.183 60.8903 19.103C60.8904 19.063 60.8906 19.023 60.8907 18.983C60.8909 18.943 60.887 18.903 60.8791 18.8629C60.8635 18.7509 60.8441 18.5908 60.8208 18.3828C60.8055 18.1667 60.7783 17.9427 60.7391 17.7106C60.6845 17.3024 60.5497 16.958 60.3347 16.6775C60.1276 16.3969 59.8083 16.204 59.3766 16.0989C59.3607 16.0908 59.3407 16.0828 59.3167 16.0747C59.2928 16.0666 59.2688 16.0626 59.2448 16.0625C59.1648 16.0463 59.0929 16.0341 59.0289 16.0259C58.9729 16.0178 58.9209 16.0136 58.8729 16.0135ZM56.1714 9.47821L56.2554 9.47844C56.5114 9.48713 56.7674 9.49582 57.0233 9.50451C57.2793 9.5052 57.5353 9.51389 57.7913 9.53058C57.8552 9.53875 57.9152 9.54691 57.9712 9.55506C58.0352 9.55524 58.0991 9.56341 58.1631 9.57958C58.4828 9.66044 58.6421 9.85687 58.6411 10.1689L58.5893 11.2487C58.5809 11.3767 58.5765 11.5047 58.576 11.6327C58.5756 11.7607 58.5751 11.8887 58.5747 12.0167C58.5737 12.3047 58.5727 12.5927 58.5717 12.8807C58.5787 13.1687 58.5818 13.4527 58.5808 13.7327L58.5775 14.6807C58.5771 14.8007 58.5969 14.8728 58.6368 14.8969C58.6767 14.921 58.7767 14.9333 58.9367 14.9337C59.3766 14.9429 59.7644 15.0199 60.0999 15.1648C60.4354 15.3017 60.7188 15.4825 60.95 15.7071C61.1892 15.9318 61.3764 16.1883 61.5114 16.4766C61.6544 16.757 61.7534 17.0453 61.8084 17.3414C61.8476 17.5735 61.8828 17.8016 61.914 18.0257C61.9453 18.2498 61.9686 18.4419 61.984 18.6019C61.9993 18.81 62.0067 18.978 62.0063 19.106C62.0059 19.226 62.0056 19.318 62.0054 19.382L62.005 19.49C61.9535 20.4898 61.7702 21.4733 61.4548 22.4405C61.2365 23.1119 60.8907 23.623 60.4175 23.9737C59.9523 24.3245 59.3796 24.5389 58.6993 24.6171L58.2192 24.6398L57.2592 24.6372L56.3712 24.6468L55.9152 24.6336C55.5793 24.6087 55.3476 24.528 55.2201 24.3917C55.1005 24.2634 55.0373 24.0312 55.0305 23.6952L55.0311 23.5032C55.0486 23.0632 55.0582 22.6233 55.0597 22.1833C55.0692 21.7433 55.0827 21.3033 55.1002 20.8634C55.1176 20.4634 55.127 20.0674 55.1283 19.6754C55.1377 19.2755 55.1431 18.8715 55.1445 18.4635L55.1504 16.7475C55.1521 16.2435 55.1539 15.7195 55.1558 15.1755C55.1577 14.6235 55.1596 14.0715 55.1615 13.5195C55.1714 12.9675 55.1813 12.4196 55.1912 11.8756C55.2011 11.3236 55.2189 10.7916 55.2447 10.2797C55.2542 9.83174 55.4791 9.57235 55.9193 9.50153C55.9594 9.49364 55.9994 9.48975 56.0394 9.48986C56.0874 9.48199 56.1314 9.4781 56.1714 9.47821ZM66.8599 18.1711L67.0639 18.1596C67.16 18.1519 67.224 18.128 67.2562 18.0881C67.2884 18.0402 67.3046 17.9723 67.3049 17.8843L67.3091 16.6723L67.301 15.5202C67.3015 15.3762 67.302 15.2362 67.3025 15.1002C67.303 14.9562 67.3075 14.8123 67.316 14.6683C67.3338 14.1403 67.3516 13.6164 67.3694 13.0964C67.3872 12.5685 67.405 12.0405 67.4228 11.5126L67.437 10.8886C67.4376 10.7206 67.3618 10.6364 67.2098 10.636L67.1738 10.6359C67.0058 10.6434 66.8337 10.683 66.6574 10.7545C66.4892 10.818 66.3249 10.9096 66.1645 11.0292C66.0121 11.1407 65.8757 11.2684 65.7552 11.4121C65.6347 11.5557 65.5421 11.7075 65.4776 11.8673C65.3645 12.179 65.2674 12.4907 65.1864 12.8025C65.1053 13.1143 65.0522 13.4382 65.027 13.7741C65.0102 14.0061 64.9934 14.242 64.9766 14.482C64.9678 14.7219 64.959 14.9579 64.9502 15.1899C64.95 15.2219 64.9498 15.2899 64.9494 15.3939C64.9571 15.4899 64.9647 15.6019 64.9723 15.73C64.9879 15.858 65.0034 15.986 65.019 16.1141C65.0346 16.2341 65.0502 16.3302 65.066 16.4022C65.0895 16.5543 65.1209 16.7024 65.1604 16.8465C65.208 16.9906 65.2675 17.1308 65.339 17.267C65.482 17.5473 65.6933 17.7679 65.9727 17.9287C66.2522 18.0894 66.5479 18.1702 66.8599 18.1711ZM69.6454 24.7066C69.3334 24.7057 69.0214 24.6969 68.7095 24.6801C68.3976 24.6632 68.0856 24.6464 67.7737 24.6295C67.5417 24.6049 67.378 24.5445 67.2823 24.4482C67.1866 24.36 67.1391 24.2078 67.1399 23.9918L67.2363 20.3681L67.2489 20.2001C67.249 20.1681 67.2411 20.1361 67.2252 20.104C67.2174 20.072 67.1895 20.044 67.1415 20.0198C67.1094 20.0517 67.0813 20.0837 67.0572 20.1156C67.0331 20.1395 67.005 20.1635 66.973 20.1874C66.7802 20.3949 66.5994 20.6384 66.4304 20.9179C66.2695 21.1975 66.1085 21.485 65.9475 21.7806C65.7944 22.0842 65.6454 22.3798 65.5004 22.6674C65.3634 22.963 65.2225 23.2307 65.0776 23.4703C64.965 23.654 64.8524 23.8297 64.7398 23.9974C64.6272 24.1731 64.4947 24.3287 64.3422 24.4643C64.2298 24.576 64.0976 24.6316 63.9456 24.6312C63.8176 24.6309 63.7018 24.5866 63.5981 24.4983C63.4865 24.386 63.4309 24.2578 63.4314 24.1138C63.4318 24.0098 63.4601 23.9059 63.5165 23.8021C63.5487 23.7381 63.5809 23.6822 63.6131 23.6343C63.6532 23.5864 63.6934 23.5345 63.7336 23.4786C63.7899 23.4068 63.8421 23.3349 63.8903 23.2631C63.9466 23.1992 63.9948 23.1273 64.0351 23.0475C64.1075 22.9197 64.2001 22.7479 64.3129 22.5322C64.4256 22.3245 64.5504 22.0928 64.6873 21.8372C64.8241 21.5896 64.969 21.33 65.1219 21.0584C65.2749 20.7868 65.4197 20.5352 65.5565 20.3036C65.7014 20.0639 65.8381 19.8523 65.9667 19.6687C66.0954 19.485 66.2038 19.3493 66.2921 19.2615C66.2282 19.2374 66.1803 19.2172 66.1483 19.2011C66.1164 19.1851 66.0844 19.173 66.0525 19.1649C65.4451 18.9792 64.9741 18.682 64.6395 18.2731C64.313 17.8562 64.1027 17.3476 64.0088 16.7474C63.9696 16.5153 63.9344 16.2912 63.9031 16.0751C63.8799 15.851 63.8605 15.659 63.8451 15.4989L63.8229 14.9589C63.8329 14.3989 63.8828 13.843 63.9727 13.2913C64.0626 12.7395 64.2005 12.1879 64.3864 11.6364C64.6046 11.005 64.9422 10.5179 65.3994 10.1751C65.8566 9.83232 66.4093 9.62181 67.0576 9.54356C67.2817 9.51217 67.5058 9.49277 67.7298 9.48537C67.9538 9.47798 68.1819 9.47459 68.4138 9.47522C68.6698 9.47591 68.9298 9.48061 69.1938 9.48932C69.4578 9.49803 69.7177 9.51073 69.9737 9.52742C70.5176 9.55289 70.7886 9.83762 70.7867 10.3816L70.7851 10.8616C70.7843 11.0776 70.7796 11.2936 70.7709 11.5096C70.7701 11.7256 70.7654 11.9416 70.7566 12.1575C70.7386 12.7415 70.7206 13.3254 70.7026 13.9094C70.6846 14.4854 70.6746 15.0693 70.6726 15.6613L70.6801 16.9694C70.6769 17.8813 70.6617 18.8053 70.6345 19.7412C70.6073 20.6772 70.5878 21.6851 70.5761 22.7651C70.5596 22.917 70.5431 23.065 70.5266 23.209C70.518 23.3609 70.5135 23.5129 70.513 23.6649L70.5123 23.8809C70.5104 24.4329 70.2214 24.7081 69.6454 24.7066Z" fill="white"/>
</svg>
