<svg width="100" height="39" viewBox="0 0 100 39" fill="none" xmlns="http://www.w3.org/2000/svg">
<path d="M17.3278 25.0047L14.1515 21.5114L12.8216 8.03549C14.4852 6.19804 20.1924 2.51536 29.7121 2.48422C41.6117 2.44529 26.8139 1.67033 40.4601 2.40659C54.1064 3.14286 58.522 3.57808 63.3251 3.78803C68.1281 3.99798 74.6084 4.38619 80.8596 6.75585C85.8605 8.65157 90.3897 12.0643 92.0292 13.5337C91.5144 13.7907 90.7782 14.625 91.9513 15.9062C93.1244 17.1875 93.7028 19.1043 93.8454 19.9026C93.156 20.3383 91.7736 21.3215 91.7589 21.7681C91.7406 22.3264 87.1857 22.2671 89.438 23.0643C91.2398 23.7022 91.6414 25.3504 91.6169 26.0947C89.8245 26.7152 85.4297 27.9488 82.1903 27.919C78.9509 27.8892 76.1034 28.2586 75.0846 28.447L75.048 29.5636C76.5586 29.816 79.2748 30.3633 78.054 30.5335C76.5281 30.7464 75.0342 29.9822 73.7565 30.3457C72.4788 30.7091 70.6818 31.4692 72.1894 31.8146C72.6468 32.0922 73.0985 32.2404 73.5057 32.3082C74.0095 32.2633 74.5538 32.2321 74.961 32.2153C74.6976 32.3186 74.159 32.417 73.5057 32.3082C72.6502 32.3845 71.9119 32.5004 72.1619 32.652C72.559 32.893 74.1659 33.2987 74.9197 33.4714L76.1562 34.3641L72.1115 34.1873C70.1596 34.102 74.0991 34.7516 75.4263 35.2098C76.6725 35.2863 77.4983 35.3769 76.2119 35.3798C76.0884 35.3801 75.9484 35.3792 75.7933 35.3772C75.7979 35.3809 75.8023 35.3845 75.8063 35.3881C75.2447 35.4519 73.8352 35.512 72.4911 35.2757C68.7983 35.1294 63.6552 34.8633 60.7915 34.7058C61.1347 34.5344 61.366 34.1718 59.5459 34.0923L59.5458 34.0923C57.2707 33.9928 57.0179 33.9818 54.228 34.1394C51.4382 34.2969 51.9786 33.2771 43.3836 32.9014C42.325 32.8551 41.6842 32.8135 41.353 32.7761C38.1877 32.9733 34.5584 33.0986 30.7405 32.8589C23.4141 32.3988 17.1401 30.7269 17.1446 30.5873C17.1483 30.4757 15.8254 29.6445 15.1635 29.2428C15.83 29.5049 17.1675 29.8895 17.1859 29.3312C17.2042 28.7729 15.9094 27.0857 15.2597 26.3119L17.3278 25.0047Z" fill="#FDA3C4"/>
<path d="M21.8699 33.1699C21.0609 33.1346 21.0089 33.6914 21.084 33.9742L19.4363 34.042C18.6205 34.4722 17.1415 35.3114 17.7519 35.2262C18.3622 35.1411 19.5352 34.8849 20.0453 34.7674C20.3885 34.5961 22.6927 34.3241 29.1642 34.6069C37.2536 34.9605 32.5044 34.6482 33.2628 34.6814C34.0211 34.7145 22.881 33.2141 21.8699 33.1699Z" fill="#FDA3C4"/>
<path d="M33.323 25.5044C33.235 25.5041 33.151 25.4798 33.0712 25.4315C32.8954 25.3269 32.8078 25.1706 32.8084 24.9626C32.8086 24.8986 32.8127 24.8506 32.8208 24.8186C32.8369 24.7707 32.853 24.7227 32.8692 24.6748C32.8933 24.6349 32.9134 24.595 32.9295 24.555C33.2595 23.7882 33.6176 22.9974 34.0037 22.1828C34.3979 21.3762 34.8 20.5616 35.2102 19.739C35.2987 19.5473 35.3432 19.3755 35.3436 19.2235C35.3279 19.0954 35.3122 18.9954 35.2963 18.9233C35.2806 18.8432 35.2608 18.7672 35.2369 18.6951C34.9354 17.774 34.6578 16.857 34.4042 15.9441C34.1506 15.0312 33.901 14.1384 33.6553 13.2655C33.5681 12.9372 33.501 12.6089 33.4539 12.2808C33.4147 11.9526 33.3396 11.6244 33.2285 11.296C33.2126 11.2559 33.2007 11.2159 33.1928 11.1759C33.1849 11.1358 33.181 11.0958 33.1811 11.0558C33.1816 10.8878 33.2459 10.744 33.3742 10.6245C33.5026 10.5049 33.6788 10.4336 33.9028 10.4103C34.0949 10.395 34.2869 10.3877 34.4789 10.3884C34.6709 10.389 34.8629 10.3857 35.0549 10.3784C35.1429 10.3787 35.2309 10.383 35.3189 10.3913C35.4068 10.3996 35.4948 10.4039 35.5828 10.4043C35.7508 10.4128 35.8828 10.4253 35.9787 10.4416C36.0747 10.458 36.1546 10.4903 36.2185 10.5385C36.2824 10.5867 36.3342 10.6589 36.3739 10.755C36.4217 10.8512 36.4733 10.9794 36.5289 11.1396C36.5686 11.2517 36.6003 11.3678 36.624 11.4879C36.6557 11.6 36.6794 11.7161 36.6951 11.8362C36.7739 12.2925 36.8806 12.7808 37.0152 13.3013C37.1578 13.8138 37.3164 14.3584 37.4909 14.935C37.555 14.8952 37.6071 14.8394 37.6473 14.7675C37.6955 14.6877 37.7397 14.6119 37.7799 14.54C38.0937 13.8851 38.4113 13.2462 38.733 12.6233C39.0626 12.0005 39.3482 11.4135 39.5896 10.8623C39.6299 10.7505 39.6862 10.6587 39.7584 10.5869C39.8707 10.4753 39.9948 10.4198 40.1308 10.4202C40.1948 10.4205 40.2588 10.4327 40.3227 10.4569C40.5225 10.5296 40.6341 10.674 40.6576 10.8901L40.6574 10.9621C40.657 11.0901 40.6367 11.206 40.5965 11.3099C40.5562 11.4137 40.5119 11.5176 40.4636 11.6214C40.1661 12.2124 39.8524 12.8473 39.5226 13.5261C39.1928 14.205 38.847 14.8958 38.4851 15.5985C38.3404 15.894 38.2318 16.1216 38.1593 16.2813C38.0869 16.4331 38.0505 16.589 38.0501 16.749C38.0498 16.869 38.0694 17.005 38.109 17.1572C38.1486 17.3013 38.2002 17.4655 38.2637 17.6497C38.47 18.3145 38.6642 18.9751 38.8465 19.6318C39.0368 20.2885 39.235 20.9452 39.4413 21.6019C39.6 22.1064 39.7746 22.6031 39.9654 23.0917C40.1561 23.5804 40.3788 24.0572 40.6336 24.5221C40.6574 24.5782 40.6773 24.6303 40.6932 24.6783C40.709 24.7264 40.7169 24.7784 40.7168 24.8344C40.7164 24.9704 40.6681 25.0942 40.5718 25.2059C40.4755 25.3175 40.3393 25.3931 40.1632 25.4324C40.0031 25.4719 39.839 25.4953 39.671 25.5027C39.5029 25.5181 39.3349 25.5255 39.1669 25.5249L38.0629 25.5211C37.887 25.5044 37.7391 25.4559 37.6193 25.3755C37.5075 25.2951 37.4198 25.1748 37.3563 25.0146C37.1577 24.4779 36.9471 23.9491 36.7245 23.4283C36.5018 22.9076 36.3152 22.3709 36.1647 21.8184C36.1251 21.6662 36.0855 21.5181 36.0459 21.3739C36.0063 21.2298 35.9546 21.1136 35.8908 21.0254C35.8107 21.0651 35.7586 21.1169 35.7344 21.1809C35.7102 21.2368 35.6821 21.2967 35.6499 21.3606C35.3523 21.9515 35.0668 22.5305 34.7933 23.0976C34.5278 23.6726 34.2823 24.2238 34.057 24.751C34.0167 24.8468 33.9765 24.9387 33.9362 25.0265C33.896 25.1224 33.8397 25.2102 33.7675 25.29C33.6472 25.4335 33.499 25.505 33.323 25.5044ZM48.8578 10.6549C48.8897 10.671 48.9137 10.6911 48.9296 10.7152C49.0413 10.8436 49.0967 11.0478 49.096 11.3278L49.0827 11.8317C49.0819 12.1117 49.0852 12.3877 49.0925 12.6598C49.1078 12.9318 49.123 13.2079 49.1383 13.4879C49.1382 13.5439 49.1419 13.64 49.1495 13.776C49.1492 13.888 49.1488 14.048 49.1483 14.256C49.1557 14.456 49.1591 14.716 49.1582 15.036C49.1574 15.356 49.1523 15.748 49.1431 16.212C49.1419 16.668 49.1365 17.208 49.1268 17.8319C49.1172 18.4559 49.1033 19.1758 49.0851 19.9918C49.075 20.7998 49.0606 21.7157 49.0419 22.7397C49.0332 23.0036 49.0125 23.2636 48.9798 23.5194C48.9471 23.7833 48.8984 24.0432 48.8338 24.2989C48.7934 24.4508 48.733 24.5826 48.6527 24.6943C48.5804 24.806 48.4881 24.9097 48.3759 25.0053C48.1514 25.1885 47.915 25.3317 47.6668 25.4348C47.4185 25.546 47.1503 25.601 46.8623 25.6L46.7423 25.5996C46.5023 25.5907 46.2624 25.5819 46.0224 25.5731C45.7904 25.5722 45.5544 25.5634 45.3145 25.5466C45.0745 25.5297 44.8346 25.5009 44.5947 25.46C44.3628 25.4192 44.131 25.3544 43.8992 25.2656C43.3957 25.0718 42.9804 24.8064 42.6533 24.4692C42.3342 24.1401 42.1313 23.6994 42.0448 23.1471C42.0054 22.9149 41.974 22.6868 41.9506 22.4627C41.9352 22.2387 41.9278 22.0146 41.9284 21.7906C41.9287 21.6546 41.9331 21.5226 41.9414 21.3947C41.9497 21.2667 41.9661 21.1348 41.9904 20.9988C42.0229 20.815 42.0434 20.635 42.0519 20.4591C42.0684 20.2751 42.0848 20.0912 42.1013 19.9072C42.1095 19.8593 42.1136 19.8113 42.1137 19.7633C42.1139 19.7073 42.122 19.6593 42.1381 19.6194C42.1785 19.4675 42.2468 19.3477 42.343 19.2601C42.4393 19.1724 42.5554 19.1288 42.6914 19.1293L42.7514 19.1295C42.8873 19.146 42.9992 19.2064 43.0869 19.3107C43.1827 19.407 43.2303 19.5352 43.2299 19.6952L43.2298 19.7432C43.2132 19.9431 43.1967 20.1431 43.1802 20.343C43.1637 20.535 43.1392 20.7309 43.1066 20.9308C43.0902 21.0827 43.0738 21.2347 43.0574 21.3866C43.049 21.5306 43.0447 21.6786 43.0443 21.8306C43.0437 22.0306 43.0512 22.2306 43.0667 22.4306C43.0901 22.6307 43.1216 22.8308 43.1611 23.031C43.2559 23.4953 43.499 23.8322 43.8904 24.0415C44.0103 24.106 44.1301 24.1584 44.25 24.1988C44.3779 24.2473 44.5098 24.2877 44.6457 24.3202C44.7416 24.3445 44.8336 24.3569 44.9216 24.3572C45.1376 24.3579 45.3138 24.2906 45.4501 24.155C45.5945 24.0275 45.6869 23.8479 45.7276 23.616C45.7519 23.4721 45.7723 23.3282 45.7887 23.1842C45.8051 23.0403 45.8175 22.8963 45.8258 22.7523C45.8283 21.8083 45.8348 20.8524 45.8454 19.8844C45.8465 19.4764 45.8476 19.0444 45.8488 18.5884C45.85 18.1324 45.8552 17.6724 45.8645 17.2084L45.865 17.0044C45.689 17.0198 45.5169 17.0312 45.3489 17.0386C45.1489 17.0459 44.9449 17.0492 44.7369 17.0485C44.5209 17.0477 44.3049 17.043 44.0889 17.0342C43.8729 17.0254 43.661 17.0127 43.453 16.996C43.0531 16.9706 42.7333 16.9014 42.4936 16.7886C42.2619 16.6758 42.0902 16.5432 41.9786 16.3908C41.883 16.2544 41.8153 16.1222 41.7757 15.9941C41.744 15.858 41.7204 15.7219 41.7047 15.5858L41.5047 14.0731C41.4889 14.009 41.4812 13.909 41.4815 13.773C41.4819 13.637 41.4822 13.501 41.4826 13.365C41.4829 13.253 41.4832 13.157 41.4834 13.077C41.4836 12.989 41.4877 12.933 41.4958 12.9091C41.5289 12.4932 41.5699 12.1173 41.6188 11.7815C41.6757 11.4377 41.7406 11.1019 41.8134 10.7742C41.8457 10.6623 41.9179 10.5865 42.03 10.5469C42.1422 10.4993 42.3302 10.472 42.5943 10.4649C42.8023 10.4576 43.0103 10.4544 43.2183 10.4551C43.4343 10.4479 43.6463 10.4446 43.8543 10.4453L44.3103 10.4469C44.5903 10.4639 44.7822 10.4926 44.8861 10.533C44.998 10.5734 45.0538 10.6456 45.0535 10.7496L45.0413 10.8335C45.0089 10.9934 44.9765 11.1533 44.944 11.3132C44.9116 11.4731 44.8832 11.637 44.8587 11.8049C44.8262 12.0128 44.7976 12.2207 44.7731 12.4286C44.7486 12.6285 44.724 12.8364 44.6994 13.0523L44.6992 13.1363C44.6991 13.1923 44.6989 13.2643 44.6986 13.3523C44.7064 13.4404 44.7102 13.5284 44.7099 13.6164C44.7177 13.7044 44.7215 13.7884 44.7213 13.8684C44.7291 13.9484 44.7369 14.0125 44.7448 14.0605C44.7841 14.3246 44.8194 14.5888 44.8507 14.8529C44.882 15.117 44.9173 15.3811 44.9566 15.6452C44.9724 15.7253 44.9882 15.8014 45.004 15.8734C45.0278 15.9455 45.0516 16.0176 45.0754 16.0897C45.0834 16.1137 45.0953 16.1417 45.1112 16.1738C45.1271 16.1978 45.1431 16.2219 45.159 16.246C45.2068 16.3101 45.2707 16.3664 45.3506 16.4146C45.4385 16.4549 45.5544 16.4834 45.6983 16.4999L45.8663 16.5005L45.8715 14.5325C45.8732 13.9085 45.8746 13.3605 45.8759 12.8885C45.8771 12.4085 45.8741 12.0565 45.8667 11.8324L45.8675 11.4964C45.8677 11.4324 45.8679 11.3764 45.868 11.3284C45.8681 11.2724 45.8723 11.2164 45.8804 11.1605C45.9297 10.6886 46.1783 10.4495 46.6263 10.4431L47.2264 10.4332C47.5864 10.4345 47.9463 10.4477 48.3063 10.473L48.4023 10.4733C48.6582 10.4902 48.8101 10.5508 48.8578 10.6549ZM54.1405 24.1496L54.8485 24.1521C55.145 23.9691 55.4056 23.758 55.6302 23.5188C56.0152 23.1202 56.2686 22.6091 56.3902 21.9855C56.447 21.7057 56.4837 21.4218 56.5005 21.1339C56.5252 20.846 56.538 20.562 56.5387 20.282L56.5287 19.526C56.4905 18.8538 56.4643 18.1897 56.45 17.5337C56.4437 16.8776 56.4255 16.2136 56.3952 15.5415C56.3501 14.4533 56.0768 13.4283 55.5754 12.4666C55.448 12.2181 55.2765 12.0415 55.0608 11.9368C54.8531 11.824 54.6293 11.7352 54.3895 11.6704C54.3575 11.6623 54.3175 11.6581 54.2695 11.658C54.1335 11.6575 54.0573 11.7492 54.0408 11.9332L53.9907 12.701C53.9657 13.0929 53.9407 13.4808 53.9157 13.8647C53.8907 14.2487 53.8776 14.6366 53.8766 15.0286C53.8761 15.2126 53.8796 15.3966 53.8871 15.5807C53.8947 15.7647 53.9062 15.9487 53.9217 16.1328C53.9207 16.5088 53.9317 16.8808 53.9547 17.2489C53.9604 18.1449 53.966 19.0569 53.9715 19.985C53.9771 20.905 54.0027 21.8091 54.0483 22.6973L54.0941 23.5614C54.1016 23.7535 54.117 23.9495 54.1405 24.1496ZM50.8883 24.2342C50.8492 23.874 50.8262 23.5139 50.8191 23.1539C50.7964 22.6738 50.7737 22.1897 50.751 21.7017C50.713 20.9495 50.691 20.1854 50.685 19.4094C50.6791 18.6254 50.6771 17.8614 50.6791 17.1174C50.6636 16.9333 50.652 16.7493 50.6445 16.5653C50.637 16.3732 50.6335 16.1852 50.634 16.0012C50.6185 15.8332 50.6069 15.6651 50.5993 15.4971C50.5918 15.3211 50.5883 15.149 50.5887 14.981C50.5899 14.533 50.6071 14.0891 50.6402 13.6492C50.6814 13.2094 50.7146 12.7655 50.7397 12.3176C50.7648 11.9336 50.8018 11.5538 50.8507 11.1779C50.8834 10.9141 50.9559 10.7263 51.0682 10.6147C51.1885 10.5031 51.3887 10.4438 51.6687 10.4368C52.0767 10.4383 52.4807 10.4477 52.8806 10.4651C53.2886 10.4825 53.6965 10.5 54.1045 10.5174C54.3685 10.5343 54.6203 10.5832 54.8601 10.664C55.0999 10.7369 55.3357 10.8297 55.5674 10.9425C55.9349 11.1198 56.2262 11.3849 56.4413 11.7376C56.7439 12.2507 56.9745 12.7875 57.133 13.3481C57.2916 13.9006 57.4061 14.469 57.4765 15.0533C57.5392 15.5495 57.5699 16.0456 57.5686 16.5416C57.5753 17.0296 57.606 17.5217 57.6607 18.0179L57.6453 19.3019L57.6553 20.0699L57.6664 20.406C57.6655 20.742 57.6446 21.0739 57.6038 21.4018C57.571 21.6976 57.5262 21.9935 57.4694 22.2893L57.4814 22.2893C57.5134 22.2974 57.5333 22.3495 57.541 22.4455C57.5487 22.5496 57.5523 22.7336 57.5516 22.9976L57.5484 24.2096C57.8764 24.2107 58.2124 24.2159 58.5563 24.2251C58.7883 24.2339 58.9442 24.2705 59.024 24.3348C59.1119 24.3991 59.1556 24.5152 59.1551 24.6832L59.1171 25.4511C59.1008 25.579 59.0605 25.6669 58.9964 25.7147C58.9323 25.7625 58.8162 25.786 58.6482 25.7855L58.4442 25.7847C58.2282 25.784 58.0162 25.7832 57.8082 25.7825C57.6002 25.7898 57.3922 25.793 57.1842 25.7923C57.1282 25.7921 57.0362 25.7878 56.9082 25.7793C56.7802 25.7789 56.6322 25.7744 56.4643 25.7658C56.2963 25.7652 56.1163 25.7605 55.9243 25.7519C55.7403 25.7432 55.5603 25.7346 55.3844 25.726C55.2084 25.7254 55.0444 25.7208 54.8924 25.7122C54.7484 25.7117 54.6324 25.7113 54.5444 25.711C54.3364 25.7103 54.1284 25.7096 53.9204 25.7088C53.7204 25.7161 53.5203 25.7274 53.3203 25.7427L52.2403 25.7389C51.9763 25.738 51.7083 25.745 51.4363 25.7601C51.1722 25.7832 50.9041 25.8022 50.6321 25.8173C50.4961 25.8328 50.36 25.8403 50.224 25.8398L49.9961 25.827C49.7161 25.81 49.5684 25.6935 49.553 25.4775C49.5453 25.3574 49.5376 25.2374 49.5299 25.1174C49.5223 24.9974 49.5186 24.8773 49.5189 24.7573C49.519 24.7173 49.5271 24.6734 49.5432 24.6254C49.5513 24.5855 49.5635 24.5455 49.5796 24.5056C49.636 24.3538 49.7722 24.2742 49.9882 24.267C50.2842 24.252 50.5843 24.2411 50.8883 24.2342ZM63.7479 25.6354C63.5639 25.6267 63.424 25.5742 63.3283 25.4779C63.2325 25.3896 63.1848 25.2654 63.1853 25.1054L63.2097 24.9255C63.2421 24.7896 63.2585 24.6537 63.2588 24.5177C63.2672 24.3817 63.2795 24.2457 63.2959 24.1098C63.3123 23.9418 63.325 23.7019 63.3338 23.3899C63.3506 23.078 63.3635 22.734 63.3725 22.358C63.3895 21.9901 63.3985 21.6101 63.3995 21.2181C63.4086 20.8182 63.4136 20.4502 63.4144 20.1142C63.4234 19.7702 63.4281 19.4742 63.4288 19.2262C63.4374 18.9783 63.4419 18.8183 63.4421 18.7463C63.443 18.3783 63.4401 17.9903 63.4331 17.5822C63.4262 17.1662 63.4234 16.7422 63.4245 16.3102L63.4253 15.9982C63.4254 15.9502 63.4095 15.9221 63.3775 15.914C63.3375 15.9459 63.3093 15.9858 63.2932 16.0337C63.2851 16.0737 63.273 16.1177 63.2569 16.1656C63.0953 16.749 62.9338 17.3325 62.7722 17.9159C62.6107 18.4993 62.4412 19.0828 62.2636 19.6661C62.0296 20.4413 61.8115 21.2125 61.6095 21.9798C61.4075 22.7471 61.1576 23.4743 60.8598 24.1612C60.7793 24.3449 60.7028 24.5247 60.6303 24.7004C60.5579 24.8762 60.4774 25.0479 60.389 25.2156C60.2603 25.4791 60.0719 25.6105 59.8239 25.6096L59.644 25.585C59.3002 25.5117 59.1168 25.2791 59.0938 24.887C59.094 24.839 59.0941 24.791 59.0942 24.743C59.1023 24.695 59.1105 24.6471 59.1186 24.5991C59.169 23.7033 59.2274 22.7915 59.2938 21.8637C59.3683 20.928 59.4428 19.9842 59.5173 19.0325C59.5835 18.1847 59.6297 17.3449 59.6559 16.5129C59.6822 15.673 59.6964 14.8291 59.6986 13.9811C59.6995 13.6531 59.7003 13.3291 59.7012 13.0091C59.702 12.6891 59.6989 12.3811 59.6916 12.085L59.6824 11.029C59.6908 10.869 59.7392 10.7452 59.8274 10.6575C59.9237 10.5618 60.0438 10.5063 60.1878 10.4908L60.2118 10.4909C60.3478 10.4913 60.4637 10.5317 60.5595 10.6121C60.6553 10.6924 60.719 10.8086 60.7506 10.9608C60.7664 11.0408 60.7742 11.1208 60.774 11.2008C60.7738 11.2808 60.7775 11.3609 60.7853 11.4409C60.8008 11.6489 60.8082 11.873 60.8076 12.113C60.815 12.345 60.8183 12.581 60.8177 12.821L60.8 14.981C60.7976 15.901 60.7672 16.8129 60.7088 17.7167C60.6504 18.6205 60.588 19.5282 60.5216 20.44C60.5053 20.552 60.493 20.6679 60.4847 20.7879C60.4764 20.8999 60.4721 21.0158 60.4717 21.1358C60.4716 21.2078 60.4754 21.2839 60.4831 21.3639C60.4909 21.4359 60.5027 21.5119 60.5185 21.592C60.5427 21.5281 60.5669 21.4682 60.591 21.4123C60.6152 21.3563 60.6353 21.2964 60.6515 21.2325C60.7887 20.769 60.9219 20.3094 61.0511 19.8539C61.1883 19.3983 61.3215 18.9388 61.4508 18.4753C61.798 17.2365 62.1413 16.0097 62.4805 14.7949C62.8277 13.5721 63.095 12.337 63.2823 11.0897C63.3068 10.9057 63.3631 10.7699 63.4513 10.6823C63.5476 10.5946 63.6957 10.5431 63.8958 10.5278C64.1278 10.5126 64.3558 10.5014 64.5798 10.4942C64.8039 10.487 65.0319 10.4838 65.2639 10.4846C65.5999 10.4858 65.9278 10.499 66.2478 10.5241C66.4397 10.5408 66.5876 10.6053 66.6913 10.7176C66.803 10.83 66.8586 10.9782 66.8581 11.1622L66.8574 11.4382C66.8568 11.6382 66.8603 11.8382 66.8678 12.0383C66.8753 12.2303 66.8788 12.4263 66.8782 12.6263L66.8776 12.8663C66.8606 13.2263 66.8517 13.5982 66.8506 13.9822C66.8496 14.3662 66.8486 14.7542 66.8476 15.1462C66.8464 15.5782 66.8453 16.0062 66.8442 16.4302C66.8511 16.8462 66.862 17.2703 66.8768 17.7023L66.8873 18.2664L66.8868 18.4584C66.8865 18.5944 66.882 18.7824 66.8733 19.0223C66.8727 19.2543 66.868 19.5143 66.8593 19.8023C66.8505 20.0903 66.8417 20.3982 66.8328 20.7262C66.824 21.0462 66.8152 21.3621 66.8063 21.6741C66.8055 21.9781 66.8008 22.2661 66.7921 22.5381C66.7833 22.818 66.7787 23.054 66.7782 23.246C66.7775 23.494 66.7649 23.738 66.7403 23.9779C66.7156 24.2258 66.6949 24.4737 66.6783 24.7217C66.6779 24.8657 66.6535 25.0096 66.6052 25.1534C66.5164 25.4571 66.316 25.6084 66.004 25.6073C65.6279 25.614 65.2519 25.6207 64.8759 25.6274C64.5079 25.6341 64.1319 25.6367 63.7479 25.6354Z" fill="white"/>
</svg>
