<svg width="121" height="104" viewBox="0 0 121 104" fill="none" xmlns="http://www.w3.org/2000/svg">
<path d="M14.3237 28.5892L14.664 23.5599L23.5206 9.10325C26.0024 7.96721 32.6151 6.76442 39.2121 11.0416C47.4583 16.3881 57.7257 22.1596 66.6159 29.0937C75.5061 36.0278 85.1048 43.0564 88.2696 45.4464C91.4343 47.8364 104.573 57.0981 107.171 62.364C109.25 66.5768 109.902 72.1356 109.969 74.3884C109.427 74.4196 108.313 74.9442 108.194 76.7924C108.075 78.6407 107.084 80.8732 106.603 81.7585C105.811 81.8944 104.143 82.2794 103.809 82.732C103.391 83.2977 100.289 81.1748 101.266 83.0141C102.048 84.4854 101.129 86.3617 100.573 87.1159C98.8846 86.9425 94.9548 86.2214 92.7392 84.7244C90.5236 83.2274 88.2892 82.3182 87.4489 82.0508L86.6136 83.1822C87.4739 84.1255 88.9527 85.9176 87.9861 85.5401C86.7779 85.0682 86.3005 83.6064 85.1545 83.4017C84.0084 83.197 82.216 83.1649 83.0066 84.2025C83.1212 84.695 83.3257 85.0518 83.5577 85.3058C83.9382 85.4877 84.3368 85.702 84.6301 85.8691C84.3733 85.8561 83.93 85.7134 83.5577 85.3058C82.9116 84.997 82.3176 84.7819 82.3802 85.051C82.4797 85.4786 83.2952 86.623 83.6904 87.1418L83.8969 88.6193L81.2318 86.6066C79.766 85.4997 79.4394 86.5746 79.4593 87.2504C79.0011 87.0512 77.8931 86.4201 77.1274 85.4894C76.1703 84.326 76.3568 85.1276 74.2535 83.7596C72.571 82.6651 66.7788 78.1881 64.093 76.0864C64.4543 76.0655 64.877 75.7974 63.6778 74.8917C62.1787 73.7596 62.0121 73.6338 59.9711 72.533C57.93 71.4321 45.3132 61.4634 39.6499 57.1866L31.4881 51.0228C28.5306 49.5235 21.6703 45.767 17.8895 42.7355C13.1634 38.9462 10.0433 34.3873 10.1477 34.2458C10.2312 34.1327 9.92054 32.6793 9.75477 31.9668C10.0249 32.5379 10.6697 33.5388 11.0873 32.9731C11.5049 32.4074 11.8346 30.0867 11.9472 28.997L14.3237 28.5892Z" fill="#FDA3C4"/>
<path d="M11.5376 39.04C11.0046 38.6374 10.5648 39.1863 10.4115 39.5111L9.22442 38.8349C8.34896 38.9079 6.71884 39.1013 7.20212 39.29C7.68541 39.4788 8.68129 39.7463 9.11883 39.8565C9.48012 39.8356 11.2687 40.599 15.5328 43.8192C20.863 47.8445 20.5721 47.1843 21.0718 47.5617C21.5715 47.9391 12.2039 39.5431 11.5376 39.04Z" fill="#FDA3C4"/>
<path d="M38.1397 45.2646C38.0433 45.1977 37.9695 45.1075 37.9183 44.9941C37.8045 44.7463 37.8265 44.5084 37.9844 44.2804C38.033 44.2103 38.0738 44.1607 38.1069 44.1317C38.1609 44.0913 38.2148 44.0508 38.2688 44.0104C38.3255 43.9848 38.3777 43.9561 38.4256 43.9245C39.368 43.332 40.3592 42.7345 41.3994 42.132C42.4422 41.5444 43.4999 40.954 44.5724 40.361C44.8146 40.2174 44.9934 40.0624 45.1087 39.8958C45.1884 39.7433 45.2468 39.6215 45.2839 39.5304C45.3271 39.4306 45.3629 39.3321 45.3913 39.2349C45.7568 37.9954 46.1455 36.7786 46.5574 35.5844C46.9694 34.3901 47.3705 33.2209 47.7609 32.0766C47.9135 31.6502 48.0881 31.239 48.2845 30.8429C48.4897 30.453 48.6555 30.0357 48.7818 29.5911C48.7946 29.5351 48.8119 29.4821 48.8335 29.4322C48.8551 29.3823 48.881 29.3354 48.9114 29.2915C49.039 29.1074 49.2184 28.9982 49.4497 28.964C49.681 28.9298 49.9285 28.9846 50.1921 29.1286C50.4145 29.257 50.6309 29.3942 50.8413 29.5401C51.0516 29.6861 51.2649 29.8277 51.4813 29.9648C51.5777 30.0317 51.6711 30.103 51.7614 30.1787C51.8517 30.2543 51.9451 30.3256 52.0415 30.3925C52.2194 30.529 52.3549 30.6425 52.4479 30.733C52.541 30.8235 52.6043 30.9194 52.638 31.0207C52.6716 31.1219 52.6739 31.2404 52.6449 31.376C52.6246 31.5177 52.5843 31.6975 52.5242 31.9155C52.483 32.0686 52.43 32.2201 52.3652 32.3699C52.3152 32.517 52.2534 32.6624 52.1798 32.806C51.9213 33.3667 51.6691 33.9837 51.4233 34.657C51.1923 35.3277 50.9546 36.0456 50.7101 36.8107C50.8105 36.8155 50.91 36.7936 51.0085 36.7451C51.1218 36.6939 51.2277 36.6441 51.3262 36.5956C52.166 36.1137 52.998 35.6524 53.8223 35.2117C54.6553 34.7771 55.4129 34.3485 56.0948 33.9259C56.2237 33.8335 56.3549 33.7753 56.4884 33.7511C56.6961 33.7134 56.8745 33.7463 57.0234 33.8497C57.0935 33.8984 57.1545 33.9602 57.2064 34.0351C57.3709 34.2661 57.3842 34.509 57.2465 34.764L57.1919 34.843C57.0947 34.9833 56.9847 35.0952 56.8619 35.1788C56.7392 35.2624 56.612 35.3429 56.4805 35.4204C55.7068 35.8443 54.8822 36.3042 54.0066 36.8002C53.1311 37.2962 52.2289 37.7932 51.3 38.2912C50.9176 38.5062 50.6262 38.674 50.4258 38.7946C50.2316 38.9065 50.0737 39.0501 49.9522 39.2255C49.8611 39.357 49.7798 39.5213 49.7082 39.7183C49.6427 39.9066 49.5751 40.1259 49.5056 40.3762C49.2293 41.2621 48.9429 42.1345 48.6464 42.9934C48.3587 43.8584 48.0798 44.7294 47.8096 45.6066C47.6022 46.2806 47.4185 46.9581 47.2583 47.6389C47.0981 48.3198 46.9821 49.0118 46.9103 49.715C46.894 49.7946 46.8765 49.8668 46.8576 49.9316C46.8386 49.9963 46.8079 50.0594 46.7654 50.1208C46.6622 50.2699 46.5154 50.3693 46.3253 50.4191C46.1351 50.4688 45.9284 50.4488 45.7052 50.3588C45.4996 50.281 45.3017 50.1827 45.1116 50.0637C44.9154 49.9536 44.7253 49.8346 44.5413 49.7069L43.332 48.8677C43.1513 48.7164 43.0256 48.5513 42.9549 48.3724C42.893 48.1995 42.8877 48.0011 42.9391 47.7771C43.1269 47.0376 43.2955 46.2977 43.4449 45.5574C43.5943 44.8172 43.7953 44.0868 44.0479 43.3662C44.1195 43.1692 44.188 42.9766 44.2535 42.7883C44.3191 42.6001 44.3502 42.4334 44.3469 42.2883C44.2289 42.2713 44.1324 42.2888 44.0575 42.3407C43.9887 42.3839 43.9125 42.4283 43.8289 42.4742C43.0552 42.898 42.3038 43.3179 41.5746 43.7337C40.8481 44.1643 40.1617 44.5839 39.5155 44.9924C39.3988 45.0672 39.2851 45.1376 39.1745 45.2037C39.0578 45.2785 38.9297 45.3324 38.79 45.3653C38.5493 45.4319 38.3325 45.3984 38.1397 45.2646ZM66.4289 40.7076C66.4518 40.7495 66.4629 40.7897 66.4622 40.8281C66.4877 41.0536 66.3942 41.3197 66.1816 41.6266L65.7858 42.1699C65.5732 42.4768 65.3681 42.7824 65.1703 43.0866C64.9814 43.3969 64.7894 43.7116 64.5943 44.0307C64.5518 44.092 64.4833 44.2003 64.3888 44.3555C64.3038 44.4782 64.1823 44.6536 64.0244 44.8816C63.8813 45.1069 63.6883 45.3949 63.4454 45.7456C63.2024 46.0964 62.9004 46.523 62.5394 47.0255C62.1932 47.5253 61.7789 48.1142 61.2964 48.792C60.8139 49.4699 60.2541 50.25 59.6171 51.1322C58.9949 52.0118 58.2863 53.0067 57.4913 54.1169C57.2821 54.4002 57.0628 54.67 56.8334 54.9262C56.598 55.1913 56.348 55.4398 56.0835 55.6717C55.9243 55.8079 55.7584 55.907 55.5857 55.9689C55.4218 56.037 55.2421 56.081 55.0465 56.1011C54.6614 56.1325 54.2936 56.1109 53.943 56.0364C53.5863 55.9707 53.2502 55.8283 52.9347 55.6094L52.8033 55.5182C52.5464 55.327 52.2896 55.1358 52.0328 54.9446C51.7787 54.7682 51.5262 54.58 51.2755 54.3801C51.0247 54.1801 50.7831 53.9669 50.5505 53.7407C50.3268 53.5205 50.1212 53.274 49.9339 53.0011C49.5276 52.4076 49.2723 51.802 49.1681 51.1844C49.0666 50.5816 49.1772 49.9443 49.4998 49.2723C49.6322 48.9876 49.7702 48.7134 49.914 48.4496C50.0665 48.1919 50.2278 47.9403 50.3979 47.6948C50.5011 47.5458 50.6057 47.4041 50.7116 47.2699C50.8176 47.1357 50.9353 47.0032 51.0649 46.8723C51.2396 46.695 51.3982 46.5129 51.5406 46.3261C51.6978 46.1365 51.855 45.947 52.0122 45.7575C52.0574 45.711 52.0982 45.6614 52.1347 45.6088C52.1772 45.5474 52.2224 45.5009 52.2703 45.4692C52.4295 45.333 52.5951 45.2532 52.7671 45.2297C52.939 45.2062 53.0995 45.2462 53.2485 45.3495L53.3142 45.3951C53.451 45.5161 53.5282 45.667 53.5456 45.8479C53.5779 46.0261 53.5333 46.2028 53.4118 46.3782L53.3754 46.4308C53.206 46.6379 53.0367 46.8449 52.8673 47.052C52.704 47.2503 52.5289 47.4469 52.342 47.6418C52.2091 47.7962 52.0762 47.9506 51.9432 48.1051C51.8252 48.2568 51.7084 48.416 51.593 48.5826C51.4412 48.8018 51.2981 49.0271 51.1638 49.2585C51.0382 49.496 50.9214 49.7395 50.8134 49.9891C50.5663 50.5707 50.5785 51.1245 50.85 51.6504C50.9329 51.8118 51.0248 51.96 51.1259 52.0951C51.2297 52.245 51.3439 52.3892 51.4686 52.5276C51.5555 52.6269 51.6472 52.71 51.7436 52.7769C51.9802 52.9411 52.2246 53.0003 52.4769 52.9546C52.7318 52.9238 52.9692 52.7965 53.1892 52.5726C53.3248 52.433 53.456 52.2903 53.5829 52.1447C53.7097 51.999 53.8322 51.8503 53.9503 51.6985C54.6669 50.6638 55.3971 49.619 56.1408 48.5641C56.4505 48.1169 56.7785 47.6434 57.1247 47.1436C57.4709 46.6437 57.8245 46.1426 58.1855 45.6401L58.3404 45.4165C58.1355 45.3002 57.938 45.1826 57.7479 45.0637C57.5227 44.9204 57.2962 44.7698 57.0683 44.6116C56.8317 44.4474 56.5982 44.2789 56.3676 44.1059C56.1371 43.9329 55.914 43.7586 55.6983 43.583C55.2783 43.2526 54.9794 42.9348 54.8016 42.6296C54.6324 42.3305 54.5442 42.0551 54.537 41.8033C54.5351 41.5813 54.5608 41.3849 54.6141 41.2142C54.6823 41.0408 54.7593 40.8735 54.845 40.7123L55.7695 38.8999C55.8005 38.8176 55.8677 38.7019 55.9709 38.5529C56.0742 38.4038 56.1774 38.2547 56.2807 38.1057C56.3657 37.9829 56.4386 37.8777 56.4993 37.79C56.5661 37.6935 56.613 37.6352 56.64 37.615C56.9909 37.1833 57.3202 36.8016 57.6278 36.4698C57.9504 36.1353 58.2756 35.8157 58.6034 35.5109C58.7235 35.4125 58.8601 35.3839 59.0131 35.4252C59.1723 35.4577 59.3995 35.57 59.6947 35.7619C59.9287 35.9112 60.1595 36.0649 60.3874 36.2231C60.6301 36.3785 60.8653 36.5352 61.0932 36.6934L61.5927 37.04C61.8873 37.2704 62.0763 37.447 62.1599 37.5699C62.2522 37.6989 62.2589 37.8204 62.1799 37.9344L62.103 38.0173C61.9465 38.1684 61.79 38.3194 61.6334 38.4705C61.4769 38.6215 61.3217 38.78 61.1679 38.9459C60.9749 39.1495 60.7863 39.3562 60.6021 39.566C60.424 39.767 60.2398 39.9767 60.0495 40.1952L59.9858 40.2873C59.9432 40.3487 59.8886 40.4276 59.8218 40.524C59.7637 40.6266 59.7013 40.7261 59.6345 40.8225C59.5764 40.9251 59.517 41.0202 59.4563 41.1079C59.4043 41.2016 59.3645 41.2779 59.3368 41.3365C59.1802 41.6563 59.0192 41.9731 58.8539 42.2867C58.6885 42.6004 58.5275 42.9172 58.3709 43.2369C58.3277 43.3368 58.2875 43.4323 58.2504 43.5233C58.222 43.6205 58.1936 43.7177 58.1652 43.8148C58.1558 43.8472 58.1477 43.887 58.1409 43.9343C58.1402 43.9727 58.1395 44.0112 58.1388 44.0497C58.1428 44.1563 58.1704 44.2663 58.2216 44.3798C58.2876 44.4905 58.3934 44.6094 58.539 44.7364L58.7231 44.8641L60.2172 42.707C60.6909 42.023 61.1069 41.4224 61.4653 40.905C61.8297 40.3789 62.0926 39.99 62.2538 39.7384L62.5089 39.3701C62.5575 39.3 62.6 39.2386 62.6365 39.186C62.679 39.1246 62.7259 39.0663 62.7772 39.011C63.1881 38.5301 63.642 38.4556 64.1388 38.7874L64.8051 39.2303C65.1995 39.504 65.5847 39.7908 65.9609 40.0907L66.066 40.1637C66.3343 40.3758 66.4553 40.5572 66.4289 40.7076ZM62.0237 59.5212L62.7993 60.0594C63.2632 60.0827 63.709 60.048 64.1366 59.9552C64.8609 59.8087 65.5256 59.4391 66.1308 58.8463C66.4047 58.582 66.6598 58.2981 66.896 57.9946C67.1409 57.6971 67.3697 57.395 67.5822 57.0881L68.143 56.2503C68.6094 55.4833 69.0828 54.7343 69.5634 54.0031C70.0526 53.2779 70.5348 52.5349 71.0099 51.7741C71.7834 50.545 72.2585 49.2128 72.4352 47.7775C72.4833 47.4084 72.4285 47.0847 72.2708 46.8065C72.128 46.5256 71.9494 46.2589 71.7351 46.0063C71.7061 45.9732 71.6654 45.9384 71.6128 45.9019C71.4638 45.7986 71.3107 45.8416 71.1535 46.0311L70.5179 46.8364C70.194 47.2479 69.8731 47.6549 69.5553 48.0576C69.2375 48.4602 68.9297 48.8764 68.6321 49.306C68.4924 49.5077 68.3571 49.7124 68.2262 49.9202C68.0953 50.1279 67.9687 50.3388 67.8466 50.5526C67.5611 50.9647 67.2918 51.3816 67.0387 51.8032C66.3673 52.7914 65.6836 53.7971 64.9879 54.8203C64.2982 55.8348 63.6425 56.8469 63.0209 57.8567L62.4176 58.8402C62.2806 59.0568 62.1493 59.2838 62.0237 59.5212ZM58.3886 57.1544C58.618 56.7294 58.8651 56.3166 59.1296 55.9159C59.4677 55.3716 59.8089 54.8228 60.1531 54.2697C60.6802 53.415 61.2339 52.5594 61.8143 51.7027C62.4008 50.8373 62.9764 49.9969 63.5412 49.1814C63.6634 48.9675 63.79 48.7567 63.9209 48.549C64.0579 48.3324 64.1962 48.1233 64.3359 47.9217C64.446 47.7254 64.5604 47.5321 64.6791 47.3419C64.804 47.1429 64.9302 46.9513 65.0577 46.7672C65.3979 46.2761 65.7525 45.8016 66.1216 45.3437C66.4994 44.8918 66.8716 44.4295 67.238 43.9567C67.5558 43.554 67.8837 43.1649 68.2218 42.7892C68.4573 42.5242 68.6789 42.3729 68.8866 42.3352C69.103 42.3037 69.3677 42.39 69.6805 42.594C70.1274 42.9042 70.5639 43.2201 70.9899 43.5417C71.4247 43.8693 71.8595 44.197 72.2942 44.5247C72.5713 44.7429 72.8109 44.9871 73.0131 45.2572C73.2213 45.5186 73.41 45.7988 73.5791 46.0979C73.8486 46.5706 73.968 47.0819 73.9374 47.6319C73.8817 48.4242 73.7289 49.1881 73.479 49.9235C73.2352 50.6502 72.931 51.3609 72.5665 52.0558C72.2601 52.6481 71.9186 53.216 71.542 53.7597C71.1803 54.3007 70.8418 54.8643 70.5266 55.4505L69.5386 56.8487L68.9687 57.6997L68.7268 58.0771C68.4717 58.4453 68.1977 58.794 67.9049 59.1231C67.6451 59.4233 67.3722 59.7143 67.0861 59.9961L67.0993 60.0052C67.1282 60.0383 67.1107 60.1105 67.0465 60.2218C66.9764 60.3419 66.841 60.5466 66.6406 60.836L65.7205 62.1645C66.0798 62.4138 66.4448 62.6736 66.8155 62.9438C67.0636 63.129 67.2072 63.287 67.2462 63.418C67.294 63.555 67.2541 63.7156 67.1266 63.8998L66.5041 64.7142C66.3894 64.8423 66.2788 64.9084 66.1722 64.9123C66.0657 64.9163 65.9204 64.8544 65.7363 64.7267L65.5129 64.5716C65.2763 64.4074 65.044 64.2463 64.8162 64.0882C64.5823 63.9388 64.3514 63.7851 64.1235 63.627C64.0622 63.5844 63.9645 63.5101 63.8303 63.404C63.6901 63.3067 63.531 63.1898 63.3531 63.0534C63.169 62.9257 62.9749 62.7845 62.7707 62.6297C62.5752 62.4811 62.3841 62.3355 62.1973 62.1929C62.0046 62.0592 61.8279 61.9301 61.6675 61.8058C61.5098 61.6963 61.3827 61.6082 61.2863 61.5413C61.0585 61.3831 60.8306 61.225 60.6028 61.0669C60.3776 60.9237 60.1494 60.7848 59.9182 60.6503L58.7351 59.8293C58.4459 59.6286 58.1463 59.4337 57.8362 59.2445C57.5288 59.0701 57.22 58.8883 56.9099 58.699C56.7488 58.6132 56.5938 58.5186 56.4448 58.4152L56.2041 58.2287C55.9096 57.9984 55.8355 57.7587 55.982 57.5098C56.0643 57.3722 56.1467 57.2346 56.229 57.097C56.3113 56.9593 56.3981 56.8248 56.4892 56.6932C56.5195 56.6494 56.5617 56.6073 56.6157 56.5668C56.6548 56.529 56.6983 56.4943 56.7462 56.4626C56.9229 56.3386 57.1327 56.3543 57.3753 56.5097C57.7117 56.7172 58.0495 56.9321 58.3886 57.1544ZM71.4497 68.4188C71.2542 68.2702 71.1403 68.1068 71.1081 67.9286C71.0697 67.7591 71.1113 67.5867 71.2327 67.4113L71.3957 67.2323C71.534 67.1076 71.6548 66.9707 71.758 66.8216C71.87 66.6786 71.9864 66.5387 72.1072 66.4017C72.2523 66.2298 72.4476 65.9758 72.6933 65.6399C72.9477 65.3101 73.222 64.9422 73.5162 64.5361C73.8131 64.1449 74.1104 63.7345 74.408 63.3049C74.7204 62.8725 75.0042 62.4722 75.2593 62.1039C75.5292 61.7329 75.7583 61.4115 75.9466 61.1397C76.1436 60.874 76.2695 60.7016 76.3241 60.6227C76.6035 60.2193 76.8937 59.791 77.1947 59.3377C77.5018 58.8757 77.8193 58.4079 78.1473 57.9344L78.3841 57.5924C78.4206 57.5398 78.4243 57.497 78.3953 57.4639C78.3272 57.4685 78.2662 57.4911 78.2122 57.5315C78.1731 57.5693 78.1265 57.6084 78.0725 57.6489C77.4539 58.1673 76.8353 58.6858 76.2166 59.2043C75.598 59.7228 74.9706 60.2352 74.3344 60.7415C73.4912 61.4157 72.6684 62.0977 71.8663 62.7875C71.0641 63.4772 70.2398 64.0867 69.3932 64.6158C69.1659 64.7566 68.946 64.8962 68.7335 65.0343C68.521 65.1725 68.3028 65.3002 68.0788 65.4175C67.7382 65.6095 67.4321 65.6113 67.1604 65.4228L66.9814 65.2597C66.6593 64.9192 66.6339 64.5251 66.9052 64.0772C66.9416 64.0246 66.9781 63.972 67.0145 63.9193C67.0597 63.8728 67.1049 63.8263 67.1501 63.7798C67.8829 62.8341 68.6367 61.8771 69.4113 60.9086C70.2008 59.9374 70.9963 58.9574 71.798 57.9687C72.5119 57.0878 73.1978 56.2006 73.8557 55.3069C74.5198 54.4044 75.1737 53.4884 75.8175 52.559C76.0665 52.1995 76.3125 51.8443 76.5554 51.4936C76.7983 51.1428 77.0278 50.8022 77.2438 50.4717L78.0323 49.3051C78.1626 49.1358 78.3093 49.0364 78.4725 49.0068C78.6505 48.9746 78.8245 49.0044 78.9944 49.0963L79.0207 49.1146C79.1696 49.2179 79.2663 49.35 79.3108 49.5106C79.3552 49.6713 79.3372 49.8471 79.2569 50.038C79.2137 50.1379 79.1617 50.2316 79.101 50.3193C79.0402 50.407 78.9839 50.4977 78.9319 50.5915C78.7915 50.8317 78.6302 51.0833 78.448 51.3463C78.2806 51.6067 78.1059 51.8684 77.9237 52.1315L76.2706 54.4899C75.5722 55.4983 74.8491 56.4766 74.1015 57.4249C73.3538 58.3732 72.5987 59.3228 71.8362 60.2738C71.7337 60.3844 71.6325 60.5024 71.5326 60.6279C71.4388 60.7446 71.3463 60.8687 71.2552 61.0002C71.2006 61.0791 71.1473 61.1655 71.0953 61.2592C71.0494 61.3442 71.0048 61.4366 70.9616 61.5365C71.0365 61.4846 71.1084 61.4371 71.1772 61.3939C71.246 61.3508 71.3134 61.3002 71.3795 61.2422C71.8808 60.837 72.3746 60.4332 72.861 60.0307C73.3562 59.6342 73.85 59.2304 74.3425 58.8191C75.6607 57.7215 76.9655 56.6339 78.2567 55.5565C79.5628 54.4764 80.7903 53.3223 81.9394 52.0943C82.1054 51.9108 82.27 51.8043 82.4332 51.7748C82.6051 51.7513 82.8067 51.8068 83.038 51.9413C83.3042 52.1001 83.5631 52.2603 83.8146 52.4218C84.066 52.5833 84.3188 52.7522 84.5729 52.9286C84.941 53.184 85.2912 53.4465 85.6235 53.716C85.8217 53.8795 85.9352 54.0622 85.9641 54.264C86.0017 54.4719 85.9507 54.6767 85.811 54.8784L85.6015 55.1809C85.4497 55.4001 85.3022 55.6224 85.1591 55.8477C85.0221 56.0642 84.8777 56.2821 84.7259 56.5013L84.5437 56.7643C84.2528 57.1468 83.9616 57.5484 83.6701 57.9693C83.3786 58.3902 83.084 58.8155 82.7864 59.2452C82.4584 59.7187 82.1335 60.1878 81.8116 60.6525C81.5045 61.1146 81.1958 61.5884 80.8853 62.0741L80.4703 62.7014L80.3245 62.9119C80.2213 63.0609 80.0741 63.264 79.8832 63.5209C79.707 63.7752 79.5053 64.0572 79.2779 64.3668C79.0504 64.6763 78.8078 65.0079 78.5501 65.3613C78.2984 65.706 78.0497 66.0462 77.8041 66.3821C77.5733 66.7153 77.3502 67.028 77.135 67.32C76.9136 67.6208 76.7301 67.8765 76.5843 68.0869C76.396 68.3588 76.1976 68.6171 75.9891 68.8619C75.7746 69.1155 75.5644 69.3721 75.3586 69.6318C75.2492 69.7896 75.1136 69.9292 74.9517 70.0505C74.6245 70.3169 74.2901 70.3314 73.9483 70.0943C73.5303 69.8172 73.1124 69.5402 72.6944 69.2631C72.2852 68.9921 71.8703 68.7107 71.4497 68.4188Z" fill="white"/>
</svg>
