<svg width="171" height="45" viewBox="0 0 171 45" fill="none" xmlns="http://www.w3.org/2000/svg">
<path d="M7.026 32.162L2.95604 27.9734L0.772586 11.219C2.75785 8.83386 9.67304 3.9239 21.4517 3.36542C36.175 2.66732 53.7181 1.09659 70.6336 1.27112C87.5492 1.44564 110.32 0.956778 116.272 0.956778C122.224 0.956778 146.345 0.433347 154.175 3.05108C160.439 5.14526 166.179 9.1594 168.267 10.9047C167.64 11.2537 166.762 12.3357 168.265 13.8715C169.768 15.4073 170.56 17.7692 170.768 18.7582C169.933 19.34 168.261 20.6431 168.261 21.2015C168.261 21.8996 162.622 22.0742 165.441 22.9468C167.696 23.6449 168.259 25.681 168.258 26.6118C166.065 27.4844 160.676 29.2646 156.666 29.4042C152.656 29.5438 149.148 30.1605 147.894 30.4514L147.894 31.8477C149.773 32.0803 153.156 32.6155 151.652 32.8947C149.772 33.2438 147.893 32.3711 146.327 32.8947C144.76 33.4183 142.567 34.4654 144.446 34.8145C145.023 35.1361 145.588 35.2965 146.095 35.3589C146.716 35.2753 147.389 35.2067 147.892 35.1635C147.57 35.3069 146.908 35.4591 146.095 35.3589C145.039 35.5009 144.13 35.6859 144.446 35.8616C144.947 36.1409 146.951 36.5597 147.891 36.7343L149.457 37.7814H144.445C141.688 37.7814 142.251 38.8286 142.877 39.3521C142.146 39.4685 140.246 39.6314 138.492 39.3521C136.299 39.0031 137.239 39.5266 133.48 39.7012C130.472 39.8408 119.488 39.7593 114.371 39.7012C114.789 39.4685 115.061 39.0031 112.805 39.0031C109.986 39.0031 109.673 39.0031 106.227 39.3521C102.781 39.7012 73.7448 39.6665 63.0942 39.6665H47.7448C42.8368 40.2482 31.204 41.3768 23.9366 41.2372C14.8524 41.0627 7.02202 39.3174 7.02212 39.1429C7.02219 39.0033 5.35205 38.0376 4.51696 37.5722C5.35214 37.863 7.0226 38.2703 7.02299 37.5722C7.02338 36.8741 5.35383 34.8379 4.519 33.9072L7.026 32.162Z" fill="#FDA3C4"/>
<path d="M12.9723 42.1098C11.9699 42.1098 11.9277 42.8079 12.0319 43.157L9.99569 43.3315C9.0034 43.9132 7.20678 45.0418 7.95867 44.9022C8.71056 44.7626 10.1517 44.3786 10.7783 44.2041C11.1961 43.9714 14.0366 43.506 22.0559 43.506C32.08 43.506 31.1404 43.157 32.0802 43.157C33.0199 43.157 14.2253 42.1098 12.9723 42.1098Z" fill="#FDA3C4"/>
<path d="M42.6854 17.7924C42.6427 17.6537 42.6054 17.5151 42.5734 17.3764C42.4242 16.8324 42.3496 16.2671 42.3496 15.6804C42.3496 15.4457 42.3603 15.2111 42.3817 14.9764C42.4244 14.5497 42.4885 14.1284 42.5738 13.7124C42.6165 13.5524 42.6592 13.3924 42.7019 13.2324C42.6379 13.1364 42.5686 13.0404 42.4939 12.9444C42.4726 12.9231 42.4566 12.9071 42.4459 12.8964C42.4246 12.8857 42.4033 12.8697 42.3819 12.8484C42.2433 12.7524 42.0513 12.7044 41.8059 12.7044C41.7099 12.7044 41.6139 12.7151 41.5179 12.7364C41.4219 12.7577 41.3419 12.7844 41.2779 12.8164C41.1286 12.9017 41.0166 12.9924 40.9419 13.0884C40.8672 13.1737 40.7979 13.2591 40.7339 13.3444C40.5525 13.6431 40.4298 13.9471 40.3658 14.2564C40.2911 14.5551 40.2324 14.8591 40.1897 15.1684C40.179 15.2431 40.1737 15.3177 40.1737 15.3924C40.1736 15.4564 40.1736 15.5257 40.1736 15.6004C40.1736 16.0057 40.2429 16.3951 40.3815 16.7684C40.5095 17.1417 40.7014 17.5151 40.9574 17.8884C41 17.9524 41.048 18.0111 41.1014 18.0644C41.1547 18.1177 41.2294 18.1711 41.3254 18.2244C41.4853 18.3097 41.6507 18.3524 41.8213 18.3524C42.0133 18.3524 42.1787 18.2991 42.3174 18.1924C42.3814 18.1497 42.4347 18.1071 42.4774 18.0644C42.5094 18.0217 42.5467 17.9737 42.5894 17.9204C42.6214 17.8777 42.6534 17.8351 42.6854 17.7924ZM46.3819 13.0564C46.4032 13.0991 46.4246 13.1417 46.4459 13.1844C46.6272 13.6111 46.7551 14.0431 46.8297 14.4804C46.8617 14.6191 46.8884 14.7631 46.9097 14.9124C46.931 15.0511 46.9417 15.1897 46.9417 15.3284L46.9416 15.4884C46.8989 16.1071 46.7975 16.7097 46.6375 17.2964C46.5841 17.5097 46.5147 17.7231 46.4294 17.9364L46.5254 18.0644C46.5787 18.1177 46.6534 18.1711 46.7494 18.2244C46.9093 18.3097 47.0747 18.3524 47.2453 18.3524C47.4373 18.3524 47.6027 18.2991 47.7414 18.1924C47.8054 18.1497 47.8534 18.1071 47.8854 18.0644C47.928 18.0217 47.9707 17.9737 48.0134 17.9204C48.3228 17.5257 48.5521 17.1257 48.7015 16.7204C48.8509 16.3151 48.9416 15.9044 48.9736 15.4884L48.9736 15.4404C48.9737 15.0031 48.8777 14.5817 48.6858 14.1764C48.4938 13.7604 48.2379 13.3497 47.9179 12.9444C47.8966 12.9231 47.8752 12.9071 47.8539 12.8964C47.8433 12.8857 47.8273 12.8697 47.8059 12.8484C47.6673 12.7524 47.4753 12.7044 47.2299 12.7044C47.1339 12.7044 47.0379 12.7151 46.9419 12.7364C46.8459 12.7577 46.7606 12.7844 46.6859 12.8164C46.5579 12.8911 46.4566 12.9711 46.3819 13.0564ZM45.4852 20.0964L45.485 21.4084C45.4849 22.3257 45.4848 23.2377 45.4847 24.1444C45.4846 25.0511 45.4899 25.9631 45.5004 26.8804C45.511 27.3924 45.5217 27.8884 45.5323 28.3684C45.5429 28.8591 45.5482 29.3551 45.5481 29.8564C45.5481 30.1017 45.5427 30.2991 45.5321 30.4484C45.532 30.6084 45.516 30.7364 45.484 30.8324C45.4627 30.9284 45.42 31.0031 45.356 31.0564C45.3027 31.1204 45.2333 31.1737 45.148 31.2164C45.0413 31.2591 44.9346 31.2857 44.828 31.2964C44.732 31.3071 44.6413 31.3124 44.556 31.3124L44.092 31.2964C43.9533 31.2751 43.8573 31.2004 43.804 31.0724C43.7507 30.9444 43.7187 30.7257 43.7081 30.4164C43.6761 29.8191 43.6602 29.2057 43.6603 28.5764C43.6497 27.5311 43.6338 26.4911 43.6126 25.4564C43.602 24.4217 43.5968 23.3817 43.5969 22.3364L43.5972 20.0964H43.5172C43.3038 20.1071 43.0905 20.1124 42.8772 20.1124L41.7412 20.0964C41.5492 20.0964 41.3785 20.0751 41.2292 20.0324C41.0798 19.9791 40.9358 19.9151 40.7972 19.8404C40.5732 19.7231 40.4025 19.5951 40.2852 19.4564C40.1572 19.3071 40.0506 19.1577 39.9653 19.0084C39.6773 18.4644 39.4641 17.9204 39.3254 17.3764C39.1868 16.8324 39.1176 16.2671 39.1176 15.6804C39.1176 15.4457 39.1283 15.2111 39.1497 14.9764C39.1924 14.5497 39.2565 14.1337 39.3418 13.7284C39.4272 13.3124 39.5606 12.8964 39.742 12.4804C39.9447 12.0644 40.286 11.6964 40.7661 11.3764C40.8728 11.3124 40.9848 11.2591 41.1021 11.2164C41.2194 11.1737 41.3634 11.1471 41.5341 11.1364C41.7688 11.1257 42.0034 11.1151 42.2381 11.1044C42.4621 11.0937 42.6968 11.0884 42.9421 11.0884C43.2088 11.0884 43.4754 11.0937 43.7421 11.1044C43.9341 11.1257 44.1208 11.1471 44.3021 11.1684C44.3448 11.1577 44.3874 11.1471 44.4301 11.1364C44.5474 11.1151 44.6701 11.1044 44.7981 11.1044C44.8941 11.1151 44.9741 11.1204 45.0381 11.1204C45.1874 11.1204 45.3314 11.1151 45.4701 11.1044C45.6941 11.0937 45.9288 11.0884 46.1741 11.0884C46.4408 11.0884 46.7074 11.0991 46.9741 11.1204C47.2408 11.1311 47.5074 11.1577 47.7741 11.2004C48.1048 11.2537 48.3714 11.3444 48.5741 11.4724C48.7767 11.5897 48.9314 11.7391 49.038 11.9204C49.2833 12.3471 49.4966 12.7737 49.6779 13.2004C49.8592 13.6164 49.9871 14.0431 50.0617 14.4804C50.0937 14.6191 50.1204 14.7631 50.1417 14.9124C50.163 15.0511 50.1737 15.1897 50.1737 15.3284L50.1736 15.4884C50.1309 16.1071 50.0295 16.7097 49.8695 17.2964C49.7094 17.8831 49.464 18.4644 49.1333 19.0404C49.0906 19.1151 49.0426 19.1897 48.9892 19.2644C48.9359 19.3391 48.8772 19.4137 48.8132 19.4884C48.5252 19.8191 48.0452 20.0111 47.3732 20.0644C47.1598 20.0857 46.9465 20.1017 46.7332 20.1124C46.5305 20.1124 46.3225 20.1124 46.1092 20.1124L45.4852 20.0964ZM59.7636 11.3444C59.8062 11.3657 59.8382 11.3924 59.8596 11.4244C60.0089 11.5951 60.0835 11.8671 60.0835 12.2404L60.0674 12.9124C60.0674 13.2857 60.0727 13.6537 60.0833 14.0164C60.1046 14.3791 60.1259 14.7471 60.1472 15.1204C60.1472 15.1951 60.1525 15.3231 60.1631 15.5044C60.1631 15.6537 60.1631 15.8671 60.1631 16.1444C60.1737 16.4111 60.179 16.7577 60.179 17.1844C60.1789 17.6111 60.1735 18.1337 60.1628 18.7524C60.1627 19.3604 60.1573 20.0804 60.1466 20.9124C60.1358 21.7444 60.1197 22.7044 60.0983 23.7924C60.0875 24.8697 60.0714 26.0911 60.0499 27.4564C60.0392 27.8084 60.0125 28.1551 59.9698 28.4964C59.9271 28.8484 59.863 29.1951 59.7777 29.5364C59.7243 29.7391 59.6443 29.9151 59.5376 30.0644C59.4416 30.2137 59.3189 30.3524 59.1696 30.4804C58.8709 30.7257 58.5562 30.9177 58.2255 31.0564C57.8948 31.2057 57.5375 31.2804 57.1535 31.2804H56.9935C56.6735 31.2697 56.3535 31.2591 56.0335 31.2484C55.7241 31.2484 55.4095 31.2377 55.0895 31.2164C54.7695 31.1951 54.4495 31.1577 54.1295 31.1044C53.8202 31.0511 53.5108 30.9657 53.2015 30.8484C52.5295 30.5924 51.9749 30.2404 51.5376 29.7924C51.111 29.3551 50.8391 28.7684 50.7218 28.0324C50.6685 27.7231 50.6259 27.4191 50.5939 27.1204C50.5726 26.8217 50.562 26.5231 50.562 26.2244C50.562 26.0431 50.5674 25.8671 50.5781 25.6964C50.5887 25.5257 50.6101 25.3497 50.6421 25.1684C50.6848 24.9231 50.7115 24.6831 50.7222 24.4484C50.7436 24.2031 50.7649 23.9577 50.7863 23.7124C50.7969 23.6484 50.8023 23.5844 50.8023 23.5204C50.8023 23.4457 50.813 23.3817 50.8343 23.3284C50.8877 23.1257 50.9784 22.9657 51.1064 22.8484C51.2344 22.7311 51.389 22.6724 51.5704 22.6724H51.6504C51.8317 22.6937 51.981 22.7737 52.0984 22.9124C52.2263 23.0404 52.2903 23.2111 52.2903 23.4244L52.2903 23.4884C52.2689 23.7551 52.2476 24.0217 52.2262 24.2884C52.2049 24.5444 52.1728 24.8057 52.1301 25.0724C52.1088 25.2751 52.0874 25.4777 52.0661 25.6804C52.0554 25.8724 52.05 26.0697 52.05 26.2724C52.05 26.5391 52.0606 26.8057 52.0819 27.0724C52.1139 27.3391 52.1565 27.6057 52.2098 27.8724C52.3378 28.4911 52.6631 28.9391 53.1857 29.2164C53.3457 29.3017 53.5057 29.3711 53.6657 29.4244C53.8363 29.4884 54.0123 29.5417 54.1936 29.5844C54.3216 29.6164 54.4443 29.6324 54.5616 29.6324C54.8496 29.6324 55.0843 29.5417 55.2657 29.3604C55.4577 29.1897 55.5804 28.9497 55.6337 28.6404C55.6658 28.4484 55.6925 28.2564 55.7138 28.0644C55.7352 27.8724 55.7512 27.6804 55.7619 27.4884C55.762 26.2297 55.7675 24.9551 55.7783 23.6644C55.7783 23.1204 55.7784 22.5444 55.7785 21.9364C55.7785 21.3284 55.7839 20.7151 55.7947 20.0964L55.7947 19.8244C55.56 19.8457 55.3307 19.8617 55.1067 19.8724C54.84 19.8831 54.568 19.8884 54.2907 19.8884C54.0027 19.8884 53.7147 19.8831 53.4267 19.8724C53.1387 19.8617 52.856 19.8457 52.5787 19.8244C52.0454 19.7924 51.6187 19.7017 51.2987 19.5524C50.9894 19.4031 50.7601 19.2271 50.6108 19.0244C50.4828 18.8431 50.3921 18.6671 50.3388 18.4964C50.2962 18.3151 50.2642 18.1337 50.2429 17.9524L49.9711 15.9364C49.9498 15.8511 49.9391 15.7177 49.9391 15.5364C49.9392 15.3551 49.9392 15.1737 49.9392 14.9924C49.9392 14.8431 49.9392 14.7151 49.9392 14.6084C49.9392 14.4911 49.9446 14.4164 49.9553 14.3844C49.998 13.8297 50.0514 13.3284 50.1154 12.8804C50.1901 12.4217 50.2755 11.9737 50.3716 11.5364C50.4142 11.3871 50.5103 11.2857 50.6596 11.2324C50.8089 11.1684 51.0596 11.1311 51.4116 11.1204C51.6889 11.1097 51.9663 11.1044 52.2436 11.1044C52.5316 11.0937 52.8143 11.0884 53.0916 11.0884H53.6996C54.0729 11.1097 54.3289 11.1471 54.4676 11.2004C54.6169 11.2537 54.6916 11.3497 54.6916 11.4884L54.6756 11.6004C54.6329 11.8137 54.5902 12.0271 54.5475 12.2404C54.5048 12.4537 54.4674 12.6724 54.4354 12.8964C54.3927 13.1737 54.3554 13.4511 54.3233 13.7284C54.2913 13.9951 54.2593 14.2724 54.2272 14.5604L54.2272 14.6724C54.2272 14.7471 54.2272 14.8431 54.2272 14.9604C54.2379 15.0777 54.2432 15.1951 54.2432 15.3124C54.2538 15.4297 54.2591 15.5417 54.2591 15.6484C54.2698 15.7551 54.2804 15.8404 54.2911 15.9044C54.3444 16.2564 54.3924 16.6084 54.435 16.9604C54.4776 17.3124 54.5256 17.6644 54.5789 18.0164C54.6002 18.1231 54.6215 18.2244 54.6428 18.3204C54.6748 18.4164 54.7068 18.5124 54.7388 18.6084C54.7495 18.6404 54.7655 18.6777 54.7868 18.7204C54.8081 18.7524 54.8295 18.7844 54.8508 18.8164C54.9148 18.9017 55.0001 18.9764 55.1068 19.0404C55.2241 19.0937 55.3788 19.1311 55.5708 19.1524H55.7948L55.795 16.5284C55.7951 15.6964 55.7952 14.9657 55.7953 14.3364C55.7953 13.6964 55.79 13.2271 55.7794 12.9284L55.7795 12.4804C55.7795 12.3951 55.7795 12.3204 55.7795 12.2564C55.7795 12.1817 55.7848 12.1071 55.7955 12.0324C55.8596 11.4031 56.1903 11.0831 56.7876 11.0724L57.5876 11.0564C58.0676 11.0564 58.5476 11.0724 59.0276 11.1044H59.1556C59.4969 11.1257 59.6996 11.2057 59.7636 11.3444ZM66.3726 31.3124C66.1486 31.3124 65.9246 31.3017 65.7006 31.2804C65.4873 31.2697 65.2686 31.2431 65.0446 31.2004C64.7993 31.1471 64.6233 31.0564 64.5166 30.9284C64.4206 30.8111 64.362 30.6191 64.3407 30.3524C64.2448 29.1044 64.165 27.8617 64.1011 26.6244C64.0479 25.3977 64.0213 24.1551 64.0215 22.8964L64.0376 21.6644C64.0591 20.5657 64.0698 19.4724 64.07 18.3844C64.0807 17.2857 64.1129 16.1764 64.1663 15.0564C64.1877 14.6937 64.2091 14.3417 64.2304 14.0004C64.2625 13.6484 64.2998 13.3284 64.3425 13.0404L64.3425 12.9764C64.3425 12.8377 64.3106 12.7364 64.2466 12.6724C64.1932 12.6084 64.0919 12.5657 63.9426 12.5444C63.6652 12.5124 63.3932 12.4964 63.1266 12.4964C63.0306 12.4964 62.9292 12.4964 62.8226 12.4964C62.7266 12.4964 62.6306 12.5017 62.5346 12.5124C62.4386 12.5017 62.3426 12.4964 62.2466 12.4964C62.1506 12.4964 62.0599 12.4857 61.9746 12.4644C61.8146 12.4217 61.6866 12.3417 61.5906 12.2244C61.4946 12.1071 61.4466 11.9684 61.4467 11.8084L61.4467 11.7604C61.4467 11.4724 61.596 11.2537 61.8947 11.1044C62.0334 11.0511 62.1774 11.0244 62.3267 11.0244L62.5187 11.0404C63.6174 11.0511 64.7001 11.0617 65.7667 11.0724C66.8441 11.0724 67.9321 11.0724 69.0307 11.0724H70.1187C70.3107 11.0724 70.5241 11.0991 70.7587 11.1524C70.9401 11.2057 71.0787 11.2964 71.1747 11.4244C71.2814 11.5417 71.3347 11.6804 71.3347 11.8404L71.3186 11.9524C71.2973 12.1231 71.2226 12.2671 71.0946 12.3844C70.9666 12.4911 70.8012 12.5497 70.5986 12.5604H69.1906C69.0626 12.5604 68.9612 12.5657 68.8866 12.5764C68.8226 12.5764 68.7746 12.5924 68.7426 12.6244C68.7106 12.6564 68.6839 12.7097 68.6626 12.7844C68.6519 12.8484 68.6412 12.9444 68.6305 13.0724C68.5131 14.0431 68.4383 15.0191 68.4062 16.0004C68.3848 16.9711 68.374 17.9417 68.3739 18.9124L68.3736 21.5364C68.3629 21.9097 68.3522 22.2884 68.3415 22.6724C68.3415 23.0457 68.3414 23.4191 68.3414 23.7924C68.3413 24.2937 68.3466 24.7951 68.3572 25.2964C68.3678 25.7871 68.3945 26.2831 68.4371 26.7844C68.4797 27.3071 68.501 27.8244 68.5009 28.3364C68.5009 28.8591 68.5435 29.3817 68.6287 29.9044C68.6394 29.9364 68.6447 29.9684 68.6447 30.0004C68.6447 30.0431 68.6447 30.0804 68.6447 30.1124L68.6287 30.4164C68.5967 30.6404 68.522 30.8164 68.4046 30.9444C68.2979 31.0724 68.1326 31.1524 67.9086 31.1844C67.6526 31.2271 67.3966 31.2591 67.1406 31.2804C66.8846 31.3017 66.6286 31.3124 66.3726 31.3124ZM78.0886 29.7924C78.8566 29.6324 79.4967 29.4297 80.0087 29.1844C80.5207 28.9497 80.8567 28.6457 81.0168 28.2724C81.0915 28.1124 81.1395 27.9471 81.1608 27.7764C81.1929 27.6057 81.2089 27.4351 81.2089 27.2644L81.1929 26.8164C81.1397 26.4111 81.1024 26.0164 81.0811 25.6324C81.0704 25.2377 81.0438 24.8377 81.0012 24.4324C80.9373 23.7817 80.5693 23.1684 79.8974 22.5924C79.7267 22.4431 79.4974 22.3364 79.2094 22.2724C78.9321 22.2084 78.6334 22.1604 78.3134 22.1284C78.2708 22.1177 78.2174 22.1124 78.1534 22.1124C77.9721 22.1124 77.8708 22.1711 77.8494 22.2884L77.7854 22.7364C77.7533 22.9711 77.7213 23.2057 77.6893 23.4404C77.6573 23.6644 77.6413 23.8937 77.6412 24.1284C77.6412 24.2351 77.6465 24.3471 77.6572 24.4644C77.6678 24.5711 77.6838 24.6777 77.7052 24.7844C77.7051 25.0084 77.7211 25.2324 77.7531 25.4564C77.7637 25.9897 77.7743 26.5337 77.7849 27.0884C77.7955 27.6431 77.8328 28.1817 77.8967 28.7044C77.9181 28.8751 77.9394 29.0457 77.9607 29.2164C77.982 29.3977 78.0246 29.5897 78.0886 29.7924ZM76.1856 20.3844H76.3136L77.9296 20.4164C78.2816 20.4271 78.6176 20.4591 78.9376 20.5124C79.2576 20.5657 79.5723 20.6351 79.8816 20.7204C80.3722 20.8484 80.7616 21.0404 81.0495 21.2964C81.4548 21.6591 81.7641 22.0431 81.9774 22.4484C82.1907 22.8537 82.3453 23.2644 82.4413 23.6804C82.5266 24.0431 82.5692 24.4057 82.5692 24.7684C82.5798 25.1204 82.6224 25.4724 82.697 25.8244L82.6809 26.7524L82.6969 27.3124L82.7129 27.5524C82.7128 27.7977 82.6861 28.0377 82.6328 28.2724C82.5794 28.5177 82.5101 28.7631 82.4247 29.0084C82.318 29.2964 82.126 29.5577 81.8486 29.7924C81.5819 30.0271 81.2672 30.2511 80.9046 30.4644C80.3925 30.7631 79.8272 30.9817 79.2085 31.1204C78.5898 31.2591 77.9125 31.3284 77.1765 31.3284L76.8245 31.3124L74.9045 31.2484H74.4245C74.3498 31.2484 74.2698 31.2324 74.1845 31.2004C74.1098 31.1791 74.0298 31.1524 73.9445 31.1204C73.6565 31.0031 73.5072 30.7204 73.4966 30.2724C73.4327 28.6937 73.3796 27.1257 73.3371 25.5684C73.3158 25.1204 73.2998 24.6671 73.2892 24.2084L73.2732 24.0164C73.2626 23.8884 73.2573 23.7657 73.2573 23.6484C73.2573 23.4884 73.2626 23.3337 73.2733 23.1844C73.2627 22.4164 73.2575 21.6484 73.2576 20.8804C73.2576 20.2937 73.2577 19.7017 73.2578 19.1044C73.2685 18.5071 73.2899 17.8831 73.322 17.2324C73.3434 16.4004 73.3541 15.5791 73.3542 14.7684C73.3543 13.9577 73.3597 13.1364 73.3705 12.3044C73.3812 11.9097 73.4239 11.6164 73.4986 11.4244C73.5092 11.4031 73.5146 11.3817 73.5146 11.3604C73.5786 11.1471 73.7173 11.0297 73.9306 11.0084C74.6986 10.9657 75.456 10.9284 76.2026 10.8964C76.96 10.8537 77.7226 10.8324 78.4906 10.8324C78.7786 10.8324 79.0666 10.8377 79.3546 10.8484C79.6426 10.8484 79.9466 10.8591 80.2666 10.8804C80.6613 10.9017 81.056 10.9124 81.4506 10.9124C81.8453 10.9017 82.2453 10.9017 82.6506 10.9124C82.8853 10.9231 83.0453 10.9764 83.1306 11.0724C83.2159 11.1577 83.2586 11.3231 83.2586 11.5684L83.2264 12.6884C83.2051 12.8697 83.1624 12.9977 83.0984 13.0724C83.0344 13.1471 82.9171 13.1844 82.7464 13.1844H82.5384C82.3251 13.1844 82.1117 13.1897 81.8984 13.2004C81.685 13.2004 81.4717 13.2004 81.2584 13.2004C81.205 13.2004 81.1144 13.2004 80.9864 13.2004C80.8584 13.1897 80.7037 13.1844 80.5224 13.1844C80.3517 13.1737 80.1704 13.1631 79.9784 13.1524C79.7971 13.1417 79.6157 13.1311 79.4344 13.1204C79.2531 13.1097 79.0824 13.1044 78.9224 13.1044C78.7731 13.0937 78.6557 13.0884 78.5704 13.0884C78.3571 13.0884 78.1491 13.0937 77.9464 13.1044C77.7437 13.1044 77.5357 13.1151 77.3224 13.1364C77.2797 13.1471 77.1997 13.1524 77.0824 13.1524C76.9651 13.1524 76.8424 13.1524 76.7144 13.1524H76.2984C76.2984 13.3871 76.3037 13.6217 76.3143 13.8564C76.3249 14.2937 76.3302 14.7311 76.3302 15.1684C76.3302 15.2857 76.3248 15.4777 76.3141 15.7444C76.3034 16.0111 76.2927 16.3204 76.282 16.6724C76.282 17.0244 76.2713 17.3977 76.2499 17.7924C76.2392 18.1871 76.2285 18.5711 76.2178 18.9444C76.2177 19.3177 76.2124 19.6591 76.2017 19.9684C76.2017 20.1177 76.1963 20.2564 76.1856 20.3844ZM90.7436 29.6804C90.9783 29.6804 91.1863 29.5204 91.3677 29.2004C91.4424 29.0617 91.5011 28.9231 91.5437 28.7844C91.5971 28.6564 91.6504 28.5177 91.7038 28.3684C92.0879 27.1737 92.3707 25.9684 92.5522 24.7524C92.7443 23.5364 92.8618 22.2937 92.9046 21.0244L92.9046 20.9124C92.9047 19.5791 92.7822 18.2991 92.537 17.0724C92.3024 15.8351 91.9826 14.6031 91.5774 13.3764C91.556 13.3231 91.5347 13.2751 91.5134 13.2324C91.4921 13.1897 91.4707 13.1417 91.4494 13.0884C91.2681 12.8004 91.0281 12.6564 90.7294 12.6564C90.6121 12.6564 90.4894 12.6884 90.3614 12.7524C90.2441 12.8057 90.1427 12.8911 90.0574 13.0084C89.876 13.2537 89.7373 13.5097 89.6413 13.7764C89.5453 14.0431 89.4599 14.3151 89.3852 14.5924C89.1611 15.4991 89.0064 16.4111 88.9209 17.3284C88.8355 18.2351 88.7661 19.1577 88.7127 20.0964C88.6913 20.3097 88.6806 20.5231 88.6806 20.7364C88.6806 20.9497 88.6805 21.1631 88.6805 21.3764C88.6804 22.6031 88.7656 23.7817 88.9361 24.9124C89.1067 26.0431 89.3519 27.1684 89.6718 28.2884C89.7251 28.4697 89.7837 28.6404 89.8477 28.8004C89.9117 28.9711 90.0024 29.1311 90.1197 29.2804C90.3223 29.5471 90.5303 29.6804 90.7436 29.6804ZM87.9115 31.2324C87.6661 31.2324 87.4475 31.1737 87.2555 31.0564C87.0742 30.9497 86.8982 30.8164 86.7275 30.6564C86.4502 30.3897 86.2316 30.0964 86.0716 29.7764C85.9223 29.4564 85.7944 29.1204 85.6877 28.7684C85.3359 27.5524 85.0693 26.3364 84.8881 25.1204C84.7176 23.8937 84.6324 22.6244 84.6325 21.3124C84.6326 20.8004 84.6486 20.2777 84.6807 19.7444C84.7341 18.7951 84.8142 17.8617 84.921 16.9444C85.0278 16.0164 85.1932 15.0937 85.4173 14.1764C85.6627 13.2271 86.0895 12.4004 86.6975 11.6964C86.8256 11.5364 86.9642 11.4084 87.1136 11.3124C87.2629 11.2164 87.4443 11.1577 87.6576 11.1364C87.9456 11.1151 88.2336 11.0937 88.5216 11.0724C88.8096 11.0511 89.1029 11.0404 89.4016 11.0404C89.7429 11.0404 90.0789 11.0617 90.4096 11.1044C90.7403 11.1364 91.0709 11.2004 91.4016 11.2964C91.8176 11.4137 92.1536 11.6111 92.4095 11.8884C92.6655 12.1657 92.8575 12.5071 92.9854 12.9124C93.284 13.8511 93.5452 14.7951 93.7691 15.7444C94.0037 16.6831 94.1689 17.6484 94.2648 18.6404C94.2968 18.9604 94.3234 19.2804 94.3447 19.6004C94.3767 19.9097 94.3926 20.2191 94.3926 20.5284L94.3926 20.8804C94.3391 22.2777 94.2109 23.6377 94.0081 24.9604C93.816 26.2724 93.5119 27.5684 93.0957 28.8484C93.0424 29.0297 92.9837 29.2004 92.9197 29.3604C92.8557 29.5311 92.781 29.6964 92.6956 29.8564C92.3435 30.6031 91.7462 31.0351 90.9035 31.1524C90.6368 31.1951 90.3701 31.2217 90.1035 31.2324C89.8475 31.2431 89.5861 31.2484 89.3195 31.2484L87.9115 31.2324ZM101.825 11.0084C102.113 11.0084 102.401 11.0244 102.689 11.0564C102.977 11.0777 103.26 11.1097 103.537 11.1524C104.07 11.2164 104.492 11.4191 104.801 11.7604C105.121 12.1017 105.356 12.5177 105.505 13.0084C105.633 13.4137 105.718 13.8244 105.761 14.2404C105.814 14.6457 105.851 15.0564 105.873 15.4724L106.144 20.0964C106.165 20.2991 106.176 20.6137 106.176 21.0404C106.176 21.4564 106.176 21.8724 106.176 22.2884C106.176 22.6297 106.176 22.9337 106.176 23.2004C106.176 23.4564 106.17 23.6217 106.16 23.6964C106.117 24.9657 106.058 26.1231 105.983 27.1684C105.919 28.2137 105.839 29.2377 105.743 30.2404C105.7 30.5817 105.604 30.8217 105.455 30.9604C105.306 31.0991 105.055 31.1791 104.703 31.2004C104.426 31.2217 104.143 31.2377 103.855 31.2484C103.578 31.2697 103.3 31.2804 103.023 31.2804C102.916 31.2804 102.815 31.2804 102.719 31.2804C102.623 31.2804 102.522 31.2751 102.415 31.2644C102.042 31.2324 101.78 31.1524 101.631 31.0244C101.492 30.9071 101.423 30.6884 101.423 30.3684L101.439 30.1124C101.482 29.6111 101.525 29.1151 101.567 28.6244C101.61 28.1337 101.647 27.6324 101.679 27.1204C101.722 26.4804 101.76 25.8457 101.792 25.2164C101.824 24.5764 101.856 23.9364 101.888 23.2964L101.888 23.0084C101.888 22.8377 101.883 22.6244 101.872 22.3684C101.872 22.1017 101.867 21.8351 101.856 21.5684C101.856 21.2911 101.851 21.0297 101.84 20.7844C101.84 20.5284 101.835 20.3257 101.824 20.1764C101.771 19.3657 101.723 18.5604 101.68 17.7604C101.638 16.9497 101.59 16.1284 101.537 15.2964C101.515 15.0724 101.489 14.8484 101.457 14.6244C101.435 14.4004 101.409 14.1764 101.377 13.9524C101.366 13.8671 101.35 13.7871 101.329 13.7124C101.308 13.6271 101.286 13.5417 101.265 13.4564C101.201 13.2751 101.11 13.1151 100.993 12.9764C100.886 12.8271 100.737 12.7364 100.545 12.7044L100.433 12.6884C100.262 12.6884 100.118 12.7471 100.001 12.8644C99.8942 12.9817 99.7929 13.1151 99.6969 13.2644C99.4408 13.6697 99.2435 14.0964 99.1047 14.5444C98.966 14.9924 98.838 15.4457 98.7206 15.9044C98.5072 16.8217 98.3577 17.7337 98.2723 18.6404C98.1869 19.5471 98.1334 20.4644 98.112 21.3924C98.112 21.5311 98.112 21.6697 98.112 21.8084C98.112 21.9364 98.1013 22.0697 98.0799 22.2084C98.0052 22.8271 97.9518 23.4511 97.9197 24.0804C97.8877 24.7097 97.8663 25.3444 97.8555 25.9844C97.8448 26.6137 97.8394 27.2537 97.8393 27.9044C97.8393 28.5551 97.8339 29.2164 97.8231 29.8884C97.8231 30.0057 97.8178 30.1177 97.8071 30.2244C97.8071 30.3417 97.7964 30.4591 97.775 30.5764C97.7217 30.7897 97.631 30.9497 97.503 31.0564C97.3856 31.1737 97.2363 31.2324 97.055 31.2324H96.959C96.5323 31.1791 96.319 30.9071 96.3191 30.4164C96.3298 29.7657 96.3405 29.1524 96.3513 28.5764C96.362 28.0111 96.3674 27.4511 96.3674 26.8964C96.3782 26.0857 96.3996 25.2804 96.4317 24.4804C96.4638 23.6697 96.5225 22.8591 96.6079 22.0484C96.6613 21.4937 96.6881 20.9444 96.6881 20.4004C96.6988 19.8457 96.7309 19.2857 96.7843 18.7204C96.8697 17.9204 96.9818 17.1257 97.1205 16.3364C97.27 15.5471 97.4727 14.7684 97.7288 14.0004C97.8248 13.7017 97.9422 13.4191 98.0809 13.1524C98.2196 12.8751 98.3689 12.6031 98.529 12.3364C98.721 12.0057 98.961 11.7551 99.2491 11.5844C99.5477 11.4031 99.8731 11.2697 100.225 11.1844C100.492 11.1204 100.753 11.0777 101.009 11.0564C101.276 11.0244 101.548 11.0084 101.825 11.0084ZM109.236 31.2324C108.831 31.2324 108.58 31.0191 108.484 30.5924C108.452 30.4857 108.436 30.3791 108.436 30.2724L108.101 23.3764C108.101 22.7471 108.107 22.1391 108.117 21.5524C108.117 21.3071 108.117 21.0564 108.117 20.8004C108.128 20.5444 108.133 20.2991 108.133 20.0644C108.144 19.8191 108.149 19.5951 108.149 19.3924C108.149 19.1897 108.15 19.0137 108.15 18.8644L108.15 18.4484C108.128 17.3497 108.118 16.2564 108.118 15.1684C108.118 14.0804 108.118 13.0191 108.118 11.9844C108.118 11.6964 108.172 11.4831 108.278 11.3444C108.396 11.1951 108.593 11.1044 108.87 11.0724C109.105 11.0511 109.334 11.0351 109.558 11.0244C109.782 11.0137 110.012 11.0084 110.246 11.0084C110.492 11.0084 110.742 11.0137 110.998 11.0244C111.254 11.0351 111.505 11.0511 111.75 11.0724C112.028 11.0937 112.23 11.1791 112.358 11.3284C112.486 11.4671 112.566 11.6751 112.598 11.9524C112.609 12.0377 112.614 12.1337 112.614 12.2404C112.614 12.3364 112.614 12.4271 112.614 12.5124C112.614 13.7604 112.614 15.0297 112.614 16.3204C112.614 17.6004 112.619 18.8911 112.629 20.1924L112.629 20.5924C112.725 20.5071 112.784 20.4271 112.805 20.3524C112.837 20.2777 112.864 20.2031 112.885 20.1284C113.323 18.8377 113.792 17.4991 114.294 16.1124C114.795 14.7151 115.329 13.3124 115.894 11.9044C115.937 11.8191 115.974 11.7337 116.006 11.6484C116.038 11.5524 116.081 11.4617 116.134 11.3764C116.284 11.1631 116.492 11.0564 116.758 11.0564C116.79 11.0564 116.822 11.0564 116.854 11.0564C116.897 11.0564 116.94 11.0671 116.982 11.0884C117.292 11.2057 117.446 11.4404 117.446 11.7924C117.446 11.9097 117.43 12.0164 117.398 12.1124C117.366 12.2084 117.329 12.3097 117.286 12.4164C116.689 13.9097 116.123 15.3924 115.59 16.8644C115.067 18.3257 114.576 19.7444 114.117 21.1204C114 21.4617 113.877 21.7977 113.749 22.1284C113.632 22.4484 113.504 22.7684 113.365 23.0884C113.312 23.2271 113.285 23.3391 113.285 23.4244C113.285 23.5311 113.328 23.6591 113.413 23.8084C114.01 24.8751 114.575 25.8457 115.109 26.7204C115.653 27.6057 116.229 28.4377 116.836 29.2164C116.975 29.3977 117.146 29.5577 117.348 29.6964C117.402 29.7284 117.45 29.7604 117.492 29.7924C117.546 29.8351 117.599 29.8777 117.652 29.9204C117.834 30.0804 117.924 30.2724 117.924 30.4964C117.924 30.6457 117.882 30.7791 117.796 30.8964C117.658 31.1097 117.46 31.2164 117.204 31.2164C117.119 31.2164 117.012 31.1897 116.884 31.1364C116.628 31.0191 116.399 30.8697 116.196 30.6884C115.994 30.5071 115.802 30.3044 115.62 30.0804C115.215 29.5364 114.815 28.9711 114.421 28.3844C114.026 27.7977 113.626 27.1044 113.221 26.3044C113.167 26.1977 113.103 26.0964 113.029 26.0004C112.954 25.8937 112.863 25.7657 112.757 25.6164C112.746 25.7657 112.741 25.9044 112.741 26.0324C112.741 26.1604 112.741 26.2884 112.741 26.4164C112.741 26.6937 112.746 26.9551 112.757 27.2004C112.778 27.4564 112.799 27.7071 112.821 27.9524C112.853 28.3151 112.879 28.6777 112.9 29.0404C112.922 29.4031 112.932 29.7657 112.932 30.1284L112.932 30.3844C112.911 30.6724 112.836 30.8804 112.708 31.0084C112.591 31.1471 112.394 31.2217 112.116 31.2324C111.914 31.2431 111.711 31.2484 111.508 31.2484C111.306 31.2484 111.103 31.2484 110.9 31.2484L109.236 31.2324ZM126.058 31.2484C125.813 31.2377 125.626 31.1684 125.498 31.0404C125.37 30.9231 125.306 30.7577 125.306 30.5444L125.338 30.3044C125.381 30.1231 125.402 29.9417 125.402 29.7604C125.413 29.5791 125.429 29.3977 125.45 29.2164C125.472 28.9924 125.488 28.6724 125.499 28.2564C125.52 27.8404 125.536 27.3817 125.547 26.8804C125.568 26.3897 125.579 25.8831 125.579 25.3604C125.59 24.8271 125.595 24.3364 125.595 23.8884C125.606 23.4297 125.611 23.0351 125.611 22.7044C125.622 22.3737 125.627 22.1604 125.627 22.0644C125.627 21.5737 125.622 21.0564 125.611 20.5124C125.601 19.9577 125.595 19.3924 125.596 18.8164L125.596 18.4004C125.596 18.3364 125.574 18.2991 125.532 18.2884C125.478 18.3311 125.441 18.3844 125.42 18.4484C125.409 18.5017 125.393 18.5604 125.372 18.6244C125.158 19.4031 124.945 20.1817 124.731 20.9604C124.518 21.7391 124.294 22.5177 124.059 23.2964C123.75 24.3311 123.462 25.3604 123.195 26.3844C122.928 27.4084 122.597 28.3791 122.202 29.2964C122.096 29.5417 121.994 29.7817 121.898 30.0164C121.802 30.2511 121.696 30.4804 121.578 30.7044C121.408 31.0564 121.157 31.2324 120.826 31.2324L120.586 31.2004C120.128 31.1044 119.882 30.7951 119.85 30.2724C119.85 30.2084 119.85 30.1444 119.85 30.0804C119.861 30.0164 119.872 29.9524 119.882 29.8884C119.946 28.6937 120.021 27.4777 120.107 26.2404C120.203 24.9924 120.299 23.7337 120.395 22.4644C120.481 21.3337 120.539 20.2137 120.572 19.1044C120.604 17.9844 120.62 16.8591 120.62 15.7284C120.62 15.2911 120.62 14.8591 120.62 14.4324C120.62 14.0057 120.615 13.5951 120.604 13.2004L120.588 11.7924C120.599 11.5791 120.663 11.4137 120.78 11.2964C120.908 11.1684 121.068 11.0937 121.26 11.0724H121.292C121.474 11.0724 121.628 11.1257 121.756 11.2324C121.884 11.3391 121.97 11.4937 122.012 11.6964C122.034 11.8031 122.044 11.9097 122.044 12.0164C122.044 12.1231 122.05 12.2297 122.06 12.3364C122.082 12.6137 122.092 12.9124 122.092 13.2324C122.103 13.5417 122.108 13.8564 122.108 14.1764L122.092 17.0564C122.092 18.2831 122.054 19.4991 121.979 20.7044C121.905 21.9097 121.824 23.1204 121.739 24.3364C121.718 24.4857 121.702 24.6404 121.691 24.8004C121.68 24.9497 121.675 25.1044 121.675 25.2644C121.675 25.3604 121.68 25.4617 121.691 25.5684C121.701 25.6644 121.717 25.7657 121.739 25.8724C121.771 25.7871 121.803 25.7071 121.835 25.6324C121.867 25.5577 121.893 25.4777 121.915 25.3924C122.096 24.7737 122.272 24.1604 122.443 23.5524C122.624 22.9444 122.8 22.3311 122.971 21.7124C123.43 20.0591 123.884 18.4217 124.332 16.8004C124.791 15.1684 125.143 13.5204 125.388 11.8564C125.42 11.6111 125.495 11.4297 125.612 11.3124C125.74 11.1951 125.938 11.1257 126.204 11.1044C126.514 11.0831 126.818 11.0671 127.116 11.0564C127.415 11.0457 127.719 11.0404 128.028 11.0404C128.476 11.0404 128.914 11.0564 129.34 11.0884C129.596 11.1097 129.794 11.1951 129.932 11.3444C130.082 11.4937 130.156 11.6911 130.156 11.9364L130.156 12.3044C130.156 12.5711 130.162 12.8377 130.172 13.1044C130.183 13.3604 130.188 13.6217 130.188 13.8884L130.188 14.2084C130.167 14.6884 130.156 15.1844 130.156 15.6964C130.156 16.2084 130.156 16.7257 130.156 17.2484C130.156 17.8244 130.156 18.3951 130.156 18.9604C130.166 19.5151 130.182 20.0804 130.203 20.6564L130.219 21.4084L130.219 21.6644C130.219 21.8457 130.214 22.0964 130.203 22.4164C130.203 22.7257 130.198 23.0724 130.187 23.4564C130.176 23.8404 130.166 24.2511 130.155 24.6884C130.144 25.1151 130.133 25.5364 130.123 25.9524C130.123 26.3577 130.117 26.7417 130.107 27.1044C130.096 27.4777 130.091 27.7924 130.091 28.0484C130.091 28.3791 130.074 28.7044 130.042 29.0244C130.01 29.3551 129.984 29.6857 129.962 30.0164C129.962 30.2084 129.93 30.4004 129.866 30.5924C129.749 30.9977 129.482 31.2004 129.066 31.2004C128.565 31.2111 128.064 31.2217 127.562 31.2324C127.072 31.2431 126.57 31.2484 126.058 31.2484Z" fill="white"/>
</svg>
