<svg width="122" height="34" viewBox="0 0 122 34" fill="none" xmlns="http://www.w3.org/2000/svg">
<path d="M7.42402 24.0742L2.60643 20.8139L0.0186236 7.77286C2.36757 5.91632 10.5503 2.09456 24.4898 1.65986C41.9141 1.11648 42.6753 -0.106119 62.6943 0.0297252C82.7132 0.16557 73.2308 0.0332486 80.2746 0.0332486C87.3183 0.0332486 97.8642 -0.374174 107.131 1.66338C114.545 3.29343 116.34 6.4179 118.81 7.77639C118.069 8.04805 117.03 8.89023 118.809 10.0857C120.588 11.2811 121.526 13.1195 121.773 13.8893C120.784 14.3421 118.806 15.3564 118.806 15.7911C118.806 16.3345 112.132 16.4704 115.469 17.1496C118.138 17.693 118.804 19.2778 118.804 20.0023C116.208 20.6815 114.831 22.0671 110.086 22.1758C105.34 22.2845 101.188 22.7645 99.7048 22.9909L99.7042 24.0777C101.928 24.2588 105.932 24.6754 104.152 24.8927C101.928 25.1644 99.704 24.4852 97.8502 24.8927C95.9963 25.3002 93.4008 26.1153 95.625 26.387C96.3081 26.6374 96.9767 26.7622 97.5762 26.8108C98.3117 26.7457 99.1074 26.6923 99.7028 26.6587C99.3221 26.7703 98.5381 26.8887 97.5762 26.8108C96.327 26.9213 95.2513 27.0653 95.6245 27.2021C96.2176 27.4194 98.59 27.7454 99.7021 27.8813L101.555 28.6964L95.6237 28.6964C92.3613 28.6964 93.0282 29.5114 93.7694 29.919C92.9043 30.0095 90.6552 30.1363 88.5793 29.919C85.9844 29.6473 87.0963 30.0548 82.6475 30.1906C81.7364 30.2185 81.3862 30.235 81.2679 30.2435C81.3352 30.252 81.1198 30.2541 81.2679 30.2435C81.1791 30.2322 80.5972 30.2098 78.0334 30.1906C78.5278 30.0095 78.8493 29.6473 76.1801 29.6473H76.18C72.8436 29.6473 72.4728 29.6473 68.3948 29.919C68.3161 29.9242 68.2434 29.9292 68.1764 29.9341C72.7466 29.9898 65.3434 30.1389 68.1764 29.9341C67.2565 29.9229 65.8515 29.9154 63.7803 29.9154L45.6148 29.9154C39.8066 30.3683 36.0399 31.2467 27.4392 31.138C16.6882 31.0022 7.42092 29.6437 7.421 29.5079C7.42106 29.3992 5.44428 28.6476 4.45589 28.2853C5.44436 28.5117 7.42137 28.8287 7.42168 28.2853C7.42198 27.7419 5.44567 26.1571 4.45748 25.4326L7.42402 24.0742Z" fill="#FDA3C4"/>
<path d="M14.4635 31.8173C13.2771 31.8173 13.2274 32.3606 13.3508 32.6323L10.9411 32.7682C9.76685 33.221 7.64087 34.0994 8.53067 33.9908C9.42047 33.8821 11.126 33.5832 11.8675 33.4474C12.3619 33.2663 15.7233 32.904 25.2138 32.904C37.077 32.904 35.965 32.6323 37.0771 32.6323C38.1893 32.6323 15.9464 31.8173 14.4635 31.8173Z" fill="#FDA3C4"/>
<path d="M24.0075 13.1245C23.9758 13.0204 23.9481 12.9164 23.9244 12.8123C23.8136 12.4039 23.7589 11.9798 23.7602 11.5398C23.7607 11.3638 23.7692 11.1878 23.7857 11.0118C23.8187 10.6919 23.8676 10.3761 23.9325 10.0643C23.9649 9.94439 23.9972 9.82449 24.0296 9.70459C23.9818 9.63244 23.93 9.56028 23.8742 9.4881C23.8583 9.47205 23.8463 9.46002 23.8383 9.45199C23.8224 9.44394 23.8064 9.43189 23.7904 9.41584C23.6866 9.34351 23.5428 9.30706 23.3588 9.30648C23.2868 9.30626 23.2147 9.31403 23.1427 9.3298C23.0706 9.34558 23.0106 9.36539 22.9625 9.38924C22.8503 9.45288 22.7661 9.52062 22.7099 9.59244C22.6537 9.65627 22.6015 9.7201 22.5533 9.78395C22.4167 10.0075 22.324 10.2352 22.2753 10.4671C22.2187 10.6909 22.174 10.9188 22.1413 11.1507C22.1331 11.2066 22.129 11.2626 22.1288 11.3186C22.1287 11.3666 22.1285 11.4186 22.1284 11.4746C22.1275 11.7786 22.1786 12.0708 22.2818 12.3511C22.3769 12.6314 22.5201 12.9119 22.7113 13.1925C22.7431 13.2406 22.779 13.2847 22.8189 13.3248C22.8588 13.3649 22.9147 13.4051 22.9865 13.4453C23.1063 13.5097 23.2303 13.5421 23.3582 13.5425C23.5022 13.543 23.6264 13.5033 23.7306 13.4237C23.7787 13.3918 23.8188 13.3599 23.8509 13.328C23.875 13.2961 23.9031 13.2602 23.9352 13.2203C23.9593 13.1884 23.9834 13.1565 24.0075 13.1245ZM26.79 9.58127C26.8059 9.61332 26.8218 9.64537 26.8377 9.67742C26.9727 9.99785 27.0678 10.3221 27.1228 10.6503C27.1465 10.7544 27.1662 10.8625 27.1818 10.9745C27.1975 11.0786 27.2052 11.1826 27.2049 11.2866L27.2046 11.4066C27.1712 11.8705 27.0939 12.3222 26.9726 12.7619C26.9321 12.9217 26.8796 13.0816 26.8152 13.2414L26.8869 13.3376C26.9268 13.3777 26.9826 13.4179 27.0545 13.4581C27.1743 13.5225 27.2982 13.5549 27.4262 13.5553C27.5702 13.5557 27.6943 13.5161 27.7986 13.4365C27.8467 13.4046 27.8828 13.3727 27.9069 13.3408C27.939 13.3089 27.9711 13.273 28.0032 13.2331C28.2361 12.9378 28.4089 12.6384 28.5218 12.3347C28.6347 12.0311 28.7036 11.7233 28.7286 11.4114L28.7287 11.3754C28.7296 11.0474 28.6586 10.7312 28.5155 10.4267C28.3724 10.1142 28.1813 9.80565 27.9422 9.50089C27.9263 9.48484 27.9103 9.47279 27.8943 9.46474C27.8863 9.45672 27.8744 9.44468 27.8584 9.42863C27.7546 9.3563 27.6107 9.31985 27.4267 9.31927C27.3547 9.31905 27.2827 9.32682 27.2107 9.34259C27.1386 9.35837 27.0746 9.37817 27.0185 9.40199C26.9223 9.45769 26.8461 9.51745 26.79 9.58127ZM26.1024 14.8591L26.0995 15.8431C26.0974 16.5311 26.0954 17.2151 26.0934 17.8951C26.0914 18.5751 26.0934 19.2591 26.0994 19.9472C26.1062 20.3312 26.1131 20.7032 26.1201 21.0632C26.127 21.4312 26.1299 21.8033 26.1288 22.1793C26.1282 22.3633 26.1238 22.5112 26.1154 22.6232C26.1151 22.7432 26.1028 22.8392 26.0786 22.9111C26.0624 22.9831 26.0302 23.0389 25.9821 23.0788C25.942 23.1267 25.8898 23.1665 25.8258 23.1983C25.7457 23.2301 25.6656 23.2498 25.5856 23.2576C25.5136 23.2653 25.4455 23.2691 25.3815 23.2689L25.0336 23.2558C24.9296 23.2395 24.8578 23.1833 24.8181 23.0871C24.7784 22.991 24.7548 22.8269 24.7475 22.5949C24.7249 22.1468 24.7142 21.6868 24.7156 21.2148C24.7099 20.4308 24.7002 19.6508 24.6865 18.8747C24.6808 18.0987 24.6791 17.3187 24.6814 16.5347L24.6864 14.8547L24.6264 14.8545C24.4664 14.862 24.3063 14.8655 24.1463 14.865L23.2944 14.8503C23.1504 14.8499 23.0224 14.8335 22.9105 14.8011C22.7987 14.7607 22.6908 14.7124 22.587 14.6561C22.4192 14.5676 22.2915 14.4712 22.2038 14.3669C22.1081 14.2546 22.0285 14.1423 21.9648 14.0301C21.75 13.6214 21.5912 13.2129 21.4884 12.8046C21.3856 12.3963 21.3349 11.9721 21.3362 11.5321C21.3367 11.3561 21.3452 11.1802 21.3617 11.0042C21.3947 10.6843 21.4436 10.3725 21.5085 10.0687C21.5734 9.75687 21.6743 9.44519 21.8113 9.13362C21.9642 8.8221 22.221 8.5469 22.5817 8.30803C22.6618 8.26029 22.746 8.22055 22.8341 8.18883C22.9221 8.1571 23.0302 8.13744 23.1582 8.12985C23.3343 8.1224 23.5103 8.11495 23.6863 8.10751C23.8543 8.10003 24.0303 8.09659 24.2143 8.09717C24.4143 8.0978 24.6143 8.10242 24.8143 8.11105C24.9582 8.12751 25.0982 8.14395 25.2341 8.16037C25.2662 8.15247 25.2982 8.14457 25.3302 8.13667C25.4183 8.12095 25.5103 8.11324 25.6063 8.11354C25.6783 8.12177 25.7383 8.12596 25.7863 8.12611C25.8983 8.12646 26.0063 8.1228 26.1103 8.11513C26.2783 8.10766 26.4543 8.10421 26.6383 8.10479C26.8383 8.10542 27.0383 8.11405 27.2382 8.13067C27.4382 8.1393 27.6382 8.15993 27.8381 8.19256C28.0859 8.23334 28.2857 8.30197 28.4375 8.39845C28.5892 8.48692 28.7049 8.59929 28.7845 8.73554C28.9675 9.05612 29.1266 9.37662 29.2616 9.69704C29.3967 10.0095 29.4918 10.3298 29.5468 10.6579C29.5705 10.762 29.5902 10.8701 29.6058 10.9821C29.6215 11.0862 29.6292 11.1902 29.6289 11.2942L29.6286 11.4142C29.5952 11.8781 29.5179 12.3299 29.3966 12.7695C29.2753 13.2091 29.09 13.6445 28.8407 14.0757C28.8085 14.1316 28.7724 14.1875 28.7322 14.2434C28.692 14.2993 28.6479 14.3551 28.5997 14.411C28.383 14.6583 28.0226 14.8012 27.5184 14.8396C27.3584 14.8551 27.1984 14.8666 27.0383 14.8741C26.8863 14.8736 26.7303 14.8731 26.5703 14.8726L26.1024 14.8591ZM36.8298 8.32883C36.8618 8.34493 36.8857 8.36501 36.9016 8.38906C37.0133 8.51741 37.0687 8.72159 37.0678 9.00158L37.0544 9.50554C37.0535 9.78554 37.0567 10.0616 37.0639 10.3336C37.0791 10.6056 37.0943 10.8817 37.1095 11.1617C37.1093 11.2177 37.113 11.3137 37.1206 11.4498C37.1203 11.5618 37.1198 11.7218 37.1192 11.9298C37.1266 12.1298 37.1298 12.3898 37.1289 12.7098C37.1279 13.0298 37.1228 13.4218 37.1134 13.8858C37.1121 14.3417 37.1065 14.8817 37.0966 15.5057C37.0868 16.1297 37.0727 16.8496 37.0543 17.6656C37.0439 18.4736 37.0292 19.3895 37.0101 20.4135C37.0014 20.6774 36.9806 20.9374 36.9478 21.1933C36.9151 21.4572 36.8663 21.717 36.8015 21.9728C36.7611 22.1247 36.7007 22.2565 36.6204 22.3682C36.548 22.48 36.4557 22.5837 36.3435 22.6794C36.1189 22.8627 35.8825 23.0059 35.6342 23.1091C35.3859 23.2204 35.1177 23.2755 34.8297 23.2746L34.7097 23.2742C34.4697 23.2655 34.2297 23.2567 33.9898 23.248C33.7578 23.2472 33.5218 23.2385 33.2818 23.2218C33.0419 23.205 32.802 23.1762 32.5621 23.1355C32.3302 23.0948 32.0984 23.03 31.8667 22.9413C31.3632 22.7477 30.948 22.4824 30.621 22.1454C30.302 21.8164 30.0993 21.3757 30.0129 20.8235C29.9736 20.5913 29.9423 20.3632 29.9189 20.1392C29.9036 19.9151 29.8962 19.6911 29.8969 19.4671C29.8973 19.3311 29.9017 19.1991 29.9101 19.0711C29.9185 18.9432 29.9348 18.8112 29.9592 18.6753C29.9918 18.4914 30.0123 18.3114 30.0208 18.1355C30.0374 17.9515 30.0539 17.7676 30.0705 17.5836C30.0786 17.5357 30.0828 17.4877 30.0829 17.4397C30.0831 17.3837 30.0912 17.3357 30.1073 17.2957C30.1478 17.1439 30.2161 17.0241 30.3124 16.9364C30.4086 16.8487 30.5248 16.805 30.6608 16.8055L30.7208 16.8057C30.8567 16.8221 30.9685 16.8824 31.0562 16.9867C31.152 17.083 31.1996 17.2112 31.1991 17.3712L31.199 17.4192C31.1824 17.6191 31.1658 17.8191 31.1492 18.019C31.1326 18.211 31.108 18.4069 31.0755 18.6068C31.059 18.7587 31.0426 18.9107 31.0261 19.0626C31.0177 19.2066 31.0132 19.3546 31.0128 19.5066C31.0122 19.7066 31.0196 19.9066 31.035 20.1067C31.0584 20.3067 31.0898 20.5068 31.1293 20.707C31.2239 21.1713 31.4669 21.508 31.8583 21.7173C31.9781 21.7816 32.0979 21.834 32.2178 21.8744C32.3457 21.9228 32.4776 21.9632 32.6135 21.9956C32.7094 22.0199 32.8013 22.0322 32.8893 22.0325C33.1053 22.0332 33.2815 21.9657 33.4179 21.8302C33.5623 21.7026 33.6549 21.5229 33.6955 21.291C33.72 21.1471 33.7404 21.0032 33.7568 20.8592C33.7732 20.7153 33.7857 20.5713 33.7941 20.4273C33.7969 19.4834 33.8037 18.5274 33.8146 17.5594C33.8158 17.1514 33.817 16.7194 33.8184 16.2634C33.8197 15.8074 33.8251 15.3474 33.8345 14.8834L33.8351 14.6794C33.659 14.6949 33.487 14.7064 33.319 14.7138C33.1189 14.7212 32.9149 14.7246 32.7069 14.7239C32.4909 14.7232 32.2749 14.7185 32.059 14.7099C31.843 14.7012 31.631 14.6885 31.4231 14.6719C31.0231 14.6466 30.7034 14.5776 30.4637 14.4648C30.232 14.3521 30.0604 14.2196 29.9489 14.0672C29.8533 13.9309 29.7856 13.7987 29.746 13.6706C29.7144 13.5345 29.6908 13.3984 29.6752 13.2624L29.4757 11.7497C29.4599 11.6857 29.4522 11.5857 29.4526 11.4497C29.453 11.3137 29.4534 11.1777 29.4538 11.0417C29.4541 10.9297 29.4544 10.8337 29.4546 10.7537C29.4549 10.6657 29.4591 10.6097 29.4671 10.5857C29.5004 10.1698 29.5415 9.79392 29.5905 9.45808C29.6475 9.11425 29.7125 8.77846 29.7854 8.45068C29.8178 8.33879 29.89 8.26301 30.0021 8.22336C30.1142 8.17572 30.3023 8.14831 30.5664 8.14114C30.7744 8.13379 30.9824 8.13045 31.1904 8.1311C31.4064 8.12378 31.6184 8.12045 31.8264 8.1211L32.2824 8.12253C32.5624 8.13941 32.7543 8.16802 32.8582 8.20834C32.97 8.2487 33.0258 8.32087 33.0255 8.42487L33.0133 8.50883C32.9808 8.66873 32.9483 8.82863 32.9159 8.98853C32.8834 9.14843 32.8549 9.31234 32.8304 9.48026C32.7978 9.68816 32.7692 9.89607 32.7446 10.104C32.72 10.3039 32.6954 10.5118 32.6707 10.7278L32.6705 10.8118C32.6703 10.8678 32.6701 10.9398 32.6698 11.0278C32.6776 11.1158 32.6813 11.2038 32.6811 11.2918C32.6888 11.3798 32.6926 11.4638 32.6923 11.5438C32.7001 11.6239 32.7079 11.6879 32.7157 11.7359C32.755 12 32.7902 12.2642 32.8214 12.5282C32.8526 12.7923 32.8879 13.0565 32.9271 13.3206C32.9428 13.4006 32.9586 13.4767 32.9744 13.5487C32.9982 13.6208 33.022 13.6929 33.0458 13.765C33.0537 13.789 33.0656 13.817 33.0815 13.8491C33.0974 13.8731 33.1134 13.8972 33.1293 13.9212C33.1771 13.9854 33.2409 14.0416 33.3208 14.0898C33.4087 14.1301 33.5246 14.1585 33.6686 14.1749L33.8366 14.1754L33.8424 12.2075C33.8442 11.5835 33.8458 11.0355 33.8472 10.5635C33.8486 10.0835 33.8457 9.73146 33.8383 9.50743L33.8393 9.17143C33.8395 9.10743 33.8397 9.05143 33.8398 9.00343C33.84 8.94743 33.8442 8.89145 33.8523 8.83547C33.9017 8.36363 34.1504 8.12441 34.5984 8.11782L35.1985 8.1077C35.5585 8.10883 35.9184 8.12197 36.2784 8.1471L36.3744 8.1474C36.6303 8.1642 36.7821 8.22468 36.8298 8.32883ZM41.7439 23.3204C41.5759 23.3198 41.408 23.3113 41.24 23.2948C41.08 23.2863 40.9161 23.2658 40.7482 23.2332C40.5643 23.1926 40.4325 23.1242 40.3528 23.028C40.281 22.9398 40.2375 22.7956 40.2221 22.5956C40.1528 21.6593 40.0956 20.7272 40.0503 19.799C40.013 18.8789 39.9958 17.9468 39.9986 17.0028L40.0133 16.0789C40.0317 15.2549 40.0422 14.435 40.0446 13.619C40.055 12.795 40.0815 11.9631 40.1239 11.1232C40.1407 10.8513 40.1575 10.5873 40.1743 10.3314C40.1991 10.0674 40.2278 9.82752 40.2604 9.61162L40.2605 9.56362C40.2608 9.45963 40.2371 9.38355 40.1892 9.3354C40.1494 9.28727 40.0734 9.25504 39.9615 9.23868C39.7536 9.21403 39.5496 9.20139 39.3496 9.20076C39.2776 9.20053 39.2016 9.20029 39.1216 9.20004C39.0496 9.19982 38.9776 9.20359 38.9056 9.21136C38.8336 9.20314 38.7616 9.19891 38.6896 9.19868C38.6176 9.19846 38.5496 9.19024 38.4857 9.17404C38.3658 9.14167 38.27 9.08136 38.1982 8.99314C38.1265 8.90491 38.0908 8.8008 38.0911 8.6808L38.0912 8.6448C38.0919 8.4288 38.2044 8.26515 38.4287 8.15386C38.5328 8.11419 38.6409 8.09453 38.7529 8.09488L38.8968 8.10733C39.7208 8.11792 40.5328 8.12847 41.3328 8.13899C42.1407 8.14153 42.9567 8.14409 43.7807 8.14669L44.5967 8.14925C44.7407 8.1497 44.9007 8.17021 45.0766 8.21076C45.2124 8.25119 45.3162 8.31951 45.388 8.41574C45.4677 8.50399 45.5074 8.60812 45.507 8.72812L45.4948 8.81208C45.4784 8.94003 45.4221 9.04785 45.3258 9.13555C45.2296 9.21525 45.1055 9.25886 44.9534 9.26638L43.8974 9.26306C43.8014 9.26276 43.7254 9.26652 43.6694 9.27434C43.6214 9.27419 43.5854 9.28608 43.5613 9.31C43.5372 9.33393 43.5171 9.37386 43.5009 9.42981C43.4928 9.47779 43.4846 9.54976 43.4763 9.64574C43.3862 10.3735 43.328 11.1053 43.3018 11.8412C43.2837 12.5691 43.2735 13.2971 43.2714 14.0251L43.2656 15.9931C43.2567 16.2731 43.2479 16.5571 43.2391 16.845C43.2382 17.125 43.2374 17.405 43.2366 17.685C43.2355 18.061 43.2384 18.437 43.2452 18.8131C43.2522 19.1811 43.2711 19.5531 43.3019 19.9292C43.3328 20.3213 43.3476 20.7094 43.3465 21.0934C43.3454 21.4854 43.3762 21.8775 43.439 22.2697C43.447 22.2937 43.4509 22.3177 43.4508 22.3417C43.4507 22.3737 43.4506 22.4017 43.4506 22.4257L43.4379 22.6537C43.4134 22.8216 43.357 22.9534 43.2687 23.0491C43.1885 23.1449 43.0643 23.2045 42.8962 23.228C42.7041 23.2594 42.512 23.2828 42.32 23.2982C42.1279 23.3136 41.9359 23.321 41.7439 23.3204ZM50.5342 22.208C51.1105 22.0898 51.591 21.9393 51.9755 21.7565C52.36 21.5817 52.6127 21.3545 52.7335 21.0749C52.7899 20.9551 52.8262 20.8312 52.8426 20.7032C52.867 20.5753 52.8794 20.4474 52.8797 20.3194L52.8687 19.9833C52.8296 19.6792 52.8025 19.3831 52.7874 19.0951C52.7802 18.799 52.7611 18.499 52.73 18.1949C52.6835 17.7067 52.4088 17.2459 51.9061 16.8123C51.7784 16.6999 51.6067 16.6193 51.3908 16.5707C51.1829 16.522 50.9591 16.4853 50.7191 16.4605C50.6871 16.4524 50.6472 16.4483 50.5992 16.4482C50.4632 16.4477 50.387 16.4915 50.3708 16.5794L50.3218 16.9153C50.2973 17.0912 50.2727 17.2671 50.2482 17.4431C50.2237 17.611 50.2112 17.783 50.2107 17.959C50.2105 18.039 50.2142 18.123 50.222 18.211C50.2297 18.291 50.2415 18.371 50.2572 18.4511C50.2568 18.6191 50.2683 18.7871 50.2918 18.9552C50.2986 19.3552 50.3054 19.7633 50.3121 20.1793C50.3189 20.5953 50.3457 20.9994 50.3926 21.3915C50.4082 21.5196 50.4238 21.6476 50.4394 21.7757C50.455 21.9117 50.4866 22.0558 50.5342 22.208ZM49.127 15.1475L49.223 15.1478L50.4349 15.1756C50.6989 15.1845 50.9508 15.2093 51.1907 15.25C51.4306 15.2908 51.6664 15.3435 51.8982 15.4082C52.266 15.5054 52.5575 15.6503 52.773 15.843C53.0762 16.116 53.3073 16.4047 53.4664 16.7092C53.6255 17.0137 53.7406 17.322 53.8117 17.6343C53.8749 17.9065 53.9061 18.1786 53.9053 18.4506C53.9125 18.7146 53.9437 18.9787 53.9989 19.2429L53.9849 19.9388L53.9956 20.3589L54.0071 20.5389C54.0066 20.7229 53.986 20.9028 53.9455 21.0787C53.905 21.2626 53.8524 21.4464 53.7879 21.6302C53.7072 21.846 53.5627 22.0415 53.3541 22.2169C53.1536 22.3922 52.9171 22.5595 52.6447 22.7186C52.26 22.9414 51.8355 23.1041 51.3712 23.2066C50.9069 23.3092 50.3988 23.3596 49.8468 23.3578L49.5828 23.345L48.1429 23.2925L47.7829 23.2913C47.7269 23.2912 47.667 23.279 47.6031 23.2548C47.5471 23.2386 47.4872 23.2184 47.4232 23.1942C47.2075 23.1055 47.0961 22.8932 47.0891 22.5572C47.0446 21.373 47.0081 20.1969 46.9795 19.0288C46.9645 18.6927 46.9535 18.3527 46.9465 18.0087L46.935 17.8647C46.9272 17.7686 46.9235 17.6766 46.9238 17.5886C46.9241 17.4686 46.9285 17.3526 46.9368 17.2407C46.9305 16.6646 46.9282 16.0886 46.9299 15.5126C46.9312 15.0726 46.9325 14.6286 46.9338 14.1806C46.9432 13.7327 46.9605 13.2647 46.986 12.7768C47.0038 12.1528 47.0136 11.5369 47.0154 10.9289C47.0172 10.3209 47.0231 9.70489 47.0329 9.08092C47.0418 8.78494 47.0744 8.56504 47.1308 8.42122C47.1389 8.40525 47.1429 8.38926 47.143 8.37326C47.1915 8.21341 47.2957 8.12574 47.4558 8.11024C48.0319 8.08005 48.5999 8.05384 49.16 8.0316C49.7281 8.00138 50.3001 7.98718 50.8761 7.98899C51.0921 7.98967 51.3081 7.99435 51.5241 8.00303C51.7401 8.00371 51.9681 8.01243 52.208 8.02918C52.504 8.04611 52.8 8.05504 53.096 8.05597C53.392 8.0489 53.692 8.04985 53.9959 8.0588C54.1719 8.06736 54.2918 8.10773 54.3556 8.17993C54.4194 8.24414 54.451 8.36824 54.4505 8.55223L54.424 9.39216C54.4076 9.5281 54.3753 9.624 54.3272 9.67985C54.279 9.7357 54.1909 9.76342 54.0629 9.76302L53.9069 9.76253C53.7469 9.76203 53.5869 9.76553 53.4269 9.77302C53.2669 9.77252 53.1069 9.77202 52.9469 9.77151C52.9069 9.77139 52.8389 9.77117 52.7429 9.77087C52.6469 9.76257 52.5309 9.75821 52.3949 9.75778C52.2669 9.74938 52.131 9.74095 51.987 9.73249C51.851 9.72407 51.715 9.71564 51.5791 9.70721C51.4431 9.69878 51.3151 9.69438 51.1951 9.69401C51.0831 9.68565 50.9951 9.68138 50.9311 9.68118C50.7711 9.68067 50.6151 9.68418 50.4631 9.6917C50.3111 9.69123 50.1551 9.69874 49.995 9.71423C49.963 9.72213 49.903 9.72594 49.815 9.72567C49.727 9.72539 49.635 9.7251 49.539 9.7248L49.227 9.72382C49.2265 9.89982 49.23 10.0758 49.2375 10.2519C49.2445 10.5799 49.2475 10.9079 49.2465 11.2359C49.2463 11.3239 49.2419 11.4679 49.2333 11.6678C49.2247 11.8678 49.216 12.0998 49.2072 12.3638C49.2064 12.6278 49.1976 12.9077 49.1807 13.2037C49.1719 13.4997 49.163 13.7876 49.1542 14.0676C49.1534 14.3476 49.1486 14.6036 49.1399 14.8356C49.1396 14.9476 49.1353 15.0516 49.127 15.1475ZM60.0256 22.1538C60.2016 22.1544 60.358 22.0349 60.4947 21.7953C60.551 21.6915 60.5953 21.5876 60.6276 21.4837C60.6679 21.3878 60.7082 21.284 60.7485 21.1721C61.0392 20.277 61.2538 19.3737 61.3925 18.4621C61.5392 17.5506 61.63 16.6188 61.6648 15.667L61.665 15.583C61.668 14.583 61.5788 13.6227 61.3975 12.7021C61.2243 11.7735 60.987 10.8488 60.6857 9.92785C60.6698 9.8878 60.6539 9.85175 60.638 9.8197C60.6221 9.78765 60.6062 9.7516 60.5903 9.71155C60.455 9.49512 60.2753 9.38655 60.0513 9.38585C59.9633 9.38557 59.8712 9.40928 59.7751 9.45698C59.687 9.4967 59.6108 9.56046 59.5465 9.64826C59.41 9.83183 59.3054 10.0235 59.2328 10.2233C59.1602 10.4231 59.0956 10.6268 59.039 10.8347C58.869 11.5141 58.751 12.1978 58.685 12.8856C58.619 13.5654 58.5649 14.2572 58.5228 14.9611C58.5064 15.121 58.4979 15.281 58.4974 15.441C58.4969 15.601 58.4965 15.761 58.496 15.921C58.4933 16.841 58.5547 17.7252 58.6802 18.5736C58.8057 19.422 58.9872 20.2666 59.2247 21.1073C59.2643 21.2434 59.3079 21.3716 59.3556 21.4917C59.4032 21.6199 59.4708 21.7401 59.5585 21.8524C59.7099 22.0528 59.8656 22.1533 60.0256 22.1538ZM57.8982 23.3111C57.7142 23.3106 57.5503 23.2661 57.4066 23.1776C57.2708 23.0972 57.1391 22.9968 57.0115 22.8764C56.8041 22.6757 56.6407 22.4552 56.5214 22.2148C56.4101 21.9745 56.3149 21.7222 56.2356 21.4579C55.9743 20.5451 55.777 19.6325 55.6437 18.72C55.5184 17.7996 55.4573 16.8474 55.4602 15.8634C55.4613 15.4794 55.4745 15.0875 55.4996 14.6876C55.5417 13.9757 55.6038 13.2759 55.6858 12.5881C55.7679 11.8924 55.8939 11.2008 56.064 10.5133C56.2501 9.8019 56.5719 9.18291 57.0294 8.65634C57.1258 8.53665 57.2301 8.44097 57.3423 8.36933C57.4545 8.29768 57.5906 8.25411 57.7507 8.23861C57.9667 8.22329 58.1828 8.20797 58.3988 8.19265C58.6149 8.17733 58.8349 8.17002 59.0589 8.17072C59.3149 8.17153 59.5668 8.18832 59.8147 8.2211C60.0627 8.24588 60.3105 8.29466 60.5583 8.36744C60.8701 8.45642 61.1216 8.60521 61.313 8.81381C61.5044 9.02242 61.6476 9.27887 61.7427 9.58317C61.9646 10.2879 62.1586 10.9965 62.3245 11.709C62.4984 12.4136 62.6202 13.1379 62.69 13.8822C62.7133 14.1222 62.7326 14.3623 62.7479 14.6024C62.7712 14.8344 62.7825 15.0665 62.7819 15.2985L62.7811 15.5625C62.738 16.6103 62.639 17.63 62.484 18.6215C62.3371 19.6051 62.1063 20.5764 61.7914 21.5354C61.751 21.6713 61.7067 21.7991 61.6583 21.919C61.6099 22.0468 61.5536 22.1706 61.4892 22.2904C61.2236 22.8496 60.7746 23.1722 60.1423 23.2582C59.9423 23.2896 59.7422 23.3089 59.5422 23.3163C59.3501 23.3237 59.1541 23.3271 58.9541 23.3265L57.8982 23.3111ZM68.3765 8.17602C68.5925 8.1767 68.8085 8.18938 69.0244 8.21406C69.2404 8.23073 69.4523 8.2554 69.6602 8.28805C70.0601 8.33731 70.3756 8.49031 70.6069 8.74703C70.8461 9.00379 71.0212 9.31634 71.1321 9.68469C71.2272 9.98899 71.2903 10.2972 71.3214 10.6093C71.3605 10.9134 71.3876 11.2215 71.4026 11.5335L71.5964 15.0022C71.6119 15.1542 71.6193 15.3902 71.6183 15.7102C71.6174 16.0222 71.6165 16.3342 71.6155 16.6462C71.6148 16.9022 71.6141 17.1302 71.6135 17.3302C71.613 17.5222 71.6086 17.6462 71.6004 17.7022C71.5656 18.6541 71.5191 19.522 71.4607 20.3058C71.4104 21.0896 71.3482 21.8574 71.2739 22.6092C71.2412 22.8651 71.1686 23.0449 71.0563 23.1485C70.944 23.2522 70.7559 23.3116 70.4918 23.3267C70.2838 23.3421 70.0717 23.3534 69.8557 23.3607C69.6477 23.3761 69.4396 23.3834 69.2316 23.3828C69.1516 23.3825 69.0756 23.3823 69.0036 23.3821C68.9316 23.3818 68.8557 23.3776 68.7757 23.3693C68.4958 23.3445 68.2999 23.2839 68.1882 23.1875C68.0845 23.0992 68.033 22.935 68.0337 22.695L68.0462 22.503C68.0793 22.1272 68.1124 21.7553 68.1455 21.3874C68.1786 21.0195 68.2077 20.6435 68.2329 20.2596C68.2663 19.7797 68.2957 19.3038 68.3211 18.8319C68.3465 18.352 68.3719 17.8721 68.3973 17.3921L68.398 17.1761C68.3983 17.0481 68.3948 16.8881 68.3874 16.6961C68.388 16.4961 68.3846 16.2961 68.3772 16.0961C68.3778 15.8881 68.3743 15.692 68.3669 15.508C68.3675 15.316 68.3639 15.164 68.3562 15.052C68.318 14.4439 68.2838 13.8398 68.2536 13.2397C68.2234 12.6316 68.1892 12.0154 68.151 11.3913C68.1355 11.2233 68.116 11.0552 68.0925 10.8871C68.077 10.7191 68.0575 10.551 68.034 10.383C68.0262 10.3189 68.0144 10.2589 67.9986 10.2028C67.9827 10.1388 67.9669 10.0747 67.9511 10.0107C67.9035 9.87454 67.8359 9.75433 67.7482 9.65005C67.6685 9.5378 67.5567 9.46945 67.4128 9.44499L67.3288 9.43273C67.2008 9.43233 67.0927 9.47599 67.0044 9.56371C66.9242 9.65146 66.8479 9.75122 66.7756 9.86299C66.5827 10.1664 66.4337 10.4859 66.3287 10.8216C66.2237 11.1573 66.1267 11.497 66.0377 11.8407C65.8757 12.5282 65.7617 13.2118 65.6957 13.8916C65.6296 14.5714 65.5876 15.2593 65.5696 15.9552C65.5692 16.0592 65.5689 16.1632 65.5686 16.2672C65.5684 16.3632 65.5601 16.4632 65.5437 16.5672C65.4864 17.031 65.445 17.4988 65.4196 17.9708C65.3942 18.4427 65.3768 18.9186 65.3674 19.3986C65.358 19.8706 65.3526 20.3506 65.3511 20.8386C65.3497 21.3266 65.3442 21.8226 65.3347 22.3265C65.3345 22.4145 65.3302 22.4985 65.322 22.5785C65.3217 22.6665 65.3135 22.7545 65.2972 22.8424C65.2567 23.0023 65.1884 23.1221 65.0922 23.2018C65.0039 23.2895 64.8918 23.3331 64.7558 23.3327L64.6838 23.3325C64.3639 23.2915 64.2045 23.087 64.2056 22.719C64.215 22.231 64.2244 21.771 64.2337 21.3391C64.2429 20.9151 64.2481 20.4951 64.2494 20.0791C64.2592 19.4711 64.277 18.8672 64.3027 18.2673C64.3285 17.6593 64.3743 17.0515 64.4401 16.4437C64.4813 16.0278 64.5026 15.6159 64.5038 15.2079C64.513 14.7919 64.5382 14.372 64.5795 13.9481C64.6452 13.3483 64.731 12.7526 64.8368 12.1609C64.9505 11.5693 65.1042 10.9857 65.2979 10.4103C65.3706 10.1866 65.4592 9.97485 65.5638 9.77518C65.6684 9.56751 65.781 9.36386 65.9016 9.16424C66.0463 8.9167 66.2269 8.72926 66.4433 8.60194C66.6677 8.46665 66.912 8.36741 67.1762 8.30424C67.3763 8.25687 67.5724 8.22549 67.7644 8.21009C67.9645 8.18672 68.1685 8.17536 68.3765 8.17602ZM73.8917 23.3614C73.5877 23.3605 73.4001 23.1999 73.3291 22.8797C73.3053 22.7996 73.2936 22.7195 73.2938 22.6395L73.0571 17.4668C73.0585 16.9948 73.0638 16.5388 73.0731 16.0988C73.0736 15.9148 73.0742 15.7268 73.0748 15.5348C73.0833 15.3429 73.0879 15.1589 73.0884 14.9829C73.0969 14.7989 73.1014 14.6309 73.1019 14.4789C73.1023 14.3269 73.1027 14.1949 73.1031 14.0829L73.104 13.7709C73.0904 12.9469 73.0848 12.1268 73.0872 11.3108C73.0896 10.4948 73.092 9.69885 73.0943 8.92286C73.0949 8.70686 73.1354 8.54698 73.2157 8.44323C73.304 8.33151 73.4522 8.26398 73.6603 8.24063C73.8364 8.22518 74.0084 8.21373 74.1764 8.20625C74.3444 8.19878 74.5164 8.19532 74.6924 8.19588C74.8764 8.19645 75.0644 8.20105 75.2564 8.20965C75.4484 8.21825 75.6363 8.23084 75.8203 8.24742C76.0282 8.26408 76.1801 8.32855 76.2757 8.44086C76.3714 8.54516 76.431 8.70134 76.4543 8.90942C76.4622 8.97344 76.4659 9.04546 76.4657 9.12546C76.4655 9.19746 76.4653 9.26546 76.4651 9.32946C76.4623 10.2655 76.4595 11.2174 76.4567 12.1854C76.4538 13.1454 76.455 14.1134 76.4601 15.0895L76.4592 15.3895C76.5314 15.3257 76.5756 15.2658 76.5917 15.2099C76.6159 15.154 76.6361 15.098 76.6522 15.0421C76.9831 14.0751 77.3381 13.0722 77.7171 12.0334C78.0962 10.9866 78.4993 9.93585 78.9264 8.88119C78.9586 8.81729 78.9868 8.75338 79.011 8.68946C79.0352 8.61753 79.0674 8.54963 79.1076 8.48576C79.2201 8.32611 79.3763 8.2466 79.5763 8.24723C79.6003 8.24731 79.6243 8.24738 79.6483 8.24746C79.6803 8.24756 79.7123 8.25566 79.7442 8.27176C79.976 8.36049 80.0915 8.53685 80.0907 8.80085C80.0904 8.88885 80.0782 8.96881 80.054 9.04074C80.0298 9.11266 80.0015 9.18857 79.9693 9.26847C79.518 10.3871 79.0907 11.4977 78.6875 12.6005C78.2922 13.6952 77.9211 14.7581 77.574 15.789C77.4853 16.0447 77.3925 16.2964 77.2958 16.5441C77.2071 16.7838 77.1104 17.0235 77.0057 17.2632C76.9654 17.3671 76.9451 17.451 76.9449 17.515C76.9447 17.595 76.9764 17.6911 77.0401 17.8033C77.4857 18.6047 77.9076 19.334 78.3056 19.9913C78.7117 20.6566 79.1418 21.2819 79.5961 21.8674C79.6997 22.0037 79.8273 22.1241 79.979 22.2286C80.019 22.2527 80.0549 22.2768 80.0868 22.3009C80.1267 22.333 80.1666 22.3652 80.2065 22.3973C80.3422 22.5177 80.4098 22.6619 80.4093 22.8299C80.4089 22.9419 80.3766 23.0418 80.3124 23.1296C80.2079 23.2893 80.0597 23.3688 79.8677 23.3682C79.8037 23.368 79.7237 23.3478 79.6278 23.3075C79.4361 23.2189 79.2644 23.1063 79.1128 22.9698C78.9612 22.8334 78.8177 22.6809 78.6822 22.5125C78.3794 22.1035 78.0806 21.6786 77.7859 21.2377C77.4912 20.7967 77.1928 20.2758 76.8906 19.6748C76.8508 19.5947 76.803 19.5186 76.7472 19.4464C76.6915 19.3662 76.6238 19.27 76.5441 19.1578C76.5358 19.2697 76.5314 19.3737 76.5312 19.4697C76.5309 19.5657 76.5306 19.6617 76.5303 19.7577C76.5297 19.9657 76.5331 20.1617 76.5406 20.3457C76.556 20.5378 76.5715 20.7258 76.5869 20.9099C76.6101 21.182 76.6293 21.454 76.6445 21.7261C76.6597 21.9981 76.6669 22.2702 76.6661 22.5422L76.6655 22.7342C76.6489 22.9501 76.5924 23.1059 76.4961 23.2016C76.4078 23.3053 76.2597 23.3609 76.0517 23.3682C75.8996 23.3757 75.7476 23.3793 75.5956 23.3788C75.4436 23.3783 75.2916 23.3778 75.1396 23.3774L73.8917 23.3614ZM86.5081 23.4131C86.3241 23.4045 86.1842 23.3521 86.0885 23.2558C85.9928 23.1675 85.9452 23.0433 85.9456 22.8833L85.9702 22.7034C86.0026 22.5675 86.019 22.4316 86.0194 22.2956C86.0278 22.1596 86.0402 22.0236 86.0566 21.8877C86.0731 21.7197 86.0858 21.4798 86.0947 21.1678C86.1116 20.8558 86.1246 20.5119 86.1337 20.1359C86.1508 19.768 86.1599 19.388 86.1611 18.996C86.1703 18.596 86.1754 18.228 86.1764 17.892C86.1854 17.5481 86.1903 17.2521 86.191 17.0041C86.1997 16.7561 86.2042 16.5961 86.2044 16.5241C86.2055 16.1561 86.2026 15.7681 86.1958 15.3601C86.1891 14.9441 86.1863 14.52 86.1876 14.088L86.1885 13.776C86.1887 13.728 86.1727 13.7 86.1408 13.6919C86.1007 13.7238 86.0726 13.7637 86.0564 13.8116C86.0483 13.8516 86.0362 13.8956 86.02 13.9435C85.8583 14.527 85.6966 15.1105 85.5349 15.694C85.3731 16.2775 85.2034 16.861 85.0257 17.4444C84.7914 18.2197 84.5731 18.991 84.3708 19.7584C84.1686 20.5257 83.9184 21.2529 83.6204 21.94C83.5399 22.1238 83.4633 22.3035 83.3908 22.4793C83.3183 22.6551 83.2378 22.8268 83.1493 22.9945C83.0205 23.2581 82.8321 23.3895 82.5841 23.3888L82.4042 23.3642C82.0604 23.2911 81.8771 23.0585 81.8542 22.6665C81.8544 22.6185 81.8545 22.5705 81.8547 22.5225C81.8628 22.4745 81.871 22.4265 81.8791 22.3785C81.9297 21.4827 81.9884 20.5709 82.0552 19.6431C82.1299 18.7073 82.2047 17.7635 82.2795 16.8118C82.346 15.964 82.3925 15.1241 82.419 14.2922C82.4455 13.4523 82.4599 12.6083 82.4625 11.7603C82.4634 11.4323 82.4644 11.1083 82.4653 10.7883C82.4663 10.4683 82.4632 10.1603 82.4561 9.86429L82.4472 8.80826C82.4556 8.64829 82.504 8.52444 82.5923 8.43672C82.6885 8.34102 82.8087 8.2854 82.9528 8.26985L82.9768 8.26992C83.1128 8.27035 83.2286 8.31072 83.3244 8.39102C83.4202 8.47132 83.4838 8.58752 83.5154 8.73962C83.5311 8.81967 83.5389 8.89969 83.5387 8.97969C83.5384 9.05969 83.5422 9.13971 83.55 9.21973C83.5653 9.42778 83.5727 9.6518 83.572 9.8918C83.5793 10.1238 83.5826 10.3598 83.5819 10.5998L83.5635 12.7598C83.5608 13.6798 83.5301 14.5917 83.4714 15.4955C83.4128 16.3993 83.3501 17.3071 83.2834 18.2189C83.2671 18.3309 83.2547 18.4468 83.2464 18.5668C83.238 18.6788 83.2337 18.7948 83.2333 18.9148C83.2331 18.9868 83.2369 19.0628 83.2447 19.1428C83.2524 19.2148 83.2642 19.2909 83.28 19.3709C83.3042 19.307 83.3284 19.2471 83.3525 19.1912C83.3767 19.1352 83.3969 19.0753 83.413 19.0113C83.5504 18.5478 83.6838 18.0882 83.8131 17.6326C83.9505 17.177 84.0838 16.7174 84.2132 16.2539C84.5609 15.0149 84.9045 13.788 85.2441 12.5731C85.5917 11.3502 85.8593 10.115 86.047 8.86758C86.0716 8.68366 86.128 8.54783 86.2162 8.46011C86.3125 8.37241 86.4606 8.32088 86.6607 8.30551C86.8927 8.29024 87.1208 8.27895 87.3448 8.27166C87.5688 8.26436 87.7968 8.26108 88.0288 8.26181C88.3648 8.26286 88.6928 8.2759 89.0127 8.3009C89.2046 8.31751 89.3525 8.38197 89.4561 8.4943C89.5678 8.60665 89.6234 8.75482 89.6228 8.93882L89.622 9.21482C89.6214 9.41482 89.6248 9.61483 89.6322 9.81486C89.6397 10.0069 89.6431 10.2029 89.6425 10.4029L89.6418 10.6429C89.6247 11.0028 89.6156 11.3748 89.6145 11.7588C89.6134 12.1428 89.6122 12.5308 89.6111 12.9228C89.6098 13.3548 89.6085 13.7828 89.6073 14.2068C89.614 14.6228 89.6248 15.0469 89.6395 15.4789L89.6498 16.0429L89.6493 16.2349C89.6489 16.3709 89.6443 16.5589 89.6356 16.7989C89.6349 17.0309 89.6302 17.2909 89.6213 17.5789C89.6125 17.8668 89.6035 18.1748 89.5946 18.5028C89.5856 18.8228 89.5767 19.1387 89.5678 19.4507C89.5669 19.7547 89.562 20.0427 89.5532 20.3147C89.5444 20.5946 89.5397 20.8306 89.5391 21.0226C89.5384 21.2706 89.5257 21.5146 89.501 21.7545C89.4762 22.0024 89.4555 22.2504 89.4388 22.4983C89.4384 22.6423 89.4139 22.7862 89.3655 22.9301C89.2766 23.2338 89.0762 23.3852 88.7642 23.3842C88.3881 23.391 88.0121 23.3978 87.6361 23.4046C87.2681 23.4115 86.8921 23.4143 86.5081 23.4131Z" fill="white"/>
</svg>
