<svg width="84" height="38" viewBox="0 0 84 38" fill="none" xmlns="http://www.w3.org/2000/svg">
<path d="M5.54828 23.9559L2.41105 20.4671L1.13728 6.96449C2.79251 5.11595 8.46222 1.40143 17.8993 1.33176C29.6955 1.24466 13.7772 0.399574 27.3024 1.08246C40.8276 1.76535 47.1159 2.15886 51.8765 2.3499C56.6371 2.54094 63.9473 2.83597 70.1362 5.18602C75.0874 7.06606 79.5659 10.4686 81.1863 11.9349C80.6752 12.1946 79.9426 13.0338 81.1013 14.3134C82.26 15.5929 82.827 17.512 82.9657 18.3116C82.2809 18.7512 80.9072 19.7423 80.8912 20.19C80.8712 20.7497 76.3562 20.7086 78.5862 21.4987C80.3702 22.1308 80.7629 23.7813 80.7362 24.5275C78.9573 25.1567 74.5966 26.4109 71.3855 26.3942C68.1743 26.3774 65.3504 26.7592 64.3398 26.9521L64.2998 28.0716C65.7965 28.3184 68.4872 28.8561 67.2765 29.0317C65.7631 29.2512 64.2848 28.4913 63.017 28.8607C61.7492 29.2302 61.9649 30.0093 63.4583 30.3494C63.7576 30.5323 63.9257 30.6577 64.0168 30.7404C64.0758 30.7365 64.1384 30.733 64.2048 30.7299C64.135 30.7579 64.0999 30.7858 64.0847 30.8097C64.0385 30.882 64.1738 30.9183 64.0847 30.8097C64.0694 30.7911 64.0474 30.7681 64.0168 30.7404C63.1077 30.8006 63.0593 30.9636 63.4283 31.1889C63.8212 31.4289 63.4131 31.8191 64.1598 31.9892L67.3822 32.8889L63.3732 32.7281C61.1683 32.6396 61.5893 33.4972 62.0755 33.9371C61.4875 34.0069 59.9628 34.0765 58.5676 33.7963C56.8237 33.4461 57.5604 33.896 54.5487 33.9152C52.1393 33.9306 53.3536 33.5624 49.2628 33.3515C49.6036 33.1784 49.834 32.814 48.03 32.7416C45.775 32.6511 47.5241 32.6509 44.7579 32.8202C41.9918 32.9894 52.7034 32.0842 44.1844 31.7424C37.3692 31.4689 39.1587 31.3297 37.9059 31.2795C33.9638 31.5883 24.6274 32.1198 18.8184 31.7746C11.5572 31.3431 5.34322 29.6925 5.34823 29.5526C5.35223 29.4406 4.04359 28.6128 3.38877 28.2129C4.04859 28.4729 5.37323 28.853 5.39324 28.2933C5.41324 27.7336 4.13528 26.0476 3.4938 25.2746L5.54828 23.9559Z" fill="#FDA3C4"/>
<path d="M10.0238 32.1222C9.22203 32.0901 9.16862 32.6484 9.24214 32.9316L7.6085 33.0062C6.79839 33.4407 5.32951 34.2879 5.93485 34.2001C6.5402 34.1123 7.70377 33.8507 8.20989 33.7309C8.55064 33.5577 10.8357 33.2758 17.25 33.5332C25.2679 33.8549 24.5262 33.5449 25.2779 33.5751C26.0296 33.6053 11.0261 32.1625 10.0238 32.1222Z" fill="#FDA3C4"/>
<path d="M26.1291 23.8074C26.2891 23.8079 26.4452 23.7804 26.5974 23.7249C26.7495 23.6694 26.9017 23.6059 27.0539 23.5344C27.2542 23.439 27.4345 23.3276 27.5949 23.2001C27.7552 23.0807 27.8957 22.9211 28.0163 22.7215C28.1368 22.5299 28.2295 22.2902 28.2943 22.0024C28.3672 21.7146 28.4122 21.3588 28.4294 20.9348L28.418 20.7308C28.4102 20.6748 28.4063 20.6227 28.4064 20.5747C28.4066 20.5187 28.4068 20.4587 28.407 20.3947C28.4071 20.3387 28.4073 20.2867 28.4074 20.2387C28.4076 20.1827 28.4037 20.1267 28.3959 20.0707C28.3734 19.5426 28.1702 19.278 27.7862 19.2767C27.6902 19.2764 27.5701 19.296 27.426 19.3356C27.1458 19.4227 26.8615 19.4977 26.5734 19.5608C26.2852 19.6159 25.9971 19.663 25.7089 19.702C25.5889 19.7176 25.5088 19.7534 25.4686 19.8093C25.4365 19.8571 25.4203 19.9331 25.42 20.0371L25.3543 22.0169L25.3663 22.0169C25.3657 22.2249 25.3651 22.4329 25.3645 22.6409C25.3639 22.8489 25.3673 23.0569 25.3747 23.265C25.3822 23.441 25.4139 23.5571 25.4697 23.6133C25.5255 23.6775 25.6414 23.7298 25.8172 23.7704C25.9212 23.7947 26.0251 23.8071 26.1291 23.8074ZM25.4965 18.4653C25.6087 18.4097 25.7168 18.362 25.8209 18.3224C25.9331 18.2747 26.0452 18.2231 26.1574 18.1675C26.4938 18.0086 26.7704 17.8014 26.9872 17.5461C27.2119 17.2829 27.3688 16.9714 27.4578 16.6117C27.5631 16.172 27.6444 15.7363 27.7016 15.3044C27.7669 14.8646 27.8001 14.4208 27.8014 13.9728C27.8021 13.7248 27.7909 13.4767 27.7676 13.2286C27.7443 12.9806 27.713 12.7285 27.6737 12.4723C27.6422 12.3122 27.5986 12.1601 27.5431 12.0159C27.4875 11.8637 27.4159 11.7195 27.3283 11.5832C27.1928 11.3988 27.0332 11.2623 26.8495 11.1737C26.6738 11.0771 26.4819 11.0285 26.2739 11.0278C26.0659 11.0271 25.8778 11.0665 25.7095 11.146C25.6455 11.1778 25.6014 11.2136 25.5772 11.2536C25.5531 11.2855 25.541 11.3334 25.5408 11.3974L25.4535 12.5492C25.4367 12.8211 25.424 13.0891 25.4152 13.353C25.4144 13.617 25.4137 13.885 25.4129 14.157C25.4111 14.773 25.4174 15.3851 25.4316 15.9931C25.4459 16.6012 25.4521 17.2172 25.4503 17.8412L25.449 18.2972C25.4489 18.3132 25.4529 18.3372 25.4608 18.3692C25.4687 18.3932 25.4806 18.4253 25.4965 18.4653ZM24.9258 24.9795C24.6778 24.9787 24.4298 24.9699 24.1818 24.9531C23.9419 24.9364 23.702 24.8996 23.4622 24.8428C23.2783 24.8022 23.1064 24.7457 22.9466 24.6731C22.7948 24.6006 22.6391 24.5281 22.4793 24.4556C22.3195 24.3751 22.2158 24.2628 22.1682 24.1186C22.1286 23.9825 22.109 23.8344 22.1095 23.6744C22.1025 23.3144 22.0956 22.9544 22.0886 22.5944C22.0816 22.2423 22.0786 21.8863 22.0797 21.5263L22.1869 17.6386C22.1882 17.1826 22.1855 16.7266 22.1788 16.2706C22.1721 15.8066 22.1615 15.3466 22.1468 14.8905L22.1368 14.1825C22.1384 13.6225 22.156 13.0625 22.1896 12.5026C22.2232 11.9427 22.2529 11.3828 22.2785 10.8229C22.2871 10.6149 22.3355 10.4591 22.4238 10.3554C22.5201 10.2437 22.6844 10.1562 22.9166 10.093C23.1888 10.0218 23.461 9.95872 23.7331 9.9036C24.0053 9.84848 24.2814 9.81337 24.5614 9.79827L25.0535 9.78786C25.5254 9.78938 25.9973 9.82691 26.4691 9.90043C27.0769 9.99039 27.5722 10.224 27.9551 10.6012C28.338 10.9785 28.5966 11.4713 28.7309 12.0797C28.794 12.3759 28.8372 12.6721 28.8603 12.9682C28.8915 13.2563 28.9067 13.5483 28.9058 13.8443C28.9049 14.1483 28.888 14.4563 28.8551 14.7682C28.8302 15.0801 28.7974 15.392 28.7565 15.7038C28.7157 15.9757 28.6709 16.2476 28.6221 16.5194C28.5734 16.7833 28.5046 17.043 28.4159 17.2988C28.3515 17.4425 28.2791 17.5823 28.1987 17.7181C28.1183 17.8538 28.0339 17.9935 27.9455 18.1372C28.0414 18.1695 28.1293 18.1938 28.2092 18.2101C28.2892 18.2263 28.3651 18.2506 28.437 18.2828C28.7246 18.4198 28.9561 18.6005 29.1315 18.8251C29.3149 19.0417 29.4261 19.31 29.4652 19.6302C29.5122 19.9663 29.5352 20.3064 29.5342 20.6504C29.534 20.7224 29.5297 20.8344 29.5213 20.9863C29.5128 21.1383 29.5004 21.2983 29.4839 21.4662C29.4754 21.6342 29.463 21.7902 29.4465 21.9341C29.4301 22.0861 29.4178 22.198 29.4096 22.27C29.3687 22.5739 29.2839 22.8496 29.1552 23.0972C29.0345 23.3448 28.8658 23.5722 28.6492 23.7795C28.2642 24.1223 27.8554 24.401 27.4228 24.6156C26.9902 24.8302 26.5139 24.9447 25.9938 24.959C25.8098 24.9664 25.6298 24.9698 25.4538 24.9692C25.2858 24.9767 25.1098 24.9801 24.9258 24.9795ZM31.8039 25.1217C31.5159 25.1208 31.3121 25.0681 31.1924 24.9638C31.0806 24.8674 31.0212 24.6672 31.0141 24.3632C31.0065 24.2272 30.9989 24.0871 30.9913 23.9431C30.9917 23.8071 30.9921 23.6711 30.9925 23.5351L31.0058 23.0671L31.0338 21.6872C31.0351 21.2472 31.0243 20.8112 31.0016 20.3791C30.9868 19.9391 30.9801 19.499 30.9813 19.059C30.9824 18.707 30.9954 18.3511 31.0204 17.9912L31.0226 17.2232C31.0482 16.6632 31.0698 16.1073 31.0874 15.5554C31.113 14.9954 31.1266 14.4435 31.1282 13.8995C31.1297 13.3795 31.1192 12.8555 31.0967 12.3274L31.0866 11.6673C31.0871 11.4833 31.0876 11.3073 31.0881 11.1393C31.0966 10.9634 31.1051 10.7834 31.1137 10.5994C31.1303 10.3675 31.1828 10.2036 31.2711 10.1079C31.3594 10.0042 31.5196 9.93674 31.7517 9.90548C32.0718 9.85852 32.4079 9.8356 32.7599 9.83674L33.0359 9.83763C33.4439 9.83895 33.8439 9.84024 34.2359 9.8415C34.6279 9.83477 35.0279 9.83206 35.4359 9.83338C36.1079 9.83555 36.7759 9.8497 37.4398 9.87585C37.4958 9.88403 37.5517 9.89221 37.6077 9.90039C37.6637 9.90857 37.7197 9.92075 37.7756 9.93693C37.8875 9.97729 37.9753 10.0416 38.0391 10.1298C38.1028 10.218 38.1345 10.3141 38.1342 10.4181L38.134 10.4901C38.1013 10.738 37.9609 10.8935 37.7127 10.9567C37.6727 10.9646 37.6286 10.9725 37.5806 10.9803C37.5406 10.9802 37.5006 10.98 37.4606 10.9799L37.3766 10.9796C37.2806 10.9713 37.1846 10.967 37.0886 10.9667C37.0006 10.9664 36.9086 10.9661 36.8126 10.9658C36.5886 10.9651 36.3646 10.9684 36.1406 10.9757C35.9166 10.9829 35.6926 10.9902 35.4685 10.9975L35.1806 10.9726C35.0846 10.9722 34.9886 10.9759 34.8926 10.9836C34.7966 10.9913 34.7006 10.995 34.6046 10.9947C34.4446 10.9942 34.3643 11.0699 34.3639 11.2219L34.3502 11.7979C34.365 12.2299 34.3758 12.662 34.3825 13.094C34.3973 13.526 34.404 13.9621 34.4028 14.4021C34.4012 14.9301 34.3917 15.462 34.3742 15.998C34.3566 16.5259 34.3313 17.0058 34.298 17.4377C34.2898 17.5257 34.2855 17.6137 34.2853 17.7017C34.285 17.7897 34.2848 17.8777 34.2845 17.9657L34.284 18.1337C34.2838 18.2057 34.2877 18.2617 34.2955 18.3017C34.3034 18.3418 34.3233 18.3738 34.3553 18.3979C34.3872 18.422 34.4311 18.4382 34.4871 18.4464C34.5511 18.4546 34.6351 18.4588 34.7391 18.4592L35.0151 18.4721L35.5551 18.4618C35.6511 18.4621 35.7471 18.4664 35.843 18.4747C35.939 18.475 36.035 18.4914 36.1309 18.5237C36.2588 18.5641 36.3546 18.6364 36.4183 18.7406C36.49 18.8368 36.5257 18.9409 36.5254 19.0529C36.5252 19.1169 36.5211 19.1649 36.513 19.1969C36.4886 19.3168 36.4283 19.4206 36.3321 19.5083C36.2438 19.588 36.1397 19.6277 36.0197 19.6273L35.9118 19.615C35.8318 19.5987 35.7558 19.5905 35.6838 19.5902C35.6119 19.582 35.5359 19.5778 35.4559 19.5775L34.9038 19.5877L34.5438 19.5865C34.4398 19.5862 34.3678 19.61 34.3276 19.6579C34.2955 19.6977 34.2793 19.7697 34.279 19.8737L34.2787 19.9697C34.2943 20.1377 34.3018 20.3058 34.3013 20.4738C34.3008 20.6338 34.3004 20.7978 34.2999 20.9658C34.2989 21.3098 34.294 21.6098 34.2853 21.8657C34.2846 22.1217 34.2799 22.3457 34.2714 22.5377C34.2708 22.7377 34.2663 22.9137 34.2578 23.0656C34.2574 23.2256 34.2569 23.3816 34.2565 23.5336C34.256 23.7016 34.2677 23.8097 34.2916 23.8578C34.3154 23.9138 34.3873 23.9421 34.5073 23.9425L37.2677 23.8194C37.3797 23.8197 37.4796 23.836 37.5675 23.8683C37.8073 23.9571 37.9268 24.1215 37.9261 24.3615L37.9261 24.3855C37.9254 24.6015 37.817 24.7611 37.6007 24.8644C37.5126 24.9042 37.4245 24.9279 37.3365 24.9356C37.2565 24.9433 37.1724 24.9471 37.0844 24.9468C36.5804 24.9612 36.0803 24.9835 35.5842 25.0139C35.0962 25.0444 34.6041 25.0588 34.1081 25.0572C34.0601 25.057 33.9961 25.0568 33.9161 25.0566C33.8361 25.0643 33.7521 25.068 33.6641 25.0677L33.3641 25.0668C33.1081 25.0659 32.8481 25.0731 32.584 25.0883C32.3279 25.1114 32.0679 25.1226 31.8039 25.1217ZM43.131 18.5223C43.179 18.5224 43.231 18.5186 43.287 18.5108C43.351 18.503 43.4231 18.4912 43.5031 18.4755C43.5271 18.4755 43.5511 18.4716 43.5751 18.4637C43.5992 18.4558 43.6192 18.4478 43.6352 18.4399C44.0675 18.3373 44.3881 18.1463 44.5969 17.867C44.8137 17.5877 44.9507 17.2441 45.0078 16.8363C45.0485 16.6044 45.0771 16.3845 45.0937 16.1766C45.1183 15.9607 45.1388 15.7967 45.1551 15.6848C45.1633 15.6448 45.1674 15.6048 45.1675 15.5648C45.1676 15.5248 45.1677 15.4848 45.1678 15.4448C45.1681 15.3648 45.1643 15.2928 45.1565 15.2288C45.1567 15.1568 45.1568 15.0928 45.157 15.0368C45.1196 14.1327 44.9621 13.2561 44.6846 12.4072C44.5735 12.0709 44.4063 11.8023 44.1829 11.6016C43.9595 11.3929 43.6919 11.228 43.3803 11.107C43.3163 11.0908 43.2524 11.0786 43.1884 11.0704C43.1244 11.0542 43.0605 11.038 42.9965 11.0218L42.9006 11.0095C42.7646 11.009 42.6964 11.0848 42.6959 11.2368L42.7064 11.7529C42.7208 12.3049 42.7313 12.8449 42.7378 13.373C42.7523 13.893 42.7669 14.3611 42.7817 14.7771C42.7806 15.1611 42.7793 15.6291 42.7777 16.1811C42.7761 16.7251 42.7785 17.2891 42.7848 17.8731C42.7841 18.1211 42.8036 18.2932 42.8434 18.3893C42.8831 18.4775 42.979 18.5218 43.131 18.5223ZM40.3882 25.0414C40.3482 25.0413 40.3042 25.0372 40.2562 25.029C40.2162 25.0289 40.1763 25.0248 40.1363 25.0166C39.6965 24.9432 39.4732 24.6825 39.4665 24.2345C39.444 23.7224 39.4295 23.1903 39.4231 22.6383C39.4167 22.0943 39.4103 21.5463 39.4038 20.9942C39.4054 20.4422 39.407 19.8943 39.4086 19.3503C39.4102 18.7983 39.4117 18.2703 39.4131 17.7663L39.4181 16.0503C39.4192 15.6423 39.4164 15.2423 39.4095 14.8502C39.4107 14.4502 39.4038 14.0502 39.389 13.6502C39.3742 13.2101 39.3635 12.7701 39.3568 12.33C39.358 11.8901 39.3513 11.45 39.3366 11.01L39.3371 10.818C39.3461 10.482 39.4107 10.2502 39.5311 10.1226C39.6595 9.98701 39.8917 9.90776 40.2278 9.88485L40.6838 9.87432L41.5718 9.88919L42.5318 9.89229L43.0117 9.91784C43.6915 10 44.2629 10.2179 44.7258 10.5714C45.1968 10.9249 45.5394 11.438 45.7534 12.1107C46.0626 13.0797 46.2398 14.0643 46.2849 15.0644L46.2846 15.1724C46.2844 15.2364 46.2842 15.3324 46.2838 15.4604C46.2834 15.5804 46.275 15.7444 46.2584 15.9523C46.2419 16.1123 46.2174 16.3042 46.1847 16.5281C46.1521 16.752 46.1154 16.9799 46.0748 17.2118C46.0179 17.5076 45.9171 17.7993 45.7722 18.0868C45.6354 18.3663 45.4467 18.6177 45.2061 18.841C44.9734 19.0642 44.6889 19.2473 44.3525 19.3902C44.0161 19.5251 43.6279 19.5959 43.1879 19.6025C43.0279 19.6019 42.9278 19.6136 42.8878 19.6375C42.8477 19.6614 42.8275 19.7333 42.8271 19.8533L42.8244 20.8013C42.8236 21.0813 42.8188 21.3653 42.81 21.6532C42.8091 21.9412 42.8083 22.2292 42.8075 22.5172C42.8071 22.6452 42.8067 22.7732 42.8064 22.9012C42.806 23.0292 42.8096 23.1573 42.8173 23.2853L42.8622 24.3654C42.8613 24.6774 42.7007 24.8729 42.3805 24.9519C42.3164 24.9677 42.2524 24.9755 42.1884 24.9753C42.1324 24.9831 42.0724 24.9909 42.0083 24.9987C41.7523 25.0138 41.4963 25.021 41.2403 25.0202C40.9843 25.0274 40.7282 25.0345 40.4722 25.0417L40.3882 25.0414ZM48.2146 25.0307C48.1266 25.0304 48.0427 25.0062 47.9628 24.9579C47.7871 24.8533 47.6996 24.697 47.7002 24.489C47.7004 24.425 47.7045 24.3771 47.7126 24.3451C47.7287 24.2971 47.7449 24.2492 47.761 24.2012C47.7851 24.1613 47.8052 24.1214 47.8213 24.0814C48.1516 23.3145 48.5098 22.5237 48.8962 21.7089C49.2905 20.9022 49.6928 20.0875 50.1032 19.2648C50.1918 19.0731 50.2363 18.9012 50.2367 18.7492C50.2211 18.6212 50.2053 18.5211 50.1896 18.4491C50.1738 18.369 50.154 18.2929 50.1302 18.2209C49.8289 17.2999 49.5515 16.383 49.2981 15.4702C49.0447 14.5573 48.7953 13.6645 48.5498 12.7917C48.4628 12.4634 48.3957 12.1352 48.3486 11.8071C48.3096 11.4789 48.2345 11.1507 48.1235 10.8223C48.1076 10.7823 48.0957 10.7423 48.0878 10.7022C48.0799 10.6622 48.0761 10.6222 48.0762 10.5822C48.0767 10.4142 48.1411 10.2704 48.2694 10.1508C48.3978 10.0312 48.574 9.95979 48.798 9.93652C48.9901 9.92114 49.1821 9.91376 49.3741 9.91438C49.5661 9.91499 49.7581 9.91161 49.9501 9.90423C50.0381 9.90452 50.1261 9.9088 50.2141 9.91709C50.3021 9.92537 50.3901 9.92965 50.4781 9.92994C50.646 9.93848 50.778 9.95091 50.8739 9.96722C50.9699 9.98353 51.0498 10.0158 51.1137 10.064C51.1775 10.1122 51.2293 10.1844 51.269 10.2805C51.3168 10.3766 51.3684 10.5048 51.4239 10.665C51.4636 10.7771 51.4953 10.8932 51.5189 11.0133C51.5506 11.1254 51.5743 11.2415 51.5899 11.3615C51.6686 11.8178 51.7752 12.3061 51.9097 12.8266C52.0523 13.339 52.2107 13.8836 52.385 14.4601C52.4491 14.4203 52.5013 14.3645 52.5415 14.2926C52.5897 14.2128 52.634 14.1369 52.6742 14.0651C52.9881 13.4101 53.3059 12.7711 53.6277 12.1481C53.9575 11.5252 54.2432 10.9381 54.4848 10.3869C54.5251 10.275 54.5813 10.1832 54.6535 10.1114C54.7659 9.99978 54.89 9.94418 55.026 9.94462C55.09 9.94483 55.154 9.95703 55.2179 9.98124C55.4177 10.0539 55.5293 10.1982 55.5527 10.4143L55.5525 10.4863C55.5521 10.6143 55.5318 10.7303 55.4915 10.8341C55.4512 10.938 55.4069 11.0419 55.3586 11.1457C55.0609 11.7367 54.747 12.3717 54.4171 13.0507C54.0871 13.7296 53.7412 14.4205 53.3791 15.1233C53.2343 15.4189 53.1256 15.6465 53.0532 15.8063C52.9807 15.9581 52.9443 16.1139 52.9438 16.2739C52.9435 16.3939 52.9631 16.53 53.0026 16.6821C53.0422 16.8263 53.0938 16.9904 53.1572 17.1746C53.3633 17.8393 53.5574 18.4999 53.7395 19.1565C53.9296 19.8131 54.1278 20.4698 54.3339 21.1264C54.4924 21.631 54.667 22.1275 54.8576 22.6161C55.0482 23.1048 55.2708 23.5815 55.5255 24.0463C55.5493 24.1024 55.5692 24.1544 55.585 24.2025C55.6009 24.2506 55.6087 24.3026 55.6086 24.3586C55.6082 24.4946 55.5598 24.6184 55.4635 24.7301C55.3672 24.8418 55.231 24.9174 55.0549 24.9568C54.8947 24.9963 54.7307 25.0197 54.5627 25.0272C54.3946 25.0427 54.2266 25.0501 54.0586 25.0496L52.9546 25.046C52.7786 25.0294 52.6308 24.981 52.511 24.9006C52.3992 24.8202 52.3116 24.6999 52.248 24.5397C52.0496 24.0031 51.8391 23.4744 51.6166 22.9537C51.3941 22.433 51.2076 21.8964 51.0572 21.3439C51.0177 21.1917 50.9781 21.0436 50.9385 20.8995C50.8989 20.7554 50.8473 20.6392 50.7835 20.551C50.7034 20.5907 50.6512 20.6426 50.6271 20.7065C50.6029 20.7624 50.5747 20.8223 50.5425 20.8862C50.2448 21.4772 49.9592 22.0563 49.6855 22.6234C49.4199 23.1986 49.1743 23.7498 48.9488 24.2771C48.9085 24.3729 48.8683 24.4648 48.828 24.5527C48.7877 24.6486 48.7315 24.7364 48.6592 24.8161C48.5388 24.9598 48.3906 25.0313 48.2146 25.0307Z" fill="white"/>
</svg>
