<svg width="112" height="49" viewBox="0 0 112 49" fill="none" xmlns="http://www.w3.org/2000/svg">
<path d="M5.01282 31.3037L2.45223 26.9789L1.59513 10.0561C3.00183 7.7083 7.78073 2.95085 15.6427 2.70341C25.4702 2.3941 37.2061 1.28178 48.4621 1.90941C59.7181 2.53703 71.6124 2.83843 75.575 2.99745C79.5377 3.15647 95.6157 3.27407 100.736 6.11819C104.831 8.39348 108.511 12.5874 109.838 14.3999C109.408 14.7345 108.786 15.8001 109.731 17.3861C110.677 18.9722 111.121 21.3708 111.224 22.3718C110.647 22.9351 109.488 24.2021 109.468 24.7642C109.443 25.4669 105.682 25.4919 107.528 26.4456C109.004 27.2085 109.307 29.273 109.273 30.2099C107.782 31.0297 104.13 32.6776 101.456 32.711C98.7812 32.7444 96.4231 33.2713 95.5784 33.5306L95.5282 34.9361C96.7712 35.2205 99.0044 35.8495 97.9933 36.0904C96.7293 36.3915 95.5094 35.463 94.4477 35.9481C93.3861 36.4333 91.8885 37.4287 93.1273 37.8303C93.5001 38.1694 93.8705 38.346 94.2055 38.4224C94.6223 38.3548 95.0724 38.3036 95.4089 38.2737C95.1896 38.4094 94.7431 38.5449 94.2055 38.4224C93.4977 38.5371 92.8859 38.699 93.0896 38.8843C93.4133 39.1787 94.733 39.6539 95.3524 39.8547L96.3575 40.9505L93.0205 40.8166C91.1852 40.743 91.5229 41.8121 91.9212 42.3558C91.4304 42.4534 90.1593 42.5666 89.0014 42.2386C87.554 41.8287 88.1608 42.3808 85.6518 42.4561C83.6446 42.5162 76.334 42.1408 72.9296 41.9455C73.2161 41.7224 73.4136 41.2612 71.9119 41.201C70.0349 41.1257 69.8263 41.1173 67.5196 41.3766C65.2129 41.6358 49.1663 40.64 42.0752 40.3555L31.8557 39.9454C28.5673 40.3998 20.7822 41.225 15.9486 40.8903C9.90659 40.4719 4.75537 38.506 4.76164 38.3303C4.76667 38.1898 3.68909 37.1731 3.14967 36.6823C3.69537 36.9975 4.79304 37.452 4.81816 36.7493C4.84328 36.0466 3.80421 33.9525 3.28154 32.9933L5.01282 31.3037Z" fill="#FDA3C4"/>
<path d="M8.61755 41.4757C7.95016 41.4489 7.89723 42.1505 7.95419 42.5046L6.59227 42.6259C5.91089 43.1849 4.67454 44.2729 5.18011 44.1525C5.68568 44.032 6.65887 43.6841 7.08227 43.5251C7.36873 43.3021 9.27642 42.9095 14.6156 43.1238C21.2895 43.3916 20.6764 43.0152 21.3021 43.0403C21.9278 43.0654 9.45179 41.5092 8.61755 41.4757Z" fill="#FDA3C4"/>
<path d="M38.4164 29.8069C38.6297 29.8076 38.8378 29.7709 39.0407 29.6969C39.2436 29.6229 39.4465 29.5382 39.6494 29.4429C39.9164 29.3157 40.1569 29.1672 40.3707 28.9972C40.5845 28.8379 40.7718 28.6252 40.9325 28.359C41.0933 28.1035 41.2169 27.7839 41.3033 27.4002C41.4004 27.0165 41.4604 26.542 41.4834 25.9768L41.4682 25.7047C41.4577 25.63 41.4526 25.5607 41.4528 25.4967C41.453 25.422 41.4532 25.342 41.4535 25.2567C41.4537 25.182 41.4539 25.1127 41.4541 25.0487C41.4543 24.974 41.4492 24.8993 41.4387 24.8246C41.4087 24.1205 41.1377 23.7676 40.6257 23.766C40.4977 23.7656 40.3377 23.7917 40.1455 23.8444C39.7718 23.9606 39.3929 24.0607 39.0086 24.1448C38.6244 24.2182 38.2403 24.281 37.8561 24.3331C37.696 24.3539 37.5892 24.4015 37.5357 24.476C37.4928 24.5399 37.4712 24.6411 37.4708 24.7798L37.3832 27.4195L37.3992 27.4196C37.3984 27.6969 37.3976 27.9743 37.3968 28.2516C37.396 28.5289 37.4006 28.8063 37.4104 29.0836C37.4204 29.3183 37.4627 29.4731 37.5371 29.5481C37.6115 29.6336 37.766 29.7035 38.0005 29.7576C38.1391 29.79 38.2777 29.8064 38.4164 29.8069ZM37.5728 22.6841C37.7224 22.6099 37.8666 22.5464 38.0054 22.4935C38.1549 22.43 38.3044 22.3612 38.454 22.287C38.9026 22.0751 39.2714 21.7989 39.5604 21.4585C39.8601 21.1075 40.0692 20.6922 40.188 20.2126C40.3283 19.6263 40.4367 19.0454 40.513 18.4696C40.6 17.8832 40.6444 17.2914 40.6461 16.694C40.647 16.3634 40.632 16.0326 40.6009 15.7019C40.5699 15.3711 40.5282 15.035 40.4758 14.6935C40.4338 14.48 40.3757 14.2771 40.3016 14.0849C40.2275 13.882 40.1321 13.6897 40.0152 13.508C39.8346 13.2621 39.6218 13.08 39.3768 12.9619C39.1425 12.8331 38.8867 12.7683 38.6094 12.7674C38.332 12.7665 38.0812 12.8191 37.8569 12.925C37.7715 12.9674 37.7126 13.0152 37.6805 13.0684C37.6484 13.111 37.6322 13.1749 37.6319 13.2603L37.5155 14.7959C37.4932 15.1585 37.4761 15.5158 37.4644 15.8677C37.4634 16.2197 37.4624 16.5771 37.4614 16.9397C37.459 17.7611 37.4673 18.5771 37.4863 19.3878C37.5053 20.1986 37.5136 21.0199 37.5112 21.8519L37.5095 22.4599C37.5094 22.4813 37.5147 22.5133 37.5252 22.556C37.5358 22.588 37.5517 22.6307 37.5728 22.6841ZM36.8119 31.3697C36.4812 31.3687 36.1506 31.3569 35.82 31.3345C35.5 31.3122 35.1802 31.2631 34.8604 31.1874C34.6152 31.1333 34.3861 31.0579 34.173 30.9612C33.9706 30.8645 33.7629 30.7679 33.5499 30.6712C33.3368 30.5638 33.1986 30.4141 33.1351 30.2218C33.0823 30.0403 33.0562 29.8429 33.0569 29.6296C33.0476 29.1496 33.0383 28.6695 33.029 28.1895C33.0197 27.7201 33.0157 27.2454 33.0171 26.7654L33.16 21.5819C33.1617 20.9739 33.1582 20.3659 33.1492 19.7578C33.1404 19.1391 33.1261 18.5258 33.1065 17.9177L33.0932 16.9736C33.0954 16.227 33.1189 15.4804 33.1637 14.7339C33.2085 13.9873 33.248 13.2408 33.2821 12.4942C33.2936 12.2169 33.3582 12.0091 33.4759 11.8709C33.6043 11.7219 33.8234 11.6053 34.1329 11.521C34.4959 11.4261 34.8588 11.342 35.2217 11.2685C35.5845 11.195 35.9527 11.1482 36.3261 11.128L36.9821 11.1142C37.6114 11.1162 38.2406 11.1662 38.8697 11.2643C39.68 11.3842 40.3405 11.6957 40.851 12.1987C41.3616 12.7016 41.7063 13.3588 41.8853 14.17C41.9695 14.565 42.0271 14.9598 42.0579 15.3546C42.0995 15.7387 42.1197 16.1281 42.1186 16.5228C42.1174 16.9281 42.0949 17.3387 42.051 17.7546C42.0178 18.1705 41.974 18.5863 41.9194 19.0021C41.8651 19.3646 41.8054 19.7271 41.7403 20.0896C41.6753 20.4414 41.5836 20.7877 41.4653 21.1287C41.3794 21.3204 41.2829 21.5068 41.1757 21.6878C41.0685 21.8687 40.956 22.0551 40.8381 22.2467C40.966 22.2898 41.0832 22.3221 41.1898 22.3438C41.2964 22.3655 41.3977 22.3978 41.4936 22.4408C41.877 22.6234 42.1857 22.8644 42.4195 23.1638C42.664 23.4526 42.8123 23.8104 42.8644 24.2372C42.9271 24.6854 42.9578 25.1389 42.9565 25.5975C42.9562 25.6935 42.9504 25.8428 42.9392 26.0455C42.9279 26.2481 42.9113 26.4614 42.8894 26.6853C42.878 26.9093 42.8615 27.1172 42.8396 27.3092C42.8176 27.5118 42.8012 27.661 42.7903 27.757C42.7358 28.1622 42.6227 28.5298 42.4511 28.8599C42.2902 29.1901 42.0653 29.4933 41.7765 29.7697C41.2632 30.2268 40.7181 30.5983 40.1413 30.8845C39.5644 31.1706 38.9293 31.3232 38.2359 31.3423C37.9906 31.3522 37.7506 31.3568 37.5159 31.356C37.2919 31.3659 37.0572 31.3705 36.8119 31.3697ZM45.9827 31.5593C45.5987 31.5581 45.3269 31.4879 45.1673 31.3487C45.0184 31.2202 44.9391 30.9533 44.9296 30.5479C44.9195 30.3666 44.9094 30.1799 44.8992 29.9878C44.8998 29.8065 44.9003 29.6252 44.9008 29.4438L44.9186 28.8199L44.9559 26.98C44.9576 26.3933 44.9433 25.8119 44.9129 25.2358C44.8933 24.6491 44.8843 24.0624 44.886 23.4757C44.8873 23.0064 44.9047 22.5318 44.9381 22.0519L44.941 21.0279C44.9752 20.2814 45.004 19.5401 45.0274 18.8042C45.0616 18.0576 45.0797 17.3217 45.0818 16.5963C45.0837 15.903 45.0698 15.2043 45.0398 14.5002L45.0263 13.6201C45.027 13.3748 45.0277 13.1402 45.0283 12.9162C45.0397 12.6815 45.051 12.4416 45.0624 12.1963C45.0846 11.887 45.1546 11.6686 45.2723 11.5409C45.39 11.4026 45.6036 11.3127 45.9131 11.271C46.3399 11.2084 46.788 11.1778 47.2573 11.1793L47.6253 11.1805C48.1693 11.1823 48.7027 11.184 49.2253 11.1857C49.748 11.1767 50.2814 11.1731 50.8254 11.1749C51.7214 11.1777 52.612 11.1966 53.4972 11.2315C53.5719 11.2424 53.6465 11.2533 53.7211 11.2642C53.7958 11.2751 53.8704 11.2914 53.945 11.3129C54.0942 11.3667 54.2113 11.4525 54.2962 11.5701C54.3812 11.6877 54.4235 11.8158 54.4231 11.9545L54.4229 12.0505C54.3792 12.381 54.192 12.5884 53.8611 12.6727C53.8077 12.6832 53.749 12.6936 53.685 12.7041C53.6317 12.7039 53.5783 12.7038 53.525 12.7036L53.413 12.7032C53.285 12.6921 53.157 12.6864 53.029 12.686C52.9117 12.6856 52.789 12.6852 52.661 12.6848C52.3624 12.6838 52.0637 12.6882 51.765 12.6979C51.4663 12.7076 51.1676 12.7173 50.8689 12.727L50.485 12.6938C50.357 12.6934 50.229 12.6983 50.101 12.7085C49.9729 12.7188 49.8449 12.7237 49.7169 12.7233C49.5036 12.7226 49.3966 12.8236 49.396 13.0263L49.3778 13.7942C49.3975 14.3703 49.4119 14.9463 49.4209 15.5223C49.4405 16.0984 49.4495 16.6798 49.4478 17.2664C49.4458 17.9704 49.4331 18.6797 49.4097 19.3943C49.3864 20.0983 49.3525 20.7382 49.3082 21.314C49.2972 21.4313 49.2915 21.5486 49.2912 21.666C49.2909 21.7833 49.2905 21.9006 49.2902 22.018L49.2895 22.242C49.2893 22.338 49.2944 22.4126 49.3049 22.466C49.3154 22.5194 49.342 22.5621 49.3845 22.5943C49.4271 22.6264 49.4857 22.6479 49.5603 22.6588C49.6456 22.6698 49.7576 22.6755 49.8963 22.6759L50.2642 22.6931L50.9843 22.6794C51.1123 22.6798 51.2403 22.6856 51.3682 22.6967C51.4962 22.6971 51.6242 22.7188 51.7521 22.7619C51.9226 22.8158 52.0503 22.9122 52.1352 23.0511C52.2309 23.1795 52.2785 23.3183 52.278 23.4676C52.2778 23.5529 52.2723 23.6169 52.2615 23.6596C52.229 23.8195 52.1486 23.9579 52.0203 24.0748C51.9026 24.1811 51.7638 24.234 51.6038 24.2334L51.4599 24.217C51.3533 24.1953 51.252 24.1843 51.156 24.184C51.06 24.173 50.9587 24.1674 50.852 24.167L50.116 24.1806L49.636 24.1791C49.4973 24.1786 49.4012 24.2103 49.3477 24.2742C49.3049 24.3273 49.2833 24.4233 49.2829 24.5619L49.2825 24.6899C49.3032 24.914 49.3132 25.138 49.3126 25.362C49.312 25.5754 49.3113 25.794 49.3107 26.018C49.3094 26.4767 49.3029 26.8767 49.2912 27.218C49.2902 27.5593 49.2841 27.858 49.2727 28.1139C49.2719 28.3806 49.2659 28.6152 49.2546 28.8179C49.254 29.0312 49.2534 29.2392 49.2528 29.4419C49.2522 29.6659 49.2678 29.8099 49.2996 29.874C49.3314 29.9488 49.4273 29.9864 49.5873 29.987L53.2678 29.8228C53.4171 29.8233 53.5504 29.8451 53.6676 29.8881C53.9872 30.0065 54.1466 30.2257 54.1457 30.5457L54.1456 30.5777C54.1448 30.8657 54.0001 31.0785 53.7117 31.2163C53.5943 31.2692 53.4768 31.3009 53.3595 31.3111C53.2528 31.3215 53.1408 31.3264 53.0234 31.3261C52.3514 31.3452 51.6846 31.3751 51.0232 31.4156C50.3724 31.4562 49.7163 31.4754 49.055 31.4732C48.991 31.473 48.9057 31.4728 48.799 31.4724C48.6923 31.4827 48.5803 31.4877 48.4629 31.4873L48.063 31.486C47.7216 31.4849 47.3749 31.4945 47.0229 31.5147C46.6814 31.5456 46.3347 31.5605 45.9827 31.5593ZM61.0855 22.76C61.1495 22.7602 61.2188 22.7551 61.2935 22.7447C61.3789 22.7343 61.4749 22.7186 61.5817 22.6976C61.6137 22.6977 61.6457 22.6925 61.6777 22.682C61.7097 22.6714 61.7364 22.6608 61.7578 22.6502C62.3342 22.5134 62.7616 22.2588 63.04 21.8863C63.3291 21.5139 63.5117 21.0559 63.5879 20.5121C63.6422 20.2029 63.6803 19.9097 63.7025 19.6325C63.7353 19.3446 63.7626 19.126 63.7844 18.9767C63.7952 18.9234 63.8007 18.8701 63.8008 18.8168C63.801 18.7635 63.8011 18.7101 63.8013 18.6568C63.8016 18.5501 63.7965 18.4541 63.7861 18.3687C63.7864 18.2727 63.7866 18.1874 63.7868 18.1127C63.737 16.9072 63.527 15.7386 63.1569 14.6067C63.0089 14.1582 62.7859 13.8001 62.488 13.5325C62.1901 13.2542 61.8334 13.0344 61.4179 12.8731C61.3326 12.8515 61.2473 12.8352 61.162 12.8242C61.0768 12.8026 60.9915 12.781 60.9062 12.7594L60.7783 12.743C60.5969 12.7424 60.506 12.8435 60.5054 13.0461L60.5194 13.7342C60.5386 14.4702 60.5526 15.1903 60.5612 15.8943C60.5806 16.5877 60.6001 17.2118 60.6198 17.7665C60.6184 18.2785 60.6166 18.9025 60.6144 19.6385C60.6124 20.3638 60.6155 21.1158 60.624 21.8945C60.623 22.2252 60.649 22.4546 60.702 22.5828C60.755 22.7003 60.8828 22.7594 61.0855 22.76ZM57.4285 31.4523C57.3751 31.4521 57.3165 31.4466 57.2525 31.4357C57.1992 31.4355 57.1459 31.43 57.0926 31.4192C56.5062 31.3213 56.2085 30.9737 56.1995 30.3763C56.1695 29.6935 56.1502 28.9841 56.1417 28.2481C56.1331 27.5227 56.1245 26.792 56.116 26.056C56.1181 25.32 56.1202 24.5894 56.1223 23.864C56.1244 23.128 56.1264 22.424 56.1283 21.752L56.1349 19.464C56.1365 18.92 56.1327 18.3867 56.1235 17.864C56.1251 17.3307 56.1159 16.7973 56.0961 16.2639C56.0765 15.6772 56.0622 15.0904 56.0532 14.5038C56.0549 13.9171 56.0459 13.3304 56.0263 12.7437L56.027 12.4877C56.0389 12.0397 56.1252 11.7306 56.2857 11.5605C56.4568 11.3797 56.7665 11.274 57.2146 11.2435L57.8226 11.2294L59.0066 11.2493L60.2866 11.2534L60.9265 11.2875C61.8328 11.3971 62.5947 11.6875 63.212 12.1588C63.8399 12.6302 64.2966 13.3144 64.5821 14.2113C64.9944 15.5033 65.2306 16.8161 65.2907 18.1496L65.2903 18.2936C65.2901 18.3789 65.2897 18.5069 65.2892 18.6776C65.2888 18.8376 65.2775 19.0562 65.2553 19.3335C65.2334 19.5467 65.2007 19.8026 65.1571 20.1012C65.1136 20.3997 65.0647 20.7035 65.0105 21.0127C64.9347 21.4071 64.8003 21.796 64.6072 22.1794C64.4247 22.5522 64.1731 22.8873 63.8523 23.185C63.5421 23.4826 63.1627 23.7268 62.7142 23.9173C62.2656 24.0972 61.748 24.1915 61.1613 24.2003C60.948 24.1996 60.8146 24.2152 60.7612 24.247C60.7078 24.2788 60.6808 24.3747 60.6804 24.5347L60.6767 25.7987C60.6757 26.1721 60.6692 26.5507 60.6575 26.9347C60.6564 27.3187 60.6553 27.7027 60.6542 28.0867C60.6537 28.2573 60.6532 28.428 60.6527 28.5987C60.6522 28.7693 60.657 28.94 60.6672 29.1107L60.7271 30.5509C60.7259 30.9669 60.5118 31.2276 60.0848 31.3329C59.9994 31.3539 59.9141 31.3643 59.8287 31.364C59.754 31.3745 59.674 31.3849 59.5886 31.3953C59.2472 31.4155 58.9059 31.425 58.5645 31.4239C58.2232 31.4335 57.8818 31.4431 57.5405 31.4526L57.4285 31.4523ZM67.8637 31.438C67.7463 31.4376 67.6344 31.4052 67.5279 31.3409C67.2937 31.2015 67.1769 30.9931 67.1777 30.7157C67.178 30.6304 67.1835 30.5664 67.1943 30.5238C67.2158 30.4599 67.2373 30.3959 67.2588 30.332C67.291 30.2788 67.3178 30.2255 67.3393 30.1723C67.7796 29.1497 68.2573 28.0952 68.7724 27.0089C69.2982 25.9332 69.8346 24.847 70.3818 23.7501C70.4999 23.4944 70.5592 23.2653 70.5598 23.0626C70.5389 22.8919 70.518 22.7585 70.4969 22.6624C70.4759 22.5557 70.4495 22.4543 70.4178 22.3582C70.016 21.1302 69.6462 19.9077 69.3083 18.6906C68.9705 17.4735 68.6379 16.2831 68.3106 15.1193C68.1945 14.6816 68.1051 14.244 68.0424 13.8065C67.9903 13.3689 67.8902 12.9313 67.7421 12.4935C67.721 12.4401 67.7051 12.3867 67.6946 12.3333C67.6841 12.28 67.6789 12.2266 67.6791 12.1733C67.6797 11.9493 67.7656 11.7575 67.9367 11.5981C68.1078 11.4387 68.3428 11.3434 68.6415 11.3124C68.8976 11.2919 69.1536 11.282 69.4096 11.2829C69.6656 11.2837 69.9216 11.2792 70.1777 11.2693C70.295 11.2697 70.4123 11.2754 70.5296 11.2865C70.6469 11.2975 70.7642 11.3032 70.8816 11.3036C71.1055 11.315 71.2815 11.3316 71.4094 11.3533C71.5374 11.3751 71.6439 11.4181 71.7291 11.4823C71.8142 11.5466 71.8833 11.6428 71.9362 11.771C71.9999 11.8992 72.0687 12.0701 72.1428 12.2837C72.1957 12.4332 72.2379 12.588 72.2694 12.7481C72.3117 12.8976 72.3432 13.0523 72.3641 13.2124C72.469 13.8207 72.6111 14.4719 72.7905 15.1658C72.9805 15.8491 73.1918 16.5751 73.4242 17.3438C73.5097 17.2908 73.5793 17.2163 73.6329 17.1205C73.6972 17.0141 73.7561 16.9129 73.8097 16.8171C74.2283 15.9438 74.652 15.0918 75.0811 14.2612C75.5208 13.4306 75.9017 12.6478 76.2239 11.9129C76.2776 11.7637 76.3526 11.6413 76.4489 11.5456C76.5987 11.3967 76.7642 11.3226 76.9456 11.3232C77.0309 11.3235 77.1162 11.3397 77.2014 11.372C77.4678 11.4689 77.6166 11.6614 77.6478 11.9495L77.6475 12.0455C77.647 12.2161 77.6199 12.3707 77.5661 12.5092C77.5124 12.6477 77.4533 12.7862 77.3889 12.9246C76.992 13.7127 76.5736 14.5593 76.1336 15.4646C75.6937 16.3698 75.2324 17.291 74.7497 18.2281C74.5566 18.6222 74.4117 18.9257 74.3151 19.1387C74.2185 19.3411 74.1699 19.5489 74.1693 19.7623C74.1688 19.9223 74.195 20.1037 74.2477 20.3065C74.3005 20.4987 74.3692 20.7176 74.4538 20.9632C74.7286 21.8494 74.9874 22.7303 75.2302 23.6057C75.4837 24.4812 75.7479 25.3567 76.0227 26.2323C76.2341 26.905 76.4668 27.5671 76.721 28.2185C76.9751 28.87 77.2719 29.5057 77.6115 30.1254C77.6433 30.2002 77.6697 30.2696 77.6909 30.3337C77.712 30.3978 77.7225 30.4671 77.7223 30.5418C77.7218 30.7231 77.6573 30.8882 77.5289 31.0372C77.4004 31.1861 77.2188 31.2868 76.984 31.3394C76.7705 31.3921 76.5517 31.4233 76.3277 31.4333C76.1037 31.4539 75.8796 31.4638 75.6556 31.4631L74.1836 31.4584C73.949 31.4363 73.7519 31.3716 73.5922 31.2645C73.4432 31.1573 73.3263 30.9969 73.2416 30.7833C72.977 30.0678 72.6963 29.3629 72.3997 28.6686C72.103 27.9743 71.8544 27.2588 71.6538 26.5222C71.6011 26.3193 71.5483 26.1218 71.4955 25.9297C71.4427 25.7375 71.3739 25.5826 71.2889 25.465C71.182 25.518 71.1125 25.5871 71.0803 25.6723C71.048 25.7469 71.0105 25.8268 70.9676 25.912C70.5706 26.7 70.1897 27.4721 69.8249 28.2283C69.4707 28.9951 69.1433 29.7301 68.8426 30.4331C68.7889 30.5609 68.7352 30.6834 68.6815 30.8006C68.6278 30.9284 68.5528 31.0455 68.4565 31.1519C68.2959 31.3434 68.0983 31.4387 67.8637 31.438Z" fill="white"/>
</svg>
