<svg width="26" height="26" fill="none" xmlns="http://www.w3.org/2000/svg"><path d="M24.984.005H1.016C.455.005 0 .46 0 1.02 0 4.956 1.164 8.4 3.664 11.862c1.56 2.16 4.358 3.75 5.781 4.462v6.166c0 .388.221.742.57.913l5.077 2.488a1.015 1.015 0 001.463-.912v-4.186a1.016 1.016 0 00-2.032 0v2.557l-3.046-1.493v-6.171c0-.397-.232-.757-.592-.923-1.896-.871-4.356-2.403-5.574-4.09C3.293 7.88 2.247 5.11 2.06 2.036h21.877c-.185 3.074-1.231 5.843-3.249 8.637-1.287 1.783-3.71 3.346-5.539 4.104a1.016 1.016 0 00.778 1.876c1.94-.804 4.784-2.541 6.408-4.79C24.836 8.4 26 4.955 26 1.02c0-.56-.455-1.015-1.016-1.015z" fill="#fff"/></svg>