<svg width="32" height="32" fill="none" xmlns="http://www.w3.org/2000/svg"><path d="M3.143 3h10.714c.569 0 1.114.158 1.515.44.402.28.628.662.628 1.06s-.226.78-.628 1.06c-.402.282-.947.44-1.515.44H3.143c-.568 0-1.114-.158-1.515-.44C1.226 5.28 1 4.899 1 4.5s.226-.78.628-1.06c.401-.282.947-.44 1.515-.44zm15 24h10.714c.569 0 1.114.158 1.515.44.402.28.628.662.628 1.06s-.226.78-.628 1.06c-.401.282-.947.44-1.515.44H18.143c-.569 0-1.114-.158-1.515-.44-.402-.28-.628-.662-.628-1.06s.226-.78.628-1.06c.401-.282.947-.44 1.515-.44zm-15-18h25.714c.569 0 1.114.158 1.515.44.402.28.628.662.628 1.06s-.226.78-.628 1.06c-.401.282-.947.44-1.515.44H3.143c-.568 0-1.114-.158-1.515-.44C1.226 11.28 1 10.899 1 10.5s.226-.78.628-1.06c.401-.282.947-.44 1.515-.44zM1.348 19.306c.007-.126.013-.233.013-.32l.02-.484c.006-.163.006-.37.006-.622 0-.245-.006-.52-.02-.81-.012-.301-.026-.515-.032-.634-.007-.12-.02-.245-.033-.39-.013-.144-.026-.25-.033-.32-.006-.075-.02-.163-.033-.257l-.013-.138a.21.21 0 01.06-.17.275.275 0 01.183-.081.296.296 0 01.204.056.22.22 0 01.098.164l.013.138c.014.094.027.175.033.245.007.069.02.182.033.326.013.145.026.283.033.415.007.125.02.332.033.627a15.527 15.527 0 01.007 1.45.972.972 0 00.091-.1 4.18 4.18 0 01.237-.188 2.74 2.74 0 01.328-.207 3.5 3.5 0 01.335-.157c.112-.032.263-.057.453-.076a1.64 1.64 0 01.453.02c.099.018.19.043.283.075a1.757 1.757 0 01.61.49c.066.094.125.194.171.3.053.12.092.321.125.616.04.302.046.515.033.634a1.519 1.519 0 01-.06.352 2.37 2.37 0 01-.137.32 1.87 1.87 0 01-.23.34 1.65 1.65 0 01-.276.276 3.66 3.66 0 01-.38.232c-.172.088-.31.144-.408.176a3.899 3.899 0 01-.624.107l-.19.018a2.053 2.053 0 01-.296 0 1.139 1.139 0 01-.335-.056l-.079-.032a.252.252 0 01-.157-.119.211.211 0 01-.007-.188.228.228 0 01.145-.132.303.303 0 01.21 0l.092.031c.033.007.085.013.157.02h.217c.053-.007.118-.013.19-.02.066-.006.152-.018.25-.031a1.548 1.548 0 00.552-.182c.144-.075.243-.138.302-.176.052-.044.118-.113.197-.2a1.104 1.104 0 00.27-.497c.019-.082.039-.176.058-.276a4.048 4.048 0 00-.131-1.049c-.033-.075-.066-.15-.112-.213a1.673 1.673 0 00-.19-.189c-.086-.056-.145-.1-.19-.119a.766.766 0 00-.171-.056 2.004 2.004 0 00-.283 0 1.235 1.235 0 00-.551.169 2.06 2.06 0 00-.25.157l-.203.157c-.053.05-.138.163-.257.333a1.418 1.418 0 00-.098.125 4.65 4.65 0 00-.158.245 2.768 2.768 0 00-.013.245 15.5 15.5 0 01-.059.678c-.013.17-.026.302-.04.39a8.408 8.408 0 00-.039.332 5.881 5.881 0 01-.033.283 1.127 1.127 0 01-.059.226c-.006.006-.02.012-.026.025-.013.013-.033.025-.072.057-.04.025-.072.05-.105.069a.503.503 0 01-.119.05.273.273 0 01-.118.012.15.15 0 01-.092-.05.286.286 0 01-.059-.125c-.013-.057-.02-.12-.033-.189-.013-.069-.02-.138-.026-.194A2.334 2.334 0 011 21.02c0-.075.007-.22.02-.433a2.786 2.786 0 01.138-.78c.032-.093.065-.187.111-.288a.498.498 0 01.08-.213zm7.308 2.598a.282.282 0 01-.203.107l-.17.018a2.308 2.308 0 01-.566-.031 2.857 2.857 0 01-.61-.176 2.774 2.774 0 01-.427-.232 2.59 2.59 0 01-.44-.433c-.171-.201-.29-.365-.348-.49-.066-.132-.119-.358-.158-.678-.046-.32-.059-.547-.033-.685.033-.132.092-.307.184-.527a3.32 3.32 0 01.302-.565c.112-.151.21-.277.309-.364.098-.095.25-.195.46-.314.223-.132.492-.22.8-.264.303-.044.52-.057.664-.038.138.013.328.063.571.157.25.094.434.176.552.245.118.069.243.176.374.308.125.131.224.257.283.364.065.113.131.289.19.527a3.14 3.14 0 01.046 1.137 2.726 2.726 0 01-.144.54 2.57 2.57 0 01-.283.577c-.105.157-.25.302-.44.434-.19.138-.335.226-.44.264-.092.05-.256.087-.473.119zm-1.326-.515a.326.326 0 01.27-.05l.176.056c.092.032.19.05.303.057.105.012.25.006.44-.02.19-.024.315-.05.38-.074.066-.026.171-.095.316-.195.144-.107.25-.214.328-.32.085-.113.158-.264.223-.459.073-.2.119-.358.138-.458.013-.107.02-.245.02-.42a2.6 2.6 0 00-.066-.56c-.046-.2-.092-.339-.138-.408a1.843 1.843 0 00-.486-.508 2.427 2.427 0 00-.433-.189 2.363 2.363 0 00-.453-.12 1.985 1.985 0 00-.493.032c-.23.038-.427.107-.584.195-.17.1-.296.176-.361.232-.073.07-.158.17-.25.302a2.206 2.206 0 00-.256.477 1.689 1.689 0 00-.145.44c-.013.094-.006.276.02.546.04.276.079.452.125.54.046.094.144.226.295.402.145.17.257.282.335.345.08.038.178.094.296.157zm6.786.515a.282.282 0 01-.204.107l-.17.018a2.308 2.308 0 01-.565-.031 2.857 2.857 0 01-.611-.176 2.775 2.775 0 01-.427-.232 2.591 2.591 0 01-.44-.433 2.535 2.535 0 01-.348-.49c-.066-.132-.118-.358-.158-.678-.045-.32-.059-.547-.032-.685a3.57 3.57 0 01.184-.527c.091-.22.196-.408.302-.565.111-.151.21-.277.308-.364.099-.095.25-.195.46-.314.223-.132.493-.22.801-.264.302-.044.519-.057.663-.038.138.013.329.063.572.157.25.094.433.176.551.245.119.069.243.176.375.308.124.131.223.257.282.364.066.113.131.289.19.527a3.067 3.067 0 01.046 1.136 2.717 2.717 0 01-.144.54 2.574 2.574 0 01-.282.578c-.105.157-.25.302-.44.434-.19.138-.335.226-.44.264-.092.05-.257.087-.473.119zm-1.327-.515a.326.326 0 01.27-.05l.177.056c.092.032.19.05.302.057.105.012.25.006.44-.02.19-.024.315-.05.38-.074.066-.026.172-.095.316-.195.145-.107.25-.214.328-.32.086-.113.158-.264.224-.459.072-.2.118-.358.138-.458.013-.107.02-.245.02-.42 0-.164-.02-.352-.066-.56-.046-.2-.092-.339-.138-.408a1.845 1.845 0 00-.486-.508 2.425 2.425 0 00-.434-.189 2.344 2.344 0 00-.453-.12 1.978 1.978 0 00-.492.032c-.23.038-.427.107-.585.195-.17.1-.295.176-.361.232a2.1 2.1 0 00-.25.302 2.208 2.208 0 00-.256.477 1.686 1.686 0 00-.144.44c-.013.094-.007.276.02.546.039.276.078.452.124.54.046.094.145.226.296.402.144.17.256.282.335.345.079.038.177.094.295.157zm4.466-1.052v.139l.02.332c.007.113.013.214.013.302a4.7 4.7 0 01-.013.301v.176a.247.247 0 01-.092.163.258.258 0 01-.19.063.379.379 0 01-.197-.075.185.185 0 01-.073-.17v-.163c.007-.113.014-.207.014-.295 0-.082-.007-.182-.014-.283l-.02-.333c0-.125-.006-.339-.02-.646a9.889 9.889 0 01-.019-.547 13.116 13.116 0 01-.02-.263c-.013-.277-.02-.478-.02-.616s.007-.276.02-.408v-.031c0-.013.007-.038.02-.07.013-.03.02-.062.033-.093a.238.238 0 01.06-.082.248.248 0 01.084-.057.21.21 0 01.112-.012.385.385 0 01.145.056c.085.05.131.1.15.145.02.044.02.075-.006.1l-.033.032v1.168c.007.03.013.069.013.119.007.094.014.163.02.226.099-.22.17-.383.223-.49.06-.113.125-.22.19-.333.066-.119.191-.295.362-.527a5.24 5.24 0 01.394-.471c.092-.07.197-.132.315-.188l.138-.05a.285.285 0 01.217-.013.276.276 0 01.158.119c.032.057.032.12.006.188a.243.243 0 01-.138.139l-.138.056a.842.842 0 00-.17.088 5.992 5.992 0 00-.65.873c-.06.107-.119.207-.171.314a17.7 17.7 0 00-.237.508c-.125.258-.23.427-.315.521-.06.032-.112.063-.17.088zm3.415 1.503a.32.32 0 01-.198.063.3.3 0 01-.19-.076c-.053-.05-.08-.1-.08-.163l.014-.094v-.69c0-.089-.007-.214-.013-.371-.007-.164-.02-.358-.033-.578-.02-.226-.04-.44-.053-.64-.013-.201-.02-.358-.032-.484l-.04-.377a6.484 6.484 0 00-.033-.276.532.532 0 00-.02-.132l-.012-.088a.174.174 0 01.046-.163.248.248 0 01.177-.094.314.314 0 01.21.044c.066.037.099.088.105.15l.02.076c.006.063.013.119.02.17 0 .043.013.131.032.263l.04.39c.013.125.026.288.04.49.006.2.019.413.032.633.02.226.04.42.046.584.006.163.013.289.013.383v.71l-.013.107c.006.062-.02.119-.079.163zm.79-4.243a.233.233 0 01.137-.132.362.362 0 01.217-.006.275.275 0 01.158.119l.111.226c.086.163.171.364.257.597.085.213.15.383.203.496.066.119.158.282.27.49.117.207.256.451.407.721.15.277.256.453.315.54.059.095.118.183.17.264.046.07.119.157.224.258.02.018.046.037.065.056.033-.037.06-.081.092-.125a3.04 3.04 0 00.25-.421 19.223 19.223 0 00.394-1.055c.125-.333.217-.559.27-.684.052-.126.11-.277.177-.453l.157-.364.046-.1c.02-.057.072-.1.138-.126a.365.365 0 01.217-.006c.072.025.125.063.15.126a.18.18 0 010 .182l-.032.1a6.175 6.175 0 00-.158.352c-.065.176-.125.32-.177.44-.046.119-.138.345-.263.684-.124.339-.216.571-.256.697l-.144.364a2.533 2.533 0 01-.283.509.361.361 0 01-.046.069.39.39 0 01-.052.069.573.573 0 00-.06.075.547.547 0 01-.058.075c-.014.013-.04.032-.073.057a.244.244 0 01-.092.044c-.026.006-.059.012-.098.025a.133.133 0 01-.118-.013c-.138-.012-.283-.1-.44-.257a1.438 1.438 0 01-.302-.333 4.786 4.786 0 01-.178-.264 7.395 7.395 0 01-.328-.577 20.675 20.675 0 00-.407-.722c-.118-.208-.21-.377-.27-.496a7.427 7.427 0 01-.236-.547 4.03 4.03 0 00-.223-.546l-.125-.226a.197.197 0 01-.007-.182zm9.36 3.001h-.013c-.046.07-.085.132-.112.189-.04.05-.079.106-.125.163-.059.075-.19.207-.394.389-.203.188-.36.314-.472.37-.105.057-.21.107-.316.145-.105.038-.21.069-.315.1a2.218 2.218 0 01-.394.05 1.92 1.92 0 01-.506-.075c-.164-.05-.288-.1-.374-.138a1.708 1.708 0 01-.256-.138 1.14 1.14 0 01-.492-.622 1.397 1.397 0 01-.099-.383c-.007-.094 0-.2.02-.332a1.2 1.2 0 01.098-.314 1.73 1.73 0 01.237-.365 1.48 1.48 0 01.315-.332c.085-.057.17-.113.27-.164.098-.05.222-.113.38-.175.17-.063.374-.107.598-.12.223-.019.407-.012.538.032.138.044.328.163.571.351.033.025.06.05.092.076-.052-.164-.092-.296-.124-.39a4.306 4.306 0 00-.204-.42 2.667 2.667 0 00-.236-.383 1.381 1.381 0 00-.224-.245 1.947 1.947 0 00-.38-.22 1.818 1.818 0 00-.493-.163 2.29 2.29 0 00-.361-.038 1.055 1.055 0 00-.283.012c-.072 0-.216.038-.413.107a2.097 2.097 0 00-.296.138l-.06.076a.31.31 0 01-.387.063.226.226 0 01-.111-.157.21.21 0 01.04-.176l.078-.088c.072-.1.25-.195.532-.295.256-.094.447-.138.571-.145.112-.012.224-.019.335-.012.125 0 .283.019.46.05.19.031.4.1.637.214.236.106.414.207.525.3.105.095.204.195.296.315s.184.27.282.458c.099.189.171.346.217.471.046.126.105.301.177.54.072.22.132.377.171.471.033.1.06.201.092.302.033.1.053.169.066.213.039.05.026.12-.033.207l-.125.088zm-.473-.245c-.046-.063-.085-.125-.125-.176a9.115 9.115 0 00-.177-.226 3.271 3.271 0 00-.414-.364c-.203-.157-.335-.245-.407-.264a1.307 1.307 0 00-.302-.012 1.427 1.427 0 00-.414.088c-.137.05-.243.1-.315.144l-.217.132a1.44 1.44 0 00-.216.232c-.092.12-.151.201-.178.258-.02.056-.046.138-.065.232a.809.809 0 00.053.477.712.712 0 00.144.245.85.85 0 00.17.145c.053.031.112.063.171.094.06.031.164.063.302.1.119.038.224.057.316.057a1.97 1.97 0 00.256-.032 2.56 2.56 0 00.236-.075c.085-.031.164-.069.25-.107.072-.044.197-.144.374-.301.177-.163.289-.27.328-.314.04-.056.073-.113.099-.157.026-.031.066-.094.131-.176zm-9.9-4.176a1.597 1.597 0 01-.597-.453c-.06-.069-.388-.401-.322-.52.033-.057.21-.026.256 0a.515.515 0 01.144.119c.066.075.112.163.158.25.092.183.164.377.289.54.072.101.243.007.17-.093-.183-.252-.255-.566-.459-.81-.151-.183-.46-.346-.676-.164-.204.164-.014.415.105.572.223.295.473.565.827.716.125.056.223-.107.105-.157z" fill="#1F1F1F"/><path d="M19.536 15.354c.165.283.375.546.578.804.079.094.25 0 .171-.094a6.282 6.282 0 01-.578-.804c-.066-.107-.236-.013-.17.094zm.863.996c.538-.025 1.063-.194 1.563-.39.164-.062.512-.169.472-.395-.105-.571-1.7.346-1.924.427-.118.044-.065.226.053.182.243-.087.466-.2.696-.307.144-.07.742-.402.913-.264.065.05.02.05-.06.088-.045.025-.098.044-.15.069-.125.05-.256.094-.381.144-.381.132-.769.245-1.182.264-.125 0-.132.189 0 .182z" fill="#1F1F1F"/><path d="M21.982 15.633c-.42.182-.854.332-1.287.477-.118.037-.066.22.052.182.454-.157.9-.314 1.34-.496.112-.05.007-.214-.105-.163z" fill="#1F1F1F"/></svg>