<svg width="24" height="24" fill="none" xmlns="http://www.w3.org/2000/svg"><path d="M6.813 1C5.27 1 4 2.242 4 3.75v16.5C4 21.758 5.27 23 6.813 23h9.375C17.73 23 19 21.758 19 20.25V3.75C19 2.242 17.73 1 16.187 1H6.813zm0 1.833h9.375c.52 0 .937.408.937.917v16.5a.924.924 0 01-.938.917H6.813a.924.924 0 01-.937-.917V3.75c0-.509.417-.917.938-.917zM11.5 18.417a.948.948 0 00-.663.268.906.906 0 00-.274.648c0 .243.098.477.274.649a.948.948 0 001.326 0 .907.907 0 00.274-.649.906.906 0 00-.274-.648.948.948 0 00-.663-.268z" fill="#FDA3C4"/></svg>