<svg width="160" height="40" fill="none" xmlns="http://www.w3.org/2000/svg"><path d="M1.84 23.988c.036-.695.07-1.286.07-1.772l.105-2.674c.034-.903.034-2.05.034-3.439 0-1.355-.034-2.883-.104-4.48-.07-1.668-.139-2.849-.174-3.509-.034-.66-.104-1.354-.173-2.153-.07-.799-.14-1.39-.174-1.771-.035-.417-.104-.904-.174-1.425l-.07-.764c-.034-.347.07-.66.314-.937.243-.278.59-.417.972-.452.382-.035.764.07 1.077.313.312.243.486.52.52.903l.07.764c.07.52.14.972.174 1.354.035.382.104 1.008.174 1.807.07.798.139 1.563.173 2.292.035.695.104 1.84.174 3.473.07 1.702.104 3.23.104 4.654a89.85 89.85 0 01-.07 3.37c.21-.209.348-.382.487-.556.382-.347.799-.695 1.25-1.042.452-.347 1.008-.73 1.737-1.146.73-.382 1.32-.695 1.771-.869.59-.173 1.39-.312 2.397-.416 1.042-.07 1.806-.035 2.397.104.52.104 1.007.243 1.493.417.521.243 1.077.625 1.737 1.146.625.555 1.146 1.076 1.493 1.563.348.52.66 1.077.903 1.667.278.66.487 1.771.66 3.404.209 1.667.243 2.848.174 3.508a8.762 8.762 0 01-.313 1.945 13.517 13.517 0 01-.729 1.771c-.278.59-.695 1.216-1.216 1.876-.52.66-1.007 1.18-1.459 1.528-.451.348-1.111.764-2.014 1.285-.903.487-1.633.8-2.154.973-.486.139-1.042.278-1.736.382a19.89 19.89 0 01-1.563.208c-.347.035-.695.07-1.007.105-.382.034-.903.034-1.563 0-.73-.035-1.32-.14-1.772-.313l-.417-.174a1.341 1.341 0 01-.833-.66 1.218 1.218 0 01-.035-1.042c.139-.347.382-.59.764-.729s.73-.139 1.112 0l.486.174c.174.034.451.07.834.104h1.146c.278-.035.625-.07 1.007-.104.347-.035.799-.105 1.32-.174a13.585 13.585 0 001.354-.313c.313-.07.834-.312 1.563-.694a19.746 19.746 0 001.598-.973c.278-.243.625-.625 1.042-1.111.417-.487.73-.938.938-1.39.208-.416.347-.868.486-1.354.104-.452.209-.973.313-1.529.035-.555-.035-1.528-.174-2.987-.208-1.458-.382-2.396-.52-2.813-.174-.417-.348-.834-.591-1.18-.243-.313-.59-.66-1.008-1.043-.451-.313-.764-.556-1.007-.66a3.962 3.962 0 00-.903-.312c-.278-.035-.764-.035-1.493 0-.73.069-1.216.173-1.494.277-.382.105-.868.313-1.424.66a10.88 10.88 0 00-1.32.869c-.347.278-.73.59-1.077.868-.277.278-.729.903-1.354 1.84a7.212 7.212 0 00-.521.696c-.382.59-.66 1.042-.834 1.354-.035.417-.07.869-.07 1.355a89.574 89.574 0 01-.312 3.751c-.07.938-.139 1.667-.208 2.153-.07.521-.14 1.112-.209 1.841-.07.764-.139 1.285-.173 1.563-.035.313-.14.73-.313 1.25-.035.035-.104.07-.139.14-.07.07-.174.139-.382.312-.208.14-.382.278-.556.382a2.608 2.608 0 01-.625.278c-.243.07-.451.104-.625.07a.782.782 0 01-.486-.278 1.615 1.615 0 01-.313-.695c-.07-.313-.104-.66-.174-1.042-.07-.382-.104-.764-.139-1.077A13.763 13.763 0 010 33.47c0-.417.035-1.216.104-2.397.07-1.216.174-2.119.313-2.674a12.48 12.48 0 01.417-1.633c.173-.52.347-1.042.59-1.598.035-.451.208-.798.417-1.18zm38.661 14.346c-.277.347-.625.555-1.076.59l-.903.105c-.8.069-1.772.034-2.987-.174a14.647 14.647 0 01-3.23-.973 14.485 14.485 0 01-2.258-1.285c-.625-.486-1.424-1.25-2.328-2.397-.902-1.11-1.528-2.014-1.84-2.709-.348-.73-.626-1.98-.834-3.75-.243-1.772-.313-3.023-.174-3.787.174-.73.487-1.702.973-2.917a18.65 18.65 0 011.598-3.126c.59-.834 1.111-1.529 1.632-2.015.521-.52 1.32-1.077 2.431-1.737 1.181-.729 2.606-1.215 4.238-1.458 1.598-.244 2.744-.313 3.508-.209.73.07 1.737.347 3.022.868 1.32.522 2.292.973 2.917 1.355.626.382 1.285.973 1.98 1.702.66.73 1.181 1.424 1.494 2.015.347.625.694 1.597 1.007 2.917.278 1.32.417 2.57.417 3.682 0 1.042-.07 1.91-.174 2.605-.07.73-.347 1.702-.764 2.987-.451 1.285-.938 2.362-1.493 3.195-.556.869-1.32 1.668-2.328 2.397-1.007.764-1.771 1.25-2.327 1.459-.486.278-1.354.486-2.5.66zm-7.016-2.848c.486-.313.938-.417 1.424-.278l.938.312a5.671 5.671 0 001.598.313c.556.07 1.32.035 2.327-.104 1.007-.14 1.667-.278 2.014-.417.348-.139.904-.521 1.668-1.077.764-.59 1.32-1.18 1.736-1.771.452-.625.834-1.459 1.181-2.536.382-1.111.625-1.98.73-2.535.07-.59.104-1.355.104-2.327 0-.903-.104-1.945-.347-3.092-.243-1.111-.487-1.875-.73-2.257-.243-.417-.625-.938-1.146-1.528-.521-.591-1.007-1.008-1.424-1.286-.417-.277-1.181-.625-2.292-1.042-1.112-.382-1.91-.625-2.397-.66-.452-.07-1.32-.034-2.605.174-1.216.209-2.258.59-3.091 1.077-.903.555-1.563.972-1.91 1.285-.383.382-.834.938-1.32 1.667-.487.695-.938 1.563-1.355 2.64-.452 1.042-.695 1.875-.764 2.431-.07.521-.035 1.528.104 3.022.208 1.528.417 2.5.66 2.987.243.521.764 1.25 1.563 2.223.764.938 1.355 1.563 1.771 1.91.417.209.938.521 1.563.869zm35.877 2.848c-.278.347-.625.555-1.077.59l-.903.105c-.799.069-1.771.034-2.987-.174a14.645 14.645 0 01-3.23-.973 14.487 14.487 0 01-2.258-1.285c-.625-.486-1.424-1.25-2.327-2.397-.903-1.11-1.528-2.014-1.84-2.709-.348-.73-.626-1.98-.834-3.75-.244-1.772-.313-3.023-.174-3.787.174-.73.486-1.702.972-2.917a18.658 18.658 0 011.598-3.126c.59-.834 1.112-1.529 1.633-2.015.52-.52 1.32-1.077 2.43-1.737 1.182-.729 2.606-1.215 4.238-1.458 1.598-.244 2.744-.313 3.509-.209.729.07 1.736.347 3.021.868 1.32.522 2.293.973 2.918 1.355s1.285.973 1.98 1.702c.66.73 1.18 1.424 1.493 2.015.347.625.695 1.597 1.007 2.917.278 1.32.417 2.57.417 3.682 0 1.042-.07 1.91-.173 2.605-.07.73-.348 1.702-.765 2.987-.451 1.285-.937 2.362-1.493 3.195-.556.869-1.32 1.668-2.327 2.397-1.007.764-1.772 1.25-2.327 1.459-.487.278-1.355.486-2.501.66zm-7.016-2.848c.486-.313.938-.417 1.424-.278l.938.312a5.671 5.671 0 001.597.313c.556.07 1.32.035 2.327-.104 1.008-.14 1.668-.278 2.015-.417.347-.139.903-.521 1.667-1.077.764-.59 1.32-1.18 1.737-1.771.451-.625.833-1.459 1.18-2.536.383-1.111.626-1.98.73-2.535.07-.59.104-1.355.104-2.327 0-.903-.104-1.945-.347-3.092-.243-1.111-.486-1.875-.73-2.257-.242-.417-.625-.938-1.145-1.528-.522-.591-1.008-1.008-1.425-1.286-.416-.277-1.18-.625-2.292-1.042-1.112-.382-1.91-.625-2.397-.66-.451-.07-1.32-.034-2.605.174-1.215.209-2.257.59-3.09 1.077-.904.555-1.564.972-1.911 1.285-.382.382-.834.938-1.32 1.667-.486.695-.938 1.563-1.355 2.64-.451 1.042-.694 1.875-.764 2.431-.07.521-.034 1.528.104 3.022.209 1.528.417 2.5.66 2.987.243.521.764 1.25 1.563 2.223.764.938 1.355 1.563 1.772 1.91.416.209.938.521 1.563.869zm23.625-5.801v.764c.035.625.07 1.216.104 1.841.035.625.07 1.181.07 1.667 0 .521-.035 1.077-.07 1.668v.972a1.38 1.38 0 01-.486.903 1.331 1.331 0 01-1.007.347 1.955 1.955 0 01-1.042-.416c-.313-.278-.417-.59-.382-.938v-.903c.034-.625.07-1.146.07-1.633 0-.451-.035-1.007-.07-1.563-.035-.59-.07-1.18-.104-1.84 0-.695-.035-1.876-.105-3.578a57.004 57.004 0 01-.104-3.022c-.035-.417-.07-.903-.104-1.459a81.679 81.679 0 01-.104-3.404c0-.764.034-1.528.104-2.257v-.174c0-.07.035-.208.104-.382.07-.173.104-.347.174-.52.07-.174.173-.313.312-.452.14-.14.278-.243.452-.313s.347-.104.59-.07c.244.035.487.14.765.313.451.278.694.556.798.799.105.243.105.417-.034.556l-.174.173v6.461c.035.173.07.382.07.66.034.52.069.903.104 1.25.52-1.216.903-2.119 1.18-2.71.313-.624.66-1.215 1.008-1.84.347-.66 1.007-1.632 1.91-2.918 1.007-1.354 1.702-2.223 2.084-2.605a9.736 9.736 0 011.667-1.041l.73-.278c.347-.174.73-.209 1.146-.07.382.14.66.348.834.66.173.313.173.66.034 1.042-.139.347-.382.625-.729.764l-.73.313a4.38 4.38 0 00-.903.486c-.243.243-.798.973-1.667 2.119-.868 1.25-1.459 2.153-1.771 2.709-.313.59-.625 1.146-.903 1.737-.278.59-.695 1.528-1.25 2.813-.66 1.424-1.216 2.362-1.668 2.883-.312.174-.59.347-.903.486zm18.062 8.3c-.312.243-.66.347-1.042.347s-.729-.174-1.007-.417c-.278-.278-.417-.556-.417-.903l.07-.52V32.67c0-.486-.035-1.18-.07-2.049-.035-.903-.104-1.98-.174-3.195-.104-1.25-.208-2.432-.277-3.543-.07-1.111-.105-1.98-.174-2.674-.07-.695-.139-1.355-.209-2.084-.069-.73-.138-1.25-.173-1.529a3.1 3.1 0 00-.104-.73l-.07-.485a.997.997 0 01.243-.904c.243-.312.556-.486.938-.52.382-.07.764.034 1.112.243.347.208.521.486.555.833l.104.417c.035.347.07.66.105.938 0 .243.069.73.173 1.459.07.729.139 1.458.209 2.153.069.695.139 1.598.208 2.71.035 1.11.104 2.292.174 3.507.104 1.25.208 2.328.243 3.23.035.904.069 1.598.069 2.12v3.923l-.069.59c.035.348-.104.66-.417.904zm4.169-23.445c.139-.347.382-.59.729-.729s.729-.139 1.146-.035c.382.14.66.348.834.66l.59 1.25c.452.904.903 2.015 1.355 3.3.451 1.181.799 2.12 1.077 2.744.347.66.833 1.563 1.424 2.71.625 1.146 1.354 2.5 2.153 3.994.799 1.528 1.355 2.5 1.667 2.987.313.52.626 1.007.903 1.459.244.382.626.868 1.181 1.424.105.104.243.208.348.312.173-.208.312-.451.486-.694.66-1.042 1.111-1.806 1.32-2.327.243-.626.486-1.25.729-1.945.278-.73.73-2.015 1.355-3.89.66-1.841 1.146-3.092 1.424-3.787.278-.694.59-1.528.938-2.5.382-.938.66-1.598.833-2.015l.243-.556c.105-.312.382-.555.73-.694a1.848 1.848 0 011.146-.035c.382.139.66.347.799.695.174.347.174.66 0 1.007l-.174.556c-.173.347-.451 1.007-.833 1.945a47.56 47.56 0 01-.938 2.431c-.243.66-.73 1.91-1.39 3.786-.659 1.876-1.146 3.16-1.354 3.855-.278.73-.521 1.39-.764 2.015-.243.695-.73 1.632-1.494 2.813-.035.07-.104.209-.243.382a2.148 2.148 0 01-.278.383 3.135 3.135 0 00-.312.416 3.147 3.147 0 01-.313.417c-.069.07-.208.174-.382.313a1.27 1.27 0 01-.486.243c-.139.035-.313.07-.521.139-.209.07-.417.07-.626-.07-.729-.07-1.493-.556-2.327-1.424-.764-.695-1.285-1.285-1.597-1.84a26.081 26.081 0 01-.938-1.46c-.348-.555-.938-1.597-1.737-3.195-.799-1.528-1.493-2.848-2.153-3.994a57.059 57.059 0 01-1.424-2.744c-.348-.73-.765-1.737-1.251-3.022a22.974 22.974 0 00-1.181-3.022l-.66-1.25c-.173-.313-.173-.66-.034-1.008zm49.98 17.68h-.069c-.243.382-.452.73-.591 1.042-.208.278-.416.59-.66.903-.312.417-1.007 1.146-2.084 2.153-1.076 1.042-1.91 1.737-2.5 2.05-.556.312-1.112.59-1.668.798a29.87 29.87 0 01-1.667.556c-.59.14-1.285.243-2.084.278-.799 0-1.702-.139-2.674-.417a17.15 17.15 0 01-1.98-.764 8.899 8.899 0 01-1.355-.764c-.451-.278-.903-.695-1.354-1.18-.521-.591-.938-1.32-1.251-2.258-.312-.869-.486-1.563-.521-2.12-.034-.52 0-1.11.105-1.84.104-.695.312-1.25.521-1.737.208-.52.625-1.18 1.25-2.014.625-.869 1.181-1.494 1.667-1.841.452-.313.903-.625 1.424-.903a22.482 22.482 0 012.015-.973c.903-.347 1.98-.59 3.16-.66 1.181-.104 2.154-.07 2.849.174.729.243 1.736.903 3.021 1.945.174.139.313.278.487.417-.278-.903-.487-1.633-.66-2.154a24.267 24.267 0 00-1.077-2.327c-.452-.903-.868-1.598-1.25-2.119a7.572 7.572 0 00-1.181-1.354c-.348-.313-1.042-.73-2.015-1.216-1.007-.486-1.875-.799-2.605-.903-.799-.139-1.424-.208-1.91-.208-.521-.035-1.007-.035-1.494.07-.382 0-1.146.208-2.188.59-.764.312-1.285.59-1.563.764l-.313.417a1.628 1.628 0 01-.937.555c-.382.07-.764 0-1.112-.208-.347-.209-.521-.521-.59-.868-.07-.348 0-.695.208-.973l.417-.486c.382-.556 1.32-1.077 2.813-1.633 1.355-.52 2.362-.764 3.022-.799.591-.069 1.181-.104 1.772-.069.659 0 1.493.104 2.431.278 1.007.173 2.119.556 3.369 1.18 1.25.591 2.188 1.147 2.779 1.668a12.7 12.7 0 011.563 1.737c.486.66.972 1.493 1.493 2.535.521 1.042.903 1.91 1.146 2.605.244.695.556 1.667.938 2.987a38.66 38.66 0 00.903 2.605c.174.556.313 1.112.487 1.668.173.555.277.937.347 1.18.208.278.139.66-.174 1.147l-.66.486zm-2.501-1.355c-.243-.347-.451-.694-.659-.972a60.515 60.515 0 00-.938-1.25c-.348-.418-1.077-1.112-2.188-2.015-1.077-.869-1.772-1.355-2.154-1.459-.278-.07-.799-.104-1.598-.07-.868.07-1.597.244-2.188.487-.729.278-1.285.556-1.667.799l-1.146.73c-.278.208-.66.659-1.146 1.284-.487.66-.799 1.112-.938 1.424a10.91 10.91 0 00-.348 1.285c-.069.487-.104.869-.069 1.181 0 .313.104.8.347 1.46.243.624.487 1.076.764 1.354.313.347.626.625.903.799.278.173.591.347.904.52.312.174.868.348 1.597.556.625.209 1.181.313 1.667.313a10.086 10.086 0 001.355-.174 13.22 13.22 0 001.25-.416c.452-.174.869-.383 1.32-.591.382-.243 1.042-.799 1.98-1.667.938-.903 1.528-1.494 1.737-1.737.208-.313.382-.625.521-.868.139-.174.347-.521.694-.973zM102.856 6.692c-1.285-.556-2.257-1.424-3.16-2.501-.313-.382-2.05-2.223-1.702-2.883.173-.312 1.111-.139 1.354 0 .278.14.556.417.764.66.348.417.591.903.834 1.39.486 1.007.868 2.083 1.528 2.986.382.556 1.285.035.903-.52-.972-1.39-1.354-3.127-2.431-4.481-.799-1.007-2.431-1.91-3.578-.903-1.076.903-.07 2.292.556 3.16 1.181 1.633 2.501 3.127 4.377 3.96.659.313 1.18-.59.555-.868z" fill="#1F1F1F"/><path d="M98.023 2.142c.869 1.563 1.98 3.021 3.057 4.445.417.521 1.32 0 .903-.52-1.112-1.425-2.188-2.883-3.057-4.446-.347-.59-1.25-.07-.903.52zm4.582 5.521c2.849-.138 5.627-1.076 8.267-2.153.868-.347 2.709-.938 2.501-2.188-.556-3.16-8.996 1.91-10.177 2.362-.625.243-.347 1.25.278 1.007 1.285-.486 2.466-1.112 3.682-1.702.764-.382 3.924-2.223 4.827-1.459.348.278.105.278-.312.486-.243.14-.521.244-.799.383-.66.277-1.355.52-2.015.798-2.014.73-4.063 1.355-6.252 1.46-.659 0-.694 1.041 0 1.006z" fill="#1F1F1F"/><path d="M110.979 3.669c-2.223 1.007-4.515 1.84-6.808 2.64-.625.208-.347 1.215.278 1.007 2.397-.869 4.759-1.737 7.086-2.744.59-.278.035-1.181-.556-.903z" fill="#1F1F1F"/></svg>